<svg width="24" height="25" viewBox="0 0 24 25" fill="none" xmlns="http://www.w3.org/2000/svg">
<g id="check_circle">
<mask id="mask0_546_28093" style="mask-type:alpha" maskUnits="userSpaceOnUse" x="0" y="0" width="24" height="25">
<rect id="Bounding box" y="0.714355" width="24" height="24" fill="#D9D9D9"/>
</mask>
<g mask="url(#mask0_546_28093)">
<path id="check_circle_2" d="M10.6 17.3144L17.65 10.2644L16.25 8.86436L10.6 14.5144L7.75 11.6644L6.35 13.0644L10.6 17.3144ZM12 22.7144C10.6167 22.7144 9.31667 22.4517 8.1 21.9264C6.88333 21.4017 5.825 20.6894 4.925 19.7894C4.025 18.8894 3.31267 17.831 2.788 16.6144C2.26267 15.3977 2 14.0977 2 12.7144C2 11.331 2.26267 10.031 2.788 8.81436C3.31267 7.59769 4.025 6.53936 4.925 5.63936C5.825 4.73936 6.88333 4.02669 8.1 3.50136C9.31667 2.97669 10.6167 2.71436 12 2.71436C13.3833 2.71436 14.6833 2.97669 15.9 3.50136C17.1167 4.02669 18.175 4.73936 19.075 5.63936C19.975 6.53936 20.6873 7.59769 21.212 8.81436C21.7373 10.031 22 11.331 22 12.7144C22 14.0977 21.7373 15.3977 21.212 16.6144C20.6873 17.831 19.975 18.8894 19.075 19.7894C18.175 20.6894 17.1167 21.4017 15.9 21.9264C14.6833 22.4517 13.3833 22.7144 12 22.7144Z" fill="#1F1F1F"/>
</g>
</g>
</svg>
