<svg width="25" height="25" viewBox="0 0 25 25" fill="none" xmlns="http://www.w3.org/2000/svg">
<g id=" favorite">
<mask id="mask0_546_28135" style="mask-type:alpha" maskUnits="userSpaceOnUse" x="0" y="0" width="25" height="25">
<rect id="Bounding box" x="0.666504" y="0.714355" width="24" height="24" fill="#D9D9D9"/>
</mask>
<g mask="url(#mask0_546_28135)">
<path id="favorite" d="M12.6665 21.7143L11.2165 20.4143C9.53317 18.8976 8.1415 17.5893 7.0415 16.4893C5.9415 15.3893 5.0665 14.4016 4.4165 13.5263C3.7665 12.6516 3.3125 11.8476 3.0545 11.1143C2.79584 10.3809 2.6665 9.63092 2.6665 8.86426C2.6665 7.29759 3.1915 5.98926 4.2415 4.93926C5.2915 3.88926 6.59984 3.36426 8.1665 3.36426C9.03317 3.36426 9.85817 3.54759 10.6415 3.91426C11.4248 4.28092 12.0998 4.79759 12.6665 5.46426C13.2332 4.79759 13.9082 4.28092 14.6915 3.91426C15.4748 3.54759 16.2998 3.36426 17.1665 3.36426C18.7332 3.36426 20.0415 3.88926 21.0915 4.93926C22.1415 5.98926 22.6665 7.29759 22.6665 8.86426C22.6665 9.63092 22.5375 10.3809 22.2795 11.1143C22.0208 11.8476 21.5665 12.6516 20.9165 13.5263C20.2665 14.4016 19.3915 15.3893 18.2915 16.4893C17.1915 17.5893 15.7998 18.8976 14.1165 20.4143L12.6665 21.7143Z" fill="#7356BF"/>
</g>
</g>
</svg>
