<svg width="48" height="49" viewBox="0 0 48 49" fill="none" xmlns="http://www.w3.org/2000/svg">
<g id=" cancel">
<mask id="mask0_575_12271" style="mask-type:alpha" maskUnits="userSpaceOnUse" x="0" y="0" width="48" height="49">
<rect id="Bounding box" y="0.714355" width="48" height="48" fill="#D9D9D9"/>
</mask>
<g mask="url(#mask0_575_12271)">
<path id="cancel" d="M16.8 34.7144L24 27.5144L31.2 34.7144L34 31.9144L26.8 24.7144L34 17.5144L31.2 14.7144L24 21.9144L16.8 14.7144L14 17.5144L21.2 24.7144L14 31.9144L16.8 34.7144ZM24 44.7144C21.2333 44.7144 18.6333 44.189 16.2 43.1384C13.7667 42.089 11.65 40.6644 9.85 38.8644C8.05 37.0644 6.62533 34.9477 5.576 32.5144C4.52533 30.081 4 27.481 4 24.7144C4 21.9477 4.52533 19.3477 5.576 16.9144C6.62533 14.481 8.05 12.3644 9.85 10.5644C11.65 8.76436 13.7667 7.33902 16.2 6.28836C18.6333 5.23902 21.2333 4.71436 24 4.71436C26.7667 4.71436 29.3667 5.23902 31.8 6.28836C34.2333 7.33902 36.35 8.76436 38.15 10.5644C39.95 12.3644 41.3747 14.481 42.424 16.9144C43.4747 19.3477 44 21.9477 44 24.7144C44 27.481 43.4747 30.081 42.424 32.5144C41.3747 34.9477 39.95 37.0644 38.15 38.8644C36.35 40.6644 34.2333 42.089 31.8 43.1384C29.3667 44.189 26.7667 44.7144 24 44.7144Z" fill="#6B6B6B"/>
</g>
</g>
</svg>
