<svg width="120" height="121" viewBox="0 0 120 121" fill="none" xmlns="http://www.w3.org/2000/svg">
<g id="106.Tools">
<g id="n.114 Tools">
<path id="Vector" d="M45.3833 96.3244C42.9586 95.709 40.5402 95.0644 38.1279 94.3906C37.2463 94.1482 36.3625 93.929 35.4856 93.6659L34.3317 93.3267L33.1779 92.9667C32.4094 92.7244 31.6363 92.4936 30.8702 92.2444C29.3425 91.7321 27.8102 91.2359 26.2986 90.6752C24.9463 90.2136 23.6056 89.6852 22.2717 89.1936C21.4202 88.8636 20.5779 88.5013 19.7333 88.1506C19.5233 88.0583 19.311 87.9752 19.1079 87.8667L18.4986 87.5413C18.0971 87.3106 17.6933 87.1029 17.3033 86.849C16.8417 86.519 16.971 86.4359 17.504 86.4521C18.3167 86.5205 19.1103 86.7355 19.8463 87.0867C23.1856 88.6052 26.6679 89.8398 30.1825 91.0836C31.2325 91.4667 32.324 91.7898 33.4133 92.1129C34.5025 92.4359 35.624 92.7406 36.7225 93.0567C39.1387 93.749 41.5686 94.4044 44.001 95.0413C45.4979 95.4352 46.9986 95.8198 48.5033 96.1952C50.7786 96.7629 53.0656 97.3352 55.334 97.8682C57.0971 98.2836 58.8348 98.6436 60.5817 99.059C60.9648 99.1513 61.3433 99.2321 61.7356 99.329C62.2471 99.4457 62.7481 99.6047 63.2333 99.8044C63.4667 99.8895 63.6747 100.032 63.8379 100.22C63.8969 100.279 63.9509 100.343 63.9994 100.411C64.094 100.582 63.4663 100.591 62.4163 100.363C59.3033 99.6706 56.0171 98.9275 52.724 98.1406C50.2779 97.5613 47.8202 96.959 45.3717 96.3498L45.3833 96.3244Z" fill="#231F20"/>
<g id="Group" opacity="0.3">
<path id="Vector_2" d="M31.1862 33.6407C30.6554 33.313 30.0531 33.2069 29.5039 32.9322C28.5808 32.4707 28.1516 31.1669 28.3501 30.163C28.4539 29.6369 28.9408 28.5615 29.5039 28.4161C29.6724 28.3745 29.9908 28.4992 30.1962 28.5522C31.5254 28.8915 32.8477 29.2653 34.1677 29.6415C38.1277 30.7676 42.0716 31.9492 46.0108 33.1561C54.6877 35.7945 63.3462 38.4953 71.9862 41.2584C74.4601 42.0499 76.9593 42.793 79.3985 43.6861C80.0908 43.9422 80.3977 42.8276 79.7054 42.5738C73.1539 40.1761 66.3947 38.2676 59.7324 36.1884C50.8039 33.4007 41.8708 30.583 32.857 28.0792C31.597 27.7307 29.7693 26.7915 28.6154 27.6892C28.0291 28.1535 27.5906 28.7785 27.3533 29.4878C27.1161 30.1971 27.0903 30.9601 27.2793 31.6838C27.457 32.3761 27.8447 33.1999 28.4101 33.6476C29.0424 34.1461 29.9239 34.2176 30.6047 34.6376C31.2393 35.0276 31.8185 34.0284 31.1862 33.6407Z" fill="#231F20"/>
</g>
<path id="Vector_3" d="M22.1329 49.8681C22.2229 48.1858 22.4582 46.9373 23.8267 45.8388C24.4521 45.3358 25.0521 44.895 25.5598 44.2627C26.0352 43.6719 26.4136 43.0142 26.8659 42.4165C28.1628 40.6835 30.3598 40.1435 32.3121 39.435C34.5429 38.6273 36.7998 37.8958 39.0828 37.2404C39.7959 37.0327 39.4936 35.9204 38.7759 36.1258C36.2252 36.8642 33.7044 37.6935 31.2136 38.6135C29.2752 39.3358 27.3436 39.915 26.0398 41.6135C25.4928 42.3219 25.0613 43.1204 24.4682 43.7919C23.8429 44.5004 22.9913 44.9458 22.3452 45.6381C21.219 46.8312 21.0621 48.3104 20.979 49.8842C20.9398 50.625 22.0936 50.6227 22.1329 49.8842V49.8681Z" fill="#231F20"/>
<path id="Vector_4" d="M30.6714 48.7488L32.7829 47.7842C32.7829 47.7842 35.5868 52.298 35.9652 52.5796C36.3437 52.8611 36.2583 54.0357 35.9652 54.4973C35.9652 54.4973 39.7706 63.9911 40.0706 64.1434C40.3706 64.2957 37.7629 63.5688 37.7629 63.5688L33.3598 52.4065C33.3598 52.4065 30.8537 49.3257 30.6714 48.7488Z" fill="#231F20"/>
<path id="Vector_5" d="M43.2117 37.1437L43.0501 34.476L43.6824 34.416L44.737 40.2891L43.8693 40.6745L43.1424 39.0591C43.1424 39.0591 41.264 39.4283 41.0655 39.8622C40.9593 40.0929 40.7378 39.4676 40.7193 39.0822C40.7055 38.7822 42.0163 38.2191 42.7063 37.776C43.2532 37.4068 43.2117 37.1437 43.2117 37.1437Z" fill="#231F20"/>
<path id="Vector_6" d="M35.0468 47.3944C34.6245 47.459 34.2022 47.5213 33.7868 47.609C33.6345 47.639 33.4983 47.7128 33.3483 47.7428C33.0807 47.7936 32.813 47.8467 32.5476 47.9044C32.2822 47.9621 32.0076 48.0059 31.7491 48.0821C31.5204 48.1509 31.3004 48.2462 31.0937 48.3659C30.8544 48.5519 30.5795 48.687 30.286 48.7628C30.1845 48.7628 30.0368 48.5321 29.9537 48.2551C29.8707 47.9782 29.8614 47.6436 30.0207 47.519C30.5673 47.0999 31.2069 46.8189 31.8853 46.6997C32.2819 46.6062 32.6714 46.4843 33.0507 46.3351C33.4822 46.2174 33.916 46.1228 34.3476 46.0305L35.1437 45.8644C35.543 45.7721 35.9491 45.7097 36.3345 45.5805C36.6283 45.4595 36.9116 45.3144 37.1814 45.1467C37.2401 45.1085 37.301 45.0738 37.3637 45.0428C37.5945 44.9551 37.7122 45.0428 37.8691 45.4351C37.9037 45.5228 37.943 45.6082 37.9753 45.6959C38.0295 45.8141 38.0507 45.9448 38.0365 46.074C38.0223 46.2033 37.9732 46.3262 37.8945 46.4297C37.433 46.8521 36.8745 47.0159 36.3137 47.1613C35.9007 47.2674 35.4737 47.3367 35.056 47.4313L35.0468 47.3944Z" fill="#231F20"/>
<path id="Vector_7" d="M46.1283 48.5711C45.5675 48.3957 45.0067 48.2157 44.4436 48.0472C44.2359 47.9872 44.0259 47.9434 43.8206 47.8811L41.6375 47.2419C41.3144 47.1472 40.9867 47.0642 40.6613 46.9834C40.2414 46.8891 39.827 46.772 39.4198 46.6326C39.2952 46.5865 39.3275 46.5265 39.4567 46.4849C39.6488 46.4297 39.8511 46.4202 40.0475 46.4572C40.479 46.5357 40.9083 46.6188 41.3375 46.7134C41.7667 46.808 42.1936 46.9119 42.6136 47.048C43.119 47.2049 43.6613 47.3088 44.1852 47.4472C44.7598 47.5972 45.339 47.7588 45.9067 47.9249L46.959 48.2411L48.549 48.7326C48.9598 48.8526 49.3729 48.9449 49.7813 49.0626L50.049 49.1388C50.3767 49.2611 50.4598 49.3696 50.4898 49.4965C50.4988 49.5274 50.505 49.5591 50.5083 49.5911C50.5083 49.6857 50.349 49.718 50.0883 49.6949C49.32 49.5512 48.5628 49.3538 47.8221 49.1042C47.259 48.9311 46.6936 48.7511 46.1259 48.5849L46.1283 48.5711Z" fill="#231F20"/>
<path id="Vector_8" d="M59.2847 52.2615C58.9824 52.1645 58.6801 52.0584 58.3732 51.9661C58.2624 51.9315 58.1424 51.913 58.0362 51.8784L56.8501 51.5115C56.6747 51.4584 56.4947 51.4145 56.317 51.373C56.0868 51.3266 55.8612 51.2594 55.6432 51.1722C55.5762 51.1399 55.6016 51.0776 55.6778 51.0222C55.7758 50.9509 55.8962 50.9173 56.017 50.9276C56.2478 50.9553 56.4785 50.9876 56.7232 51.0315C56.9584 51.0716 57.19 51.131 57.4155 51.2092C57.6878 51.3038 57.9878 51.343 58.2739 51.4122C58.5601 51.4815 58.9039 51.5738 59.2155 51.6638L59.7924 51.8392C60.0832 51.9245 60.3693 52.0307 60.6601 52.1115C60.8908 52.1807 61.1216 52.2153 61.3524 52.2822C61.4033 52.2926 61.4534 52.3064 61.5024 52.3238C61.6801 52.3999 61.7101 52.4853 61.7032 52.6099C61.7055 52.6391 61.7055 52.6684 61.7032 52.6976C61.6847 52.7876 61.5808 52.8338 61.4331 52.843C61.014 52.7995 60.6017 52.705 60.2055 52.5615C59.9055 52.4669 59.6032 52.3653 59.2939 52.2753L59.2847 52.2615Z" fill="#231F20"/>
<path id="Vector_9" d="M77.9998 57.5068C77.8498 57.456 77.6975 57.4076 77.5383 57.3637C77.4829 57.3476 77.4252 57.3452 77.3675 57.3268L76.7745 57.1283C76.6868 57.1006 76.5968 57.0775 76.5091 57.0568C76.3921 57.0425 76.2795 57.0032 76.1791 56.9414C76.1468 56.9183 76.1791 56.8422 76.2252 56.7683C76.2714 56.6945 76.3545 56.6229 76.4191 56.6299C76.532 56.6379 76.6445 56.6517 76.756 56.6714C76.8681 56.695 76.9778 56.729 77.0837 56.7729C77.2198 56.8118 77.36 56.8343 77.5014 56.8399C77.656 56.8652 77.8106 56.8952 77.9629 56.9252L78.2537 56.9806C78.4014 57.006 78.5468 57.0452 78.6945 57.0568C78.8125 57.0551 78.9304 57.0467 79.0475 57.0314C79.0729 57.0314 79.1006 57.0314 79.126 57.0314C79.2206 57.0314 79.2414 57.0891 79.2252 57.2622C79.2252 57.3037 79.2252 57.3452 79.2252 57.3845C79.2241 57.4385 79.2093 57.4914 79.1823 57.5382C79.1553 57.585 79.1169 57.6242 79.0706 57.6522C78.9688 57.6868 78.8619 57.704 78.7545 57.7029C78.6516 57.6942 78.5496 57.6765 78.4498 57.6499C78.2998 57.6152 78.1498 57.5668 77.9883 57.5276L77.9998 57.5068Z" fill="#231F20"/>
<path id="Vector_10" d="M52.0476 60.1513C51.5353 62.2836 50.1392 64.0629 49.5576 66.1767C49.3592 66.8944 50.4807 67.2013 50.6699 66.4836C51.2515 64.3721 52.6453 62.5952 53.1599 60.4582C53.333 59.7359 52.2207 59.4267 52.0476 60.1513Z" fill="#231F20"/>
<path id="Vector_11" d="M52.2463 61.1322C53.5537 61.3206 54.8878 61.1548 56.1094 60.6522C56.7878 60.3545 56.2017 59.3599 55.5278 59.6553C54.5032 60.1007 53.3355 60.1168 52.2463 59.9783C51.5101 59.8883 51.5171 61.0445 52.2463 61.1322Z" fill="#231F20"/>
<path id="Vector_12" d="M50.4022 36.8621C49.8114 38.2214 48.8329 39.9429 49.3129 41.459C49.6037 42.3821 50.3168 43.086 50.6814 43.9698C50.9283 44.5721 50.9745 45.2506 51.0598 45.8921C51.4314 48.6614 51.7683 51.4467 51.9829 54.2298C52.0383 54.966 53.1921 54.9729 53.1368 54.2298C52.9429 51.6175 52.6221 49.0052 52.2898 46.4067C52.1329 45.1814 52.0591 43.9629 51.4268 42.8737C50.9306 42.0129 50.2268 41.2721 50.3952 40.2175C50.5475 39.2667 51.0275 38.3183 51.4083 37.4483C51.7014 36.7744 50.716 36.186 50.4114 36.8644L50.4022 36.8621Z" fill="#231F20"/>
<path id="Vector_13" d="M62.9491 55.4618C62.55 54.8898 62.2251 54.2695 61.9822 53.6157L61.8276 53.1195L61.7491 52.8726L61.6961 52.6187L61.5945 52.1134C61.5668 51.9449 61.5576 51.7718 61.5391 51.601L61.4999 51.2272V50.851C61.4884 50.6015 61.4976 50.3514 61.5276 50.1034C61.7193 48.3634 62.4274 46.7206 63.5607 45.3864C64.0498 44.7957 64.6102 44.2678 65.2291 43.8149C65.629 43.5194 66.0638 43.2745 66.5238 43.0857C66.6402 43.0389 66.7597 43.0004 66.8815 42.9703L67.253 42.8964C67.3776 42.8757 67.5045 42.8734 67.6291 42.8618C67.7562 42.8627 67.8828 42.875 68.0076 42.8987C68.3191 42.9287 68.2615 43.0326 68.0261 43.1872C67.9684 43.2241 67.8991 43.2726 67.823 43.328C67.747 43.3949 67.6643 43.4537 67.5761 43.5034C67.4861 43.5518 67.3914 43.6141 67.2945 43.6741C67.1976 43.7341 67.0891 43.7803 66.9807 43.8403C66.1627 44.1719 65.4184 44.6621 64.7907 45.2826C64.4651 45.5969 64.1613 45.933 63.8815 46.2887C63.6019 46.6543 63.3497 47.04 63.1268 47.4426C62.5937 48.4353 62.3198 49.5466 62.3307 50.6734C62.3053 51.9254 62.6161 53.1614 63.2307 54.2526L63.3761 54.4995C63.4211 54.5806 63.4728 54.6578 63.5307 54.7303L63.8676 55.1918C64.1122 55.4879 64.3792 55.7649 64.6661 56.0203C65.5316 56.8134 66.5872 57.3698 67.7307 57.6357C68.5939 57.8346 69.4902 57.8425 70.3568 57.6587C70.5438 57.6241 70.7238 57.5687 70.9107 57.5203C71.1551 57.4419 71.4074 57.3909 71.663 57.368C71.8186 57.37 71.969 57.4245 72.0899 57.5226C72.1473 57.5602 72.2014 57.6026 72.2515 57.6495C72.323 57.728 72.2999 57.8318 72.1938 57.961C72.0404 58.1368 71.8451 58.2709 71.6261 58.351C70.7708 58.7095 69.8449 58.8674 68.9191 58.8126C68.448 58.7839 67.9806 58.7113 67.523 58.5957C67.2922 58.5472 67.0615 58.4572 66.8445 58.388L66.5053 58.2749L66.1776 58.1272C66.0161 58.0534 65.8522 57.9841 65.6953 57.8964L65.2338 57.6264L65.003 57.4903L64.7884 57.331L64.3845 57.0218C63.8394 56.5696 63.3547 56.0492 62.9422 55.4734L62.9491 55.4618Z" fill="#231F20"/>
<path id="Vector_14" d="M64.1145 58.6375C62.6237 62.1406 61.1975 65.6713 59.7599 69.1975C59.4806 69.8898 60.5952 70.1829 60.8722 69.5044C62.2729 66.0706 63.6599 62.6321 65.1114 59.219C65.3999 58.5429 64.4052 57.9544 64.1145 58.6375Z" fill="#231F20"/>
<path id="Vector_15" d="M64.2231 58.9976C65.1808 59.5168 66.3 59.5468 67.3639 59.5376C68.1069 59.5376 68.1069 58.3838 67.3639 58.3838C66.5146 58.3838 65.5731 58.4161 64.8046 58.0007C64.1515 57.6453 63.57 58.6422 64.2231 58.9976Z" fill="#231F20"/>
<path id="Vector_16" d="M57.5492 58.7295C57.1228 58.0097 56.5571 57.3821 55.8854 56.8834C54.8285 56.1288 52.2439 54.9541 50.4023 56.3503C48.5608 57.7465 49.5439 59.6849 52.2946 59.5118C54.0611 59.3639 55.8163 59.1026 57.5492 58.7295Z" fill="#231F20"/>
<g id="Group_2" opacity="0.3">
<path id="Vector_17" d="M37.576 71.7012C39.113 72.2735 40.7607 72.6012 42.3599 72.9497C43.853 73.2727 45.3853 73.642 46.913 73.7389C47.656 73.785 47.6514 72.6312 46.913 72.585C45.3968 72.4881 43.8668 72.1004 42.3876 71.775C40.9084 71.4497 39.3322 71.1266 37.883 70.5889C37.1907 70.3304 36.8837 71.445 37.576 71.7012Z" fill="#231F20"/>
</g>
<g id="Group_3" opacity="0.3">
<path id="Vector_18" d="M80.1048 69.7145C80.1325 69.6798 80.1902 69.6406 80.2087 69.6037C80.121 69.6683 80.1071 69.6822 80.1648 69.6452C80.2225 69.6083 80.204 69.6221 80.1002 69.6683L80.1671 69.6498C80.2364 69.636 80.211 69.6383 80.0887 69.6498C80.2548 69.6337 79.971 69.6175 80.0702 69.6498C80.1348 69.6706 80.1117 69.6614 79.9987 69.6175C80.0564 69.6521 80.0356 69.636 79.941 69.5668C79.9871 69.6152 79.9756 69.5945 79.9017 69.5045C79.934 69.5645 79.9294 69.5414 79.881 69.4398C79.8903 69.4629 79.8973 69.4869 79.9017 69.5114C79.8902 69.4006 79.8879 69.3845 79.9017 69.4583C79.9017 69.4906 79.9017 69.5229 79.9017 69.5529C79.9156 69.4537 79.9156 69.4398 79.9017 69.5068C79.8879 69.5737 79.8879 69.5575 79.9271 69.4491C79.8902 69.5068 79.9064 69.486 79.9779 69.3868C80.0155 69.3443 80.0623 69.3108 80.1146 69.2889C80.1669 69.2669 80.2235 69.257 80.2802 69.2598C80.1833 69.2598 80.4694 69.3152 80.3171 69.2598C80.4279 69.3106 80.4533 69.3198 80.391 69.2898C80.3725 69.2783 80.354 69.2691 80.3356 69.2552C80.4233 69.3268 80.4417 69.3406 80.3887 69.2968L80.3379 69.2483C80.211 69.1329 80.391 69.3314 80.3379 69.2483C80.2433 69.1052 80.3564 69.3452 80.3379 69.2483C80.2894 69.0729 80.3379 69.3683 80.3379 69.2483C80.3279 69.0785 80.2534 68.9189 80.1296 68.8023C80.0059 68.6856 79.8422 68.6206 79.6721 68.6206C79.502 68.6206 79.3384 68.6856 79.2146 68.8023C79.0909 68.9189 79.0163 69.0785 79.0063 69.2483C79.0202 69.4985 79.0979 69.741 79.232 69.9527C79.3661 70.1643 79.5522 70.3381 79.7725 70.4575C79.8993 70.5315 80.0412 70.5758 80.1876 70.5871C80.334 70.5985 80.481 70.5766 80.6177 70.5231C80.7544 70.4696 80.8773 70.3859 80.9771 70.2782C81.0769 70.1706 81.151 70.0417 81.194 69.9014C81.2891 69.639 81.2897 69.3516 81.1958 69.0888C81.1019 68.826 80.9193 68.6041 80.6794 68.4614C80.4336 68.3399 80.154 68.305 79.8859 68.3624C79.6178 68.4198 79.377 68.5661 79.2025 68.7775C79.0838 68.9056 79.0178 69.0737 79.0178 69.2483C79.0178 69.4229 79.0838 69.5911 79.2025 69.7191C79.4333 69.9498 79.911 70.0098 80.1417 69.7191L80.1048 69.7145Z" fill="#231F20"/>
</g>
<g id="Group_4" opacity="0.3">
<path id="Vector_19" d="M89.0077 67.0928C89.0077 67.0675 89.0216 67.0398 89.0262 67.0144C89.0424 66.9267 89.0101 67.0467 89.0008 67.0721C89.0008 67.0536 89.0747 66.9544 89.0008 67.0559C88.927 67.1575 89.0447 67.0398 88.9454 67.1113C88.8462 67.1828 88.9131 67.1321 88.9454 67.1113C89.017 67.079 88.7908 67.169 88.8624 67.1436C88.9339 67.1182 88.8785 67.1828 88.7793 67.1436C88.7931 67.1436 88.8185 67.1436 88.8347 67.1436C88.9131 67.1436 88.657 67.0928 88.7931 67.1436C88.8739 67.1736 88.7124 67.109 88.7101 67.109C88.7077 67.109 88.8047 67.1736 88.7101 67.109C88.5739 67.0005 88.7954 67.2198 88.687 67.0859C88.6154 67.0005 88.657 67.0513 88.6708 67.0859C88.6847 67.1205 88.6108 66.9128 88.6385 67.019C88.6385 67.0075 88.6385 66.8436 88.627 66.9313C88.6154 67.019 88.627 66.8551 88.6408 66.8505C88.6547 66.8459 88.5716 67.0305 88.6408 66.8713C88.5924 66.9728 88.7147 66.7882 88.6662 66.8367C88.6177 66.8851 88.7839 66.7559 88.7216 66.7928C88.7696 66.7655 88.8233 66.7497 88.8785 66.7467C88.8116 66.7467 89.0631 66.7813 88.9501 66.7467C88.837 66.7121 89.0124 66.7721 89.0216 66.779C88.9477 66.7374 89.0677 66.8205 89.0793 66.8298L89.0331 66.7836C89.0447 66.7951 89.1254 66.9128 89.0816 66.8367C89.1024 66.8736 89.137 66.989 89.107 66.8828C89.077 66.7767 89.1277 67.0328 89.1208 66.9475C89.1139 66.8621 89.0862 67.1182 89.1208 66.9821C89.1679 66.8119 89.1456 66.63 89.0586 66.4764C88.9716 66.3227 88.8271 66.21 88.657 66.1628C88.4868 66.1157 88.3049 66.1381 88.1513 66.2251C87.9977 66.3121 87.8849 66.4565 87.8377 66.6267C87.7955 66.7735 87.7833 66.9274 87.8021 67.0791C87.8208 67.2308 87.87 67.3771 87.9468 67.5092C88.0235 67.6414 88.1262 67.7566 88.2486 67.8481C88.3711 67.9395 88.5108 68.0052 88.6593 68.0413C88.8206 68.0707 88.9864 68.0635 89.1447 68.0205C89.3029 67.9774 89.4494 67.8994 89.5736 67.7923C89.6977 67.6852 89.7963 67.5516 89.8621 67.4015C89.928 67.2513 89.9593 67.0883 89.9539 66.9244C89.9469 66.6474 89.8377 66.3828 89.6475 66.1814C89.4573 65.9799 89.1994 65.8558 88.9233 65.8329C88.6472 65.8101 88.3723 65.89 88.1515 66.0573C87.9307 66.2247 87.7795 66.4677 87.727 66.7398C87.6802 66.9099 87.7028 67.0917 87.79 67.2451C87.8772 67.3985 88.0218 67.511 88.192 67.5578C88.3621 67.6047 88.5439 67.582 88.6973 67.4948C88.8507 67.4076 88.9632 67.263 89.01 67.0928H89.0077Z" fill="#231F20"/>
</g>
<path id="Vector_20" d="M86.9032 71.4777C86.2478 71.6577 85.5901 71.82 84.9301 71.9646C84.6993 72.0177 84.4685 72.1007 84.2147 72.1446C83.3632 72.3177 82.5024 72.4238 81.6509 72.5438C81.2724 72.5992 80.8985 72.673 80.5293 72.7538C80.0613 72.8802 79.5821 72.9614 79.0986 72.9961C78.9462 72.9961 78.9255 72.8069 79.0132 72.5969C79.0607 72.4746 79.1352 72.3647 79.231 72.2752C79.3269 72.1857 79.4418 72.1189 79.567 72.08C80.5261 71.8431 81.4987 71.6643 82.4793 71.5446C82.7769 71.5052 83.072 71.4489 83.3632 71.3761C83.6562 71.3046 83.947 71.2192 84.2424 71.1454C84.8862 70.9884 85.5301 70.8315 86.1647 70.6446C86.557 70.5315 86.9493 70.4138 87.3324 70.2754C87.6255 70.1784 87.9139 70.07 88.2024 69.9569C88.4903 69.849 88.7723 69.7258 89.047 69.5877C89.4606 69.363 89.8605 69.1141 90.2447 68.8423C90.3301 68.7823 90.4085 68.7154 90.4962 68.66C90.8216 68.4592 90.9578 68.4615 91.1885 68.66C91.2404 68.7024 91.2898 68.7478 91.3362 68.7961C91.4816 68.9623 91.4332 69.1977 91.2116 69.4007C90.5632 70.0307 89.7209 70.4415 88.8716 70.8084C88.2347 71.0692 87.577 71.2884 86.9216 71.5007L86.9032 71.4777Z" fill="#231F20"/>
<path id="Vector_21" d="M82.3499 43.6373C80.8984 45.1419 81.5907 48.0219 82.0337 49.8265C82.2114 50.5465 83.3237 50.2419 83.146 49.5196C82.823 48.2065 82.0914 45.5689 83.1668 44.4427C83.6814 43.9073 82.8668 43.0904 82.3499 43.6281V43.6373Z" fill="#231F20"/>
<path id="Vector_22" opacity="0.2" d="M13.8667 54.8966C13.8667 54.8966 27.9436 50.0758 28.7467 49.575C29.5498 49.0743 32.409 52.6812 32.409 52.6812L36.5629 63.1074C36.5629 63.1074 15.7913 56.3689 13.8667 54.8966Z" fill="#231F20"/>
<path id="Vector_23" opacity="0.2" d="M37.9616 46.8521H39.3463L51.1409 49.8521L51.9232 54.7744C51.9232 54.7744 49.057 55.6974 48.8286 57.6059C48.5978 59.6459 50.1186 60.0013 51.367 60.1444L51.1593 61.5867C51.1593 61.5867 49.5901 63.6382 49.327 65.0297L49.0639 66.4144L42.7916 64.3236L37.7378 50.609L37.9616 46.8521Z" fill="#231F20"/>
<path id="Vector_24" opacity="0.2" d="M54.1523 50.7314L60.4616 52.5776C60.4616 52.5776 61.297 56.0391 63.1893 57.6038L60 65.4984C59.6403 64.7922 59.234 64.1107 58.7839 63.4584C58.237 62.6691 57.4408 61.5961 57.4408 61.5961L57 59.8861C57 59.8861 58.8462 59.7453 58.9985 58.5014C59.2616 56.3138 57.0162 54.4653 54.8746 54.2322L54.1523 50.7314Z" fill="#231F20"/>
<path id="Vector_25" opacity="0.2" d="M65.146 69.9703C65.146 69.9703 68.7414 59.9134 68.956 59.7704C69.1706 59.6273 72.5422 59.9434 75.0783 56.4727L78.2306 57.6057L76.4952 68.1796C76.4952 68.1796 70.4468 71.4334 69.2145 71.145C67.9822 70.8565 65.146 69.9703 65.146 69.9703Z" fill="#231F20"/>
<path id="Vector_26" opacity="0.2" d="M90.2075 60.5737L90.8468 63.4999L94.7352 61.926L90.2075 60.5737Z" fill="#231F20"/>
<path id="Vector_27" d="M11.1438 72.3891L11.2131 70.3399C11.2361 69.6476 11.2638 68.9737 11.3031 68.2907C11.3261 67.7922 11.3284 67.2938 11.3608 66.7953C11.4792 65.0368 11.6154 63.2814 11.7692 61.5291C11.8361 60.7514 11.8938 59.9691 11.9469 59.1961C12.0346 58.2061 12.03 57.1976 12.3023 56.2261C12.3808 55.9238 12.5146 55.9814 12.66 56.2607C12.7533 56.4428 12.8305 56.6328 12.8908 56.8284C12.9502 57.0838 12.9682 57.3472 12.9438 57.6084C12.78 59.6207 12.63 61.6307 12.4269 63.6614C12.3023 64.8753 12.3069 66.1468 12.2608 67.393C12.2084 68.7668 12.1561 70.1399 12.1038 71.5122L12.0161 74.0507C11.9815 75.3338 11.9331 76.6214 11.9192 77.893C11.9192 78.883 11.9469 79.8545 11.9538 80.8353C11.9538 81.0499 11.9538 81.2599 11.9538 81.4791C11.9169 82.2845 11.8454 82.5384 11.6423 82.7045C11.5997 82.745 11.5533 82.7813 11.5038 82.813C11.3515 82.8845 11.2338 82.5522 11.1831 81.9614C11.1531 81.5253 11.1092 81.0822 11.0954 80.6345C11.0815 80.1868 11.0723 79.7345 11.0677 79.2799C11.0538 78.3707 11.0677 77.4499 11.0677 76.5245C11.0792 75.1514 11.1092 73.7714 11.1323 72.3937L11.1438 72.3891Z" fill="#231F20"/>
<path id="Vector_28" d="M45.6782 95.5605C42.7844 94.822 39.8951 94.0636 37.0105 93.2851C35.9582 93.0013 34.9013 92.7405 33.8536 92.4405C30.1613 91.3859 26.4805 90.2574 22.8482 88.9789C21.2328 88.4136 19.6174 87.8389 18.0413 87.2043C17.0282 86.7959 16.0174 86.3689 15.0413 85.8682C14.0317 85.385 13.0986 84.756 12.2721 84.0012C11.8105 83.4566 11.9951 83.4451 12.5536 83.6574C12.7215 83.7097 12.8864 83.7714 13.0474 83.842C13.2367 83.9112 13.4351 84.0012 13.6613 84.0912C14.1021 84.2851 14.6282 84.4859 15.159 84.7836C17.1112 85.7697 19.121 86.6374 21.1774 87.382C23.2428 88.1528 25.3313 88.8751 27.4497 89.5836C29.9767 90.4328 32.6651 91.1436 35.2959 91.8705C38.1867 92.672 41.0882 93.4474 44.0005 94.1966C45.7913 94.6582 47.5844 95.1128 49.3797 95.5605C52.0982 96.2366 54.8282 96.9174 57.5351 97.5636C59.6374 98.0666 61.7097 98.512 63.7913 99.0289C64.2528 99.142 64.6982 99.2482 65.1597 99.3751C65.7697 99.5261 66.3663 99.7268 66.9436 99.9751C67.2186 100.082 67.4634 100.255 67.6567 100.478C67.7237 100.549 67.7839 100.627 67.8367 100.709C67.9313 100.9 67.2321 100.78 65.9905 100.478C64.1559 100.005 62.2451 99.5712 60.3113 99.1143L54.4497 97.7297C51.5282 97.0374 48.5951 96.3151 45.6805 95.5882L45.6782 95.5605Z" fill="#231F20"/>
<path id="Vector_29" d="M69.5078 83.632C69.5078 85.0812 69.5232 86.5312 69.554 87.982C69.554 88.5128 69.6117 89.0389 69.6232 89.5697C69.6578 91.4343 69.6694 93.3058 69.7271 95.1751C69.7501 96.0035 69.8032 96.8366 69.8586 97.6581C69.9278 98.7151 70.0501 99.772 69.9555 100.847C69.9278 101.182 69.6901 101.134 69.4501 100.847C69.1364 100.455 68.9525 99.9755 68.924 99.4743C68.7832 97.3351 68.6471 95.1774 68.654 92.9966C68.654 91.6905 68.5201 90.3405 68.4809 89.0066C68.4348 87.5412 68.4094 86.0735 68.3886 84.6058C68.3886 83.7035 68.3886 82.7989 68.3724 81.8966C68.3724 80.5281 68.3932 79.1551 68.3932 77.7958C68.3932 77.2674 68.3932 76.7435 68.3678 76.222C68.3424 75.7005 68.3678 75.1766 68.3794 74.6528C68.3794 74.422 68.3794 74.1912 68.4001 73.9604C68.5017 73.0997 68.594 72.832 68.8617 72.6705C68.909 72.6318 68.9583 72.5956 69.0094 72.562C69.1294 72.4905 69.3417 72.862 69.3763 73.4851C69.4501 74.4081 69.4848 75.3635 69.5124 76.3258C69.5401 77.2881 69.5124 78.262 69.5124 79.2405C69.5124 79.9674 69.5124 80.6966 69.5124 81.4258C69.5124 82.1551 69.5124 82.8889 69.5309 83.6181L69.5078 83.632Z" fill="#231F20"/>
<path id="Vector_30" d="M46.7609 66.7145L38.1024 64.4299C37.0501 64.1483 35.9886 63.9014 34.9386 63.6153C31.2347 62.5976 27.5424 61.5383 23.8616 60.3845C22.2463 59.8676 20.5893 59.3783 18.9832 58.836C17.9516 58.4829 16.9063 58.1299 15.8955 57.7006C15.6416 57.5968 15.3878 57.4699 15.1363 57.3637C14.8847 57.2576 14.6447 57.1006 14.4047 56.9483C13.8946 56.6582 13.4386 56.2819 13.057 55.836C12.9644 55.7188 12.9011 55.5811 12.8724 55.4345C12.8586 55.3353 12.8724 55.2891 12.9116 55.2822C12.9947 55.2683 13.1424 55.4114 13.3732 55.5383C13.7199 55.6992 14.0797 55.8305 14.4486 55.9306C14.6793 55.9999 14.9263 56.0645 15.187 56.1406C15.3209 56.1753 15.4524 56.2214 15.5932 56.256C15.734 56.2906 15.8678 56.3599 16.0063 56.4176C16.9986 56.8237 18.0347 57.1814 19.0732 57.5299C20.1116 57.8783 21.1501 58.2406 22.207 58.5753L23.7786 59.0945L25.3616 59.5976C26.4163 59.9437 27.4801 60.2645 28.5416 60.6083C31.0801 61.4114 33.7847 62.0691 36.4247 62.7683L45.1432 65.0599L50.5386 66.4537C53.2524 67.146 55.9732 67.8729 58.6709 68.5514C60.7686 69.0822 62.8386 69.5437 64.9155 70.0699C65.377 70.1853 65.8224 70.2891 66.2816 70.4137C66.8901 70.5588 67.4841 70.7588 68.0563 71.0114C68.212 71.0829 68.3604 71.1694 68.4993 71.2699C68.6013 71.3549 68.6921 71.4526 68.7693 71.5606C68.8366 71.6375 68.899 71.7184 68.9563 71.8029C69.067 72.0106 68.3032 72.0614 67.0501 71.7799C63.337 70.9214 59.4347 69.9522 55.5116 68.9668L46.7586 66.7537L46.7609 66.7145Z" fill="#231F20"/>
<path id="Vector_31" d="M27.2307 50.2445L23.8638 51.5299C23.4553 51.6891 23.0584 51.8737 22.6476 52.0284C21.203 52.5707 19.7468 53.0899 18.293 53.6207C17.6491 53.8514 17.0122 54.1214 16.3799 54.3707C15.5742 54.7262 14.7376 55.0073 13.8807 55.2107C13.6084 55.2661 13.5784 55.0445 13.7261 54.7491C13.9327 54.3777 14.2576 54.086 14.6491 53.9207C16.2645 53.2284 17.9353 52.6145 19.6407 52.0537C20.663 51.7191 21.6715 51.2414 22.6891 50.8284L26.0515 49.4784L28.1284 48.6453C29.1715 48.2207 30.2238 47.8053 31.2461 47.353C32.0422 47.0022 32.8015 46.6099 33.5815 46.2453C33.7497 46.158 33.9231 46.081 34.1007 46.0145C34.7745 45.7837 35.0238 45.7837 35.2384 45.9245C35.2899 45.9519 35.3386 45.9844 35.3838 46.0214C35.5038 46.1391 35.2891 46.3814 34.853 46.6722L34.3638 46.9976C34.1999 47.1061 34.0245 47.1891 33.8515 47.2861C33.5053 47.473 33.1591 47.6576 32.7945 47.8353C32.0838 48.2045 31.343 48.5276 30.5976 48.853C29.4899 49.3353 28.3684 49.7968 27.2491 50.2584L27.2307 50.2445Z" fill="#231F20"/>
<path id="Vector_32" d="M94.2068 63.0058C93.9045 63.1073 93.5999 63.2112 93.2976 63.322C93.1868 63.3635 93.0876 63.4258 92.9745 63.465C92.5799 63.5966 92.1806 63.7235 91.7814 63.8481C91.6063 63.9079 91.4352 63.9788 91.2691 64.0604C91.0651 64.1862 90.8358 64.265 90.5976 64.2912C90.4429 64.2912 90.3668 63.555 90.5976 63.442C91.0181 63.2353 91.4621 63.0804 91.9199 62.9804C92.199 62.8954 92.4694 62.7842 92.7276 62.6481L93.6299 62.2881L94.1906 62.0712C94.4722 61.9581 94.7653 61.8612 95.0399 61.732C95.2545 61.635 95.446 61.4873 95.6583 61.3673C95.7013 61.3358 95.7468 61.308 95.7945 61.2843C95.9768 61.2058 96.0576 61.2473 96.1683 61.4827C96.1937 61.5358 96.2237 61.5866 96.2445 61.642C96.2827 61.716 96.2972 61.8 96.2861 61.8825C96.2749 61.9651 96.2386 62.0422 96.1822 62.1035C95.8543 62.3575 95.4872 62.5562 95.0953 62.692C94.8068 62.812 94.5068 62.9227 94.2091 63.0358L94.2068 63.0058Z" fill="#231F20"/>
<path id="Vector_33" d="M74.3425 70.1503L73.0363 70.6372C72.8771 70.6972 72.7317 70.7849 72.5748 70.8403C72.0094 71.0434 71.4394 71.2326 70.8671 71.4195C70.6133 71.5026 70.3687 71.611 70.124 71.7149C69.8196 71.8842 69.4847 71.9916 69.1387 72.031C69.0256 72.031 68.984 71.8257 69.0071 71.5972C69.0302 71.3687 69.1133 71.1357 69.284 71.0549C69.9008 70.7828 70.5373 70.5575 71.1879 70.381C71.5844 70.2512 71.9701 70.0907 72.3417 69.901L73.6363 69.3772L74.4348 69.0495C74.834 68.881 75.2448 68.7241 75.6348 68.5349C75.9371 68.3872 76.2094 68.1841 76.5048 68.011C76.5694 67.9741 76.6294 67.9257 76.6964 67.8933C76.9525 67.7733 77.061 67.808 77.2133 68.0572C77.2479 68.1149 77.2871 68.168 77.3171 68.228C77.3661 68.315 77.383 68.4165 77.3649 68.5148C77.3467 68.613 77.2947 68.7018 77.2179 68.7657C76.7281 69.125 76.1946 69.4204 75.6302 69.6449C75.2079 69.8295 74.774 69.998 74.3425 70.178V70.1503Z" fill="#231F20"/>
<path id="Vector_34" d="M96.2837 79.5429C96.2837 77.4429 96.2468 75.3429 96.2122 73.2429C96.196 72.4767 96.1476 71.7129 96.136 70.9352C96.0876 68.2375 96.0322 65.5352 95.9283 62.8421L95.9122 62.3944C95.9122 62.3021 95.9122 62.2813 95.9122 62.2444C95.9099 62.2075 95.9099 62.1705 95.9122 62.1336C95.926 62.0852 95.8683 62.0921 95.8407 62.0759L95.7368 62.0413L95.3607 61.9121C94.7953 61.7182 94.2276 61.529 93.6622 61.349C92.2083 60.8875 90.7383 60.4698 89.2937 59.9852C88.8322 59.8329 88.943 59.6921 89.3768 59.6298C90.0693 59.559 90.7688 59.613 91.4422 59.789C92.9653 60.1736 94.4745 60.6029 95.9699 61.0767L96.0091 61.0882L96.076 61.1136L96.2076 61.1621L96.4707 61.2613L96.7314 61.3605L96.863 61.409C96.863 61.4506 96.863 61.499 96.8791 61.5452C96.8999 61.7275 96.916 61.9144 96.9276 62.1036L96.953 62.4636C96.9807 62.8559 97.0153 63.2482 97.0222 63.6406C97.0499 64.4275 97.066 65.2121 97.073 66.0013C97.0891 67.8867 97.2368 69.8436 97.3037 71.7706C97.3776 73.8867 97.4237 76.0052 97.4653 78.1236C97.486 79.4275 97.5068 80.7336 97.5276 82.0352C97.5507 84.0106 97.576 85.9952 97.5991 87.9544C97.6268 89.4798 97.7145 90.9752 97.7514 92.489C97.7514 92.8213 97.7699 93.149 97.7676 93.4859C97.7858 93.9312 97.7431 94.3769 97.6407 94.8106C97.5807 95.0382 97.4437 95.238 97.253 95.3759C97.1816 95.436 97.1043 95.4886 97.0222 95.5329C96.8953 95.5836 96.7914 95.4775 96.7014 95.249C96.5818 94.9192 96.5224 94.5706 96.526 94.2198C96.4083 91.5521 96.3691 88.7252 96.3437 85.8867C96.316 83.7752 96.3114 81.6544 96.2699 79.5359L96.2837 79.5429Z" fill="#231F20"/>
<path id="Vector_35" d="M79.0707 52.6973L79.2277 51.8342C79.2392 51.7673 79.2577 51.6819 79.2646 51.6266L79.2784 51.4835C79.2851 51.3613 79.2851 51.2388 79.2784 51.1166C79.2415 50.5904 79.1354 50.0112 79.0477 49.4342C78.8182 48.253 78.6732 47.0569 78.6138 45.855C78.5985 45.4026 78.6062 44.9497 78.6369 44.4981C78.6739 44.0391 78.7511 43.5843 78.8677 43.1389C79.0698 42.3252 79.4479 41.5659 79.9754 40.9142C80.2566 40.5808 80.5912 40.2962 80.9654 40.0719C81.3407 39.8433 81.7555 39.6867 82.1884 39.6104C82.613 39.5335 83.0474 39.528 83.4738 39.5942C83.9042 39.6651 84.3171 39.8179 84.69 40.0442C85.3979 40.4979 85.9591 41.1472 86.3054 41.9135C86.8791 43.1936 87.1658 44.5838 87.1454 45.9866C87.1603 47.7451 86.8114 49.4877 86.1207 51.105C85.89 51.6012 85.7538 51.4604 85.7215 50.9735C85.6964 50.2185 85.7497 49.4629 85.8807 48.7189C86.0174 47.9015 86.083 47.0737 86.0769 46.245C86.082 45.8336 86.0651 45.4223 86.0261 45.0127C85.9898 44.6094 85.9251 44.2092 85.8323 43.815C85.6773 43.051 85.3627 42.3283 84.9092 41.6942C84.706 41.4017 84.4449 41.1541 84.142 40.9667C83.8391 40.7793 83.5009 40.6562 83.1484 40.605C82.7053 40.5548 82.2565 40.6118 81.84 40.7712C81.4202 40.9471 81.0523 41.2275 80.7715 41.5858C80.1784 42.3173 79.8692 43.3166 79.733 44.3112C79.6048 45.4444 79.6343 46.5899 79.8207 47.715C79.9015 48.2919 79.9984 48.8689 80.0977 49.4573C80.2123 50.0589 80.2894 50.667 80.3284 51.2781C80.3284 51.3819 80.3284 51.4789 80.3284 51.5896C80.3284 51.7004 80.3077 51.8204 80.2892 51.9012L80.19 52.4389L79.9892 53.5166L79.5784 55.665C79.163 57.8319 78.7177 60.0035 78.3415 62.1589C78.0507 63.8366 77.8338 65.4912 77.6192 67.155C77.5754 67.5196 77.5384 67.8796 77.4854 68.2489C77.303 69.615 77.1854 70.0419 76.883 70.3027C76.8225 70.3683 76.7544 70.4264 76.68 70.4758C76.463 70.5866 76.3569 70.0027 76.4284 68.9827C76.6454 65.9573 77.183 62.8166 77.753 59.6804C78.1777 57.3519 78.6415 55.0235 79.0546 52.6973H79.0707Z" fill="#231F20"/>
<path id="Vector_36" d="M89.2269 60.5276C88.9961 59.8653 88.7654 59.2053 88.5346 58.5476C88.4446 58.3169 88.3292 58.0861 88.2392 57.8392C87.9207 56.9923 87.6 56.1453 87.2631 55.3007C87.1084 54.9292 86.9469 54.5576 86.7807 54.1953C86.5441 53.7375 86.3487 53.2594 86.1969 52.7669C86.1554 52.61 86.3054 52.5707 86.5015 52.6307C86.7509 52.7118 86.9597 52.8852 87.0854 53.1153C87.3161 53.5769 87.5469 54.0384 87.7777 54.523C88.0084 55.0076 88.1723 55.4969 88.3454 55.9976C88.5507 56.6 88.853 57.1838 89.1023 57.7838C89.3746 58.4415 89.6307 59.1061 89.8823 59.7753C90.0346 60.1861 90.1869 60.5992 90.3323 61.0146C90.5631 61.6423 90.7477 62.2838 90.96 62.9115C91.0454 63.1538 91.1261 63.3961 91.2184 63.6361C91.3107 63.8761 91.3961 64.1184 91.4677 64.3653C91.5 64.4738 91.5438 64.58 91.5692 64.6907C91.6361 65.1153 91.5969 65.2607 91.4146 65.383C91.3756 65.4137 91.3339 65.4407 91.29 65.4638C91.1469 65.5238 90.9877 65.3807 90.863 65.1038C90.4984 64.2892 90.2307 63.41 89.9215 62.5238C89.6877 61.8623 89.4569 61.2 89.2292 60.5369L89.2269 60.5276Z" fill="#231F20"/>
<path id="Vector_37" d="M59.7969 43.5198C59.403 43.3906 59.0061 43.2659 58.6061 43.1459C58.4607 43.1044 58.3107 43.079 58.1653 43.0352L56.6261 42.5436C56.3953 42.4721 56.1646 42.4167 55.9338 42.3636C55.6407 42.2852 55.3223 42.2782 55.0684 42.059C54.9923 41.9829 55.0269 41.9067 55.1423 41.8005C55.1994 41.7299 55.2725 41.6738 55.3556 41.6369C55.4386 41.6 55.5292 41.5833 55.62 41.5882C56.222 41.7281 56.8129 41.9125 57.3876 42.1398C57.7487 42.2641 58.1161 42.3689 58.4884 42.4536C58.8923 42.569 59.2961 42.6844 59.7 42.8159L60.4453 43.0467C60.8215 43.1621 61.1953 43.2936 61.5715 43.4044C61.8623 43.4921 62.16 43.5452 62.4553 43.6352C62.52 43.6536 62.5869 43.6629 62.6492 43.6859C62.7376 43.7069 62.8179 43.7534 62.88 43.8198C62.9155 43.8837 62.93 43.9572 62.9215 44.0298C62.9215 44.0667 62.9215 44.1036 62.9215 44.1382C62.9144 44.1669 62.9007 44.1936 62.8815 44.216C62.8622 44.2385 62.838 44.2561 62.8107 44.2675C62.7406 44.3069 62.6594 44.3215 62.5799 44.309C62.0446 44.2087 61.5166 44.073 60.9992 43.9029C60.6023 43.7875 60.2053 43.6582 59.8038 43.5429L59.7969 43.5198Z" fill="#231F20"/>
<path id="Vector_38" d="M40.4655 29.9781L50.3078 32.9781L53.9032 34.0511L66.5378 37.9604C68.407 38.5373 70.2924 39.1027 72.1524 39.6565L75.7432 40.7227C76.3409 40.9027 76.9385 41.0873 77.5293 41.2881L78.4178 41.5881C78.7132 41.6919 78.9993 41.8188 79.297 41.9319C80.0285 42.2434 79.8762 42.2919 79.207 42.2365C78.7428 42.207 78.2806 42.1523 77.8224 42.0727C77.1827 41.9615 76.55 41.8127 75.9278 41.6273C71.0562 40.155 66.1847 38.6804 61.2993 37.1019C58.3778 36.1581 55.2993 35.2742 52.2993 34.365L42.3762 31.365L36.2655 29.5373C34.7239 29.0758 33.1755 28.6142 31.6293 28.185L30.4755 27.8573C30.1039 27.7811 29.7255 27.6265 29.3909 27.6981C29.0359 27.763 28.7051 27.9224 28.4332 28.1596C28.1504 28.4041 27.9156 28.6991 27.7409 29.0296C27.6118 29.2865 27.5157 29.5586 27.4547 29.8396C27.4052 30.1177 27.3982 30.4017 27.4339 30.6819C27.5167 31.2622 27.6977 31.824 27.9693 32.3434C28.2008 32.8394 28.6138 33.2276 29.1232 33.4281L30.8839 33.9542L32.4301 34.4158C33.3947 34.7158 34.027 34.9211 34.4585 35.1081C34.7636 35.2282 35.049 35.3931 35.3055 35.5973C35.3866 35.66 35.4637 35.7278 35.5362 35.8004C35.6101 35.8927 35.4416 35.9042 35.0747 35.8534C34.5167 35.7717 33.9652 35.6499 33.4247 35.4888C32.3662 35.1904 31.2962 34.8827 30.2147 34.5658L29.4024 34.335L28.9939 34.2127C28.8344 34.1665 28.6798 34.1047 28.5324 34.0281C27.9451 33.6886 27.4818 33.1703 27.2101 32.5488C26.9422 31.979 26.7647 31.371 26.6839 30.7465C26.6446 30.4067 26.6562 30.0629 26.7185 29.7265C26.7858 29.3977 26.8952 29.0789 27.0439 28.7781C27.1926 28.4772 27.3812 28.1977 27.6047 27.9473C27.831 27.6874 28.0975 27.4653 28.3939 27.2896C28.7087 27.0987 29.0617 26.9797 29.4278 26.9411C29.7736 26.9278 30.119 26.9762 30.4478 27.0842C30.6947 27.1396 30.8793 27.1996 31.0939 27.2573L31.7216 27.4304C32.1401 27.5458 32.557 27.6642 32.9724 27.7858L35.467 28.5104L40.447 29.9827L40.4655 29.9781Z" fill="#231F20"/>
<path id="Vector_39" d="M25.2464 33.9035C25.0692 33.3155 24.862 32.7371 24.6256 32.1704C24.5083 31.8551 24.4074 31.5339 24.3233 31.2081C24.2425 30.8596 24.1918 30.5642 24.1318 30.2435C24.0464 29.7819 23.9448 29.3204 23.901 28.8335C23.8609 28.4023 23.8532 27.9688 23.8779 27.5365C23.9103 27.0907 24.0002 26.6508 24.1456 26.2281C24.4571 25.3632 25.08 24.6457 25.8925 24.2158C26.2519 24.008 26.6536 23.8841 27.0676 23.8533C27.4816 23.8225 27.8972 23.8857 28.2833 24.0381C28.7554 24.2289 29.1868 24.5077 29.5548 24.8596C29.7354 25.0262 29.8999 25.2093 30.0464 25.4065C30.1855 25.6047 30.3097 25.813 30.4179 26.0296C30.5425 26.3065 30.381 26.355 30.081 26.2604C29.8982 26.207 29.7199 26.1391 29.5479 26.0573C29.4447 26.0114 29.3445 25.959 29.2479 25.9004C29.153 25.8343 29.062 25.7626 28.9756 25.6858C28.6876 25.4133 28.3571 25.1896 27.9971 25.0235C27.8369 24.9528 27.6688 24.9017 27.4964 24.8712C27.4156 24.8573 27.3325 24.8504 27.2518 24.8388C27.171 24.8273 27.0856 24.8388 27.0025 24.8388C26.6361 24.8887 26.2883 25.0308 25.9918 25.2519C25.6611 25.4726 25.3798 25.7594 25.1656 26.0942C24.9064 26.5411 24.7628 27.0456 24.7479 27.5619C24.7271 28.115 24.7635 28.6687 24.8564 29.2142C24.9048 29.5212 24.9579 29.8258 25.0202 30.1373L25.1148 30.5988C25.1495 30.7488 25.1748 30.8919 25.2187 31.0373C25.4042 31.6355 25.6198 32.224 25.8648 32.8004C26.0193 33.1847 26.1375 33.5825 26.2179 33.9888C26.2979 34.4113 26.3065 34.8443 26.2433 35.2696C26.1838 35.5753 26.1068 35.8774 26.0125 36.1742L25.7656 37.035C25.5995 37.6096 25.4333 38.1888 25.2764 38.7496C25.0456 39.6381 24.8448 40.5219 24.6279 41.4058C24.5795 41.5996 24.5379 41.7912 24.4825 41.985C24.2795 42.705 24.1179 42.9081 23.8548 42.9935C23.7968 43.0183 23.7365 43.0376 23.6748 43.0512C23.4879 43.0696 23.4302 42.7327 23.5087 42.1858C23.8309 40.5334 24.236 38.8982 24.7225 37.2865C24.8933 36.6773 25.0733 36.0565 25.2302 35.4635C25.3691 34.9441 25.3635 34.3968 25.2141 33.8804L25.2464 33.9035Z" fill="#231F20"/>
<path id="Vector_40" d="M59.0331 51.8181C58.7054 51.7096 58.3777 51.5873 58.0431 51.4788C57.9231 51.4396 57.7962 51.4211 57.6739 51.3819C57.2469 51.2342 56.8131 51.0981 56.3839 50.9458C56.1946 50.8811 55.9985 50.8304 55.8046 50.7819C55.5515 50.7315 55.3057 50.6493 55.0731 50.5373C54.9992 50.4981 55.0362 50.4081 55.1262 50.3273C55.2303 50.2292 55.3685 50.1754 55.5116 50.1773C55.7723 50.2027 56.0285 50.2327 56.2823 50.2811C56.5407 50.3214 56.7938 50.3902 57.0369 50.4865C57.3434 50.5827 57.6555 50.6598 57.9716 50.7173C58.3146 50.8034 58.6585 50.8958 59.0031 50.9942L59.6308 51.1881C59.9492 51.285 60.2654 51.4027 60.5839 51.4881C60.8331 51.5573 61.0916 51.5804 61.3431 51.6496C61.3985 51.6634 61.4539 51.6704 61.5092 51.6888C61.554 51.7006 61.5942 51.7255 61.6246 51.7604C61.6517 51.7842 61.6736 51.8133 61.6892 51.8458C61.7164 51.9148 61.7221 51.9904 61.7054 52.0627C61.7054 52.1019 61.7054 52.1434 61.6869 52.1804C61.6615 52.2466 61.617 52.3039 61.5591 52.3449C61.5012 52.386 61.4325 52.409 61.3616 52.4111C61.1289 52.418 60.8963 52.3955 60.6692 52.3442C60.4385 52.2911 60.2285 52.2242 60.0092 52.1573C59.6816 52.0581 59.3539 51.945 59.0192 51.8458L59.0331 51.8181Z" fill="#231F20"/>
<path id="Vector_41" d="M45.9229 48.1372C45.3437 47.948 44.7691 47.7495 44.1829 47.5695C43.9683 47.5049 43.7514 47.4611 43.5367 47.3941L41.2798 46.7018C40.9475 46.598 40.606 46.5126 40.2691 46.4272C39.8323 46.33 39.4035 46.2004 38.986 46.0395C38.8567 45.9864 38.8983 45.8988 39.0391 45.8295C39.2361 45.7399 39.4552 45.7102 39.6691 45.7441C40.1167 45.818 40.5644 45.8965 41.0075 45.9934C41.4564 46.0826 41.8989 46.2013 42.3321 46.3488C42.8537 46.5241 43.4167 46.6211 43.9614 46.7641C44.5583 46.918 45.1537 47.0857 45.7475 47.2672L46.8391 47.6041C47.3906 47.7726 47.9398 47.9595 48.4914 48.1188C48.9183 48.2388 49.3521 48.3195 49.7791 48.4349C49.8737 48.4603 49.966 48.4788 50.0606 48.5088C50.1353 48.5287 50.2062 48.5607 50.2706 48.6034C50.3171 48.6335 50.3604 48.6683 50.3998 48.7072C50.4572 48.7708 50.4906 48.8524 50.4944 48.938C50.4977 48.981 50.4977 49.0242 50.4944 49.0672C50.4944 49.1964 50.3052 49.2611 50.0329 49.2588C49.8326 49.2454 49.6335 49.2168 49.4375 49.1734C49.2414 49.1341 49.0429 49.0995 48.8467 49.0441C48.4567 48.9426 48.0644 48.8134 47.6698 48.7003C47.086 48.5226 46.5021 48.3288 45.9137 48.1557L45.9229 48.1372Z" fill="#231F20"/>
<path id="Vector_42" d="M83.1992 44.5765C83.1287 44.2999 82.9659 44.0557 82.7377 43.8842C82.6908 43.8561 82.6392 43.8366 82.5854 43.8265C82.5235 43.8222 82.4613 43.8268 82.4008 43.8404C82.3475 43.844 82.2956 43.8589 82.2485 43.8842C82.2008 43.9136 82.1587 43.9511 82.1239 43.995C81.9916 44.1947 81.9014 44.4193 81.8585 44.655C81.7478 45.1357 81.6906 45.6271 81.6877 46.1204C81.6717 46.624 81.7057 47.128 81.7892 47.625C81.8652 48.0668 81.9882 48.4993 82.1562 48.915C82.2598 49.1708 82.3898 49.4152 82.5439 49.6442C82.6806 49.8603 82.8425 50.0594 83.0262 50.2373C83.1392 50.3365 83.0839 50.468 82.8577 50.528C82.6903 50.5552 82.5186 50.5365 82.361 50.4739C82.2033 50.4113 82.0656 50.3072 81.9623 50.1727C81.5927 49.6227 81.3318 49.007 81.1939 48.3588C81.12 48.0473 81.0669 47.7496 81.0208 47.4357C80.9861 47.1178 80.973 46.7978 80.9816 46.478C80.9816 46.1019 80.9954 45.7188 81.0231 45.3242C81.0426 44.9211 81.1148 44.5224 81.2377 44.138C81.3163 43.9028 81.4384 43.6844 81.5977 43.4942C81.6925 43.3871 81.8059 43.298 81.9323 43.2311C82.056 43.1734 82.1874 43.1338 82.3223 43.1134C82.5915 43.076 82.8657 43.1177 83.1116 43.2334C83.3325 43.3569 83.5233 43.5279 83.67 43.7342C83.9691 44.1937 84.168 44.7111 84.2539 45.2527C84.3807 46.0297 84.4148 46.8191 84.3554 47.6042C84.3466 48.2202 84.2535 48.832 84.0785 49.4227C84.0356 49.5607 83.9816 49.695 83.9169 49.8242C83.831 50.019 83.6845 50.1808 83.4992 50.2857C83.4411 50.3145 83.3772 50.3295 83.3123 50.3296C83.252 50.3223 83.1939 50.3027 83.1416 50.2719C83.096 50.2504 83.0534 50.2233 83.0146 50.1911C82.9616 50.138 82.9662 50.0573 82.9754 49.9604C82.9816 49.9089 82.9916 49.858 83.0054 49.808C83.0239 49.7619 83.04 49.6973 83.0654 49.635C83.2255 49.2059 83.3272 48.7573 83.3677 48.3011C83.4396 47.8012 83.4774 47.2969 83.4808 46.7919C83.4961 46.052 83.3941 45.3144 83.1785 44.6065L83.1992 44.5765Z" fill="#231F20"/>
<path id="Vector_43" d="M87.2308 70.6121C86.4646 70.829 85.6985 71.0275 84.9231 71.2167C84.6438 71.286 84.3738 71.3852 84.0923 71.4475C83.1046 71.6783 82.1054 71.856 81.1131 72.0475C80.6723 72.1329 80.2361 72.239 79.8023 72.3452C79.247 72.5146 78.674 72.6191 78.0946 72.6567C77.8938 72.6567 77.9215 72.4629 78.0392 72.2529C78.1073 72.1264 78.2 72.0147 78.3117 71.9244C78.4234 71.834 78.552 71.7668 78.69 71.7267C79.8023 71.4452 80.9238 71.1683 82.0777 70.9744C82.4215 70.9144 82.77 70.8244 83.1115 70.7436C83.4531 70.6629 83.8038 70.5406 84.1454 70.4529C84.9023 70.2475 85.6592 70.0467 86.4092 69.8229L87.1015 69.6129L87.7938 69.3821C88.4825 69.1577 89.1555 68.8879 89.8085 68.5744C89.9308 68.5075 90.0392 68.4383 90.1661 68.3667C90.2807 68.3017 90.391 68.2292 90.4961 68.1498C90.6746 68.0127 90.8204 67.8377 90.9231 67.6375C90.9591 67.557 90.9885 67.4736 91.0108 67.3883C91.1008 67.0744 91.1469 66.9475 91.4377 66.8598C91.5023 66.839 91.5669 66.8113 91.6315 66.7975C91.8392 66.7513 92.0492 66.9337 92.0446 67.3721C92.0317 67.7154 91.9316 68.0497 91.7538 68.3436C91.5698 68.6392 91.3213 68.8893 91.0269 69.0752C90.9531 69.126 90.8931 69.1583 90.8331 69.1929L90.6508 69.2944L90.2838 69.4906C90.0346 69.6152 89.7831 69.7213 89.5315 69.8321C89.1554 69.9913 88.7746 70.1252 88.3938 70.2637C88.0131 70.4021 87.63 70.5198 87.24 70.6352L87.2308 70.6121Z" fill="#231F20"/>
<path id="Vector_44" d="M88.6155 97.5706C87.4316 97.896 86.2501 98.2421 85.0639 98.5975C84.6324 98.729 84.2101 98.8906 83.7762 99.0152C82.2439 99.456 80.7024 99.8783 79.1447 100.25L77.0678 100.767C76.6247 100.866 76.1839 100.974 75.7385 101.069C75.2887 101.151 74.8338 101.202 74.377 101.221C74.0931 101.221 74.1001 100.991 74.3008 100.709C74.5662 100.358 74.9501 100.116 75.3808 100.028L76.6962 99.7283C77.1347 99.6314 77.5708 99.4975 78.0116 99.4098L80.6908 98.7914C81.7662 98.5606 82.8393 98.1383 83.9216 97.7967C85.1047 97.4183 86.2947 97.0467 87.4916 96.6821L88.597 96.3521L89.707 96.036C90.2655 95.8675 90.8378 95.7337 91.4008 95.5744C91.9639 95.4152 92.5385 95.3021 93.0993 95.1521C93.5401 95.0529 93.9716 94.9352 94.4055 94.8129C94.8393 94.6906 95.2778 94.6006 95.7162 94.499C95.9082 94.4458 96.1031 94.4042 96.3001 94.3744C96.4531 94.3522 96.6071 94.3375 96.7616 94.3306C96.8716 94.33 96.9811 94.3447 97.087 94.3744C97.1668 94.3962 97.2413 94.4343 97.3057 94.4863C97.37 94.5384 97.4228 94.6032 97.4608 94.6767C97.5068 94.7415 97.5469 94.8103 97.5808 94.8821C97.6662 95.1129 97.3893 95.3621 96.8885 95.5237C95.3793 95.909 93.7962 96.216 92.1993 96.6337C91.6062 96.7767 91.0131 96.9406 90.4178 97.0952C89.8224 97.2498 89.227 97.4183 88.6339 97.5983L88.6155 97.5706Z" fill="#231F20"/>
<path id="Vector_45" d="M97.5876 90.2529C97.5876 90.2529 105.598 90.5806 107.972 93.0222C110.434 95.5606 103.714 97.8822 94.4445 99.8275C78.0183 103.289 74.6606 100.751 74.6606 100.751L97.103 94.8683L97.5876 90.2529Z" fill="#231F20"/>
<path id="Vector_46" d="M70.0847 59.0322C69.8023 59.094 69.5164 59.1387 69.2285 59.166C68.9396 59.1971 68.6491 59.211 68.3585 59.2076C66.6051 59.1788 64.9262 58.4937 63.6532 57.2875C63.0379 56.7301 62.5124 56.0809 62.0955 55.3629C61.3898 54.0974 60.9943 52.6825 60.9416 51.2345C60.914 50.5168 60.9737 49.7985 61.1193 49.0952C61.2584 48.3927 61.4831 47.7099 61.7885 47.0622C62.0677 46.4917 62.4032 45.9505 62.7901 45.4468C63.1789 44.9492 63.6097 44.486 64.0778 44.0622C64.6781 43.5165 65.3468 43.0511 66.067 42.6776C66.2495 42.5903 66.4367 42.5133 66.6278 42.4468C66.8193 42.3776 67.0178 42.3245 67.2139 42.2645C67.4101 42.2045 67.6132 42.1768 67.8162 42.1468C67.919 42.1372 68.0222 42.1333 68.1255 42.1352H68.2801C68.3308 42.1352 68.3816 42.1352 68.4347 42.1352C68.947 42.156 68.857 42.2691 68.4647 42.4376C68.0724 42.606 67.4378 42.996 66.7108 43.3906C65.3644 44.0429 64.1964 45.0122 63.307 46.2152C62.8621 46.8103 62.5082 47.4683 62.257 48.1676C61.9992 48.8785 61.8363 49.6202 61.7724 50.3737C61.6323 52.2507 62.1858 54.1138 63.3278 55.6099C63.631 56.0206 63.9793 56.396 64.3662 56.7291C64.7488 57.0642 65.1712 57.351 65.6239 57.5829C66.0734 57.8195 66.5522 57.9956 67.0478 58.1068L67.2324 58.1506L67.4193 58.1783C67.5462 58.1968 67.6708 58.2199 67.7978 58.2337C68.051 58.2556 68.3053 58.2625 68.5593 58.2545C69.8321 58.2008 71.0713 57.8295 72.1639 57.1745C72.9833 56.6631 73.69 55.9902 74.2408 55.1968C74.9384 54.1908 75.4116 53.0467 75.6282 51.8418C75.8448 50.637 75.7998 49.3996 75.4962 48.2137C75.457 48.0591 75.4039 47.9114 75.3601 47.7522C75.3162 47.5929 75.2516 47.4591 75.1985 47.3091C74.9885 46.7599 74.8039 46.4252 74.7162 46.1552C74.6765 46.042 74.6517 45.9241 74.6424 45.8045C74.6273 45.7089 74.6273 45.6116 74.6424 45.516C74.6508 45.4297 74.6654 45.3441 74.6862 45.2599C74.7324 45.1468 74.8639 45.1676 75.0785 45.3106C75.3879 45.5364 75.6433 45.828 75.8262 46.1645C76.5807 47.5018 76.9347 49.0278 76.8462 50.5606C76.7771 52.1169 76.3439 53.6352 75.5816 54.9937C75.0101 56.0251 74.2287 56.9253 73.2878 57.636C72.8123 57.9861 72.2982 58.2803 71.7555 58.5129C71.497 58.6376 71.2155 58.7229 70.9478 58.8291C70.6801 58.9352 70.3893 59.0045 70.1032 59.0599L70.0847 59.0322Z" fill="#231F20"/>
<path id="Vector_47" d="M72.6552 49.4898L72.3459 50.2214L71.9467 51.1191L71.8152 51.2829L71.7413 51.3752C71.7113 51.3752 71.7113 51.4029 71.6906 51.4075L71.6352 51.4329C71.5608 51.4588 71.4831 51.4735 71.4044 51.4768C71.227 51.4752 71.051 51.4456 70.8829 51.3891L70.7744 51.3545L70.7052 51.3291L70.5713 51.2783L70.3083 51.1698L69.7959 50.9391C69.459 50.7821 69.1221 50.6298 68.7921 50.4775C68.499 50.3321 68.1967 50.2075 67.899 50.0852C67.5044 49.9525 67.1259 49.776 66.7706 49.5591C66.6644 49.4852 66.7429 49.3283 66.909 49.2268C67.0011 49.16 67.1066 49.1143 67.2183 49.0927C67.3299 49.0712 67.4449 49.0744 67.5552 49.1021C68.3606 49.3497 69.1398 49.6759 69.8813 50.076C70.1035 50.1948 70.335 50.2952 70.5736 50.376C70.6936 50.4175 70.8044 50.4568 70.9336 50.4914L71.1113 50.5444C71.1405 50.5566 71.172 50.5622 71.2036 50.5606C71.229 50.5468 71.2336 50.5145 71.2521 50.4891L71.2775 50.4429C71.2927 50.4163 71.3058 50.3885 71.3167 50.3598L71.4321 50.0898C71.5083 49.9075 71.5821 49.7252 71.6629 49.5406C71.7921 49.2152 71.919 48.8875 72.0413 48.5552C72.2306 48.0545 72.429 47.5491 72.6321 47.0529C72.7082 46.8568 72.7798 46.6606 72.849 46.4645C72.9111 46.265 72.9882 46.0706 73.0798 45.8829C73.1186 45.7988 73.1626 45.7171 73.2113 45.6383C73.2494 45.5756 73.2926 45.5162 73.3406 45.4606C73.3826 45.4236 73.4301 45.3932 73.4813 45.3706C73.5534 45.3371 73.6329 45.3228 73.7121 45.3291C73.749 45.3291 73.7859 45.3291 73.8159 45.3406C73.8459 45.3521 73.8898 45.4006 73.9036 45.4814C73.9159 45.5879 73.9159 45.6956 73.9036 45.8021C73.8621 45.9821 73.8136 46.1552 73.7767 46.3352C73.7584 46.4238 73.7337 46.5109 73.7029 46.596L73.6175 46.8545L73.2667 47.9068L72.6575 49.4991L72.6552 49.4898Z" fill="#231F20"/>
<path id="Vector_48" d="M67.1353 46.6072C67.3037 46.3188 67.4699 46.0257 67.6268 45.728C67.6845 45.6218 67.7168 45.4972 67.7745 45.3934C67.9853 45.0103 68.1945 44.6257 68.4022 44.2395C68.4916 44.0691 68.5688 43.8925 68.633 43.7111C68.6995 43.4702 68.8107 43.244 68.9607 43.0441C69.016 42.9841 69.1637 43.058 69.2953 43.1849C69.4268 43.3118 69.5422 43.4872 69.5076 43.6234C69.3973 44.1173 69.1971 44.5866 68.9168 45.008C68.762 45.2785 68.6308 45.5619 68.5245 45.8549C68.3768 46.1641 68.2199 46.4711 68.063 46.778L67.7676 47.3411C67.6199 47.6272 67.4583 47.9088 67.306 48.1926C67.2507 48.3057 67.2022 48.4234 67.1583 48.5364C67.1192 48.6563 67.0674 48.7715 67.0037 48.8803C66.9791 48.929 66.9514 48.976 66.9207 49.0211C66.8927 49.0567 66.8609 49.0891 66.826 49.118C66.7933 49.1384 66.7561 49.1503 66.7176 49.1526C66.6492 49.1628 66.5794 49.1556 66.5145 49.1318C66.4822 49.1318 66.4499 49.1134 66.4245 49.1018C66.4006 49.0897 66.3795 49.0727 66.3625 49.0521C66.3454 49.0315 66.3327 49.0075 66.3253 48.9818C66.296 48.9078 66.2766 48.8302 66.2676 48.7511C66.3099 48.3074 66.4343 47.8754 66.6345 47.4772L67.096 46.5957L67.1353 46.6072Z" fill="#231F20"/>
<path id="Vector_49" d="M60.946 64.3099L61.7698 62.4175C61.869 62.1868 61.9406 61.956 62.0398 61.7252L63.1083 59.2952C63.2652 58.9352 63.3967 58.5637 63.5237 58.1968C63.6615 57.7132 63.8674 57.2517 64.1352 56.826C64.216 56.6899 64.3152 56.7429 64.4006 56.9091C64.4494 57.0173 64.4917 57.1282 64.5275 57.2414C64.5511 57.3113 64.5689 57.3831 64.5806 57.456C64.5848 57.5281 64.5785 57.6003 64.5621 57.6706C64.5044 57.9222 64.449 58.176 64.3798 58.4229C64.3106 58.6699 64.2137 58.9075 64.1237 59.1475C63.9504 59.6332 63.7446 60.1066 63.5075 60.5645C63.226 61.116 63.046 61.7322 62.8152 62.3183L62.019 64.2406L61.5275 65.4222C61.2852 66.0222 61.0244 66.6175 60.8075 67.2199C60.6413 67.6814 60.526 68.1683 60.3898 68.6437C60.3575 68.7475 60.3367 68.8537 60.3021 68.9575C60.2658 69.0996 60.1962 69.2309 60.099 69.3406C60.0112 69.4087 59.9001 69.4393 59.7898 69.426C59.7314 69.4296 59.6728 69.4296 59.6144 69.426C59.5681 69.4182 59.5248 69.3983 59.4887 69.3683C59.4526 69.3383 59.4251 69.2993 59.409 69.2552C59.3595 69.1371 59.3474 69.0066 59.3744 68.8814C59.554 67.9821 59.8167 67.1014 60.159 66.2506C60.3898 65.6022 60.6713 64.9606 60.9321 64.3191L60.946 64.3099Z" fill="#231F20"/>
<path id="Vector_50" d="M65.2202 65.5003C65.4509 64.9026 65.6932 64.3026 65.9125 63.698C65.9932 63.4673 66.0509 63.248 66.1432 63.0288C66.4409 62.2534 66.7225 61.4734 67.0294 60.6957C67.1632 60.3519 67.274 60.0034 67.3871 59.648C67.5072 59.1813 67.702 58.7371 67.964 58.3326C68.0517 58.2057 68.1371 58.275 68.1948 58.4388C68.2316 58.5365 68.2579 58.6378 68.2732 58.7411C68.2963 58.867 68.2963 58.996 68.2732 59.1219C68.2479 59.235 68.2363 59.3526 68.2017 59.4703L68.1025 59.8119L67.8994 60.5042C67.7641 60.9663 67.5999 61.4195 67.4079 61.8611C67.1771 62.3942 67.0317 62.9826 66.8379 63.5434C66.6255 64.1596 66.4017 64.7734 66.1732 65.3896L65.7509 66.5203C65.5363 67.0903 65.3009 67.6534 65.0955 68.2234C64.9409 68.6665 64.8186 69.1142 64.6802 69.5619C64.6479 69.6588 64.6225 69.758 64.5855 69.855C64.4402 70.2103 64.3202 70.2911 64.1009 70.2865C64.0525 70.29 64.0039 70.29 63.9555 70.2865C63.8148 70.2657 63.7248 70.0557 63.7755 69.7788C63.9642 68.9456 64.2133 68.1273 64.5209 67.3303C64.7309 66.7211 64.9686 66.1188 65.1948 65.5119L65.2202 65.5003Z" fill="#231F20"/>
<path id="Vector_51" d="M49.8925 63.6658L50.4925 62.5904C50.5617 62.4612 50.6102 62.3204 50.6794 62.1935C50.7994 61.9628 50.924 61.7527 51.0279 61.5404C51.0487 61.4897 51.0741 61.4366 51.0948 61.3858L51.1433 61.2358L51.2264 60.8435C51.2725 60.6127 51.3187 60.382 51.3394 60.1512C51.3533 60.0151 51.351 59.8743 51.3579 59.7289C51.379 59.5794 51.4153 59.4325 51.4664 59.2904C51.501 59.2004 51.6117 59.2143 51.7433 59.2904C51.9046 59.3814 52.03 59.5247 52.0987 59.6966C52.1274 60.0175 52.1166 60.3407 52.0664 60.6589C52.0479 60.8043 52.0179 60.9474 51.9879 61.0928L51.9394 61.3235C51.9141 61.4135 51.8864 61.5151 51.854 61.6028C51.6879 61.9997 51.5656 62.3643 51.3925 62.7035L50.7948 63.7835C50.6748 64.0027 50.564 64.2243 50.451 64.4481C50.2815 64.7834 50.1365 65.1304 50.0171 65.4866C49.9441 65.7632 49.897 66.0459 49.8764 66.3312L49.8579 66.5158C49.8233 66.7466 49.761 66.8043 49.514 66.8112C49.4633 66.8112 49.4125 66.8112 49.3664 66.8112C49.2826 66.8061 49.2038 66.7699 49.1453 66.7097C49.0868 66.6495 49.0529 66.5697 49.0502 66.4858C49.0353 65.9117 49.1415 65.3408 49.3617 64.8104C49.5117 64.4112 49.6987 64.0281 49.881 63.6566L49.8925 63.6658Z" fill="#231F20"/>
<path id="Vector_52" d="M77.8686 57.0937C77.7071 57.0291 77.5409 56.9668 77.3725 56.9114C77.3102 56.8906 77.2455 56.8906 77.1832 56.8676C76.9663 56.7845 76.7494 56.6922 76.5371 56.6068C76.4428 56.5705 76.3465 56.5397 76.2486 56.5145C76.1187 56.4982 75.9954 56.448 75.8909 56.3691C75.8586 56.3391 75.8909 56.2353 75.9648 56.1383C76.0386 56.0414 76.124 55.9399 76.1955 55.9445C76.3179 55.9528 76.4396 55.9682 76.5602 55.9906C76.6799 56.0211 76.7959 56.0644 76.9063 56.1199C77.0504 56.1706 77.2013 56.1994 77.354 56.2053C77.5202 56.233 77.6909 56.2699 77.8617 56.3022L78.1778 56.3691C78.3369 56.4054 78.498 56.4323 78.6602 56.4499C78.7921 56.4421 78.9232 56.4244 79.0525 56.3968C79.0813 56.3901 79.1106 56.3855 79.1402 56.3829C79.2463 56.3829 79.2671 56.4522 79.2371 56.6968C79.2371 56.7522 79.2255 56.8076 79.2186 56.8629C79.2155 56.9341 79.1976 57.0038 79.1663 57.0678C79.1349 57.1317 79.0906 57.1885 79.0363 57.2345C78.9265 57.2867 78.8071 57.3158 78.6855 57.3199C78.5738 57.3138 78.4631 57.2952 78.3555 57.2645C78.194 57.2253 78.0325 57.1653 77.8663 57.1168L77.8686 57.0937Z" fill="#231F20"/>
<path id="Vector_53" d="M50.8336 47.2603L50.6536 45.6842L50.559 44.8972C50.5565 44.8812 50.5565 44.8648 50.559 44.8488C50.5611 44.842 50.5611 44.8348 50.559 44.828C50.559 44.828 50.5244 44.7542 50.4967 44.6988L50.3167 44.3457C50.1413 43.9995 49.9406 43.6695 49.7675 43.3234L48.8583 41.4934L48.699 41.1772C48.6661 41.1175 48.6368 41.0559 48.6113 40.9926L48.6736 40.7942L48.8606 40.2242L49.1767 39.2526C49.3636 38.678 49.5229 38.0988 49.6729 37.5103L49.8552 36.818L49.9152 36.5872C49.9152 36.5365 49.9683 36.5526 50.0006 36.5411L50.109 36.5249C50.1829 36.5134 50.2544 36.4995 50.3398 36.4926L50.5706 36.4788L50.9213 36.4626H51.2167C51.414 36.4603 51.611 36.4765 51.8052 36.5111C52.0475 36.6057 52.0106 36.7188 51.8052 36.9726C51.5593 37.2769 51.2071 37.4765 50.8198 37.5311C50.7506 37.5311 50.7713 37.5311 50.769 37.5311C50.7723 37.519 50.7723 37.5063 50.769 37.4942L50.7529 37.5542L50.709 37.6949C50.5952 38.0718 50.4783 38.448 50.3583 38.8234C50.2383 39.1988 50.1098 39.5726 49.9729 39.9449L49.7698 40.5034L49.6659 40.7826C49.6659 40.8011 49.6452 40.8403 49.6429 40.8426L49.6313 40.8565L49.6083 40.8888C49.5944 40.9026 49.6083 40.9165 49.6083 40.9326V40.9557C49.6083 40.9557 49.6083 40.9557 49.6267 41.0019L49.7836 41.3272C49.8921 41.5419 50.0144 41.7588 50.1183 41.9734C50.349 42.4026 50.5798 42.8295 50.8106 43.2634L51.1729 43.9765L51.3552 44.3318L51.4175 44.4542L51.4544 44.5257C51.4614 44.5522 51.466 44.5792 51.4683 44.6065L51.5006 44.8511L51.6875 46.4434C51.7613 47.0988 51.8375 47.7519 51.9183 48.4049C52.0336 49.3949 52.1283 50.3918 52.2483 51.3749C52.3452 52.1388 52.479 52.8842 52.5783 53.6457C52.599 53.8142 52.629 53.978 52.6429 54.1488C52.6558 54.2831 52.6558 54.4183 52.6429 54.5526C52.6381 54.6479 52.6195 54.742 52.5875 54.8318C52.5473 54.9554 52.4658 55.0613 52.3567 55.1318C52.3156 55.1648 52.2706 55.1927 52.2229 55.2149C52.1513 55.2426 52.0867 55.1895 52.0175 55.0788C51.9265 54.9236 51.8617 54.7543 51.8259 54.578C51.5813 53.2695 51.399 51.8572 51.2213 50.4403L50.8267 47.2695L50.8336 47.2603Z" fill="#231F20"/>
<path id="Vector_54" d="M53.2433 47.8723L52.9756 45.0223L52.9456 44.7638L52.904 44.4707C52.8824 44.3953 52.8824 44.3153 52.904 44.24L52.9525 44.06L53.0217 43.8084L53.9448 40.8315L53.9148 40.7253L53.8409 40.513C53.6656 39.9984 53.4509 39.4953 53.264 38.99C53.1417 38.6669 53.0009 38.3507 52.8879 38.023C52.7748 37.6953 52.6848 37.3584 52.5925 37.0284C52.5371 36.8323 52.6456 36.7976 52.8556 36.9015C53.1517 37.069 53.4021 37.3068 53.5848 37.5938C53.7235 37.8294 53.8483 38.0729 53.9586 38.323C54.074 38.5707 54.1871 38.8176 54.2979 39.0638C54.4063 39.313 54.4894 39.5738 54.5817 39.8276L54.7133 40.2153L54.7802 40.4115L54.9071 40.7738L54.7825 41.1892L54.6994 41.42L54.5286 41.9C54.3809 42.3015 54.2586 42.7215 54.1456 43.1438L53.9748 43.7807L53.8894 44.0969L53.8456 44.2561L53.8225 44.3346V44.36L54.0879 47.1292C54.1433 47.72 54.1994 48.3092 54.2563 48.8969C54.344 49.7899 54.4202 50.6876 54.524 51.5715C54.6071 52.2638 54.7363 52.9261 54.8309 53.6092C54.8517 53.7615 54.8817 53.9069 54.8956 54.0592C54.9486 54.6269 54.8956 54.8253 54.6509 54.95C54.6016 54.9802 54.5499 55.0064 54.4963 55.0284C54.3256 55.0746 54.1571 54.86 54.0856 54.4653C53.8548 53.2815 53.684 52.0076 53.5386 50.7269C53.4371 49.7746 53.3348 48.82 53.2317 47.863L53.2433 47.8723Z" fill="#231F20"/>
<path id="Vector_55" d="M50.1048 59.8443C49.7419 59.6915 49.4241 59.4484 49.1817 59.1381C48.9231 58.8011 48.7871 58.3859 48.7963 57.9612C48.809 57.5964 48.897 57.2381 49.0548 56.9089C49.196 56.6102 49.3752 56.331 49.5879 56.0781C49.7379 55.8946 49.9022 55.7233 50.0794 55.5658C50.165 55.488 50.256 55.4163 50.3517 55.3512L50.6286 55.1574C51.2992 54.7546 52.0426 54.488 52.8163 54.3728C53.5799 54.2621 54.3578 54.3029 55.1056 54.4928C55.7584 54.6612 56.3811 54.9298 56.9517 55.2889C57.1321 55.4074 57.3062 55.5353 57.4733 55.672C57.6279 55.822 57.7871 55.9674 57.9348 56.1335L58.1309 56.3874L58.3086 56.6528C58.4099 56.8395 58.5016 57.0313 58.5833 57.2274C58.6825 57.4697 58.5371 57.5043 58.2694 57.4281C58.1105 57.3791 57.9561 57.3165 57.8079 57.2412C57.6185 57.1665 57.4418 57.063 57.284 56.9343C57.0152 56.6984 56.7307 56.481 56.4325 56.2835C56.2908 56.1809 56.1411 56.0898 55.9848 56.0112C55.8368 55.9231 55.6825 55.846 55.5233 55.7804C54.8575 55.5152 54.1442 55.3902 53.4279 55.4135C52.9769 55.4328 52.5319 55.5248 52.1102 55.6858C51.6901 55.8587 51.2926 56.0818 50.9263 56.3504C50.5506 56.6283 50.2514 56.9966 50.0563 57.4212C49.9679 57.6097 49.9222 57.8154 49.9225 58.0235C49.9245 58.2046 49.9898 58.3794 50.1071 58.5174C50.2883 58.7153 50.522 58.8578 50.781 58.9281C51.0814 59.0178 51.3911 59.0728 51.704 59.092C52.7055 59.1319 53.7082 59.0568 54.6925 58.8681C55.4725 58.732 56.2248 58.5151 57.014 58.3535C57.1871 58.3189 57.3579 58.2751 57.5379 58.2497C57.779 58.1978 58.0283 58.1978 58.2694 58.2497C58.3411 58.2766 58.4066 58.3177 58.462 58.3704C58.5175 58.4231 58.5619 58.4864 58.5925 58.5566C58.6228 58.6096 58.6483 58.6652 58.6686 58.7228C58.6917 58.8058 58.6294 58.8774 58.5186 58.9674C58.38 59.088 58.2107 59.1679 58.0294 59.1981C57.3833 59.3389 56.6886 59.5166 55.9733 59.6597C55.2579 59.8028 54.5148 59.9504 53.7533 60.0474C53.1737 60.13 52.5894 60.1747 52.004 60.1812C51.3516 60.1974 50.7018 60.0909 50.0886 59.8674L50.1048 59.8443Z" fill="#231F20"/>
<path id="Vector_56" d="M58.0544 64.5337C57.789 64.116 57.496 63.7076 57.1913 63.2968C57.0806 63.1468 56.949 63.0153 56.8383 62.8583C56.633 62.5788 56.4479 62.2849 56.2844 61.9791L56.1667 61.7206C56.1293 61.6257 56.0977 61.5286 56.0721 61.4299C56.0421 61.326 56.0398 61.2614 56.0213 61.1737L55.9798 60.9291C55.9244 60.6406 55.8598 60.3476 55.8021 60.0568C55.7629 59.8699 55.7236 59.6829 55.696 59.4983C55.6775 59.3088 55.6775 59.1179 55.696 58.9283C55.7098 58.8083 55.8229 58.806 55.9706 58.8822C56.1562 58.9779 56.3077 59.1286 56.4044 59.3137C56.5013 59.6829 56.5798 60.0291 56.6721 60.3891C56.716 60.5691 56.7506 60.756 56.7852 60.9429L56.8083 61.0837C56.8083 61.1322 56.8244 61.1829 56.8313 61.2037C56.8417 61.2714 56.8587 61.3379 56.8821 61.4022C56.9154 61.4974 56.9604 61.5881 57.016 61.6722C57.0736 61.7659 57.1367 61.8561 57.2052 61.9422L57.6275 62.4868C57.9344 62.8976 58.246 63.3222 58.5506 63.756C58.7352 64.0237 58.906 64.3006 59.0767 64.5776C59.2013 64.7922 59.3283 65.0045 59.4344 65.2283C59.5406 65.4522 59.6513 65.6737 59.7575 65.8976C59.9304 66.2428 60.0845 66.5972 60.219 66.9591C60.2549 67.0376 60.2828 67.1196 60.3021 67.2037C60.3644 67.5222 60.3298 67.6329 60.1013 67.7229C60.0571 67.7447 60.0116 67.7639 59.9652 67.7806C59.8768 67.7945 59.7863 67.7767 59.7099 67.7302C59.6334 67.6837 59.5759 67.6117 59.5475 67.5268C59.3029 66.9568 59.086 66.373 58.779 65.8076C58.5557 65.3732 58.3068 64.9525 58.0336 64.5476L58.0544 64.5337Z" fill="#231F20"/>
<path id="Vector_57" d="M32.5871 51.9218C32.2687 51.5964 31.9502 51.2687 31.6248 50.9457C31.5048 50.828 31.371 50.7287 31.2533 50.6087C30.8425 50.1841 30.4571 49.7318 30.0556 49.2957C29.8756 49.1018 29.6864 48.9195 29.5018 48.7349C29.2494 48.5132 29.0289 48.2577 28.8464 47.9757C28.7933 47.881 28.9041 47.8003 29.0771 47.7657C29.1674 47.7422 29.2617 47.7383 29.3536 47.7542C29.4456 47.7702 29.5331 47.8055 29.6102 47.858C29.8664 48.0726 30.1318 48.278 30.3694 48.5134C30.6071 48.7487 30.831 48.9887 31.0618 49.2495C31.3248 49.561 31.6779 49.8033 31.9848 50.0941L32.9794 51.0495L33.5933 51.6426C33.9048 51.938 34.2071 52.2518 34.5279 52.5334C34.7748 52.7641 35.061 52.9326 35.3194 53.1449C35.3748 53.1933 35.4371 53.2326 35.4902 53.2857C35.6794 53.4818 35.6887 53.5949 35.5571 53.7957C35.5294 53.8395 35.5041 53.8857 35.4741 53.9249C35.4145 53.9895 35.3345 54.0316 35.2475 54.0442C35.1605 54.0568 35.0719 54.0391 34.9964 53.9941C34.4758 53.6921 33.9991 53.3202 33.5794 52.8887L32.571 51.9449L32.5871 51.9218Z" fill="#231F20"/>
<path id="Vector_58" d="M31.8301 46.0441C33.1339 45.6287 34.4424 45.2641 35.737 44.8603C36.1985 44.7149 36.6601 44.5441 37.1401 44.3987C37.9639 44.1287 38.7854 43.8495 39.5862 43.531C39.7893 43.4549 39.9831 43.3672 40.1816 43.2841C40.3801 43.201 40.6224 43.0787 40.6593 43.0672L40.6916 43.0534V43.0141V42.938C40.6916 42.9103 40.6916 42.7672 40.6916 42.6703C40.6916 42.458 40.6916 42.2434 40.6731 42.0287C40.6205 41.2636 40.5227 40.5023 40.3801 39.7487C40.1839 38.791 40.0178 37.808 39.7431 36.8918C39.6439 36.6357 39.727 36.5987 39.9439 36.7995C40.2461 37.146 40.4697 37.5538 40.5993 37.9949C40.8964 38.9754 41.1117 39.9788 41.2431 40.9949C41.3124 41.5049 41.3654 42.0172 41.3862 42.5434V42.7418C41.3903 42.8187 41.3903 42.8957 41.3862 42.9726L41.3724 43.3072V43.4734C41.3252 43.5053 41.275 43.5324 41.2224 43.5541L40.9108 43.7064L40.7239 43.7918C40.6062 43.8472 40.4931 43.8934 40.3639 43.9418C39.2101 44.4034 38.0331 44.881 36.8493 45.2849C35.5478 45.721 34.2347 46.1203 32.9262 46.5334C32.1208 46.7826 31.3339 47.0434 30.5354 47.3272C29.3314 47.7117 28.1568 48.1829 27.0208 48.7372C26.1788 49.1813 25.4022 49.7396 24.7131 50.3964C24.5608 50.5349 24.4293 50.6918 24.2793 50.8372C24.1293 50.9826 24.0485 51.0934 23.9424 51.1857C23.8362 51.278 23.7508 51.3403 23.677 51.3957C23.5605 51.4861 23.4182 51.5371 23.2708 51.541C23.2125 51.5455 23.1538 51.5455 23.0954 51.541C23.0124 51.5249 22.9985 51.4349 23.0447 51.2826C23.0747 51.1869 23.1117 51.0936 23.1554 51.0034C23.2124 50.8791 23.2829 50.7615 23.3654 50.6526C23.9415 49.9188 24.6273 49.2782 25.3985 48.7534C26.1921 48.2272 27.0382 47.7848 27.9231 47.4334C28.5693 47.1634 29.2224 46.9257 29.8731 46.6972L30.8424 46.358L31.8278 46.0257L31.8301 46.0441Z" fill="#231F20"/>
<path id="Vector_59" d="M25.0915 42.7582C25.4052 42.1431 25.7655 41.5529 26.1692 40.9928L26.2592 40.8843C26.2938 40.8451 26.3423 40.7989 26.3838 40.7597C26.4215 40.7209 26.4624 40.6854 26.5061 40.6535L26.6261 40.5659C26.7784 40.4597 26.9307 40.3651 27.0877 40.2774C27.39 40.1043 27.6923 39.9497 27.9969 39.7997C28.44 39.5828 28.8738 39.3566 29.3215 39.1628C30.9046 38.4705 32.5061 37.8705 34.1238 37.3005L36.2746 36.5389C36.7361 36.3797 37.1977 36.2182 37.6592 36.0774C38.1342 35.9249 38.6251 35.8273 39.1223 35.7866C39.2907 35.7866 39.3692 35.8305 39.353 35.8882C39.3369 35.9459 39.263 36.0174 39.1546 36.1028C38.8096 36.3615 38.4245 36.5618 38.0146 36.6959C36.1684 37.2935 34.3523 38.0528 32.4761 38.6874C31.3592 39.082 30.24 39.6105 29.1484 40.1159C28.5507 40.3974 27.9484 40.6859 27.3992 41.0159C27.3277 41.0551 27.2631 41.0989 27.2007 41.1405C27.1372 41.1795 27.0763 41.2226 27.0184 41.2697C26.9687 41.3071 26.9217 41.348 26.8777 41.392C26.8292 41.4497 26.7807 41.5097 26.7346 41.572C26.5461 41.8304 26.3749 42.101 26.2223 42.382C26.0261 42.7374 25.8369 43.1066 25.613 43.4712C25.5484 43.6212 25.3823 43.702 25.3246 43.7666C25.2669 43.8312 25.1515 43.8959 25.0615 43.9559C24.8838 44.0782 24.6992 44.1866 24.5169 44.2928C23.9607 44.6112 23.4023 44.8697 22.9154 45.2159C22.6801 45.3666 22.4795 45.5656 22.3269 45.7997C22.1835 46.0486 22.0763 46.3167 22.0084 46.5959C21.7777 47.4866 21.81 48.4305 21.8146 49.3651C21.8146 49.5751 21.8284 49.7805 21.8146 49.9928C21.8146 50.782 21.7107 51.0451 21.4777 51.1905C21.4288 51.228 21.3762 51.2605 21.3207 51.2874C21.1454 51.3359 21.0484 51.0197 21.0138 50.4566C20.9561 49.5816 20.9515 48.7038 21 47.8282C21.026 47.351 21.0971 46.8773 21.2123 46.4135C21.3298 45.8822 21.5772 45.3882 21.9323 44.9759C22.0107 44.8974 22.0938 44.8143 22.1631 44.7451C22.2323 44.6759 22.3084 44.6297 22.3938 44.5766C22.5438 44.4705 22.6938 44.3689 22.8554 44.2766C23.16 44.0874 23.4669 43.9282 23.7577 43.7712C24.0384 43.6244 24.3111 43.4626 24.5746 43.2866C24.6392 43.2451 24.6992 43.2012 24.7592 43.1551C24.7905 43.1346 24.8206 43.1123 24.8492 43.0882L24.8931 43.0535L24.9484 42.9635L25.0661 42.7559L25.0915 42.7582Z" fill="#231F20"/>
<path id="Vector_60" d="M37.0363 49.7528L37.1217 48.3843C37.1217 48.2181 37.1217 48.052 37.1217 47.8858C37.1679 47.2974 37.2025 46.7066 37.2625 46.1158C37.2855 45.8528 37.2879 45.5897 37.2902 45.3289C37.2733 44.9918 37.2981 44.6538 37.364 44.3228C37.3894 44.2189 37.514 44.2397 37.6409 44.3228C37.7153 44.3744 37.7783 44.4408 37.826 44.5178C37.8736 44.5948 37.9049 44.6808 37.9179 44.7704C37.9879 45.4436 37.998 46.1217 37.9479 46.7966C37.9225 47.2147 37.9225 47.6339 37.9479 48.052C37.9479 48.5135 37.9317 48.9751 37.9132 49.4366L37.8786 50.2928C37.8648 50.7243 37.8302 51.1581 37.8279 51.5874C37.8279 51.9243 37.8717 52.2566 37.8579 52.5912C37.8579 52.6651 37.8579 52.7366 37.8394 52.822C37.8288 52.8809 37.8134 52.9387 37.7932 52.9951C37.7724 53.036 37.7443 53.0728 37.7102 53.1035C37.654 53.1572 37.5834 53.1932 37.5071 53.2074C37.4732 53.2179 37.4384 53.2256 37.4032 53.2304C37.2994 53.2443 37.2002 53.1174 37.1009 52.9143C36.943 52.3306 36.8922 51.7231 36.9509 51.1212L37.0063 49.7528H37.0363Z" fill="#231F20"/>
<path id="Vector_61" d="M35.7486 59.5607C35.5178 58.9169 35.2871 58.273 35.0286 57.6338C34.9363 57.403 34.8255 57.1723 34.7378 56.9415C34.4263 56.1177 34.1055 55.2961 33.7847 54.4746C33.6394 54.1123 33.4755 53.7546 33.3047 53.4084C33.0777 52.9651 32.8804 52.5072 32.714 52.0377C32.6655 51.89 32.744 51.8669 32.8963 51.9315C33.1227 52.033 33.3184 52.1922 33.464 52.393C33.5378 52.5023 33.6094 52.6107 33.6786 52.7184L33.7847 52.8823L33.8747 53.053C33.9924 53.2838 34.1055 53.5146 34.2186 53.7454C34.445 54.2087 34.64 54.6867 34.8024 55.1761C35.0009 55.7623 35.2917 56.33 35.5294 56.9207C35.7901 57.5623 36.0417 58.2084 36.2932 58.8546L36.7547 60.0477C36.9855 60.6477 37.2163 61.2546 37.4701 61.8431C37.6663 62.3046 37.9063 62.7315 38.1186 63.1769C38.1601 63.2761 38.2086 63.3707 38.2478 63.4746C38.31 63.6076 38.343 63.7524 38.3447 63.8992C38.3431 63.9455 38.3321 63.991 38.3124 64.033C38.2885 64.0754 38.2599 64.1149 38.2271 64.1507C38.1971 64.1831 38.1763 64.22 38.1555 64.2407C38.1047 64.303 37.8532 64.2246 37.694 63.973C37.5717 63.7838 37.4471 63.5946 37.3317 63.3984C37.2163 63.2023 37.1286 62.9923 37.034 62.7846C36.8447 62.3692 36.6647 61.94 36.4917 61.5107C36.2332 60.8692 35.9909 60.2207 35.7371 59.5769L35.7486 59.5607Z" fill="#231F20"/>
<path id="Vector_62" d="M39.8239 56.0089L40.6247 58.2404C40.7239 58.5104 40.8555 58.7735 40.9409 59.0435L41.4416 60.4881L41.9216 61.9397C42.0601 62.3689 42.2401 62.7866 42.3832 63.2112C42.5957 63.7488 42.7692 64.301 42.9024 64.8635C42.9393 65.0389 42.8263 65.0551 42.6578 64.9535C42.4232 64.8039 42.2347 64.5923 42.1132 64.342C41.8824 63.8089 41.5963 63.2897 41.4024 62.7266C41.2086 62.1635 40.9986 61.6258 40.8186 61.0604C40.6063 60.3866 40.3039 59.7151 40.0432 59.0412L39.2009 56.8074L38.6839 55.4227L37.9109 53.3297C37.8093 53.0597 37.6916 52.8012 37.5855 52.5358C37.4671 52.2735 37.3639 52.0046 37.2763 51.7304C37.2328 51.6096 37.1966 51.4863 37.1678 51.3612C37.0524 50.8997 37.1193 50.692 37.2809 50.5812C37.3156 50.5534 37.3527 50.5287 37.3916 50.5074C37.5163 50.4658 37.6547 50.6297 37.7793 50.9181C38.2178 51.7904 38.5986 52.7643 39.0001 53.7543C39.2978 54.4835 39.5563 55.2381 39.8447 55.9812L39.8239 56.0089Z" fill="#231F20"/>
<path id="Vector_63" d="M44.1325 34.326C44.1555 34.4298 44.1671 34.5452 44.1855 34.6537L44.2225 34.9006L44.2709 35.2468L44.3655 35.9391L44.5594 37.3237C44.6078 37.6606 44.6771 37.9952 44.7232 38.3321L44.9794 40.2291C44.983 40.2975 44.983 40.366 44.9794 40.4344C44.9794 40.4668 44.9794 40.5014 44.9794 40.5337C44.9653 40.5646 44.9457 40.5927 44.9217 40.6168C44.816 40.7136 44.686 40.7798 44.5455 40.8083C44.1717 40.9075 44.1855 40.8752 43.8117 40.9721L43.6894 40.9998H43.5763H43.5301H43.5048C43.5048 40.9768 43.4817 41.0483 43.5255 40.9491H43.514L43.4332 40.896C43.3665 40.8539 43.3161 40.7904 43.2901 40.716L43.1817 40.4852L42.8401 39.7583L42.6648 39.3983L42.5863 39.2391L42.5448 39.1606L42.4917 39.0637L42.3163 39.1583L42.2932 39.1698L42.2425 39.1929L42.1432 39.2414L41.9401 39.336C41.67 39.4611 41.3926 39.5697 41.1094 39.6614C40.7032 39.7883 40.9017 38.9183 41.6125 38.5929L42.8771 38.0252L43.3386 39.0452L43.5948 39.6175L43.8255 40.1714C43.8255 40.1898 43.8255 40.236 43.8578 40.2291H43.8717H43.9178L44.1071 40.1991C44.1463 40.1991 44.1463 40.1991 44.1532 40.1991H44.2271C44.2755 40.1991 44.2686 40.1621 44.2686 40.1298C44.258 39.9913 44.2403 39.8534 44.2155 39.7168L44.1278 39.1768C44.0678 38.8144 44.0055 38.4521 43.9525 38.0898L43.5486 35.2975L43.4932 34.9098L43.4817 34.806V34.7529V34.7252C43.4817 34.7252 43.4655 34.7252 43.4609 34.7252C43.3899 34.7211 43.3187 34.7249 43.2486 34.7367C43.1364 34.7578 43.0266 34.7903 42.9209 34.8337C42.8748 34.8568 42.8055 34.8752 42.7894 34.9329L42.7478 35.1637L42.6232 35.7914L42.5171 36.4398C42.4848 36.6706 42.4525 36.8829 42.4178 37.1044L42.3625 37.5037L42.0648 37.6006L41.8155 37.686L41.4071 37.8337L40.5971 38.1291C40.4586 38.1775 40.3248 38.2329 40.184 38.2791C39.6601 38.4521 39.4778 38.4544 39.3071 38.2998C39.2656 38.2687 39.2277 38.2331 39.194 38.1937C39.0994 38.0621 39.2771 37.8775 39.6555 37.7183C40.034 37.5591 40.4194 37.4068 40.8094 37.2568L41.4071 37.0491L41.7117 36.9475L41.7509 36.6706L41.8409 36.0729L41.9494 35.3806L42.0048 35.0298L42.0394 34.8129C42.0538 34.7011 42.0874 34.5926 42.1386 34.4921C42.1974 34.399 42.2763 34.3202 42.3694 34.2614C42.4622 34.203 42.5603 34.1536 42.6625 34.1137C42.731 34.0865 42.8011 34.0633 42.8725 34.0444L42.9763 34.0168L43.034 34.0029L43.1194 33.9844C43.3378 33.945 43.5602 33.9326 43.7817 33.9475H43.9432H44.0263C44.0425 33.9475 44.0425 33.9614 44.0471 33.9729V34.0121L44.1301 34.3168L44.1325 34.326Z" fill="#231F20"/>
<path id="Vector_64" d="M30.3348 47.0598C31.2118 46.7668 32.121 46.5037 33.0071 46.2429C33.3325 46.1483 33.651 46.0329 33.9764 45.9406C35.1302 45.6175 36.2679 45.2898 37.4033 44.9437C37.9041 44.7844 38.4025 44.6044 38.8848 44.4083C39.5033 44.1475 40.1264 43.9052 40.7495 43.6606C40.9456 43.5891 40.9641 43.6814 40.8533 43.8544C40.6748 44.1186 40.4379 44.3381 40.161 44.496C39.5478 44.8304 38.9107 45.1189 38.2548 45.3591C37.6052 45.6093 36.9427 45.825 36.2702 46.0052C35.4648 46.2198 34.6548 46.5244 33.8448 46.7783C32.9541 47.0575 32.0633 47.3298 31.1864 47.6298C30.6418 47.8121 30.0948 47.9921 29.5571 48.1837C28.7399 48.4539 27.9419 48.7793 27.1687 49.1575C26.5958 49.4623 26.0547 49.8233 25.5533 50.2352L25.2279 50.5075C25.1447 50.5798 25.0576 50.6476 24.9671 50.7106C24.9003 50.7521 24.8291 50.7861 24.7548 50.8121C24.6469 50.8525 24.5281 50.8525 24.4202 50.8121C24.37 50.8002 24.3206 50.7848 24.2725 50.766C24.1387 50.6968 24.2102 50.4429 24.471 50.1037C25.3295 49.1991 26.4902 48.5298 27.6695 48.0268C28.551 47.6483 29.451 47.3483 30.3325 47.0437L30.3348 47.0598Z" fill="#231F20"/>
<path id="Vector_65" d="M93.3114 61.6374L92.5198 61.4066C92.4229 61.3789 92.3237 61.3651 92.2291 61.3328L91.2252 60.9797C91.0752 60.9312 90.9229 60.892 90.7637 60.8504C90.5621 60.8121 90.369 60.7378 90.1937 60.6312C90.1383 60.5943 90.1798 60.5135 90.2629 60.4374C90.302 60.3936 90.3496 60.3581 90.4027 60.3331C90.4558 60.3082 90.5135 60.2942 90.5721 60.292C90.7713 60.3126 90.9692 60.3434 91.1652 60.3843C91.3603 60.4397 91.5521 60.506 91.7398 60.5828C91.9755 60.6617 92.217 60.7219 92.4621 60.7628C92.7275 60.832 92.9906 60.9104 93.256 60.9935C93.4198 61.0374 93.5814 61.0835 93.7452 61.1228C93.9944 61.1828 94.2414 61.2497 94.4929 61.2866C94.6869 61.3058 94.882 61.3112 95.0768 61.3028C95.119 61.3004 95.1614 61.3004 95.2037 61.3028C95.356 61.3212 95.3952 61.3651 95.416 61.5335C95.416 61.5728 95.4275 61.6097 95.4298 61.6466C95.4336 61.7065 95.4152 61.7657 95.3782 61.8129C95.3412 61.8601 95.2881 61.8921 95.2291 61.9028C94.8564 61.9607 94.476 61.9443 94.1098 61.8543C93.8375 61.8035 93.5675 61.732 93.2998 61.6674L93.3114 61.6374Z" fill="#231F20"/>
<path id="Vector_66" d="M47.9998 71.3827L48.1706 71.2534V71.2673L48.1891 71.2927L48.2237 71.3457L48.2929 71.4519C48.2929 71.5673 48.3068 71.6942 48.3091 71.8165C48.2121 72.1234 48.1152 72.4373 48.0552 72.7027L47.9814 73.0304C47.9628 73.1164 47.9389 73.2011 47.9098 73.2842C47.8447 73.5092 47.7475 73.7237 47.6214 73.9211C47.5752 73.9788 47.536 74.0388 47.4829 74.0942C47.4298 74.1496 47.3721 74.2004 47.3144 74.2511C47.1976 74.3367 47.0705 74.4073 46.936 74.4611C46.8782 74.4873 46.8179 74.5074 46.756 74.5211C46.6982 74.5372 46.6397 74.5503 46.5806 74.5604L46.4214 74.5811C46.3639 74.5887 46.3062 74.5933 46.2483 74.595C46.0637 74.5934 45.8795 74.5795 45.6968 74.5534C45.5306 74.5327 45.3691 74.5073 45.2098 74.4819C44.7483 74.4057 44.2868 74.348 43.8252 74.2511C42.2329 73.9165 40.6637 73.5196 39.0991 73.0857L38.0768 72.8111C37.7237 72.7096 37.3844 72.615 37.0152 72.4765C36.8498 72.4169 36.6943 72.3329 36.5537 72.2273C36.4878 72.1744 36.4369 72.1052 36.406 72.0265C36.3779 71.9454 36.3616 71.8607 36.3575 71.775C36.3403 71.5034 36.3457 71.231 36.3737 70.9604C36.423 70.5045 36.5001 70.0522 36.6044 69.6057C36.6368 69.4696 36.6968 69.4303 36.7821 69.4303C36.841 69.4442 36.8963 69.47 36.9447 69.5061C36.9932 69.5422 37.0336 69.5879 37.0637 69.6403C37.3144 70.0063 37.4466 70.4406 37.4421 70.8842V71.2211L37.4306 71.4865C37.4306 71.5119 37.4306 71.4865 37.4306 71.5003H37.4491L37.5921 71.5557L37.8968 71.6596C38.1068 71.7265 38.3214 71.7934 38.5383 71.8557L41.2014 72.6103C42.3005 72.8943 43.4145 73.1169 44.5383 73.2773C44.8452 73.3257 45.1521 73.3742 45.4614 73.4134C45.6137 73.4342 45.7637 73.4504 45.9091 73.4642C46.0334 73.4763 46.1586 73.4763 46.2829 73.4642C46.3737 73.4567 46.4626 73.4341 46.546 73.3973C46.5958 73.3627 46.6324 73.3123 46.6498 73.2542C46.6925 73.1425 46.7227 73.0264 46.7398 72.908L46.7837 72.6957L46.8137 72.5711C46.8344 72.4857 46.8598 72.398 46.8898 72.3057L46.9152 72.2365C46.9152 72.2134 46.9406 72.1857 46.9152 72.1857L46.786 72.1465L46.5068 72.0727C46.3152 72.038 46.126 71.9965 45.9368 71.9527C44.7829 71.6965 43.6291 71.4057 42.4891 71.1657C41.5937 70.9788 40.696 70.8842 39.7937 70.688C39.5952 70.6465 39.3944 70.6165 39.1937 70.5588C38.9142 70.499 38.6541 70.3705 38.4368 70.185C38.3693 70.1089 38.3199 70.0185 38.2923 69.9205C38.2647 69.8226 38.2597 69.7197 38.2775 69.6196C38.2811 69.5175 38.2958 69.4161 38.3214 69.3173C38.3491 69.2429 38.3931 69.1757 38.4502 69.1206C38.5073 69.0654 38.5761 69.0238 38.6514 68.9988C38.8471 68.9244 39.0596 68.906 39.2652 68.9457C40.0106 69.0634 40.8137 69.1765 41.6121 69.345C42.4106 69.5134 43.2275 69.6934 44.0491 69.8804L45.8791 70.3119L46.3406 70.4204L46.5714 70.4734L46.8021 70.545L46.996 70.6004C47.0675 70.6188 47.1437 70.6396 47.2129 70.665L47.4229 70.7365C47.4914 70.7551 47.5568 70.7838 47.6168 70.8219L47.6998 70.8796L47.7921 70.9188C47.8291 70.9188 47.8383 70.9603 47.8521 70.988L47.8937 71.0734L48.0344 71.3573L47.9998 71.3827Z" fill="#231F20"/>
<path id="Vector_67" d="M80.2664 69.1584L80.121 69.3615C80.1025 69.3869 80.091 69.4146 80.0725 69.44L79.8764 69.7007C79.8473 69.7395 79.8211 69.7804 79.7979 69.823C79.7745 69.8811 79.7373 69.9326 79.6895 69.973C79.6571 69.9961 79.5233 69.8415 79.5579 69.7838C79.6188 69.6787 79.6907 69.5805 79.7725 69.4907C79.82 69.4318 79.8602 69.3676 79.8925 69.2992L80.0264 69.0869L80.1118 68.9553C80.151 68.8884 80.1971 68.8238 80.2364 68.7546C80.2756 68.6853 80.2825 68.6415 80.3056 68.5838C80.31 68.5711 80.3154 68.5587 80.3218 68.5469C80.3471 68.503 80.3725 68.5007 80.4302 68.5284L80.4695 68.5469C80.489 68.556 80.5054 68.5708 80.5165 68.5893C80.5276 68.6078 80.5329 68.6292 80.5318 68.6507C80.5103 68.7586 80.4679 68.8613 80.4071 68.953C80.3656 69.0223 80.3171 69.0915 80.2733 69.1607L80.2664 69.1584Z" fill="#231F20"/>
<path id="Vector_68" d="M80.564 69.4397L80.4556 69.562L80.4187 69.6105C80.3725 69.6635 80.3264 69.7189 80.2825 69.7743C80.2642 69.7999 80.248 69.8269 80.234 69.8551C80.22 69.8926 80.1989 69.9271 80.1717 69.9566C80.1533 69.9728 80.0564 69.8851 80.0771 69.8412C80.1154 69.7655 80.1652 69.6962 80.2248 69.6359C80.2583 69.5972 80.2891 69.5564 80.3171 69.5136L80.4233 69.382L80.4902 69.3012C80.5225 69.2597 80.5571 69.2205 80.5871 69.1789C80.6171 69.1374 80.624 69.1074 80.6425 69.0705C80.6416 69.0628 80.6416 69.0551 80.6425 69.0474C80.661 69.0197 80.6748 69.0174 80.7117 69.0359L80.7394 69.0497C80.7518 69.0553 80.7619 69.065 80.7678 69.0773C80.7737 69.0895 80.7751 69.1035 80.7717 69.1166C80.749 69.1879 80.7121 69.2538 80.6633 69.3105L80.5571 69.4397H80.564Z" fill="#231F20"/>
<path id="Vector_69" d="M88.8693 67.0167C88.8369 67.049 88.8023 67.0814 88.77 67.1183C88.7377 67.1552 88.7539 67.1483 88.7423 67.1621C88.7308 67.176 88.65 67.2544 88.6085 67.3029C88.5902 67.3247 88.5761 67.3498 88.5669 67.3767C88.5508 67.4114 88.5485 67.4552 88.5023 67.469C88.4562 67.4829 88.2716 67.3052 88.2854 67.2729C88.3189 67.2066 88.37 67.1507 88.4331 67.1114C88.4746 67.086 88.4885 67.0398 88.5162 67.0029C88.5439 66.966 88.5831 66.9221 88.62 66.8829L88.6846 66.8137C88.7169 66.7744 88.7562 66.7444 88.7862 66.7075C88.8162 66.6706 88.8254 66.6383 88.8485 66.6083C88.8525 66.6004 88.858 66.5934 88.8646 66.5875C88.8877 66.5667 88.9085 66.5737 88.9523 66.6152L88.9823 66.6452C89.0087 66.6708 89.0243 66.7054 89.0262 66.7421C89.0222 66.8063 88.9997 66.868 88.9616 66.9198C88.9352 66.9553 88.9066 66.9892 88.8762 67.0214L88.8693 67.0167Z" fill="#231F20"/>
<path id="Vector_70" d="M89.2177 67.1042L89.1254 67.2034C89.1174 67.2179 89.1073 67.2312 89.0954 67.2426L88.9661 67.3649C88.9482 67.3831 88.9333 67.4042 88.9223 67.4273C88.9061 67.4549 88.8946 67.4896 88.86 67.5057C88.8254 67.5219 88.7215 67.4019 88.74 67.3673C88.7705 67.3064 88.8147 67.2534 88.8692 67.2126C88.8983 67.1832 88.9232 67.1498 88.9431 67.1134C88.9731 67.0788 89.0054 67.0465 89.0377 67.0119L89.0931 66.9496C89.1219 66.9181 89.1489 66.885 89.1738 66.8503C89.19 66.8226 89.1992 66.788 89.213 66.758V66.7373C89.2269 66.7165 89.2431 66.7165 89.2823 66.7373L89.31 66.7534C89.3229 66.7595 89.334 66.7689 89.3421 66.7806C89.3502 66.7924 89.355 66.8061 89.3561 66.8203C89.3506 66.8831 89.3291 66.9435 89.2938 66.9957C89.2684 67.0349 89.2407 67.0696 89.213 67.1065L89.2177 67.1042Z" fill="#231F20"/>
<path id="Vector_71" d="M32.6192 43.7737C33.4016 43.5429 34.1885 43.3122 34.9754 43.0999L35.8339 42.8529C36.8423 42.5737 37.8508 42.2922 38.8339 41.9483C39.2746 41.8029 39.7039 41.6206 40.1308 41.4476L40.9339 41.0737C41.1992 40.9422 41.46 40.8037 41.73 40.6791C41.8962 40.6006 41.8962 40.6491 41.7785 40.7622C41.5848 40.9443 41.3674 41.0995 41.1323 41.2237C40.0361 41.7661 38.893 42.2079 37.7169 42.5437C37.0246 42.7514 36.2885 42.9752 35.5685 43.1806C34.7792 43.4114 33.9854 43.6214 33.2008 43.8591C32.7162 43.9999 32.2362 44.1568 31.7562 44.3206C31.3962 44.4499 31.0339 44.5722 30.6762 44.706C30.3185 44.8399 29.9631 44.9783 29.6192 45.1376C29.3516 45.2599 29.0862 45.3822 28.8254 45.5114L28.0592 45.9245C27.9462 45.9822 27.8423 46.0514 27.7292 46.116C27.3185 46.3606 27.1777 46.4206 27.0531 46.4137C27.0255 46.4174 26.9976 46.4174 26.97 46.4137C26.9031 46.3952 27.0508 46.2591 27.3462 46.0629C27.7961 45.7665 28.263 45.4968 28.7446 45.2552C29.2431 45.0245 29.7462 44.7937 30.2677 44.5906C31.0339 44.2814 31.8231 44.0276 32.61 43.776L32.6192 43.7737Z" fill="#231F20"/>
<path id="Vector_72" d="M54.1544 63.6706L53.9236 63.846C53.8959 63.869 53.8728 63.8967 53.8428 63.9175L53.5405 64.1483C53.4967 64.1829 53.4551 64.2198 53.4136 64.259C53.3663 64.3141 53.3081 64.3589 53.2428 64.3906C53.199 64.4067 53.1274 64.2175 53.1851 64.1598C53.2913 64.0649 53.4047 63.9785 53.5244 63.9013C53.596 63.8493 53.6631 63.7914 53.7251 63.7283L53.9559 63.539L54.099 63.4236C54.1705 63.3659 54.249 63.3129 54.3297 63.2552C54.4105 63.1975 54.4336 63.1583 54.4913 63.1144L54.5282 63.0844C54.5767 63.0521 54.5997 63.0544 54.6367 63.0844L54.6597 63.1075C54.6718 63.1217 54.6784 63.1397 54.6784 63.1583C54.6784 63.1769 54.6718 63.1948 54.6597 63.209C54.5832 63.3099 54.4957 63.4019 54.399 63.4836C54.3274 63.5459 54.2536 63.6083 54.1682 63.6683L54.1544 63.6706Z" fill="#231F20"/>
<path id="Vector_73" d="M55.1193 63.9797C55.0016 64.0674 54.8885 64.1574 54.7662 64.2497C54.7246 64.2843 54.6877 64.3235 54.6462 64.3581C54.4983 64.4786 54.3574 64.6073 54.2239 64.7435C54.1662 64.8049 54.1123 64.8696 54.0623 64.9374C54.0053 65.0283 53.9412 65.1148 53.8708 65.1958C53.8223 65.2443 53.7231 65.0804 53.7923 64.9651C53.9213 64.7728 54.0767 64.5995 54.2539 64.4504C54.3577 64.3604 54.4523 64.2543 54.5562 64.162C54.66 64.0697 54.7869 63.9612 54.9069 63.8666L55.1377 63.6958C55.2485 63.6081 55.3685 63.5251 55.4746 63.4374C55.5808 63.3497 55.6339 63.2897 55.7054 63.2181C55.7239 63.202 55.74 63.1835 55.7585 63.1697C55.8254 63.112 55.8577 63.1074 55.9108 63.1443L55.9454 63.1697C55.98 63.202 55.9754 63.2551 55.9316 63.3058C55.7966 63.4524 55.6483 63.5861 55.4885 63.7051L55.1331 63.9797H55.1193Z" fill="#231F20"/>
<path id="Vector_74" d="M69.8744 25.5405C70.7957 25.8235 71.7703 25.8873 72.7206 25.7271C73.6709 25.5668 74.5707 25.1869 75.3483 24.6174C76.8944 23.4221 77.0006 20.7936 75.0413 19.8451C73.2483 18.9751 71.7275 21.149 72.3898 22.7574C72.999 24.2298 74.799 24.6567 76.2344 24.4628C77.2701 24.3447 78.2374 23.8864 78.9848 23.1599C79.7323 22.4333 80.2177 21.4794 80.3652 20.4474C80.4206 20.1221 79.3867 20.3021 79.3359 20.6021C79.0752 22.1436 78.1821 23.7013 76.5044 23.969C75.219 24.1744 73.6844 23.5328 73.329 22.1944C73.2102 21.7602 73.2287 21.2999 73.3821 20.8767C73.6867 20.0574 74.439 20.3713 74.8729 20.9344C75.3806 21.599 75.6898 22.4944 75.4175 23.3159C74.8013 25.1621 72.3529 25.6051 70.7121 25.0859C70.4398 25.0005 69.5075 25.4228 69.8744 25.5474V25.5405Z" fill="#231F20"/>
<path id="Vector_75" d="M44.8686 23.6367C43.8186 23.9897 43.2325 23.4059 43.184 22.3559C43.1669 21.8851 43.239 21.4153 43.3963 20.9713C43.46 20.7949 43.5372 20.6236 43.6271 20.459C43.6455 20.422 43.7471 20.3274 43.7494 20.2859C43.7494 20.0713 43.7678 20.4428 43.6317 20.2582C43.4955 20.0736 43.6594 20.3713 43.6525 20.3505C43.7033 20.4387 43.762 20.5221 43.8278 20.5997C43.8868 20.67 43.9313 20.7512 43.9586 20.8388C43.986 20.9263 43.9956 21.0184 43.9871 21.1097C43.8948 21.4536 43.4678 21.5343 43.1655 21.5713C41.9794 21.6728 41.3425 20.8443 41.7463 19.7251C41.8709 19.3859 40.8971 19.4943 40.7748 19.8405C40.2994 21.1467 41.1117 22.0374 42.4225 22.132C43.2163 22.1897 44.8963 21.9405 44.9609 20.8836C45.0301 19.882 43.8809 19.4228 43.1425 19.9467C42.3509 20.5097 42.1248 21.8159 42.2194 22.7159C42.3601 24.2597 43.6871 24.5874 45.0048 24.1467C45.5701 23.9574 45.4478 23.4382 44.8663 23.632L44.8686 23.6367Z" fill="#231F20"/>
</g>
</g>
</svg>
