<svg width="120" height="120" viewBox="0 0 120 120" fill="none" xmlns="http://www.w3.org/2000/svg">
<g id="150.Cubes">
<g id="150.Cubes_2">
<path id="Vector" d="M38.5615 48.0835L39.3346 47.3381C39.5212 47.1515 39.7361 46.9957 39.9715 46.8765L40.4931 46.6111L39.8008 46.0181L38.6331 47.225L38.5615 48.0835Z" fill="#231F20"/>
<path id="Vector_2" d="M50.1692 67.6848C46.5023 66.8264 47.4392 59.0541 47.4392 59.0541L49.1769 58.521C49.1769 58.521 47.8546 62.9056 48.6392 64.6341C49.4238 66.3625 50.1692 67.6848 50.1692 67.6848Z" fill="#231F20"/>
<path id="Vector_3" d="M37.5161 51.1365C37.5853 50.7557 37.6476 50.3703 37.7076 49.9826C37.7284 49.8418 37.7307 49.6988 37.7561 49.5557C37.8368 49.0549 37.9453 48.5542 38.0676 48.058C38.1199 47.8349 38.173 47.6134 38.2268 47.3934C38.2846 47.1017 38.3974 46.8237 38.5591 46.5742C38.6122 46.498 38.693 46.558 38.7507 46.6688C38.8185 46.7952 38.8382 46.942 38.8061 47.0818C38.6537 47.6034 38.5753 48.1549 38.4391 48.718C38.38 49.0663 38.34 49.4176 38.3191 49.7703C38.2776 50.1603 38.2361 50.5526 38.1853 50.9449C38.1576 51.1872 38.1207 51.4318 38.0861 51.6742C38.028 52.0471 37.951 52.4168 37.8553 52.7818C37.8011 53.0911 37.69 53.3877 37.5276 53.6565C37.4872 53.7233 37.4384 53.7845 37.3822 53.8388C37.1514 54.0418 37.0176 54.0234 36.9207 53.8849C36.8941 53.8548 36.8701 53.8223 36.8491 53.788C36.8224 53.7304 36.8143 53.6658 36.8261 53.6034C36.8395 53.5463 36.8621 53.4917 36.893 53.4418C36.9907 53.2781 37.0638 53.1008 37.1099 52.9157C37.184 52.697 37.2456 52.4744 37.2945 52.2488C37.3753 51.8934 37.4514 51.5172 37.5091 51.1342L37.5161 51.1365Z" fill="#231F20"/>
<path id="Vector_4" d="M33.1154 44.94C33.4244 44.3094 33.7832 43.7044 34.1885 43.1308C34.5808 42.5608 34.9939 42.0162 35.4208 41.4716L35.8823 40.8831L36.3669 40.3085C36.96 39.6485 37.5785 39.0185 38.2131 38.4069C38.8477 37.7954 39.5216 37.2231 40.2093 36.6669C40.8277 36.1869 41.4508 35.7046 42.1016 35.2823C42.5193 35.0054 42.9439 34.7331 43.3893 34.4977C43.6134 34.379 43.8446 34.2742 44.0816 34.1839C44.3145 34.0865 44.5535 34.004 44.7969 33.9369C45.0993 33.8469 45.0877 33.9577 44.8823 34.1562C44.7479 34.284 44.6045 34.402 44.4531 34.5093C44.2537 34.6667 44.0432 34.8094 43.8231 34.9362C42.9586 35.417 42.1316 35.9624 41.3493 36.5677C40.56 37.1769 39.78 37.8046 39.0231 38.4739C38.112 39.304 37.2636 40.2002 36.4846 41.1554C36.2539 41.4139 36.0554 41.6816 35.8408 41.9446C35.6262 42.2077 35.4277 42.48 35.2269 42.7592C34.8235 43.3021 34.4491 43.866 34.1054 44.4485C33.6832 45.1553 33.3719 45.9227 33.1823 46.7239C32.886 47.9609 32.6549 49.2126 32.49 50.4739C32.3631 51.45 32.2916 52.4123 32.2039 53.3839C32.1831 53.5985 32.1716 53.8085 32.1393 54.0231C32.0285 54.8193 31.9477 55.0662 31.7816 55.2185C31.7475 55.2561 31.7096 55.2902 31.6685 55.32C31.5531 55.3823 31.5 55.0454 31.5139 54.4569C31.5139 53.5823 31.6085 52.6916 31.6939 51.7846C31.7793 50.8777 31.9016 49.9593 32.0423 49.0385C32.1485 48.3462 32.2731 47.6723 32.4208 46.9916C32.497 46.6523 32.5708 46.3108 32.6839 45.9554C32.7933 45.6095 32.9252 45.2711 33.0785 44.9423L33.1154 44.94Z" fill="#231F20"/>
<path id="Vector_5" d="M41.5385 49.9133C41.4843 49.5594 41.4073 49.2095 41.3077 48.8656C41.2685 48.7387 41.2177 48.6164 41.1715 48.4895C41.0249 48.0374 40.8428 47.5975 40.6269 47.1741C40.5258 46.9881 40.4133 46.8085 40.29 46.6364C40.1235 46.4255 39.9694 46.2051 39.8285 45.9764C39.7892 45.9002 39.8746 45.8402 40.0038 45.8287C40.0787 45.8204 40.1544 45.8294 40.2253 45.855C40.2961 45.8806 40.3601 45.9221 40.4123 45.9764C40.7914 46.4135 41.1026 46.9052 41.3354 47.4348C41.4692 47.7556 41.6585 48.0625 41.7969 48.3902C41.9503 48.7523 42.07 49.1277 42.1546 49.5118C42.18 49.6295 42.21 49.7425 42.2308 49.8672L42.2838 50.2272C42.3138 50.4095 42.3092 50.5987 42.3231 50.781C42.3369 50.9633 42.3231 51.1548 42.3231 51.3395C42.3069 51.4848 42.3 51.6279 42.2954 51.7756C42.2786 51.9229 42.2509 52.0687 42.2123 52.2118C42.2026 52.2766 42.1831 52.3396 42.1546 52.3987C42.0461 52.6295 41.9654 52.671 41.7923 52.6295C41.7532 52.6211 41.7147 52.6103 41.6769 52.5972C41.6164 52.5669 41.5677 52.5174 41.5384 52.4564C41.5092 52.3954 41.5011 52.3264 41.5154 52.2602C41.5615 52.0456 41.55 51.8195 41.5823 51.6118C41.5823 51.5033 41.6008 51.3948 41.6169 51.2887V50.9541C41.6169 50.7879 41.6008 50.6148 41.6008 50.4441C41.6008 50.2733 41.5615 50.0979 41.5292 49.9225L41.5385 49.9133Z" fill="#231F20"/>
<path id="Vector_6" d="M57.5745 57.4341C57.5745 57.4341 57.9553 71.4095 57.2722 71.9356C56.5891 72.4618 55.3291 72.6164 55.3291 72.6164C55.3291 72.6164 57.436 67.7702 56.896 63.6279C56.4922 60.5379 55.5899 60.5356 55.5899 60.5356L57.5745 57.4341Z" fill="#231F20"/>
<path id="Vector_7" d="M49.3151 80.0216C49.2805 80.1393 49.4997 80.1716 49.8851 80.1462C53.3974 79.9016 56.0582 82.4308 56.252 85.9478C56.4343 89.2732 55.0982 93.3555 55.0982 93.3555L57.6366 91.6732L57.8374 76.4424L49.3151 80.0216Z" fill="#231F20"/>
<path id="Vector_8" d="M90.7339 47.1256C90.7339 47.1256 96.6508 43.9548 96.457 33.5679L102.658 38.6171C102.658 38.6171 101.003 39.1156 100.71 41.5456C100.417 43.9756 101.003 45.6117 99.7385 47.1256C98.4739 48.6394 96.0462 48.1525 95.9493 49.8048C95.8523 51.4571 94.59 50.7879 94.59 50.7879L90.7339 47.1256Z" fill="#231F20"/>
<path id="Vector_9" d="M43.5162 34.4399C39.5446 36.1153 36.9946 39.5353 36.9946 39.5353L37.3546 39.7084L43.5162 34.4399Z" fill="#231F20"/>
<path id="Vector_10" d="M46.8462 51.5842L47.8362 51.8842C47.9562 51.9211 48.0808 51.9465 48.2008 51.9834L49.4769 52.3711L50.0446 52.528C50.2897 52.5872 50.5315 52.6588 50.7693 52.7426C50.8431 52.7703 50.8223 52.8188 50.7485 52.8557C50.638 52.903 50.5164 52.9182 50.3977 52.8995C50.1462 52.8534 49.89 52.8211 49.6385 52.7703C49.387 52.7195 49.1423 52.6295 48.8954 52.5395C48.6023 52.4403 48.2839 52.3826 47.9723 52.3088L46.9639 52.0365L46.3431 51.868C46.0293 51.7826 45.7154 51.6926 45.4016 51.6234C45.1593 51.568 44.9123 51.5403 44.6677 51.4988C44.6134 51.4939 44.5594 51.4854 44.5062 51.4734C44.3077 51.4272 44.2523 51.3834 44.2385 51.2634C44.235 51.2366 44.235 51.2094 44.2385 51.1826C44.2385 51.0949 44.3377 51.0465 44.49 51.0534C44.9477 51.0921 45.4005 51.1748 45.8423 51.3003C46.1793 51.3857 46.5139 51.4826 46.8485 51.5749L46.8462 51.5842Z" fill="#231F20"/>
<path id="Vector_11" d="M34.4305 95.7973C31.0313 95.8919 22.3775 94.9158 21.8375 93.4435C21.3967 92.2411 26.7182 91.7427 26.7182 91.7427L26.8636 93.4435L34.4305 95.7973Z" fill="#231F20"/>
<path id="Vector_12" d="M35.2108 96.1546C34.2462 95.8884 33.2846 95.6046 32.3262 95.303C31.9777 95.1899 31.6223 95.1046 31.2785 94.9799C30.0417 94.5778 28.8418 94.0698 27.6923 93.4615L27.5031 93.3553L27.4062 93.3046C27.3623 93.2782 27.322 93.2464 27.2862 93.2099C27.1651 93.0847 27.0764 92.9318 27.0277 92.7646C26.9377 92.4799 26.8819 92.1855 26.8616 91.8876C26.8167 91.16 26.8098 90.4306 26.8408 89.7022C26.8408 89.4899 26.9031 89.4969 27.0069 89.6815C27.1452 89.9845 27.2296 90.3094 27.2562 90.6415C27.2885 91.0107 27.3208 91.3753 27.3716 91.7284C27.4065 92.0557 27.4792 92.3779 27.5885 92.6884C27.6075 92.7321 27.6332 92.7726 27.6646 92.8084L27.6946 92.8222L27.8123 92.8846L28.2877 93.1361C28.62 93.2838 28.9408 93.4522 29.2823 93.5976C30.117 93.945 30.9706 94.2448 31.8393 94.4953C32.7946 94.7907 33.7546 95.0769 34.7216 95.3376C35.3169 95.4992 35.9123 95.6584 36.5123 95.7992C37.4193 96.0299 38.3308 96.2607 39.24 96.4384C39.9462 96.5838 40.6477 96.6692 41.3492 96.803C41.5039 96.8284 41.6539 96.8492 41.8108 96.8792C42.3854 96.9876 42.5631 97.0522 42.6669 97.2022C42.6938 97.2325 42.7171 97.2658 42.7362 97.3015C42.7754 97.4053 42.5262 97.4492 42.0923 97.4215C41.4508 97.3707 40.7908 97.313 40.1308 97.2069C39.4708 97.1007 38.8062 96.9761 38.1393 96.8492C37.1493 96.6553 36.1662 96.4107 35.19 96.1569L35.2108 96.1546Z" fill="#231F20"/>
<path id="Vector_13" d="M32.1482 55.1081C32.0728 55.0906 32.001 55.0601 31.9359 55.0181C31.9175 55.0181 31.9359 54.9881 31.9521 54.9927L32.0998 55.0157C32.1298 55.0157 32.6052 55.1265 32.7667 55.1519L33.2282 55.2419C33.5467 55.3042 33.8652 55.3596 34.1859 55.4081C34.2575 55.4196 34.329 55.4334 34.3982 55.4496C34.6389 55.5046 34.8823 55.5469 35.1275 55.5765C35.1682 55.58 35.2091 55.58 35.2498 55.5765C35.3167 55.5765 35.979 55.6573 36.0644 55.6781C36.2744 55.7219 36.4867 55.7565 36.7013 55.7911C36.7321 55.7926 36.7624 55.7988 36.7913 55.8096C36.8541 55.8306 36.9192 55.8438 36.9852 55.8488L37.2598 55.8927C37.3049 55.901 37.3496 55.9118 37.3936 55.925C37.4352 55.9365 37.4121 55.9573 37.3936 55.9596C37.3752 55.9619 37.3936 55.9804 37.3936 55.9896C37.3936 55.9988 37.3936 55.9896 37.3936 56.0011H37.3059L37.1121 56.0127C37.0053 56.0192 36.8981 56.0192 36.7913 56.0127L36.3759 55.9827L35.9144 55.9434C35.8677 55.9383 35.8214 55.9299 35.7759 55.9181L35.109 55.8304C34.9803 55.8125 34.8531 55.7855 34.7282 55.7496C34.7042 55.7418 34.6795 55.7364 34.6544 55.7334C34.4236 55.6965 34.2159 55.6434 34.0013 55.5904L33.669 55.5119L33.609 55.4957L33.5352 55.475C33.2721 55.4104 33.0136 55.3388 32.7528 55.2719L32.3421 55.1473C32.3075 55.1657 32.1829 55.115 32.1482 55.1081Z" fill="#231F20"/>
<path id="Vector_14" d="M34.2393 54.2101C34.1751 54.1975 34.1154 54.168 34.0663 54.1247C34.0501 54.1247 34.0663 54.0901 34.0824 54.0924L34.207 54.1086C34.2324 54.1086 34.627 54.2032 34.7632 54.2193L35.1555 54.2862L35.9563 54.4062L36.134 54.4339C36.337 54.4732 36.5424 54.5009 36.7478 54.5216C36.7824 54.5239 36.8171 54.5239 36.8516 54.5216C36.907 54.5216 37.4655 54.5816 37.544 54.5932L38.077 54.6924C38.103 54.6942 38.1287 54.6996 38.1532 54.7086C38.2045 54.73 38.2592 54.7425 38.3147 54.7455L38.5455 54.7893C38.5832 54.8 38.6202 54.8131 38.6563 54.8285C38.6886 54.8285 38.6563 54.8655 38.6563 54.8655C38.6563 54.8655 38.6563 54.8862 38.6563 54.8978V54.9093H38.5824H38.4232L38.1578 54.8955L37.8163 54.8562L37.4263 54.817C37.3882 54.8131 37.3505 54.8069 37.3132 54.7986L36.7547 54.7409C36.6475 54.7301 36.5411 54.7124 36.4363 54.6878H36.3716C36.187 54.6647 36.0047 54.6324 35.8201 54.6001L35.5386 54.5539H35.4901L35.4255 54.5378C35.1947 54.4962 34.9847 54.4432 34.7655 54.3947C34.7147 54.3947 34.477 54.3093 34.4193 54.2932C34.3616 54.277 34.267 54.2147 34.2393 54.2101Z" fill="#231F20"/>
<path id="Vector_15" d="M37.3039 53.2869C37.277 53.2897 37.2499 53.2861 37.2246 53.2765C37.1994 53.2669 37.1767 53.2515 37.1585 53.2316C37.1447 53.2316 37.1585 53.1831 37.1585 53.1785L37.2554 53.1531C37.2762 53.1531 37.597 53.1346 37.717 53.1346C37.8227 53.1327 37.9284 53.1388 38.0331 53.1531C38.2454 53.1808 38.4577 53.2085 38.6677 53.2454C38.7145 53.2535 38.7607 53.2643 38.8062 53.2777C38.9631 53.3239 39.1223 53.3562 39.2816 53.3862C39.3076 53.3896 39.334 53.3896 39.36 53.3862C39.5375 53.4084 39.7132 53.4423 39.8862 53.4877L40.2877 53.6193C40.3084 53.6213 40.3282 53.6284 40.3454 53.64C40.3809 53.6657 40.4221 53.6823 40.4654 53.6885C40.5254 53.7023 40.5831 53.7185 40.6408 53.7369C40.6691 53.7488 40.6962 53.7635 40.7216 53.7808C40.7447 53.7969 40.7216 53.8293 40.7216 53.8316C40.7216 53.8339 40.7216 53.8569 40.7216 53.8731C40.7216 53.8893 40.7216 53.8731 40.7216 53.8869C40.5894 53.8961 40.4568 53.8961 40.3247 53.8869L39.7593 53.7877C39.7294 53.7817 39.7001 53.7732 39.6716 53.7623L39.2446 53.6793C39.1659 53.6627 39.0887 53.6396 39.0139 53.61C38.9988 53.6023 38.9823 53.5976 38.9654 53.5962C38.8247 53.5685 38.6862 53.5316 38.5477 53.4993C38.4762 53.4808 38.4047 53.4716 38.3331 53.4577L38.2939 53.4462H38.2454C38.077 53.4185 37.9062 53.3862 37.7354 53.37C37.6962 53.37 37.5047 53.3239 37.4654 53.3239C37.4127 53.3071 37.3587 53.2947 37.3039 53.2869Z" fill="#231F20"/>
<path id="Vector_16" d="M40.2531 52.3018C40.1931 52.3018 40.1492 52.2718 40.1123 52.2072C40.1123 52.1865 40.1123 52.1334 40.1285 52.1265C40.1633 52.1158 40.1987 52.1073 40.2346 52.1011C40.2554 52.1011 40.5854 52.1172 40.6962 52.1288C40.8041 52.1368 40.9114 52.153 41.0169 52.1772C41.2338 52.2211 41.4485 52.2672 41.6608 52.318C41.708 52.328 41.7543 52.3419 41.7992 52.3595C41.9558 52.4161 42.1162 52.4616 42.2792 52.4957C42.3051 52.5051 42.3325 52.5098 42.36 52.5095C42.5402 52.5424 42.7182 52.5864 42.8931 52.6411C43.0269 52.6942 43.1631 52.7403 43.2992 52.7865C43.32 52.7865 43.3408 52.7865 43.3569 52.8095C43.3924 52.8375 43.4345 52.8558 43.4792 52.8626C43.5392 52.8811 43.5992 52.8972 43.6569 52.918C43.6863 52.931 43.7142 52.9473 43.74 52.9665C43.7654 52.9803 43.74 53.0126 43.74 53.0149C43.74 53.0172 43.7285 53.0426 43.7285 53.0565V53.0772C43.6639 53.0812 43.5992 53.0812 43.5346 53.0772C43.4624 53.0827 43.3899 53.0827 43.3177 53.0772L42.7315 52.9734C42.7008 52.9666 42.6707 52.9573 42.6415 52.9457L42.2008 52.8557C42.1157 52.8396 42.0334 52.8116 41.9561 52.7726C41.9405 52.7638 41.9232 52.7583 41.9054 52.7565C41.7623 52.7195 41.6238 52.6734 41.4808 52.6295C41.4092 52.6065 41.3354 52.5926 41.2638 52.5742L41.2246 52.558C41.2092 52.5505 41.1929 52.5451 41.1761 52.5418C41.0031 52.5026 40.8323 52.4495 40.6569 52.4241C40.6177 52.4241 40.4261 52.3549 40.3846 52.3503C40.3431 52.3457 40.2761 52.2972 40.2531 52.3018Z" fill="#231F20"/>
<path id="Vector_17" d="M43.5692 51.75C43.53 51.7639 43.5046 51.727 43.4792 51.66C43.4692 51.6293 43.4692 51.5962 43.4792 51.5654C43.5012 51.5486 43.5252 51.5346 43.5508 51.5239C43.6535 51.5131 43.7567 51.5085 43.86 51.51C43.9314 51.5096 44.0026 51.5173 44.0723 51.5331C44.2154 51.5608 44.3561 51.5908 44.4946 51.6277C44.525 51.6351 44.5544 51.6459 44.5823 51.66C44.6796 51.708 44.7828 51.7429 44.8892 51.7639C44.9064 51.7699 44.9251 51.7699 44.9423 51.7639C45.0585 51.7817 45.1729 51.8103 45.2838 51.8493C45.3646 51.8954 45.45 51.9277 45.5331 51.9693C45.5446 51.9693 45.5608 51.9693 45.5677 51.99C45.5746 52.0108 45.6161 52.0293 45.6438 52.0385C45.6815 52.0511 45.7185 52.0658 45.7546 52.0824C45.7729 52.0953 45.7892 52.1109 45.8031 52.1285C45.8192 52.1424 45.8031 52.1839 45.8031 52.1862C45.8031 52.1885 45.7915 52.2185 45.7915 52.237C45.7915 52.2554 45.7915 52.2508 45.7915 52.2554C45.7007 52.277 45.6079 52.2894 45.5146 52.2924C45.5146 52.2924 45.1684 52.237 45.1315 52.2277C45.1117 52.2227 45.0929 52.2141 45.0761 52.2024L44.7923 52.1539C44.7375 52.1422 44.6857 52.1194 44.64 52.087C44.6293 52.0847 44.6183 52.0847 44.6077 52.087C44.5177 52.0639 44.43 52.027 44.34 51.9947C44.2961 51.9785 44.2477 51.9716 44.2038 51.9577C44.16 51.9439 44.1877 51.9577 44.1784 51.9462H44.1484C44.0417 51.9128 43.9319 51.8896 43.8208 51.877C43.765 51.8563 43.708 51.8393 43.65 51.8262C43.6338 51.7939 43.5854 51.7431 43.5692 51.75Z" fill="#231F20"/>
<path id="Vector_18" d="M36.8145 53.7372C36.7852 53.7389 36.756 53.7313 36.7312 53.7156C36.7064 53.6999 36.6871 53.6768 36.6761 53.6495C36.6645 53.6311 36.6761 53.5803 36.6922 53.5757L36.7938 53.5503C36.8145 53.5503 37.1399 53.5688 37.2553 53.5757C37.3613 53.5838 37.4669 53.5977 37.5714 53.6172L38.2061 53.7257C38.2522 53.7349 38.2984 53.7464 38.3445 53.7603C38.5009 53.8052 38.6607 53.8376 38.8222 53.8572C38.8489 53.862 38.8763 53.862 38.903 53.8572C39.0821 53.87 39.2602 53.8946 39.4361 53.9311C39.5722 53.968 39.7107 53.9957 39.8491 54.0234C39.869 54.0244 39.8886 54.0291 39.9068 54.0372C39.9454 54.0596 39.9891 54.0715 40.0337 54.0718C40.0937 54.0718 40.1537 54.0834 40.2137 54.0949C40.2445 54.102 40.2741 54.1137 40.3014 54.1295C40.3291 54.1411 40.3153 54.1803 40.3014 54.1826C40.2876 54.1849 40.3014 54.2149 40.3014 54.2311C40.3014 54.2472 40.3014 54.2426 40.3014 54.2472C40.1695 54.2787 40.0352 54.2995 39.8999 54.3095H39.623L39.3091 54.2911C39.2777 54.2877 39.2467 54.2807 39.2168 54.2703C39.203 54.2703 38.7876 54.2241 38.7738 54.2172C38.6883 54.2063 38.6045 54.1846 38.5245 54.1526C38.5082 54.1466 38.4911 54.1427 38.4738 54.1411C38.3284 54.1157 38.1876 54.0764 38.0445 54.0418C37.973 54.0234 37.8991 54.0095 37.8138 53.9957C37.8003 53.9921 37.7872 53.9875 37.7745 53.9818L37.7261 53.968C37.553 53.9334 37.3822 53.8872 37.2091 53.8641C37.1676 53.8641 36.9784 53.7995 36.9368 53.7972C36.8953 53.7949 36.8376 53.7349 36.8145 53.7372Z" fill="#231F20"/>
<path id="Vector_19" d="M39.7751 52.8116C39.729 52.8116 39.7036 52.7724 39.6943 52.6939C39.6943 52.6662 39.7128 52.597 39.7266 52.5924C39.7532 52.5789 39.7811 52.5681 39.8097 52.5601C39.8259 52.5601 40.059 52.5808 40.1397 52.5831C40.2176 52.5881 40.2949 52.6004 40.3705 52.6201L40.832 52.7147C40.866 52.7215 40.8992 52.7315 40.9313 52.7447C41.0413 52.7905 41.1569 52.8215 41.2751 52.837C41.2947 52.8428 41.3155 52.8428 41.3351 52.837C41.468 52.8457 41.5992 52.8721 41.7251 52.9154C41.8197 52.9639 41.919 53.0031 42.0159 53.0447C42.0297 53.0447 42.0459 53.0447 42.0551 53.0678C42.0643 53.0908 42.1105 53.1093 42.1428 53.1208C42.1855 53.1348 42.2271 53.1517 42.2674 53.1716C42.2881 53.1868 42.3067 53.2047 42.3228 53.2247C42.339 53.2431 42.3228 53.287 42.309 53.2893C42.2951 53.2916 42.2951 53.3262 42.2928 53.347C42.2905 53.3678 42.2928 53.3608 42.2928 53.3654C42.194 53.3854 42.0936 53.3962 41.9928 53.3978L41.7966 53.3701C41.6974 53.3585 41.5936 53.3447 41.5659 53.3447C41.5437 53.3415 41.5225 53.3336 41.5036 53.3216L41.1828 53.2778C41.1204 53.2703 41.0605 53.249 41.0074 53.2154C40.996 53.2135 40.9843 53.2135 40.9728 53.2154C40.8679 53.194 40.7646 53.1655 40.6636 53.1301C40.6105 53.1139 40.5551 53.1047 40.502 53.0908H40.4766C40.4661 53.0836 40.4544 53.0781 40.442 53.0747C40.3151 53.047 40.1928 53.0008 40.0636 52.9801C40.0336 52.9801 39.9043 52.9039 39.8697 52.8993C39.8351 52.8947 39.7936 52.8093 39.7751 52.8116Z" fill="#231F20"/>
<path id="Vector_20" d="M42.7408 52.02C42.6947 52.02 42.6693 51.9854 42.6531 51.93C42.6521 51.9182 42.6537 51.9063 42.6577 51.8952C42.6617 51.884 42.668 51.8739 42.6762 51.8654C42.7031 51.8632 42.7301 51.8632 42.757 51.8654L43.0823 51.9184C43.1585 51.93 43.2347 51.9484 43.3131 51.9669L43.7747 52.0731C43.8091 52.0809 43.843 52.0909 43.8762 52.1031C43.9896 52.1452 44.1061 52.1784 44.2247 52.2023C44.2445 52.2057 44.2648 52.2057 44.2847 52.2023C44.4174 52.2299 44.5478 52.2677 44.6747 52.3154L44.9677 52.4538C44.9816 52.4538 44.9977 52.4538 45.007 52.4769C45.0305 52.501 45.0599 52.5186 45.0923 52.5277C45.135 52.5461 45.1766 52.5669 45.217 52.59C45.2354 52.6015 45.2516 52.62 45.27 52.6338C45.2885 52.6477 45.27 52.6684 45.2585 52.6684C45.247 52.6684 45.2585 52.6869 45.2447 52.6984C45.2447 52.6984 45.1777 52.6984 45.1085 52.68C45.0393 52.6615 44.9677 52.6615 44.9539 52.6569L44.7623 52.6061L44.5316 52.5577C44.5097 52.5535 44.4886 52.5457 44.4693 52.5346C44.4693 52.5346 44.1623 52.4769 44.1508 52.4746C44.0889 52.4637 44.029 52.4435 43.9731 52.4146C43.9624 52.4087 43.9506 52.4048 43.9385 52.4031C43.8323 52.3777 43.7308 52.3431 43.627 52.3108L43.4677 52.2692C43.458 52.2668 43.4486 52.2629 43.44 52.2577C43.4283 52.2517 43.4159 52.247 43.4031 52.2438C43.2762 52.2115 43.1516 52.1677 43.0247 52.14C42.9947 52.14 42.8608 52.0708 42.8262 52.0615C42.7916 52.0523 42.7593 52.02 42.7408 52.02Z" fill="#231F20"/>
<path id="Vector_21" d="M34.3359 54.7758C34.2924 54.7657 34.2517 54.7462 34.2166 54.7187C34.1816 54.6912 34.1529 54.6563 34.1328 54.6165C34.119 54.5912 34.1443 54.5427 34.172 54.545C34.1997 54.5473 34.2828 54.545 34.3359 54.5635C34.389 54.5819 34.8667 54.7227 35.042 54.7481L35.5405 54.8612C35.882 54.935 36.2328 54.995 36.572 55.0481C36.6482 55.0596 36.7243 55.0735 36.8028 55.0919C37.0649 55.1498 37.3299 55.1937 37.5966 55.2235C37.6411 55.2281 37.686 55.2281 37.7305 55.2235C37.7674 55.2235 37.9613 55.2442 38.169 55.2719C38.3766 55.2996 38.5751 55.3481 38.6305 55.3596C38.8613 55.4288 39.092 55.4819 39.3228 55.5627C39.3571 55.5691 39.3899 55.5816 39.4197 55.5996C39.4825 55.6375 39.5511 55.6648 39.6228 55.6804C39.7197 55.7104 39.8166 55.745 39.9113 55.7842C39.957 55.805 40.0017 55.8281 40.0451 55.8535C40.0843 55.8742 40.0451 55.8927 40.0451 55.8927C40.0451 55.8927 40.029 55.9112 40.0313 55.9227C40.0336 55.9342 40.0313 55.9227 40.0313 55.9365H39.9366L39.729 55.9112C39.579 55.8927 39.4174 55.8812 39.3874 55.8742C39.3574 55.8673 39.1566 55.8465 38.949 55.8073C38.7413 55.7681 38.4874 55.7427 38.4505 55.7404C38.4006 55.7332 38.3512 55.7224 38.3028 55.7081L37.5851 55.6158C37.4461 55.5987 37.3087 55.5701 37.1743 55.5304C37.1471 55.5228 37.1193 55.5174 37.0913 55.5142C36.8605 55.4796 36.6159 55.4312 36.3782 55.3804L36.0136 55.3088L35.949 55.2904L35.8682 55.2673C35.5797 55.2073 35.2959 55.1288 35.0097 55.0527C34.9428 55.0388 34.6428 54.9119 34.5666 54.8888C34.4951 54.8727 34.3843 54.785 34.3359 54.7758Z" fill="#231F20"/>
<path id="Vector_22" d="M44.0932 52.1542C44.2625 52.0885 44.4351 52.0315 44.6101 51.9834C44.6609 51.9834 44.6632 51.9949 44.6101 52.0226C44.5017 52.0711 44.3955 52.1288 44.2825 52.1749C44.2501 52.1888 43.9594 52.3042 43.6248 52.4057C43.2901 52.5072 42.9094 52.6203 42.7178 52.6711C42.3463 52.7726 41.9725 52.858 41.5963 52.9434C40.8353 53.1049 40.0828 53.3044 39.3417 53.5411L38.8478 53.7003C38.2825 53.878 37.7217 54.0742 37.1609 54.2772C37.0686 54.3119 36.9717 54.3442 36.884 54.3834C36.7409 54.4503 35.2155 54.9811 35.0101 55.0342C34.514 55.1865 34.0132 55.3319 33.5078 55.4611C33.4363 55.4796 33.3601 55.5026 33.2932 55.5142C33.1376 55.5433 32.9836 55.5803 32.8317 55.6249C32.6148 55.678 32.3955 55.7311 32.1786 55.7749C32.0701 55.798 31.9617 55.8142 31.8555 55.8326C31.7494 55.8511 31.8071 55.8188 31.8394 55.8096C31.9363 55.7796 31.8532 55.7911 31.8394 55.7842L32.0401 55.7265C32.1578 55.6942 32.3171 55.6503 32.4809 55.5996C32.804 55.5072 33.1409 55.3919 33.2078 55.3688L33.5078 55.2742L34.1494 55.0642C34.6109 54.9072 35.1117 54.7388 35.2109 54.7019C35.3101 54.6649 35.4232 54.6326 35.5294 54.6003L37.0432 54.0603C37.3363 53.9611 37.6271 53.8549 37.9248 53.7696C37.9825 53.7534 38.0425 53.7326 38.1025 53.7119C38.6055 53.5396 39.114 53.3772 39.6278 53.2249C39.8909 53.1488 40.1563 53.0819 40.4217 53.0172L40.5671 52.9872L40.7494 52.948C41.3794 52.8072 42.0117 52.6896 42.6371 52.5396C42.7825 52.5072 43.4678 52.3457 43.6294 52.288C43.7125 52.2742 44.0148 52.1957 44.0932 52.1542Z" fill="#231F20"/>
<path id="Vector_23" d="M42.9348 52.8141C43.0711 52.7388 43.2208 52.6909 43.3756 52.6733C43.4217 52.6733 43.4332 52.708 43.3894 52.7356L43.1263 52.8903C43.0756 52.9272 42.1802 53.3518 41.8663 53.4764C41.5525 53.601 41.264 53.721 40.9571 53.8341C40.3363 54.0649 39.7086 54.2726 39.0763 54.4618C38.9355 54.5056 38.7948 54.5472 38.6517 54.5818C38.1648 54.7087 37.6825 54.8495 37.2025 54.9949C37.1217 55.0203 37.0409 55.0433 36.9717 55.0733C36.8471 55.1218 35.5455 55.5164 35.3771 55.5626C34.9548 55.6756 34.5371 55.7933 34.1171 55.9272C34.0582 55.9474 33.9981 55.9636 33.9371 55.9756C33.8049 56.0004 33.6752 56.0367 33.5494 56.0841C33.3694 56.1418 33.194 56.2041 33.014 56.2572C32.924 56.2849 32.834 56.3056 32.744 56.3287C32.654 56.3518 32.6979 56.3149 32.7232 56.301C32.7994 56.2618 32.7232 56.2756 32.7232 56.271L33.2309 56.0195C33.4917 55.8995 33.7686 55.7887 33.824 55.7587L34.0732 55.6618L34.6132 55.4703L35.5179 55.1726C35.6055 55.1449 35.6979 55.1218 35.7902 55.0987L37.0894 54.6995C37.3409 54.6303 37.5902 54.5472 37.8463 54.4964C37.8971 54.4964 37.9479 54.471 37.9963 54.4572L39.2909 54.0833C39.5217 54.021 39.7271 53.9472 39.9463 53.878L40.0663 53.848L40.2163 53.8041C40.7309 53.6333 41.2479 53.4718 41.7509 53.271C41.8686 53.2295 42.4271 53.0264 42.5586 52.9664C42.6186 52.9272 42.8725 52.8464 42.9348 52.8141Z" fill="#231F20"/>
<path id="Vector_24" d="M39.4728 52.7311C39.6001 52.6708 39.7353 52.6289 39.8743 52.6064C39.9136 52.6064 39.9205 52.6295 39.8743 52.6526C39.7936 52.6964 39.7151 52.7426 39.6297 52.7841C39.6043 52.798 39.3851 52.8949 39.1312 52.9964C38.8774 53.098 38.5936 53.1949 38.4389 53.2457C38.1574 53.3426 37.8736 53.4303 37.5874 53.5111L35.8659 54.0003L35.4828 54.1041C35.0443 54.2218 34.6105 54.3672 34.1812 54.5218C34.1097 54.5495 34.0359 54.5726 33.9689 54.6049C33.8605 54.6557 32.6951 55.0849 32.5405 55.1334C32.1597 55.2534 31.7789 55.3872 31.3866 55.4911C31.332 55.5079 31.2766 55.5218 31.2205 55.5326C31.0995 55.555 30.98 55.585 30.8628 55.6226C30.6966 55.6688 30.5305 55.7103 30.362 55.7495C30.2789 55.768 30.1959 55.7795 30.1128 55.7934C30.0297 55.8072 30.0736 55.7749 30.0989 55.7657C30.1705 55.738 30.0989 55.7426 30.0989 55.7357L30.2489 55.6849L30.5836 55.5695C30.8282 55.4818 31.082 55.3826 31.1328 55.3664L31.8482 55.108L32.6582 54.8103C32.7366 54.7803 32.8197 54.7549 32.9028 54.7272L34.0566 54.298C34.2874 54.2218 34.5066 54.1364 34.7489 54.0672L34.8851 54.0257C35.2751 53.8964 35.6743 53.7949 36.0736 53.6864L36.6805 53.5272L36.7912 53.5018L36.9297 53.4718C37.4097 53.3472 37.892 53.2411 38.3628 53.0841C38.4712 53.0541 38.9928 52.9018 39.1151 52.8534C39.1797 52.8211 39.4128 52.7611 39.4728 52.7311Z" fill="#231F20"/>
<path id="Vector_25" d="M42.3437 53.9519C42.4136 53.9119 42.4946 53.8957 42.5745 53.9057C42.5798 53.9065 42.5847 53.9088 42.5887 53.9123C42.5927 53.9158 42.5956 53.9204 42.597 53.9255C42.5985 53.9306 42.5984 53.936 42.5969 53.9411C42.5954 53.9462 42.5924 53.9507 42.5884 53.9542L42.4637 54.035C42.4384 54.0534 42.0022 54.2519 41.8522 54.3142C41.7022 54.3765 41.5614 54.4342 41.4137 54.4896C41.1137 54.6003 40.8137 54.7088 40.5114 54.8126C40.4445 54.8357 40.3753 54.8588 40.3084 54.8773C40.0776 54.9442 39.8468 55.0203 39.616 55.108C39.5773 55.1198 39.5395 55.1345 39.503 55.1519C39.443 55.1819 38.8222 55.3826 38.7391 55.4173C38.536 55.475 38.3353 55.5396 38.1322 55.6019C38.1048 55.6135 38.0761 55.622 38.0468 55.6273C37.982 55.6379 37.9185 55.6557 37.8576 55.6803L37.6014 55.768C37.5574 55.7805 37.5127 55.7905 37.4676 55.798C37.4284 55.798 37.4399 55.7726 37.4514 55.7657C37.463 55.7588 37.4514 55.7426 37.4514 55.7334L37.5276 55.6919L37.696 55.6088C37.823 55.5488 37.9545 55.4888 37.9822 55.4796L38.7691 55.1542C38.8107 55.138 38.8545 55.1288 38.8984 55.115L39.5191 54.8842C39.6391 54.8473 39.7499 54.8011 39.8814 54.7757L39.953 54.755C40.1584 54.6834 40.366 54.6188 40.5737 54.5542L40.8876 54.4457L40.9453 54.4296L41.0168 54.4065C41.2637 54.3165 41.513 54.2357 41.7553 54.1342C41.8107 54.1134 42.0853 54.0234 42.1476 53.9934C42.2099 53.9634 42.3137 53.9703 42.3437 53.9519Z" fill="#231F20"/>
<path id="Vector_26" d="M41.469 52.1309C41.5926 52.0618 41.7267 52.0135 41.8659 51.9878C41.9074 51.9878 41.919 52.0155 41.8798 52.0432C41.8405 52.0709 41.7274 52.1516 41.649 52.2001C41.6236 52.2139 41.4182 52.3293 41.1621 52.4447C40.9059 52.5601 40.629 52.6755 40.4859 52.7355C40.2067 52.8463 39.9251 52.9455 39.6436 53.0424C39.0667 53.2247 38.5013 53.4278 37.929 53.6286C37.8021 53.6724 37.6751 53.7139 37.5459 53.7532C37.1051 53.8893 36.669 54.0324 36.2351 54.187C36.1622 54.2101 36.0906 54.2371 36.0205 54.2678C35.9098 54.3209 34.7305 54.7293 34.5759 54.7824C34.1928 54.9024 33.8121 55.0316 33.4336 55.1632C33.3799 55.1837 33.3252 55.2014 33.2698 55.2163C33.1498 55.2438 33.0324 55.2816 32.919 55.3293L32.4344 55.5093C32.3536 55.537 32.2705 55.5578 32.1898 55.5809C32.109 55.6039 32.1436 55.5578 32.1667 55.5439C32.2336 55.507 32.1667 55.5163 32.1667 55.507C32.1667 55.4978 32.1667 55.507 32.1667 55.4955L32.2059 55.4747L32.3098 55.4239L32.6328 55.2693C32.8636 55.1586 33.1221 55.0386 33.1728 55.0247L34.6982 54.4178C34.779 54.3855 34.8621 54.3601 34.9428 54.3347L36.1105 53.8939C36.3413 53.8155 36.5721 53.7255 36.8028 53.6632C36.849 53.6516 36.8928 53.6332 36.939 53.617C37.329 53.4809 37.7213 53.3586 38.1136 53.2316L38.7136 53.0286L38.8244 52.9986L38.9628 52.957C39.4382 52.8001 39.9205 52.6732 40.389 52.5093C40.4975 52.4747 41.0167 52.3109 41.1367 52.2555C41.1782 52.2324 41.4113 52.1539 41.469 52.1309Z" fill="#231F20"/>
<path id="Vector_27" d="M34.0662 79.2464C34.9616 79.4518 35.857 79.6479 36.757 79.8233C37.087 79.8879 37.417 79.9387 37.747 79.9964C38.9008 80.2272 40.0685 80.4072 41.2362 80.5733C41.7554 80.6425 42.2793 80.6818 42.7962 80.7233L43.7954 80.7649C44.1277 80.7649 44.4577 80.7648 44.7924 80.7948C44.9977 80.8064 44.9747 80.8918 44.7924 80.9818C44.5107 81.1061 44.2071 81.1728 43.8993 81.1779C42.5181 81.1736 41.1396 81.0555 39.7777 80.8248C39.3693 80.7487 38.9516 80.6887 38.5316 80.6264L37.2762 80.4256L35.9054 80.1649L34.5416 79.8833L32.8662 79.5118C32.0239 79.3202 31.1793 79.1102 30.3439 78.9095C29.6954 78.7502 29.0493 78.6302 28.4077 78.4479C28.2647 78.4087 28.1262 78.3764 27.9831 78.3349C27.7936 78.2784 27.6109 78.201 27.4385 78.1041C27.3508 78.043 27.2859 77.9545 27.2539 77.8525C27.24 77.8195 27.2314 77.7844 27.2285 77.7487C27.2285 77.7002 27.2908 77.6841 27.3924 77.6841C27.4526 77.6847 27.5127 77.6893 27.5724 77.6979C27.6581 77.7073 27.743 77.7235 27.8262 77.7464L31.357 78.6002C32.2524 78.8172 33.1547 79.0318 34.0593 79.2279L34.0662 79.2464Z" fill="#231F20"/>
<path id="Vector_28" d="M52.687 79.1932C52.2163 79.3825 51.7432 79.5655 51.2678 79.7425C51.0947 79.8094 50.924 79.8855 50.7509 79.9455C50.1355 80.1655 49.5109 80.3602 48.877 80.5294C48.5978 80.6102 48.314 80.684 48.0347 80.7602C47.6774 80.8741 47.3044 80.9309 46.9294 80.9286C46.8117 80.9286 46.8232 80.8548 46.9086 80.7556C47.0169 80.6136 47.1739 80.5166 47.3493 80.4832L47.8824 80.3586L48.4155 80.2202L49.4978 79.9386C49.9377 79.8069 50.3705 79.6528 50.7947 79.4771C51.267 79.2986 51.7394 79.1148 52.2117 78.9256L53.0793 78.5656C53.5132 78.3809 53.954 78.1963 54.3832 78.0071C54.7178 77.8571 55.034 77.6886 55.3663 77.5456L55.597 77.4532C55.8786 77.3494 55.9778 77.3425 56.0586 77.3863C56.0779 77.3937 56.0965 77.403 56.114 77.414C56.1601 77.4486 56.0678 77.5432 55.8832 77.6586L55.4609 77.9171L55.0178 78.1479C54.7201 78.3002 54.4132 78.4502 54.0947 78.6094C53.6332 78.8171 53.1717 79.0156 52.6894 79.214L52.687 79.1932Z" fill="#231F20"/>
<path id="Vector_29" d="M57.8353 87.8473C57.7269 89.0819 57.6046 90.3119 57.45 91.5396L57.3992 91.8811L57.383 91.9712C57.383 92.0173 57.353 92.0612 57.3369 92.1073C57.3276 92.1285 57.316 92.1487 57.3023 92.1673C57.3023 92.1996 57.2746 92.2042 57.2607 92.225C57.226 92.2517 57.1898 92.2763 57.1523 92.2988C56.9607 92.4235 56.7692 92.5458 56.573 92.6588C55.1884 93.4665 53.7715 94.1888 52.3315 94.8742C51.6923 95.1742 51.053 95.4835 50.4138 95.7719C49.5979 96.1597 48.7603 96.5002 47.9053 96.7919C47.6353 96.8796 47.6446 96.7919 47.8384 96.6327C48.1609 96.3936 48.5121 96.1959 48.8838 96.0442C50.5638 95.3265 52.2069 94.5235 53.8638 93.7088C54.8538 93.2196 55.853 92.645 56.8038 92.0496L56.97 91.9458C56.976 91.9434 56.9813 91.9393 56.985 91.934C56.9887 91.9286 56.9907 91.9223 56.9907 91.9158V91.8973V91.8465C57.0161 91.6988 57.0369 91.5442 57.0577 91.385L57.1638 90.4619C57.2284 89.8435 57.2884 89.2227 57.3415 88.6042C57.4061 87.8404 57.4661 87.0765 57.5169 86.3127C57.593 85.1588 57.6623 84.005 57.69 82.8511C57.713 81.9558 57.69 81.0788 57.6715 80.1973C57.6715 80.0035 57.6577 79.8119 57.6484 79.6181C57.6323 78.8912 57.6484 78.6604 57.7523 78.4988C57.769 78.4621 57.7882 78.4267 57.81 78.3927C57.8607 78.3188 57.9877 78.6096 58.0407 79.1473C58.155 80.7934 58.1696 82.4448 58.0846 84.0927C58.0315 85.3388 57.9415 86.5896 57.8538 87.8358L57.8353 87.8473Z" fill="#231F20"/>
<path id="Vector_30" d="M45.577 91.7864C45.6186 91.0064 45.6555 90.2241 45.6832 89.4441L45.6993 88.5879C45.7293 87.5841 45.7686 86.5779 45.787 85.5718C45.787 85.1264 45.787 84.6787 45.787 84.2356C45.787 83.6656 45.7593 83.0956 45.7755 82.5279C45.7755 82.3503 45.8378 82.371 45.9047 82.5279C46.0048 82.7664 46.0641 83.0199 46.0801 83.2779C46.1668 84.4397 46.1914 85.6052 46.154 86.7695C46.1332 87.4618 46.154 88.2026 46.1401 88.9203C46.1278 89.7095 46.1078 90.4987 46.0801 91.2879L46.0224 92.7441C45.9947 93.4803 45.9417 94.2187 45.9047 94.9479C45.8863 95.2318 45.8747 95.5133 45.8678 95.7949L45.8217 96.6395C45.8078 96.7664 45.7986 96.8887 45.7824 97.0133C45.7663 97.138 45.7524 97.2256 45.734 97.3064C45.7163 97.3733 45.694 97.4388 45.667 97.5026C45.6519 97.5445 45.6283 97.583 45.5977 97.6155C45.5672 97.6481 45.5303 97.674 45.4893 97.6918C45.46 97.7093 45.4291 97.7239 45.397 97.7356C45.3117 97.7564 45.2447 97.5464 45.284 97.2279C45.3324 96.2287 45.3855 95.1903 45.4386 94.1449L45.5563 91.7864H45.577Z" fill="#231F20"/>
<path id="Vector_31" d="M50.1208 75.5312L49.1031 75.8542C48.9785 75.8935 48.8585 75.9442 48.7362 75.9835L47.4254 76.385C47.2316 76.4473 47.0401 76.5165 46.8508 76.5881C46.6128 76.6881 46.3684 76.7721 46.1193 76.8396C45.9624 76.8765 46.0824 76.5765 46.3501 76.4589C46.8375 76.2562 47.335 76.0791 47.8408 75.9281C48.1454 75.8404 48.4501 75.6973 48.7639 75.5981L49.777 75.2542L50.4024 75.0419C50.7162 74.9312 51.0324 74.8273 51.3416 74.7073C51.5724 74.6127 51.8031 74.4996 52.0339 74.3958C52.0847 74.3727 52.1331 74.3473 52.1862 74.3265C52.3801 74.2481 52.4516 74.2504 52.5324 74.3265C52.5521 74.3454 52.5705 74.3654 52.5877 74.3865C52.6362 74.4581 52.5877 74.5527 52.4447 74.6289C52.0266 74.8516 51.5905 75.0384 51.1408 75.1873C50.8039 75.3073 50.4485 75.4181 50.1208 75.5335V75.5312Z" fill="#231F20"/>
<path id="Vector_32" d="M40.7766 76.6685L38.9997 76.2923C38.7828 76.2462 38.5635 76.2185 38.3489 76.1677C37.5874 75.9993 36.8282 75.817 36.0712 75.637C35.7343 75.5562 35.3928 75.487 35.0558 75.4223C34.6199 75.3496 34.1907 75.2408 33.7728 75.097C33.6412 75.0462 33.6851 74.947 33.8235 74.8662C34.0137 74.765 34.2324 74.7308 34.4443 74.7693C34.8874 74.8408 35.3212 74.9446 35.7574 75.0485C36.1935 75.1523 36.6297 75.2654 37.0658 75.3877C37.5897 75.5331 38.1458 75.6185 38.6812 75.7293L40.472 76.087C40.8389 76.1562 41.2082 76.2277 41.5751 76.2923C42.1335 76.3916 42.6943 76.4931 43.2528 76.567C43.6866 76.6247 44.1182 76.6431 44.5474 76.6777C44.642 76.6777 44.7366 76.6777 44.8312 76.6939C44.9571 76.7082 45.0805 76.7392 45.1982 76.7862C45.2646 76.8205 45.3181 76.8756 45.3505 76.9431C45.3666 76.9704 45.3805 76.9989 45.392 77.0285C45.4058 77.0723 45.3735 77.1093 45.3043 77.1416C45.2074 77.1876 45.1022 77.2135 44.9951 77.2177C44.1845 77.2297 43.3749 77.1586 42.5789 77.0054C41.9766 76.9108 41.3743 76.7954 40.772 76.6823L40.7766 76.6685Z" fill="#231F20"/>
<path id="Vector_33" d="M30.196 56.8316L29.7621 56.8039C29.709 56.8039 29.656 56.8039 29.6029 56.8039C29.4125 56.7876 29.2235 56.7576 29.0375 56.7139L28.7906 56.6608C28.6824 56.6428 28.5784 56.6053 28.4836 56.5501C28.426 56.5155 28.5736 56.3839 28.6798 56.407C28.876 56.4508 29.0721 56.4762 29.2775 56.5155C29.4045 56.5317 29.5327 56.5364 29.6606 56.5293H30.0921H30.3621C30.4983 56.5293 30.6367 56.5293 30.7729 56.5293C30.909 56.5293 30.9852 56.5155 31.0936 56.5293C31.1175 56.5281 31.1414 56.5281 31.1652 56.5293C31.2529 56.5501 31.276 56.5778 31.2783 56.6539C31.2783 56.6701 31.2783 56.6885 31.2783 56.7047C31.2744 56.7325 31.2614 56.7582 31.2414 56.7778C31.2213 56.7974 31.1953 56.8099 31.1675 56.8132C30.9882 56.8538 30.8034 56.8647 30.6206 56.8455L30.1936 56.827L30.196 56.8316Z" fill="#231F20"/>
<path id="Vector_34" d="M34.366 57.8519C35.186 58.0365 36.0083 58.2126 36.833 58.3803L37.7399 58.5442C38.8014 58.7519 39.8653 58.9572 40.9337 59.1326C41.4068 59.2088 41.8845 59.2711 42.3576 59.3219C42.9668 59.3888 43.5783 59.4442 44.1807 59.5526C44.3676 59.5872 44.333 59.6911 44.1622 59.7834C43.9032 59.9109 43.6144 59.9651 43.3268 59.9403C42.6968 59.8988 42.0737 59.8134 41.4506 59.7096C40.8276 59.6057 40.2091 59.4996 39.5883 59.368C38.8476 59.2111 38.0676 59.1049 37.3083 58.9619C36.4714 58.808 35.6368 58.6419 34.8045 58.4634L33.2676 58.1542L30.9599 57.6257C30.3622 57.4896 29.7691 57.3949 29.1783 57.2311C29.0468 57.1988 28.9176 57.1688 28.786 57.1272C28.6099 57.076 28.4426 56.9982 28.2899 56.8965C28.2074 56.8389 28.1498 56.7524 28.1283 56.6542C28.1219 56.6191 28.1219 56.5831 28.1283 56.548C28.1283 56.5065 28.2045 56.4996 28.2737 56.5042C28.3294 56.5048 28.3849 56.5095 28.4399 56.518C28.5175 56.5275 28.5946 56.5414 28.6707 56.5596C29.6953 56.7903 30.803 57.0442 31.9014 57.3003C32.7253 57.4896 33.5537 57.6811 34.3822 57.8565L34.366 57.8519Z" fill="#231F20"/>
<path id="Vector_35" d="M57.7569 67.1192C57.6761 68.3238 57.5884 69.5262 57.4684 70.7331C57.4453 70.9523 57.4269 71.1715 57.3969 71.3977L57.383 71.4877C57.383 71.5315 57.353 71.5754 57.3392 71.6192C57.3321 71.641 57.3212 71.6613 57.3069 71.6792C57.3069 71.6792 57.2907 71.6792 57.3069 71.7023L57.2953 71.7138L57.2699 71.7369C57.2353 71.7679 57.1974 71.795 57.1569 71.8177L56.8753 71.9931C55.5236 72.7671 54.1273 73.4606 52.6938 74.07C52.0615 74.3469 51.4292 74.6262 50.7992 74.8915C49.9892 75.2331 49.1838 75.5838 48.3369 75.84C47.8153 76.0038 48.3692 75.4915 49.2969 75.1131C50.9515 74.4438 52.5807 73.7285 54.2146 72.9715C54.7015 72.7408 55.1907 72.51 55.673 72.2331C55.9038 72.0992 56.1553 71.9654 56.3884 71.8223C56.5061 71.7508 56.6192 71.6838 56.7415 71.61L56.9146 71.4992L56.9653 71.4669C56.9706 71.4651 56.9752 71.4616 56.9785 71.4571C56.9818 71.4526 56.9836 71.4471 56.9838 71.4415C56.9838 71.4415 57.0022 71.34 57.0092 71.2731L57.0369 71.0423L57.083 70.5923L57.1615 69.6877C57.2099 69.0831 57.2515 68.4785 57.2907 67.8738C57.3384 67.1277 57.3799 66.3823 57.4153 65.6377C57.4661 64.5092 57.5146 63.3738 57.5238 62.2523C57.5238 61.38 57.5076 60.5261 57.473 59.6654L57.4453 59.1023C57.4246 58.3938 57.4453 58.1792 57.5446 58.0108C57.5627 57.9751 57.5828 57.9405 57.6046 57.9069C57.6553 57.8354 57.7799 58.1192 57.8353 58.6408C57.9533 60.2448 57.9826 61.8542 57.923 63.4615C57.893 64.6777 57.8284 65.8961 57.7592 67.1146L57.7569 67.1192Z" fill="#231F20"/>
<path id="Vector_36" d="M45.4894 70.6338C45.5263 69.8307 45.5609 69.0184 45.5817 68.2199V67.3384C45.6047 66.3046 45.6394 65.2615 45.6486 64.2322C45.6486 63.7707 45.6486 63.3092 45.6324 62.8476C45.6186 62.2615 45.5932 61.6753 45.6024 61.0892C45.6024 60.9046 45.6624 60.9253 45.7317 61.0776C45.8344 61.3225 45.899 61.5817 45.9232 61.8461C46.0264 63.0455 46.0649 64.2495 46.0386 65.453C46.0224 66.1753 46.0386 66.9276 46.0386 67.6684C46.0386 68.4807 46.0232 69.2938 45.9924 70.1076C45.9771 70.6092 45.9617 71.1092 45.9463 71.6076C45.9232 72.3669 45.8747 73.1261 45.8447 73.8784C45.8171 74.4646 45.8147 75.0322 45.7824 75.623C45.7824 75.7499 45.764 75.8769 45.7501 76.0061C45.7363 76.1353 45.7224 76.2369 45.7086 76.3084C45.6921 76.3773 45.6713 76.4452 45.6463 76.5115C45.6324 76.5545 45.6102 76.5944 45.5809 76.6289C45.5516 76.6633 45.5158 76.6917 45.4755 76.7122C45.4462 76.7311 45.4153 76.7473 45.3832 76.7607C45.2978 76.7861 45.224 76.5738 45.2563 76.2415C45.2817 75.2261 45.3324 74.1461 45.3717 73.0569C45.4063 72.2492 45.4386 71.4415 45.4732 70.6269L45.4894 70.6338Z" fill="#231F20"/>
<path id="Vector_37" d="M45.6437 70.2417C45.6599 69.3855 45.6668 68.5271 45.6668 67.6709C45.6668 67.3571 45.6437 67.0455 45.6437 66.7317C45.6437 65.6286 45.6437 64.5255 45.6437 63.4201C45.6437 62.9309 45.6091 62.4394 45.5907 61.9548C45.5607 61.3317 45.5214 60.704 45.5307 60.0809C45.5307 59.8871 45.6091 59.9055 45.7037 60.0648C45.8401 60.3174 45.9263 60.594 45.9576 60.8794C46.1074 62.1516 46.1844 63.4314 46.1884 64.7125C46.1884 65.4832 46.2461 66.2817 46.2691 67.0686C46.2922 67.9363 46.3037 68.8017 46.3084 69.6694C46.3084 70.2024 46.3084 70.7355 46.3084 71.2686C46.3084 72.0763 46.2876 72.884 46.2807 73.6917C46.2807 74.3148 46.3014 74.9286 46.2807 75.554C46.2807 75.6924 46.2807 75.8263 46.2622 75.9671C46.2563 76.1538 46.218 76.338 46.1491 76.5117C46.1303 76.56 46.1012 76.6037 46.0637 76.6396C46.0262 76.6754 45.9813 76.7027 45.9322 76.7194C45.8948 76.7396 45.8553 76.7558 45.8145 76.7678C45.7014 76.7909 45.5837 76.5578 45.6114 76.2094C45.5976 75.1409 45.5976 73.9871 45.6114 72.8309C45.6114 71.9725 45.6345 71.1071 45.6345 70.244L45.6437 70.2417Z" fill="#231F20"/>
<path id="Vector_38" d="M42.3505 52.1539C41.1552 52.4615 39.9621 52.7785 38.7713 53.1046L37.4744 53.4808C35.9359 53.9008 34.4067 54.3315 32.8867 54.7731C32.2105 54.9715 31.5367 55.1885 30.8744 55.41L28.3475 56.2846C28.1167 56.3746 28.059 56.2662 28.2252 56.0539C28.3397 55.9172 28.4752 55.7996 28.6267 55.7054C28.8248 55.5717 29.0387 55.4632 29.2636 55.3823C30.1313 55.0615 31.0036 54.7708 31.8828 54.4939C32.7621 54.2169 33.6459 53.9562 34.5436 53.7231C35.6167 53.4415 36.7105 53.0792 37.7998 52.7654C38.9975 52.4192 40.1998 52.0892 41.4021 51.7615L43.6267 51.1731C44.1944 51.0277 44.7505 50.8869 45.3321 50.7531C45.43 50.7242 45.5342 50.7242 45.6321 50.7531L45.849 50.8246L46.2644 50.9608L47.0767 51.2308C47.5036 51.3692 47.9282 51.4962 48.3528 51.6231L49.6175 52.0131C49.8044 52.0708 49.9867 52.1215 50.1736 52.1839C50.8544 52.44 51.0575 52.56 51.1682 52.7239C51.1968 52.7593 51.2222 52.7972 51.2444 52.8369C51.2882 52.9431 50.9721 52.9454 50.4413 52.8369C50.0467 52.77 49.6567 52.6662 49.2644 52.5623C48.8721 52.4585 48.4752 52.3477 48.0805 52.2323C47.2936 51.9854 46.4998 51.7154 45.7105 51.4546L45.4936 51.3831H45.4544L45.0552 51.4777C44.7552 51.5469 44.4552 51.6254 44.1529 51.7085C43.5505 51.8585 42.9482 52.0154 42.3482 52.17L42.3505 52.1539Z" fill="#231F20"/>
<path id="Vector_39" d="M58.154 67.3847C58.1009 68.8316 58.057 70.2601 57.9394 71.7255C57.9394 71.7485 57.9394 71.8178 57.9209 71.8732C57.9145 71.9291 57.9044 71.9846 57.8909 72.0393C57.8792 72.0631 57.8661 72.0863 57.8517 72.1085L57.8286 72.1408L57.817 72.1547L57.8332 72.1662L57.7086 72.2655L57.2794 72.4962C57.0486 72.6139 56.8017 72.727 56.5617 72.8378C55.7101 73.2185 54.8517 73.5716 53.9909 73.9201C53.1301 74.2685 52.267 74.6124 51.3994 74.9332L49.1032 75.8262C48.1314 76.2313 47.1375 76.5811 46.1263 76.8739C45.8078 76.957 45.8147 76.8209 46.0386 76.6178C46.4019 76.3187 46.8141 76.0845 47.257 75.9255C49.2463 75.1685 51.2217 74.3655 53.234 73.6062C54.4386 73.1447 55.657 72.5908 56.834 72.0278L57.0763 71.9101L57.2701 71.8108L57.314 71.7901C57.3213 71.7765 57.326 71.7616 57.3278 71.7462V71.6908L57.3394 71.5616C57.367 71.2062 57.3855 70.8439 57.404 70.4839C57.4363 69.7639 57.464 69.0393 57.4847 68.3147C57.5101 67.4239 57.5309 66.5332 57.5424 65.6401C57.5586 64.2924 57.5724 62.9332 57.5424 61.5947C57.5194 60.5539 57.4455 59.5339 57.3647 58.5116C57.344 58.2809 57.3255 58.0662 57.3047 57.8401C57.247 57.0001 57.2586 56.7347 57.4155 56.5339C57.442 56.4883 57.4713 56.4444 57.5032 56.4024C57.5794 56.3078 57.7917 56.6332 57.8817 57.2609C58.1233 59.1696 58.2389 61.0923 58.2278 63.0162C58.2394 64.4701 58.2094 65.9285 58.177 67.3847H58.154Z" fill="#231F20"/>
<path id="Vector_40" d="M45.789 91.3846C45.8229 90.5523 45.8483 89.7177 45.8652 88.8808C45.8652 88.5761 45.8652 88.2715 45.8652 87.9577C45.8813 86.8823 45.9113 85.8069 45.9183 84.7269C45.9183 84.2492 45.9021 83.7715 45.8929 83.2985C45.8744 82.6892 45.8467 82.08 45.8629 81.4731C45.8629 81.2861 45.9436 81.3023 46.0359 81.4569C46.1654 81.705 46.2439 81.9765 46.2667 82.2554C46.3976 83.4978 46.4523 84.747 46.4306 85.9961C46.419 86.7461 46.4583 87.5261 46.4629 88.2923C46.4629 89.1369 46.4629 89.9815 46.449 90.8308C46.449 91.35 46.4283 91.8692 46.419 92.3885C46.4052 93.1754 46.3636 93.9669 46.3383 94.7492C46.3221 95.3561 46.3383 95.9538 46.3036 96.5631C46.3036 96.6992 46.2898 96.8308 46.2736 96.9646C46.2647 97.1479 46.2217 97.3279 46.1467 97.4954C46.1256 97.5434 46.0939 97.586 46.0539 97.62C46.0139 97.654 45.9668 97.6785 45.9159 97.6915C45.8772 97.7088 45.8371 97.7227 45.7959 97.7331C45.6852 97.7492 45.5813 97.5185 45.609 97.1838C45.6206 96.1431 45.6436 95.0192 45.6736 93.8954C45.699 93.0577 45.7267 92.2154 45.7521 91.3754L45.789 91.3846Z" fill="#231F20"/>
<path id="Vector_41" d="M26.5778 91.2533C26.4601 88.5002 26.3978 85.7449 26.4324 82.9849C26.4485 81.9787 26.4578 80.9702 26.5362 79.9595C26.5801 79.431 26.6331 78.9026 26.7301 78.3695C26.7555 78.2356 26.7831 78.0995 26.8178 77.9633C26.8536 77.8179 26.8999 77.6752 26.9562 77.5364C27.0258 77.3337 27.1637 77.1616 27.3462 77.0495C27.4371 77.0026 27.54 76.9841 27.6416 76.9964C27.7443 77.0207 27.843 77.0595 27.9347 77.1118L28.0062 77.1441L28.0547 77.1626L28.1539 77.1995L28.3639 77.271C28.5093 77.3172 28.6524 77.3633 28.8024 77.4026C29.0955 77.4902 29.3955 77.5687 29.6955 77.6472C30.2931 77.8018 30.8978 77.9495 31.5001 78.0926C32.7093 78.3772 33.9224 78.6495 35.1393 78.9095C36.6693 79.2395 38.2178 79.5395 39.7547 79.8326C41.7185 80.1926 43.6939 80.5433 45.6485 80.9379C46.2578 81.0602 46.1539 81.1895 45.6093 81.2495C44.7179 81.3179 43.8214 81.2721 42.9416 81.1133C40.9224 80.7879 38.917 80.3933 36.9139 79.9756C34.9108 79.5579 32.9055 79.1126 30.9139 78.6072L29.3401 78.2056C29.077 78.1364 28.8116 78.0649 28.5439 77.9887L28.1401 77.8664L27.937 77.7972L27.7478 77.7233C27.7233 77.7088 27.6969 77.698 27.6693 77.691C27.6551 77.6921 27.6413 77.6967 27.6292 77.7044C27.6172 77.712 27.6072 77.7225 27.6001 77.7349C27.5834 77.7582 27.5702 77.7839 27.5608 77.811C27.5329 77.8866 27.509 77.9636 27.4893 78.0418C27.4063 78.3733 27.3469 78.7103 27.3116 79.0502C27.2308 79.7425 27.1893 80.4556 27.1593 81.1618C27.0531 83.9126 27.1131 86.6818 27.2124 89.4441C27.2416 90.2933 27.2801 91.1395 27.3278 91.9826L27.3647 92.6195L27.3808 92.8987C27.3851 92.9251 27.3947 92.9503 27.4089 92.973C27.4232 92.9956 27.4419 93.015 27.4639 93.0302C27.618 93.1472 27.7844 93.247 27.9601 93.3279C28.1424 93.4179 28.3339 93.501 28.5278 93.5772C29.7286 94.0286 30.9517 94.4184 32.1924 94.7449C33.4339 95.0841 34.6824 95.391 35.9308 95.6679C37.8693 96.1064 39.7893 96.4549 41.7231 96.7918L42.9947 97.0018C43.7885 97.1495 44.3101 97.2487 44.6724 97.3456C44.9287 97.4053 45.1745 97.5034 45.4016 97.6364C45.4761 97.6762 45.5478 97.7209 45.6162 97.7702C45.6855 97.8349 45.5539 97.8741 45.2539 97.8902C44.7993 97.9095 44.3439 97.891 43.8924 97.8349C43.0108 97.7472 42.1247 97.6041 41.2316 97.461C40.3385 97.3179 39.4431 97.1472 38.5408 96.9649C36.7385 96.6002 34.9201 96.1872 33.1062 95.721C31.7608 95.3702 30.4178 94.9987 29.0816 94.5372C28.7493 94.4218 28.4147 94.3064 28.0824 94.1564C27.7185 94.016 27.3735 93.8307 27.0555 93.6049C27.0304 93.5872 27.0065 93.5679 26.9839 93.5472C26.9507 93.5174 26.9191 93.4858 26.8893 93.4525C26.8336 93.39 26.7856 93.3211 26.7462 93.2472C26.7263 93.2097 26.713 93.1691 26.707 93.1272V93.0972V93.081V93.021L26.6931 92.8387L26.6631 92.3172L26.6078 91.2741L26.5778 91.2533Z" fill="#231F20"/>
<path id="Vector_42" d="M52.959 78.6925L51.3252 79.3318C51.1267 79.4102 50.9352 79.5025 50.7367 79.5787C50.0321 79.8464 49.3252 80.1056 48.6159 80.3564L47.6767 80.7095C47.4736 80.781 47.2798 80.8687 47.0698 80.9402C46.8627 81.0213 46.6413 81.0598 46.419 81.0533C46.2782 81.0533 46.2875 80.9587 46.3728 80.8226C46.4707 80.6349 46.6354 80.4907 46.8344 80.4187C47.229 80.2826 47.6282 80.1233 48.0298 79.9756C48.4313 79.8279 48.8467 79.6964 49.2644 79.5649C49.7628 79.4125 50.2544 79.1772 50.7482 78.9764L52.3844 78.321L53.3905 77.9149L54.9113 77.2918C55.3013 77.1279 55.6705 76.9318 56.0652 76.7702C56.1528 76.7356 56.2336 76.6987 56.3236 76.6687C56.6513 76.5579 56.7713 76.5602 56.8728 76.6249C56.897 76.6368 56.9202 76.6507 56.9421 76.6664C56.9952 76.7172 56.889 76.8349 56.6721 76.9664L56.1852 77.2641L55.6705 77.5295C55.3221 77.7002 54.9782 77.871 54.609 78.0372C54.0713 78.2679 53.5244 78.4987 52.9798 78.7156L52.959 78.6925Z" fill="#231F20"/>
<path id="Vector_43" d="M48.194 58.9016L47.6793 59.0678C47.6147 59.0886 47.5593 59.1232 47.497 59.1416L46.8255 59.347C46.7283 59.3787 46.6334 59.4172 46.5416 59.4624C46.4275 59.5307 46.3014 59.5769 46.1701 59.5986C46.0847 59.5986 46.0524 59.2478 46.1817 59.1762C46.4177 59.0502 46.6679 58.9526 46.927 58.8855C47.0855 58.838 47.2398 58.7778 47.3886 58.7055L47.9009 58.5139L48.2147 58.3962C48.374 58.3362 48.5355 58.2809 48.6901 58.2116C48.8447 58.1424 48.9209 58.0732 49.0363 58.0109C49.0617 57.9956 49.0879 57.9818 49.1147 57.9693C49.2163 57.9278 49.2624 57.9509 49.3224 58.0686C49.3369 58.0948 49.35 58.1217 49.3617 58.1493C49.3791 58.1873 49.3846 58.2296 49.3776 58.2708C49.3706 58.3119 49.3514 58.35 49.3224 58.3801C49.1405 58.5306 48.9324 58.6464 48.7086 58.7216C48.5424 58.7862 48.3717 58.8439 48.2032 58.9062L48.194 58.9016Z" fill="#231F20"/>
<path id="Vector_44" d="M31.8297 75.8957C31.4605 76.0065 31.0913 76.1265 30.7266 76.2419C30.5928 76.2857 30.4636 76.3434 30.3297 76.3873L28.9082 76.8488C28.6982 76.9181 28.4951 77.0034 28.2874 77.0796C28.0273 77.1878 27.7587 77.2743 27.4843 77.3381C27.3966 77.3542 27.3828 77.2757 27.4243 77.1742C27.4799 77.0432 27.5818 76.9372 27.7105 76.8765C28.2313 76.6325 28.7716 76.4325 29.3259 76.2788C29.6582 76.1842 29.9859 76.0319 30.3159 75.9073L31.4143 75.5127C31.6451 75.4319 31.8759 75.3534 32.0951 75.2819C32.4389 75.1665 32.7874 75.0511 33.1289 74.9357C33.392 74.8388 33.6459 74.7327 33.9089 74.6404C33.9666 74.6219 34.022 74.5965 34.082 74.5804C34.3128 74.5134 34.3843 74.5342 34.4559 74.6104C34.4733 74.6269 34.4895 74.6446 34.5043 74.6634C34.5459 74.7257 34.4743 74.8134 34.3289 74.8942C33.8779 75.1343 33.4106 75.3425 32.9305 75.5173C32.5682 75.6511 32.2059 75.785 31.8389 75.9142L31.8297 75.8957Z" fill="#231F20"/>
<path id="Vector_45" d="M58.2924 83.9769C58.2694 85.7331 58.214 87.4869 58.1378 89.2385C58.1078 89.88 58.094 90.5192 58.0524 91.1585L58.0224 91.5831L58.0063 91.7954V91.9085C58.0085 91.9384 58.0085 91.9685 58.0063 91.9985L57.9786 92.0792C57.9786 92.1046 57.9601 92.1346 57.9486 92.16L57.9301 92.1946C57.9117 92.1946 57.9555 92.2108 57.9486 92.2108L57.9347 92.2269C57.8969 92.2704 57.8525 92.3078 57.8032 92.3377L57.5909 92.4739C57.4686 92.55 57.3601 92.6285 57.2286 92.7046C56.7417 92.9977 56.2478 93.2792 55.7517 93.5492C54.7593 94.0915 53.7509 94.6016 52.7355 95.0931C51.8355 95.5292 50.9286 95.9677 50.0286 96.3877C48.8692 96.9616 47.669 97.4491 46.4378 97.8462C46.0478 97.9546 46.0617 97.8 46.3363 97.5646C46.7801 97.2102 47.2739 96.9232 47.8017 96.7131C50.1786 95.7069 52.5232 94.5992 54.8517 93.4223C55.544 93.0646 56.2363 92.6769 56.917 92.2546L57.397 91.9431L57.4386 91.9154C57.4397 91.8993 57.4397 91.8831 57.4386 91.8669L57.457 91.5992C57.4778 91.1977 57.4986 90.7985 57.5217 90.3992C57.607 88.6431 57.6647 86.88 57.6947 85.1192C57.7132 84.0346 57.7201 82.95 57.7063 81.8677C57.7066 80.2323 57.615 78.5982 57.4317 76.9731C57.4109 76.8162 57.3878 76.6615 57.3601 76.5115L57.344 76.4262C57.344 76.4054 57.344 76.3823 57.3255 76.3662C57.3085 76.3525 57.2899 76.3409 57.2701 76.3315L57.1986 76.2969C56.9286 76.1746 56.6309 76.0662 56.3378 75.9692C55.7493 75.7708 55.1517 75.5862 54.5563 75.3992L53.7693 75.1523C52.7909 74.8315 52.4886 74.6908 52.3201 74.4923C52.2784 74.4534 52.2419 74.4092 52.2117 74.3608C52.1517 74.2362 52.5717 74.2939 53.3032 74.4877C54.3855 74.7785 55.4909 75.0969 56.6124 75.4731C56.894 75.5723 57.1686 75.6646 57.4686 75.8031C57.5747 75.8631 57.7386 75.9254 57.794 76.05L57.8078 76.0731V76.0846C57.7963 76.0846 57.8263 76.0846 57.824 76.0846L57.8424 76.1331C57.8559 76.1652 57.8667 76.1984 57.8747 76.2323L57.907 76.4077C57.9347 76.5577 57.9601 76.7054 57.9809 76.8554C58.0663 77.4531 58.1309 78.0508 58.1701 78.6485C58.2878 80.4231 58.2993 82.2 58.2924 83.9723V83.9769Z" fill="#231F20"/>
<path id="Vector_46" d="M36.8282 75.6231C36.8609 75.6037 36.8987 75.5948 36.9366 75.5977C36.9391 75.5988 36.9412 75.6006 36.9427 75.6028C36.9442 75.6051 36.945 75.6077 36.945 75.6104C36.945 75.6131 36.9442 75.6157 36.9427 75.618C36.9412 75.6202 36.9391 75.622 36.9366 75.6231L36.8766 75.6646C36.8651 75.6646 36.6459 75.7823 36.5813 75.8146C36.5166 75.8469 36.4405 75.8769 36.369 75.9069L35.9305 76.0754C35.8982 76.0892 35.8636 76.0985 35.8313 76.11C35.718 76.1447 35.6071 76.1863 35.4989 76.2346C35.4805 76.2406 35.4632 76.25 35.4482 76.2623L35.0974 76.4308L34.8182 76.5554C34.8061 76.5634 34.7929 76.5696 34.779 76.5739C34.7473 76.5806 34.7174 76.594 34.6913 76.6131C34.6543 76.6339 34.6174 76.6593 34.5805 76.6823C34.5604 76.6929 34.5395 76.7022 34.5182 76.71C34.4997 76.71 34.4997 76.6985 34.502 76.6939C34.5043 76.6892 34.502 76.68 34.502 76.6777L34.5966 76.5785C34.6474 76.53 34.7028 76.4816 34.7143 76.4723C34.7305 76.4583 34.7475 76.4452 34.7651 76.4331L34.8805 76.3546L35.0836 76.2462L35.1482 76.2231C35.1482 76.2231 35.4343 76.0939 35.4459 76.0916C35.5043 76.0678 35.5645 76.0485 35.6259 76.0339L35.6628 76.0223C35.762 75.9877 35.8659 75.9577 35.9674 75.9254L36.122 75.8746H36.152L36.1866 75.8631C36.3089 75.8216 36.4313 75.7846 36.5489 75.7362C36.5766 75.7362 36.7128 75.6831 36.7428 75.6669C36.7728 75.6508 36.812 75.6323 36.8282 75.6231Z" fill="#231F20"/>
<path id="Vector_47" d="M37.9983 75.7571C38.032 75.7431 38.0681 75.736 38.1045 75.7363C38.1045 75.7363 38.1183 75.7479 38.1045 75.7548L38.0422 75.7917L37.7491 75.9325C37.6801 75.9645 37.6092 75.9923 37.5368 76.0156L37.1053 76.1725L37.0083 76.2025C36.8966 76.232 36.7877 76.2714 36.683 76.3202C36.6642 76.3257 36.6469 76.3351 36.6322 76.3479C36.6045 76.364 36.3299 76.5025 36.293 76.5163C36.2023 76.554 36.1137 76.5963 36.0276 76.6433C36.0165 76.6517 36.004 76.6579 35.9907 76.6617C35.9594 76.6651 35.9301 76.679 35.9076 76.701C35.8734 76.7259 35.838 76.749 35.8014 76.7702C35.7803 76.7777 35.7587 76.7839 35.7368 76.7886C35.716 76.7886 35.7045 76.7679 35.7068 76.761C35.7091 76.754 35.6953 76.7425 35.686 76.7356C35.7096 76.6928 35.7374 76.6526 35.7691 76.6156C35.8037 76.5749 35.8415 76.537 35.8822 76.5025C36.0014 76.4212 36.1263 76.3487 36.256 76.2856C36.2758 76.2755 36.2968 76.2678 36.3183 76.2625C36.3183 76.2625 36.6045 76.1402 36.616 76.1379C36.6744 76.1161 36.7346 76.0999 36.796 76.0894H36.8307C36.9322 76.0571 37.0337 76.0294 37.1353 76.004L37.2899 75.9602H37.3199H37.3545C37.4768 75.9233 37.5991 75.8933 37.7191 75.8563C37.7468 75.8563 37.883 75.8194 37.9153 75.8079C37.9444 75.7934 37.9722 75.7764 37.9983 75.7571Z" fill="#231F20"/>
<path id="Vector_48" d="M39.1153 75.868C39.1345 75.8594 39.1553 75.855 39.1764 75.855C39.1975 75.855 39.2183 75.8594 39.2376 75.868C39.2514 75.868 39.256 75.898 39.2376 75.9049L39.1683 75.9465C39.1545 75.9465 38.9191 76.0411 38.8406 76.078C38.7622 76.1149 38.6883 76.1403 38.6099 76.168C38.4529 76.2257 38.2983 76.288 38.1483 76.3526C38.1147 76.3681 38.08 76.3812 38.0445 76.3919C37.9229 76.4266 37.8048 76.4721 37.6914 76.528C37.6713 76.5356 37.6526 76.5466 37.636 76.5603C37.6083 76.5811 37.306 76.7334 37.2645 76.7519C37.1629 76.7911 37.0637 76.8372 36.9645 76.8857C36.9506 76.8857 36.9391 76.9042 36.9229 76.9019C36.8878 76.9055 36.8547 76.92 36.8283 76.9434L36.7083 77.0149C36.6854 77.0246 36.6614 77.0316 36.6368 77.0357C36.6137 77.0357 36.5999 77.008 36.6045 76.9988C36.6091 76.9896 36.5906 76.9757 36.5791 76.9665C36.6072 76.9239 36.6389 76.8837 36.6737 76.8465C36.713 76.8042 36.7546 76.7641 36.7983 76.7265L36.9829 76.6065C37.0776 76.5488 37.1791 76.4934 37.1999 76.4819C37.2213 76.4689 37.2447 76.4596 37.2691 76.4542C37.2691 76.4542 37.5714 76.2996 37.5853 76.2972C37.647 76.2678 37.7121 76.2461 37.7791 76.2326L37.8183 76.2211C37.9263 76.1774 38.0374 76.1419 38.1506 76.1149L38.3214 76.0619H38.3514H38.3929L38.7968 75.9488C38.8268 75.9488 38.9791 75.9142 39.0137 75.9026C39.0483 75.8911 39.0991 75.8749 39.1153 75.868Z" fill="#231F20"/>
<path id="Vector_49" d="M40.3267 76.1034C40.3615 76.0829 40.4022 76.0747 40.4421 76.0804C40.444 76.0816 40.4456 76.0833 40.4467 76.0853C40.4477 76.0874 40.4483 76.0896 40.4483 76.0919C40.4483 76.0942 40.4477 76.0964 40.4467 76.0984C40.4456 76.1005 40.444 76.1022 40.4421 76.1034L40.3844 76.1542L40.0729 76.3065C40.0014 76.3434 39.9275 76.3757 39.8421 76.408L39.3921 76.6042L39.2906 76.6434C39.1731 76.6847 39.0582 76.7333 38.9467 76.7888C38.9271 76.7965 38.9085 76.8066 38.8914 76.8188C38.8637 76.8373 38.566 76.9965 38.5267 77.0127C38.4275 77.0519 38.3283 77.098 38.229 77.1419C38.2152 77.1419 38.2037 77.158 38.1875 77.158C38.1531 77.1592 38.1196 77.1695 38.0906 77.1881C38.0494 77.2096 38.007 77.2289 37.9637 77.2457C37.9406 77.2533 37.9164 77.2572 37.8921 77.2573C37.8714 77.2573 37.8644 77.225 37.869 77.218C37.8737 77.2111 37.8575 77.195 37.8506 77.1834V77.1719C37.9215 77.099 37.9987 77.0326 38.0814 76.9734L38.2683 76.8788C38.3629 76.835 38.4598 76.7888 38.4852 76.7796C38.5066 76.7695 38.529 76.7618 38.5521 76.7565L38.866 76.625C38.9253 76.5976 38.9871 76.576 39.0506 76.5604C39.0637 76.5582 39.0762 76.5535 39.0875 76.5465C39.1914 76.505 39.2998 76.4704 39.4037 76.4334L39.5652 76.3734H39.5952L39.6321 76.3619C39.759 76.3134 39.8883 76.2719 40.0129 76.2211C40.0406 76.2211 40.1837 76.1634 40.216 76.1496C40.2483 76.1357 40.3106 76.1104 40.3267 76.1034Z" fill="#231F20"/>
<path id="Vector_50" d="M41.7691 76.3663C41.7949 76.3514 41.8256 76.3472 41.8544 76.3548C41.8544 76.3548 41.8683 76.3709 41.8544 76.3755L41.8083 76.4079C41.8083 76.4079 41.6352 76.4932 41.5775 76.5163L41.4114 76.5855L41.0768 76.7148L41.0029 76.7402C40.9164 76.766 40.8322 76.7992 40.7514 76.8394C40.7372 76.844 40.7239 76.851 40.7121 76.8602C40.6914 76.874 40.4814 76.9871 40.4514 77.0009C40.3821 77.0332 40.3129 77.0679 40.246 77.1071C40.246 77.1071 40.2298 77.1209 40.2183 77.1232C40.1942 77.1278 40.1718 77.139 40.1537 77.1555L40.0729 77.2132C40.0578 77.2218 40.0414 77.228 40.0245 77.2317C40.0083 77.2317 39.9991 77.2155 40.0014 77.2109C40.0037 77.2063 39.9898 77.1948 39.9829 77.1879C40.0237 77.1227 40.0734 77.0637 40.1306 77.0125C40.2204 76.9457 40.3145 76.8848 40.4121 76.8302C40.4286 76.8222 40.4456 76.8153 40.4629 76.8094C40.4629 76.8094 40.6821 76.7032 40.6937 76.7032C40.7376 76.6825 40.7842 76.6677 40.8321 76.6594H40.8598C40.936 76.6294 41.0168 76.6086 41.0906 76.5855L41.2106 76.5463H41.2314H41.2591C41.3537 76.5163 41.4483 76.4909 41.5406 76.4563C41.5637 76.4563 41.6675 76.4217 41.6906 76.4125C41.7179 76.3992 41.7442 76.3838 41.7691 76.3663Z" fill="#231F20"/>
<path id="Vector_51" d="M43.4723 76.4126C43.4918 76.4008 43.5142 76.3945 43.537 76.3945C43.5597 76.3945 43.5821 76.4008 43.6016 76.4126C43.6177 76.4126 43.627 76.4564 43.6154 76.4657L43.5531 76.5211L43.2277 76.6872C43.1535 76.7282 43.0764 76.7637 42.997 76.7934L42.517 76.9849L42.4062 77.0218C42.28 77.0555 42.1566 77.0987 42.037 77.1511C42.0154 77.1586 41.9951 77.1695 41.977 77.1834C41.8466 77.248 41.7116 77.3028 41.5731 77.3472L41.2385 77.4326C41.2226 77.437 41.2059 77.437 41.19 77.4326C41.1528 77.4277 41.1151 77.4342 41.0816 77.451C41.0345 77.4658 40.9868 77.4781 40.9385 77.488C40.9125 77.4914 40.8861 77.4914 40.86 77.488C40.8346 77.488 40.8323 77.4464 40.837 77.4395C40.8416 77.4326 40.837 77.4095 40.8208 77.3957V77.3818C40.9064 77.315 40.9975 77.2555 41.0931 77.2041L41.5246 77.0241C41.5477 77.0241 41.5731 77.0126 41.5962 77.0057L41.9262 76.8718C41.9896 76.8446 42.0563 76.826 42.1246 76.8164L42.1662 76.8049C42.2746 76.7611 42.397 76.7287 42.5031 76.6941L42.6716 76.6341H42.7039H42.7454L43.1493 76.4934C43.1793 76.4818 43.3339 76.4495 43.38 76.4357C43.4112 76.4298 43.4421 76.4221 43.4723 76.4126Z" fill="#231F20"/>
<path id="Vector_52" d="M44.3678 76.8465C44.3808 76.835 44.3967 76.8272 44.4137 76.824C44.4308 76.8207 44.4484 76.8221 44.4647 76.828C44.4647 76.828 44.4878 76.8534 44.4809 76.8603L44.4393 76.9088C44.4393 76.9088 44.2662 77.0334 44.2085 77.0726C44.1509 77.1119 44.0955 77.1419 44.0378 77.1742C43.9201 77.2365 43.807 77.2988 43.6824 77.3565C43.6565 77.3703 43.6295 77.3819 43.6016 77.3911C43.5057 77.4231 43.4123 77.4625 43.3224 77.5088C43.3059 77.5135 43.2908 77.5222 43.2785 77.5342C43.181 77.5886 43.0791 77.6349 42.9739 77.6726L42.7201 77.7465C42.708 77.7499 42.6952 77.7499 42.6832 77.7465C42.6561 77.7382 42.6272 77.7382 42.6001 77.7465L42.4893 77.7719C42.4694 77.7741 42.4492 77.7741 42.4293 77.7719C42.4109 77.7719 42.4108 77.7442 42.4132 77.7395C42.4155 77.7349 42.4132 77.7188 42.4132 77.7095C42.4132 77.7095 42.457 77.6726 42.5032 77.6334C42.5372 77.6045 42.5735 77.5782 42.6116 77.5549L42.9393 77.4165L42.9947 77.4026L43.2439 77.2965C43.2911 77.2752 43.3407 77.2597 43.3916 77.2503C43.4015 77.2527 43.4118 77.2527 43.4216 77.2503C43.5047 77.2157 43.5901 77.188 43.6732 77.1557L43.7978 77.1026H43.8209H43.8509C43.9501 77.0565 44.0493 77.0172 44.1439 76.9642C44.1647 76.9526 44.2755 76.9111 44.3009 76.8949C44.3262 76.8788 44.3562 76.8626 44.3678 76.8465Z" fill="#231F20"/>
<path id="Vector_53" d="M45.6531 76.8024C45.6712 76.7927 45.6914 76.7876 45.712 76.7876C45.7325 76.7876 45.7527 76.7927 45.7708 76.8024C45.7755 76.8078 45.7781 76.8148 45.7781 76.822C45.7781 76.8292 45.7755 76.8361 45.7708 76.8416L45.7108 76.8854C45.697 76.8854 45.4939 77.0054 45.4293 77.0539C45.3647 77.1024 45.2977 77.137 45.2308 77.1739C45.0947 77.2524 44.947 77.3331 44.8016 77.4047C44.7702 77.4194 44.7378 77.4317 44.7047 77.4416C44.5892 77.476 44.4766 77.5192 44.3677 77.5708C44.3488 77.578 44.3315 77.589 44.317 77.6031C44.2916 77.6262 44.0054 77.7624 43.9685 77.7785C43.8717 77.8096 43.7769 77.8466 43.6847 77.8893C43.6731 77.8893 43.6616 77.9054 43.6454 77.9031C43.6293 77.9008 43.5831 77.9193 43.5554 77.9331C43.5196 77.9577 43.4818 77.9794 43.4423 77.9977C43.4204 78.0072 43.397 78.0126 43.3731 78.0139C43.3523 78.0139 43.3316 77.9793 43.3339 77.9724C43.3362 77.9654 43.3154 77.9447 43.3039 77.9331L43.29 77.9193C43.3444 77.8289 43.412 77.7472 43.4908 77.677C43.4908 77.677 43.837 77.467 43.8762 77.4462C43.8973 77.4359 43.9199 77.4289 43.9431 77.4254C43.9431 77.4254 44.2316 77.287 44.2431 77.2847C44.3024 77.26 44.3644 77.2422 44.4277 77.2316C44.4392 77.2337 44.4509 77.2337 44.4623 77.2316C44.5629 77.1933 44.6653 77.1602 44.7693 77.1324C44.8223 77.1162 44.8685 77.0954 44.9193 77.0747H44.9493H44.9839C45.1016 77.0239 45.2147 76.9778 45.3416 76.9201C45.3693 76.9062 45.51 76.8647 45.5423 76.8508C45.5747 76.837 45.637 76.8116 45.6531 76.8024Z" fill="#231F20"/>
<path id="Vector_54" d="M49.5391 76.0293C49.5963 76.0035 49.657 75.9864 49.7191 75.9785C49.7376 75.9785 49.7399 75.9901 49.7191 75.9993L49.6107 76.0547L49.0984 76.2854C48.9784 76.3385 48.8676 76.3893 48.7361 76.4378L47.9999 76.7401L47.8361 76.8047C47.6479 76.8708 47.4637 76.9478 47.2845 77.0354C47.2543 77.0497 47.225 77.0659 47.1968 77.0839C47.1484 77.1139 46.673 77.3677 46.6107 77.4001C46.4538 77.4739 46.3038 77.5593 46.1491 77.6447C46.1294 77.6593 46.1077 77.671 46.0845 77.6793C46.0324 77.6954 45.9839 77.7212 45.9415 77.7554C45.8791 77.7947 45.8215 77.8408 45.7545 77.8777C45.7207 77.8953 45.6851 77.9093 45.6484 77.9193C45.6161 77.9331 45.6068 77.8939 45.6138 77.8824C45.6207 77.8708 45.5999 77.857 45.5884 77.8454V77.8339L45.6345 77.7785C45.6686 77.7367 45.7048 77.6966 45.743 77.6585C45.8284 77.5754 45.9253 77.497 45.9438 77.4831C45.9723 77.4603 46.0024 77.4395 46.0338 77.4208L46.2322 77.2939L46.5715 77.1001C46.6056 77.0819 46.6411 77.0665 46.6776 77.0539C46.6915 77.0401 47.1576 76.8231 47.1784 76.8231C47.2765 76.7805 47.3775 76.7451 47.4807 76.717C47.5013 76.7121 47.5215 76.7052 47.5407 76.6962C47.7115 76.6316 47.8845 76.5762 48.0576 76.5185L48.3207 76.4285L48.3691 76.4147L48.4291 76.3985C48.6368 76.327 48.8468 76.2624 49.0545 76.1885C49.1007 76.1724 49.3315 76.1008 49.3868 76.0801C49.4422 76.0593 49.5138 76.0408 49.5391 76.0293Z" fill="#231F20"/>
<path id="Vector_55" d="M50.7805 76.0895C50.8439 76.0545 50.916 76.0385 50.9882 76.0433C50.993 76.0444 50.9974 76.0467 51.0009 76.0501C51.0045 76.0534 51.0071 76.0577 51.0086 76.0624C51.01 76.067 51.0101 76.072 51.009 76.0768C51.0078 76.0816 51.0054 76.0859 51.002 76.0895C50.9659 76.1199 50.9281 76.1484 50.889 76.1749C50.8659 76.1956 50.4528 76.4056 50.3097 76.4518C50.1666 76.4979 50.0351 76.5649 49.899 76.6179C49.7628 76.671 49.6197 76.7241 49.4882 76.7818C49.3566 76.8395 49.2274 76.9087 49.089 76.971C49.029 76.9987 48.9666 77.0241 48.9043 77.0472C48.6913 77.1268 48.4839 77.2209 48.2836 77.3287C48.2481 77.3434 48.2147 77.3628 48.1843 77.3864C48.1382 77.4279 47.5866 77.7072 47.5128 77.7395C47.3282 77.811 47.1459 77.8918 46.9613 77.9702C46.9372 77.9862 46.9093 77.9958 46.8805 77.9979C46.818 78.0035 46.7579 78.024 46.7051 78.0579C46.6298 78.0925 46.5527 78.1233 46.4743 78.1502C46.4328 78.1622 46.3904 78.1707 46.3474 78.1756C46.3082 78.1756 46.3105 78.1433 46.3197 78.1341C46.329 78.1248 46.3197 78.1041 46.3036 78.0949C46.2874 78.0856 46.3036 78.0949 46.3036 78.081C46.3216 78.0605 46.3417 78.0419 46.3636 78.0256L46.502 77.9056C46.5744 77.8393 46.6515 77.7784 46.7328 77.7233L47.4505 77.3287C47.4887 77.3102 47.528 77.294 47.5682 77.2802L48.1197 76.9941C48.2272 76.94 48.3392 76.8952 48.4543 76.8602C48.4775 76.8542 48.4999 76.8457 48.5213 76.8349C48.7059 76.7472 48.8997 76.671 49.0913 76.6041L49.3913 76.4887L49.449 76.4772L49.5182 76.4587C49.749 76.3802 50.0028 76.3249 50.2359 76.2487C50.2913 76.2325 50.5543 76.1702 50.6143 76.1448C50.6707 76.1294 50.7261 76.1109 50.7805 76.0895Z" fill="#231F20"/>
<path id="Vector_56" d="M36.7616 75.8515C36.7071 75.8366 36.6556 75.8124 36.6093 75.78C36.5955 75.7684 36.6093 75.7546 36.6208 75.7592L36.7316 75.7777C36.7524 75.7777 37.1008 75.8654 37.2232 75.8792L37.5716 75.9346L38.2824 76.0454L38.4393 76.0754C38.6193 76.1123 38.7993 76.14 38.9816 76.1631C39.0123 76.1664 39.0432 76.1664 39.0739 76.1631C39.1247 76.1631 39.6185 76.2369 39.6808 76.2531L40.1424 76.3731C40.1652 76.375 40.1873 76.3821 40.207 76.3938C40.2521 76.4168 40.3003 76.4331 40.3501 76.4423C40.417 76.4584 40.4816 76.4792 40.5485 76.5023C40.5804 76.5154 40.6113 76.5308 40.6408 76.5484C40.6449 76.5499 40.6485 76.5525 40.651 76.556C40.6535 76.5595 40.6548 76.5637 40.6548 76.5681C40.6548 76.5724 40.6535 76.5766 40.651 76.5801C40.6485 76.5836 40.6449 76.5863 40.6408 76.5877C40.6085 76.5877 40.6293 76.6061 40.6293 76.62C40.6302 76.6238 40.6302 76.6277 40.6293 76.6315H40.5647L40.4262 76.6131L40.1955 76.5831L39.8978 76.5254L39.5585 76.47C39.5242 76.4645 39.4903 76.4568 39.457 76.4469C39.4432 76.4469 38.9955 76.3823 38.9678 76.3777C38.8727 76.3659 38.7786 76.3474 38.6862 76.3223H38.6308C38.467 76.2969 38.3055 76.2646 38.1439 76.2346L37.8947 76.1884L37.8508 76.1769L37.7955 76.1631C37.5993 76.1215 37.4055 76.0684 37.2139 76.0177C37.1678 76.0177 36.9601 75.9346 36.9093 75.9184C36.8585 75.9023 36.787 75.8584 36.7616 75.8515Z" fill="#231F20"/>
<path id="Vector_57" d="M36.7913 76.4704C36.6459 76.4704 36.5305 76.4704 36.4175 76.4704C36.3828 76.4704 36.3805 76.445 36.4175 76.4312C36.4988 76.4031 36.5833 76.3853 36.669 76.3781C36.8349 76.3695 37.0012 76.3788 37.1652 76.4058C37.4121 76.4404 37.6798 76.5027 37.8136 76.5304C38.079 76.5881 38.3236 76.6365 38.5936 76.6688C39.1313 76.7404 39.669 76.8258 40.209 76.8996C40.3267 76.9181 40.4398 76.9388 40.5644 76.9619C40.9705 77.0404 41.379 77.105 41.7898 77.165C41.857 77.1761 41.9248 77.1838 41.9928 77.1881C42.1036 77.1881 43.2136 77.3658 43.3567 77.3958L44.4205 77.5988C44.4714 77.6063 44.5216 77.6179 44.5705 77.6335C44.6766 77.6676 44.7855 77.6923 44.8959 77.7073C45.0482 77.7327 45.2005 77.765 45.3575 77.7996C45.4336 77.8158 45.5052 77.8388 45.5882 77.8596C45.6713 77.8804 45.6136 77.9012 45.5882 77.8988C45.519 77.8988 45.5721 77.9196 45.5767 77.9312C45.5813 77.9427 45.5767 77.9312 45.5767 77.9427H45.4313L45.1105 77.9196C44.8798 77.9012 44.6282 77.8758 44.5798 77.8688L43.1236 77.6565C43.0475 77.6565 42.9713 77.6288 42.8928 77.6127L41.7852 77.4488C41.5728 77.4119 41.3582 77.3865 41.1505 77.3335L41.0236 77.3104C40.6567 77.255 40.2944 77.1881 39.9298 77.1235L39.369 77.0335L39.2675 77.0127L39.1405 76.9896L38.4805 76.8719C38.2498 76.8373 38.019 76.7773 37.8159 76.7219C37.7167 76.6919 37.2482 76.5535 37.1236 76.5396C37.0145 76.509 36.9035 76.4859 36.7913 76.4704Z" fill="#231F20"/>
<path id="Vector_58" d="M41.1574 76.6154C41.08 76.5957 41.0071 76.5612 40.9428 76.5139C40.9243 76.5023 40.9428 76.4908 40.9589 76.4977L41.1066 76.5346C41.1366 76.5462 41.6282 76.6408 41.7989 76.6546C41.9697 76.6685 42.1266 76.6939 42.2881 76.7239L43.2851 76.8808C43.3589 76.8923 43.4305 76.9062 43.5158 76.9223C43.7651 76.98 44.0166 77.0215 44.2728 77.0562C44.3149 77.0608 44.3575 77.0608 44.3997 77.0562C44.6831 77.0888 44.9644 77.1381 45.242 77.2038L45.8928 77.3815C45.9242 77.3866 45.9546 77.3968 45.9828 77.4115C46.0433 77.4479 46.1097 77.4737 46.1789 77.4877C46.2728 77.5117 46.3653 77.5409 46.4558 77.5754C46.5007 77.594 46.544 77.6164 46.5851 77.6423C46.6243 77.6631 46.5851 77.6862 46.5851 77.6862C46.5851 77.6862 46.5689 77.7092 46.5712 77.7231C46.5735 77.7369 46.5712 77.7346 46.5712 77.7369C46.5712 77.7392 46.4305 77.7369 46.2851 77.7208C46.1397 77.7046 45.9851 77.7023 45.9551 77.6977L45.8212 77.6769L45.5351 77.6285L45.0574 77.5546C45.0105 77.5464 44.9642 77.5348 44.9189 77.52C44.8958 77.52 44.2589 77.4208 44.2266 77.4069C44.0949 77.3834 43.9653 77.3495 43.8389 77.3054C43.8134 77.2968 43.7871 77.2906 43.7605 77.2869C43.5297 77.2408 43.3128 77.1831 43.0912 77.13L42.7474 77.0538L42.6851 77.0354L42.6089 77.0146C42.3366 76.9546 42.0666 76.8877 41.7966 76.8162L41.372 76.6846C41.3189 76.68 41.192 76.6154 41.1574 76.6154Z" fill="#231F20"/>
<path id="Vector_59" d="M36.902 76.7679C36.8019 76.7493 36.7053 76.7151 36.6159 76.6663C36.5905 76.6525 36.602 76.6363 36.6343 76.6433C36.6667 76.6502 36.7613 76.6686 36.8282 76.6779C36.8951 76.6871 37.5043 76.8002 37.7213 76.8302L38.349 76.9433L39.6251 77.174C39.7197 77.1902 39.8143 77.2086 39.9067 77.2317C40.2274 77.3033 40.5528 77.3609 40.8759 77.4209C40.9313 77.4209 40.9867 77.4417 41.0397 77.4463C41.1274 77.4463 42.0043 77.6217 42.1174 77.6494L42.9574 77.8502C42.9976 77.8571 43.037 77.8679 43.0751 77.8825C43.1579 77.9154 43.2437 77.9402 43.3313 77.9563C43.4513 77.984 43.562 78.0117 43.6913 78.044C43.749 78.0602 43.8067 78.0833 43.8643 78.104C43.922 78.1248 43.8805 78.1386 43.8643 78.1363C43.809 78.1363 43.8505 78.1548 43.8643 78.164L43.0751 78.0671L42.9043 78.0394L42.5351 77.9725L41.9213 77.864L41.7413 77.8225L40.8459 77.6771C40.6774 77.6425 40.5067 77.6148 40.3428 77.564C40.3106 77.5528 40.2774 77.5451 40.2436 77.541C39.9551 77.481 39.6667 77.414 39.3782 77.3517L38.9374 77.2571L38.8567 77.2363L38.7574 77.2133L37.712 76.9825L37.1582 76.8417C37.1143 76.8463 36.9482 76.7771 36.902 76.7679Z" fill="#231F20"/>
<path id="Vector_60" d="M45.6047 77.0931C45.5874 77.0892 45.5719 77.08 45.5603 77.0667C45.5487 77.0534 45.5416 77.0368 45.54 77.0192C45.54 77.0077 45.54 76.98 45.5608 76.98H45.6231C45.6347 76.98 45.8123 77.0377 45.8747 77.0492C45.937 77.0608 45.9947 77.0792 46.0523 77.0977C46.17 77.1323 46.2831 77.1623 46.4123 77.19L46.4931 77.2154C46.583 77.2469 46.6757 77.2693 46.77 77.2823C46.7861 77.2847 46.8024 77.2847 46.8185 77.2823C46.9241 77.2911 47.029 77.3073 47.1323 77.3308C47.2108 77.3584 47.2916 77.3792 47.3631 77.4046C47.3755 77.4049 47.3876 77.4089 47.3977 77.4161C47.4075 77.4258 47.419 77.4334 47.4317 77.4385C47.4443 77.4437 47.4579 77.4462 47.4716 77.4461L47.5754 77.4761C47.5926 77.4853 47.6088 77.4961 47.6239 77.5084C47.6377 77.52 47.6239 77.55 47.6239 77.5523C47.6239 77.5546 47.6239 77.5754 47.6239 77.5892C47.625 77.5938 47.625 77.5985 47.6239 77.6031C47.5476 77.6155 47.4704 77.6209 47.3931 77.6192L47.0516 77.5708C47.0332 77.5668 47.0154 77.5606 46.9985 77.5523L46.74 77.5084C46.69 77.4987 46.6412 77.4832 46.5947 77.4623C46.5857 77.4593 46.5759 77.4593 46.567 77.4623C46.4818 77.4407 46.3978 77.4145 46.3154 77.3838L46.1862 77.3469L46.1654 77.3354L46.1377 77.3238C46.0362 77.2915 45.937 77.2523 45.8377 77.2177C45.8147 77.2177 45.7108 77.1531 45.6854 77.1438C45.66 77.1346 45.6185 77.0954 45.6047 77.0931Z" fill="#231F20"/>
<path id="Vector_61" d="M47.3816 76.6526C47.3424 76.6526 47.317 76.6318 47.2939 76.5764C47.2939 76.5603 47.2939 76.5118 47.3078 76.5072L47.377 76.4795C47.3909 76.4795 47.6078 76.4795 47.677 76.4933C47.7472 76.4996 47.8167 76.512 47.8847 76.5303C48.0232 76.5649 48.1593 76.5995 48.2955 76.6387C48.3255 76.6483 48.3548 76.6598 48.3832 76.6733C48.4789 76.7179 48.5785 76.7535 48.6809 76.7795C48.6984 76.7828 48.7164 76.7828 48.7339 76.7795C48.8487 76.8016 48.9614 76.8333 49.0709 76.8741C49.1539 76.9156 49.237 76.948 49.3224 76.9849C49.3339 76.9849 49.3478 76.9849 49.357 77.0033C49.3663 77.0218 49.4055 77.0356 49.4332 77.0449L49.5439 77.0864C49.5623 77.0966 49.5787 77.1098 49.5924 77.1256C49.6086 77.1372 49.5924 77.1695 49.5924 77.1718C49.5924 77.1741 49.5924 77.1972 49.5924 77.211C49.5924 77.2249 49.5924 77.2226 49.5924 77.2272C49.5037 77.2395 49.4141 77.2434 49.3247 77.2387C49.3247 77.2387 48.9855 77.1649 48.9486 77.1556C48.929 77.1509 48.9103 77.1432 48.8932 77.1326L48.6163 77.0587C48.5619 77.0468 48.5103 77.0249 48.4639 76.9941C48.4542 76.9879 48.4431 76.984 48.4316 76.9826C48.3416 76.9572 48.2539 76.9203 48.1663 76.888C48.1216 76.8717 48.0762 76.8578 48.0301 76.8464H48.0001L47.9701 76.8326C47.8625 76.7989 47.7531 76.7712 47.6424 76.7495C47.6193 76.7495 47.5016 76.6987 47.4716 76.6964C47.4416 76.6941 47.3955 76.6503 47.3816 76.6526Z" fill="#231F20"/>
<path id="Vector_62" d="M48.6505 76.1931C48.6271 76.1948 48.6037 76.1896 48.5831 76.1781C48.5626 76.1666 48.5459 76.1494 48.5352 76.1285C48.5352 76.1123 48.5352 76.0731 48.5352 76.0685C48.5622 76.0587 48.59 76.051 48.6182 76.0454C48.6344 76.0454 48.9021 76.0454 48.9921 76.0593C49.0797 76.0657 49.1668 76.0781 49.2528 76.0962C49.4259 76.1308 49.599 76.1677 49.7698 76.2116C49.8074 76.2207 49.8444 76.2322 49.8805 76.2462C50.0054 76.2929 50.1334 76.3307 50.2636 76.3593C50.285 76.3626 50.3068 76.3626 50.3282 76.3593C50.4718 76.3881 50.6135 76.4251 50.7528 76.47C50.859 76.5139 50.9698 76.5508 51.0782 76.5877C51.0948 76.5904 51.1105 76.5967 51.1244 76.6062C51.1524 76.6284 51.1859 76.6428 51.2213 76.6477L51.3644 76.6939C51.3874 76.704 51.4097 76.7156 51.4313 76.7285C51.4343 76.7297 51.4369 76.7318 51.4387 76.7344C51.4405 76.7371 51.4415 76.7403 51.4415 76.7435C51.4415 76.7467 51.4405 76.7499 51.4387 76.7525C51.4369 76.7552 51.4343 76.7573 51.4313 76.7585C51.4082 76.7585 51.4313 76.7746 51.4313 76.7839H51.3828L51.2767 76.7977C51.2175 76.801 51.1582 76.801 51.099 76.7977C51.099 76.7977 50.6721 76.7285 50.6259 76.7193C50.6011 76.7151 50.577 76.7073 50.5544 76.6962C50.5428 76.6962 50.2128 76.6269 50.2013 76.62C50.1331 76.6037 50.0672 76.5789 50.0052 76.5462C49.9926 76.5402 49.9795 76.5355 49.9659 76.5323C49.8528 76.5023 49.7352 76.4608 49.629 76.4239C49.5713 76.4054 49.5113 76.3939 49.4536 76.3777L49.4236 76.3639L49.3844 76.3846C49.2484 76.3468 49.1105 76.316 48.9713 76.2923C48.939 76.2923 48.789 76.2416 48.7521 76.2393C48.7152 76.2369 48.669 76.1885 48.6505 76.1931Z" fill="#231F20"/>
<path id="Vector_63" d="M50.1597 75.893C50.1297 75.893 50.1159 75.8676 50.1089 75.8192C50.102 75.7707 50.1205 75.7615 50.1297 75.7592C50.1474 75.751 50.166 75.7448 50.1851 75.7407C50.1851 75.7407 50.3443 75.7615 50.3974 75.7684C50.4459 75.7764 50.4937 75.788 50.5405 75.803L50.8289 75.8907L50.8889 75.9161C50.957 75.9511 51.029 75.9774 51.1036 75.9946C51.1156 75.998 51.1284 75.998 51.1405 75.9946C51.219 76.0076 51.2963 76.0277 51.3712 76.0546C51.4297 76.0863 51.4897 76.1148 51.5512 76.14C51.5512 76.14 51.5697 76.14 51.5766 76.1538C51.5836 76.1676 51.6112 76.1792 51.632 76.1861C51.6589 76.1933 51.6851 76.2025 51.7105 76.2138C51.7244 76.2226 51.7368 76.2335 51.7474 76.2461C51.7589 76.2461 51.7474 76.283 51.7474 76.2853C51.7474 76.2876 51.7474 76.3084 51.7474 76.32C51.6838 76.3345 51.6188 76.3422 51.5536 76.343L51.2789 76.3015C51.2649 76.2977 51.2516 76.2915 51.2397 76.283L51.0343 76.2392C50.9948 76.2298 50.9573 76.2134 50.9236 76.1907C50.9199 76.1892 50.916 76.1884 50.912 76.1884C50.9081 76.1884 50.9041 76.1892 50.9005 76.1907C50.8354 76.1695 50.7714 76.1449 50.7089 76.1169C50.6766 76.103 50.642 76.0961 50.6097 76.0846H50.5936L50.5705 76.073C50.492 76.0476 50.4182 76.013 50.3397 75.9946C50.3212 75.9946 50.2405 75.9438 50.2197 75.9392C50.1989 75.9346 50.1712 75.8907 50.1597 75.893Z" fill="#231F20"/>
<path id="Vector_64" d="M32.9837 86.2756C33.2145 86.0448 33.4337 85.8348 33.6599 85.6179C33.743 85.5371 33.8191 85.4517 33.8907 85.3733L34.7837 84.5587C34.9153 84.4387 35.0376 84.3094 35.1576 84.1779C35.3026 84.0029 35.4624 83.8408 35.6353 83.6933C35.7507 83.6079 35.8776 83.9771 35.6953 84.1687C35.3741 84.5085 35.0303 84.8262 34.666 85.1194C34.4353 85.2971 34.2507 85.5117 34.0453 85.7102C33.8399 85.9087 33.5837 86.144 33.3691 86.3656C33.233 86.504 33.0968 86.6402 32.9653 86.781C32.7668 86.9933 32.5684 87.2125 32.3884 87.4387C32.2499 87.6163 32.1299 87.801 32.0076 87.9856L31.9268 88.1079C31.8253 88.2579 31.7745 88.2925 31.696 88.2833C31.6761 88.2845 31.656 88.2845 31.636 88.2833C31.5784 88.2648 31.5784 88.1748 31.636 88.0525C31.8187 87.6688 32.0515 87.311 32.3284 86.9887C32.5337 86.744 32.753 86.5087 32.9722 86.2802L32.9837 86.2756Z" fill="#231F20"/>
<path id="Vector_65" d="M37.7375 85.6871L38.2637 85.2371C38.3283 85.1817 38.3837 85.1194 38.4483 85.0663L39.1406 84.4986C39.2399 84.4132 39.3345 84.3209 39.4245 84.2263C39.5304 84.0961 39.653 83.9805 39.7891 83.8824C39.8814 83.8294 40.0314 84.1755 39.8906 84.3117C39.6416 84.5504 39.3738 84.7688 39.0899 84.9647C38.9215 85.0926 38.7597 85.2289 38.6052 85.3732L38.0768 85.8186L37.7514 86.0978C37.5875 86.2386 37.4237 86.3817 37.2714 86.5317C37.1514 86.6471 37.0406 86.7624 36.9391 86.8986L36.8675 86.9794C36.7752 87.0786 36.7291 87.0948 36.6552 87.0601L36.6045 87.0371C36.5537 87.0048 36.5583 86.9309 36.616 86.8478C36.7991 86.5989 37.0046 86.3671 37.2299 86.1555C37.396 85.994 37.5714 85.8371 37.7422 85.6801L37.7375 85.6871Z" fill="#231F20"/>
<path id="Vector_66" d="M32.2938 64.7819L32.8269 64.2349C32.8915 64.168 32.9515 64.0965 33.0184 64.0295C33.2492 63.7988 33.48 63.568 33.7292 63.3557C33.8353 63.2542 33.9369 63.1503 34.0361 63.0465C34.1561 62.905 34.2907 62.7766 34.4377 62.6634C34.5346 62.5988 34.6177 62.8942 34.47 63.0465C34.2092 63.3142 33.9392 63.5726 33.6507 63.8172C33.4777 63.9649 33.33 64.1472 33.1684 64.3134L32.6469 64.8672C32.5407 64.9826 32.4346 65.098 32.333 65.2157C32.1784 65.3957 32.0123 65.5688 31.8715 65.7534C31.7584 65.8965 31.6592 66.0465 31.5553 66.1942C31.5323 66.2265 31.5115 66.2588 31.4861 66.2911C31.3915 66.4042 31.3453 66.4319 31.2807 66.4226C31.2662 66.424 31.2515 66.424 31.2369 66.4226C31.193 66.4065 31.2 66.3349 31.2369 66.2357C31.3919 65.9323 31.575 65.6441 31.7838 65.3749C31.9384 65.1686 32.1049 64.9713 32.2823 64.7842L32.2938 64.7819Z" fill="#231F20"/>
<path id="Vector_67" d="M35.379 65.8063L35.7205 65.474C35.762 65.4348 35.799 65.3909 35.8405 65.3517L36.302 64.9479C36.369 64.8879 36.4336 64.8256 36.4936 64.7609C36.5672 64.6736 36.6517 64.596 36.7451 64.5302C36.8051 64.4909 36.8813 64.7032 36.7913 64.7956C36.6286 64.9607 36.4551 65.1149 36.272 65.2571C36.1648 65.3504 36.0631 65.4498 35.9674 65.5548L35.6374 65.8894C35.5682 65.9586 35.5036 66.0279 35.439 66.0994C35.3397 66.2079 35.2405 66.3163 35.1528 66.4317C35.0887 66.5232 35.0294 66.618 34.9751 66.7156L34.9382 66.7779C34.8874 66.854 34.8574 66.8679 34.7905 66.8448L34.7443 66.8263C34.6959 66.8032 34.6843 66.7479 34.712 66.6832C34.8043 66.4926 34.9223 66.3156 35.0628 66.1571C35.1666 66.0348 35.2751 65.9263 35.3859 65.8017L35.379 65.8063Z" fill="#231F20"/>
<path id="Vector_68" d="M58.269 56.1669C57.3836 57.7644 56.5915 59.4118 55.8967 61.1008C55.719 61.5231 55.5436 61.9477 55.3751 62.3746L55.2459 62.6954C55.209 62.7946 55.1743 62.8893 55.1397 62.9931C55.0728 63.1985 55.0151 63.4154 54.9551 63.6346C54.7423 64.5551 54.4654 65.4596 54.1267 66.3416C53.9848 66.6861 53.802 67.0123 53.582 67.3131C53.3401 67.6556 53.0043 67.9208 52.6151 68.0769C52.4107 68.1498 52.1952 68.1865 51.9782 68.1854L51.6943 68.1739C51.5997 68.1739 51.5051 68.1485 51.4105 68.1369C51.0303 68.074 50.6641 67.9451 50.3282 67.7562C49.7575 67.4163 49.2845 66.9345 48.9551 66.3577C48.6381 65.8118 48.4003 65.2236 48.249 64.6108C48.0976 64.0119 48.0041 63.3999 47.9697 62.7831C47.9285 62.1657 47.9641 61.5456 48.0759 60.9369C48.1854 60.3319 48.3539 59.7391 48.579 59.167C48.7946 58.6027 49.0404 58.0503 49.3151 57.5123C49.8505 56.4369 50.4505 55.4146 50.9582 54.3554C51.1862 53.8906 51.3888 53.4137 51.5651 52.9269C51.7336 52.4469 51.872 51.9346 52.0059 51.4339C52.2747 50.4347 52.4554 49.4139 52.5459 48.3831C52.562 48.0554 52.5874 47.7277 52.5713 47.4023C52.565 46.423 52.391 45.452 52.0567 44.5316C51.9504 44.2243 51.8255 43.9237 51.6828 43.6316C51.5443 43.3362 51.3643 43.0616 51.2213 42.7685C50.8873 42.1966 50.4952 41.6607 50.0513 41.1693C49.4997 40.5531 49.6197 40.5762 50.192 41.0146C50.3666 41.1417 50.5324 41.2805 50.6882 41.43L50.9836 41.7046C51.0967 41.8027 51.2039 41.9075 51.3043 42.0185C51.8265 42.532 52.2518 43.1355 52.5597 43.8C52.6389 43.9625 52.7098 44.1288 52.772 44.2985L52.8713 44.5523L52.922 44.6769L52.959 44.8085L53.1043 45.3323C53.1528 45.5077 53.1759 45.6877 53.2128 45.8654C53.2766 46.2213 53.3221 46.5802 53.349 46.9408C53.349 47.1185 53.3605 47.2985 53.3651 47.4785V47.7485L53.3536 48.0162L53.3305 48.5516L53.2728 49.0823C53.2428 49.44 53.1736 49.7746 53.1182 50.1346C52.9774 50.8269 52.8136 51.5193 52.6151 52.1793L52.4674 52.68L52.2943 53.1923C52.1697 53.5269 52.0359 53.8593 51.8882 54.18C51.5974 54.8262 51.272 55.4446 50.942 56.0516C50.2867 57.2677 49.6128 58.4539 49.1536 59.7069C48.8684 60.4511 48.7071 61.2368 48.6759 62.0331C48.6586 62.8454 48.7541 63.6563 48.9597 64.4423C49.1425 65.2162 49.5046 65.9363 50.0167 66.5446C50.2625 66.8275 50.568 67.0525 50.9112 67.2033C51.2543 67.3541 51.6266 67.4271 52.0013 67.4169C52.1818 67.4107 52.3583 67.3621 52.5167 67.2751C52.675 67.1881 52.8107 67.0652 52.9128 66.9162C53.1672 66.5742 53.3658 66.1941 53.5013 65.79C53.8105 64.9523 53.9928 64.0477 54.2374 63.1339C54.302 62.9031 54.3713 62.6723 54.4682 62.4416L54.722 61.7885C54.8959 61.3546 55.072 60.9223 55.2505 60.4916C55.6082 59.6285 55.9867 58.77 56.3905 57.9254C57.347 55.8086 58.5591 53.8168 59.9997 51.9946C60.3046 51.6498 60.652 51.3451 61.0336 51.0877C61.4028 50.8339 61.7774 50.5985 62.1574 50.3816C62.9167 49.9408 63.6874 49.5346 64.4536 49.1308C65.9928 48.3231 67.5205 47.5154 68.9951 46.65C70.1323 45.9826 71.2324 45.2538 72.2905 44.4669C73.342 43.6962 74.3256 42.837 75.2305 41.8985C75.4243 41.6908 75.6205 41.4877 75.7959 41.2685C75.9713 41.0493 76.1536 40.8462 76.3174 40.6154C76.9659 39.7823 77.319 39.1893 77.589 38.7831C77.7002 38.6139 77.8212 38.4513 77.9513 38.2962C78.0394 38.1822 78.14 38.0785 78.2513 37.9869C78.3376 37.9031 78.4301 37.8259 78.5282 37.7562C78.6597 37.6916 78.6759 37.8785 78.5859 38.2823C78.5628 38.3839 78.5374 38.4993 78.4982 38.6262C78.459 38.7531 78.4036 38.8846 78.3459 39.0323C78.2095 39.3723 78.0467 39.701 77.859 40.0154C77.2202 41.077 76.4503 42.0539 75.5674 42.9231C74.6791 43.8049 73.7231 44.6159 72.7082 45.3485C70.653 46.802 68.4933 48.1017 66.2467 49.2369L63.7797 50.5385C62.9768 50.9534 62.1993 51.4158 61.4513 51.9231L61.1951 52.1146L60.9643 52.3131C60.8951 52.38 60.8351 52.4469 60.7682 52.5116C60.7013 52.5762 60.6274 52.6846 60.5559 52.77C60.4128 52.9431 60.272 53.1208 60.1382 53.3031C60.0043 53.4854 59.8659 53.6631 59.739 53.8523C59.217 54.5964 58.7333 55.3667 58.2897 56.16L58.269 56.1669Z" fill="#231F20"/>
<path id="Vector_69" d="M41.7022 43.985C42.3622 43.5604 43.0268 43.1473 43.703 42.755C43.9499 42.6119 44.1853 42.4504 44.4368 42.3119C45.3161 41.8204 46.2161 41.3658 47.1322 40.9412C47.5407 40.7565 47.9445 40.5581 48.3599 40.385C48.625 40.2669 48.8989 40.1697 49.1791 40.0942C49.4669 40.0115 49.766 39.9748 50.0653 39.9858C50.2591 39.9858 50.2199 40.1058 50.0837 40.235C49.8953 40.4068 49.6781 40.5443 49.4422 40.6412C49.3153 40.6896 49.1907 40.745 49.0637 40.7958L48.8745 40.8835L48.6807 40.9596C48.4245 41.0658 48.1684 41.1765 47.9099 41.2919L46.3568 42.0165C45.7286 42.3366 45.1185 42.691 44.5291 43.0781C43.8645 43.4842 43.2045 43.8981 42.5491 44.3196C42.1476 44.5804 41.7461 44.8435 41.3537 45.1181C40.7561 45.5312 40.1561 45.9512 39.5976 46.4035C39.1741 46.758 38.7697 47.1347 38.3861 47.5319L38.1391 47.7927C37.8253 48.1089 37.7007 48.1619 37.4837 48.0996C37.4334 48.0899 37.384 48.076 37.3361 48.0581C37.1861 48.0004 37.2114 47.7512 37.4237 47.465C38.1068 46.6605 38.8875 45.9442 39.7476 45.3327C40.3799 44.8573 41.0353 44.4096 41.6907 43.9689L41.7022 43.985Z" fill="#231F20"/>
<path id="Vector_70" d="M53.026 23.4509C57.7015 23.7272 62.3907 23.6756 67.059 23.2963L68.3329 23.174L69.5975 23.0056C70.4444 22.9086 71.2775 22.7379 72.1175 22.6086C72.856 22.4771 73.5829 22.3086 74.319 22.1609C74.7044 22.0917 75.0852 22.0017 75.4729 21.9486L76.059 21.8863C76.2534 21.8609 76.4492 21.8471 76.6452 21.8448C78.2131 21.7897 79.7778 22.0244 81.2606 22.5371L81.8075 22.7309C81.9911 22.7913 82.1713 22.8614 82.3475 22.9409L83.4044 23.4025L84.4267 23.9332L84.6829 24.0648L84.9229 24.2309L85.4167 24.5217C86.086 24.8979 86.709 25.3386 87.3506 25.7517C87.6644 25.9663 87.969 26.1948 88.2736 26.414C88.5783 26.6332 88.8967 26.8525 89.1967 27.0902C91.3475 28.7194 93.4198 30.4663 95.4067 32.2479L95.889 32.6725C96.0436 32.8109 96.2052 32.9494 96.369 33.0856L97.359 33.8956L99.3621 35.5109C100.701 36.584 102.025 37.6709 103.285 38.8386C103.668 39.2171 103.804 39.4225 103.747 39.4502C103.689 39.4779 103.456 39.3509 103.054 39.134C102.653 38.9171 102.099 38.5779 101.439 38.1579C101.114 37.9456 100.761 37.7148 100.396 37.454C100.031 37.1932 99.6575 36.9025 99.2721 36.5956L97.2275 34.9525C96.5467 34.3963 95.8706 33.854 95.1921 33.2517L93.2421 31.5186C92.5775 30.9579 91.929 30.3763 91.2529 29.8294C90.5767 29.2825 89.9121 28.7217 89.2175 28.2002C88.8713 27.9394 88.5367 27.6602 88.1813 27.4132L87.1244 26.654C85.7137 25.6544 84.2224 24.7737 82.666 24.0209L81.9598 23.7048C81.729 23.5963 81.4752 23.5248 81.2329 23.4348L80.8683 23.3032C80.747 23.2568 80.6229 23.2182 80.4967 23.1879L79.7467 22.9894C79.6218 22.9537 79.4946 22.9267 79.366 22.9086L78.999 22.8463C78.7447 22.7953 78.4872 22.7614 78.2283 22.7448C77.9698 22.7263 77.709 22.7009 77.4506 22.6917L76.6706 22.7079H76.4744L76.2806 22.7286L75.8929 22.7725L75.5029 22.8163L75.1175 22.8948C74.859 22.9479 74.6121 22.994 74.3421 23.054L73.539 23.2271C72.4729 23.4786 71.3929 23.6402 70.3221 23.8132C67.9567 24.1525 65.5775 24.3325 63.2006 24.434C60.8236 24.5356 58.4421 24.5402 56.0652 24.4779C54.6021 24.4432 53.1413 24.374 51.6806 24.2932L49.4975 24.1594H49.2321C49.1553 24.1543 49.0782 24.1543 49.0013 24.1594C48.8436 24.1765 48.6886 24.213 48.5398 24.2679C48.2122 24.3886 47.8936 24.5328 47.5867 24.6994C46.6311 25.2293 45.7065 25.8133 44.8175 26.4486C43.9175 27.0809 43.0336 27.7409 42.166 28.4194C40.4283 29.774 38.7436 31.1886 37.1236 32.6632C35.866 33.8056 34.6567 34.9709 33.5144 36.1986C32.9444 36.8102 32.3906 37.4332 31.8829 38.084C31.6344 38.4037 31.4033 38.7365 31.1906 39.0809C31.0891 39.243 31.0004 39.4128 30.9252 39.5886C30.8917 39.6627 30.8662 39.74 30.849 39.8194C30.8452 39.85 30.8452 39.8811 30.849 39.9117C30.849 39.9348 30.849 40.0017 30.849 40.0432C30.9059 40.7392 31.0686 41.4224 31.3313 42.0694C31.5345 42.6005 31.7656 43.1204 32.0236 43.6271C32.2336 44.0471 32.4136 44.384 32.559 44.6632C32.7759 45.0418 32.9552 45.4406 33.0944 45.854C33.1313 45.9948 33.2098 46.1609 33.219 46.2556C33.2813 46.5763 32.3283 45.8171 31.3152 43.994C30.9306 43.3096 30.6063 42.5931 30.346 41.8525C30.2136 41.4664 30.1118 41.0706 30.0413 40.6686C30.0252 40.5648 30.0067 40.4632 29.9952 40.3571L29.9744 40.034C29.963 39.8972 29.9724 39.7595 30.0021 39.6256C30.0284 39.5015 30.0663 39.3802 30.1152 39.2632C30.2852 38.8726 30.4964 38.5013 30.7452 38.1556C30.976 37.8209 31.2229 37.5025 31.4767 37.1932C31.9821 36.5771 32.5152 35.9886 33.0621 35.4117C35.2852 33.1181 37.6408 30.9567 40.1167 28.9386C41.9565 27.3992 43.8828 25.9661 45.886 24.6463C46.4028 24.3114 46.9366 24.0033 47.4852 23.7232C47.7823 23.5726 48.091 23.4461 48.4083 23.3448C48.5965 23.2824 48.7919 23.2444 48.9898 23.2317H49.0775C49.0982 23.2305 49.119 23.2305 49.1398 23.2317H49.2621L49.4929 23.2432C50.6883 23.3148 51.8629 23.3932 53.0444 23.444L53.026 23.4509Z" fill="#231F20"/>
<path id="Vector_71" d="M36.5747 39.6141C36.5376 39.5213 36.4928 39.4318 36.4409 39.3464C36.4247 39.3141 36.3924 39.2979 36.374 39.2656C36.3103 39.154 36.2327 39.0509 36.1432 38.9587C36.1019 38.9212 36.0542 38.8915 36.0024 38.871C35.9355 38.8433 35.864 38.841 35.8155 38.7672C35.767 38.6933 35.9863 38.3587 36.0901 38.3864C36.2673 38.435 36.4228 38.5424 36.5309 38.691C36.6017 38.7689 36.6789 38.8407 36.7616 38.9056C36.8397 38.9894 36.9114 39.0789 36.9763 39.1733C37.0178 39.2287 37.0501 39.2887 37.0893 39.3464C37.1387 39.4346 37.1951 39.5187 37.2578 39.5979C37.3132 39.6533 37.3778 39.6995 37.4332 39.7525C37.4447 39.7641 37.4609 39.7733 37.4701 39.7849C37.507 39.8356 37.4701 39.8818 37.3916 39.9649L37.3316 40.0202C37.3034 40.0478 37.2697 40.0692 37.2328 40.0831C37.1958 40.097 37.1564 40.1031 37.117 40.101C37.0369 40.0832 36.9594 40.0552 36.8863 40.0179C36.8258 39.9798 36.774 39.9295 36.734 39.8702C36.6693 39.7918 36.6186 39.7041 36.5586 39.6256L36.5747 39.6141Z" fill="#231F20"/>
<path id="Vector_72" d="M89.7805 47.1973C88.9728 46.505 88.1305 45.8542 87.2721 45.2265C86.9605 44.9958 86.6213 44.8019 86.3051 44.5781C85.1812 43.7932 84.0132 43.0735 82.8067 42.4227L82.4051 42.2058C82.269 42.1388 82.1282 42.0765 81.9921 42.0142L81.1613 41.645L80.0767 41.2342C79.7121 41.105 79.3474 40.9827 78.9921 40.8235C78.7613 40.7265 78.8421 40.5927 79.0844 40.4981C79.4439 40.3887 79.8279 40.3887 80.1874 40.4981C81.7293 41.0063 83.2021 41.7039 84.5721 42.575L85.8344 43.3504C86.2636 43.6019 86.6859 43.8742 87.099 44.1511C88.0059 44.7581 88.8759 45.4181 89.7344 46.0896L90.5121 46.7288C90.7728 46.9388 91.0267 47.1558 91.2805 47.3773L91.8551 47.8781L92.4159 48.395C92.7921 48.7342 93.1567 49.0873 93.5213 49.4358L94.3844 50.2619C94.6705 50.5227 94.9428 50.7996 95.2151 51.0811C95.3328 51.2035 95.4459 51.3119 95.5705 51.4504C95.9767 51.9511 96.0621 52.1427 95.9813 52.3735C95.9677 52.4277 95.9483 52.4803 95.9236 52.5304C95.8336 52.6735 95.5659 52.5558 95.2313 52.2396C95.0005 52.0088 94.7328 51.7781 94.4859 51.5265L94.1144 51.1596L93.7313 50.7973C93.2282 50.3035 92.6997 49.8211 92.1828 49.325C91.7859 48.9673 91.4028 48.5958 90.9944 48.2473L90.3921 47.7165L89.769 47.2135L89.7805 47.1973Z" fill="#231F20"/>
<path id="Vector_73" d="M94.5853 42.3277C94.7855 41.9797 94.9657 41.6207 95.1253 41.2523L95.3561 40.6985L95.5499 40.1262C95.5999 39.987 95.6423 39.8453 95.6769 39.7016C95.7069 39.5585 95.7392 39.4131 95.7761 39.2723C95.9079 38.7673 96.0097 38.2548 96.0807 37.7377L96.1453 36.9554C96.1591 36.8243 96.1638 36.6925 96.1592 36.5608V36.1685V35.8177C96.1592 35.7 96.1315 35.5869 96.1153 35.4692C96.083 35.2385 96.053 35.0077 96.0115 34.7769C95.9353 34.4908 95.8615 34.2023 95.7807 33.9139C95.6999 33.6254 95.5892 33.3531 95.5199 33.06C95.4738 32.8777 95.5938 32.8477 95.7692 32.9492C96.0184 33.1141 96.2129 33.3495 96.3276 33.6254C96.7838 34.8436 96.9566 36.1497 96.833 37.4446C96.7708 38.2308 96.6598 39.0123 96.5007 39.7846C96.4539 39.9962 96.3953 40.205 96.3253 40.41C96.2607 40.6177 96.2007 40.8254 96.1292 41.0308L95.8822 41.6308C95.8048 41.8329 95.7154 42.0301 95.6145 42.2216L95.2499 42.9323L94.8322 43.6154C94.7769 43.7008 94.7284 43.7885 94.6707 43.8716L94.4884 44.1139L94.1284 44.5962C93.8745 44.91 93.5999 45.2031 93.3392 45.5077C93.1084 45.7269 92.903 45.9462 92.6907 46.1723C92.4784 46.3985 92.2292 46.5831 91.9984 46.7862L91.8415 46.92C91.7884 46.9616 91.7307 46.9985 91.673 47.0377C91.2345 47.3077 91.0615 47.34 90.863 47.1946C90.8162 47.1638 90.7715 47.1299 90.7292 47.0931C90.6092 46.9616 90.7107 46.7308 90.9761 46.5046C91.7851 45.8334 92.5341 45.0929 93.2145 44.2916C93.3478 44.1455 93.4718 43.9913 93.5861 43.83L93.9484 43.3523L94.2668 42.8423C94.3802 42.6765 94.482 42.503 94.5715 42.3231L94.5853 42.3277Z" fill="#231F20"/>
<path id="Vector_74" d="M16.4515 56.0769C16.3753 56.1092 16.3338 56.0146 16.3107 55.8461C16.3066 55.7666 16.3225 55.6872 16.3568 55.6154C16.3997 55.5792 16.446 55.5475 16.4953 55.5208C16.523 55.5069 16.9292 55.5023 17.0699 55.4977C17.202 55.496 17.3338 55.5108 17.4622 55.5415L18.233 55.7031C18.2903 55.7147 18.3456 55.7349 18.3968 55.7631C18.5734 55.8546 18.7649 55.914 18.9622 55.9384C18.9951 55.9499 19.0309 55.9499 19.0638 55.9384C19.2802 55.9441 19.4946 55.9806 19.7007 56.0469C19.8553 56.1323 20.0122 56.1946 20.1622 56.2777C20.1853 56.2777 20.213 56.2777 20.2268 56.3192C20.2638 56.4046 20.3192 56.4 20.3676 56.4161C20.4396 56.4344 20.5093 56.4607 20.5753 56.4946C20.613 56.5231 20.6451 56.5583 20.6699 56.5984C20.6784 56.6243 20.6813 56.6516 20.6785 56.6786C20.6757 56.7057 20.6673 56.7318 20.6538 56.7554C20.6168 56.7877 20.6376 56.8431 20.633 56.8915C20.6344 56.9077 20.6344 56.9239 20.633 56.94C20.4682 57.0165 20.2934 57.0693 20.1138 57.0969L19.7722 57.0761C19.6015 57.0577 19.4238 57.0369 19.3868 57.0369C19.3481 57.0295 19.3117 57.0129 19.2807 56.9884C19.2622 56.9884 18.7568 56.9215 18.7384 56.9146C18.6392 56.88 18.5307 56.8823 18.4476 56.79C18.4317 56.7757 18.4113 56.7675 18.3899 56.7669C18.2167 56.7244 18.047 56.6689 17.8822 56.6008C17.7966 56.5739 17.7095 56.5515 17.6215 56.5338C17.6059 56.5263 17.5911 56.517 17.5776 56.5061C17.5604 56.4946 17.5418 56.4853 17.5222 56.4785C17.32 56.4167 17.1143 56.3674 16.9061 56.3308C16.8576 56.3308 16.6476 56.2038 16.5922 56.2015C16.5368 56.1992 16.4815 56.0631 16.4515 56.0769Z" fill="#231F20"/>
<path id="Vector_75" d="M24.1428 53.7692C24.2374 53.8199 24.1682 53.933 24.0043 54.0922C23.9247 54.1607 23.8297 54.209 23.7274 54.233C23.656 54.218 23.5864 54.1956 23.5197 54.1661C23.3544 53.9865 23.2003 53.7969 23.0582 53.5984C22.9572 53.4631 22.8749 53.3149 22.8136 53.1576C22.6867 52.8415 22.5551 52.5299 22.4444 52.2092C22.4187 52.1348 22.404 52.057 22.4005 51.9784C22.3809 51.7201 22.3242 51.4659 22.232 51.2238C22.2182 51.1822 22.2136 51.1384 22.1697 51.1084C22.046 50.8467 21.968 50.5657 21.939 50.2776C21.962 50.0469 21.9551 49.8161 21.9828 49.5853C21.9828 49.5507 21.969 49.5184 22.0059 49.4838C22.0913 49.403 22.0682 49.3384 22.0682 49.2692C22.0679 49.1707 22.0779 49.0725 22.0982 48.9761C22.1213 48.922 22.1533 48.872 22.1928 48.8284C22.2274 48.7822 22.3613 48.7938 22.3774 48.8076C22.3936 48.8215 22.4836 48.8076 22.539 48.7961C22.5589 48.7939 22.579 48.7939 22.599 48.7961C22.6686 48.8726 22.729 48.9571 22.779 49.0476C22.8436 49.1394 22.9014 49.2359 22.952 49.3361C22.952 49.3361 22.9636 49.3869 22.9867 49.4584C23.0097 49.5299 23.0351 49.6222 23.0628 49.7192C23.1182 49.913 23.1805 50.1115 23.199 50.1507C23.2105 50.1954 23.2105 50.2422 23.199 50.2869C23.199 50.3099 23.4113 50.873 23.4297 50.8961C23.4505 51.0184 23.5174 51.1269 23.4713 51.2699C23.462 51.2937 23.462 51.32 23.4713 51.3438C23.5366 51.5488 23.589 51.7576 23.6282 51.9692C23.6596 52.0741 23.6966 52.1774 23.739 52.2784C23.7413 52.2991 23.7413 52.32 23.739 52.3407C23.7354 52.366 23.7354 52.3916 23.739 52.4169C23.8176 52.6638 23.9164 52.9038 24.0343 53.1346C24.0643 53.1853 24.092 53.4853 24.1359 53.5407C24.1797 53.5961 24.1059 53.7438 24.1428 53.7692Z" fill="#231F20"/>
<path id="Vector_76" d="M27.074 70.5441C26.924 67.8487 26.9217 65.1649 27.0255 62.4672C27.0671 61.4864 27.1063 60.5056 27.2125 59.5249C27.2764 58.8825 27.3743 58.2439 27.5055 57.6118C27.5719 57.2828 27.6661 56.9601 27.7871 56.6472C27.8556 56.4679 27.9505 56.2999 28.0686 56.1487C28.146 56.0415 28.2519 55.9581 28.3742 55.9079C28.4966 55.8578 28.6305 55.8429 28.7609 55.8649L31.9594 56.6772L35.1209 57.4664C36.6025 57.8264 38.1001 58.1587 39.5794 58.4795C40.5301 58.6756 41.4832 58.8718 42.4363 59.061C42.914 59.1487 43.3894 59.2502 43.8648 59.331C44.3401 59.4118 44.8178 59.5018 45.284 59.5618C45.8425 59.6033 45.8125 59.7464 45.284 59.8779C44.4125 60.0039 43.5258 59.9797 42.6625 59.8064C40.6917 59.4695 38.7509 59.0264 36.8125 58.5649C34.874 58.1033 32.9401 57.6095 31.004 57.0902L29.8501 56.7856L28.7101 56.4995C28.6945 56.4957 28.6782 56.4952 28.6623 56.498C28.6464 56.5008 28.6313 56.5068 28.6178 56.5156C28.6046 56.5254 28.593 56.537 28.5832 56.5502C28.5611 56.575 28.5418 56.6021 28.5255 56.631C28.4365 56.7858 28.3668 56.9508 28.3178 57.1226C28.2066 57.501 28.121 57.8865 28.0617 58.2764C27.9371 59.0726 27.8632 59.8918 27.8032 60.6995C27.6336 63.3791 27.5989 66.0656 27.6994 68.7487C27.7294 69.5749 27.7709 70.401 27.8401 71.2202C27.8563 71.4256 27.8771 71.631 27.8978 71.8341C27.8978 71.8964 27.8978 71.901 27.9117 71.931C27.9179 71.9562 27.9306 71.9793 27.9486 71.9979C28.0031 72.0515 28.0635 72.0987 28.1286 72.1387C28.4714 72.3409 28.8322 72.5108 29.2063 72.6464C30.3601 73.0849 31.574 73.431 32.7832 73.7633C33.9925 74.0956 35.2086 74.3887 36.4225 74.6656C38.3101 75.0926 40.1771 75.4341 42.0601 75.7733L43.2994 75.9879C44.0701 76.1402 44.5778 76.2464 44.9286 76.3479C45.174 76.4134 45.4076 76.5169 45.6209 76.6549C45.6922 76.6966 45.7608 76.7429 45.8263 76.7933C45.8932 76.8626 45.7617 76.8972 45.4709 76.9064C45.028 76.913 44.5853 76.8868 44.1463 76.8279C43.2925 76.731 42.4317 76.5972 41.5663 76.4426C40.7009 76.2879 39.8263 76.1287 38.9494 75.9487C37.1955 75.591 35.4255 75.1872 33.6601 74.7372C32.3494 74.3979 31.0409 74.0449 29.7371 73.5995C29.4117 73.4887 29.0863 73.3687 28.7609 73.2418C28.4203 73.1099 28.0908 72.9509 27.7755 72.7664C27.6827 72.708 27.5941 72.6432 27.5101 72.5726C27.3839 72.4694 27.2882 72.3337 27.2332 72.1802C27.2066 72.106 27.191 72.0282 27.1871 71.9495L27.1709 71.8202L27.1455 71.5641C27.1132 71.2226 27.0878 70.8718 27.0648 70.5418L27.074 70.5441Z" fill="#231F20"/>
</g>
</g>
</svg>
