<svg width="120" height="121" viewBox="0 0 120 121" fill="none" xmlns="http://www.w3.org/2000/svg">
<g id="191.Focus">
<path id="Vector" opacity="0.3" d="M105.233 76.2036C105.233 76.2036 107.591 76.8475 108.807 79.0952C110.024 81.3428 106.703 89.2536 103.606 92.189C100.761 94.8821 98.9998 95.1128 98.9998 95.1128C98.9998 95.1128 96.1567 93.3775 95.9882 91.9213C95.8198 90.4652 96.4659 93.4767 99.7913 89.7567C103.117 86.0344 105.233 80.1959 105.233 78.1998V76.2059V76.2036Z" fill="#231F20"/>
<path id="Vector_2" d="M113.035 84.9795C112.592 84.2965 112.126 83.6249 111.639 82.9672C111.464 82.7249 111.272 82.4965 111.094 82.2588C110.474 81.4095 109.818 80.5857 109.114 79.8034C108.807 79.4526 108.468 79.1272 108.136 78.8065C107.912 78.6126 107.691 78.4118 107.467 78.2226L107.132 77.9295C107.019 77.8349 106.899 77.7541 106.781 77.6618C106.636 77.5488 106.668 77.5303 106.83 77.5695C106.911 77.588 107.024 77.6226 107.16 77.6688C107.296 77.7149 107.437 77.7957 107.591 77.8857C108.117 78.2295 108.561 78.6657 109.011 79.088C109.23 79.3049 109.442 79.5288 109.657 79.7526C109.867 79.9788 110.067 80.2165 110.268 80.4518C110.741 81.0218 111.265 81.5872 111.741 82.1757C112.26 82.8265 112.747 83.5026 113.227 84.1834C113.515 84.6057 113.804 85.0303 114.083 85.4595C114.507 86.1103 114.911 86.7772 115.304 87.4395C115.451 87.7003 115.606 87.9541 115.763 88.2057L116.201 88.9811C116.266 89.0941 116.333 89.2049 116.379 89.3318C116.564 89.7888 116.582 89.9503 116.504 90.0957C116.485 90.128 116.471 90.1695 116.448 90.1926C116.377 90.2711 116.217 90.1234 116.024 89.828C115.737 89.3895 115.465 88.9326 115.193 88.4665C114.904 88.0072 114.623 87.5388 114.339 87.068C114.134 86.7149 113.914 86.3688 113.695 86.0203C113.481 85.6695 113.252 85.328 113.021 84.9865L113.033 84.9772L113.035 84.9795Z" fill="#231F20"/>
<path id="Vector_3" d="M89.1738 74.6089C89.1738 74.6089 89.8245 74.8697 90.1938 75.4558C90.4407 75.8504 87.7568 75.825 87.7568 75.825L89.1738 74.6089Z" fill="#231F20"/>
<path id="Vector_4" d="M87.5329 71.8675C87.5329 71.8952 87.5767 72.4814 87.8144 72.6106C88.0521 72.7398 88.509 73.4506 88.509 73.4506L85.9683 73.9122C85.9683 73.9122 87.1844 72.5437 87.2398 72.2391C87.2952 71.9345 87.5329 71.8652 87.5329 71.8652V71.8675Z" fill="#231F20"/>
<path id="Vector_5" opacity="0.3" d="M70.4721 53.0552C68.116 53.0552 66.2075 54.9636 66.2075 57.3198C66.2075 59.6759 68.116 61.5821 70.4721 61.5821C72.8283 61.5821 74.7344 59.6736 74.7344 57.3198C74.7344 54.9659 72.826 53.0552 70.4721 53.0552ZM70.4721 59.549C69.3437 59.549 68.4275 58.6329 68.4275 57.5044C68.4275 56.3759 69.3437 55.4621 70.4721 55.4621C71.6006 55.4621 72.5144 56.3759 72.5144 57.5044C72.5144 58.6329 71.6006 59.549 70.4721 59.549Z" fill="#231F20"/>
<path id="Vector_6" d="M67.8437 60.4353C68.0768 60.6269 68.3283 60.7953 68.6098 60.9222C68.7506 60.9846 68.8891 61.0607 69.0391 61.1023C69.1868 61.153 69.3322 61.2084 69.4845 61.2361C70.0891 61.3815 70.726 61.3907 71.3352 61.2546C71.7806 61.1507 72.1937 60.9499 72.5768 60.7122C72.9183 60.5046 73.2137 60.2276 73.4768 59.9253C73.7329 59.6161 73.9337 59.2607 74.0906 58.8846C74.3929 58.1184 74.4437 57.2692 74.2198 56.4753C74.0191 55.7715 73.5552 55.1461 72.9922 54.6823C72.6275 54.3846 72.2145 54.1446 71.7737 53.983C71.3375 53.8123 70.8852 53.6876 70.4191 53.6184C70.1329 53.5653 70.1537 53.3299 70.4445 53.1176C70.5899 53.0115 70.8068 52.9053 71.0722 52.8776C71.3399 52.8292 71.6491 52.8661 71.9675 52.9653C72.5191 53.1707 73.0337 53.4615 73.4975 53.8261C73.9545 54.1976 74.3422 54.6546 74.6491 55.1623C74.956 55.6723 75.1406 56.2538 75.226 56.8423L75.2652 57.2876C75.2652 57.4353 75.2537 57.583 75.2468 57.7307C75.2468 57.8784 75.2191 58.0238 75.1891 58.1669C75.1591 58.3099 75.1406 58.4553 75.0968 58.5938C74.9099 59.2584 74.6052 59.9092 74.1668 60.4676C73.7329 61.0284 73.1629 61.4876 72.526 61.7853C71.8268 62.113 71.0537 62.2653 70.2922 62.2446C69.5283 62.2238 68.7783 62.0276 68.1045 61.6884C67.2714 61.2592 66.5675 60.5853 66.1291 59.7661C65.7829 59.1546 65.6029 58.4553 65.5614 57.7584C65.5268 57.0592 65.6652 56.3553 65.9329 55.7161C66.3575 54.7261 67.1006 53.8769 68.0652 53.3623C68.2775 53.2515 68.4898 53.1476 68.7229 53.0692C68.9375 53.0023 69.1199 52.9538 69.2768 52.9376C69.4314 52.9146 69.5583 52.9099 69.6645 52.9261C69.8745 52.9446 69.9968 53.0253 70.0891 53.1453C70.1306 53.2007 70.186 53.2561 70.2068 53.3115C70.2437 53.4061 70.1791 53.4938 70.0406 53.5676C69.9714 53.6046 69.886 53.6369 69.7822 53.6761C69.6806 53.7107 69.5629 53.7453 69.4314 53.7869C68.656 54.0153 67.9429 54.4492 67.4122 55.0492C66.8814 55.6446 66.5398 56.4199 66.4798 57.2184C66.3783 58.4023 66.8929 59.6646 67.8506 60.4169L67.8368 60.4353H67.8437Z" fill="#231F20"/>
<path id="Vector_7" d="M71.019 55.9215V50.8031C71.019 50.0969 69.9229 50.0969 69.9229 50.8031V55.9215C69.9229 56.6277 71.019 56.6277 71.019 55.9215Z" fill="#231F20"/>
<path id="Vector_8" d="M71.019 64.2682V59.1751C71.019 58.469 69.9229 58.469 69.9229 59.1751V64.2682C69.9229 64.9744 71.019 64.9744 71.019 64.2682Z" fill="#231F20"/>
<path id="Vector_9" d="M60.0784 58.0537H68.9792C69.6854 58.0537 69.6854 56.9575 68.9792 56.9575H60.0784C59.3723 56.9575 59.3723 58.0537 60.0784 58.0537Z" fill="#231F20"/>
<path id="Vector_10" d="M72.0531 58.0537H78.2746C78.9807 58.0537 78.9807 56.9575 78.2746 56.9575H72.0531C71.3469 56.9575 71.3469 58.0537 72.0531 58.0537Z" fill="#231F20"/>
<path id="Vector_11" d="M71.019 45.8666V41.3343C71.019 40.6281 69.9229 40.6281 69.9229 41.3343V45.8666C69.9229 46.5728 71.019 46.5728 71.019 45.8666Z" fill="#231F20"/>
<path id="Vector_12" d="M83.2913 58.0537H87.4706C88.1767 58.0537 88.1767 56.9575 87.4706 56.9575H83.2913C82.5852 56.9575 82.5852 58.0537 83.2913 58.0537Z" fill="#231F20"/>
<path id="Vector_13" d="M69.7383 68.8533V73.711C69.7383 74.4172 70.8344 74.4172 70.8344 73.711V68.8533C70.8344 68.1472 69.7383 68.1472 69.7383 68.8533Z" fill="#231F20"/>
<path id="Vector_14" opacity="0.3" d="M39.7614 61.1092C36.6944 65.1984 32.4875 60.0569 30.5144 54.3938C29.236 50.7246 29.8775 47.3253 30.3575 45.4723C31.0544 42.7792 34.3337 42.5415 34.3337 42.5415C34.3337 42.5415 32.7137 48.0823 34.7837 53.743C36.8537 59.4061 39.7614 61.1092 39.7614 61.1092Z" fill="#231F20"/>
<path id="Vector_15" d="M105.976 104.581C105.976 104.581 106.463 101.454 100.166 95.6757C99.9925 95.5188 99.3994 95.1104 99.3994 95.1104L102.307 98.7242L105.06 103.536L105.976 104.579V104.581Z" fill="#231F20"/>
<path id="Vector_16" d="M81.2563 71.5882C81.2563 71.5882 85.8164 69.0359 87.2402 70.9051L86.6748 71.0551C86.6748 71.0551 83.0517 71.2466 82.9825 71.4474C82.9133 71.6482 81.2587 71.5882 81.2587 71.5882H81.2563Z" fill="#231F20"/>
<path id="Vector_17" d="M103.779 83.286C103.643 83.6021 103.512 83.9206 103.355 84.2252C103.205 84.5344 103.055 84.8437 102.893 85.146C102.778 85.3675 102.688 85.6029 102.563 85.8198C102.139 86.5929 101.668 87.3406 101.188 88.0767C100.971 88.4021 100.756 88.7298 100.533 89.046C100.251 89.4567 99.9348 89.8514 99.5241 90.1537C99.3971 90.2483 99.4041 90.2252 99.4387 90.0844C99.4548 90.0152 99.4779 89.9137 99.501 89.789C99.531 89.6713 99.5794 89.5467 99.6464 89.4221C99.7087 89.316 99.7594 89.1983 99.8148 89.0875C99.8702 88.9767 99.9394 88.8752 100.002 88.769C100.136 88.5637 100.249 88.3421 100.376 88.1298C100.512 87.9244 100.648 87.719 100.779 87.5067C100.911 87.2967 101.056 87.0914 101.188 86.879C101.347 86.6252 101.497 86.3598 101.633 86.0829C101.765 85.806 101.899 85.5267 102.03 85.2498L102.459 84.3337L102.868 83.406C103.029 83.0229 103.196 82.6398 103.336 82.2498C103.56 81.6614 103.766 81.0613 103.913 80.4567C103.973 80.2213 104.001 79.9837 104.038 79.7483C104.066 79.5129 104.086 79.2798 104.121 79.049C104.13 78.9475 104.128 78.8483 104.139 78.749C104.149 78.6567 104.163 78.5783 104.174 78.5137C104.181 78.4514 104.19 78.4029 104.211 78.359C104.257 78.2737 104.315 78.2206 104.393 78.1698C104.43 78.1467 104.465 78.1167 104.497 78.1029C104.555 78.0775 104.608 78.1029 104.666 78.1721C104.723 78.2437 104.795 78.366 104.82 78.5298C104.871 78.9937 104.906 79.4806 104.82 79.9444C104.749 80.4106 104.629 80.8652 104.502 81.3198C104.299 81.9867 104.061 82.6444 103.803 83.2883L103.784 83.2814L103.779 83.286Z" fill="#231F20"/>
<path id="Vector_18" d="M103.719 78.1005C103.638 77.9067 104.506 75.8436 104.82 76.2567C105.778 77.5167 104.714 79.9421 104.714 79.9421L103.719 78.1005Z" fill="#231F20"/>
<path id="Vector_19" d="M98.5176 86.2075C98.2637 86.3368 95.2199 90.5714 95.9537 91.4852C97.0891 92.8975 99.9599 89.2537 99.9599 89.2537L98.5176 86.2075Z" fill="#231F20"/>
<path id="Vector_20" d="M62.686 41.4887C62.686 41.4887 64.9845 41.4034 65.423 41.6941C65.8614 41.9872 65.423 42.451 65.423 42.451L63.2076 41.9687L62.686 41.4864V41.4887Z" fill="#231F20"/>
<path id="Vector_21" d="M65.0537 46.2081C65.0537 46.2081 66.9645 45.2874 67.7906 45.5043C68.446 45.6774 68.0514 46.2635 68.0514 46.2635L65.0537 46.2058V46.2081Z" fill="#231F20"/>
<path id="Vector_22" d="M34.636 53.8903C34.5622 53.5257 34.4837 53.1634 34.426 52.7965C34.3591 52.4318 34.2991 52.0672 34.2437 51.7003C34.1976 51.4349 34.1399 51.1695 34.1099 50.9018C33.9899 49.9557 33.9345 49.0026 33.9322 48.0495C33.9207 47.6272 33.9414 47.2026 33.9414 46.7826C33.9553 46.5126 33.9622 46.2426 33.9945 45.9726C34.013 45.8388 34.0453 45.7049 34.0868 45.5757C34.133 45.4465 34.1791 45.3195 34.2276 45.188C34.2899 45.0288 34.3014 45.0541 34.3476 45.2041C34.3707 45.278 34.4076 45.3841 34.456 45.5111C34.4768 45.5734 34.5091 45.6426 34.5253 45.7118C34.5391 45.7811 34.5484 45.8549 34.5484 45.9288C34.5414 46.9903 34.553 48.0426 34.5714 49.1249C34.5807 49.7711 34.7099 50.4357 34.8137 51.0888C34.876 51.4465 34.9384 51.8065 35.0076 52.1641C35.0884 52.5195 35.153 52.8795 35.243 53.2326C35.296 53.4518 35.3514 53.6688 35.3976 53.8903L35.5614 54.5457C35.7299 55.2057 35.926 55.8657 36.1384 56.5095C36.3137 57.008 36.5145 57.4834 36.713 57.9634C36.7568 58.0695 36.8007 58.1711 36.8376 58.2818C36.976 58.688 36.9922 58.8311 36.953 58.9488C36.9437 58.9765 36.9391 59.0088 36.9276 59.0272C36.893 59.0872 36.773 58.9488 36.5953 58.6788C36.5307 58.5772 36.466 58.478 36.3991 58.3765C36.3345 58.2726 36.2837 58.1642 36.226 58.058C36.1153 57.8434 35.9953 57.6265 35.8937 57.4026C35.6791 56.9572 35.476 56.498 35.2914 56.0318C35.1645 55.6811 35.0491 55.3257 34.9337 54.9703C34.8276 54.6103 34.7145 54.2549 34.6176 53.8926L34.636 53.888V53.8903Z" fill="#231F20"/>
<path id="Vector_23" d="M37.1952 62.8213C37.1952 62.8213 22.7121 67.5728 18.2929 73.9998C18.2929 73.9998 17.6352 74.9021 17.8636 75.7144C18.0206 76.2682 19.5575 72.9221 24.9367 69.6105C30.3159 66.299 37.1952 62.8213 37.1952 62.8213Z" fill="#231F20"/>
<path id="Vector_24" d="M19.0778 75.8252C19.0847 76.2083 18.2563 76.949 18.0532 79.5613C17.8155 82.6237 18.9324 84.8067 18.9324 84.8067L19.0778 75.8252Z" fill="#231F20"/>
<path id="Vector_25" d="M35.8106 45.1073C35.5359 44.6781 34.8506 42.1142 34.3429 42.8758C33.2906 44.4542 33.6483 47.5142 33.6829 47.4381L35.8106 45.1073Z" fill="#231F20"/>
<path id="Vector_26" d="M36.2124 57.2854C36.2124 57.2854 38.6493 61.8061 39.517 61.4461C40.5347 61.0238 38.4463 56.1177 38.4463 56.1177L36.2124 57.2854Z" fill="#231F20"/>
<path id="Vector_27" d="M61.791 64.9538C61.9894 64.5869 62.1394 64.0999 62.1879 63.6615C62.241 63.2138 62.204 62.7476 62.0979 62.2838C61.8856 61.3538 61.4125 60.4469 60.8725 59.5769C60.3325 58.7022 59.7117 57.8576 59.0979 56.9876C58.791 56.5492 58.491 56.1015 58.2163 55.6169C57.9463 55.1322 57.6879 54.6107 57.591 53.9738C57.5679 53.8607 57.5656 53.7384 57.5656 53.6161C57.5586 53.4961 57.5771 53.3692 57.5979 53.2445C57.6371 52.9953 57.7386 52.7461 57.8725 52.5315C58.1563 52.0976 58.5117 51.8276 58.8786 51.5992C59.6171 51.1538 60.3948 50.9092 61.1679 50.7199C62.5363 50.3992 63.9071 50.2607 65.271 50.1569C66.6371 50.0599 67.9986 50.0138 69.3556 49.9769C70.7125 49.9399 72.0671 49.9192 73.4148 49.8638C74.0886 49.8361 74.7602 49.7969 75.4271 49.7507C76.0917 49.6999 76.7586 49.6261 77.3817 49.4738C77.654 49.4045 77.9263 49.3169 78.134 49.1899C78.2379 49.1299 78.3279 49.0515 78.3671 48.9892C78.4063 48.9292 78.4271 48.853 78.4063 48.7815C78.3879 48.6684 78.1779 48.4699 77.9448 48.3407C77.7117 48.2022 77.444 48.0892 77.1717 47.9899C76.0733 47.5976 74.894 47.3715 73.7286 47.1799C72.2263 46.9422 70.701 46.7945 69.1779 46.6792C67.6548 46.5661 66.1248 46.4992 64.6133 46.4922C64.1448 46.4969 63.9417 46.4738 63.944 46.4022C63.9486 46.333 64.1702 46.2153 64.574 46.0976C65.3794 45.8484 66.8979 45.6499 68.6817 45.7538C70.2602 45.8438 71.834 45.9984 73.4056 46.2338C74.1902 46.3538 74.9748 46.4945 75.7571 46.6745C76.5417 46.8638 77.3217 47.0669 78.111 47.4476C78.3094 47.5469 78.5079 47.6599 78.711 47.8192C78.8125 47.8976 78.914 47.9945 79.011 48.1145C79.1171 48.2461 79.2163 48.433 79.2533 48.613C79.2925 48.7999 79.2786 48.9915 79.2233 49.1715C79.1633 49.3445 79.0502 49.5292 78.9463 49.6353C78.7294 49.8684 78.501 49.9907 78.284 50.0945C77.8525 50.2907 77.4394 50.3899 77.031 50.4753C76.6225 50.5584 76.221 50.6161 75.8194 50.6622C75.4179 50.7084 75.0186 50.7476 74.6217 50.7707C74.2225 50.7915 73.8256 50.8076 73.4286 50.8192C72.6348 50.8422 71.8433 50.8538 71.054 50.8607C69.164 50.8815 67.2417 50.923 65.3263 51.073C64.3686 51.1492 63.4133 51.253 62.4786 51.4145C61.5463 51.5807 60.6163 51.793 59.8017 52.1669C59.5802 52.2707 59.3656 52.3838 59.1763 52.5199C58.9848 52.6515 58.814 52.8084 58.6963 52.9584C58.5902 53.1199 58.5025 53.2838 58.4886 53.4822C58.4725 53.6784 58.484 53.893 58.551 54.1169C58.6686 54.5622 58.9017 55.0169 59.1648 55.4576C59.4279 55.8984 59.7256 56.3322 60.0256 56.7661C60.6256 57.6361 61.2694 58.4945 61.8279 59.4269C62.384 60.3545 62.8825 61.363 63.0648 62.4892C63.1802 63.1745 63.1386 63.9176 62.9333 64.5822C62.834 64.9169 62.7025 65.2492 62.5063 65.5653C62.4071 65.7245 62.2894 65.8792 62.1325 66.0153C61.9779 66.1515 61.7817 66.2692 61.5602 66.3222C61.3386 66.3776 61.1079 66.3615 60.9048 66.3061C60.7063 66.2461 60.5263 66.1607 60.3694 66.0592C60.051 65.8561 59.8017 65.6069 59.571 65.3507C59.1071 64.8407 58.7448 64.2661 58.3917 63.7169C57.3417 62.0622 56.1556 60.4838 54.7756 59.0992C54.0833 58.4115 53.354 57.7584 52.5694 57.1861C51.7848 56.6138 50.954 56.1107 50.084 55.6999C48.7317 55.0561 47.2825 54.6661 45.8217 54.5553C44.3586 54.4445 42.8886 54.6199 41.4879 55.0376C41.3333 55.0861 41.181 55.1345 41.0286 55.1807C40.8763 55.2315 40.7286 55.2938 40.5786 55.3492C40.2763 55.4553 39.9879 55.5938 39.6879 55.7207C38.5871 56.2145 37.9179 56.653 37.4125 56.9069C36.914 57.1722 36.591 57.2807 36.3071 57.3476C36.1779 57.3776 36.021 57.4353 35.9379 57.4445C35.7971 57.4584 35.9102 57.2922 36.2148 56.9345C36.5148 56.5722 37.0756 56.1015 37.8717 55.6076C39.0579 54.8876 40.364 54.2876 41.7671 53.9392C43.1633 53.5699 44.6517 53.4592 46.1263 53.5953C47.5986 53.7499 49.0571 54.1515 50.4048 54.7861C51.0856 55.0907 51.7271 55.4692 52.3571 55.8638C52.9733 56.2769 53.5779 56.7107 54.1386 57.193C55.8256 58.6053 57.2517 60.2876 58.4886 62.0738C58.6479 62.2953 58.7956 62.5215 58.9433 62.7499L59.384 63.4284C59.654 63.8599 59.9448 64.2753 60.261 64.6353C60.4179 64.8176 60.584 64.9769 60.7479 65.1107C60.9094 65.2468 61.0756 65.3392 61.1886 65.3645C61.304 65.3899 61.3433 65.3853 61.4448 65.3253C61.544 65.263 61.6663 65.113 61.7679 64.933L61.791 64.9399V64.9538Z" fill="#231F20"/>
<path id="Vector_28" d="M66.4271 43.238C66.3325 43.1711 66.2402 43.0995 66.1364 43.0442L65.9818 42.9542L65.8179 42.878C65.6056 42.7719 65.3495 42.6818 65.1118 42.6011C64.9341 42.5434 64.7518 42.5134 64.5718 42.4649C63.9395 42.2919 63.2679 42.2088 62.5871 42.1442C62.2848 42.1188 61.9779 42.1165 61.6779 42.1188C61.4841 42.1257 61.2902 42.1211 61.0941 42.1119C60.9971 42.1049 60.9002 42.1049 60.801 42.0818C60.7041 42.0565 60.6071 42.0288 60.5079 42.0011C60.3856 41.9619 60.4018 41.9018 60.5056 41.8003C60.5564 41.7495 60.6302 41.6849 60.7179 41.618C60.7618 41.5857 60.8102 41.5465 60.861 41.5211C60.9118 41.5003 60.9648 41.4842 61.0225 41.4772L61.3225 41.4403L61.4725 41.4218H61.6225C61.8233 41.4149 62.0241 41.4172 62.2248 41.4218C62.6264 41.4357 63.0325 41.4611 63.441 41.5395C63.9256 41.6272 64.4471 41.6503 64.9456 41.7749C65.2202 41.8418 65.4879 41.9249 65.751 42.0195C65.8802 42.0634 66.0141 42.1188 66.1479 42.1765C66.2818 42.2272 66.411 42.2988 66.5379 42.3657C66.8494 42.5411 67.1471 42.7488 67.3987 43.0095C67.7979 43.388 68.0679 43.8865 68.2525 44.3895C68.3887 44.7842 68.5087 45.1811 68.5618 45.5919C68.5756 45.6819 68.5848 45.7719 68.5802 45.8619C68.5756 46.0303 68.5502 46.1411 68.4948 46.2149C68.4464 46.2888 68.3679 46.3257 68.2618 46.3511C68.2133 46.3626 68.1695 46.3788 68.1256 46.3834C67.9918 46.3995 67.8348 46.2565 67.7795 46.0372L67.7148 45.7972C67.6941 45.7165 67.6664 45.6403 67.6548 45.5619C67.641 45.4834 67.6202 45.4072 67.6018 45.3311C67.5856 45.2549 67.5671 45.1788 67.5441 45.1049C67.5071 44.9549 67.4587 44.8119 67.4079 44.6734C67.3756 44.6065 67.3618 44.5326 67.3341 44.4634L67.251 44.2603C67.0687 43.8703 66.8056 43.5034 66.4156 43.2519L66.4248 43.2357L66.4271 43.238Z" fill="#231F20"/>
<path id="Vector_29" d="M64.0963 39.9106C63.8194 39.6037 63.464 39.3798 63.044 39.216C62.8894 39.156 62.7232 39.1237 62.5594 39.0752C61.9847 38.8975 61.3709 38.7775 60.7547 38.699C60.4801 38.6644 60.2009 38.6575 59.9263 38.6483L59.3955 38.6344C59.3078 38.6275 59.2178 38.6321 59.1301 38.609C59.0424 38.5837 58.9547 38.5583 58.8647 38.5306C58.754 38.4937 58.7701 38.4429 58.8647 38.3552C58.9109 38.3114 58.9801 38.2537 59.0609 38.1913C59.1024 38.1613 59.1463 38.1244 59.1924 38.1037C59.2386 38.0875 59.2894 38.076 59.3401 38.0714C60.0717 37.9998 60.8124 38.0321 61.5532 38.1752C61.994 38.2652 62.4647 38.2883 62.9217 38.4013C63.4155 38.5213 63.944 38.7152 64.3778 39.0429C64.6501 39.2367 64.8832 39.479 65.0863 39.7352C65.3909 40.1275 65.6032 40.5706 65.7994 41.0021C65.9517 41.3367 66.1294 41.6575 66.2401 42.0014C66.2655 42.0775 66.2978 42.149 66.3094 42.2275C66.3347 42.3752 66.3347 42.4744 66.307 42.5506C66.2724 42.629 66.2194 42.6821 66.1455 42.7306C66.1109 42.7537 66.0809 42.779 66.0509 42.7952C65.9978 42.8229 65.9401 42.8113 65.8709 42.7744C65.8017 42.7375 65.714 42.6752 65.6586 42.5829L65.5178 42.3821C65.4717 42.3152 65.4394 42.2437 65.3978 42.1767L65.2847 41.9714C65.2455 41.9044 65.2086 41.8352 65.1809 41.766C65.0563 41.489 64.9432 41.2075 64.807 40.949C64.6132 40.5567 64.3709 40.2198 64.0847 39.929L64.0986 39.9129L64.0963 39.9106Z" fill="#231F20"/>
<path id="Vector_30" d="M50.6331 36.8066C48.9577 37.2705 47.31 37.8543 45.7177 38.5743C45.4269 38.7036 45.1408 38.842 44.8569 38.9897C44.5731 39.1328 44.2892 39.2782 44.0077 39.4259C42.0069 40.4436 40.0846 41.6366 38.3538 43.0697C37.5854 43.702 36.8608 44.4013 36.2146 45.142C35.7923 45.6128 35.4254 46.1297 35.0469 46.6305C34.6823 47.1451 34.3384 47.6666 33.9738 48.1905C33.8354 48.3428 33.7592 48.4051 33.7338 48.3866C33.7061 48.3682 33.7177 48.2666 33.7154 48.0774C33.7108 47.8859 33.7361 47.6228 33.8008 47.3159C33.8654 47.0066 34.0061 46.6766 34.2 46.3397C34.2808 46.1874 34.38 46.0513 34.47 45.9059C34.5646 45.7628 34.65 45.6128 34.7584 45.4836C34.9684 45.2159 35.1715 44.9413 35.3954 44.6874L35.7277 44.302L36.0761 43.9328C36.3046 43.6812 36.5538 43.4528 36.7938 43.2174C37.77 42.2805 38.8615 41.482 39.9946 40.7551C41.3538 39.8943 42.7615 38.9897 44.2361 38.2651C45.0415 37.8589 45.87 37.5013 46.7031 37.1551C47.5431 36.8274 48.3854 36.5066 49.2461 36.2413C50.3031 35.9066 51.3761 35.6205 52.4584 35.3828C54.1015 35.0366 55.7815 34.8243 57.45 34.7551L57.9369 34.7389C58.1008 34.7343 58.2554 34.7205 58.4331 34.732L58.6938 34.7413L58.9523 34.7782C59.1277 34.7966 59.2938 34.8543 59.4623 34.8959C60.1315 35.1128 60.72 35.5328 61.1815 36.0289C61.3869 36.2459 61.5808 36.4651 61.74 36.7166C62.04 37.1759 62.1831 37.4989 62.2592 37.7389C62.3331 37.9789 62.34 38.1336 62.3054 38.2789C62.2915 38.3459 62.2846 38.4243 62.2615 38.4705C62.1854 38.6274 61.8761 38.2997 61.4077 37.7159C61.2415 37.4943 61.0638 37.2866 60.8838 37.0882C60.7015 36.892 60.5261 36.6936 60.33 36.5251C59.9446 36.1812 59.52 35.9251 59.0677 35.7982L58.8969 35.7497C58.8392 35.7359 58.7792 35.7313 58.7215 35.722C58.6061 35.6966 58.4861 35.6943 58.3638 35.6897C58.2554 35.6782 58.0915 35.6897 57.9531 35.692L57.5192 35.7036C56.94 35.7266 56.3584 35.7659 55.7792 35.8282C54.9161 35.9182 54.0531 36.0428 53.1969 36.2159C52.3384 36.3774 51.4869 36.592 50.6446 36.8274L50.6354 36.8043L50.6331 36.8066Z" fill="#231F20"/>
<path id="Vector_31" d="M34.5485 50.7383C34.8278 52.086 35.1947 53.4245 35.6516 54.726C35.8178 55.2014 36.0232 55.6629 36.2124 56.1268C36.547 56.946 36.9185 57.7514 37.357 58.5083C37.7955 59.2583 38.2893 60.0083 38.9424 60.4952C39.0139 60.5506 39.0878 60.5922 39.1639 60.6383L39.277 60.696C39.3162 60.7168 39.3255 60.7168 39.3532 60.7283C39.3993 60.7445 39.4455 60.7583 39.4939 60.7606C39.5424 60.7606 39.5885 60.7306 39.6139 60.6914C39.6416 60.6522 39.6601 60.606 39.6716 60.5599C39.6785 60.5322 39.6809 60.5206 39.6878 60.4883C39.697 60.4468 39.7016 60.4029 39.7085 60.3591C39.7293 60.1814 39.7362 59.9922 39.7362 59.8052C39.7293 58.8245 39.5147 57.8275 39.4085 56.8329C39.3993 56.5145 39.4639 56.5283 39.6947 56.7452C39.8101 56.8537 39.9393 57.0245 40.0685 57.2368C40.1309 57.3452 40.2001 57.4629 40.2532 57.5922C40.3039 57.7237 40.3455 57.8645 40.3778 58.0122C40.4885 58.5406 40.5739 59.0737 40.6085 59.6322C40.6247 59.9137 40.6316 60.1975 40.5855 60.5091C40.5739 60.5968 40.567 60.6406 40.5301 60.7975C40.5162 60.8599 40.4909 60.9199 40.4701 60.9799C40.4516 61.0422 40.4262 61.0976 40.3962 61.1506C40.2855 61.3722 40.1078 61.5429 39.8862 61.6283C39.6624 61.7091 39.4178 61.6722 39.1801 61.5983L39.0024 61.5383C38.9355 61.5222 38.9147 61.5014 38.8732 61.4829C38.797 61.446 38.7232 61.4091 38.6562 61.3675C38.3793 61.2014 38.1485 61.0076 37.9385 60.8022C37.5255 60.3891 37.2001 59.9345 36.9116 59.4683C36.2401 58.3445 35.6262 57.1629 35.1439 55.9468C34.6178 54.6106 34.1978 53.2399 33.8585 51.8506C33.6509 50.9945 33.4778 50.1314 33.3416 49.2637C33.1362 47.946 33.0255 46.6029 33.1039 45.2622C33.1362 44.7637 33.1916 44.2676 33.3093 43.7714C33.3716 43.5245 33.4524 43.2752 33.5632 43.0352C33.6209 42.9152 33.6855 42.7976 33.7616 42.6822C33.7962 42.6222 33.8424 42.5691 33.8839 42.5137C33.9324 42.4422 34.0085 42.3752 34.0732 42.306C34.1262 42.2575 34.1816 42.2137 34.2462 42.1791C34.5624 42.0152 34.9409 42.1468 35.2247 42.3752C35.6355 42.7352 35.7185 43.0468 35.7578 43.2614C35.8016 43.4737 35.7624 43.6099 35.7001 43.7252C35.6747 43.776 35.6562 43.836 35.6332 43.866C35.5939 43.9168 35.5316 43.866 35.4162 43.7529C35.3516 43.6999 35.2962 43.626 35.2293 43.5406C35.167 43.4552 35.0747 43.3675 34.9939 43.2752C34.9385 43.206 34.8785 43.1437 34.8185 43.0906C34.7885 43.0629 34.7585 43.0399 34.7262 43.0214C34.6985 43.0006 34.6962 43.0076 34.6824 43.0006C34.6385 42.9868 34.5901 42.996 34.5739 43.0375C34.5901 43.0237 34.4816 43.1852 34.4262 43.2983C34.3685 43.4275 34.3132 43.5591 34.267 43.7022C34.1724 43.986 34.1078 44.2975 34.0639 44.6206C33.9785 45.2668 33.9693 45.9568 34.0062 46.6491C34.0778 48.0037 34.2762 49.3814 34.5762 50.736L34.5532 50.7429L34.5485 50.7383Z" fill="#231F20"/>
<path id="Vector_32" d="M5.42766 64.9744C5.51304 64.8013 5.61227 64.6329 5.7115 64.4644C5.81073 64.2959 5.90766 64.1252 6.01381 63.9729L6.6415 63.0359L7.26919 62.099C7.47458 61.7852 7.71689 61.4967 7.93843 61.1921L8.61919 60.2944L8.95843 59.8467C9.07381 59.699 9.19843 59.5582 9.31843 59.4152C9.80535 58.8429 10.2853 58.2682 10.7769 57.7029L11.8869 56.4959L12.4407 55.8913C12.6323 55.6952 12.8284 55.5059 13.0246 55.3167C15.773 52.619 18.78 50.2052 21.9646 48.0636C23.3884 47.1313 24.8238 46.1944 26.3077 45.3821L27.0184 44.9805C27.2561 44.849 27.5007 44.729 27.743 44.6021C28.23 44.3575 28.7123 44.1059 29.2177 43.8959C29.7207 43.6813 30.2123 43.4482 30.7384 43.2844L31.5161 43.0305C31.6453 42.989 31.7838 42.9682 31.9177 42.9382C32.0538 42.9129 32.1853 42.8759 32.3215 42.8598C32.6607 42.809 32.8084 42.7998 32.8061 42.8252C32.8061 42.8529 32.6538 42.929 32.4069 43.0905C31.9061 43.3998 31.0407 44.0159 29.9446 44.5536L29.2177 44.9159C28.9753 45.0382 28.74 45.1767 28.5023 45.3059C28.0269 45.569 27.54 45.8067 27.0715 46.0859C26.603 46.3605 26.1207 46.6144 25.6592 46.9052C25.1953 47.1913 24.7315 47.4775 24.263 47.7544C22.4169 48.9152 20.6077 50.1544 18.8423 51.4721C16.74 53.0621 14.7415 54.9544 12.8746 56.8952C10.8161 59.0252 8.94458 61.3398 7.31766 63.8136L6.93689 64.3813L6.74766 64.6652L6.57919 64.9536L6.41073 65.2421L6.25612 65.5398L6.1015 65.8375L5.96073 66.1444C5.58227 66.9613 5.27073 67.8129 5.00304 68.6805C4.20689 71.3159 3.7615 74.0805 3.51458 76.8175C3.32996 78.9498 3.30227 81.0521 3.32304 83.1659C3.32766 83.6321 3.34612 84.0867 3.34843 84.5552C3.35073 85.4252 3.35304 85.9975 3.3115 86.4013C3.25843 86.8052 3.18919 87.0405 3.08766 87.2321C3.0415 87.3198 2.99766 87.4352 2.95612 87.4859C2.88227 87.5736 2.80381 87.4421 2.71381 87.1259C2.62612 86.8098 2.51535 86.3136 2.47612 85.6698C2.31689 83.7613 2.30535 81.7952 2.36766 79.8013C2.43458 77.8075 2.60073 75.7836 2.8892 73.7667C3.1015 72.269 3.38996 70.7713 3.78227 69.2921C3.98535 68.5536 4.20227 67.8175 4.47227 67.0929C4.73996 66.3682 5.03535 65.6482 5.40458 64.9559L5.42766 64.9652V64.9744Z" fill="#231F20"/>
<path id="Vector_33" d="M30.0578 67.0469C29.474 67.3631 28.8855 67.6746 28.3132 68.0115L27.4501 68.51L26.6032 69.0338C26.3978 69.163 26.1924 69.2923 25.994 69.4284C25.7955 69.5669 25.597 69.7054 25.394 69.8392C24.6717 70.2984 23.9817 70.7969 23.2824 71.2884C22.6017 71.8054 21.9163 72.3131 21.2701 72.8738C20.677 73.3492 20.144 73.8938 19.5994 74.413C19.267 74.7638 18.9509 75.1284 18.6094 75.47C18.4363 75.6384 18.2794 75.823 18.1086 75.9938C17.9424 76.1692 17.7509 76.3238 17.5709 76.49C17.3378 76.6884 17.3101 76.6169 17.384 76.3469C17.4209 76.2107 17.4786 76.0215 17.5594 75.7977C17.647 75.5784 17.774 75.3431 17.9401 75.11C19.2163 73.5384 20.7324 72.1815 22.3778 71.0023C23.3586 70.2915 24.3532 69.5207 25.3755 68.8307C25.9386 68.4523 26.5178 68.0946 27.0901 67.7323C27.6763 67.3884 28.2509 67.0307 28.844 66.7007L29.9355 66.0892L31.0386 65.5007C32.1509 64.9054 33.2955 64.3584 34.4124 63.793C35.287 63.3661 36.1178 62.8884 36.9832 62.4661C37.1747 62.3738 37.357 62.2723 37.5532 62.1869C38.2894 61.8892 38.5501 61.8615 38.7947 62.0046C38.8501 62.0369 38.917 62.0646 38.9586 62.1038C39.0947 62.233 38.857 62.4961 38.3609 62.7984C37.6247 63.2461 36.8494 63.65 36.0509 64.04C35.2547 64.43 34.4494 64.8269 33.6394 65.2215C33.0417 65.5215 32.444 65.8215 31.844 66.1215C31.2532 66.4377 30.6509 66.7354 30.0694 67.0654L30.0578 67.0469Z" fill="#231F20"/>
<path id="Vector_34" d="M18.3025 82.1574C18.3025 81.5805 18.3187 81.0036 18.3464 80.4267C18.3556 80.2167 18.3417 80.0067 18.3625 79.7967C18.411 79.0582 18.5264 78.3244 18.6464 77.5951C18.7017 77.272 18.734 76.9444 18.7987 76.6259C18.8379 76.4205 18.8771 76.2151 18.9371 76.0121C18.9948 75.809 19.0779 75.6128 19.1564 75.419C19.2094 75.299 19.2533 75.329 19.2971 75.4513C19.3387 75.5736 19.4056 75.7928 19.4079 76.0305C19.4125 76.8705 19.2879 77.6782 19.1725 78.5113C19.1356 78.7605 19.124 79.0167 19.1102 79.2728C19.1033 79.5313 19.1056 79.7897 19.094 80.0459C19.0802 80.6113 19.0664 81.1767 19.0779 81.742L19.0894 82.2659L19.1148 82.7874C19.1425 83.3136 19.1771 83.8444 19.2579 84.3636C19.3294 84.7651 19.4333 85.1505 19.5348 85.5382C19.5579 85.6236 19.5833 85.7067 19.5948 85.7944C19.6456 86.1197 19.6133 86.2351 19.4748 86.3413C19.4425 86.3667 19.4125 86.3944 19.3802 86.4128C19.274 86.4728 19.1402 86.3644 19.0202 86.1359C18.6648 85.4574 18.501 84.6797 18.4087 83.9021C18.3394 83.3228 18.2933 82.739 18.2817 82.1574H18.3025Z" fill="#231F20"/>
<path id="Vector_35" d="M64.7931 68.2814C64.4585 68.1614 64.1216 68.0137 63.7893 67.7875C63.6254 67.6699 63.4547 67.5383 63.3047 67.3583C63.1154 67.1391 62.9908 66.8437 62.9493 66.5575C62.9447 66.4399 62.9493 66.3199 62.9816 66.2068C62.9977 66.1491 63.0231 66.096 63.0531 66.0452C63.0785 65.9922 63.1154 65.9437 63.1523 65.8975C63.187 65.8491 63.2285 65.8076 63.2747 65.766C63.3162 65.7222 63.3647 65.6852 63.4177 65.6529L63.57 65.5491L63.7062 65.4776C64.0085 65.3299 64.2877 65.2445 64.567 65.166C65.1231 65.0091 65.67 64.9214 66.217 64.8406C66.8539 64.746 67.4862 64.6468 68.1208 64.5891C70.357 64.3883 72.5862 64.3145 74.8131 64.236C75.8008 64.2014 76.7931 64.1483 77.7716 64.1022C78.3993 64.0699 79.0293 64.0376 79.6593 64.0052C79.9731 63.9891 80.2893 63.9845 80.6031 63.9914C80.9193 63.996 81.2331 63.9914 81.5493 64.0629C81.7477 64.1229 81.8354 64.1668 81.8308 64.2037C81.8285 64.2429 81.7339 64.2891 81.5747 64.3999C81.2539 64.6283 80.6493 64.896 79.927 64.956C78.6439 65.0345 77.3631 65.1129 76.08 65.1614C74.797 65.2029 73.5116 65.2329 72.2193 65.2583C70.6731 65.2883 69.0762 65.466 67.5185 65.6506C66.7985 65.7383 66.0762 65.8375 65.3793 65.9806C65.0331 66.0522 64.6847 66.1306 64.3731 66.2414C64.2947 66.2691 64.2208 66.2991 64.1493 66.3291L64.0731 66.366L64.0247 66.396C63.96 66.4352 63.9047 66.5091 63.9254 66.5899C63.937 66.6475 63.96 66.7029 63.9923 66.7537C64.0062 66.7699 64.0408 66.8229 64.0754 66.8575C64.1054 66.8968 64.1516 66.9337 64.1885 66.9706C64.5347 67.2522 65.0285 67.4368 65.52 67.5775C66.0162 67.716 66.5354 67.8152 67.057 67.8914C68.6423 68.1152 70.2716 68.1845 71.8754 68.1729C73.1239 68.1614 74.347 68.0645 75.5793 67.9745C75.8516 67.9537 76.1147 67.926 76.3893 67.9076C76.897 67.8752 77.2339 67.8683 77.4716 67.9006C77.5916 67.9191 77.6862 67.9468 77.7647 67.9814C77.8431 68.0206 77.9077 68.0691 77.9654 68.1199C78.0185 68.166 78.0854 68.2076 78.1177 68.2468C78.1708 68.3137 78.0947 68.3806 77.9147 68.4776C77.7347 68.5768 77.4485 68.6437 77.077 68.6922C74.8685 68.9691 72.5193 69.0937 70.1447 69.0337C69.2631 69.0106 68.377 68.9599 67.4862 68.8583C66.5954 68.7522 65.7 68.616 64.7931 68.3114L64.7977 68.2883L64.7931 68.2814Z" fill="#231F20"/>
<path id="Vector_36" d="M79.26 74.6368C80.6262 74.7591 82.0223 74.6784 83.3331 74.2976C83.8131 74.1591 84.2677 73.9584 84.7085 73.7437C85.0985 73.5545 85.4677 73.3307 85.8046 73.0768C86.1346 72.8207 86.4439 72.5253 86.6262 72.1999C86.7162 72.0407 86.7693 71.8745 86.767 71.743C86.767 71.7107 86.76 71.6807 86.7577 71.6507C86.7439 71.6253 86.7462 71.593 86.7277 71.5699C86.7139 71.5445 86.7023 71.5168 86.677 71.4937L86.647 71.4568C86.647 71.4568 86.6262 71.4407 86.6146 71.4337C86.527 71.3599 86.3262 71.3091 86.1277 71.2884C85.9246 71.2653 85.7054 71.2699 85.4862 71.2791C84.7016 71.3253 83.9031 71.5237 83.1231 71.7084C82.62 71.833 82.1216 71.9807 81.6208 72.1214L80.8662 72.3314L80.4877 72.433C80.3585 72.4607 80.2293 72.4837 80.0954 72.4953C79.7516 72.4953 79.8 72.4999 80.0216 72.2922C80.2362 72.0661 80.6654 71.7476 81.2354 71.5284C81.7385 71.3345 82.2485 71.1499 82.7654 70.9814C83.2823 70.8153 83.8062 70.6537 84.3554 70.5614C84.9046 70.4645 85.4585 70.3837 86.077 70.4161C86.1554 70.4207 86.2316 70.4253 86.3146 70.4391C86.3931 70.4484 86.4785 70.4645 86.5639 70.4853C86.7323 70.5245 86.9216 70.5868 87.1131 70.723C87.2146 70.7922 87.2862 70.873 87.3554 70.9537C87.4223 71.0391 87.4823 71.1384 87.5262 71.2376C87.6185 71.4453 87.6347 71.6668 87.6231 71.8653C87.5654 72.3337 87.36 72.6868 87.1385 72.9868C86.9123 73.2868 86.6539 73.5453 86.3816 73.7761C85.8277 74.233 85.2116 74.5814 84.5723 74.8514C83.1623 75.4284 81.6485 75.6499 80.16 75.6314C79.6985 75.6199 79.2531 75.5991 78.7823 75.5391C78.3139 75.4722 77.8547 75.3545 77.4116 75.1722C77.2431 75.103 77.0793 75.0222 76.92 74.9276C76.8416 74.8814 76.7608 74.8284 76.6846 74.7753C76.6131 74.7268 76.5393 74.6714 76.4677 74.616C76.1816 74.3899 75.9139 74.1199 75.7177 73.7876C75.5193 73.4599 75.4039 73.0584 75.4223 72.6661C75.4408 72.2737 75.5677 71.9068 75.7408 71.586C76.0085 71.0807 76.3708 70.6722 76.7446 70.2914C77.1231 69.913 77.5293 69.5714 77.9562 69.2599C78.1408 69.1168 78.3254 68.9876 78.5216 68.8584C79.2739 68.4268 79.5554 68.3714 79.8093 68.4568C79.8646 68.473 79.9293 68.4776 79.9662 68.4937C80.077 68.5284 79.8693 68.8699 79.3823 69.2414C79.2023 69.3799 79.0316 69.5345 78.8493 69.6707C78.667 69.8068 78.4893 69.9476 78.3116 70.0907C77.9608 70.3791 77.6147 70.6745 77.31 70.993C77.0077 71.3114 76.7285 71.6507 76.5554 71.9968C76.3777 72.3453 76.32 72.6707 76.3893 72.9522C76.4377 73.1645 76.5577 73.3791 76.747 73.5822C76.8416 73.6837 76.9477 73.7807 77.0677 73.873C77.1254 73.9191 77.1946 73.9676 77.2593 74.0114C77.317 74.0507 77.377 74.0876 77.4393 74.1245C77.6931 74.2676 77.9908 74.3807 78.2977 74.4637C78.6116 74.5468 78.9162 74.5999 79.2577 74.6184V74.6414L79.26 74.6368Z" fill="#231F20"/>
<path id="Vector_37" d="M82.6568 77.4474C83.5683 77.3089 84.4753 77.0643 85.3383 76.7089C85.6522 76.5797 85.9499 76.4135 86.2499 76.2589C86.7807 75.9889 87.293 75.675 87.7337 75.3035C87.953 75.1189 88.1537 74.9135 88.306 74.7012C88.3868 74.5973 88.4422 74.4889 88.4837 74.385C88.516 74.2835 88.5276 74.1935 88.5114 74.1173C88.4791 73.9904 88.3037 73.8312 88.1122 73.7735C87.9137 73.7112 87.6714 73.7227 87.4314 73.7735C87.1199 73.8427 86.8107 73.9789 86.5083 74.1266C86.4322 74.1635 86.356 74.2004 86.2822 74.242C86.2037 74.2743 86.1253 74.3112 86.0468 74.3458L85.8091 74.4543C85.7283 74.4889 85.6407 74.5143 85.5553 74.5443C85.3291 74.602 85.3545 74.5904 85.4422 74.392C85.5253 74.1889 85.703 73.8127 86.063 73.5658C86.3907 73.365 86.7391 73.1804 87.1407 73.0558C87.2399 73.0235 87.3437 72.9958 87.4545 72.9774C87.5607 72.952 87.676 72.9427 87.7937 72.9358C87.9068 72.922 88.0383 72.9427 88.1607 72.9497C88.2876 72.9773 88.4191 73.0004 88.5437 73.0558C88.6707 73.1135 88.793 73.1735 88.8991 73.2658C88.9545 73.312 89.0076 73.3443 89.0584 73.4043C89.1091 73.4643 89.1599 73.5243 89.206 73.5889C89.2476 73.6604 89.2845 73.7366 89.3168 73.8127C89.3422 73.8912 89.3607 73.972 89.3768 74.0527C89.3953 74.212 89.3907 74.3689 89.3607 74.505C89.2337 75.0497 88.9383 75.375 88.643 75.6566C87.9276 76.3027 87.1568 76.8381 86.3237 77.2466C85.4099 77.6874 84.4499 78.0081 83.4668 78.2181C82.8622 78.3474 82.246 78.4304 81.6299 78.4673C81.1637 78.495 80.6907 78.4997 80.206 78.4304C79.726 78.3612 79.2507 78.2204 78.8168 77.9804C78.4776 77.8027 78.166 77.5581 77.9122 77.2512C77.656 76.9489 77.4737 76.5704 77.4022 76.1689C77.3883 76.0812 77.3791 75.9935 77.3699 75.9058C77.356 75.8181 77.3537 75.7281 77.363 75.6404C77.3768 75.4743 77.4022 75.3404 77.4437 75.2366C77.4807 75.1304 77.5107 75.045 77.5568 74.9827C77.6514 74.8581 77.7391 74.8027 77.843 74.7727C77.8914 74.7589 77.9399 74.7381 77.9814 74.7381C78.1199 74.7335 78.1453 74.9989 78.166 75.3704C78.1868 75.9243 78.346 76.3881 78.6668 76.7389C78.8237 76.9166 79.013 77.0781 79.2437 77.1958C79.4699 77.3181 79.7214 77.4173 79.9914 77.4727C80.393 77.565 80.8037 77.5812 81.2791 77.565C81.7383 77.5512 82.2022 77.5004 82.6591 77.422L82.6637 77.445L82.6568 77.4474Z" fill="#231F20"/>
<path id="Vector_38" d="M84.3946 79.7067C85.2415 79.5036 86.0861 79.229 86.8938 78.8828C87.1892 78.7559 87.4661 78.5944 87.7477 78.4513C88.2415 78.1928 88.7261 77.909 89.1346 77.5651C89.5431 77.2282 89.8777 76.8036 89.8823 76.3905C89.8823 76.3444 89.8708 76.2982 89.8661 76.2521C89.8615 76.2082 89.8315 76.1505 89.8292 76.1321C89.8131 76.0721 89.7531 76.0305 89.6931 76.0167C89.6584 76.0074 89.6515 76.0098 89.5892 76.0005C89.5361 76.0005 89.4854 75.989 89.43 75.9959C89.3192 75.9959 89.2038 76.0121 89.0884 76.0282C88.7908 76.079 88.4954 76.1782 88.2115 76.2959C87.9254 76.4136 87.6623 76.5613 87.3692 76.6882C87.2631 76.7113 87.2031 76.7113 87.1846 76.6882C87.1661 76.6628 87.18 76.6074 87.1984 76.4898C87.2146 76.3674 87.2792 76.2382 87.3692 76.079C87.4684 75.9336 87.6138 75.7951 87.7961 75.6936C88.1215 75.5136 88.4654 75.3728 88.8392 75.2782C89.0238 75.2298 89.22 75.1975 89.4323 75.1905C89.4831 75.1859 89.5431 75.1905 89.5984 75.1905C89.6561 75.1905 89.7023 75.1928 89.7831 75.209C89.8731 75.2274 89.9631 75.2321 90.0323 75.2713C90.1038 75.3082 90.1892 75.3244 90.2492 75.3798C90.3808 75.4721 90.4869 75.5944 90.5631 75.7398C90.5792 75.779 90.5954 75.8182 90.6115 75.8574L90.6438 75.9428C90.6692 75.9982 90.6738 76.0628 90.69 76.1228C90.7015 76.1851 90.7154 76.2451 90.72 76.3075V76.4944C90.7246 76.6213 90.69 76.7367 90.6692 76.8567C90.6392 76.9721 90.5954 77.0759 90.5492 77.1821C90.4938 77.2744 90.4408 77.3713 90.3784 77.4567C90.2538 77.6251 90.12 77.7705 89.9769 77.8998C89.6354 78.2067 89.2823 78.4651 88.9177 78.7074C88.5531 78.9474 88.1792 79.1621 87.7938 79.3444C86.9469 79.7436 86.0769 80.0667 85.1861 80.3251C84.6369 80.4821 84.0807 80.6159 83.5061 80.699C83.2892 80.729 83.0584 80.7498 82.8277 80.7428C82.6084 80.7359 82.3892 80.7198 82.17 80.6921C81.7338 80.6367 81.2931 80.549 80.8731 80.3736C80.55 80.2351 80.2338 80.0505 79.9731 79.7944C79.7123 79.5451 79.5138 79.2405 79.3615 78.929C79.2969 78.7905 79.2323 78.6567 79.1815 78.5136C79.0084 77.9828 79.0223 77.8074 79.1677 77.6482C79.1977 77.6136 79.2254 77.5698 79.2554 77.5467C79.3477 77.4682 79.5415 77.6482 79.6869 77.999C79.9131 78.5136 80.1738 78.9982 80.5361 79.3028C80.7161 79.4436 80.9261 79.5567 81.1638 79.6374C81.3992 79.7205 81.6531 79.7967 81.9231 79.8405C82.1215 79.8751 82.3292 79.8982 82.5369 79.9121C82.6408 79.919 82.7469 79.9236 82.8531 79.9259C82.9477 79.9259 83.0308 79.9259 83.1323 79.9144C83.5292 79.8798 83.9654 79.7874 84.3877 79.679L84.3946 79.6975V79.7067Z" fill="#231F20"/>
<path id="Vector_39" d="M88.9383 80.9183C89.4644 80.8583 89.9975 80.7752 90.5237 80.6506C90.7175 80.6067 90.9021 80.5329 91.0937 80.4844C91.7721 80.309 92.446 80.1013 93.1083 79.8567C93.4037 79.7506 93.6898 79.619 93.9691 79.4806C94.0591 79.4367 94.1467 79.3883 94.2344 79.3421L94.5067 79.2175C94.5991 79.1806 94.6891 79.1344 94.786 79.1067C94.8852 79.0813 94.9844 79.0536 95.0837 79.0283C95.2106 78.9983 95.2267 79.0559 95.1829 79.1921C95.1621 79.2613 95.1252 79.3536 95.0767 79.4575C95.0514 79.5083 95.026 79.5659 94.9914 79.6144C94.9544 79.6583 94.9129 79.7021 94.8644 79.739L94.606 79.9283C94.5183 79.9883 94.4237 80.0367 94.3337 80.0875C94.1491 80.189 93.9621 80.2836 93.7706 80.3736C93.5791 80.4613 93.3875 80.549 93.1891 80.6206C92.9883 80.6898 92.7875 80.7521 92.5798 80.8075C92.0883 80.939 91.6083 81.1536 91.1075 81.2967C90.5583 81.4536 89.9998 81.5806 89.4344 81.6729C89.086 81.7259 88.7329 81.7629 88.3775 81.7859C87.8398 81.8206 87.2952 81.7952 86.7575 81.7213C86.3398 81.6659 85.9175 81.5783 85.5183 81.389C85.4329 81.3452 85.3429 81.3083 85.2667 81.2459C85.1929 81.1906 85.1352 81.1421 85.0914 81.0959C85.0475 81.0521 85.0244 80.999 85.006 80.9575C84.9714 80.8721 84.9737 80.8029 84.9991 80.7221C85.0106 80.6852 85.0198 80.6483 85.036 80.6183C85.0914 80.5213 85.2598 80.5398 85.4698 80.6136C86.0767 80.8421 86.6906 80.9344 87.3737 80.9806C87.8767 81.0059 88.4052 80.9759 88.9337 80.8998L88.9383 80.9206V80.9183Z" fill="#231F20"/>
<path id="Vector_40" d="M83.926 57.8043C84.6344 58.8889 85.4283 59.8882 86.379 60.7559C87.3206 61.6282 88.3752 62.3874 89.4875 63.0797C90.2975 63.5874 91.1467 64.0443 91.9844 64.5359C92.7206 64.9697 93.4614 65.4105 94.1837 65.8836C94.906 66.3566 95.6098 66.8689 96.2906 67.4043C96.976 67.9374 97.6106 68.5305 98.2383 69.1305C98.5383 69.4443 98.8521 69.7443 99.1337 70.0743L99.5652 70.5613L99.9737 71.0666C100.934 72.2666 101.783 73.5589 102.517 74.8882C102.994 75.7397 103.426 76.6166 103.818 77.5097C104.021 77.9551 104.178 78.4166 104.351 78.8713C104.439 79.0974 104.515 79.3305 104.587 79.5636C104.656 79.7966 104.702 80.0389 104.751 80.2789C104.801 80.5813 104.808 80.7174 104.774 80.7197C104.737 80.722 104.651 80.5951 104.488 80.3851C104.134 79.9674 103.622 79.1689 103.174 78.1697C102.399 76.3882 101.485 74.6736 100.401 73.0766C100.142 72.6682 99.8398 72.292 99.5606 71.8974C99.256 71.5236 98.9675 71.1359 98.6398 70.7805C98.0075 70.0489 97.3267 69.3566 96.586 68.7243C94.8275 67.1828 92.6652 66.0174 90.5606 64.792C89.4044 64.1159 88.2414 63.4143 87.1544 62.5882C86.6052 62.182 86.0883 61.732 85.5875 61.2659C85.1006 60.7836 84.6229 60.2897 84.2052 59.7474C83.1506 58.4343 82.3175 56.9759 81.5698 55.4989C81.286 54.9405 81.016 54.3728 80.746 53.812C80.6121 53.5328 80.4783 53.2513 80.3375 52.9813C80.1967 52.7136 80.049 52.4412 79.8829 52.2289C79.8414 52.1759 79.8206 52.1574 79.7837 52.1251C79.7514 52.0951 79.7098 52.0766 79.6683 52.0674C79.5806 52.0651 79.4975 52.1089 79.4283 52.162C79.2437 52.3051 79.0752 52.5543 78.9552 52.8105C78.7083 53.3343 78.5883 53.932 78.5444 54.5251C78.4798 55.4528 78.6021 56.3851 78.8698 57.2643C79.1375 58.1459 79.5414 58.9789 80.056 59.7405C80.1667 59.9113 80.2867 60.0705 80.409 60.2297C80.5267 60.3912 80.6629 60.5413 80.7898 60.7005C81.8006 61.8266 82.1537 62.1659 82.2875 62.5282C82.3198 62.6089 82.3752 62.7012 82.389 62.7589C82.4098 62.8536 82.2829 62.8212 82.0152 62.6943C81.879 62.6343 81.7152 62.5397 81.5329 62.4082C81.3483 62.2789 81.1337 62.1243 80.9144 61.9236C79.6221 60.7397 78.5675 59.1589 78.0644 57.3474C77.8083 56.4451 77.6952 55.492 77.7506 54.5297C77.7806 54.0474 77.8544 53.5651 77.9998 53.0828C78.0737 52.8428 78.159 52.6028 78.2837 52.3651C78.4083 52.1297 78.5467 51.892 78.7729 51.6705C78.8098 51.6289 78.8606 51.5897 78.9067 51.5505C78.9714 51.5043 79.0337 51.4397 79.1098 51.4097L79.3314 51.3036C79.4075 51.2759 79.486 51.2643 79.5644 51.2436L79.6221 51.2297L79.636 51.2251C79.6406 51.2366 79.6452 51.2274 79.6498 51.2297H79.6798C79.719 51.2297 79.7606 51.2228 79.7998 51.2274C79.8783 51.2459 79.9567 51.262 80.0283 51.2966C80.1783 51.3543 80.3075 51.4582 80.4275 51.5713C80.4414 51.5851 80.4575 51.5989 80.476 51.6105L80.5106 51.6497L80.566 51.712C80.6052 51.7559 80.6306 51.7928 80.6652 51.8343C80.7321 51.9151 80.7783 51.9936 80.8314 52.0743C80.9306 52.2312 81.0206 52.3859 81.106 52.5405C81.4452 53.152 81.7267 53.7543 82.0221 54.352C82.6083 55.5451 83.229 56.7036 83.949 57.7905L83.9306 57.8066L83.926 57.8043Z" fill="#231F20"/>
<path id="Vector_41" d="M98.109 86.2838C98.0167 86.0807 97.9082 85.8845 97.8136 85.6815C97.7074 85.483 97.6036 85.2845 97.4905 85.0907C97.4051 84.9499 97.3036 84.8207 97.2159 84.6799C96.9159 84.1815 96.5882 83.6922 96.2305 83.2238C96.0736 83.0138 95.889 82.8269 95.7159 82.633C95.4851 82.3907 95.2359 82.1669 95.109 81.823C95.0767 81.7099 95.1182 81.6892 95.259 81.6753C95.4113 81.6522 95.6444 81.6545 95.8128 81.763C96.3759 82.183 96.8259 82.723 97.209 83.3207C97.4351 83.6807 97.7397 83.9992 97.9867 84.3545C98.2567 84.7469 98.5059 85.153 98.7344 85.573C98.8728 85.8315 99.0021 86.0945 99.129 86.3576C99.3182 86.7592 99.489 87.1676 99.6597 87.5715C99.7959 87.883 99.9528 88.1807 100.091 88.4922C100.121 88.5615 100.147 88.6284 100.165 88.7022C100.239 88.9699 100.179 89.0807 100.038 89.1845C100.004 89.2076 99.9736 89.2353 99.939 89.2538C99.8282 89.3138 99.6828 89.2399 99.5421 89.0807C99.3551 88.8361 99.2028 88.5776 99.0644 88.3122C98.9213 88.0492 98.7828 87.7815 98.6651 87.5069C98.5751 87.3038 98.4874 87.0984 98.3905 86.8953C98.3005 86.6899 98.199 86.4915 98.0951 86.2907L98.1136 86.2792L98.109 86.2838Z" fill="#231F20"/>
<path id="Vector_42" d="M98.9215 89.886C99.8654 88.9352 100.692 87.816 101.416 86.6437C101.682 86.2144 101.912 85.7644 102.155 85.3214C103.008 83.7591 103.756 82.1206 104.278 80.4152C104.504 79.6583 104.672 78.8783 104.742 78.1121C104.781 77.6229 104.776 77.1244 104.663 76.6883C104.633 76.5821 104.605 76.4737 104.568 76.3814C104.536 76.3168 104.55 76.3214 104.511 76.3006C104.467 76.2914 104.363 76.3075 104.262 76.3444C104.16 76.3837 104.058 76.446 103.966 76.5198C103.851 76.6121 103.8 76.656 103.777 76.6398C103.756 76.6237 103.761 76.5406 103.812 76.3975C103.869 76.2567 103.941 76.0491 104.183 75.8298L104.208 75.8091C104.213 75.7929 104.225 75.7952 104.234 75.786L104.296 75.7537C104.335 75.7306 104.388 75.7144 104.444 75.7006C104.495 75.6844 104.568 75.6844 104.633 75.6821C104.705 75.6914 104.783 75.7006 104.852 75.7352C105.002 75.7952 105.113 75.9083 105.189 76.0144L105.219 76.056L105.238 76.086L105.272 76.146C105.295 76.1852 105.321 76.2267 105.339 76.2706C105.473 76.5729 105.517 76.8752 105.549 77.166C105.579 77.4591 105.579 77.7429 105.565 78.0221C105.535 78.5806 105.459 79.1229 105.335 79.6514C105.085 80.706 104.725 81.7191 104.294 82.6998C103.777 83.8721 103.26 85.0952 102.625 86.2398C101.926 87.4952 101.135 88.7044 100.193 89.8098C99.6069 90.4814 98.9631 91.1206 98.19 91.6191C97.8969 91.806 97.5808 91.9698 97.2369 92.0806C96.8954 92.1914 96.5215 92.2514 96.1477 92.2121C95.97 92.1891 95.7577 92.1544 95.5661 92.0367C95.3769 91.9214 95.2315 91.7391 95.1484 91.5498C94.9892 91.1644 95.0054 90.7906 95.04 90.4444C95.1023 89.9021 95.2454 89.3991 95.4115 88.9052C95.5777 88.4114 95.7831 87.9383 96.0231 87.4767C96.1292 87.2737 96.2331 87.0752 96.3577 86.8767C96.8146 86.1406 97.1469 86.0114 97.3961 86.016C97.4561 86.0183 97.5254 86.016 97.5669 86.0298C97.6384 86.0575 97.6246 86.1452 97.5715 86.2837C97.5138 86.4221 97.4261 86.6321 97.2831 86.8814C96.8469 87.6152 96.4846 88.446 96.1892 89.2767C96.0461 89.6921 95.9261 90.1191 95.88 90.5183C95.8569 90.7167 95.8523 90.9106 95.88 91.056C95.9077 91.2083 95.9584 91.2706 95.9908 91.2914C96.0069 91.3306 96.3277 91.3906 96.5746 91.3444C96.8354 91.3075 97.1123 91.2129 97.3823 91.0721C97.9246 90.786 98.4392 90.3544 98.9077 89.8744L98.9238 89.8883L98.9215 89.886Z" fill="#231F20"/>
<path id="Vector_43" d="M113.361 85.3468C112.865 84.493 112.316 83.6691 111.746 82.8568C111.536 82.5637 111.296 82.2914 111.083 81.9984C110.317 80.9807 109.514 79.9837 108.651 79.0376C108.466 78.823 108.259 78.6245 108.058 78.4237C107.853 78.2253 107.656 78.0222 107.444 77.8376C107.172 77.5999 106.904 77.3553 106.641 77.1037C106.507 76.9814 106.369 76.8638 106.249 76.7276C106.129 76.5891 106.009 76.4484 105.893 76.3076C105.75 76.1276 105.833 76.0722 106.066 76.0953C106.184 76.1068 106.339 76.1345 106.519 76.1807C106.606 76.2061 106.706 76.2291 106.796 76.273C106.883 76.3168 106.973 76.3722 107.059 76.4345C107.661 76.8914 108.222 77.3991 108.75 77.9391C109.02 78.2022 109.276 78.4814 109.528 78.7653C109.782 79.0468 110.022 79.3399 110.253 79.6445C110.532 80.0045 110.834 80.3553 111.127 80.7153L111.577 81.2507C111.72 81.4353 111.863 81.6199 112.004 81.8022C112.625 82.6122 113.19 83.4637 113.742 84.3199C114.067 84.8576 114.399 85.3884 114.699 85.9399C114.815 86.1476 114.935 86.353 115.048 86.563L115.373 87.1976C115.597 87.6176 115.786 88.0514 115.999 88.4737C116.308 89.1384 116.656 89.7707 116.922 90.4491C116.979 90.5991 117.051 90.7399 117.095 90.8945C117.136 91.0376 117.166 91.1599 117.187 91.2614C117.206 91.3653 117.208 91.453 117.208 91.5245C117.208 91.6699 117.18 91.7622 117.132 91.843C117.111 91.8799 117.093 91.9261 117.072 91.9491C117.003 92.0299 116.827 91.8314 116.585 91.4622C116.511 91.3191 116.428 91.1807 116.361 91.0353C116.285 90.8922 116.209 90.7491 116.13 90.6061C115.976 90.3199 115.856 90.0176 115.701 89.7268C115.551 89.4337 115.417 89.1314 115.265 88.8384C115.113 88.543 114.963 88.2476 114.81 87.9499C114.328 87.0845 113.88 86.1937 113.345 85.3537L113.363 85.3422L113.361 85.3468Z" fill="#231F20"/>
<path id="Vector_44" d="M102.545 99.9752C102.332 99.6337 102.118 99.2921 101.887 98.9621C101.665 98.6252 101.421 98.3044 101.181 97.9814C101.008 97.7414 100.793 97.5406 100.613 97.3075C100.454 97.1021 100.281 96.9106 100.11 96.7144C99.9392 96.5183 99.7707 96.3221 99.5884 96.1375C99.4084 95.9506 99.233 95.7567 99.0484 95.5744L98.4807 95.039C98.3145 94.8775 98.1276 94.7414 97.9476 94.596C97.7653 94.4552 97.5853 94.3075 97.3938 94.1829C96.9138 93.8414 96.4176 93.5229 95.9953 93.0821C95.8615 92.9483 95.9122 92.9114 96.0969 92.9067C96.1892 92.9067 96.3207 92.909 96.473 92.9229C96.5492 92.9298 96.6322 92.939 96.7176 92.9529C96.7615 92.9598 96.8007 92.9714 96.8492 92.976C96.8884 92.9944 96.9276 93.0106 96.9669 93.0314C97.2438 93.1767 97.5069 93.3406 97.7722 93.5067C98.033 93.6798 98.273 93.8783 98.5176 94.0744C98.6376 94.1737 98.7599 94.2706 98.8799 94.3721L99.2238 94.6906C99.4522 94.9029 99.6784 95.1221 99.8838 95.3598C100.142 95.6321 100.403 95.909 100.666 96.1883C100.798 96.329 100.934 96.4629 101.063 96.606C101.188 96.7514 101.315 96.8967 101.439 97.0421C101.716 97.3583 101.958 97.7021 102.215 98.0321C102.457 98.3737 102.701 98.7152 102.932 99.0637L103.35 99.7121L103.749 100.37C103.955 100.7 104.135 101.046 104.331 101.381C104.518 101.72 104.705 102.059 104.889 102.396C105.032 102.659 105.185 102.913 105.339 103.167C105.491 103.421 105.635 103.679 105.778 103.938C105.842 104.051 105.909 104.161 105.965 104.279C106.172 104.72 106.172 104.891 106.038 105.066C106.006 105.108 105.978 105.154 105.944 105.184C105.826 105.288 105.625 105.163 105.413 104.874C105.115 104.438 104.827 103.984 104.559 103.515C104.425 103.28 104.294 103.042 104.165 102.802C104.033 102.564 103.899 102.324 103.768 102.084C103.574 101.727 103.364 101.378 103.168 101.023C102.953 100.679 102.755 100.321 102.528 99.9844L102.545 99.9729V99.9752Z" fill="#231F20"/>
<path id="Vector_45" d="M30.0945 55.2703C29.8153 54.4395 29.5892 53.5926 29.4322 52.7341C29.3722 52.4203 29.2984 52.111 29.2569 51.7949C29.1161 50.6803 29.0815 49.5518 29.1807 48.4349C29.1945 48.188 29.2338 47.9387 29.2522 47.6918C29.2938 47.4449 29.3215 47.198 29.3745 46.958C29.4322 46.6464 29.5084 46.3349 29.5961 46.0303C29.7092 45.7303 29.8545 45.4441 30.0184 45.1718C30.1199 45.001 30.1615 45.0518 30.1869 45.2364C30.1984 45.3287 30.2099 45.4557 30.2145 45.6034C30.2192 45.751 30.2353 45.9241 30.2145 46.0949C30.0876 46.6926 30.0092 47.2926 29.9492 47.8972C29.873 48.5018 29.8384 49.1157 29.8245 49.7387C29.8061 50.4864 29.9422 51.2572 30.0807 52.0072C30.233 52.8357 30.4361 53.6572 30.6853 54.4649C30.8376 54.9634 31.0176 55.4549 31.2115 55.9372C31.5138 56.6664 31.8507 57.3887 32.2615 58.058C32.5799 58.5772 32.9699 59.0318 33.353 59.4818C33.4361 59.5834 33.5307 59.6664 33.6161 59.768C33.9369 60.128 34.013 60.2618 33.9507 60.4834C33.9369 60.5341 33.9299 60.5895 33.9092 60.6333C33.8469 60.7787 33.5976 60.7372 33.2884 60.4949C32.8407 60.1326 32.4184 59.7126 32.0676 59.2349C31.7145 58.7595 31.403 58.2472 31.1238 57.721C30.7084 56.9387 30.3692 56.1149 30.0692 55.2841L30.0876 55.2749L30.0945 55.2703Z" fill="#231F20"/>
<path id="Vector_46" d="M31.3982 49.3418C31.4767 49.268 31.5575 49.1941 31.6359 49.1226C31.6636 49.0972 31.6867 49.0626 31.7167 49.0372C31.8205 48.9472 31.9382 48.8688 32.049 48.788C32.0998 48.7511 32.1436 48.7095 32.1875 48.668C32.2428 48.6149 32.2982 48.5526 32.3836 48.5318C32.409 48.5249 32.4413 48.5803 32.4598 48.6426C32.4782 48.7072 32.4921 48.7764 32.4644 48.8064C32.3651 48.908 32.2613 49.0118 32.1321 49.0949C32.0559 49.1457 31.9982 49.2241 31.9336 49.2888C31.8621 49.3603 31.7882 49.4341 31.7144 49.5057C31.6705 49.5518 31.6267 49.5957 31.5851 49.6441C31.5251 49.718 31.4536 49.7849 31.4028 49.8657C31.3636 49.928 31.3382 49.9972 31.3059 50.0595C31.299 50.0734 31.2944 50.0872 31.2851 50.1011C31.2551 50.1495 31.2298 50.1541 31.1628 50.138L31.1167 50.1264C31.0682 50.1103 31.0405 50.0688 31.0405 50.0157C31.0451 49.9372 31.0567 49.8588 31.0775 49.7849C31.1005 49.7111 31.1421 49.6511 31.1813 49.5865C31.2367 49.4918 31.3151 49.4134 31.389 49.3349L31.3959 49.3395L31.3982 49.3418Z" fill="#231F20"/>
<path id="Vector_47" d="M32.1621 51.7466C32.2105 51.6982 32.2705 51.659 32.3236 51.6151C32.3421 51.599 32.3582 51.5782 32.3767 51.5643C32.4482 51.5136 32.5221 51.4605 32.5913 51.4097C32.6213 51.3866 32.649 51.3589 32.6767 51.3313C32.7113 51.2966 32.7413 51.2574 32.7898 51.239C32.8198 51.2274 32.8959 51.3682 32.8636 51.412C32.8036 51.4882 32.739 51.5574 32.6559 51.6128C32.6051 51.6451 32.5752 51.7005 32.5359 51.7443C32.4921 51.7905 32.4482 51.839 32.4021 51.8874C32.3744 51.9151 32.3444 51.9451 32.319 51.9751C32.2775 52.0213 32.2359 52.0651 32.2036 52.1159C32.1782 52.1551 32.169 52.2059 32.1528 52.2497C32.1482 52.259 32.1459 52.2682 32.139 52.2774C32.1159 52.3074 32.0928 52.3074 32.0328 52.2774L31.9913 52.2566C31.9475 52.2313 31.9198 52.1966 31.9175 52.1597C31.9059 52.0489 31.9659 51.9751 32.0167 51.899C32.0582 51.8436 32.1067 51.7928 32.1528 51.742L32.1575 51.7466H32.1621Z" fill="#231F20"/>
<path id="Vector_48" d="M32.9217 56.1681C32.984 56.0897 33.0463 56.0112 33.1155 55.9374C33.1386 55.9097 33.1548 55.8774 33.1802 55.852C33.2725 55.762 33.3694 55.6766 33.4617 55.5889C33.5009 55.5497 33.5355 55.5058 33.5655 55.4597C33.6048 55.402 33.6348 55.3327 33.7109 55.3074C33.7571 55.2912 33.9671 55.552 33.9278 55.6143C33.8517 55.725 33.7663 55.8266 33.6486 55.9097C33.5771 55.9581 33.5471 56.0412 33.4963 56.1081C33.4409 56.182 33.3832 56.2558 33.3278 56.3274C33.2932 56.3735 33.2586 56.4197 33.2286 56.4681C33.1802 56.5397 33.134 56.6135 33.0994 56.692C33.074 56.7543 33.0694 56.8235 33.0555 56.8881C33.0532 56.902 33.0532 56.9181 33.0486 56.932C33.0302 56.9827 33.0002 56.9874 32.9009 56.962L32.834 56.9435C32.7602 56.9204 32.7071 56.8743 32.6978 56.8258C32.6748 56.6804 32.6978 56.542 32.7532 56.4197C32.7971 56.3297 32.8548 56.2466 32.9102 56.1612L32.9194 56.1658L32.9217 56.1681Z" fill="#231F20"/>
<path id="Vector_49" d="M105.326 89.8164C105.531 89.521 105.755 89.2372 105.939 88.9234L106.226 88.4618L106.486 87.9818C106.549 87.8641 106.609 87.7464 106.666 87.6264C106.719 87.5041 106.772 87.3818 106.83 87.2618C107.246 86.4195 107.603 85.5403 107.922 84.6449C108.069 84.2503 108.171 83.8372 108.284 83.4334C108.349 83.1726 108.427 82.9141 108.503 82.6557C108.577 82.3949 108.658 82.1387 108.773 81.8872C108.842 81.7303 108.866 81.758 108.898 81.9126C108.916 82.0095 108.939 82.118 108.96 82.231C108.979 82.3603 108.981 82.5103 108.965 82.6672C108.928 82.9441 108.893 83.2234 108.847 83.498C108.787 83.7703 108.713 84.0403 108.644 84.3103C108.492 84.848 108.328 85.3857 108.104 85.9072C107.841 86.5303 107.61 87.1926 107.319 87.8226C107.156 88.1664 106.978 88.5034 106.796 88.838C106.597 89.1634 106.419 89.5026 106.196 89.8141C106.062 90.008 105.937 90.2064 105.794 90.3934L105.362 90.9518C105.139 91.2287 104.892 91.4872 104.656 91.7526C104.396 91.9949 104.153 92.258 103.89 92.4911C103.682 92.6711 103.486 92.8603 103.286 93.0472L102.642 93.5549C102.547 93.6334 102.45 93.698 102.344 93.7603C102.296 93.788 102.249 93.8134 102.208 93.8364C102.164 93.8549 102.122 93.8687 102.086 93.8826C102.009 93.908 101.947 93.9241 101.889 93.9311C101.779 93.9449 101.7 93.9241 101.622 93.8757C101.585 93.8526 101.546 93.8364 101.518 93.8111C101.43 93.7303 101.534 93.5457 101.758 93.3103C102.466 92.6964 103.212 92.1172 103.897 91.4364C104.165 91.1987 104.389 90.9172 104.636 90.6564C104.76 90.5249 104.862 90.3772 104.977 90.2364C105.086 90.0934 105.208 89.9572 105.307 89.8072L105.323 89.8164H105.326Z" fill="#231F20"/>
<path id="Vector_50" d="M101.534 91.0813C101.502 90.9982 101.469 90.9128 101.439 90.8298C101.428 90.7998 101.405 90.7767 101.395 90.7467C101.363 90.6359 101.347 90.5159 101.315 90.4098C101.301 90.3613 101.28 90.3175 101.257 90.2759C101.227 90.2205 101.188 90.1721 101.195 90.0982C101.195 90.0544 101.46 89.9828 101.508 90.0336C101.587 90.1282 101.656 90.2275 101.682 90.3521C101.695 90.4282 101.762 90.4767 101.792 90.5436C101.827 90.6175 101.864 90.6913 101.901 90.7652C101.924 90.8113 101.947 90.8575 101.972 90.9013C102.012 90.9659 102.046 91.0375 102.095 91.0975C102.134 91.1413 102.194 91.169 102.235 91.2105C102.245 91.2198 102.256 91.2267 102.265 91.2359C102.293 91.2752 102.279 91.3075 102.208 91.3813L102.159 91.4321C102.104 91.4851 102.039 91.5128 101.988 91.5059C101.917 91.4944 101.845 91.4759 101.792 91.4436C101.742 91.409 101.698 91.3675 101.658 91.3213C101.603 91.2521 101.568 91.1667 101.525 91.0882L101.534 91.0813Z" fill="#231F20"/>
<path id="Vector_51" d="M103.511 87.7996C103.502 87.7535 103.493 87.7096 103.481 87.6635C103.477 87.6473 103.468 87.6335 103.463 87.6173C103.449 87.5596 103.44 87.4996 103.421 87.4442C103.414 87.4188 103.401 87.3981 103.389 87.375C103.373 87.3473 103.347 87.3219 103.352 87.285C103.352 87.2619 103.502 87.2112 103.528 87.2412C103.567 87.2942 103.599 87.3519 103.611 87.4212C103.618 87.4627 103.648 87.4927 103.666 87.5296C103.684 87.5712 103.703 87.6127 103.719 87.6542C103.731 87.6796 103.738 87.7073 103.747 87.7327C103.761 87.7719 103.772 87.8135 103.791 87.8504C103.807 87.8781 103.832 87.9012 103.851 87.9265C103.855 87.9312 103.86 87.9358 103.864 87.9427C103.878 87.9658 103.869 87.9796 103.83 88.0073L103.802 88.0258C103.77 88.0442 103.738 88.0512 103.717 88.0396C103.654 88.0073 103.613 87.9635 103.576 87.9127C103.551 87.8758 103.525 87.8388 103.504 87.7973H103.509L103.511 87.7996Z" fill="#231F20"/>
<path id="Vector_52" d="M105.034 83.8535C105.016 83.7912 105.014 83.7242 105.002 83.6596C104.997 83.6365 104.984 83.6181 104.981 83.595C104.972 83.5119 104.967 83.4265 104.956 83.3481C104.951 83.3135 104.937 83.2812 104.924 83.2489C104.905 83.2096 104.875 83.1727 104.891 83.1196C104.898 83.0873 105.138 83.0365 105.168 83.0758C105.217 83.1473 105.254 83.2235 105.258 83.3158C105.258 83.3712 105.302 83.4127 105.323 83.4589C105.346 83.5119 105.369 83.565 105.387 83.6204C105.399 83.655 105.408 83.6896 105.422 83.7242C105.443 83.775 105.459 83.8281 105.494 83.8719C105.521 83.9042 105.57 83.9227 105.597 83.9527C105.604 83.9596 105.614 83.9642 105.621 83.9712C105.639 83.9989 105.621 84.0242 105.54 84.0865L105.484 84.1281C105.422 84.1742 105.357 84.1973 105.318 84.1904C105.263 84.1789 105.21 84.165 105.175 84.1373C105.143 84.1073 105.12 84.0727 105.099 84.0335C105.069 83.9781 105.048 83.9158 105.025 83.8581L105.034 83.8535Z" fill="#231F20"/>
<path id="Vector_53" d="M81.1294 41.6804C82.9201 41.6804 84.7317 41.6804 86.5155 41.8604C86.6171 41.8697 86.7186 41.8812 86.8201 41.895C86.6747 41.8766 86.9494 41.9158 87.0024 41.925C87.0671 41.9366 87.1317 41.9527 87.1963 41.9689C87.2194 41.9735 87.2424 41.9873 87.2655 41.992C87.3509 42.0035 87.1478 41.9297 87.224 41.9758C87.2078 41.9666 86.924 41.6366 87.0209 41.5973C87.0163 41.5973 87.0209 41.6712 87.0209 41.6758C87.0117 41.7981 87.0209 41.925 87.0209 42.0496C87.0232 43.192 87.0209 44.3366 87.0117 45.4789C87.0001 46.8173 87.0117 48.165 86.9124 49.5012C86.8917 49.7804 87.1663 50.0204 87.4317 50.0204C87.7294 50.0204 87.9301 49.7827 87.9509 49.5012C88.0409 48.2989 88.0363 47.0873 88.0478 45.8827C88.0594 44.6389 88.0617 43.395 88.0594 42.1512C88.0594 41.9296 88.0986 41.6573 88.0363 41.4381C87.9232 41.0412 87.4709 40.9489 87.1201 40.8958C86.0055 40.725 84.8632 40.7066 83.7371 40.6766C82.8694 40.6535 81.9994 40.6396 81.1294 40.6396C80.4601 40.6396 80.4601 41.6781 81.1294 41.6781V41.6804Z" fill="#231F20"/>
<path id="Vector_54" d="M60.2332 73.6422C58.4424 73.6422 56.6309 73.6422 54.847 73.4622C54.7455 73.453 54.644 73.4415 54.5424 73.4276C54.6878 73.4461 54.4132 73.4069 54.3601 73.3976C54.2955 73.3861 54.2309 73.3699 54.1663 73.3538C54.1432 73.3492 54.1201 73.3353 54.097 73.3307C54.0117 73.3192 54.2147 73.393 54.1386 73.3469C54.1547 73.3561 54.4386 73.6861 54.3417 73.7253C54.3463 73.7253 54.3417 73.6515 54.3417 73.6469C54.3509 73.5246 54.3417 73.3976 54.3417 73.273C54.3394 72.1307 54.3417 70.9861 54.3509 69.8438C54.3624 68.5053 54.3509 67.1576 54.4501 65.8215C54.4709 65.5422 54.1963 65.3022 53.9309 65.3022C53.6332 65.3022 53.4324 65.5399 53.4117 65.8215C53.3217 67.0238 53.3263 68.2353 53.3147 69.4399C53.3032 70.6446 53.3009 71.9276 53.3032 73.1715C53.3032 73.393 53.264 73.6653 53.3263 73.8846C53.4394 74.2815 53.8917 74.3738 54.2424 74.4269C55.3571 74.5976 56.4994 74.6161 57.6255 74.6461C58.4932 74.6692 59.3632 74.683 60.2332 74.683C60.9024 74.683 60.9024 73.6446 60.2332 73.6446V73.6422Z" fill="#231F20"/>
<g id="Group" opacity="0.4">
<path id="Vector_55" d="M81.9047 43.4507C82.9293 43.4507 83.9585 43.4599 84.9785 43.5338C85.1054 43.543 85.2324 43.5545 85.357 43.5661C85.387 43.5684 85.417 43.573 85.4447 43.5776C85.4354 43.5776 85.3593 43.5638 85.4262 43.5753C85.4793 43.5845 85.5324 43.5915 85.5831 43.603C85.6085 43.6099 85.6385 43.6215 85.6662 43.6261C85.7239 43.633 85.5808 43.5776 85.6224 43.6076C85.5693 43.5707 85.4378 43.453 85.4678 43.3215C85.4608 43.3538 85.4678 43.3999 85.4678 43.4322C85.4678 44.023 85.4678 44.6161 85.4654 45.2068C85.4608 46.0007 85.4654 46.7991 85.4078 47.5884C85.3731 48.0707 86.1231 48.0684 86.1578 47.5884C86.2593 46.2084 86.2247 44.8122 86.2201 43.4322C86.2201 43.2361 86.1808 43.0607 85.9916 42.9545C85.8024 42.8484 85.5393 42.8368 85.327 42.8138C84.6693 42.7445 84.0047 42.733 83.3424 42.7168C82.8624 42.7076 82.3824 42.7007 81.9024 42.7007C81.4224 42.7007 81.4201 43.4507 81.9024 43.4507H81.9047Z" fill="#231F20"/>
</g>
<g id="Group_2" opacity="0.4">
<path id="Vector_56" d="M59.6747 72.0845C58.6593 72.0845 57.6394 72.0752 56.6263 72.0037C56.5017 71.9945 56.3747 71.9829 56.2501 71.9714C56.2201 71.9691 56.1924 71.9645 56.1624 71.9622C56.1717 71.9622 56.2478 71.976 56.1809 71.9645C56.1278 71.9552 56.077 71.9483 56.024 71.9368C55.9986 71.9298 55.9686 71.9183 55.9432 71.9137C55.8855 71.9068 56.0286 71.9622 55.987 71.9322C56.0401 71.9691 56.1717 72.0868 56.1417 72.2206C56.1486 72.1883 56.1417 72.1445 56.1417 72.1098C56.1417 71.5237 56.1417 70.9375 56.144 70.3491C56.1486 69.5622 56.144 68.7729 56.2017 67.9883C56.2363 67.506 55.4863 67.5083 55.4517 67.9883C55.3501 69.3545 55.387 70.7391 55.3917 72.1098C55.3917 72.3037 55.4309 72.4814 55.6201 72.5852C55.8094 72.6891 56.0678 72.7029 56.2824 72.726C56.9355 72.7952 57.5932 72.8068 58.2486 72.8206C58.724 72.8298 59.1993 72.8368 59.6747 72.8368C60.157 72.8368 60.157 72.0868 59.6747 72.0868V72.0845Z" fill="#231F20"/>
</g>
<path id="Vector_57" opacity="0.3" d="M34.7838 22.3583C34.9592 21.4745 35.9307 21.696 36.1915 22.2545C36.6138 23.1568 35.6907 23.5399 35.0631 22.7714C34.9823 22.6722 34.7654 22.4506 34.7838 22.3583Z" fill="#231F20"/>
<path id="Vector_58" d="M109.768 41.7499C108.969 40.9745 109.853 40.1137 110.608 40.2199C111.829 40.3906 111.605 41.6045 110.384 41.7383C110.227 41.7568 109.851 41.8329 109.768 41.7499Z" fill="#231F20"/>
<path id="Vector_59" d="M31.6637 76.8476C31.8391 75.9637 32.8106 76.1853 33.0714 76.7437C33.4937 77.646 32.5706 78.0291 31.9429 77.2607C31.8622 77.1614 31.6452 76.9399 31.6637 76.8476Z" fill="#231F20"/>
<path id="Vector_60" d="M26.4186 35.9091C27.1617 36.8276 26.1209 37.6238 25.3386 37.4161C24.074 37.0814 24.464 35.8307 25.7678 35.8445C25.9363 35.8445 26.3401 35.8122 26.4186 35.9091Z" fill="#231F20"/>
<path id="Vector_61" opacity="0.5" d="M54.4637 26.3459C55.419 26.939 54.7313 27.9775 53.9629 28.0375C52.7213 28.1321 52.6821 26.8859 53.8567 26.4913C54.009 26.4406 54.3621 26.2836 54.4613 26.3459H54.4637Z" fill="#231F20"/>
<path id="Vector_62" d="M40.4398 17.4104C39.8652 17.8789 39.3644 17.2258 39.4937 16.7343C39.7037 15.9404 40.4883 16.185 40.4791 17.002C40.4791 17.1081 40.7906 17.122 40.4375 17.4104H40.4398Z" fill="#231F20"/>
<path id="Vector_63" d="M82.9017 29.4265C82.3271 29.895 81.8264 29.2419 81.9556 28.7504C82.1656 27.9565 82.9502 28.2011 82.941 29.0181C82.941 29.1242 83.2525 29.1381 82.8994 29.4265H82.9017Z" fill="#231F20"/>
<path id="Vector_64" opacity="0.3" d="M107.552 44.939C107.658 45.9059 106.581 45.9913 106.131 45.4975C105.406 44.7013 106.237 44.009 107.13 44.6021C107.245 44.6783 107.485 44.3459 107.552 44.939Z" fill="#231F20"/>
<path id="Vector_65" opacity="0.3" d="M75.6344 85.2821C75.6344 85.7921 75.2213 86.2052 74.7113 86.2052C72.0598 86.2098 75.6321 82.6144 75.6344 85.2821Z" fill="#231F20"/>
<path id="Vector_66" opacity="0.5" d="M94.8392 21.4258C94.9269 22.5173 93.0415 22.2727 93.36 21.2181C93.5885 20.4634 94.7792 20.6827 94.8392 21.4258Z" fill="#231F20"/>
</g>
</svg>
