<svg width="120" height="126" viewBox="0 0 120 126" fill="none" xmlns="http://www.w3.org/2000/svg">
<g id="256.Exploring-The-Globe">
<path id="Vector" opacity="0.45" d="M59.3894 30.8203C59.3894 30.8203 46.4415 37.4925 41.4297 45.869C36.4146 54.2455 34.3238 65.0656 36.4482 71.9127C38.5726 78.7598 40.1457 83.4824 43.5339 87.274C46.9221 91.0656 52.7541 97.795 55.9171 98.0673C55.9171 98.0673 41.7389 96.1883 34.3944 86.9211C27.0499 77.6539 24.428 69.9564 26.6902 58.2387C28.949 46.5211 35.749 40.2051 37.4868 38.7261C39.2247 37.2471 43.9776 33.2539 49.4499 32.2253C54.9221 31.1967 59.3927 30.8169 59.3927 30.8169L59.3894 30.8203Z" fill="#231F20"/>
<path id="Vector_2" opacity="0.2" d="M61.0737 30.9683C60.909 30.9548 57.6922 39.3044 56.9796 44.4977C56.2703 49.691 54.9762 62.5952 55.7997 67.4389C56.6233 72.2859 59.3426 87.0658 59.9308 89.1397C60.5191 91.217 62.751 98.0002 62.751 98.0002C62.751 98.0002 67.7359 98.5447 67.7056 96.7666C67.6754 94.9884 71.4703 96.212 71.4703 96.212C71.4703 96.212 76.4687 90.6893 78.2703 86.9212C80.072 83.1531 83.3762 72.5078 83.3829 67.8019C83.3897 63.0926 82.751 53.7313 79.4434 48.6355C76.1359 43.5397 72.3913 38.6053 68.425 36.1548C64.4619 33.7044 61.0737 30.9683 61.0737 30.9683Z" fill="#231F20"/>
<path id="Vector_3" d="M34.704 41.3245C36.2536 39.6405 37.9645 38.1043 39.8267 36.7766L40.8519 36.0573C41.2015 35.8287 41.5511 35.6035 41.9074 35.3884C44.4485 33.906 47.188 32.8001 50.0116 32.0707C51.2687 31.7548 52.5393 31.4892 53.8065 31.2909C54.62 31.1598 55.4401 31.0522 56.2603 30.9884C56.6737 30.9682 57.0838 30.9447 57.4973 30.9447C57.7023 30.938 57.9107 30.9581 58.1158 30.9783C58.3208 31.0052 58.5258 31.0085 58.7342 31.0657C58.9897 31.1531 59.1006 31.1901 59.0939 31.2069C59.0872 31.227 58.9628 31.2371 58.7477 31.338C58.5359 31.4422 58.2334 31.5363 57.8737 31.6875C57.6956 31.7581 57.4973 31.7917 57.2889 31.8388C57.0805 31.8859 56.862 31.9262 56.6334 31.9531C53.3796 32.3127 50.1998 33.0388 47.0872 34.1043C45.225 34.7564 43.42 35.7648 41.7326 36.8573C39.867 38.0539 38.1359 39.4691 36.5595 41.0422C36.062 41.5161 35.6149 42.0371 35.1443 42.538L34.4788 43.3245C34.2569 43.5867 34.0351 43.8489 33.8334 44.1279C32.5595 45.7716 31.3931 47.5262 30.4284 49.3581C29.6922 50.7934 29.0536 52.2388 28.4821 53.7212C28.3544 54.0472 28.2401 54.3699 28.099 54.6959C27.6183 55.9127 27.4065 56.2791 27.0771 56.464C27.0032 56.5043 26.9225 56.5682 26.8553 56.585C26.6401 56.6455 26.6771 56.0842 26.9326 55.1396C27.7158 52.3464 28.9393 49.4959 30.5628 46.8606C31.7494 44.8943 33.1342 43.0287 34.6805 41.3077L34.704 41.3245Z" fill="#231F20"/>
<path id="Vector_4" d="M35.6382 46.5413C35.6382 46.5413 37.8096 47.8892 39.292 47.2539C40.6197 46.6859 42.0315 43.4489 43.7995 42.2724C45.5676 41.0959 41.7121 45.5934 41.7121 45.5934L39.8399 48.6959L36.6836 47.7783L35.6382 46.5447V46.5413Z" fill="#231F20"/>
<path id="Vector_5" d="M35.5444 64.6021C34.7848 65.2407 35.6385 67.271 34.7377 67.8054C33.4234 68.5852 31.3696 66.713 31.3696 66.713L35.9343 69.9399L36.0116 66.918L35.5444 64.6021Z" fill="#231F20"/>
<path id="Vector_6" d="M40.052 82.9883C40.052 83.1295 42.1864 86.3093 41.3797 86.6421C40.6133 86.958 39.3394 86.3563 39.3394 86.3563L43.8469 88.3026L42.5427 86.0773L40.052 82.9883Z" fill="#231F20"/>
<path id="Vector_7" d="M77.0331 45.0894C77.2247 46.4641 79.06 49.1835 75.2012 50.3667L79.4398 48.6356L77.0297 45.0894H77.0331Z" fill="#231F20"/>
<path id="Vector_8" d="M82.909 63.5396C82.909 63.5396 82.7914 68.4673 78.6973 69.6471C75.6653 70.5177 83.3796 67.8051 83.3796 67.8051L82.9057 63.5429L82.909 63.5396Z" fill="#231F20"/>
<path id="Vector_9" d="M80.139 81.4321C78.8314 85.6439 75.2012 87.459 75.2012 87.459L78.4281 86.5716L80.139 82.9851V81.4321Z" fill="#231F20"/>
<path id="Vector_10" d="M80.9089 52.5114C80.9089 52.5114 78.6904 48.945 76.882 50.1854C75.7156 50.9854 79.7963 49.2173 79.7963 49.2173L80.9089 52.5148V52.5114Z" fill="#231F20"/>
<path id="Vector_11" d="M80.5293 69.0825C80.5293 69.0825 83.0503 69.8186 82.6167 71.9127C82.2906 73.4892 83.0503 67.9194 83.0503 67.9194L80.5293 69.0825Z" fill="#231F20"/>
<path id="Vector_12" d="M75.8335 88.0642C75.8335 88.0642 76.7814 88.5382 76.1192 89.7718C75.457 91.0054 77.6722 86.9214 77.6722 86.9214L75.8335 88.0609V88.0642Z" fill="#231F20"/>
<path id="Vector_13" d="M78.9021 70.7265L77.3626 71.1769C77.1744 71.2307 76.9929 71.3013 76.8046 71.3517C76.1424 71.5366 75.4702 71.6946 74.8013 71.8559C74.5055 71.9265 74.2097 72.0072 73.9139 72.0811C73.534 72.1652 73.1508 72.2425 72.7609 72.2862C72.6399 72.2996 72.65 72.2694 72.7408 72.2089C72.8315 72.1484 72.9996 72.0442 73.2113 71.9702L73.7693 71.7652C73.9576 71.7047 74.1458 71.6509 74.334 71.5937C74.7139 71.4862 75.0937 71.3753 75.4803 71.2778C75.9408 71.1568 76.408 70.9921 76.8719 70.8442L78.4013 70.3501L79.3391 70.0341C79.8097 69.8694 80.287 69.708 80.7441 69.5232C81.1004 69.3786 81.4399 69.2005 81.7828 69.0358C81.8567 68.9988 81.9307 68.9585 82.008 68.9215C82.2937 68.7938 82.4013 68.7938 82.5256 68.9215C82.5525 68.9517 82.5861 68.9786 82.6097 69.0089C82.687 69.1164 82.6097 69.2643 82.4046 69.382C81.8063 69.7316 81.1307 69.9904 80.4483 70.2324C79.9408 70.4106 79.4231 70.5753 78.9088 70.74V70.7265H78.9021Z" fill="#231F20"/>
<path id="Vector_14" d="M75.2249 88.6994L74.1257 88.9179C73.9913 88.9448 73.8602 88.9851 73.7257 89.0086C73.2518 89.096 72.7678 89.133 72.2905 89.1868C72.0787 89.2137 71.8669 89.2406 71.6552 89.2641C71.3829 89.2944 71.1073 89.2977 70.835 89.2641C70.751 89.254 70.761 89.2103 70.8283 89.1498C70.8989 89.0927 71.0232 89.0086 71.1711 88.9683C71.3022 88.9313 71.4333 88.8944 71.5678 88.8641C71.7022 88.8439 71.8333 88.8204 71.9678 88.7969C72.2333 88.7532 72.5022 88.7095 72.7779 88.6792C73.1039 88.6389 73.4333 88.5381 73.7627 88.4675L74.8484 88.2255C75.0703 88.1717 75.2955 88.1213 75.5173 88.0607C75.8535 87.9734 76.193 87.8893 76.519 87.7818C76.7745 87.6977 77.0131 87.5801 77.2585 87.4759C77.3123 87.4523 77.3661 87.4288 77.4199 87.412C77.6283 87.3481 77.7089 87.3683 77.7963 87.4994C77.8165 87.5297 77.84 87.5565 77.8568 87.5902C77.9106 87.6944 77.8568 87.8154 77.7123 87.8994C77.2955 88.1649 76.8148 88.2994 76.3274 88.4406C75.9678 88.5414 75.598 88.6288 75.2316 88.7162V88.7028L75.2249 88.6994Z" fill="#231F20"/>
<path id="Vector_15" d="M75.8973 50.9449C75.4233 51.0458 74.946 51.1433 74.4687 51.2306C74.2939 51.2643 74.1225 51.3113 73.9477 51.3416C73.3326 51.4458 72.7141 51.55 72.099 51.6542C71.8233 51.6979 71.5511 51.7416 71.2788 51.7886C70.9292 51.8391 70.5796 51.9231 70.22 51.8895C70.109 51.8827 70.1225 51.8693 70.2065 51.8155C70.267 51.7785 70.3309 51.7382 70.3847 51.7046C70.4586 51.6542 70.546 51.6138 70.6435 51.5937C71.3359 51.4189 72.025 51.2172 72.741 51.1197C73.1679 51.0525 73.5981 50.918 74.0284 50.8172L75.4502 50.4844L76.3242 50.2794C76.7645 50.1685 77.2082 50.0676 77.6418 49.9365C77.978 49.8357 78.2973 49.7012 78.62 49.5802C78.6906 49.5533 78.7611 49.5231 78.8317 49.4962C79.1006 49.4054 79.1981 49.4189 79.3023 49.5567C79.3258 49.587 79.3527 49.6172 79.3729 49.6508C79.4368 49.7617 79.3527 49.8962 79.1611 49.987C78.5931 50.2592 77.9645 50.4441 77.3292 50.6155C76.8586 50.7399 76.378 50.8508 75.9006 50.9651V50.9517L75.8973 50.9449Z" fill="#231F20"/>
<path id="Vector_16" d="M86.7779 82.9886C86.7779 82.9886 86.8183 80.9886 86.0821 81.4356C85.346 81.8827 88.3443 79.5566 88.3443 79.5566L86.7779 82.9886Z" fill="#231F20"/>
<path id="Vector_17" d="M55.1778 57.0324C55.1913 54.7904 55.3056 52.5517 55.477 50.3164C55.5375 49.4996 55.5946 48.6862 55.682 47.8727C55.8367 46.4408 56.0518 45.0122 56.2938 43.5904C56.5593 42.1719 56.8451 40.7601 57.2081 39.3618C57.3593 38.74 57.5409 38.1248 57.7022 37.503C57.8938 36.8912 58.0518 36.2694 58.2736 35.6744C58.5257 34.898 58.8215 34.1316 59.1274 33.3719C59.4837 32.6324 59.8535 31.8996 60.3173 31.2206C60.5997 30.7938 60.5896 30.8711 60.4854 31.298C60.4316 31.5097 60.3745 31.819 60.2703 32.1753C60.1728 32.5316 60.082 32.9585 59.9308 33.3954C58.7577 36.4408 57.8904 39.6038 57.2282 42.8543C56.8249 44.7971 56.603 46.8576 56.4148 48.8811C56.2064 51.1064 56.0787 53.345 56.0249 55.5837C55.9845 56.9618 55.9677 58.3433 55.9845 59.7215C56.0047 61.8089 56.0854 63.9097 56.2299 65.9803C56.3442 67.5904 56.5324 69.1601 56.7207 70.7433C56.7644 71.0929 56.8081 71.4324 56.8518 71.7853C56.9997 73.0896 56.9963 73.5097 56.8215 73.8122C56.7812 73.8828 56.7442 73.9702 56.7005 74.0139C56.556 74.1585 56.361 73.6408 56.2098 72.6862C55.7627 69.8559 55.4871 66.8442 55.3324 63.8156C55.2215 61.5635 55.161 59.3013 55.1543 57.0391H55.1745L55.1778 57.0324Z" fill="#231F20"/>
<path id="Vector_18" d="M51.4266 51.8594C54.1863 52.2762 56.993 52.4308 59.7964 52.3535C60.8216 52.3367 61.84 52.2291 62.8585 52.1552C66.4552 51.8661 70.0384 51.2443 73.5308 50.2762C75.0871 49.8661 76.6132 49.3216 78.1022 48.7501C80.0148 48.0039 81.8636 47.1098 83.7728 46.33C84.0955 46.2527 84.2434 46.2358 84.2535 46.2762C84.2636 46.3165 84.1459 46.4241 83.9543 46.6493C83.7661 46.8779 83.4636 47.14 83.0905 47.4493C82.7106 47.7451 82.2401 48.0442 81.709 48.33C81.235 48.5753 80.7543 48.8073 80.2703 49.0325C79.7863 49.2611 79.2888 49.4527 78.798 49.6611C78.3073 49.8728 77.8064 50.0543 77.3056 50.2426C76.8081 50.4342 76.3006 50.609 75.793 50.777C73.7661 51.4661 71.6854 51.9905 69.5678 52.3737C67.0401 52.8274 64.4014 53.2812 61.7795 53.4661C58.8989 53.6678 55.998 53.6476 53.1207 53.3518C51.3493 53.1905 49.5913 52.8947 47.8535 52.5283C45.2216 51.9636 42.6367 51.13 40.1695 50.0947C38.2569 49.2812 36.4115 48.3905 34.6535 47.298C34.4585 47.1804 34.2669 47.0627 34.072 46.9451C33.8804 46.8241 33.6955 46.693 33.5073 46.5619C33.1611 46.3132 32.8753 46.1048 32.6434 45.9199C32.4182 45.7283 32.2468 45.5569 32.1157 45.409C31.8501 45.1098 31.7493 44.8779 31.7258 44.6291C31.7157 44.5148 31.6821 44.3871 31.6955 44.2964C31.7426 43.9972 32.4283 44.2392 33.4031 44.935C36.3779 46.9014 39.6888 48.6695 43.2552 49.8661C45.8905 50.7837 48.6367 51.4392 51.4232 51.8258V51.8594H51.4266Z" fill="#231F20"/>
<path id="Vector_19" d="M67.2047 73.5934C63.4467 74.1715 59.645 74.4304 55.8534 74.3799C54.4685 74.3564 53.0837 74.3329 51.7055 74.2152C46.8484 73.8051 42.008 72.8304 37.4803 70.985C36.4786 70.5715 35.4837 70.1278 34.5257 69.6203C33.561 69.1228 32.6198 68.5783 31.7257 67.9699C30.5727 67.1967 29.4736 66.3362 28.4753 65.3581C28.2265 65.1127 27.9778 64.8673 27.7492 64.6051C27.5173 64.343 27.2719 64.0942 27.0769 63.8018C26.8685 63.5228 26.6601 63.2438 26.4753 62.948C26.2837 62.6556 26.1022 62.3598 25.9408 62.0539C25.5307 61.2909 25.6954 61.3379 26.2366 61.8421C26.4954 62.1009 26.9022 62.4371 27.3391 62.8606C27.8064 63.264 28.3139 63.7514 28.8416 64.3026C30.7408 66.232 33.0265 67.7749 35.4736 68.9951C37.9274 70.2152 40.5425 71.1396 43.2316 71.8522C46.4551 72.7026 49.9274 73.0925 53.3391 73.2539C57.0938 73.4287 60.8685 73.2875 64.603 72.8203C66.9022 72.5312 69.1879 72.1346 71.44 71.59C74.8484 70.7732 78.2198 69.6707 81.3425 68.1446C83.766 66.9581 85.998 65.4993 87.961 63.7413C88.1727 63.543 88.3811 63.3446 88.5896 63.1497C88.7912 62.9446 88.9895 62.7396 89.1946 62.5346C89.561 62.1413 89.8736 61.8186 90.1122 61.5362C90.2366 61.3951 90.3509 61.2707 90.4551 61.1598C90.5559 61.0455 90.6467 60.9413 90.7341 60.8505C91.0904 60.4942 91.3358 60.3161 91.6013 60.2119C91.7223 60.1615 91.8601 60.0808 91.9509 60.064C92.1055 60.0371 92.0954 60.232 91.9576 60.6354C91.8938 60.8404 91.7795 61.0858 91.6114 61.3581C91.5307 61.4959 91.44 61.6438 91.3358 61.8018C91.2282 61.953 91.1072 62.111 90.9828 62.2791C89.4501 64.2455 87.4669 65.906 85.3089 67.2942C83.1375 68.6724 80.7879 69.8051 78.3643 70.7228C74.761 72.0841 70.9996 73.0018 67.2114 73.6236L67.2013 73.5967L67.2047 73.5934Z" fill="#231F20"/>
<path id="Vector_20" d="M67.2419 90.4773C63.8839 91.0252 60.4788 91.247 57.0872 91.1529C55.8503 91.0924 54.6099 91.0655 53.383 90.9209C51.215 90.6857 49.057 90.326 46.9461 89.7747L46.1528 89.5798C45.8906 89.5092 45.6318 89.4252 45.3696 89.3478C44.8486 89.1865 44.3242 89.042 43.8066 88.8672L42.2671 88.3126C41.7528 88.1378 41.2587 87.8957 40.7545 87.6907C39.8536 87.3378 38.9999 86.8773 38.1225 86.4638C37.6923 86.242 37.2755 85.9966 36.852 85.7646L36.22 85.4151C36.0116 85.2974 35.8133 85.1596 35.6083 85.0319L34.8284 84.531C34.5696 84.363 34.3041 84.2016 34.062 84.01L32.5797 82.8941L31.8839 82.2823L31.2116 81.6436C30.7713 81.2134 30.3746 80.7327 29.9679 80.2756C29.4704 79.6941 29.5814 79.7344 30.1225 80.1075C30.3914 80.2924 30.778 80.5512 31.2217 80.8773C31.6553 81.2134 32.2503 81.5092 32.7646 81.9697L33.1175 82.2621L33.4906 82.531L34.2402 83.0655C34.4923 83.2369 34.7309 83.4319 34.9965 83.5899L35.7763 84.0773L36.5494 84.5714L37.3528 85.0184C37.8906 85.3142 38.4183 85.6302 38.9797 85.8823C41.178 86.9781 43.4872 87.8756 45.8738 88.5714C48.7276 89.4218 51.8133 89.8722 54.852 90.084C58.1965 90.3058 61.5679 90.205 64.899 89.7848L65.6688 89.6907L66.4351 89.563C66.9427 89.4756 67.457 89.405 67.9646 89.3041L69.4805 88.9848C69.9881 88.8873 70.4822 88.7361 70.983 88.6151C74.0049 87.8151 76.9931 86.763 79.7192 85.2739C81.8402 84.131 83.773 82.7428 85.4906 81.1226C85.857 80.7529 86.2133 80.3932 86.583 80.0235C87.8973 78.6016 88.2671 78.1176 88.7612 77.9529C88.8721 77.9125 88.9999 77.8487 89.0872 77.8386C89.2318 77.8252 89.2217 78.0033 89.0671 78.3428C88.9898 78.5109 88.8788 78.7226 88.7309 78.968C88.5864 79.2134 88.4116 79.4957 88.1696 79.7781C86.8217 81.526 85.1175 83.0655 83.2351 84.3764C81.3494 85.684 79.2889 86.7731 77.1545 87.6773C76.7578 87.842 76.3646 88.0167 75.9612 88.168L74.7444 88.6084L74.136 88.8268L73.5175 89.0151L72.2805 89.3915C71.4469 89.61 70.6167 89.8319 69.7763 90.0201C68.9326 90.1848 68.0956 90.3932 67.2452 90.5142L67.2351 90.4907L67.2419 90.4773Z" fill="#231F20"/>
<path id="Vector_21" d="M30.9021 45.5601C33.7525 40.9785 37.6517 36.9785 42.3609 34.2659C42.65 34.0844 42.9525 33.9332 43.2517 33.7752C43.5542 33.6206 43.8466 33.4525 44.1525 33.3046C44.7677 33.0222 45.3761 32.7164 46.008 32.4743C47.2551 31.9433 48.5525 31.5399 49.8601 31.1836C52.4853 30.5147 55.1878 30.1584 57.8903 30.1785C61.8332 30.1853 65.766 30.8441 69.4803 32.118C72.7542 33.2239 75.9071 34.7769 78.7139 36.8239C81.5206 38.8643 83.9878 41.3685 85.9777 44.2021C87.9744 47.0323 89.4971 50.1819 90.5391 53.4727C91.5845 56.7634 92.1525 60.192 92.3004 63.6273C92.371 65.1533 92.3441 66.6794 92.2433 68.2088C92.1357 69.7416 91.9072 71.2609 91.5744 72.7567C90.9156 75.7483 89.8466 78.6357 88.4618 81.3349C86.6903 84.8004 84.3811 88.0273 81.5307 90.7197C80.1088 92.0676 78.5458 93.2643 76.8752 94.2861C76.4618 94.5517 76.0282 94.7769 75.5979 95.0088C75.1576 95.2239 74.7105 95.4256 74.2635 95.6206C73.8063 95.7954 73.3626 95.997 72.8954 96.1416L72.2029 96.3769C71.971 96.4508 71.7357 96.5113 71.5004 96.5752C70.9189 96.7466 70.4853 96.8071 70.213 96.8609C69.9408 96.908 69.8164 96.9214 69.8298 96.8979C69.8433 96.8743 69.9878 96.8172 70.2534 96.7231C70.5156 96.6256 70.8987 96.508 71.3626 96.2996C72.3038 95.9197 73.6013 95.2878 75.0332 94.3399C76.4819 93.4222 78.1021 92.2458 79.7223 90.8105C81.1576 89.5332 82.4517 88.1046 83.6517 86.6021C84.855 85.0996 85.9139 83.4828 86.8517 81.8021C88.7273 78.4374 90.0618 74.7634 90.7307 70.9752C91.0601 69.0794 91.1744 67.1634 91.1643 65.2172C91.1542 63.2811 91.0198 61.3416 90.7273 59.4222C90.1458 55.5903 88.9861 51.829 87.1945 48.3735C85.0601 44.2357 81.887 40.5315 77.9945 37.7517C74.1055 34.9617 69.5307 33.1466 64.8685 32.1248C62.2971 31.5903 59.6685 31.3214 57.0466 31.3853C54.4248 31.4626 51.8063 31.8357 49.2954 32.5886C46.7744 33.3113 44.3677 34.4172 42.1324 35.792C39.9038 37.1836 37.8702 38.8777 36.0584 40.7836C34.9525 41.9668 33.9374 43.234 32.9929 44.5517C32.0685 45.8861 31.2214 47.2743 30.4584 48.7096C29.7189 50.1584 29.0097 51.6206 28.4752 53.1533C27.9374 54.6827 27.4735 56.2424 27.1643 57.8357C26.1794 62.6559 26.2735 67.6945 27.3256 72.5046C27.8567 74.9113 28.6366 77.2575 29.7122 79.4626C30.7845 81.6676 32.1492 83.7214 33.6987 85.6071C36.1324 88.5248 39.0601 90.9685 42.2803 92.8811C45.5004 94.7903 49.0097 96.192 52.6668 96.992C54.2803 97.3382 55.8735 97.5836 57.5307 97.7214C57.9139 97.7617 58.2836 97.7685 58.6332 97.792C58.9861 97.8088 59.3223 97.8424 59.645 97.8391C60.2903 97.8391 60.8786 97.876 61.413 97.8525C61.9475 97.8357 62.4315 97.8357 62.8719 97.8189C63.3122 97.7954 63.7055 97.7785 64.0618 97.7584C65.487 97.6676 66.3172 97.6475 66.9996 97.6743C67.3088 97.6911 67.7189 97.6878 67.9072 97.7248C68.2231 97.7853 67.766 97.9701 66.6534 98.2559C66.0987 98.4071 65.3693 98.5147 64.4987 98.6592C64.0584 98.7063 63.5845 98.7601 63.0735 98.8138C62.5626 98.871 62.0147 98.8811 61.4366 98.9147C59.7189 98.9651 57.9777 98.9281 56.2399 98.7332C54.5055 98.5382 52.7677 98.229 51.0534 97.792C47.6349 96.8878 44.287 95.5029 41.2214 93.5937C38.1559 91.6912 35.3357 89.3214 32.9727 86.5214C30.613 83.7248 28.6937 80.5214 27.4265 77.0491C25.5777 71.9063 24.9189 66.3533 25.4769 60.908C25.7727 58.1886 26.3542 55.4928 27.2719 52.9113C28.1996 50.3264 29.4265 47.8794 30.855 45.5567H30.8887L30.9021 45.5601Z" fill="#231F20"/>
<path id="Vector_22" d="M35.3392 69.8521L35.1745 68.2857C35.1476 68.0236 35.1174 67.7647 35.0972 67.5025L35.0703 66.716L35.0132 65.1429L35.0636 63.5698C35.114 61.4689 35.4602 59.3748 35.9577 57.3479C36.3241 55.8656 36.751 54.4 37.2922 52.9782C39.2149 47.9698 42.0787 43.3278 45.7829 39.4622C47.4401 37.7647 49.2317 36.1715 51.1846 34.8471C52.4216 33.9731 53.756 33.2303 55.1308 32.5883C55.8165 32.2588 56.5258 31.9899 57.235 31.7278C57.9611 31.5093 58.6737 31.2538 59.4199 31.1194C60.3611 30.9916 60.2334 31.0353 59.5308 31.442C58.8182 31.8152 57.5476 32.521 56.035 33.2504C54.6804 33.8891 53.4266 34.7025 52.1796 35.516C50.9426 36.3462 49.7594 37.2639 48.6535 38.2689C46.435 40.2723 44.4384 42.5446 42.6972 45.0252C40.6098 47.9933 38.9829 51.4588 37.8334 54.9849C37.2149 56.9278 36.7174 58.9177 36.4451 60.9345C36.2905 61.9429 36.2367 62.958 36.2098 63.9799L36.1829 64.7462C36.1796 64.874 36.1728 65.0017 36.1728 65.1294L36.1863 65.5126L36.2401 67.0454C36.4014 69.5563 36.8149 72.0538 37.477 74.4874C38.5258 78.158 40.1325 81.7009 42.2334 84.8605C43.8804 87.3109 45.8334 89.4723 48.0014 91.4017C48.4787 91.8252 48.946 92.242 49.4636 92.6286C49.9342 92.9983 50.3174 93.3076 50.6367 93.5731C50.9594 93.832 51.235 94.0235 51.4434 94.2084C51.867 94.5681 52.0787 94.8269 52.2098 95.0992C52.2703 95.2235 52.3611 95.3681 52.3812 95.4656C52.4518 95.7916 51.5207 95.4017 50.0048 94.4135C45.6115 91.3546 41.7829 86.958 39.1712 81.9025C38.9123 81.442 38.7107 80.9513 38.4787 80.4773L38.1426 79.758L37.9745 79.3983L37.83 79.0286C37.4468 78.0404 37.0367 77.0656 36.7409 76.0437C36.0586 74.0336 35.6451 71.9462 35.3056 69.8555L35.3325 69.8454L35.3392 69.8521Z" fill="#231F20"/>
<path id="Vector_23" d="M82.64 68.5383L82.7375 67.1299L82.7678 65.7181C82.7711 65.2475 82.8014 64.7736 82.7846 64.3064L82.7476 62.9013C82.6467 61.0291 82.4182 59.1669 82.035 57.3316L81.8064 56.3299C81.7257 55.9971 81.6249 55.6711 81.5341 55.3417C81.3593 54.6795 81.1274 54.0375 80.9224 53.3854C80.1526 51.0996 79.1106 48.9081 77.8703 46.8341C76.6266 44.7602 75.1375 42.8341 73.4972 41.0492C72.0283 39.4761 70.4047 38.024 68.6804 36.7635C67.5745 35.9467 66.4114 35.2106 65.2316 34.5114C64.9358 34.34 64.64 34.1652 64.3341 34.0038C64.035 33.8358 63.7325 33.6744 63.4232 33.5198L62.5089 33.0492C62.203 32.8912 61.8904 32.7501 61.5812 32.6022C60.8081 32.2324 60.919 32.2291 61.6619 32.3366C62.0316 32.3938 62.556 32.498 63.1778 32.666C63.7963 32.8442 64.4955 33.1232 65.2215 33.4862C66.5089 34.1316 67.7358 34.898 68.9089 35.7316C70.0854 36.5618 71.2114 37.466 72.2736 38.4375C73.3392 39.4089 74.3543 40.4408 75.2955 41.5366C76.2299 42.6391 77.0904 43.8055 77.8871 45.0156C79.7896 47.9097 81.403 51.1736 82.4182 54.5686C83.5341 58.303 83.961 62.2257 83.8367 66.0912C83.8299 66.6862 83.8199 67.2812 83.7694 67.8761L83.6484 69.6576C83.5072 70.8408 83.403 72.0274 83.1913 73.1971C83.114 73.6408 83.0602 74.0879 82.9661 74.5316L82.6871 75.856L82.5459 76.5181L82.3745 77.1736L82.0283 78.4812C81.9106 78.9148 81.7627 79.3417 81.6316 79.7719C81.4904 80.1988 81.3762 80.6358 81.2114 81.0526C80.8988 81.8963 80.6064 82.7467 80.2434 83.5635C79.1677 86.1282 77.9106 88.5719 76.3442 90.8576C76.1795 91.1131 76.0047 91.3618 75.8232 91.6005C75.6417 91.8425 75.4602 92.0845 75.2787 92.3333C73.8434 94.1081 73.2316 94.5417 72.7005 94.6929C72.5762 94.7265 72.4316 94.7837 72.3409 94.7837C72.1896 94.7837 72.24 94.5854 72.4585 94.2358C72.6736 93.8795 73.0837 93.4022 73.5711 92.7534C76.5661 88.9988 78.9896 84.498 80.5257 79.6576L80.9459 78.3064L81.3022 76.9349L81.4804 76.2492L81.6249 75.5534L81.9173 74.1652C82.2367 72.2997 82.5089 70.4207 82.6131 68.5249H82.64V68.5383Z" fill="#231F20"/>
<path id="Vector_24" d="M55.9507 71.9398C55.5608 68.4171 55.349 64.8776 55.2952 61.3348C55.2851 60.0406 55.2481 58.7499 55.2918 57.4591C55.4061 52.9045 55.87 48.3566 56.7339 43.886C57.1305 41.9062 57.5507 39.9163 58.0885 37.9835C58.2465 37.3583 58.4481 36.7465 58.6229 36.1247C58.8011 35.5028 59.0364 34.9011 59.2448 34.2894C59.349 33.9835 59.4599 33.681 59.5876 33.3818C59.712 33.0827 59.8196 32.7801 59.9641 32.4877C60.2196 31.8927 60.5288 31.3247 60.8145 30.7499C61.1843 30.0373 61.2078 30.1684 61.0633 30.844C60.9927 31.1801 60.8851 31.6574 60.7473 32.2222C60.6868 32.5079 60.6297 32.8205 60.5423 33.1432C60.4515 33.4625 60.3439 33.7986 60.2263 34.1448L59.6515 36.0003C59.4801 36.6255 59.2885 37.244 59.107 37.8659L58.6129 39.7448L58.1692 41.6406C57.6112 44.1785 57.1843 46.7499 56.8414 49.3482C56.4179 52.4574 56.2834 55.7314 56.2666 58.9415C56.2431 62.4743 56.391 66.0138 56.7036 69.5364C56.9087 71.7045 57.1406 73.8726 57.4734 76.0238C57.9574 79.2877 58.5658 82.5516 59.349 85.7314C59.9473 88.2087 60.6834 90.5953 61.4666 92.9852C61.6347 93.5129 61.8162 94.0238 61.9977 94.5516C62.3238 95.5331 62.5355 96.1818 62.6566 96.6457C62.7641 97.1163 62.7809 97.402 62.7473 97.6507C62.7305 97.765 62.7271 97.9095 62.7002 97.9801C62.6532 98.1045 62.5255 97.9801 62.3305 97.6474C62.1355 97.3146 61.8666 96.7801 61.591 96.0675C59.9675 91.8356 58.6431 87.2205 57.6481 82.5213C56.9087 79.0322 56.3271 75.4894 55.9204 71.9364L55.9439 71.9297L55.9507 71.9398Z" fill="#231F20"/>
<path id="Vector_25" d="M32.1223 56.5012C31.85 56.7365 31.5811 56.9718 31.319 57.2172C31.2215 57.3046 31.1374 57.4054 31.0433 57.4962C30.6971 57.802 30.3509 58.1113 30.0215 58.4373C29.8736 58.5785 29.7425 58.7399 29.6047 58.8878C29.4299 59.0827 29.2652 59.2844 29.0601 59.4558C28.9963 59.5096 28.9526 59.4558 28.9391 59.355C28.929 59.2541 28.9458 59.1029 29.0332 58.9785C29.3358 58.5315 29.6921 58.1247 30.0954 57.7583C30.3374 57.5399 30.5425 57.2709 30.7744 57.0357C31.0332 56.7768 31.2954 56.5247 31.561 56.276L32.0551 55.8188C32.3038 55.5869 32.5593 55.3617 32.7979 55.123C32.9828 54.9382 33.1475 54.7399 33.3257 54.5483C33.366 54.5046 33.3996 54.4609 33.44 54.4205C33.5946 54.2726 33.6719 54.2558 33.803 54.3365C33.8332 54.3533 33.8669 54.3701 33.8937 54.3903C33.9845 54.4609 33.9845 54.5886 33.8937 54.7197C33.6248 55.1062 33.2954 55.4592 32.9358 55.7819C32.6702 56.0239 32.4013 56.2659 32.1324 56.5079L32.1223 56.4978V56.5012Z" fill="#231F20"/>
<path id="Vector_26" d="M68.8957 62.8068C68.4923 63.2337 68.0957 63.6673 67.7091 64.111C67.5679 64.2723 67.4436 64.4471 67.3057 64.6118C66.7982 65.1732 66.294 65.7413 65.82 66.3362C65.6049 66.595 65.42 66.8774 65.2217 67.1463C64.973 67.4959 64.7343 67.8555 64.4486 68.1816C64.3578 68.2824 64.3007 68.2219 64.2872 68.0774C64.2772 67.9328 64.3007 67.6976 64.4217 67.4791C64.8385 66.6959 65.3461 65.9698 65.9209 65.2875C66.2671 64.8841 66.5662 64.4135 66.9091 63.99C67.2889 63.5261 67.6788 63.0723 68.0755 62.6219L68.8116 61.7984C69.1847 61.3816 69.5713 60.9782 69.9343 60.5614C70.22 60.2387 70.4587 59.8858 70.7309 59.5564C70.7914 59.4824 70.8419 59.4085 70.9057 59.3379C71.141 59.0791 71.2587 59.0354 71.4604 59.1295C71.5074 59.1497 71.5545 59.1665 71.5982 59.1934C71.736 59.2807 71.7326 59.4791 71.5915 59.6942C71.1814 60.3429 70.6436 60.9211 70.1091 61.5093C69.7091 61.9429 69.3091 62.3799 68.9091 62.8169L68.8957 62.8068Z" fill="#231F20"/>
<path id="Vector_27" d="M72.8046 63.9231L71.9978 64.824C71.9004 64.9349 71.8163 65.0559 71.7189 65.1668C71.376 65.5534 71.0264 65.9399 70.6903 66.3366C70.5424 66.5114 70.4046 66.6996 70.2701 66.8845C70.0987 67.1231 69.9474 67.3786 69.7289 67.5803C69.5945 67.708 69.3625 67.2441 69.5609 66.9685C69.9104 66.4811 70.2869 66.0105 70.7138 65.5735C70.9659 65.3114 71.181 65.0021 71.4163 64.7164L72.2062 63.7853L72.697 63.2139C72.9424 62.9248 73.1978 62.6391 73.4298 62.3433C73.6113 62.1147 73.7626 61.866 73.9273 61.6273C73.9642 61.5735 73.9945 61.5198 74.0348 61.4693C74.1794 61.2811 74.26 61.2475 74.4147 61.3114C74.4516 61.3248 74.4886 61.3383 74.5189 61.3584C74.6298 61.4223 74.6432 61.5635 74.5592 61.7181C74.3071 62.1786 73.9642 62.5988 73.6113 63.0189C73.3457 63.3248 73.0802 63.634 72.8147 63.9399L72.8046 63.9332V63.9231Z" fill="#231F20"/>
<g id="Group" opacity="0.55">
<path id="Vector_28" d="M87.1273 73.1264L86.4886 73.96C86.4147 74.0642 86.3407 74.1651 86.2634 74.2693C85.9844 74.6222 85.7055 74.9752 85.4298 75.3247C85.3088 75.4861 85.1912 75.6441 85.0735 75.8021C84.9223 76.0037 84.771 76.2088 84.5996 76.397C84.5458 76.4542 84.5189 76.4239 84.5223 76.3432C84.5256 76.2626 84.5525 76.1315 84.6265 76.0037C84.7609 75.7819 84.8853 75.5533 85.0399 75.3449C85.1912 75.1365 85.3491 74.9315 85.5139 74.7298C85.7122 74.4878 85.8802 74.2121 86.0651 73.9533L86.6668 73.0962L87.0332 72.5651C87.2147 72.2928 87.3996 72.0239 87.5643 71.7449C87.6954 71.5298 87.7928 71.3012 87.9071 71.0794C87.9307 71.0289 87.9542 70.9819 87.9811 70.9315C88.0819 70.7533 88.1424 70.7163 88.2769 70.7432C88.3071 70.75 88.3374 70.7533 88.3676 70.7634C88.4618 70.797 88.4886 70.9113 88.4315 71.0558C88.2735 71.4827 88.0181 71.8794 87.7525 72.2727C87.5542 72.5651 87.3458 72.8474 87.1407 73.1365L87.1307 73.1298L87.1273 73.1264Z" fill="#231F20"/>
</g>
<g id="Group_2" opacity="0.55">
<path id="Vector_29" d="M87.5914 75.5128C87.4771 75.6506 87.3629 75.7884 87.2519 75.9262C87.2082 75.9767 87.178 76.0338 87.1343 76.0808C86.983 76.2523 86.8284 76.4237 86.6839 76.6019C86.62 76.6792 86.5662 76.7666 86.5124 76.8506C86.4452 76.9615 86.3881 77.0792 86.2872 77.1632C86.2234 77.217 86.0284 76.9716 86.0923 76.8372C86.2133 76.6019 86.3511 76.38 86.5292 76.1783C86.6368 76.0607 86.704 75.9061 86.7948 75.7716C86.8923 75.6204 87.0032 75.4825 87.1074 75.338C87.1713 75.2506 87.2385 75.1598 87.3024 75.0724C87.3965 74.938 87.5007 74.8035 87.5813 74.659C87.6452 74.5481 87.6822 74.4203 87.7259 74.2993C87.736 74.2725 87.7427 74.2456 87.7561 74.2187C87.8032 74.1245 87.8502 74.1178 87.9881 74.1783C88.0183 74.1918 88.0519 74.2052 88.0788 74.222C88.1797 74.2758 88.2368 74.3632 88.22 74.4439C88.1763 74.6859 88.0519 74.8876 87.9175 75.0893C87.8166 75.2372 87.7057 75.3783 87.5981 75.5195L87.5881 75.5128H87.5914Z" fill="#231F20"/>
</g>
<path id="Vector_30" d="M58.2935 20.0743C58.0078 20.3668 57.6582 20.5584 57.275 20.6458C57.1372 20.676 56.996 20.7197 56.8482 20.7096C56.586 20.6962 56.3339 20.6155 56.1154 20.4609C55.8902 20.3029 55.7524 20.0844 55.675 19.8626C55.6078 19.6643 55.5641 19.4626 55.5742 19.2542C55.5742 18.9953 55.6918 18.6626 55.9742 18.5516C56.0616 18.5147 56.1087 18.6491 56.149 18.7903C56.1826 18.9348 56.2566 19.0693 56.2431 19.113C56.1826 19.2979 56.2599 19.6239 56.4045 19.8189C56.4448 19.8794 56.5221 19.9164 56.6129 19.9298C56.7036 19.9432 56.7944 19.9298 56.8885 19.9164C57.0969 19.8895 57.3221 19.7953 57.5036 19.6407C57.6078 19.5533 57.7221 19.4189 57.7624 19.3248C57.7893 19.2542 57.7927 19.2474 57.7692 19.197C57.7423 19.15 57.665 19.0995 57.5876 19.0928C57.4734 19.0827 57.3591 19.1869 57.2481 19.3046C57.2213 19.3315 57.2045 19.3651 57.1742 19.392C57.0666 19.4895 56.9826 19.476 56.791 19.2911C56.7473 19.2508 56.7036 19.2105 56.6599 19.1668C56.5221 19.0189 56.4717 18.8441 56.5524 18.7096C56.67 18.518 56.8683 18.3164 57.1977 18.2054C57.3456 18.1517 57.5876 18.1315 57.7759 18.1752C57.9708 18.2155 58.1523 18.2995 58.3204 18.4407C58.4448 18.5449 58.5591 18.6895 58.6297 18.8743C58.7002 19.0559 58.7137 19.2777 58.6734 19.4458C58.5826 19.792 58.4414 19.9264 58.3103 20.0878L58.2935 20.0743Z" fill="#231F20"/>
<path id="Vector_31" d="M88.5269 97.5436C88.2412 97.836 87.8916 98.0276 87.5084 98.115C87.3706 98.1453 87.2294 98.189 87.0815 98.1789C86.8194 98.1654 86.5673 98.0848 86.3488 97.9301C86.1236 97.7721 85.9857 97.5537 85.9084 97.3318C85.8412 97.1335 85.7975 96.9318 85.8076 96.7234C85.8076 96.4646 85.9252 96.1318 86.2076 96.0209C86.295 95.9839 86.3421 96.1184 86.3824 96.2595C86.416 96.4041 86.49 96.5385 86.4765 96.5822C86.416 96.7671 86.4933 97.0932 86.6378 97.2881C86.6782 97.3486 86.7555 97.3856 86.8463 97.399C86.937 97.4125 87.0278 97.399 87.1219 97.3856C87.3303 97.3587 87.5555 97.2646 87.737 97.11C87.8412 97.0226 87.9555 96.8881 87.9958 96.794C88.0227 96.7234 88.0261 96.7167 88.0026 96.6663C87.9757 96.6192 87.8984 96.5688 87.821 96.5621C87.7068 96.552 87.5925 96.6562 87.4815 96.7738C87.4547 96.8007 87.4379 96.8343 87.4076 96.8612C87.3 96.9587 87.216 96.9453 87.0244 96.7604C86.9807 96.72 86.937 96.6797 86.8933 96.636C86.7555 96.4881 86.7051 96.3133 86.7857 96.1789C86.9034 95.9873 87.1017 95.7856 87.4311 95.6747C87.579 95.6209 87.821 95.6007 88.0093 95.6444C88.2042 95.6848 88.3857 95.7688 88.5538 95.91C88.6782 96.0142 88.7925 96.1587 88.8631 96.3436C88.9336 96.5251 88.9471 96.7469 88.9068 96.915C88.816 97.2612 88.6748 97.3957 88.5437 97.557L88.5269 97.5436Z" fill="#231F20"/>
<path id="Vector_32" d="M20.1964 48.3666C20.2334 48.4069 20.3578 48.3935 20.4418 48.3296C20.4687 48.3061 20.4855 48.2725 20.5057 48.249C20.5964 48.175 20.62 48.0036 20.4687 47.8624C20.4048 47.8019 20.3141 47.7717 20.2301 47.7683C20.1158 47.7649 20.0317 47.8053 19.9208 47.8154C19.8838 47.8154 19.8032 47.7347 19.7695 47.617C19.7292 47.4994 19.7695 47.3212 19.9006 47.2708C20.3511 47.1027 20.8754 47.2742 21.0906 47.728C21.2149 47.9868 21.2586 48.3263 21.1275 48.5851C20.9864 48.8641 20.7376 49.0456 20.4452 49.1196C20.267 49.1633 20.062 49.1498 19.8838 49.0691C19.6048 48.9481 19.4603 48.6927 19.3763 48.4574C19.3124 48.2725 19.2385 48.0675 19.2721 47.8254C19.2788 47.7717 19.2822 47.7179 19.3057 47.6641C19.3931 47.4691 19.5107 47.4591 19.6956 47.617C19.7393 47.654 19.7796 47.6876 19.82 47.728C19.9477 47.8691 20.025 48.0069 20.062 48.0473C20.109 48.1145 20.1427 48.138 20.1628 48.175C20.183 48.2086 20.1897 48.249 20.1964 48.2691C20.2099 48.3061 20.1628 48.3162 20.1964 48.3397V48.3599V48.3666Z" fill="#231F20"/>
<path id="Vector_33" d="M102.977 71.9057C103.014 71.946 103.139 71.9326 103.223 71.8687C103.249 71.8452 103.266 71.8116 103.286 71.788C103.377 71.7141 103.401 71.5426 103.249 71.4015C103.186 71.341 103.095 71.3107 103.011 71.3074C102.897 71.304 102.812 71.3443 102.702 71.3544C102.665 71.3544 102.584 71.2737 102.55 71.1561C102.51 71.0384 102.55 70.8603 102.681 70.8099C103.132 70.6418 103.656 70.8132 103.871 71.267C103.996 71.5258 104.039 71.8653 103.908 72.1242C103.767 72.4032 103.518 72.5847 103.226 72.6586C103.048 72.7023 102.843 72.6889 102.665 72.6082C102.386 72.4872 102.241 72.2317 102.157 71.9964C102.093 71.8116 102.019 71.6065 102.053 71.3645C102.06 71.3107 102.063 71.2569 102.086 71.2032C102.174 71.0082 102.291 70.9981 102.476 71.1561C102.52 71.1931 102.56 71.2267 102.601 71.267C102.728 71.4082 102.806 71.546 102.843 71.5863C102.89 71.6536 102.923 71.6771 102.944 71.7141C102.964 71.7477 102.97 71.788 102.977 71.8082C102.991 71.8452 102.944 71.8553 102.977 71.8788V71.899V71.9057Z" fill="#231F20"/>
<path id="Vector_34" d="M13.7258 57.5732C13.7897 57.9732 13.6518 58.39 13.4031 58.6791C13.309 58.7833 13.2216 58.8942 13.0972 58.9581C12.9426 59.0421 12.7779 59.0858 12.6132 59.0959C12.3174 59.0959 12.0283 58.9648 11.8569 58.78C11.7392 58.6556 11.6317 58.5312 11.551 58.3833C11.4972 58.2892 11.4535 58.185 11.4334 58.0741C11.4199 57.9598 11.4334 57.8354 11.5039 57.7346C11.5476 57.6674 11.7224 57.7514 11.8972 57.8253C12.072 57.906 12.2636 57.9363 12.2838 57.9396C12.3107 57.9632 12.3443 57.9934 12.3745 58.0337C12.388 58.0539 12.4048 58.0707 12.4115 58.0942C12.4115 58.1144 12.4115 58.148 12.425 58.1816C12.435 58.2119 12.4586 58.2253 12.4787 58.2253C12.5224 58.2354 12.5527 58.1984 12.5897 58.1816C12.6569 58.1514 12.7275 58.0842 12.7544 57.9833C12.7712 57.9228 12.7745 57.8489 12.7443 57.785C12.7039 57.6875 12.5997 57.6069 12.4855 57.6102C12.3913 57.6169 12.3107 57.7178 12.3039 57.7917C12.3006 57.8052 12.3039 57.8287 12.3039 57.8388C12.3039 57.8724 12.2502 57.8085 11.988 57.6606L11.8098 57.5632C11.709 57.5094 11.625 57.4455 11.5779 57.3682C11.5275 57.2909 11.5107 57.19 11.551 57.1094C11.6653 56.8539 11.9073 56.6724 12.1628 56.6018C12.4149 56.5245 12.714 56.5447 12.9796 56.6522C13.1712 56.7329 13.356 56.8472 13.4871 57.0085C13.6182 57.1699 13.709 57.3615 13.7527 57.5632L13.7292 57.5732H13.7258Z" fill="#231F20"/>
<path id="Vector_35" d="M96.507 81.1123C96.5709 81.5123 96.4331 81.9291 96.1844 82.2182C96.0902 82.3224 96.0028 82.4333 95.8785 82.4972C95.7239 82.5812 95.5591 82.6249 95.3944 82.635C95.0986 82.635 94.8096 82.5039 94.6381 82.319C94.5205 82.1947 94.4129 82.0703 94.3323 81.9224C94.2785 81.8283 94.2348 81.7241 94.2146 81.6131C94.2012 81.4989 94.2146 81.3745 94.2852 81.2736C94.3289 81.2064 94.5037 81.2905 94.6785 81.3644C94.8533 81.4451 95.0449 81.4753 95.065 81.4787C95.0919 81.5022 95.1255 81.5325 95.1558 81.5728C95.1692 81.593 95.186 81.6098 95.1928 81.6333C95.1928 81.6535 95.1928 81.6871 95.2062 81.7207C95.2163 81.751 95.2398 81.7644 95.26 81.7644C95.3037 81.7745 95.3339 81.7375 95.3709 81.7207C95.4381 81.6905 95.5087 81.6232 95.5356 81.5224C95.5524 81.4619 95.5558 81.3879 95.5255 81.3241C95.4852 81.2266 95.381 81.1459 95.2667 81.1493C95.1726 81.156 95.0919 81.2568 95.0852 81.3308C95.0818 81.3442 95.0852 81.3678 95.0852 81.3779C95.0852 81.4115 95.0314 81.3476 94.7692 81.1997L94.5911 81.1022C94.4902 81.0484 94.4062 80.9846 94.3591 80.9073C94.3087 80.8299 94.2919 80.7291 94.3323 80.6484C94.4465 80.393 94.6886 80.2115 94.944 80.1409C95.1961 80.0636 95.4953 80.0837 95.7608 80.1913C95.9524 80.272 96.1373 80.3863 96.2684 80.5476C96.3995 80.7089 96.4902 80.9005 96.5339 81.1022L96.5104 81.1123H96.507Z" fill="#231F20"/>
<g id="Group_3" opacity="0.55">
<path id="Vector_36" d="M27.7692 23.7884C27.7255 23.7447 27.6852 23.7044 27.6415 23.6607C27.5642 23.58 27.4768 23.5195 27.3726 23.4859C27.2717 23.4321 27.1642 23.4086 27.0499 23.4119C26.9356 23.4086 26.8247 23.4321 26.7272 23.4859C26.623 23.5195 26.5322 23.5766 26.4583 23.6607L26.3272 23.8321C26.2499 23.9632 26.2129 24.1044 26.2129 24.2556L26.2431 24.4775C26.2835 24.6187 26.3541 24.743 26.4583 24.8472C26.502 24.8909 26.5423 24.9313 26.586 24.975C26.6633 25.0556 26.7507 25.1161 26.8549 25.1497C26.9557 25.2035 27.0633 25.2271 27.1776 25.2237C27.2919 25.2271 27.4028 25.2035 27.5003 25.1497C27.6045 25.1161 27.6952 25.059 27.7692 24.975L27.9003 24.8035C27.9776 24.6724 28.0146 24.5313 28.0146 24.38L27.9843 24.1582C27.944 24.017 27.8734 23.8926 27.7692 23.7884Z" fill="#231F20"/>
</g>
<g id="Group_4" opacity="0.55">
<path id="Vector_37" d="M69.4479 103.611C69.4042 103.567 69.3639 103.527 69.3202 103.483C69.2429 103.402 69.1555 103.342 69.0513 103.308C68.9504 103.254 68.8429 103.231 68.7286 103.234C68.6143 103.231 68.5034 103.254 68.4059 103.308C68.3017 103.342 68.2109 103.399 68.137 103.483L68.0059 103.654C67.9286 103.785 67.8916 103.927 67.8916 104.078L67.9219 104.3C67.9622 104.441 68.0328 104.565 68.137 104.669C68.1807 104.713 68.221 104.754 68.2647 104.797C68.342 104.878 68.4294 104.938 68.5336 104.972C68.6345 105.026 68.742 105.049 68.8563 105.046C68.9706 105.049 69.0815 105.026 69.179 104.972C69.2832 104.938 69.374 104.881 69.4479 104.797L69.579 104.626C69.6563 104.495 69.6933 104.354 69.6933 104.202L69.663 103.98C69.6227 103.839 69.5521 103.715 69.4479 103.611Z" fill="#231F20"/>
</g>
<path id="Vector_38" d="M28.502 24.0069C28.4213 24.5212 28.1222 24.8775 27.7558 25.0859C27.618 25.1599 27.4869 25.2439 27.3222 25.2674C27.0398 25.3179 26.7272 25.254 26.5054 25.0893C26.2801 24.9212 26.1524 24.6927 26.0919 24.4708C26.0381 24.2725 26.0146 24.0775 26.0381 23.8792C26.0516 23.7548 26.0852 23.6271 26.1457 23.5128C26.2129 23.4019 26.3037 23.2977 26.4247 23.2439C26.4986 23.2069 26.5322 23.2943 26.5524 23.4019C26.5692 23.5095 26.5995 23.6305 26.5894 23.7044C26.5289 23.97 26.6633 24.2792 26.7978 24.4338C26.8381 24.4809 26.8986 24.5111 26.9625 24.5111C27.0264 24.5111 27.0902 24.4842 27.1575 24.454C27.3054 24.3901 27.4633 24.2355 27.5238 24.0708C27.5642 23.97 27.5709 23.8691 27.5339 23.7817C27.4902 23.6439 27.3322 23.5128 27.1373 23.496C26.986 23.4859 26.8415 23.5868 26.7843 23.6809C26.7675 23.6977 26.7642 23.7279 26.7541 23.7414C26.7205 23.7918 26.6701 23.7448 26.4079 23.5969L26.2264 23.4994C26.0247 23.3985 25.907 23.2002 26.0213 22.9985C26.1894 22.7027 26.5121 22.5179 26.828 22.4708C27.1474 22.4204 27.4801 22.4708 27.786 22.6389C28.0112 22.7599 28.223 22.9515 28.3608 23.2002C28.4986 23.4456 28.5524 23.7414 28.5255 24.0036H28.502V24.0069Z" fill="#231F20"/>
<path id="Vector_39" d="M70.1807 103.829C70.1 104.343 69.8009 104.7 69.4345 104.908C69.2967 104.982 69.1656 105.066 69.0009 105.09C68.7185 105.14 68.4059 105.076 68.1841 104.912C67.9589 104.743 67.8311 104.515 67.7706 104.293C67.7168 104.095 67.6933 103.9 67.7168 103.701C67.7303 103.577 67.7639 103.449 67.8244 103.335C67.8916 103.224 67.9824 103.12 68.1034 103.066C68.1773 103.029 68.211 103.117 68.2311 103.224C68.2479 103.332 68.2782 103.453 68.2681 103.527C68.2076 103.792 68.342 104.101 68.4765 104.256C68.5168 104.303 68.5773 104.333 68.6412 104.333C68.7051 104.333 68.7689 104.307 68.8362 104.276C68.9841 104.212 69.142 104.058 69.2026 103.893C69.2429 103.792 69.2496 103.691 69.2126 103.604C69.1689 103.466 69.011 103.335 68.816 103.318C68.6647 103.308 68.5202 103.409 68.4631 103.503C68.4463 103.52 68.4429 103.55 68.4328 103.564C68.3992 103.614 68.3488 103.567 68.0866 103.419L67.9051 103.322C67.7034 103.221 67.5857 103.022 67.7 102.821C67.8681 102.525 68.1908 102.34 68.5068 102.293C68.8261 102.243 69.1589 102.293 69.4647 102.461C69.6899 102.582 69.9017 102.774 70.0395 103.022C70.1773 103.268 70.2311 103.564 70.2042 103.826H70.1807V103.829Z" fill="#231F20"/>
<g id="Group_5" opacity="0.45">
<path id="Vector_40" d="M19.8367 84.3193C20.919 84.3193 20.919 82.6387 19.8367 82.6387C18.7543 82.6387 18.7543 84.3193 19.8367 84.3193Z" fill="#231F20"/>
</g>
<path id="Vector_41" d="M20.9192 82.9684C21.0536 83.4087 20.9729 83.8188 20.7847 84.155C20.7141 84.276 20.6435 84.4037 20.5259 84.4978C20.3242 84.6659 20.062 84.7667 19.8032 84.7533C19.5444 84.7398 19.3292 84.6323 19.1645 84.4978C19.02 84.3768 18.899 84.2323 18.8116 84.0676C18.7578 83.9634 18.7141 83.8457 18.704 83.7214C18.6973 83.597 18.7208 83.4625 18.7948 83.3617C18.8385 83.2945 18.9259 83.3617 19.0133 83.439C19.0973 83.523 19.2049 83.5936 19.2318 83.6407C19.3158 83.8323 19.541 83.9903 19.7024 84.0676C19.8099 84.1146 19.9175 84.0172 19.9847 83.9062C20.0687 83.7886 20.136 83.6003 20.1124 83.4356C20.1024 83.3348 20.0654 83.2474 19.9981 83.1802C19.9007 83.076 19.7225 83.002 19.5444 83.039C19.4066 83.0693 19.3024 83.1936 19.2587 83.2978C19.2452 83.3214 19.2452 83.3516 19.2385 83.3684C19.2082 83.4323 19.1511 83.3987 18.8788 83.2676L18.6906 83.1802C18.4788 83.0861 18.3477 82.9113 18.4217 82.7264C18.5292 82.4575 18.7612 82.2457 19.0267 82.1382C19.2923 82.0272 19.5948 81.997 19.8939 82.0575C20.341 82.1348 20.7881 82.4945 20.946 82.9516L20.9259 82.9617L20.9192 82.9684Z" fill="#231F20"/>
<g id="Group_6" opacity="0.75">
<path id="Vector_42" d="M86.0183 30.6626C87.1007 30.6626 87.1007 28.9819 86.0183 28.9819C84.936 28.9819 84.936 30.6626 86.0183 30.6626Z" fill="#231F20"/>
</g>
<path id="Vector_43" d="M87.309 29.4895C87.2956 29.9869 87.0703 30.4071 86.751 30.713C86.63 30.8172 86.5124 30.9382 86.3544 31.0021C86.0855 31.1231 85.7729 31.15 85.4972 31.076C85.2216 31.0054 84.9897 30.8575 84.8115 30.6726C84.6535 30.5079 84.5224 30.3231 84.4351 30.118C84.3208 29.8592 84.267 29.5399 84.3947 29.271C84.4317 29.1869 84.509 29.234 84.5796 29.318C84.6468 29.4054 84.7241 29.513 84.7477 29.6205C84.8216 30.0138 85.1342 30.3634 85.4838 30.5079C85.5914 30.5516 85.709 30.5584 85.8199 30.5315C85.9342 30.5012 86.0317 30.4374 86.1325 30.3701C86.3544 30.2256 86.5325 29.9701 86.5863 29.6979C86.6233 29.5298 86.6098 29.3584 86.5393 29.2105C86.4451 28.9785 86.2065 28.7937 85.9409 28.7331C85.7325 28.6895 85.514 28.7466 85.3561 28.8407C85.3191 28.8609 85.2922 28.8878 85.2619 28.9079C85.1477 28.9853 85.1006 28.9718 84.9224 28.8441L84.7981 28.7567C84.6636 28.6626 84.63 28.4844 84.7846 28.3264C85.0065 28.0979 85.3292 27.9735 85.6485 27.9634C85.9678 27.95 86.2972 28.0273 86.583 28.2054C86.7947 28.3332 86.9897 28.5147 87.1208 28.7432C87.2552 28.9718 87.3224 29.2374 87.3258 29.4861H87.309V29.4895Z" fill="#231F20"/>
<path id="Vector_44" d="M97.1982 51.0974C97.1847 51.5948 96.9595 52.015 96.6402 52.3209C96.5192 52.4251 96.4015 52.5461 96.2435 52.61C95.9746 52.731 95.662 52.7579 95.3864 52.6839C95.1108 52.6133 94.8788 52.4654 94.7007 52.2806C94.5427 52.1159 94.4116 51.931 94.3242 51.7259C94.2099 51.4671 94.1561 51.1478 94.2839 50.8789C94.3209 50.7948 94.3982 50.8419 94.4688 50.9259C94.536 51.0133 94.6133 51.1209 94.6368 51.2285C94.7108 51.6217 95.0234 51.9713 95.3729 52.1158C95.4805 52.1595 95.5982 52.1663 95.7091 52.1394C95.8234 52.1091 95.9209 52.0453 96.0217 51.978C96.2435 51.8335 96.4217 51.578 96.4755 51.3058C96.5125 51.1377 96.499 50.9663 96.4284 50.8184C96.3343 50.5864 96.0956 50.4016 95.8301 50.3411C95.6217 50.2974 95.4032 50.3545 95.2452 50.4486C95.2082 50.4688 95.1814 50.4957 95.1511 50.5159C95.0368 50.5932 94.9898 50.5797 94.8116 50.452L94.6872 50.3646C94.5528 50.2705 94.5192 50.0923 94.6738 49.9343C94.8956 49.7058 95.2183 49.5814 95.5377 49.5713C95.857 49.5579 96.1864 49.6352 96.4721 49.8133C96.6839 49.9411 96.8788 50.1226 97.0099 50.3511C97.1444 50.5797 97.2116 50.8453 97.215 51.094H97.1982V51.0974Z" fill="#231F20"/>
<path id="Vector_45" d="M63.0434 23.5632C63.1947 23.8825 63.1812 24.259 63.0333 24.5548C62.9695 24.6523 62.9392 24.7565 62.8485 24.8405C62.7039 24.985 62.5023 25.0825 62.3073 25.096C62.1123 25.1128 61.9375 25.0657 61.793 24.9884C61.6653 24.9212 61.5476 24.8472 61.4468 24.7497C61.3291 24.6186 61.2317 24.4237 61.2989 24.2354C61.3191 24.1783 61.4233 24.1951 61.5376 24.2186C61.6518 24.2455 61.793 24.2455 61.8333 24.2523C61.867 24.2623 61.9006 24.2691 61.9342 24.2691C61.9611 24.2758 61.9745 24.2959 61.9981 24.3094C62.0418 24.3396 62.0787 24.3699 62.1191 24.4069C62.1796 24.4506 62.2065 24.3867 62.2401 24.3329C62.2838 24.2691 62.3275 24.2119 62.3275 24.1178C62.3275 24.064 62.3107 24.0002 62.2703 23.9565C62.2132 23.8859 62.1056 23.8422 62.0115 23.8758C61.9342 23.9027 61.8871 24.0069 61.8939 24.0674C61.8939 24.0808 61.9006 24.0976 61.9039 24.1077C61.9039 24.1346 61.8535 24.1044 61.6081 24.0472L61.4401 24.0102C61.2518 23.9766 61.1039 23.8657 61.1275 23.7044C61.1577 23.4691 61.3123 23.264 61.5039 23.143C61.6888 23.0186 61.9443 22.9548 62.1897 22.9817C62.3712 22.9951 62.5493 23.059 62.7006 23.1531C62.8485 23.2607 62.9728 23.3917 63.0569 23.5497L63.0401 23.5632H63.0434Z" fill="#231F20"/>
<path id="Vector_46" d="M93.2768 101.032C93.4281 101.352 93.4146 101.728 93.2667 102.024C93.2029 102.121 93.1726 102.226 93.0819 102.31C92.9373 102.454 92.7357 102.552 92.5407 102.565C92.3457 102.582 92.1709 102.535 92.0264 102.458C91.8987 102.39 91.781 102.316 91.6802 102.219C91.5625 102.088 91.4651 101.893 91.5323 101.705C91.5525 101.648 91.6567 101.664 91.7709 101.688C91.8852 101.715 92.0264 101.715 92.0667 101.721C92.1004 101.732 92.134 101.738 92.1676 101.738C92.1945 101.745 92.2079 101.765 92.2315 101.779C92.2751 101.809 92.3121 101.839 92.3525 101.876C92.413 101.92 92.4399 101.856 92.4735 101.802C92.5172 101.738 92.5609 101.681 92.5609 101.587C92.5609 101.533 92.5441 101.469 92.5037 101.426C92.4466 101.355 92.339 101.311 92.2449 101.345C92.1676 101.372 92.1205 101.476 92.1273 101.537C92.1273 101.55 92.134 101.567 92.1373 101.577C92.1373 101.604 92.0869 101.574 91.8415 101.516L91.6735 101.479C91.4852 101.446 91.3373 101.335 91.3609 101.174C91.3911 100.938 91.5457 100.733 91.7373 100.612C91.9222 100.488 92.1777 100.424 92.4231 100.451C92.6046 100.464 92.7827 100.528 92.934 100.622C93.0819 100.73 93.2062 100.861 93.2903 101.019L93.2735 101.032H93.2768Z" fill="#231F20"/>
<path id="Vector_47" d="M61.1208 112.441C61.1645 112.525 61.0603 112.589 60.8721 112.636C60.8116 112.652 60.6334 112.636 60.6099 112.612C60.5628 112.565 60.5158 112.518 60.4822 112.468C60.4653 112.437 60.3746 111.994 60.3275 111.842C60.2838 111.698 60.2704 111.553 60.2637 111.409C60.2502 111.116 60.2099 110.824 60.1964 110.531C60.1964 110.468 60.2032 110.4 60.22 110.336C60.2838 110.111 60.2771 109.889 60.2435 109.668C60.2368 109.631 60.2435 109.594 60.2032 109.557C60.1427 109.499 60.0922 108.901 60.1158 108.82C60.1695 108.622 60.1931 108.424 60.2301 108.226C60.2368 108.199 60.2166 108.168 60.2603 108.138C60.3578 108.071 60.3343 108.01 60.3343 107.95C60.3343 107.866 60.341 107.778 60.3679 107.691C60.3813 107.647 60.4351 107.6 60.4754 107.553C60.5124 107.51 60.6704 107.513 60.6906 107.523C60.7443 107.557 60.8149 107.516 60.8788 107.506C60.899 107.503 60.9292 107.496 60.946 107.496C60.9863 107.496 61.3057 107.96 61.3057 108.017C61.3057 108.031 61.4469 108.74 61.467 108.834C61.4805 108.878 61.4569 108.921 61.4469 108.965C61.4469 108.985 61.5511 109.567 61.5511 109.59C61.5443 109.711 61.5847 109.832 61.5006 109.957C61.4838 109.98 61.4906 110.007 61.4906 110.031C61.5074 110.239 61.4771 110.447 61.4536 110.656C61.4401 110.763 61.4435 110.868 61.4401 110.975C61.4401 110.995 61.4267 111.012 61.42 111.032C61.4132 111.056 61.3998 111.079 61.3964 111.103C61.3897 111.355 61.3326 111.604 61.346 111.852C61.346 111.91 61.2351 112.182 61.2418 112.246C61.2418 112.283 61.1074 112.397 61.1242 112.431L61.1208 112.441Z" fill="#231F20"/>
<path id="Vector_48" d="M53.7255 108.79C53.665 108.874 53.5709 108.76 53.46 108.531C53.423 108.457 53.3726 108.222 53.386 108.185C53.4129 108.111 53.4364 108.037 53.4667 107.98C53.4868 107.95 53.8532 107.721 53.9742 107.631C54.0919 107.543 54.2163 107.493 54.3474 107.452L55.1272 107.184C55.1843 107.163 55.2482 107.157 55.3121 107.163C55.5339 107.18 55.7322 107.116 55.9205 107.026C55.9507 107.009 55.9877 107.005 56.0045 106.955C56.0347 106.871 56.549 106.676 56.6196 106.676C56.8112 106.686 56.986 106.663 57.1642 106.646C57.1877 106.646 57.2045 106.615 57.2448 106.652C57.3423 106.733 57.3827 106.693 57.4297 106.676C57.4902 106.652 57.5709 106.632 57.6381 106.629C57.6751 106.629 57.739 106.663 57.8028 106.686C57.86 106.706 57.9608 106.854 57.9608 106.874C57.9675 106.938 58.0415 106.989 58.0919 107.042C58.1087 107.063 58.1322 107.086 58.1423 107.103C58.1558 107.116 58.0986 107.281 58.0179 107.426C57.9406 107.57 57.8398 107.708 57.8163 107.718C57.8028 107.738 57.1709 108.118 57.1003 108.162C57.0633 108.189 57.0163 108.178 56.9692 108.175C56.949 108.175 56.4516 108.461 56.428 108.461C56.3137 108.484 56.2163 108.562 56.0751 108.501C56.0482 108.488 56.028 108.501 56.0045 108.511C55.823 108.589 55.6213 108.609 55.4263 108.639C55.3255 108.656 55.2347 108.696 55.1373 108.723C55.1205 108.726 55.0969 108.716 55.0801 108.716C55.0566 108.716 55.0297 108.706 55.0095 108.716C54.7843 108.787 54.539 108.787 54.3205 108.884C54.27 108.905 53.9877 108.851 53.9305 108.881C53.8969 108.898 53.7457 108.76 53.7221 108.794L53.7255 108.79Z" fill="#231F20"/>
</g>
</svg>
