<svg width="100" height="132" viewBox="0 0 100 132" fill="none" xmlns="http://www.w3.org/2000/svg">
<g id="166.Painting">
<path id="Vector" d="M23.5224 124.345C19.3796 124.589 8.48653 123.023 6.97893 120.783C4.9307 117.743 17.8812 118.377 17.8812 118.377C17.8812 118.377 19.151 121.618 20.9428 122.649C21.8452 123.147 22.7077 123.714 23.5224 124.345Z" fill="#231F20"/>
<path id="Vector_2" d="M72.485 76.3648C72.485 76.3648 74.6012 75.4225 73.489 74.1528C72.3768 72.8831 68.0518 70.2942 68.0518 70.2942C68.0518 70.2942 74.1038 72.5247 74.7834 74.8664C75.4631 77.2081 73.4643 77.2081 73.4643 77.2081L72.485 76.3648Z" fill="#231F20"/>
<path id="Vector_3" d="M24.0101 72.7969C23.7846 73.1583 22.518 71.7002 22.4407 71.5951C21.0814 69.7415 29.7594 67.06 30.782 66.8777C30.782 66.8777 23.0586 68.271 21.4151 70.1308C19.7716 71.9906 23.0185 73.7113 23.0185 73.7113C23.3926 73.4575 23.7269 73.1493 24.0101 72.7969Z" fill="#231F20"/>
<path id="Vector_4" opacity="0.2" d="M36.8403 69.5156C36.8403 69.5156 25.1317 71.7276 24.0597 73.3217C22.9877 74.9158 39.6856 79.2224 42.7965 78.9227C45.9075 78.623 36.8403 69.5156 36.8403 69.5156Z" fill="#231F20"/>
<path id="Vector_5" d="M70.4089 83.4986C70.4089 83.4986 77.1807 82.1485 77.7275 80.8479C78.2743 79.5473 77.1251 79.9489 77.1251 79.9489L69.6118 82.4204L70.4089 83.4986Z" fill="#231F20"/>
<path id="Vector_6" d="M16.5986 74.6221C17.1485 75.2531 17.7601 75.8275 18.4244 76.3367C20.4294 77.7794 31.7086 84.1465 54.7366 84.7335L56.6829 84.6006L55.7715 83.1981C55.7715 83.1981 29.6357 83.1981 20.1267 76.2687L16.5986 74.6221Z" fill="#231F20"/>
<path id="Vector_7" d="M52.2251 117.064C49.7356 115.854 47.3381 114.465 45.0516 112.905L43.8159 112.047C43.4019 111.759 42.9725 111.49 42.5801 111.166L40.5041 109.498L38.5269 107.712C37.8596 107.131 37.2417 106.476 36.6301 105.859L34.8073 103.952C33.7322 102.822 32.6448 101.7 31.5543 100.6C30.8499 99.8982 30.1558 99.1866 29.472 98.4658C29.1322 98.1043 28.7831 97.749 28.4556 97.3752L27.4794 96.2476C27.0778 95.778 27.2168 95.7502 27.7111 95.9943C27.9614 96.1148 28.2981 96.3032 28.6935 96.5442C28.8882 96.6678 29.1013 96.8006 29.3114 96.9581C29.5215 97.1157 29.7315 97.2949 29.9447 97.4895L31.06 98.5275L31.616 99.0496L32.1567 99.5872L34.2976 101.75L38.53 106.124C39.3857 106.971 40.3187 107.783 41.2579 108.596L42.7315 109.736C43.2258 110.116 43.7077 110.508 44.2237 110.851L45.895 112.022C46.17 112.226 46.4634 112.399 46.7507 112.581L47.6189 113.122C48.7588 113.872 49.976 114.49 51.1623 115.161L53.4237 116.267C54.1868 116.625 54.9684 116.937 55.7377 117.271C58.0934 118.228 60.5169 119.008 62.9883 119.606C64.8824 120.016 66.804 120.285 68.7376 120.412C69.1609 120.437 69.5748 120.45 69.9981 120.48C70.7828 120.508 71.3018 120.533 71.6663 120.585C71.9374 120.618 72.1979 120.71 72.4294 120.854C72.5137 120.898 72.5943 120.949 72.6703 121.006C72.7599 121.092 72.6425 121.182 72.3614 121.293C71.9271 121.466 71.4663 121.563 70.999 121.58C70.0933 121.645 69.1846 121.658 68.2773 121.62L66.9056 121.509C66.4453 121.466 65.9788 121.389 65.5278 121.33C64.601 121.216 63.6958 121.003 62.7752 120.826C62.318 120.724 61.8638 120.601 61.4097 120.49C60.9556 120.378 60.4829 120.27 60.0473 120.119C57.3616 119.325 54.7446 118.314 52.222 117.098L52.2251 117.064Z" fill="#231F20"/>
<path id="Vector_8" d="M60.5507 83.5967C60.5507 83.5967 62.531 84.6718 63.6802 84.7676C64.8295 84.8633 64.6379 88.0392 65.6111 87.4985C66.6429 86.927 69.0773 84.7336 68.8796 83.1982C68.5521 80.6309 70.6714 82.7162 69.9732 85.0889C69.6643 86.0991 67.5419 85.7932 67.2453 87.5109C66.9488 89.2286 68.0517 91.1223 65.5956 91.3664C63.8656 91.5394 62.7102 90.5971 62.0892 88.4037C61.2057 85.2866 58.6415 87.0259 57.1679 85.0889C55.3854 82.7502 56.8312 83.1982 56.8312 83.1982L60.5507 83.5967Z" fill="#231F20"/>
<path id="Vector_9" d="M6.42592 126.719C6.42592 126.719 9.25576 127.698 8.73675 128.446C8.21774 129.193 11.2731 129.091 12.3142 129.091C13.3553 129.091 15.5982 128.248 16.8988 129.289C18.1994 130.33 18.9965 130.454 16.2315 130.552C13.4665 130.651 7.54426 130.908 6.75957 130.163C5.97488 129.419 8.01693 128.912 7.13029 128.446C6.24365 127.979 5.67521 127.945 3.69494 127.754C1.71467 127.562 -0.0586153 126.447 1.0103 126.308C2.07921 126.169 6.42592 126.719 6.42592 126.719Z" fill="#231F20"/>
<path id="Vector_10" d="M88.1537 127.237C88.1537 127.237 90.1371 127.465 89.8436 128.213C89.5501 128.961 95.1449 129.807 95.3395 129.449C95.5341 129.09 92.4788 127.465 93.7454 127.401C95.012 127.336 98.1261 127.981 98.6884 129.026C99.2506 130.07 99.955 131.562 96.7019 131.271C93.4488 130.981 88.339 129.949 86.0931 129.507C83.8471 129.066 81.5394 128.096 82.9729 127.62C84.4063 127.144 88.1537 127.237 88.1537 127.237Z" fill="#231F20"/>
<path id="Vector_11" d="M71.2711 121.195C69.5547 123.619 67.0983 125.42 64.2706 126.329C59.6119 127.775 47.6963 128.445 47.6963 128.445C47.6963 128.445 64.2459 128.473 68.3424 126.524C72.4389 124.574 72.6891 120.963 72.6891 120.963L71.2711 121.195Z" fill="#231F20"/>
<path id="Vector_12" d="M71.271 113.11C76.5816 113.403 81.2712 112.671 82.198 108.281L81.611 106.817C80.9906 108.431 79.8257 109.777 78.3178 110.623C75.8556 111.939 71.271 113.11 71.271 113.11Z" fill="#231F20"/>
<path id="Vector_13" d="M16.7622 45.9999C16.7622 45.9999 17.6241 46.9731 18.1246 46.5529C18.6251 46.1328 30.2163 39.5679 30.0124 39.0644C29.8572 38.72 29.6321 38.4118 29.3513 38.1592C28.7434 38.4961 28.1825 38.9116 27.683 39.3949C26.9447 40.1425 26.679 39.9077 25.675 40.4793C24.6709 41.0508 23.7349 41.8695 22.9131 42.3329C22.0913 42.7963 20.8957 43.1361 20.2779 43.7787C19.66 44.4213 20.108 44.4244 19.073 44.8785C18.0381 45.3326 16.7622 45.9999 16.7622 45.9999Z" fill="#231F20"/>
<path id="Vector_14" d="M33.5099 53.0279C33.028 55.1905 28.8759 56.8618 28.8759 56.8618L27.6401 55.6075L33.5099 51.8262V53.0279Z" fill="#231F20"/>
<path id="Vector_15" d="M26.71 56.3488C26.71 56.3488 29.2679 57.8749 30.8837 60.2445C32.4994 62.614 42.7962 78.9226 42.7962 78.9226L45.5488 79.5034C45.5488 79.5034 31.5942 58.5577 30.17 57.115C28.0075 54.9524 27.6306 55.6074 27.6306 55.6074L26.71 56.3488Z" fill="#231F20"/>
<path id="Vector_16" d="M58.9197 22.6567C59.3183 23.2283 59.4913 24.1458 59.6674 24.8007C60.1355 26.4464 60.3204 28.1596 60.2142 29.8673C60.1252 31.5443 59.6129 33.1715 58.7251 34.5971C57.3843 36.6144 55.0179 37.1952 52.7441 37.3466C52.7441 37.3466 56.6274 38.4309 58.6973 35.8946C60.7672 33.3582 61.5117 29.0146 60.7981 26.6729C60.3644 25.2523 59.732 23.9002 58.9197 22.6567Z" fill="#231F20"/>
<path id="Vector_17" d="M55.6453 38.7057C53.1738 39.5182 50.0845 37.2043 50.0845 37.2043L50.2575 36.5864C50.2575 36.5864 53.7917 38.8756 55.6453 38.1311V38.7057Z" fill="#231F20"/>
<path id="Vector_18" d="M43.6678 72.0461C43.6678 72.0461 44.814 59.4755 47.026 54.3441C49.2379 49.2127 50.5818 43.9824 50.3099 43.4325L49.4048 42.6262C49.4048 42.6262 47.0785 50.8871 46.059 52.682C45.0395 54.4769 42.6607 64.5575 42.4846 67.548C42.3085 70.5385 42.5649 70.4458 42.5649 70.4458L43.6678 72.0461Z" fill="#231F20"/>
<path id="Vector_19" d="M53.2446 44.7978C50.9832 44.9275 50.0903 44.2046 50.0903 44.2046L50.285 43.0801L54.2548 43.9729V44.1243C54.2486 44.7082 53.8223 44.7669 53.2446 44.7978Z" fill="#231F20"/>
<path id="Vector_20" d="M81.5612 39.0611C81.4716 39.1754 82.4417 35.5238 81.5612 36.1231C80.6808 36.7225 82.4633 33.2222 82.9144 33.5064C83.3654 33.7907 82.1482 38.332 81.5612 39.0611Z" fill="#231F20"/>
<path id="Vector_21" d="M77.61 37.4512C77.61 37.4512 78.0672 35.2887 76.7821 36.7808C75.4969 38.273 77.7089 33.6204 78.7407 33.1354C79.7725 32.6504 79.5161 33.6761 79.0929 34.8377C78.6992 35.7622 78.2017 36.639 77.61 37.4512Z" fill="#231F20"/>
<path id="Vector_22" d="M70.8755 34.9799C70.9466 34.8347 71.7653 30.5251 70.5666 31.6002C69.3679 32.6752 68.1538 35.4031 68.1538 35.4031C68.1538 35.4031 71.7035 28.5757 72.4789 29.4036C73.2543 30.2316 70.8755 34.9799 70.8755 34.9799Z" fill="#231F20"/>
<path id="Vector_23" d="M62.3832 49.9636L60.5512 49.3735C60.5512 49.3735 59.0591 52.9664 60.1558 55.2062C61.2525 57.446 63.0196 57.9866 63.0196 57.9866C63.0196 57.9866 54.5702 77.9623 54.3354 79.921L55.6453 79.9488L64.8701 58.0299C65.0091 57.6653 63.9742 56.6798 63.6807 56.4234C60.4276 53.5812 62.3832 49.9636 62.3832 49.9636Z" fill="#231F20"/>
<path id="Vector_24" d="M77.0571 57.1148C77.0571 57.1148 73.7454 56.0645 70.3996 54.8133C66.0745 53.2037 62.1325 50.6519 61.629 50.5531C60.6527 50.3584 63.6803 50.2441 63.6803 50.2441C63.6803 50.2441 75.7565 56.4228 77.2209 56.256C78.6852 56.0892 77.0571 57.1148 77.0571 57.1148Z" fill="#231F20"/>
<path id="Vector_25" d="M35.3077 128C32.6337 127.549 29.9949 126.909 27.4113 126.085C26.12 125.668 24.8441 125.195 23.5929 124.66C22.975 124.392 22.3572 124.104 21.7393 123.805C21.0742 123.475 20.4818 123.016 19.9969 122.455C19.3295 121.666 18.7791 120.786 18.3627 119.841C17.9513 118.925 17.6094 117.979 17.3401 117.011C16.8783 115.326 16.5233 113.613 16.2773 111.883C16.024 110.162 15.8387 108.438 15.6996 106.711C15.4216 103.257 15.3073 99.8005 15.2548 96.3466C15.2115 93.282 15.1899 90.1988 15.1899 87.162L15.1714 81.2923V78.3697C15.1714 77.3997 15.1559 76.4235 15.0601 75.4843C15.0014 74.8973 14.9551 74.6965 15.0601 74.6687C15.1003 74.6687 15.1714 74.7089 15.264 74.8263C15.3806 75.0029 15.476 75.1927 15.5483 75.3916C15.9252 76.4018 16.2526 78.3203 16.3175 80.5755C16.4071 88.5646 16.16 96.5042 16.5523 104.503C16.6666 106.926 16.9037 109.342 17.2628 111.741C17.5958 114.151 18.1872 116.519 19.0269 118.803C19.4647 120.019 20.14 121.135 21.0133 122.087L21.3593 122.396L21.73 122.668C21.8629 122.742 21.9895 122.819 22.1286 122.893L22.5796 123.113C23.1789 123.403 23.7906 123.672 24.4085 123.931C26.8906 124.947 29.4535 125.753 32.0701 126.341C35.2996 127.074 38.5776 127.574 41.8788 127.836C46.8793 128.25 51.9066 128.223 56.9022 127.753C58.83 127.561 60.7299 127.296 62.6021 126.934C64.4608 126.597 66.2902 126.115 68.0733 125.492C68.8275 125.226 69.5473 124.871 70.2173 124.435C70.4749 124.256 70.7004 124.034 70.8846 123.78C71.0792 123.536 71.2368 123.304 71.3789 123.091C71.6021 122.735 71.8003 122.363 71.9721 121.979C72.247 121.361 72.3829 120.981 72.5652 120.666C72.6486 120.524 72.7228 120.323 72.7907 120.233C72.902 120.079 73.0348 120.326 73.0502 120.944C73.0283 121.895 72.7555 122.823 72.2594 123.635C72.0256 124.034 71.7579 124.412 71.4592 124.766C71.1197 125.138 70.721 125.451 70.2791 125.692C69.4767 126.132 68.6335 126.492 67.7613 126.767C66.0432 127.318 64.2881 127.747 62.5094 128.049C58.9127 128.662 55.2762 129.013 51.6287 129.1C46.17 129.268 40.7077 128.912 35.317 128.037L35.3077 128Z" fill="#231F20"/>
<path id="Vector_26" d="M77.4651 91.0946L77.0326 95.88C76.9862 96.4608 76.9584 97.0446 76.8997 97.6254C76.6938 99.685 76.4682 101.735 76.2232 103.776C76.1212 104.685 76.0193 105.599 75.9142 106.504C75.8555 107.085 75.7814 107.669 75.6918 108.25C75.6078 108.834 75.4808 109.411 75.3118 109.977C75.2129 110.329 75.043 110.233 74.9256 109.893C74.8563 109.677 74.8148 109.453 74.8021 109.226C74.7855 108.925 74.7959 108.623 74.8329 108.324C75.1419 106.001 75.355 103.64 75.6424 101.265C75.8123 99.8436 75.8648 98.3545 75.9513 96.8933L76.3498 92.0862C76.4301 91.0976 76.5105 90.106 76.5877 89.1174C76.7051 87.6191 76.8534 86.1145 76.9646 84.6224C77.014 84.0447 77.0511 83.467 77.0789 82.8923C77.1067 82.3177 77.1623 81.7431 77.221 81.1654C77.255 80.9121 77.2828 80.6618 77.3261 80.4054C77.3556 80.2047 77.3958 80.0057 77.4465 79.8092C77.491 79.671 77.5468 79.5366 77.6134 79.4076C77.6859 79.2403 77.8213 79.1083 77.9903 79.0399C78.0524 79.0078 78.1176 78.9819 78.1849 78.9627C78.3795 78.938 78.466 79.3612 78.3826 80.0038C78.3672 80.5136 78.3054 81.0109 78.2776 81.5269C78.2498 82.0428 78.2034 82.5649 78.1633 83.0932C78.0737 84.1497 77.9841 85.2217 77.8945 86.2937C77.7586 87.8971 77.6257 89.5066 77.4898 91.11L77.4651 91.0946Z" fill="#231F20"/>
<path id="Vector_27" d="M58.0606 83.7457C55.4872 83.8477 52.9107 83.8631 50.3373 83.7766C47.7639 83.6901 45.1966 83.5079 42.6448 83.1866C41.718 83.0908 40.7912 82.9549 39.8644 82.8251C38.9376 82.6954 38.0108 82.5409 37.084 82.3741C33.8308 81.7688 30.6187 80.9598 27.4669 79.952C26.6853 79.6833 25.8944 79.4392 25.119 79.1519L22.7989 78.2745C21.2328 77.6946 19.7238 76.9707 18.2915 76.112C17.6429 75.7111 17.0463 75.2317 16.5151 74.6847C15.9546 74.1203 15.54 73.4279 15.3072 72.6674C15.0819 71.8866 15.0937 71.0564 15.3412 70.2824C15.6053 69.5399 16.0268 68.8633 16.5769 68.299C17.2446 67.5951 18.003 66.9832 18.8321 66.4794C19.645 65.9772 20.4986 65.5442 21.3839 65.185C23.1414 64.4447 25.0176 64.0261 26.9231 63.9492C27.5194 63.9647 27.7758 64.045 27.7603 64.1068C27.7449 64.1686 27.4514 64.2551 26.9818 64.4157C26.5123 64.5764 25.845 64.7741 25.0664 65.0336C24.2879 65.2931 23.392 65.6514 22.4251 66.0005C20.7259 66.6586 19.0731 67.5452 17.791 68.7223C17.1764 69.2662 16.7043 69.9525 16.4163 70.7211C16.3037 71.0825 16.2618 71.4621 16.2927 71.8394C16.324 72.2234 16.4289 72.5979 16.6016 72.9423C17.0114 73.6837 17.5826 74.3236 18.273 74.8144C19.0062 75.356 19.7905 75.8247 20.6147 76.2139C21.4488 76.6217 22.3169 76.977 23.2005 77.3384L25.8573 78.361C30.2452 79.8962 34.7686 81.0123 39.367 81.6944C40.6336 81.8736 41.9003 82.0713 43.1731 82.1949C44.4459 82.3185 45.7249 82.442 47.0008 82.5502C47.6403 82.5965 48.2798 82.6181 48.9193 82.6552C49.5588 82.6923 50.2014 82.7232 50.8408 82.7293L52.7655 82.7695H54.6871C57.8444 82.7232 61.0017 82.5316 64.1374 82.1825C65.3237 82.0342 66.5162 81.9107 67.6932 81.7191C68.8703 81.5276 70.0473 81.3113 71.2027 81.0333C72.3566 80.7619 73.4917 80.4162 74.601 79.9984C75.695 79.6003 76.7285 79.0524 77.6718 78.3703C78.3781 77.8722 78.9321 77.1877 79.2721 76.3931C79.3479 76.2022 79.4059 76.0047 79.4451 75.803C79.4735 75.5984 79.4849 75.3917 79.4791 75.1852C79.4629 74.7693 79.3815 74.3586 79.2381 73.968C78.9258 73.1634 78.4575 72.4284 77.8603 71.8054C77.2505 71.1759 76.5682 70.6211 75.8275 70.1526C75.1696 69.7264 74.4901 69.3345 73.7916 68.9787C72.4848 68.2898 71.5827 67.8758 70.9803 67.5236C70.5445 67.299 70.1514 67 69.8187 66.64C69.7076 66.5257 69.6044 66.4039 69.5098 66.2755C69.4294 66.1118 69.6859 66.1179 70.2172 66.2755C71.0256 66.5103 71.8172 66.7993 72.5867 67.1405C73.3436 67.468 74.1067 67.8202 74.8574 68.2187C75.6188 68.6257 76.3535 69.0807 77.057 69.5811C77.7856 70.111 78.4492 70.7249 79.0342 71.41C79.6453 72.1355 80.1053 72.9758 80.3873 73.8815C80.4213 74.0019 80.4615 74.1163 80.4862 74.2398L80.548 74.6105C80.5852 74.8641 80.6007 75.1205 80.5943 75.3767C80.5777 75.8973 80.4657 76.4104 80.2638 76.8905C79.8551 77.8007 79.2162 78.5886 78.4102 79.1766C77.6764 79.738 76.879 80.2109 76.0345 80.5853C75.2154 80.9536 74.3745 81.2714 73.5166 81.5369C71.002 82.2817 68.4254 82.7986 65.818 83.0815L63.881 83.3132L61.9378 83.4955C61.2921 83.5604 60.6433 83.6067 59.9946 83.6438C59.3458 83.6809 58.697 83.7334 58.0483 83.7612L58.0606 83.7457Z" fill="#231F20"/>
<path id="Vector_28" d="M36.4232 77.792C38.4498 78.172 40.4981 78.484 42.5556 78.7713C44.6131 79.0586 46.6582 79.3243 48.7343 79.5004C50.2388 79.6301 51.7433 79.6888 53.2478 79.7444C55.8999 79.847 58.5557 79.8026 61.2029 79.6116C63.8437 79.425 66.468 79.0512 69.056 78.4933C70.1923 78.2498 71.3024 77.897 72.3708 77.4398C72.8781 77.2236 73.3516 76.9354 73.7765 76.584C73.959 76.4261 74.1118 76.2367 74.2275 76.0249C74.3227 75.8427 74.3563 75.6346 74.3233 75.4317C74.2655 75.1374 74.1348 74.8624 73.9433 74.6316L73.7765 74.44L73.588 74.2423C73.4645 74.1064 73.3285 73.9828 73.1988 73.8561C72.6665 73.3488 72.0987 72.8801 71.4996 72.4536C70.2857 71.6007 69.0105 70.8387 67.6843 70.1736C66.8564 69.7535 67.085 69.5156 67.9438 69.5712C69.3343 69.7408 70.6616 70.2501 71.8086 71.0541C72.4808 71.5086 73.1199 72.0103 73.7209 72.5555C74.0298 72.8336 74.314 73.1178 74.5921 73.4205C74.7464 73.5838 74.8908 73.7561 75.0246 73.9365C75.1795 74.1394 75.3091 74.3603 75.4108 74.5945C75.5269 74.8598 75.5969 75.1429 75.6177 75.4317C75.6326 75.7387 75.5853 76.0455 75.4787 76.3338C75.2773 76.8249 74.9528 77.2558 74.5365 77.585C73.8505 78.1083 73.0863 78.5201 72.272 78.8053C70.7664 79.34 69.2153 79.7371 67.638 79.9916C66.0933 80.2634 64.5239 80.455 62.9576 80.594C59.1368 80.9526 55.2954 81.0403 51.4622 80.8566C49.3552 80.7454 47.2545 80.5477 45.163 80.3005C43.0715 80.0534 41.0016 79.7475 38.9194 79.4201C36.3529 79.0375 33.808 78.5219 31.2949 77.8754C30.3465 77.6221 29.3981 77.3471 28.462 77.0289C27.5259 76.7107 26.6084 76.374 25.6816 75.9723C24.7727 75.5812 23.8857 75.1409 23.0247 74.6532C22.1342 74.1761 21.3183 73.5714 20.6027 72.8583C20.2999 72.5493 20.0699 72.1768 19.9292 71.7678C19.853 71.538 19.8307 71.2938 19.8643 71.0541C19.8836 70.9333 19.9136 70.8144 19.9539 70.6988C20.0034 70.5907 20.0559 70.4857 20.1146 70.3899L20.3185 70.118L20.5533 69.8894C20.6318 69.8176 20.7155 69.7515 20.8035 69.6917C20.8807 69.633 20.958 69.5774 21.0383 69.5249C21.3472 69.3025 21.6747 69.0986 22.0022 68.907C23.313 68.1403 24.6953 67.503 26.1295 67.004C26.7474 66.7815 27.3653 66.5684 28.0264 66.3861C28.8694 66.134 29.7324 65.9541 30.606 65.8486C31.0098 65.7823 31.4239 65.8173 31.8108 65.9505C31.943 65.9873 32.0705 66.0391 32.1908 66.105C32.3268 66.2069 32.1568 66.3521 31.7398 66.5189C31.3227 66.6858 30.6523 66.8804 29.7966 67.109C28.5171 67.4387 27.2559 67.8357 26.0183 68.2984C24.7726 68.7656 23.5703 69.3415 22.4254 70.0192C22.1412 70.186 21.8662 70.3683 21.6005 70.5536L21.4028 70.6988L21.3534 70.7328L21.2978 70.7884C21.2235 70.8572 21.1581 70.935 21.1032 71.0201C21.0691 71.0756 21.048 71.138 21.0416 71.2028C21.0352 71.2675 21.0435 71.3329 21.0661 71.3939C21.1436 71.6197 21.2655 71.8276 21.4245 72.0056C21.8594 72.4565 22.3493 72.8509 22.8826 73.1796C23.4527 73.5401 24.0416 73.8701 24.6466 74.1682C25.5518 74.6192 26.5002 75.0363 27.4425 75.4039C28.3847 75.7715 29.3857 76.0805 30.3743 76.377C32.3673 76.9471 34.3884 77.4142 36.4294 77.7765L36.4232 77.792Z" fill="#231F20"/>
<path id="Vector_29" d="M56.5349 71.0298C56.1796 70.9495 55.8212 70.8723 55.4598 70.8074C55.3269 70.7858 55.191 70.8074 55.0612 70.7703C54.5948 70.6838 54.1344 70.5911 53.6525 70.5293C53.4474 70.5064 53.2407 70.5013 53.0346 70.5139C52.7672 70.565 52.4916 70.5555 52.2283 70.4861C52.0646 70.4181 52.2778 69.4635 52.6021 69.4573C53.1698 69.4463 53.7357 69.5234 54.2796 69.686C54.619 69.7541 54.9628 69.7974 55.3084 69.8157C55.6853 69.8713 56.0591 69.9393 56.4329 70.0134L57.1249 70.1555L58.1691 70.3811C58.441 70.4274 58.7221 70.4336 59.0033 70.4707C59.0668 70.4739 59.1299 70.4832 59.1917 70.4985C59.4203 70.5602 59.4667 70.6498 59.4141 70.9124C59.4141 70.9711 59.3925 71.0298 59.374 71.0885C59.355 71.1741 59.3101 71.2517 59.2455 71.3109C59.1808 71.37 59.0994 71.4078 59.0125 71.4191C58.5416 71.4196 58.0721 71.3668 57.6131 71.2615C57.2609 71.1966 56.9056 71.1163 56.5441 71.0545L56.5349 71.0298Z" fill="#231F20"/>
<path id="Vector_30" d="M30.884 70.9313C30.1925 71.0752 29.5089 71.2546 28.8358 71.4688C28.5918 71.5491 28.3539 71.6511 28.1098 71.7376C27.2465 72.0323 26.4033 72.3831 25.5858 72.788C25.2281 72.9747 24.8853 73.1885 24.5602 73.4274C24.1655 73.754 23.753 74.0583 23.3244 74.3388C23.1916 74.4129 23.0155 74.2245 22.9568 73.9465C22.9181 73.7954 22.9209 73.6368 22.9649 73.4872C23.009 73.3377 23.0926 73.2028 23.207 73.0969C24.0907 72.4068 25.081 71.8652 26.1388 71.4935C26.7721 71.2742 27.3746 70.9529 28.0202 70.7274C28.72 70.486 29.4315 70.2798 30.1519 70.1095C30.5967 70.0044 31.0385 69.8963 31.4865 69.8191C32.16 69.6708 32.8458 69.5967 33.5162 69.4731C34.0414 69.4082 34.548 69.2537 35.0608 69.1827C35.1751 69.1641 35.2864 69.1394 35.4038 69.1271C35.8363 69.0807 35.9784 69.1271 36.0803 69.3958C36.107 69.4529 36.1297 69.5118 36.1483 69.5719C36.1977 69.7728 36.0309 69.9519 35.7281 70.0323C35.2802 70.1527 34.823 70.2238 34.3596 70.3165C34.1279 70.3597 33.8931 70.3968 33.6583 70.4308C33.4235 70.4648 33.1918 70.5142 32.9539 70.5513C32.6048 70.61 32.2557 70.6656 31.9097 70.7428C31.5637 70.82 31.2084 70.8726 30.8655 70.9652L30.884 70.9313Z" fill="#231F20"/>
<path id="Vector_31" d="M37.6126 105.837C36.8403 105.154 36.0679 104.475 35.3234 103.761L34.1989 102.704C33.8251 102.349 33.4667 101.981 33.0991 101.62L32.0054 100.536C31.6409 100.171 31.2918 99.7942 30.9334 99.4235L29.8676 98.3082L29.3455 97.7645C29.1694 97.5884 28.9902 97.4154 28.8049 97.2424C28.0696 96.5473 27.2818 95.8769 26.5527 95.1076C25.7743 94.3342 25.1689 93.4045 24.7764 92.3798C24.3831 91.305 24.3517 90.1313 24.6868 89.0371C24.8694 88.4743 25.1767 87.96 25.5858 87.5326C25.9962 87.1129 26.4897 86.7836 27.0347 86.5656C27.8266 86.2575 28.688 86.1731 29.5247 86.3215C30.3275 86.4658 31.097 86.7558 31.7954 87.1773C32.1476 87.3858 32.4796 87.6268 32.787 87.8971C33.0871 88.1673 33.3621 88.4641 33.6088 88.7838C34.1 89.4016 34.4954 90.0473 34.9125 90.6374C35.0979 90.8969 35.2863 91.144 35.484 91.3726C35.6899 91.6003 35.9108 91.8139 36.1452 92.0121L37.6311 93.3066C38.6135 94.1778 39.633 95.0057 40.6309 95.8583C42.6637 97.5204 44.7057 99.1701 46.825 100.718C51.0451 103.826 55.4752 106.702 60.2142 108.902C62.3114 109.893 64.5009 110.677 66.7513 111.24C67.8673 111.518 69.0036 111.707 70.1496 111.806C71.2811 111.914 72.4213 111.892 73.5479 111.741C73.9093 111.707 74.2584 111.614 74.6137 111.555L75.1389 111.416C75.3119 111.37 75.4849 111.321 75.6548 111.259C76.3354 111.033 76.9883 110.732 77.6011 110.36C78.2132 109.994 78.7759 109.552 79.2755 109.044C79.776 108.574 80.1527 107.988 80.3722 107.338C80.5748 106.683 80.6192 105.988 80.502 105.312C80.3825 104.611 80.1749 103.928 79.8841 103.279C79.5898 102.611 79.2491 101.965 78.8646 101.345C78.4784 100.727 78.0954 100.088 77.6567 99.4914C76.5569 98.0054 76.804 98.1167 77.9069 99.2535C78.6858 100.036 79.3978 100.882 80.0355 101.784C80.4719 102.41 80.8406 103.081 81.1353 103.786C81.4846 104.625 81.65 105.53 81.6203 106.439C81.5975 106.878 81.5175 107.312 81.3824 107.731C81.2412 108.148 81.0482 108.545 80.8078 108.914C80.568 109.267 80.2926 109.594 79.986 109.89C79.8451 110.039 79.6955 110.179 79.5381 110.31C79.3836 110.446 79.2292 110.582 79.0654 110.703C78.4195 111.207 77.7088 111.623 76.9523 111.938C76.5816 112.108 76.1954 112.229 75.8123 112.362C75.6208 112.42 75.4231 112.467 75.2285 112.519C75.0338 112.572 74.8392 112.621 74.6384 112.652C73.0737 112.949 71.4738 113.015 69.8901 112.847C68.3324 112.681 66.7934 112.37 65.2931 111.92C64.5424 111.716 63.8133 111.45 63.0781 111.2C62.3428 110.95 61.6261 110.656 60.9155 110.335C59.4882 109.736 58.1104 109.031 56.7449 108.315C54.036 106.838 51.4159 105.204 48.898 103.421C45.8828 101.299 42.9016 99.0126 39.9821 96.6245C39.2561 96.0221 38.5332 95.4135 37.8196 94.808L35.6725 92.9544C35.4902 92.7937 35.3234 92.6454 35.1318 92.4755C34.945 92.3017 34.7696 92.1159 34.6067 91.9194C34.2982 91.5422 34.0095 91.1494 33.7416 90.7424C33.2762 89.9719 32.7157 89.263 32.0734 88.6324C31.3453 88.014 30.4799 87.5787 29.5494 87.3626C28.6463 87.1461 27.6943 87.2901 26.8957 87.7643C26.4991 87.9917 26.1593 88.3062 25.9019 88.684C25.6445 89.0618 25.4762 89.4931 25.4097 89.9453C25.2776 90.8974 25.4381 91.8671 25.87 92.7258C26.3421 93.5986 26.9548 94.3876 27.6834 95.0613C28.4063 95.778 29.191 96.4453 29.9387 97.1899L32.0827 99.4265C32.7932 100.171 33.5408 100.879 34.2668 101.608C34.7117 102.059 35.1936 102.482 35.6416 102.918C36.0895 103.353 36.5684 103.789 37.0349 104.209C37.9833 105.046 38.9194 105.902 39.9018 106.699C40.8842 107.496 41.8666 108.296 42.8614 109.078C43.8562 109.859 44.8849 110.598 45.9507 111.299C47.5201 112.399 49.1575 113.403 50.8165 114.364C52.4754 115.324 54.1993 116.168 55.9479 116.943C59.4316 118.501 63.1242 119.542 66.9089 120.032C68.3624 120.204 69.8275 120.256 71.2895 120.19C72.0155 120.159 72.7354 120.076 73.4521 119.974C74.1615 119.862 74.8631 119.705 75.5528 119.504C75.8927 119.396 76.2294 119.282 76.5538 119.146C76.8782 119.01 77.1995 118.837 77.5238 118.692C77.8482 118.547 78.1417 118.34 78.4506 118.157L78.8862 117.848C79.0342 117.755 79.1756 117.652 79.3095 117.539C80.4193 116.682 81.2853 115.549 81.8211 114.252C82.038 113.678 82.1933 113.083 82.2845 112.476C82.3814 111.863 82.4279 111.243 82.4235 110.622V110.196C82.4235 110.058 82.4143 109.922 82.3957 109.788C82.3772 109.654 82.3679 109.525 82.3679 109.399C82.3525 109.272 82.337 109.146 82.3247 109.025C82.2938 108.778 82.2691 108.549 82.2258 108.352C82.1826 108.154 82.13 107.938 82.0775 107.734C81.8582 106.952 81.6388 106.322 81.4597 105.806C81.1044 104.768 80.8974 104.178 80.7491 103.674C80.6755 103.451 80.5888 103.233 80.4896 103.019C80.4464 102.896 80.4896 102.884 80.6657 102.992C80.9307 103.191 81.1587 103.436 81.3392 103.715C82.102 104.867 82.6824 106.13 83.0599 107.459C83.1615 107.796 83.243 108.138 83.304 108.485C83.3411 108.824 83.4029 109.158 83.4245 109.501C83.4461 109.844 83.4801 110.187 83.4739 110.536C83.4739 110.709 83.4739 110.882 83.4739 111.055L83.443 111.577C83.3614 113.013 82.9398 114.41 82.2132 115.652C81.4865 116.893 80.4754 117.945 79.2631 118.72C79.1118 118.818 78.9696 118.926 78.8152 119.028L78.3487 119.288C78.0414 119.467 77.7237 119.626 77.3972 119.767C77.2334 119.841 77.0882 119.918 76.9091 119.986L76.4148 120.199C76.0749 120.311 75.732 120.419 75.386 120.508C72.6211 121.197 69.7665 121.219 66.9706 120.907C64.1712 120.558 61.418 119.906 58.7592 118.964C56.79 118.261 54.8667 117.435 53.0006 116.492C52.0738 116.035 51.147 115.522 50.2357 115.018L48.8918 114.221C48.4377 113.959 47.999 113.681 47.5603 113.397C45.7901 112.294 44.1033 111.064 42.432 109.822C40.7606 108.58 39.1634 107.243 37.6033 105.865L37.6126 105.837Z" fill="#231F20"/>
<path id="Vector_32" d="M60.2269 65.9201C59.7058 67.0714 59.1909 68.2309 58.6822 69.3987C58.5 69.825 58.3486 70.2637 58.1632 70.6869C57.5021 72.1822 56.8533 73.6805 56.2355 75.1943C55.9605 75.8647 55.7288 76.5567 55.4817 77.2302C55.1951 78.111 54.8599 78.9753 54.4776 79.819C54.351 80.0816 54.1841 79.9828 54.0791 79.6862C53.9444 79.2619 53.938 78.8073 54.0606 78.3794C54.5736 76.5513 55.2242 74.7647 56.0068 73.0348C56.4795 71.9906 56.8379 70.8723 57.2673 69.7725C57.74 68.58 58.2559 67.3999 58.7656 66.2228L59.7202 64.0603C59.9674 63.5166 60.2176 62.9697 60.4648 62.4229C60.7119 61.8761 60.9714 61.3355 61.2062 60.7918C61.5924 59.9484 61.8982 59.0864 62.3091 58.2585C62.3987 58.0762 62.4698 57.8909 62.5686 57.7086C62.6907 57.4649 62.8502 57.2418 63.0413 57.0475C63.1667 56.9433 63.3263 56.8893 63.4892 56.8961C63.5591 56.8898 63.6294 56.8898 63.6993 56.8961C63.8044 56.9177 63.8538 57.0166 63.8661 57.1803C63.8748 57.4008 63.8336 57.6205 63.7457 57.8229C63.5943 58.1936 63.4522 58.5767 63.3039 58.9629C63.1556 59.349 62.9949 59.7321 62.8374 60.1183C62.4945 60.8844 62.1454 61.663 61.7994 62.4384C61.2773 63.5938 60.749 64.7585 60.2547 65.9324L60.2269 65.9201Z" fill="#231F20"/>
<path id="Vector_33" d="M66.0897 67.8634C65.5934 68.9117 65.1094 69.9652 64.6377 71.0238C64.4678 71.4131 64.3288 71.8116 64.1496 72.1977L62.3392 76.3035C62.0705 76.9214 61.8264 77.5392 61.5669 78.1386C61.4032 78.5309 61.2364 78.9233 61.0448 79.3063C60.866 79.6935 60.6596 80.0672 60.4269 80.4247C60.2787 80.6502 60.1829 80.5513 60.1643 80.2856C60.1505 79.8978 60.2189 79.5114 60.3652 79.1519L60.603 78.5587C60.6772 78.3579 60.7513 78.1571 60.8316 77.9594L61.3259 76.77C61.6596 75.9791 61.9932 75.179 62.3547 74.3881C62.7872 73.4427 63.1363 72.414 63.5348 71.4254C63.9735 70.338 64.4256 69.2557 64.891 68.1785C65.1753 67.5143 65.4718 66.8563 65.7715 66.1951C66.2225 65.1973 66.6983 64.2118 67.1802 63.2294C67.5571 62.4663 67.8692 61.6847 68.2677 60.9402C68.3542 60.7733 68.4314 60.6096 68.5334 60.449C68.9288 59.862 69.1173 59.7199 69.42 59.757C69.4889 59.7603 69.5572 59.7706 69.6239 59.7878C69.8278 59.8558 69.8155 60.1895 69.6085 60.6343C69.5312 60.8012 69.4478 60.9587 69.3737 61.1317C69.2995 61.3047 69.2285 61.4746 69.142 61.6384C68.9752 61.972 68.8022 62.3026 68.6384 62.6486L68.1132 63.665C67.9433 64.011 67.7734 64.3601 67.6004 64.7092L66.8373 66.2878L66.1021 67.8727L66.0897 67.8634Z" fill="#231F20"/>
<path id="Vector_34" d="M76.2448 47.4271C77.0696 47.7206 77.8976 48.0017 78.741 48.3539C78.951 48.4435 79.1642 48.5362 79.3774 48.6474C79.6125 48.7644 79.8351 48.9052 80.0416 49.0675C80.193 49.184 80.3165 49.3328 80.403 49.5031C80.4441 49.5917 80.4772 49.6837 80.5019 49.7781C80.5202 49.8514 80.5346 49.9257 80.5451 50.0005C80.5727 50.2593 80.5727 50.5203 80.5451 50.779C80.4901 51.4564 80.3606 52.1257 80.159 52.7748C79.8078 53.8781 79.3375 54.9399 78.7564 55.9413C78.178 56.9518 77.4754 57.8859 76.6649 58.7217C75.9498 59.4731 75.1274 60.1144 74.2243 60.6248C73.6363 60.9501 73.0033 61.1864 72.346 61.3261C71.6873 61.4654 71.0083 61.48 70.3441 61.3693C69.9332 61.2952 70.0352 61.1005 70.375 60.9275C70.8748 60.6975 71.3993 60.5254 71.9382 60.4147C73.0967 60.1421 74.171 59.5906 75.0677 58.8082C76.0037 57.9992 76.822 57.0633 77.499 56.0278C78.3529 54.7378 78.9691 53.3055 79.3187 51.7985C79.4198 51.4026 79.485 50.9983 79.5133 50.5906C79.5308 50.4178 79.5277 50.2436 79.504 50.0716C79.4971 50.0281 79.4802 49.9869 79.4546 49.9511C79.4546 49.9326 79.4299 49.9295 79.4052 49.9048C79.3745 49.8771 79.3414 49.8523 79.3063 49.8306C78.9652 49.6104 78.6018 49.4271 78.222 49.2838C77.8234 49.1231 77.4125 48.9749 77.0017 48.8266L73.9308 47.7515C72.3862 47.1954 70.8415 46.5714 69.3401 45.8979C68.1754 45.3727 67.0262 44.8599 65.9171 44.2358C65.6699 44.0999 65.429 43.967 65.1911 43.8157C64.8658 43.6321 64.5674 43.4044 64.3044 43.1391C64.2386 43.053 64.1846 42.9584 64.1438 42.858C64.1175 42.7726 64.1009 42.6845 64.0944 42.5954C64.0944 42.5212 64.0635 42.4409 64.0635 42.3915C64.0635 42.342 64.1716 42.3019 64.3909 42.3173C64.6848 42.3563 64.9659 42.4619 65.2127 42.6263C67.19 43.7558 69.2396 44.7537 71.3482 45.6137C72.9484 46.2686 74.5951 46.8494 76.2664 47.4117L76.2448 47.4271Z" fill="#231F20"/>
<path id="Vector_35" d="M60.7269 49.2617C60.4971 50.0687 60.3481 50.8966 60.282 51.7332C60.2663 52.0419 60.2663 52.3512 60.282 52.66C60.2888 53.7398 60.539 54.8043 61.0142 55.774C61.2327 56.2031 61.5103 56.5993 61.839 56.9511C62.2757 57.391 62.7389 57.8037 63.2262 58.1868C63.3745 58.3196 63.2787 58.434 63.0532 58.4679C62.7259 58.5127 62.394 58.4297 62.1264 58.2362C60.9441 57.438 60.093 56.2366 59.7321 54.8565C59.4976 54.0401 59.3577 53.1994 59.3151 52.351C59.3026 51.4298 59.397 50.5103 59.5962 49.6108C59.7198 49.064 59.8742 48.5233 60.0472 47.9951C60.3196 47.1983 60.6341 46.4166 60.9895 45.6533C61.2552 45.0633 61.4961 44.467 61.7958 43.8893C61.8638 43.7627 61.9194 43.6329 61.9935 43.5093C62.2746 43.0521 62.4415 42.9563 62.7226 43.0243C62.7887 43.0367 62.8538 43.0542 62.9172 43.0768C63.1149 43.1633 63.1304 43.4352 62.9728 43.7688C62.5063 44.7667 61.9966 45.7893 61.5548 46.8582C61.2234 47.6441 60.9477 48.4524 60.73 49.2771L60.7269 49.2617Z" fill="#231F20"/>
<path id="Vector_36" d="M82.8375 42.4188L82.2197 43.843C82.1486 44.016 82.093 44.1983 82.0189 44.3713C81.7501 44.9891 81.469 45.5823 81.1817 46.1847C81.0581 46.4535 80.9376 46.7253 80.8264 46.9972C80.6874 47.3511 80.5014 47.6847 80.2734 47.9889C80.1992 48.0816 80.1127 48.0167 80.054 47.8715C79.9786 47.6943 79.9687 47.4961 80.0262 47.3123C80.1467 46.9573 80.2881 46.6096 80.4495 46.2712C80.6009 45.9252 80.7584 45.5854 80.9345 45.2425C81.124 44.8156 81.289 44.3782 81.4288 43.9326L81.9663 42.4806L82.2969 41.5847C82.4545 41.1305 82.6367 40.6795 82.7819 40.2223C82.8962 39.8639 82.9642 39.4994 83.0723 39.1441C83.097 39.0638 83.1125 38.9865 83.1403 38.9093C83.2484 38.6189 83.338 38.5509 83.5605 38.5726C83.6103 38.5729 83.6599 38.5781 83.7087 38.588C83.8725 38.622 83.9528 38.7888 83.925 39.0112C83.877 39.3451 83.811 39.6762 83.7273 40.0029C83.6315 40.3273 83.5172 40.6517 83.3998 40.9761C83.2299 41.4611 83.0291 41.9399 82.8406 42.4219L82.8375 42.4188Z" fill="#231F20"/>
<path id="Vector_37" d="M83.1217 32.6447C83.2092 32.6255 83.2998 32.6255 83.3873 32.6447C83.5018 32.6782 83.6011 32.7502 83.6685 32.8486C83.7973 33.1123 83.8528 33.4057 83.8291 33.6982C83.824 33.9219 83.8023 34.145 83.7642 34.3655L83.7025 34.73C83.6808 34.8536 83.6468 34.9803 83.619 35.1039L83.5325 35.4777L83.4646 35.7155L83.3472 36.1357C83.2298 36.5404 83.1217 36.9451 82.9888 37.3436C82.5131 38.7431 81.9755 40.124 81.4441 41.4803L80.7398 43.2968C80.4468 44.0774 80.1074 44.8398 79.7234 45.5798C79.5967 45.8115 79.5195 45.7343 79.504 45.4902C79.4933 45.111 79.5476 44.7328 79.6647 44.3719C80.1559 42.7531 80.7892 41.196 81.4163 39.6112C81.7963 38.6844 82.0836 37.6495 82.3771 36.6578L82.615 35.8391L82.7787 35.2212C82.859 34.9695 82.9006 34.707 82.9023 34.4427C82.9011 34.3981 82.8917 34.3542 82.8745 34.313C82.8343 34.313 82.8127 34.3439 82.7849 34.3655C82.7356 34.4218 82.6892 34.4806 82.6459 34.5416C82.5563 34.6652 82.4667 34.8073 82.3709 34.9617L82.2659 35.1378L82.0713 35.4777L81.6851 36.1697C81.4225 36.6362 81.1692 37.0965 80.9313 37.5784C80.5575 38.3137 80.2486 39.0613 79.9149 39.8027C79.8346 39.9634 79.7666 40.1117 79.6832 40.2847C79.3743 40.8809 79.2414 41.0416 79.0406 41.1157C79.0003 41.1374 78.9578 41.155 78.914 41.1682C78.8491 41.1682 78.8213 41.1095 78.8213 40.9736C78.8248 40.7784 78.8571 40.5848 78.9171 40.399C79.0252 40.0406 79.1364 39.6823 79.26 39.3239C79.3835 38.9655 79.5473 38.6226 79.7018 38.2735C80.0107 37.5722 80.3443 36.8741 80.6934 36.1789C80.8263 35.9225 80.956 35.663 81.095 35.4097L81.5646 34.5941C81.8519 34.1122 82.1392 33.621 82.4204 33.2255C82.5334 33.057 82.6673 32.9033 82.8189 32.7683C82.9093 32.6934 83.0146 32.6386 83.1278 32.6077L83.1217 32.6447Z" fill="#231F20"/>
<path id="Vector_38" d="M76.6365 35.2979C76.9918 34.748 77.3563 34.2012 77.7425 33.6636C78.0261 33.2657 78.3357 32.8869 78.6693 32.5298C78.9001 32.2366 79.2294 32.0369 79.5961 31.9676C79.681 31.959 79.7668 31.9706 79.8463 32.0016C79.9333 32.0393 80.0073 32.1016 80.0595 32.1808C80.1195 32.3043 80.1592 32.4368 80.1769 32.5731C80.1799 32.7349 80.1591 32.8962 80.1151 33.0519L80.0533 33.296L79.9668 33.5555C79.9143 33.7316 79.8525 33.8984 79.7907 34.0653L79.6362 34.473L79.5219 34.782L79.0524 35.9467L78.0947 38.2606C77.8197 38.9495 77.5417 39.6384 77.2667 40.3212L76.723 41.6187C76.5531 42.0605 76.3214 42.4775 76.1051 42.9008C75.9661 43.1603 75.9198 43.0985 75.929 42.8328C75.9344 42.654 75.9488 42.4757 75.9723 42.2984C75.9723 42.1871 76.0032 42.0697 76.0248 41.9462L76.0619 41.7546C76.0835 41.6928 76.102 41.6311 76.1237 41.5662C76.4326 40.6579 76.757 39.7496 77.0999 38.8506C77.4428 37.9516 77.8135 37.0588 78.1904 36.166C78.4036 35.6563 78.5982 35.1311 78.7836 34.5997L78.9906 33.9818C79.0184 33.8953 79.0493 33.8057 79.074 33.7192C79.074 33.6914 79.074 33.6791 79.0956 33.6575C79.1195 33.6009 79.1259 33.5385 79.1141 33.4783C79.0833 33.4134 79.0153 33.4597 78.9782 33.4783C78.8897 33.5476 78.8089 33.6263 78.7372 33.7131L78.6168 33.8583L78.3449 34.2228C78.1565 34.4854 77.9742 34.7511 77.7919 35.0199C77.347 35.681 76.9176 36.3575 76.5037 37.0434C75.8858 38.0814 75.2679 39.1349 74.7057 40.2038C74.2762 41.0348 73.9055 41.8782 73.5379 42.7247C73.4576 42.91 73.3865 43.0954 73.2938 43.2777C73.1837 43.5232 73.0546 43.7597 72.9077 43.9851C72.8291 44.0971 72.7226 44.1865 72.5987 44.2446C72.5529 44.2678 72.5054 44.2875 72.4566 44.3033C72.3886 44.3033 72.3608 44.2416 72.3608 44.0902C72.3695 43.8695 72.409 43.6511 72.4782 43.4414C72.7358 42.6215 73.0549 41.8221 73.4328 41.0503C73.8005 40.2594 74.2052 39.4747 74.6222 38.6962C75.2401 37.5408 75.9136 36.4008 76.6087 35.2794L76.6365 35.2979Z" fill="#231F20"/>
<path id="Vector_39" d="M74.4932 34.934C74.141 35.5178 73.795 36.1079 73.4675 36.7072C73.347 36.9266 73.2512 37.1552 73.1339 37.3776C72.7199 38.1531 72.3059 38.9223 71.9197 39.7194C71.7437 40.0684 71.6108 40.433 71.444 40.7852C71.2552 41.2497 71.0289 41.6981 70.7674 42.126C70.6778 42.2588 70.5882 42.1908 70.5295 42.0209C70.452 41.7872 70.4445 41.5359 70.5079 41.298C70.7886 40.3155 71.1804 39.3681 71.6757 38.4743C71.9692 37.9337 72.1792 37.3282 72.4388 36.7536C72.7137 36.1357 73.0072 35.4962 73.3099 34.8722C73.4984 34.4891 73.6807 34.106 73.8815 33.7291C74.1904 33.1545 74.4993 32.5922 74.7928 32.0176C75.0122 31.5666 75.1883 31.0908 75.4509 30.6645C75.5065 30.5656 75.5528 30.4668 75.6177 30.3555C75.8648 30.0065 76.0224 29.9447 76.2726 30.0466C76.3306 30.0645 76.3874 30.0862 76.4425 30.1115C76.6155 30.2103 76.6464 30.4482 76.5476 30.7077C76.4055 31.1063 76.2572 31.5171 76.0934 31.9435C75.9297 32.3698 75.698 32.7467 75.4756 33.1452L75.0029 34.0473L74.765 34.5015L74.5086 34.9463L74.4932 34.934Z" fill="#231F20"/>
<path id="Vector_40" d="M69.8311 31.5789C70.2389 30.961 70.6559 30.3648 71.107 29.7747L71.2769 29.5523C71.3078 29.5121 71.3263 29.4843 71.3665 29.438L71.487 29.2989L71.7279 29.0209C71.7465 28.9993 71.765 28.9746 71.7866 28.9529L71.8762 28.885L72.0523 28.7459C72.1556 28.6519 72.2794 28.5832 72.4138 28.5451C72.5333 28.5065 72.6593 28.4918 72.7845 28.5019C72.9103 28.5111 73.0313 28.5538 73.135 28.6255C73.2388 28.6972 73.3215 28.7953 73.3746 28.9097C73.4461 29.0705 73.4677 29.2492 73.4363 29.4225L73.2911 29.889L72.9977 30.8158L72.9328 31.0228L72.8679 31.1927L72.7443 31.5202L72.4941 32.1782L71.9782 33.485C71.6229 34.3531 71.2645 35.2181 70.8938 36.077L69.9268 38.3785C69.7199 38.8666 69.5252 39.3547 69.3306 39.8429L69.0526 40.5689C68.9532 40.8006 68.8777 41.0417 68.827 41.2887C68.8116 41.5636 68.7467 41.5976 68.6262 41.2887C68.5505 40.9468 68.5379 40.594 68.5892 40.2476C68.6171 40.0996 68.6563 39.954 68.7065 39.812C69.4418 37.7452 70.3007 35.7958 71.141 33.797C71.3974 33.2008 71.6229 32.5798 71.8453 31.9434L72.423 30.2257L72.5621 29.8241L72.5868 29.7469C72.5868 29.7314 72.5868 29.716 72.5868 29.6975C72.5959 29.6651 72.5959 29.6309 72.5868 29.5986C72.5721 29.569 72.5466 29.5461 72.5156 29.5346C72.4846 29.5231 72.4504 29.5239 72.4199 29.5368C72.3563 29.5602 72.2992 29.5983 72.2531 29.648C72.2126 29.6891 72.1745 29.7324 72.1388 29.7778L72.0091 29.9292L71.6816 30.3493C71.4653 30.6366 71.2522 30.9332 71.0452 31.2298C70.5324 31.9589 70.0411 32.7127 69.5685 33.4726C68.8467 34.6204 68.1837 35.8041 67.582 37.0192C67.1311 37.9458 66.751 38.9052 66.4452 39.8892C66.3772 40.1024 66.3 40.3094 66.2474 40.5256C66.0096 41.3227 65.9694 41.5636 65.7655 41.7305C65.7247 41.7703 65.6813 41.8074 65.6357 41.8417C65.5709 41.8787 65.5214 41.8077 65.4905 41.644C65.4723 41.5419 65.462 41.4386 65.4597 41.335C65.4529 41.1892 65.4622 41.0432 65.4875 40.8994C65.5276 40.6615 65.5616 40.4206 65.6079 40.1796C65.6543 39.9386 65.7284 39.7069 65.7871 39.4691C65.8458 39.2312 65.9416 39.0057 66.0219 38.7709C66.1022 38.5361 66.1856 38.3044 66.2845 38.0788C66.6552 37.152 67.0939 36.2685 67.5573 35.388C68.2493 34.0843 69.0155 32.8146 69.8187 31.5696L69.8311 31.5789Z" fill="#231F20"/>
<path id="Vector_41" d="M67.4152 51.6503C68.2802 52.0735 69.1483 52.4875 70.0257 52.886C70.3346 53.0281 70.6775 53.1455 70.9988 53.2907C72.1264 53.7943 73.2633 54.2917 74.3971 54.752C74.9068 54.9528 75.4289 55.135 75.9418 55.2926C76.6091 55.5089 77.3011 55.6232 77.9282 55.963C78.1259 56.0649 78.0611 56.204 77.8355 56.3337C77.6937 56.4098 77.5433 56.4689 77.3876 56.5098C77.2947 56.5358 77.1995 56.5523 77.1034 56.5592C76.9991 56.5589 76.8953 56.5454 76.7944 56.5191C75.3833 56.1609 74.0103 55.6663 72.6949 55.0424C71.9071 54.6655 71.0482 54.3813 70.2234 54.0352C69.3244 53.6522 68.4316 53.2506 67.548 52.8397L65.9138 52.0704L63.4577 50.8779C62.8244 50.569 62.1757 50.328 61.5392 50.0345C61.3963 49.9783 61.2579 49.9111 61.1253 49.8337C60.6402 49.5248 60.5074 49.3611 60.5321 49.0954C60.5321 49.0398 60.5321 48.9811 60.5321 48.9347C60.5537 48.7926 60.8411 48.737 61.255 48.8637C61.8597 49.0454 62.4486 49.2758 63.016 49.5526C63.5937 49.8183 64.1806 50.0963 64.7645 50.3775C65.6357 50.7883 66.5038 51.2239 67.3843 51.6317L67.4152 51.6503Z" fill="#231F20"/>
<path id="Vector_42" d="M64.1804 47.6341C64.243 47.4864 64.3131 47.3421 64.3905 47.2016C64.4152 47.1522 64.4276 47.0935 64.4554 47.044C64.5543 46.868 64.6593 46.698 64.7489 46.525C64.7892 46.4479 64.8193 46.3659 64.8385 46.281C64.847 46.1699 64.8854 46.0631 64.9497 45.972C65.0022 45.9133 65.4254 46.1296 65.3946 46.2655C65.3355 46.4973 65.2304 46.7147 65.0856 46.905C65.0133 47.0249 64.9543 47.1523 64.9095 47.285L64.7149 47.7021C64.6747 47.7855 64.6346 47.8689 64.6006 47.9554C64.5464 48.0841 64.504 48.2175 64.4739 48.3539C64.4694 48.4074 64.4694 48.4611 64.4739 48.5146C64.4802 48.5669 64.4802 48.6198 64.4739 48.6721C64.4739 48.6968 64.4739 48.7185 64.4739 48.7401C64.4585 48.8266 64.4152 48.8513 64.3318 48.8668H64.2762C64.2426 48.868 64.2095 48.8585 64.1817 48.8396C64.1539 48.8207 64.1329 48.7934 64.1217 48.7617C64.0196 48.5546 63.9965 48.3173 64.0569 48.0944C64.0899 47.9322 64.1332 47.7723 64.1866 47.6156L64.1804 47.6341Z" fill="#231F20"/>
<path id="Vector_43" d="M66.9 48.2733C66.9525 48.1621 67.0267 48.0601 67.0823 47.9644C67.107 47.9242 67.1163 47.881 67.141 47.8439C67.2213 47.708 67.3078 47.5751 67.385 47.4392C67.4186 47.3784 67.4456 47.3142 67.4654 47.2477C67.4805 47.1598 67.5189 47.0777 67.5766 47.0098C67.6198 46.9665 67.9133 47.1735 67.8855 47.2693C67.8303 47.4421 67.7456 47.6041 67.6353 47.7481C67.5775 47.846 67.5299 47.9495 67.4932 48.0571C67.4407 48.1652 67.3851 48.2733 67.3294 48.3845L67.2182 48.5792C67.1621 48.6793 67.1116 48.7824 67.0668 48.8881C67.0329 48.9684 67.0143 49.0549 66.9865 49.1352C66.979 49.1533 66.9728 49.1719 66.968 49.1908C66.9371 49.2557 66.8938 49.2619 66.829 49.2526H66.7857C66.7606 49.2445 66.7386 49.2289 66.7226 49.2079C66.7066 49.187 66.6974 49.1616 66.6961 49.1352C66.6821 48.968 66.7031 48.7996 66.7579 48.6409C66.7981 48.5235 66.8475 48.4123 66.8938 48.298L66.9 48.2733Z" fill="#231F20"/>
<path id="Vector_44" d="M68.8921 49.4722C68.9385 49.3919 68.9879 49.3146 69.0342 49.2312C69.0497 49.2003 69.0528 49.1633 69.0682 49.1324L69.2629 48.8234C69.2882 48.7738 69.3059 48.7207 69.3154 48.6659C69.3339 48.5979 69.3154 48.5145 69.405 48.4712C69.4946 48.428 69.8529 48.6813 69.8313 48.7493C69.79 48.8809 69.7192 49.0014 69.6243 49.1015C69.5742 49.1724 69.5375 49.252 69.5162 49.3363C69.476 49.4228 69.4328 49.5124 69.3864 49.5989L69.3092 49.7626C69.269 49.846 69.2134 49.9232 69.1794 50.0066C69.1455 50.0901 69.1547 50.1549 69.1177 50.2167C69.1123 50.232 69.1051 50.2465 69.096 50.26C69.059 50.3063 69.0219 50.3063 68.9323 50.26L68.8736 50.2322C68.818 50.2042 68.7758 50.1553 68.7562 50.0962C68.7203 49.9718 68.7279 49.8388 68.7778 49.7193C68.806 49.6347 68.8422 49.553 68.886 49.4753L68.8921 49.4722Z" fill="#231F20"/>
<path id="Vector_45" d="M73.9619 51.8514L74.07 51.6908C74.07 51.6723 74.07 51.6475 74.0947 51.629C74.1411 51.561 74.1967 51.4962 74.2399 51.4282C74.2594 51.3979 74.2691 51.3623 74.2677 51.3262C74.2677 51.2799 74.2523 51.2243 74.3172 51.1996C74.382 51.1749 74.7991 51.3788 74.7898 51.4282C74.7804 51.4758 74.7616 51.521 74.7345 51.5613C74.7075 51.6016 74.6727 51.6362 74.6323 51.663C74.5798 51.7001 74.5829 51.7618 74.5551 51.8144C74.5273 51.8669 74.4933 51.9225 74.4624 51.975C74.4315 52.0275 74.4222 52.043 74.4068 52.077C74.3913 52.1109 74.3542 52.182 74.3357 52.2345C74.3311 52.2807 74.3311 52.3273 74.3357 52.3735C74.3357 52.3735 74.3357 52.3952 74.3357 52.4044C74.3357 52.4137 74.2925 52.4415 74.1782 52.4044L74.104 52.3859C74.0373 52.3717 73.9761 52.3384 73.9279 52.2901C73.8999 52.2501 73.8802 52.2049 73.8701 52.1571C73.86 52.1093 73.8597 52.06 73.8692 52.0121C73.8902 51.9529 73.9149 51.8951 73.9434 51.8391L73.9619 51.8514Z" fill="#231F20"/>
<path id="Vector_46" d="M52.157 67.6809C52.466 65.9261 52.673 64.1559 52.8583 62.3796C52.9356 61.7308 52.951 61.0789 53.0159 60.4302C53.2218 58.1399 53.3742 55.8425 53.4731 53.5379C53.5225 52.5153 53.538 51.4865 53.5565 50.4701C53.5449 49.1578 53.6306 47.8463 53.8129 46.5467C53.8716 46.1389 54.0076 46.2099 54.1219 46.5652C54.2955 47.1288 54.386 47.7148 54.3906 48.3045C54.3906 49.6298 54.3474 50.9582 54.3165 52.2928C54.2856 53.6274 54.2145 54.9651 54.1126 56.309C53.9983 57.9155 53.9612 59.5961 53.8346 61.2519C53.7048 63.0623 53.4855 64.8665 53.2352 66.6645C53.1611 67.2175 53.053 67.7674 52.9664 68.3204C52.8799 68.8734 52.7904 69.4233 52.6575 69.9701C52.3486 71.6321 51.9315 73.288 51.465 74.913L50.9244 76.7883C50.7184 77.4061 50.5063 78.0189 50.288 78.6264C50.2018 78.8983 50.0986 79.1645 49.979 79.4235C49.8647 79.6644 49.7628 79.8653 49.6701 80.0413C49.5854 80.1733 49.4904 80.2982 49.3859 80.4152C49.2724 80.5606 49.1278 80.6789 48.9627 80.7612C48.9087 80.7921 48.853 80.8199 48.7958 80.8446C48.7217 80.8446 48.7093 80.7612 48.7279 80.5573C48.7635 80.2566 48.8224 79.9591 48.904 79.6675C49.3426 78.6295 49.6856 77.505 50.0872 76.4114C50.3961 75.2776 50.7915 74.15 51.0511 72.976L51.3754 71.6785L51.6411 70.3624C51.7276 69.9206 51.8327 69.4851 51.9037 69.0433L52.1169 67.7149L52.157 67.6809Z" fill="#231F20"/>
<path id="Vector_47" d="M43.396 59.1386C43.8007 57.7021 44.2487 56.281 44.7121 54.8691C44.8789 54.3532 45.021 53.8342 45.2064 53.3244C45.8242 51.5172 46.5286 49.7408 47.2144 47.9644C47.5234 47.1766 47.8045 46.3734 48.0825 45.5856C48.4193 44.5631 48.8178 43.5559 49.2163 42.5704C49.3399 42.2615 49.4604 42.3356 49.5253 42.6539C49.6008 43.1493 49.5681 43.6552 49.4295 44.1367C49.1453 45.2118 48.7406 46.2344 48.3698 47.2693C47.9991 48.3043 47.5975 49.3299 47.1866 50.3587C46.6985 51.5944 46.2907 52.9043 45.8644 54.1864C45.3917 55.5982 44.9376 57.0131 44.5236 58.4404C44.2641 59.3178 44.0252 60.2003 43.8069 61.088C43.467 62.426 43.1978 63.781 43.0006 65.1474C42.8725 66.1885 42.8209 67.2375 42.8461 68.2861C42.8461 68.5148 42.8615 68.7403 42.8646 68.9689C42.8646 69.8216 42.8646 70.0903 42.6576 70.3004C42.6195 70.3493 42.5782 70.3958 42.5341 70.4394C42.4074 70.5414 42.2097 70.2046 42.0892 69.5497L41.978 68.8175C41.9564 68.5735 41.9502 68.3232 41.9409 68.073C41.9409 67.5756 41.9409 67.072 41.978 66.5716C42.0447 65.5578 42.1716 64.5489 42.358 63.5502C42.6237 62.0642 42.9758 60.5937 43.3713 59.1386H43.396Z" fill="#231F20"/>
<path id="Vector_48" d="M56.7538 42.2582C56.705 42.6284 56.5764 42.9836 56.377 43.2993C56.3224 43.3849 56.2604 43.4656 56.1916 43.5403C56.1175 43.6144 56.0402 43.6855 55.963 43.7534C55.7951 43.8754 55.6068 43.9664 55.4069 44.0222C55.2353 44.0757 55.058 44.1088 54.8786 44.1211C54.7118 44.1396 54.5512 44.1458 54.3874 44.1489C54.0697 44.1542 53.752 44.1408 53.4359 44.1087C52.9793 44.0741 52.5254 44.0111 52.0766 43.9203C51.2877 43.7541 50.5198 43.5002 49.7874 43.1634C49.0167 42.8432 48.342 42.3292 47.8287 41.6712C47.6004 41.3447 47.4746 40.9575 47.4673 40.5591C47.4817 40.185 47.56 39.8161 47.699 39.4685C47.8502 39.0195 48.0804 38.601 48.3786 38.2328C48.5356 38.0357 48.731 37.8728 48.953 37.7538C49.1751 37.6348 49.419 37.5623 49.67 37.5408C49.9789 37.5408 49.9171 37.6983 49.7225 37.8775C49.5279 38.0567 49.2776 38.3038 49.0058 38.6035C48.7457 38.896 48.5425 39.2344 48.4064 39.6014C48.3292 39.7903 48.2652 39.9844 48.2149 40.1822C48.1871 40.2872 48.184 40.3583 48.1655 40.4417C48.1593 40.5208 48.1593 40.6004 48.1655 40.6795C48.2178 41.0358 48.3913 41.3631 48.6567 41.6064C48.9529 41.8942 49.2852 42.1424 49.6453 42.3447C50.5985 42.8324 51.6311 43.1462 52.6945 43.2715C53.2745 43.3647 53.862 43.403 54.4492 43.3858C54.7182 43.3859 54.9857 43.3463 55.2432 43.2684C55.4592 43.1797 55.6381 43.0194 55.7498 42.8143C55.898 42.5162 55.9792 42.1893 55.9877 41.8566C56.0071 41.5005 55.9895 41.1433 55.9352 40.7908C55.8923 40.5157 55.8293 40.2441 55.7467 39.9783C55.7467 39.9535 55.7282 39.9288 55.7189 39.901C55.7097 39.8732 55.7189 39.8732 55.7004 39.867H55.6602C55.6084 39.8823 55.5558 39.8947 55.5027 39.9041L55.2339 39.9443C55.1289 39.9566 55.0259 39.9659 54.925 39.9721C54.5127 39.9944 54.0992 39.9809 53.6892 39.9319C52.7795 39.852 51.8939 39.596 51.0818 39.1781C50.901 39.0871 50.7266 38.9838 50.5597 38.8692C49.9418 38.412 49.843 38.1648 49.8924 37.9115C49.9062 37.8507 49.9124 37.7884 49.911 37.7261C49.911 37.6983 49.8862 37.6767 49.911 37.6582C49.9357 37.6396 49.9604 37.6211 50.0314 37.6582C50.0916 37.6574 50.1513 37.6679 50.2075 37.6891C50.3874 37.7647 50.5584 37.86 50.7173 37.9733C51.3203 38.3839 51.9845 38.6967 52.6852 38.9001C53.4035 39.1006 54.1489 39.1871 54.8941 39.1565C54.9837 39.1565 55.0702 39.1565 55.1536 39.1318C55.2766 39.118 55.3984 39.0953 55.5181 39.0638C55.5657 39.0492 55.6142 39.0379 55.6633 39.0298L55.7931 39.0515C55.8664 39.0686 55.9371 39.0956 56.0031 39.1318L56.0866 39.1689L56.1453 39.0576L56.1669 39.0793L56.2101 39.1163L56.2966 39.1936L56.3399 39.2337L56.3739 39.2924C56.4524 39.4779 56.5205 39.6677 56.5778 39.8609C56.6124 39.9757 56.6413 40.0922 56.6643 40.21C56.7138 40.4291 56.751 40.6508 56.7755 40.8742C56.8357 41.3315 56.8357 41.7947 56.7755 42.252L56.7538 42.2582Z" fill="#231F20"/>
<path id="Vector_49" d="M59.1481 36.169C58.1477 37.2391 56.8024 37.9227 55.3482 38.0999C53.9364 38.2896 52.4994 38.0976 51.1869 37.5438C50.2162 37.157 49.3466 36.5536 48.6444 35.7798C47.4086 34.4019 46.9205 32.3135 47.6218 30.5712C47.9341 29.7429 48.3382 28.9522 48.8266 28.214C49.3117 27.4725 49.8523 26.8021 50.3868 26.1287C51.35 24.9702 52.2208 23.7379 52.9911 22.4431C53.9333 20.7996 54.4462 18.9027 53.9982 17.0862C53.8623 16.5239 54.0136 16.5239 54.3226 16.9749C54.4181 17.1091 54.5028 17.2506 54.5759 17.3982C54.647 17.5743 54.718 17.7751 54.7922 18.016C54.8107 18.0717 54.8292 18.1304 54.8447 18.1891L54.8725 18.3775C54.891 18.5042 54.9096 18.637 54.925 18.7729C54.9566 19.0621 54.9483 19.3542 54.9003 19.641C54.7259 20.6782 54.3759 21.6781 53.8654 22.5975C53.3745 23.4893 52.8179 24.3433 52.2002 25.1524C51.6009 25.9588 50.9645 26.728 50.3744 27.5065C50.0655 27.8989 49.7813 28.2819 49.5217 28.6836C49.2622 29.0852 49.012 29.5022 48.7927 29.9193C48.5184 30.4183 48.3107 30.9511 48.1748 31.5041C48.1129 31.7703 48.0879 32.0437 48.1006 32.3166C48.1006 32.4571 48.1099 32.5975 48.1284 32.7368C48.1403 32.8773 48.163 33.0168 48.1964 33.1538C48.4553 34.2682 49.1025 35.2539 50.0222 35.9343C51.0494 36.7109 52.2716 37.1879 53.5533 37.3121C54.8296 37.4751 56.1251 37.2376 57.2606 36.6324C58.6538 35.8941 59.525 34.4421 60.0008 32.9252C60.1798 32.34 60.314 31.7421 60.4024 31.1365C60.4859 30.5283 60.5292 29.9153 60.5322 29.3014C60.5464 28.0792 60.3628 26.8628 59.9884 25.6993C59.3538 23.9198 58.5195 22.2181 57.5015 20.6265C57.2822 20.2775 57.0505 19.9469 56.8126 19.6071C56.377 18.9892 56.0619 18.5968 55.8642 18.3188C55.7261 18.1231 55.6042 17.9164 55.4996 17.7009C55.4588 17.6257 55.4112 17.5544 55.3575 17.4878C55.3328 17.4383 55.3575 17.4075 55.4224 17.3951C55.5462 17.3831 55.671 17.4044 55.7838 17.4569C56.2243 17.6437 56.6117 17.9366 56.9115 18.3095C58.06 19.6851 59.0295 21.2006 59.7969 22.82C60.2052 23.6458 60.5541 24.4995 60.8411 25.3749C61.1339 26.2763 61.3165 27.2099 61.3848 28.1553C61.4419 28.8564 61.4419 29.5611 61.3848 30.2622C61.3405 30.9647 61.2371 31.6623 61.0759 32.3475C60.9163 33.0431 60.6822 33.7194 60.3777 34.3649C60.0765 35.0296 59.6754 35.6442 59.1883 36.1876L59.1481 36.169Z" fill="#231F20"/>
<path id="Vector_50" d="M55.7588 21.498C55.8092 21.1918 55.8299 20.8814 55.8206 20.5712C55.8206 20.4569 55.7928 20.3457 55.7804 20.2314C55.751 19.8222 55.6785 19.4174 55.5642 19.0234C55.5368 18.9363 55.5049 18.8507 55.4684 18.767L55.3417 18.526C55.2065 18.339 55.0896 18.1393 54.9926 17.9298C54.971 17.8587 55.0977 17.763 55.2614 17.7197C55.3401 17.6905 55.4254 17.6838 55.5078 17.7001C55.5901 17.7165 55.6663 17.7553 55.7279 17.8124C56.06 18.2442 56.2731 18.7555 56.3458 19.2953C56.3798 19.6042 56.491 19.9132 56.525 20.2499C56.562 20.6052 56.562 20.9635 56.525 21.3188C56.5085 21.5376 56.4796 21.7552 56.4385 21.9707C56.3952 22.1313 56.355 22.2796 56.3056 22.4495C56.2562 22.6194 56.2006 22.7584 56.1357 22.916C56.0708 23.0736 56.0461 23.157 56.0029 23.2775C55.9596 23.3979 55.8885 23.5061 55.8268 23.6204C55.7999 23.671 55.7678 23.7186 55.731 23.7625C55.592 23.9231 55.5117 23.9448 55.3788 23.8861C55.3491 23.8745 55.3202 23.8611 55.2923 23.8459C55.2493 23.8086 55.2192 23.7585 55.2064 23.703C55.1936 23.6475 55.1988 23.5893 55.2213 23.537C55.2954 23.3423 55.3232 23.1292 55.3912 22.9469C55.4591 22.7646 55.5178 22.5762 55.558 22.3785C55.6307 22.0892 55.6885 21.7963 55.731 21.5011L55.7588 21.498Z" fill="#231F20"/>
<path id="Vector_51" d="M57.5513 21.3774C57.5931 21.1805 57.6024 20.9781 57.5791 20.7781C57.5649 20.704 57.5464 20.6307 57.5235 20.5588C57.4578 20.2821 57.3538 20.0159 57.2146 19.7679C57.1515 19.6573 57.077 19.5538 56.9921 19.459C56.8653 19.3405 56.7607 19.2003 56.6832 19.045C56.6399 18.9399 57.0725 18.7361 57.2331 18.8751C57.5226 19.1243 57.7438 19.4433 57.8757 19.8019C57.9436 20.0305 58.0827 20.2313 58.1383 20.4754C58.2082 20.7349 58.2322 21.0046 58.2093 21.2724C58.1982 21.4336 58.1745 21.5937 58.1383 21.7513C58.0768 21.9812 57.9983 22.2064 57.9035 22.4247C57.8355 22.5885 57.7984 22.7676 57.7305 22.9345C57.715 22.9715 57.7058 23.0086 57.6872 23.0457C57.6162 23.1754 57.5513 23.1909 57.4061 23.1353C57.3725 23.1248 57.3395 23.1124 57.3072 23.0982C57.2582 23.076 57.2173 23.0391 57.1902 22.9926C57.1631 22.9461 57.1511 22.8923 57.1559 22.8387C57.2076 22.549 57.2788 22.2631 57.369 21.983C57.3923 21.8785 57.4212 21.7754 57.4555 21.674C57.4772 21.5782 57.505 21.4794 57.5173 21.3651L57.5513 21.3774Z" fill="#231F20"/>
<path id="Vector_52" d="M54.1709 38.5977C53.666 38.5475 53.1679 38.444 52.6849 38.2888C52.5119 38.2301 52.3296 38.1992 52.1628 38.125C51.8668 38.0059 51.5789 37.8676 51.3009 37.7111C51.1587 37.64 51.0259 37.5566 50.89 37.4763L50.6892 37.3496L50.5965 37.2816C50.5361 37.2349 50.4732 37.1916 50.408 37.1519C50.3926 37.1519 50.408 37.1519 50.3895 37.1766V37.2168L50.3741 37.3002C50.3653 37.3409 50.3591 37.3822 50.3555 37.4237C50.3506 37.4772 50.3402 37.53 50.3246 37.5813C50.2847 37.75 50.2212 37.9122 50.1362 38.0632C50.0219 38.2517 49.336 37.7543 49.4411 37.3836L49.6573 36.6483C49.7438 36.3641 49.8334 36.0799 49.923 35.7957L50.442 36.1849L50.9363 36.5402L51.0568 36.6174L51.1279 36.6669L51.2453 36.7503L51.48 36.9202C51.8322 37.136 52.2113 37.3043 52.6077 37.4207C53.0352 37.5726 53.4757 37.6853 53.9237 37.7574C54.1999 37.7971 54.4789 37.8136 54.7578 37.8068C54.8607 37.8142 54.9639 37.8142 55.0668 37.8068C55.1811 37.8068 55.246 37.7914 55.4375 37.7605C55.7464 37.7018 56.0554 37.606 56.3488 37.5504C56.3241 37.7883 56.3149 38.0138 56.3056 38.261V38.6409V38.9159C56.3056 38.99 56.3056 39.0642 56.3056 39.1414C56.2871 39.4195 56.2222 39.4998 55.9967 39.5338C55.946 39.5457 55.8942 39.553 55.8422 39.5554C55.6723 39.5554 55.5333 39.4349 55.5178 39.2248C55.4746 38.9561 55.49 38.4618 55.4529 38.5792C55.4484 38.5761 55.443 38.5745 55.4375 38.5745C55.432 38.5745 55.4266 38.5761 55.422 38.5792H55.3664C55.2336 38.5792 55.1038 38.6193 54.971 38.6255C54.7096 38.6394 54.4477 38.6394 54.1863 38.6255L54.1709 38.5977Z" fill="#231F20"/>
<path id="Vector_53" d="M33.0217 43.6484C33.6179 44.7884 34.1987 45.9253 34.7393 47.1054C34.8073 47.2537 34.8722 47.4144 34.937 47.5626C34.9731 47.6525 35.004 47.7443 35.0297 47.8376C35.0597 47.9325 35.0824 48.0296 35.0977 48.128C35.1269 48.3212 35.1332 48.5172 35.1162 48.7119L35.0884 48.9961L35.0266 49.2649C34.8393 49.9364 34.5246 50.5657 34.0998 51.1185C33.5271 51.9001 32.8587 52.6069 32.1103 53.2223C30.8107 54.296 29.3515 55.1601 27.7852 55.7834C26.9908 56.1007 26.161 56.3206 25.3137 56.4383C24.4488 56.5702 23.565 56.4961 22.7341 56.2221C22.5489 56.1512 22.3683 56.0686 22.1935 55.9749C22.0236 55.8792 21.8629 55.7556 21.6992 55.6444C21.5355 55.5332 21.3903 55.3756 21.2698 55.2304C21.1493 55.0852 21.0288 54.9215 20.9145 54.7824C20.4727 54.1862 20.0649 53.5838 19.6571 52.9844C18.6346 51.4398 17.5873 49.8797 16.713 48.2392C16.4473 47.7233 16.5987 47.7202 17.0003 48.0446C17.6395 48.5821 18.1936 49.2133 18.6438 49.9167L20.2163 52.277C20.7384 53.0524 21.2605 53.8649 21.8042 54.5693C21.9303 54.7245 22.0687 54.8691 22.2182 55.0018C22.3745 55.121 22.5421 55.2245 22.7187 55.3107C22.8997 55.4026 23.089 55.4771 23.284 55.5332C23.386 55.561 23.4879 55.5764 23.593 55.6011C23.6944 55.6257 23.7978 55.6412 23.9019 55.6475C24.3383 55.6952 24.7785 55.6952 25.2149 55.6475C25.6647 55.5876 26.1097 55.4958 26.5464 55.3725C27.6351 55.0588 28.6749 54.595 29.6357 53.9947C30.6113 53.3959 31.5178 52.6914 32.3389 51.8939C32.7864 51.4664 33.1891 50.9944 33.5407 50.4852C33.8897 50.0067 34.1377 49.4622 34.2697 48.8849C34.3188 48.6212 34.3082 48.35 34.2389 48.0909C34.2008 47.9507 34.1501 47.8142 34.0875 47.6831L33.8928 47.2506C33.621 46.676 33.3337 46.1014 33.0433 45.5299C32.3235 44.1273 31.582 42.7309 30.7819 41.3778C30.6274 41.1245 30.4729 40.868 30.3154 40.624L30.1949 40.4386L30.0868 40.2842C30.0464 40.2166 29.9952 40.1561 29.9354 40.105C29.8598 40.1322 29.7865 40.1652 29.7161 40.2038L29.3237 40.3985L28.5297 40.8032C27.4732 41.3623 26.4228 41.937 25.391 42.5239C23.7876 43.4507 22.2491 44.3961 20.7106 45.3754L19.7004 46.055C18.4369 46.8614 18.0198 47.0807 17.6336 47.0869C17.5474 47.096 17.4604 47.096 17.3741 47.0869C17.1579 47.0405 17.5749 46.5555 18.4739 45.8975C21.2765 43.9589 24.1872 42.1817 27.1921 40.5745C27.7574 40.2656 28.3259 39.9567 28.9036 39.6477L29.367 39.4099C29.5122 39.3419 29.6574 39.2647 29.7995 39.2152L29.8551 39.1967H29.9045C29.9382 39.1981 29.9715 39.2043 30.0034 39.2152L30.0899 39.243H30.1331H30.1517C30.1887 39.0978 30.1517 39.2029 30.1702 39.172L30.1918 39.1874L30.5193 39.4408C30.6296 39.5455 30.7262 39.6638 30.8066 39.7929C30.9085 39.9351 30.9981 40.0741 31.0877 40.2162C31.7983 41.3345 32.4192 42.4652 33.034 43.6145L33.0217 43.6484Z" fill="#231F20"/>
<path id="Vector_54" d="M26.4755 37.6952L25.9318 36.4966L25.7248 36.0641C25.49 35.5543 25.2522 35.0415 24.9957 34.541C24.8845 34.3186 24.761 34.1023 24.6405 33.8861C24.4798 33.6111 24.313 33.3392 24.1647 33.0581C24.072 32.882 24.3254 33.0211 24.5323 33.3269C24.8905 33.8738 25.2165 34.4411 25.5086 35.026C25.6847 35.3782 25.8886 35.7335 26.077 36.0888L26.6949 37.2658L27.0687 37.9856C27.2602 38.3471 27.4549 38.7116 27.6649 39.0607C27.8318 39.3295 28.0233 39.5766 28.2118 39.8238L28.3384 39.9875C28.4898 40.1945 28.5021 40.281 28.4033 40.4108C28.3786 40.4417 28.357 40.4726 28.3322 40.5004C28.2457 40.5838 28.1067 40.5498 27.9801 40.4015C27.6111 39.9418 27.2998 39.4386 27.0532 38.9032C26.8555 38.5046 26.6702 38.0999 26.4786 37.7014L26.4755 37.6952Z" fill="#231F20"/>
<path id="Vector_55" d="M24.3594 37.8685C24.1277 37.3495 23.9083 36.8614 23.6519 36.364C23.5592 36.1848 23.448 36.0149 23.343 35.8326C23.0155 35.2147 22.6788 34.5629 22.339 33.9296C22.1876 33.6484 22.03 33.3735 21.8632 33.0985C21.645 32.7527 21.4589 32.3877 21.3071 32.008C21.2175 31.767 21.7118 31.8783 21.9528 32.2706C22.3668 32.9781 22.7962 33.6732 23.1885 34.4146C23.4202 34.8595 23.723 35.2858 23.9825 35.7276C24.242 36.1694 24.5417 36.71 24.8012 37.2166C24.9556 37.5256 25.1101 37.8345 25.28 38.1434C25.5272 38.6038 25.7712 39.0702 26.0338 39.5244C26.2377 39.8766 26.4725 40.204 26.6857 40.5531C26.732 40.6304 26.7845 40.7045 26.8278 40.7848C26.9452 41.0938 26.9235 41.2266 26.7722 41.3656C26.7418 41.3972 26.7099 41.4271 26.6764 41.4552C26.5683 41.5325 26.386 41.4552 26.2253 41.2791C26.1055 41.1466 26.0018 41.0004 25.9164 40.8435C25.8206 40.6922 25.728 40.5346 25.6384 40.377C25.4592 40.0681 25.2862 39.7345 25.1101 39.4039C24.8506 38.9096 24.5952 38.406 24.3439 37.8932L24.3594 37.8685Z" fill="#231F20"/>
<path id="Vector_56" d="M23.0276 39.1662C22.8361 38.6781 22.626 38.193 22.3943 37.7204C22.314 37.5443 22.212 37.3805 22.1286 37.2075C21.8197 36.5897 21.5108 35.9934 21.1709 35.3972C21.0196 35.1346 20.862 34.8751 20.6983 34.6218C20.4824 34.2997 20.2834 33.9666 20.102 33.6239C19.9908 33.4076 20.3801 33.525 20.6396 33.8896C21.0983 34.5369 21.5221 35.2083 21.9093 35.9007C22.1379 36.3178 22.419 36.7318 22.6631 37.1581C22.9071 37.5844 23.1821 38.1065 23.4169 38.5916C23.5621 38.9005 23.698 39.2094 23.8309 39.4998C24.0348 39.9632 24.2078 40.4266 24.3931 40.9055C24.5352 41.2669 24.7021 41.6191 24.8411 41.9806C24.876 42.0583 24.9069 42.1376 24.9338 42.2185C24.9773 42.325 24.9942 42.4406 24.9832 42.5552C24.9535 42.6375 24.8955 42.7065 24.8195 42.7498C24.7838 42.7767 24.7467 42.8014 24.7082 42.824C24.6754 42.8382 24.6396 42.844 24.6039 42.8408C24.5683 42.8375 24.534 42.8254 24.5043 42.8054C24.4164 42.7572 24.3468 42.6811 24.3066 42.5892C24.0239 41.9577 23.7764 41.311 23.5652 40.6522C23.3984 40.1579 23.2161 39.6605 23.0153 39.1724L23.0276 39.1662Z" fill="#231F20"/>
<path id="Vector_57" d="M20.5781 40.5468C20.4082 40.0958 20.2321 39.6447 20.0313 39.1999C19.9603 39.0392 19.8645 38.8909 19.7934 38.7272C19.5309 38.1588 19.2899 37.5749 18.9964 37.0157C18.8697 36.7655 18.7276 36.5245 18.5855 36.2866C18.3876 35.9907 18.211 35.6809 18.0572 35.3598C18.014 35.2579 18.0943 35.2239 18.2179 35.2579C18.3884 35.3062 18.5382 35.4093 18.6442 35.5513C19.0941 36.1346 19.494 36.7546 19.8398 37.405C20.0406 37.7973 20.3125 38.1742 20.5225 38.5758C20.7326 38.9774 20.9767 39.4655 21.1837 39.9197L21.5544 40.7631C21.7274 41.1956 21.9035 41.625 22.0765 42.0544C22.2186 42.3819 22.3854 42.6723 22.5646 43.009C22.6017 43.077 22.6418 43.145 22.6727 43.216C22.7257 43.3097 22.7453 43.4186 22.7283 43.5249C22.6885 43.6154 22.6202 43.6903 22.5337 43.7381C22.4874 43.769 22.4441 43.803 22.3978 43.8277C22.3199 43.8662 22.2302 43.8729 22.1475 43.8462C22.0497 43.8215 21.9648 43.7608 21.9096 43.6763C21.5741 43.1255 21.2937 42.5429 21.0724 41.937C20.8963 41.486 20.7388 41.0102 20.5565 40.5746L20.5781 40.5468Z" fill="#231F20"/>
<path id="Vector_58" d="M18.6445 40.9056L17.9401 39.3609C17.8536 39.1756 17.7486 38.9964 17.6621 38.811L16.7538 36.8338C16.6148 36.5465 16.4634 36.2592 16.3089 35.9812C16.1112 35.6259 15.9042 35.2706 15.7343 34.8999C15.6849 34.7825 15.7621 34.7547 15.8919 34.8011C16.0753 34.8762 16.2323 35.0042 16.3429 35.1687C16.8173 35.8642 17.2406 36.5931 17.6095 37.3498C17.8165 37.8132 18.0977 38.258 18.3355 38.7153L19.1141 40.2321L19.5867 41.1589C19.8308 41.6285 20.0656 42.1074 20.3251 42.5646C20.529 42.9168 20.7699 43.2411 20.9986 43.5779C21.0513 43.6496 21.0988 43.7249 21.1407 43.8034C21.292 44.0969 21.289 44.2174 21.1407 44.378C21.1091 44.4163 21.075 44.4524 21.0387 44.4862C20.9151 44.5881 20.7298 44.5325 20.563 44.3471C20.4326 44.2135 20.3128 44.0699 20.2046 43.9177C20.0996 43.7632 20.0007 43.6088 19.8957 43.442C19.7072 43.1176 19.5311 42.7808 19.3612 42.4379C19.1048 41.9313 18.8669 41.4153 18.6198 40.8932L18.6445 40.9056Z" fill="#231F20"/>
<path id="Vector_59" d="M16.9078 42.7808C16.6915 42.3174 16.466 41.854 16.2251 41.4029C16.1386 41.2392 16.0335 41.094 15.947 40.9179C15.6381 40.3247 15.36 39.7254 15.0511 39.1384C14.9121 38.8789 14.7638 38.6256 14.6155 38.3723C14.418 38.0525 14.2395 37.7214 14.081 37.3806C14.0347 37.2725 14.0996 37.2539 14.2108 37.3033C14.3684 37.384 14.5041 37.5016 14.6062 37.6463C15.0502 38.2667 15.4626 38.9091 15.842 39.5709C16.0613 39.9787 16.3641 40.3556 16.602 40.7603C16.8398 41.165 17.1302 41.6593 17.3836 42.1135L17.8408 42.9599C18.0694 43.3894 18.2826 43.8311 18.5143 44.2544C18.6934 44.5849 18.9128 44.8877 19.092 45.2182C19.1352 45.2893 19.1785 45.3573 19.2155 45.4314C19.2755 45.5283 19.3005 45.6427 19.2866 45.7558C19.2659 45.8431 19.2144 45.9199 19.1414 45.972C19.1043 46.006 19.0703 46.04 19.0333 46.0678C18.9066 46.1512 18.7243 46.0925 18.5637 45.9257C18.3572 45.6606 18.1703 45.3808 18.0045 45.0885C17.8408 44.7796 17.6956 44.4706 17.5504 44.1617C17.331 43.7014 17.1148 43.2349 16.8831 42.7777L16.9078 42.7808Z" fill="#231F20"/>
<path id="Vector_60" d="M14.5569 43.6645C14.3036 43.2237 14.0554 42.7789 13.8124 42.3299C13.7197 42.1661 13.6147 42.0209 13.5312 41.8479C13.2223 41.2702 12.9566 40.6709 12.6755 40.0808C12.5519 39.8182 12.4129 39.5618 12.277 39.3116C12.0835 38.9963 11.9231 38.6619 11.7981 38.3137C11.7271 38.0913 12.2924 38.1345 12.5118 38.4929C12.8933 39.1348 13.2418 39.7958 13.556 40.4732C13.7444 40.8841 14.0101 41.2702 14.2387 41.6688C14.4673 42.0673 14.7423 42.5461 15.0049 42.9786C15.1655 43.2443 15.3138 43.5131 15.4961 43.7726C15.7494 44.1711 16.0027 44.5727 16.2869 44.9466C16.5094 45.2339 16.7534 45.4995 16.9882 45.7714C17.042 45.8294 17.0925 45.8902 17.1396 45.9537C17.3095 46.1977 17.3219 46.3059 17.2199 46.4634C17.2009 46.4997 17.1781 46.5338 17.152 46.5654C17.0655 46.6673 16.9017 46.6395 16.7225 46.5005C16.1908 46.0719 15.7336 45.5583 15.3694 44.9805C15.079 44.5573 14.8102 44.1155 14.5415 43.6768L14.5569 43.6645Z" fill="#231F20"/>
<path id="Vector_61" d="M24.6559 31.8442C24.5539 31.7298 24.452 31.6248 24.3469 31.5136L24.0905 31.2572C24.0905 31.2572 24.0689 31.2386 24.0596 31.2386H23.9886H23.8773C23.726 31.2386 23.5684 31.2201 23.4356 31.217C22.8746 31.1953 22.3181 31.3233 21.8229 31.5877C21.6334 31.6872 21.4517 31.8008 21.2792 31.9276L21.0104 32.1222L20.8745 32.2211L20.7108 32.3323C20.3259 32.5572 19.9093 32.7228 19.475 32.8235C19.1178 32.9018 18.7763 33.0397 18.4648 33.2313C18.3163 33.3344 18.1795 33.4536 18.057 33.5865L17.6523 34.0067C17.4984 34.1661 17.3309 34.3118 17.1518 34.4423C16.9655 34.5695 16.7642 34.6733 16.5525 34.7512C15.8203 35.02 15.0912 35.0602 14.5043 35.3475C13.7305 35.755 13.0759 36.3565 12.6043 37.093C12.4406 37.3216 12.385 37.2536 12.4159 36.991C12.4792 36.5597 12.6468 36.1504 12.904 35.7985C13.0593 35.5936 13.2319 35.4024 13.4199 35.227C13.5157 35.1374 13.6176 35.054 13.7288 34.9737C13.8385 34.8998 13.9519 34.8318 14.0687 34.7698C14.5199 34.5433 15.0002 34.3801 15.4959 34.2847C15.9012 34.2077 16.2913 34.0658 16.6514 33.8646C17.0024 33.6042 17.3273 33.3104 17.6214 32.9872C17.7381 32.8775 17.8608 32.7743 17.9891 32.6783C18.1225 32.5807 18.2641 32.4949 18.4123 32.4219C18.6928 32.2956 18.9832 32.1923 19.2804 32.1129C19.5399 32.0387 19.793 31.9436 20.0373 31.8287C20.1454 31.7735 20.2487 31.7094 20.3462 31.6372L20.6953 31.3838C21.4976 30.7316 22.5107 30.3954 23.5437 30.4385C23.7105 30.4385 23.8712 30.4385 24.0349 30.4632L24.3685 30.491C24.4581 30.5621 24.5663 30.6455 24.6404 30.7104C25.2073 31.2667 25.7377 31.8591 26.2283 32.4836C26.979 33.4105 27.6649 34.3836 28.3198 35.366C28.8416 36.1153 29.3232 36.8919 29.7625 37.6923C29.8583 37.8715 29.9541 38.0445 30.0344 38.2329C30.1147 38.4214 30.1549 38.5604 30.1981 38.684C30.2263 38.7907 30.248 38.899 30.263 39.0083C30.2722 39.0832 30.2722 39.159 30.263 39.2339C30.2512 39.2943 30.2303 39.3526 30.2012 39.4069C30.1796 39.4532 30.1642 39.5088 30.1456 39.5366C30.0993 39.6231 29.8212 39.3976 29.5834 38.9187C29.1725 38.2422 28.7894 37.5378 28.3476 36.8427C27.9059 36.1476 27.4455 35.4587 26.9605 34.779C26.2367 33.7678 25.4602 32.7954 24.6342 31.8658L24.6559 31.8442Z" fill="#231F20"/>
<path id="Vector_62" d="M23.7441 56.4264H23.7255L23.7039 56.4048H23.6885C23.6993 56.3537 23.7127 56.3032 23.7286 56.2534C23.7286 56.2534 23.7472 56.2689 23.7534 56.2905C23.7595 56.3121 23.7534 56.2905 23.7688 56.3059L23.7873 56.3245H23.8059C23.8059 56.3245 23.8059 56.3245 23.8059 56.3585C23.807 56.3729 23.807 56.3873 23.8059 56.4017C23.8026 56.408 23.7978 56.4133 23.7918 56.4171C23.7858 56.4209 23.779 56.423 23.7719 56.4233H23.7534L23.7441 56.4264Z" fill="#231F20"/>
<path id="Vector_63" d="M35.7037 69.5342C34.9251 68.1316 34.159 66.726 33.3774 65.3419C33.0901 64.8384 32.7595 64.3564 32.4753 63.859C31.9594 62.9786 31.4342 62.1074 30.8812 61.2547C30.3646 60.4086 29.7508 59.6258 29.0523 58.9223C28.4344 58.3051 27.7208 57.7918 26.9392 57.4023C26.447 57.1584 25.9288 56.9708 25.3945 56.8431C25.135 56.769 24.8693 56.7381 24.6006 56.6856L24.1989 56.6423L23.7881 56.5651C23.439 56.491 23.4513 56.3767 23.7417 56.1264C23.9685 55.9199 24.2395 55.768 24.534 55.6823C24.8285 55.5967 25.1387 55.5795 25.4409 55.6321L25.9352 55.7186C26.0958 55.7526 26.2441 55.802 26.414 55.8422C26.7332 55.9291 27.0435 56.046 27.3408 56.1913C27.9273 56.4691 28.4824 56.8088 28.9967 57.2046C30.0028 57.9812 30.8716 58.9211 31.567 59.985L31.876 60.4577L32.1664 60.9273L32.7626 61.8541C33.158 62.4719 33.5597 63.1083 33.9242 63.7509C34.7367 65.1566 35.4936 66.5838 36.2628 67.9988C36.7355 68.87 37.1896 69.7412 37.6963 70.5969C38.4285 71.9006 39.2224 73.1827 40.0349 74.4339C40.6682 75.4039 41.3479 76.3184 42.0059 77.2575C42.1511 77.4645 42.2932 77.6653 42.4292 77.8754C42.9265 78.6755 43.0285 78.9659 42.8864 79.2934C42.8666 79.3631 42.8418 79.4312 42.8122 79.4973C42.7288 79.658 42.2994 79.4695 41.8854 78.9258C41.558 78.5242 41.2151 78.1287 40.9092 77.69C40.6034 77.2514 40.2913 76.8343 39.9824 76.3956C39.3645 75.5151 38.7837 74.61 38.1968 73.6986C37.3225 72.3486 36.4945 70.9182 35.6882 69.528L35.7037 69.5342Z" fill="#231F20"/>
<path id="Vector_64" d="M40.9427 68.6079C39.9665 67.1292 39.0036 65.6391 38.0542 64.1376C37.7112 63.5846 37.3405 63.0533 37.0069 62.4972C36.4168 61.5179 35.8391 60.5324 35.2923 59.5253C35.0173 59.0217 34.7455 58.515 34.4921 57.9991C34.222 57.4857 33.9807 56.9576 33.7692 56.4174C33.3618 55.4383 33.1519 54.3884 33.1514 53.328C33.1634 52.6558 33.2578 51.9877 33.4325 51.3385C33.6271 50.6496 34.0009 50.1028 34.1894 49.5528C34.2944 49.2099 34.4458 49.2439 34.557 49.627C34.6116 49.8859 34.6231 50.1521 34.591 50.4148C34.5558 50.7409 34.5021 51.0648 34.4304 51.3848C34.3995 51.5115 34.384 51.6752 34.3531 51.8266C34.3222 51.978 34.2913 52.1355 34.2604 52.2807C34.2062 52.5779 34.1701 52.8782 34.1523 53.1797C34.1131 53.7746 34.161 54.372 34.2944 54.953C34.4412 55.5537 34.6418 56.14 34.8938 56.7047C35.0173 56.9951 35.1625 57.2886 35.3015 57.5851C35.4406 57.8817 35.5734 58.1783 35.7248 58.4687C36.4106 59.8836 37.3158 61.2491 38.1623 62.6362C39.0891 64.15 40.0591 65.6483 41.0323 67.1405L42.8488 69.8838C43.7756 71.2617 44.7024 72.6642 45.6292 74.0081C46.3614 75.0616 47.1183 76.0687 47.8536 77.0974C48.0142 77.3291 48.1779 77.5485 48.3355 77.7802C48.9194 78.6514 49.043 78.9696 48.9534 79.2847C48.9416 79.3567 48.9219 79.4271 48.8947 79.4948C48.7927 79.674 48.4374 79.3959 47.9864 78.7842C46.6333 76.9739 45.2616 75.0214 43.9023 73.0442C42.889 71.5799 41.888 70.0939 40.8871 68.6141L40.9427 68.6079Z" fill="#231F20"/>
<path id="Vector_65" d="M49.6483 40.5225L49.7163 40.3959C49.7163 40.3804 49.7163 40.3619 49.7348 40.3464C49.7533 40.331 49.8028 40.2383 49.8306 40.1889C49.842 40.1645 49.8493 40.1384 49.8522 40.1117C49.8522 40.0777 49.8522 40.0375 49.8893 40.0159C49.9263 39.9943 50.158 40.1086 50.1488 40.1456C50.1308 40.217 50.0921 40.2815 50.0376 40.331C50.0036 40.365 50.0005 40.4113 49.9819 40.4484L49.914 40.5781L49.8738 40.6585C49.8537 40.6975 49.8362 40.7377 49.8213 40.779C49.8183 40.8139 49.8183 40.849 49.8213 40.884V40.9056C49.8213 40.9334 49.7935 40.9365 49.7348 40.9056H49.6946C49.6763 40.903 49.6588 40.8963 49.6433 40.8862C49.6279 40.8761 49.6148 40.8627 49.605 40.8469C49.5867 40.7812 49.5867 40.7118 49.605 40.6461C49.605 40.5998 49.6421 40.5565 49.6607 40.5133L49.6483 40.5225Z" fill="#231F20"/>
<path id="Vector_66" d="M50.983 40.918L51.0695 40.7512C51.0695 40.7295 51.0695 40.7079 51.0943 40.6894C51.1375 40.6214 51.1869 40.5565 51.2302 40.4917C51.2496 40.4641 51.2623 40.4323 51.2673 40.399C51.2673 40.3557 51.2673 40.3063 51.329 40.2847C51.3908 40.2631 51.6627 40.4515 51.638 40.4917C51.6126 40.5717 51.5629 40.6419 51.4959 40.6925C51.4495 40.7265 51.4495 40.779 51.431 40.8253C51.4125 40.8717 51.3816 40.9242 51.3569 40.9736C51.3321 41.023 51.329 41.0354 51.3198 41.0663C51.296 41.113 51.2793 41.163 51.2703 41.2146C51.2726 41.2547 51.2809 41.2943 51.2951 41.332C51.2951 41.332 51.2951 41.3505 51.2951 41.3567C51.2951 41.3629 51.2703 41.3968 51.1838 41.3999H51.1252C51.0998 41.4033 51.0739 41.4012 51.0494 41.3937C51.0249 41.3863 51.0023 41.3736 50.983 41.3567C50.9295 41.2813 50.9043 41.1893 50.912 41.0972C50.9146 41.0335 50.9282 40.9708 50.9521 40.9118L50.983 40.918Z" fill="#231F20"/>
<path id="Vector_67" d="M54.0974 41.4771C54.1004 41.437 54.1004 41.3968 54.0974 41.3566C54.0974 41.3566 54.0974 41.3319 54.0974 41.3165C54.1006 41.2609 54.1006 41.2052 54.0974 41.1497C54.0929 41.1277 54.0809 41.108 54.0634 41.0941C54.0387 41.0755 53.9955 41.0693 54.0263 41.0168C54.0572 40.9643 54.4589 40.745 54.4897 40.782C54.5149 40.8144 54.5313 40.8528 54.5372 40.8934C54.5432 40.934 54.5385 40.9755 54.5237 41.0137C54.5052 41.0693 54.5423 41.1002 54.5484 41.1435C54.553 41.1928 54.553 41.2424 54.5484 41.2918C54.5484 41.3227 54.5484 41.3536 54.5484 41.3814C54.5437 41.4245 54.5437 41.468 54.5484 41.5111C54.5674 41.5427 54.5902 41.5718 54.6164 41.5976C54.6164 41.5976 54.6319 41.5976 54.6349 41.6192C54.638 41.6409 54.6133 41.6594 54.499 41.6841L54.4187 41.6996C54.3535 41.7132 54.2862 41.7132 54.221 41.6996C54.1879 41.6923 54.1567 41.6781 54.1295 41.6579C54.1023 41.6377 54.0798 41.6118 54.0634 41.5822C54.0449 41.5513 54.0634 41.5111 54.0634 41.474L54.0974 41.4771Z" fill="#231F20"/>
<path id="Vector_68" d="M52.7873 28.4798C52.595 28.8063 52.4237 29.1448 52.2745 29.4931C52.2239 29.6224 52.1805 29.7544 52.1447 29.8886C51.9759 30.3517 51.8922 30.8415 51.8976 31.3344C51.9036 31.5554 51.9284 31.7755 51.9717 31.9924L52.0706 32.4064C52.1169 32.5423 52.154 32.6782 52.188 32.8203C52.2065 32.9099 52.154 32.9223 52.0706 32.8759C51.9413 32.8031 51.8345 32.6963 51.7617 32.567C51.6176 32.2848 51.5087 31.986 51.4373 31.6773C51.3983 31.5218 51.3806 31.3618 51.3848 31.2015C51.3759 31.0415 51.3842 30.881 51.4095 30.7227C51.4406 30.3364 51.4963 29.9526 51.5763 29.5734C51.6319 29.3695 51.6999 29.1687 51.774 28.971C51.8546 28.7769 51.9454 28.5872 52.0459 28.4026C52.1633 28.1709 52.2992 27.9546 52.432 27.7353C52.639 27.4109 52.8645 27.0958 53.0932 26.793C53.2693 26.5582 53.4175 26.3049 53.5998 26.0763C53.6387 26.0261 53.681 25.9786 53.7265 25.9342C53.9026 25.7674 53.986 25.7396 54.1065 25.7797C54.1338 25.7861 54.1606 25.7944 54.1868 25.8044C54.264 25.8446 54.2578 25.9682 54.1868 26.135L54.0292 26.5026C53.9644 26.6169 53.8964 26.7282 53.8284 26.8394C53.6987 27.0649 53.5566 27.2873 53.4206 27.5098C53.1982 27.8187 52.9881 28.1492 52.8028 28.4829L52.7873 28.4798Z" fill="#231F20"/>
<path id="Vector_69" d="M54.5321 30.2997C54.4059 30.5643 54.3026 30.8393 54.2232 31.1215C54.1923 31.2265 54.1861 31.3316 54.1614 31.4304C54.0716 31.8004 54.0311 32.1806 54.0409 32.5611C54.0481 32.7317 54.0709 32.9013 54.1089 33.0678C54.1521 33.2809 54.2263 33.4848 54.2571 33.7073C54.2788 33.8432 53.9791 33.766 53.8741 33.5157C53.7053 33.0663 53.6337 32.5861 53.664 32.107C53.664 31.9587 53.6794 31.8166 53.6856 31.6714C53.6912 31.5252 53.7077 31.3796 53.735 31.2358C53.7941 30.9191 53.883 30.6088 54.0007 30.309C54.0687 30.1236 54.149 29.9444 54.2293 29.7714C54.3622 29.5058 54.5074 29.2524 54.6464 28.996C54.7545 28.8014 54.8379 28.5944 54.9553 28.3998C54.9801 28.3565 55.0017 28.3164 55.0295 28.2731C55.1314 28.1217 55.1901 28.0908 55.2952 28.1155C55.3195 28.1174 55.3434 28.1226 55.3662 28.131C55.4404 28.1588 55.4527 28.2577 55.4095 28.3843C55.2692 28.76 55.1052 29.1263 54.9183 29.481C54.7823 29.7467 54.6711 30.0217 54.5475 30.2904L54.5321 30.2997Z" fill="#231F20"/>
<path id="Vector_70" d="M20.5994 49.4748C20.6573 49.659 20.766 49.8231 20.913 49.9483C21.06 50.0734 21.2393 50.1545 21.4304 50.1823C21.6369 50.2078 21.8455 50.1563 22.0164 50.0378C22.1874 49.9193 22.3087 49.742 22.3572 49.5397C22.3982 49.3918 22.3787 49.2337 22.3031 49.1002C22.2275 48.9666 22.1019 48.8686 21.954 48.8276C21.8062 48.7867 21.648 48.8061 21.5145 48.8817C21.381 48.9573 21.2829 49.0829 21.242 49.2308C21.2172 49.3235 21.2667 49.1844 21.2914 49.1566C21.3161 49.1288 21.3964 49.067 21.381 49.0763C21.3655 49.0856 21.381 49.0763 21.4551 49.0454H21.554C21.4582 49.0454 21.6776 49.0701 21.6065 49.0454C21.5107 49.0207 21.588 49.0454 21.6065 49.0454C21.6559 49.067 21.659 49.067 21.6065 49.0454L21.6745 49.0979C21.6606 49.081 21.6451 49.0655 21.6281 49.0516C21.6806 49.1226 21.693 49.1381 21.6714 49.101C21.6498 49.064 21.6714 49.0825 21.6961 49.1628C21.6522 49.0164 21.5535 48.8926 21.4205 48.8172C21.2876 48.7418 21.1306 48.7206 20.9825 48.7581C20.8358 48.8007 20.7116 48.8987 20.636 49.0313C20.5605 49.164 20.5396 49.3208 20.5777 49.4687L20.5994 49.4748Z" fill="#231F20"/>
<path id="Vector_71" d="M29.0335 45.0944C29.0328 45.2382 29.0643 45.3802 29.1258 45.5102C29.1873 45.6401 29.2772 45.7546 29.3888 45.8451C29.5089 45.9285 29.6463 45.9838 29.7907 46.0068C29.9351 46.0298 30.0828 46.0199 30.2229 45.978C30.3706 45.9361 30.496 45.8378 30.5717 45.7042C30.6475 45.5707 30.6675 45.4126 30.6276 45.2643C30.5831 45.1184 30.4842 44.995 30.3515 44.9197C30.2187 44.8445 30.0621 44.8229 29.914 44.8596C29.7873 44.8905 30.0252 44.8596 29.914 44.8596C30.0128 44.8751 30.0314 44.8782 29.9727 44.8596C30.0175 44.8711 30.0589 44.8934 30.0931 44.9245C30.1333 44.9616 30.1395 44.9647 30.0931 44.9245C30.1293 44.9512 30.1554 44.9893 30.1673 45.0326C30.1858 45.0821 30.1889 45.0852 30.1673 45.0326C30.1673 45.1253 30.1673 45.1377 30.1673 45.0697C30.1566 44.9234 30.0909 44.7865 29.9835 44.6867C29.876 44.5868 29.7348 44.5312 29.588 44.5312C29.4413 44.5312 29.3001 44.5868 29.1926 44.6867C29.0852 44.7865 29.0195 44.9234 29.0088 45.0697L29.0335 45.0944Z" fill="#231F20"/>
<path id="Vector_72" d="M58.0178 67.4088C57.783 67.31 57.5451 67.2173 57.3011 67.137C57.2115 67.1061 57.1157 67.1092 57.0292 67.0783C56.7203 66.9763 56.3959 66.8466 56.0746 66.7693C55.932 66.7341 55.7858 66.7155 55.639 66.7137C55.4496 66.7334 55.2582 66.7091 55.0798 66.6427C55.0242 66.6118 55.0335 66.4357 55.0798 66.2596C55.1262 66.0835 55.2374 65.9043 55.3517 65.892C55.7565 65.8432 56.167 65.8854 56.5534 66.0155C56.7922 66.0758 57.0348 66.1202 57.2794 66.1484C57.542 66.2071 57.8046 66.2812 58.0641 66.3584L58.543 66.5098C58.787 66.5809 59.0218 66.6766 59.269 66.7323C59.4605 66.7755 59.6675 66.7724 59.8868 66.8033C59.9324 66.8022 59.9776 66.8106 60.0197 66.828C60.1649 66.9114 60.1803 67.0072 60.1031 67.2544C60.0884 67.3108 60.0709 67.3665 60.0506 67.4212C60.0243 67.4995 59.9814 67.5712 59.9249 67.6315C59.8684 67.6917 59.7996 67.739 59.7231 67.7703C59.5564 67.8278 59.378 67.8426 59.2041 67.8135C59.0414 67.7915 58.8818 67.7511 58.7283 67.693C58.4935 67.6189 58.2618 67.52 58.0178 67.4428V67.4088Z" fill="#231F20"/>
<path id="Vector_73" d="M70.3445 75.5309C69.9676 75.2652 69.5753 75.0088 69.1706 74.774C69.0223 74.6906 68.8617 74.6288 68.7134 74.5454C68.1851 74.2365 67.6568 73.9275 67.0976 73.6989C66.853 73.5908 66.5998 73.503 66.3408 73.4363C66.0133 73.3498 65.6704 73.2726 65.3861 73.1737C65.3151 73.1459 65.2904 73.0038 65.3861 72.8648C65.4495 72.7827 65.5325 72.7179 65.6276 72.6763C65.7226 72.6347 65.8266 72.6178 65.9299 72.6269C66.298 72.6784 66.6595 72.7696 67.008 72.8988C67.3537 73.0148 67.6894 73.1584 68.0121 73.3282C68.4013 73.5321 68.8339 73.665 69.2478 73.8627C69.6618 74.0604 70.1159 74.3199 70.5361 74.5732C70.7956 74.7308 71.0458 74.9038 71.2961 75.0737C71.6761 75.3363 72.0344 75.6298 72.3928 75.9233C72.6906 76.1404 72.9687 76.3833 73.2238 76.6493C73.2825 76.7117 73.3371 76.7777 73.3876 76.847C73.5606 77.125 73.5358 77.2671 73.3474 77.4031C73.3075 77.4384 73.264 77.4695 73.2176 77.4957C73.1423 77.5303 73.0581 77.5406 72.9767 77.5251C72.8953 77.5096 72.8208 77.4691 72.7635 77.4092C72.3619 77.0694 71.9356 76.7049 71.4567 76.3372C71.1045 76.0685 70.7276 75.7997 70.3353 75.5556L70.3445 75.5309Z" fill="#231F20"/>
<path id="Vector_74" d="M29.2094 91.1102C29.0769 91.4325 29.0438 91.787 29.1142 92.1283C29.1847 92.4696 29.3555 92.782 29.6048 93.0256C30.0558 93.5106 30.8405 93.801 31.4059 93.3005C31.6558 93.0365 31.8146 92.6994 31.859 92.3386C31.9035 91.9779 31.8313 91.6123 31.653 91.2955C31.4837 91.0303 31.2395 90.8212 30.9514 90.6947C30.6633 90.5682 30.3441 90.53 30.0342 90.585C29.8712 90.6049 29.7149 90.6615 29.577 90.7506C29.4391 90.8397 29.3233 90.959 29.2382 91.0994C29.1531 91.2398 29.101 91.3977 29.0859 91.5612C29.0707 91.7247 29.0929 91.8895 29.1507 92.0431C29.1952 92.1891 29.2941 92.3125 29.4268 92.3877C29.5596 92.463 29.7162 92.4845 29.8643 92.4479C30.0118 92.4067 30.1371 92.3089 30.2129 92.1759C30.2887 92.0428 30.3089 91.8852 30.269 91.7373C30.2583 91.6889 30.2438 91.6414 30.2258 91.5952C30.269 91.6724 30.2258 91.5952 30.2258 91.6971C30.1856 91.7836 30.2536 91.5427 30.2258 91.6971C30.1362 91.9041 30.1887 91.6539 30.2258 91.6971C30.0867 91.7126 30.2628 91.7404 30.2258 91.6971C30.2566 91.6971 30.3895 91.6971 30.2258 91.6971H30.3555C30.4914 91.6971 30.2443 91.6631 30.3771 91.6971L30.5069 91.7342C30.3586 91.6848 30.6799 91.8732 30.5687 91.7713C30.6055 91.8024 30.6387 91.8377 30.6675 91.8763C30.5903 91.7713 30.6675 91.9041 30.683 91.9227C30.6521 91.796 30.683 91.9752 30.683 91.9814C30.7077 92.1544 30.683 91.8701 30.683 92.0586C30.6867 92.1704 30.6677 92.2818 30.6274 92.3861C30.6583 92.3057 30.5872 92.4478 30.5841 92.454C30.6119 92.3799 30.5378 92.454 30.6243 92.4046C30.7108 92.3552 30.5748 92.4046 30.717 92.383C30.683 92.383 30.547 92.383 30.6984 92.383C30.6644 92.383 30.544 92.3212 30.6583 92.383C30.6129 92.3609 30.5695 92.3351 30.5285 92.3057C30.4297 92.2409 30.5718 92.3552 30.4791 92.2625C30.4376 92.2246 30.3984 92.1844 30.3617 92.142C30.4142 92.2007 30.3617 92.142 30.3339 92.1018C30.3021 92.0552 30.2732 92.0068 30.2474 91.9566C30.2322 91.8956 30.2125 91.8357 30.1887 91.7775C30.1887 91.8392 30.1887 91.6848 30.1887 91.6662C30.1887 91.6477 30.1887 91.6292 30.1887 91.6879C30.2072 91.6199 30.2103 91.623 30.1887 91.6879C30.2614 91.5545 30.2805 91.3984 30.2421 91.2514C30.2036 91.1044 30.1105 90.9776 29.9817 90.897C29.8489 90.8193 29.6908 90.7975 29.5419 90.8363C29.3931 90.8751 29.2657 90.9714 29.1877 91.104L29.2094 91.1102Z" fill="#231F20"/>
<path id="Vector_75" d="M67.7026 90.1554C67.6785 90.4154 67.587 90.6646 67.4369 90.8784C67.291 91.0728 67.1044 91.233 66.8901 91.3479C66.5384 91.533 66.1502 91.6384 65.7532 91.6569C65.0318 91.6865 64.3156 91.5211 63.6803 91.178C63.215 90.9401 62.8038 90.6089 62.4723 90.2049C62.3321 90.0229 62.2071 89.8296 62.0985 89.6272C62.0002 89.4272 61.9155 89.2208 61.8452 89.0093C61.7093 88.6015 61.6289 88.2061 61.5023 87.8693C61.3969 87.5414 61.2022 87.2494 60.94 87.0259C60.89 86.9811 60.8338 86.9437 60.7732 86.9147C60.6929 86.8931 60.628 86.8591 60.5322 86.8406C60.3561 86.7973 60.1584 86.7664 59.9638 86.7355C59.2214 86.6562 58.4936 86.4743 57.8012 86.1949C57.3532 85.9821 56.9576 85.673 56.6427 85.2897C56.4917 85.092 56.3642 84.8774 56.2627 84.6502C56.2111 84.5396 56.1657 84.4261 56.1268 84.3104L56.0403 83.9613C55.9754 83.6524 56.1454 83.6771 56.374 83.8532C56.6616 84.1085 56.9272 84.3875 57.1679 84.6873C57.6468 85.3052 58.3851 85.6141 59.2316 85.7964C59.6579 85.886 60.0997 85.9261 60.6064 86.0281L60.7979 86.0713L61.0142 86.1424C61.1732 86.2019 61.3206 86.2887 61.4498 86.3988C61.6675 86.5813 61.8525 86.7996 61.9966 87.0445C62.3395 87.6314 62.4353 88.2277 62.633 88.722C62.8047 89.198 63.0937 89.623 63.4733 89.9577C63.8937 90.3262 64.4043 90.5767 64.9531 90.6837C65.4735 90.8148 66.0241 90.7476 66.4978 90.4953C66.5997 90.4329 66.678 90.3383 66.7202 90.2265C66.762 90.0937 66.7716 89.9528 66.748 89.8156C66.6728 89.4539 66.5695 89.0986 66.4391 88.7529C66.3272 88.4443 66.2646 88.1201 66.2537 87.7921C66.2561 87.6002 66.3015 87.4112 66.3865 87.2391C66.4761 87.0761 66.5932 86.9298 66.7325 86.8066C67.2763 86.3525 67.891 86.2443 68.3823 86.0065C68.5638 85.9312 68.7318 85.8269 68.8796 85.6975C69.0235 85.5589 69.1501 85.4033 69.2565 85.2341C69.4591 84.9066 69.5721 84.5316 69.584 84.1467C69.5827 83.9829 69.5672 83.8196 69.5377 83.6586C69.4882 83.3496 69.4141 83.1673 69.411 83.0129C69.4106 82.8667 69.4536 82.7237 69.5346 82.602C69.5747 82.5433 69.6056 82.4722 69.6458 82.4228C69.686 82.3734 69.825 82.3456 69.9547 82.4228C70.1549 82.5649 70.3043 82.7674 70.3811 83.0005C70.5557 83.459 70.6121 83.9541 70.5448 84.4402C70.4713 84.946 70.2715 85.4252 69.964 85.8335C69.8913 85.9406 69.8129 86.0437 69.7292 86.1424C69.643 86.2394 69.5512 86.3312 69.4543 86.4173C69.247 86.5897 69.0174 86.7331 68.7715 86.8437C68.3328 87.0414 67.9281 87.1526 67.6285 87.3132C67.4122 87.4214 67.2546 87.5511 67.2423 87.65C67.2353 87.7033 67.2353 87.7573 67.2423 87.8106C67.2437 87.9148 67.2572 88.0185 67.2824 88.1196C67.335 88.3698 67.44 88.6602 67.5358 88.9815C67.6685 89.3592 67.7282 89.7586 67.7119 90.1585L67.7026 90.1554Z" fill="#231F20"/>
<path id="Vector_76" d="M53.062 107.781C53.062 107.7 53.0465 107.62 53.0404 107.54C53.0327 107.513 53.0265 107.487 53.0218 107.459C53.0218 107.357 53.0218 107.259 53.0002 107.15C52.9947 107.108 52.9787 107.068 52.9539 107.033C52.9261 106.987 52.8766 106.953 52.8952 106.885C52.9137 106.817 53.2937 106.69 53.3339 106.761C53.3966 106.88 53.4204 107.015 53.4018 107.147C53.4016 107.223 53.413 107.298 53.4358 107.37C53.4358 107.453 53.4543 107.53 53.4605 107.611C53.4667 107.691 53.4605 107.71 53.4605 107.756C53.4654 107.828 53.4799 107.898 53.5038 107.966C53.5289 108.015 53.5579 108.061 53.5903 108.105L53.6119 108.133C53.6119 108.173 53.6119 108.195 53.5378 108.241L53.4883 108.272C53.4669 108.288 53.4416 108.298 53.4151 108.301C53.3885 108.304 53.3616 108.301 53.3369 108.29C53.2304 108.228 53.1503 108.129 53.1114 108.012C53.0805 107.932 53.062 107.849 53.0404 107.771L53.062 107.781Z" fill="#231F20"/>
<path id="Vector_77" d="M56.7267 109.909C56.7267 109.804 56.7514 109.702 56.7576 109.6C56.7576 109.563 56.7576 109.529 56.7576 109.495C56.7739 109.367 56.7812 109.238 56.7792 109.109C56.7769 109.053 56.7632 108.998 56.7391 108.948C56.7082 108.886 56.6587 108.834 56.6835 108.75C56.7082 108.667 57.153 108.571 57.2025 108.661C57.2789 108.814 57.3049 108.987 57.2766 109.155C57.2728 109.253 57.2832 109.351 57.3075 109.445C57.3075 109.55 57.3075 109.656 57.3075 109.754C57.3075 109.853 57.3075 109.881 57.3075 109.943C57.2981 110.037 57.2981 110.133 57.3075 110.227L57.3755 110.431C57.382 110.445 57.3872 110.459 57.3909 110.474C57.3909 110.533 57.3662 110.558 57.2612 110.595L57.1901 110.616C57.1573 110.629 57.122 110.634 57.0871 110.63C57.0521 110.626 57.0186 110.614 56.9893 110.595C56.9234 110.551 56.8668 110.495 56.8228 110.429C56.7788 110.363 56.7482 110.289 56.7329 110.212C56.7114 110.11 56.699 110.007 56.6958 109.903L56.7267 109.909Z" fill="#231F20"/>
<path id="Vector_78" d="M61.011 111.417L60.9924 111.17C60.9924 111.139 60.9739 111.114 60.9739 111.086C60.9739 110.981 60.9739 110.879 60.9739 110.777C60.967 110.734 60.9524 110.692 60.9307 110.654C60.9029 110.604 60.8534 110.567 60.8843 110.499C60.9152 110.431 61.3385 110.332 61.3693 110.4C61.4219 110.519 61.4359 110.65 61.4095 110.777C61.4057 110.851 61.4161 110.924 61.4404 110.993L61.4682 111.228C61.4682 111.278 61.4682 111.324 61.4898 111.37C61.4999 111.441 61.5186 111.511 61.5454 111.577C61.5741 111.624 61.6072 111.667 61.6443 111.707L61.669 111.735C61.6876 111.772 61.669 111.797 61.5732 111.855L61.5084 111.896C61.4816 111.915 61.4509 111.929 61.4185 111.936C61.386 111.943 61.3524 111.943 61.3199 111.936C61.2607 111.912 61.2073 111.876 61.1636 111.829C61.1198 111.783 61.0867 111.727 61.0666 111.667C61.0409 111.586 61.0212 111.504 61.0079 111.42L61.011 111.417Z" fill="#231F20"/>
<path id="Vector_79" d="M65.2376 113.122C65.2531 113.032 65.2685 112.94 65.2778 112.85C65.2778 112.816 65.2623 112.788 65.2778 112.757C65.2976 112.642 65.31 112.525 65.3149 112.408C65.3122 112.36 65.2962 112.313 65.2685 112.272C65.2345 112.217 65.1727 112.18 65.216 112.096C65.2593 112.013 65.8339 111.828 65.8895 111.911C65.9308 111.981 65.9571 112.059 65.9667 112.14C65.9762 112.221 65.9689 112.303 65.9451 112.381C65.9173 112.479 65.9698 112.56 65.976 112.652C65.9822 112.745 65.976 112.847 65.976 112.946V113.122C65.9651 113.208 65.9651 113.295 65.976 113.382C66.0036 113.447 66.04 113.508 66.0841 113.564C66.0944 113.575 66.1028 113.587 66.1088 113.601C66.1243 113.65 66.0779 113.675 65.908 113.718L65.7875 113.746C65.6875 113.781 65.5787 113.781 65.4786 113.746C65.4168 113.71 65.3637 113.66 65.3231 113.601C65.2826 113.541 65.2555 113.474 65.2438 113.403C65.2219 113.313 65.2136 113.221 65.2191 113.128L65.2376 113.122Z" fill="#231F20"/>
<path id="Vector_80" d="M70.7151 113.678V113.431C70.7151 113.403 70.6935 113.379 70.6935 113.348C70.6935 113.243 70.6935 113.138 70.6935 113.039C70.689 112.995 70.6742 112.952 70.6502 112.915C70.6193 112.866 70.5637 112.829 70.6039 112.758C70.6441 112.687 71.16 112.557 71.194 112.625C71.2501 112.741 71.26 112.875 71.2218 112.999C71.197 113.082 71.2434 113.147 71.2527 113.218C71.2619 113.289 71.2681 113.379 71.2774 113.456C71.2866 113.533 71.2774 113.555 71.2928 113.601C71.2984 113.674 71.314 113.746 71.3392 113.814C71.3667 113.864 71.401 113.91 71.4411 113.95C71.4411 113.95 71.4596 113.966 71.4627 113.978C71.4658 113.99 71.4627 114.043 71.3392 114.105L71.2619 114.145C71.1959 114.184 71.1178 114.197 71.0426 114.182C70.982 114.162 70.9267 114.129 70.8802 114.085C70.8338 114.041 70.7975 113.988 70.7738 113.929C70.745 113.85 70.7233 113.77 70.7089 113.688L70.7151 113.678Z" fill="#231F20"/>
<path id="Vector_81" d="M99.3958 130.848C99.3171 130.908 99.2346 130.963 99.1487 131.012C99.0776 131.052 99.0035 131.096 98.9355 131.126C98.7989 131.193 98.6586 131.252 98.5154 131.303C98.3766 131.358 98.2341 131.403 98.089 131.438C97.9438 131.472 97.8017 131.519 97.6596 131.537C97.1001 131.637 96.531 131.671 95.9636 131.639C94.893 131.569 93.8305 131.407 92.7877 131.154C92.0308 130.987 91.3048 130.845 90.5603 130.706C89.2412 130.447 87.9313 130.187 86.6183 130.002C85.9695 129.909 85.2899 129.854 84.6041 129.727C84.2539 129.662 83.909 129.571 83.5722 129.455C83.3994 129.393 83.2303 129.32 83.0656 129.239L82.8061 129.094C82.7165 129.038 82.6083 128.945 82.4971 128.874C82.3345 128.731 82.2201 128.541 82.1697 128.331C82.1535 128.225 82.1591 128.118 82.1862 128.015C82.2133 127.911 82.2613 127.815 82.3272 127.731C82.4628 127.559 82.6294 127.413 82.8184 127.302C82.959 127.217 83.1045 127.141 83.254 127.073C83.8229 126.822 84.4175 126.633 85.0273 126.511C85.8052 126.334 86.607 126.288 87.3999 126.375C88.1966 126.464 88.9653 126.721 89.6551 127.129C90.0753 127.404 89.9239 127.487 89.5038 127.438L88.6727 127.373L87.5667 127.314C86.8527 127.281 86.1371 127.323 85.432 127.441C85.0805 127.505 84.7337 127.593 84.394 127.703C84.0641 127.802 83.7444 127.933 83.4394 128.093L83.3405 128.151H83.3251C83.3188 128.153 83.3135 128.158 83.3101 128.163C83.3067 128.169 83.3054 128.176 83.3065 128.182C83.3051 128.186 83.3043 128.189 83.3043 128.193C83.3043 128.197 83.3051 128.2 83.3065 128.204C83.3065 128.204 83.3065 128.204 83.3436 128.229C83.4742 128.31 83.6117 128.381 83.7545 128.439C84.4418 128.691 85.1579 128.857 85.8861 128.933C86.8129 129.066 87.7799 129.217 88.7283 129.375C89.6768 129.532 90.6252 129.684 91.5829 129.872C92.624 130.085 93.6373 130.332 94.6537 130.49C95.6401 130.672 96.6516 130.672 97.638 130.49C97.925 130.421 98.2044 130.324 98.4721 130.2C98.537 130.169 98.5957 130.132 98.6544 130.101C98.6956 130.076 98.7349 130.048 98.7718 130.017C98.8365 129.972 98.8834 129.905 98.9046 129.829C98.9127 129.749 98.8894 129.669 98.8398 129.606C98.8137 129.572 98.7848 129.54 98.7533 129.511C98.7042 129.466 98.6526 129.423 98.5988 129.384C98.355 129.21 98.0966 129.057 97.8265 128.927C97.3977 128.721 96.9584 128.539 96.5104 128.38C96.0023 128.253 95.5146 128.055 95.0615 127.793C94.9252 127.696 94.808 127.574 94.7155 127.435C94.6224 127.285 94.5711 127.113 94.5672 126.937C94.5672 126.774 94.5826 126.653 94.5672 126.57C94.5667 126.495 94.5465 126.421 94.5085 126.356C94.3664 126.072 93.9215 125.89 93.4921 125.788C93.1461 125.705 92.7846 125.658 92.4047 125.606C92.0247 125.553 91.6756 125.516 91.311 125.488C90.5788 125.439 89.8467 125.433 89.1083 125.445L88.1352 125.473C86.8994 125.501 86.5164 125.439 86.2476 125.164C86.1814 125.106 86.1223 125.041 86.0715 124.969C85.9479 124.747 86.4453 124.552 87.3474 124.472C88.7383 124.329 90.1392 124.311 91.5335 124.416C91.8949 124.444 92.2564 124.494 92.6178 124.546C92.9854 124.591 93.3504 124.655 93.7114 124.738C94.1577 124.838 94.5784 125.029 94.9472 125.3C95.1897 125.484 95.3793 125.729 95.4971 126.01C95.5635 126.169 95.6002 126.339 95.6052 126.511C95.6117 126.626 95.6117 126.742 95.6052 126.857C95.6052 126.959 95.6052 126.913 95.6052 126.922C95.6052 126.931 95.6052 126.922 95.633 126.947C95.7869 127.046 95.9545 127.123 96.1304 127.175C96.3497 127.252 96.5876 127.314 96.8688 127.404C96.9336 127.422 97.0263 127.456 97.0881 127.478L97.2765 127.549L97.6596 127.7C98.207 127.904 98.7261 128.177 99.2043 128.513C99.3594 128.629 99.5023 128.76 99.6306 128.905C99.7993 129.092 99.9174 129.318 99.9735 129.563C100.026 129.804 99.9982 130.056 99.8932 130.28C99.7802 130.503 99.6187 130.699 99.4206 130.851L99.3958 130.848Z" fill="#231F20"/>
<path id="Vector_82" d="M9.80836 131.046C9.32951 131.046 8.81359 131.096 8.28222 131.09C8.0108 131.09 7.73955 131.076 7.46973 131.046C7.32631 131.03 7.18396 131.005 7.0434 130.972C6.87523 130.935 6.71157 130.881 6.55528 130.808C6.34733 130.712 6.17456 130.553 6.06098 130.354C5.95819 130.153 5.92869 129.923 5.97757 129.702C6.071 129.366 6.26112 129.064 6.52439 128.834L6.57999 128.782C6.59083 128.773 6.60021 128.763 6.6078 128.751C6.61797 128.742 6.62517 128.73 6.62848 128.717C6.63178 128.704 6.63104 128.69 6.62634 128.677C6.61471 128.651 6.59526 128.629 6.57073 128.615L6.53366 128.59L6.39772 128.525C5.75799 128.301 5.08261 128.197 4.4051 128.216C3.76869 128.189 3.11375 128.198 2.42792 128.115C2.077 128.077 1.73173 127.998 1.39916 127.88L1.1551 127.79L1.01917 127.735L0.836902 127.657C0.606244 127.562 0.396389 127.422 0.219033 127.246C0.1422 127.174 0.0828338 127.084 0.0453825 126.985C0.00793109 126.886 -0.00663341 126.78 0.00277999 126.675C0.0288497 126.571 0.0760599 126.474 0.141451 126.39C0.206842 126.305 0.289 126.235 0.382768 126.184C0.595394 126.061 0.825664 125.971 1.06551 125.918L1.23543 125.872L1.36518 125.85C1.44879 125.831 1.53336 125.817 1.61851 125.807C2.28557 125.724 2.95905 125.705 3.62967 125.751C4.21356 125.779 4.78817 125.822 5.35661 125.835C5.63031 125.85 5.90468 125.85 6.17838 125.835C6.45024 125.81 6.72828 125.767 7.00633 125.72C7.75612 125.553 8.52524 125.488 9.29244 125.529C9.5045 125.553 9.7123 125.606 9.91031 125.686C10.1411 125.777 10.3391 125.935 10.4788 126.14C10.5509 126.253 10.5993 126.379 10.6209 126.511C10.6363 126.62 10.6415 126.729 10.6363 126.839C10.6203 127 10.6203 127.162 10.6363 127.324C10.6703 127.484 10.6857 127.571 10.6209 127.611C10.556 127.651 10.417 127.611 10.2687 127.432C10.1854 127.32 10.1246 127.193 10.0895 127.058C10.0551 126.923 10.0107 126.791 9.95665 126.663C9.90104 126.561 9.84543 126.579 9.76202 126.551L9.68479 126.533C9.65364 126.524 9.62146 126.518 9.58902 126.517L9.49016 126.486L9.37894 126.465C9.06621 126.414 8.74782 126.409 8.4336 126.449C8.09377 126.483 7.7385 126.545 7.37087 126.61C7.00324 126.675 6.62634 126.743 6.21236 126.783C5.81238 126.814 5.41059 126.814 5.01061 126.783C4.24445 126.737 3.50919 126.663 2.79246 126.65C2.44065 126.641 2.0886 126.656 1.73899 126.697C1.55899 126.712 1.38038 126.741 1.20454 126.783C1.17673 126.783 1.14275 126.814 1.13657 126.842C1.1339 126.856 1.13505 126.871 1.13993 126.886C1.1448 126.9 1.15322 126.912 1.16437 126.922C1.21143 126.966 1.26579 127.002 1.32502 127.027C1.37136 127.049 1.49184 127.095 1.58761 127.129C1.68338 127.163 1.79151 127.194 1.89655 127.222C2.09893 127.276 2.30569 127.312 2.51442 127.33C3.38561 127.416 4.32786 127.33 5.29483 127.426C5.8551 127.462 6.40334 127.605 6.91055 127.846C7.24729 128.025 7.6211 128.306 7.59948 128.705C7.58437 128.899 7.50252 129.082 7.36778 129.224C7.22567 129.387 7.10209 129.502 7.03722 129.57C6.96827 129.632 6.90801 129.704 6.85804 129.783C6.82553 129.826 6.80915 129.88 6.8117 129.934C6.81261 129.96 6.81917 129.985 6.83091 130.008C6.84266 130.031 6.8593 130.051 6.87966 130.067C6.93216 130.108 6.99185 130.14 7.05575 130.16C7.51471 130.269 7.98741 130.31 8.45832 130.28C8.76725 130.28 9.07619 130.249 9.38512 130.231L10.3336 130.2C10.9514 130.2 11.5909 130.181 12.2181 130.184C13.1696 130.184 14.1242 130.212 15.0726 130.246C15.5453 130.246 16.0334 130.293 16.4844 130.299C16.7013 130.303 16.9182 130.291 17.1332 130.262C17.2681 130.257 17.3956 130.199 17.4885 130.101C17.5119 130.055 17.5214 130.003 17.5159 129.951C17.5104 129.9 17.4902 129.851 17.4576 129.811C17.4299 129.765 17.3978 129.723 17.3618 129.684L17.2135 129.523C16.977 129.299 16.7058 129.114 16.4103 128.976C15.7908 128.697 15.1286 128.525 14.4516 128.467C14.1427 128.427 13.8523 128.417 13.5434 128.399C12.4003 128.362 12.0327 128.352 11.7546 128.09C11.6929 128.043 11.6125 128.006 11.5755 127.969C11.5384 127.932 11.5971 127.836 11.8072 127.713C12.1219 127.561 12.4651 127.478 12.8143 127.469C13.5001 127.407 14.1905 127.414 14.8749 127.49C15.61 127.584 16.3225 127.807 16.9787 128.152C17.151 128.245 17.3181 128.349 17.4792 128.461L17.714 128.658C17.7984 128.728 17.8769 128.804 17.9488 128.887C18.0291 128.976 18.1063 129.069 18.1836 129.162C18.2783 129.29 18.359 129.428 18.4245 129.573C18.4897 129.71 18.5253 129.859 18.5291 130.011C18.5328 130.162 18.5045 130.313 18.4462 130.453C18.3801 130.592 18.2866 130.716 18.1715 130.818C18.0563 130.92 17.9217 130.998 17.7758 131.046C17.6175 131.103 17.454 131.143 17.2877 131.167C17.1517 131.185 17.0652 131.192 16.9633 131.201C16.5967 131.218 16.2294 131.212 15.8635 131.185C13.8585 131.093 11.8195 131.019 9.80836 131.071V131.046Z" fill="#231F20"/>
<path id="Vector_83" opacity="0.2" d="M57.4492 71.5271C55.4596 69.7384 52.1602 70.1307 52.1602 70.1307C52.1602 70.1307 50.5846 79.0898 49.8617 79.5038C49.1388 79.9178 54.4958 80.2545 55.6604 79.5038C56.8251 78.7531 57.4492 71.5271 57.4492 71.5271Z" fill="#231F20"/>
<path id="Vector_84" opacity="0.2" d="M60.6587 79.5038C60.6587 79.5038 63.5905 72.7381 64.0137 72.5095C64.437 72.2809 71.1872 75.0706 72.738 77.4803C74.2889 79.89 60.7421 80.1804 60.7421 80.1804" fill="#231F20"/>
<path id="Vector_85" d="M23.8557 9.19654C23.8835 10.9142 21.0259 11.0996 21.0259 9.19654C21.0259 7.46959 23.6302 7.34293 23.8434 9.01736C23.8495 9.07914 23.8526 9.13784 23.8557 9.19654Z" fill="#231F20"/>
<path id="Vector_86" d="M68.8549 1.46065C68.8797 2.86012 66.5503 3.00532 66.5503 1.46065C66.5503 0.0549977 68.6727 -0.0438622 68.8457 1.31854C68.8517 1.36567 68.8548 1.41313 68.8549 1.46065Z" fill="#231F20"/>
<path id="Vector_87" d="M75.9415 10.5285C75.9631 11.6561 74.0879 11.7797 74.0879 10.5285C74.0879 9.39161 75.7994 9.31128 75.9415 10.4111C75.9384 10.4389 75.9415 10.4791 75.9415 10.5285Z" fill="#231F20"/>
<path id="Vector_88" d="M38.4714 12.3815C38.4714 13.2466 37.0503 13.3392 37.0503 12.3815C37.0503 11.5134 38.3602 11.4547 38.4652 12.292C38.4683 12.3259 38.4714 12.3568 38.4714 12.3815Z" fill="#231F20"/>
<path id="Vector_89" d="M86.489 19.2273C86.5045 20.0552 85.1235 20.1541 85.1235 19.2273C85.1235 18.3932 86.3809 18.3345 86.4828 19.1439C86.4863 19.1716 86.4884 19.1994 86.489 19.2273Z" fill="#231F20"/>
<path id="Vector_90" d="M32.2989 18.2512C32.3205 19.487 30.2754 19.6136 30.2754 18.2512C30.2754 17.0155 32.129 16.929 32.2896 18.1246C32.2957 18.1665 32.2988 18.2089 32.2989 18.2512Z" fill="#231F20"/>
<path id="Vector_91" opacity="0.23" d="M54.1714 37.0499C51.6567 36.4104 50.2263 34.1583 50.112 31.6219C49.9884 28.8415 52.2746 26.7346 53.8439 24.7203C55.367 22.771 54.7275 19.4932 54.7275 19.4932C54.7275 19.4932 51.8791 24.8254 50.4827 27.164C50.4827 27.164 47.4336 30.2781 47.7023 32.0328C47.9711 33.7876 49.4169 36.8553 52.7441 37.3465C56.0714 37.8377 54.1714 37.0499 54.1714 37.0499Z" fill="#231F20"/>
<path id="Vector_92" opacity="0.23" d="M28.7829 40.3806C28.7829 40.3806 33.834 47.0906 32.6075 48.9535C31.381 50.8164 29.1258 53.674 21.8164 54.7367C21.8164 54.7367 22.7648 55.54 24.7389 55.9447C26.713 56.3494 33.2192 52.5711 34.2448 50.2325C35.2705 47.8939 31.8877 42.7161 31.8877 42.7161L30.0341 39.7627L28.7829 40.3806Z" fill="#231F20"/>
<path id="Vector_93" opacity="0.23" d="M64.8701 51.1933C67.4188 52.4877 74.1752 54.7058 75.6458 53.535C76.6405 52.7379 77.5457 49.2284 77.1904 48.5735C77.1904 48.5735 79.353 48.9936 79.8473 50.2325C80.3415 51.4713 77.4067 55.9756 77.4067 55.9756L64.8701 51.1933Z" fill="#231F20"/>
</g>
</svg>
