<svg width="120" height="104" viewBox="0 0 120 104" fill="none" xmlns="http://www.w3.org/2000/svg">
<g id="Group 13885">
<g id="Group" opacity="0.5">
<path id="Vector" d="M23.0204 27.0842C23.4939 26.8805 23.9455 26.6216 24.3722 26.3133C24.8017 26.0132 25.2092 25.6663 25.5892 25.2891C26.3573 24.5402 27.0236 23.6701 27.6183 22.7533C28.213 21.8337 28.7307 20.8563 29.1822 19.8486C29.6337 18.8436 30.0247 17.7974 30.311 16.7511C30.523 16.0105 30.5836 15.2478 30.4515 14.5292C30.3248 13.8189 29.9311 13.1801 29.4025 13.1581C29.1657 13.1333 28.8821 13.2159 28.6095 13.3646C28.3397 13.5188 28.0754 13.7198 27.8303 13.9538C27.3375 14.4164 26.9025 14.978 26.5088 15.5617C26.1178 16.1509 25.7516 16.7621 25.4157 17.3982C25.245 17.712 25.0881 18.0369 24.9256 18.3563L24.7054 18.8381L24.5071 19.3282C24.006 20.6498 23.7004 22.0512 23.6454 23.4609C23.593 24.865 23.7995 26.2912 24.3915 27.5523C24.9119 28.6646 25.7489 29.6475 26.8419 30.1651C27.3816 30.4267 27.9735 30.5698 28.571 30.5946C29.1684 30.6194 29.7686 30.5175 30.3386 30.3221C31.0737 30.0743 31.7593 29.6723 32.3815 29.1849C33.0093 28.7031 33.5792 28.1387 34.1023 27.5275C34.6199 26.9135 35.11 26.2692 35.545 25.5864C35.9828 24.9036 36.393 24.2015 36.8088 23.4967C37.3154 22.6101 37.2768 22.7368 37.0346 23.5793C36.8005 24.4218 36.316 26.0104 35.1678 27.6101C34.6585 28.3122 34.0885 28.984 33.4333 29.5869C32.778 30.1871 32.0098 30.6882 31.1646 31.0517L30.8452 31.1838L30.5148 31.2912C30.2973 31.3711 30.0633 31.4096 29.8375 31.4647C29.3749 31.5418 28.9014 31.5941 28.4278 31.5528C28.191 31.55 27.9542 31.4977 27.7202 31.4647C27.4889 31.4041 27.2549 31.3573 27.0346 31.2664C26.5831 31.1122 26.1619 30.8837 25.7764 30.6194C25.3827 30.3578 25.0468 30.0302 24.7301 29.6916C24.43 29.3391 24.152 28.9702 23.9289 28.571C23.4664 27.7835 23.169 26.919 22.9956 26.0435C22.6514 24.2869 22.7918 22.4972 23.2213 20.8095C23.4857 19.8018 23.8491 18.8051 24.3172 17.8607C24.7714 16.9246 25.267 15.9967 25.8562 15.1074C26.4537 14.2291 27.098 13.3453 28.0754 12.7093C28.191 12.6267 28.3342 12.5661 28.4636 12.4946C28.6068 12.4395 28.7444 12.3734 28.9041 12.3431C29.2097 12.2605 29.5677 12.2605 29.8953 12.3707C30.2257 12.478 30.5065 12.69 30.713 12.9323C30.925 13.1746 31.0599 13.4499 31.1728 13.7225C31.6299 14.934 31.4812 16.228 31.1508 17.3486C30.8259 18.4692 30.4074 19.5485 29.9228 20.603C29.4383 21.6547 28.8848 22.6762 28.2351 23.6426C27.5908 24.609 26.8502 25.5258 25.9884 26.327C24.9339 27.3127 23.6481 28.1194 22.2026 28.4663C21.484 28.6425 20.7406 28.7031 20.0028 28.6481C19.2594 28.6095 18.5243 28.392 17.8552 28.0589C17.3376 27.8166 16.8943 27.4476 16.4841 27.0622C16.2968 26.8502 16.0931 26.6547 15.9362 26.4207C15.8536 26.3078 15.7655 26.1976 15.6911 26.0792L15.4764 25.7213C14.9119 24.7549 14.6091 23.6756 14.4522 22.5908C14.3062 21.5033 14.3558 20.391 14.5513 19.331C14.7357 18.2627 15.0496 17.233 15.4213 16.2308C16.0133 14.6779 16.7566 13.2049 17.6735 11.8338C18.1333 11.151 18.6344 10.4929 19.2098 9.88445C19.7935 9.28699 20.435 8.71431 21.2665 8.34812C21.6437 8.19944 22.0402 8.08656 22.511 8.13061L22.69 8.14713C22.756 8.1609 22.8304 8.18292 22.8965 8.2077C23.0286 8.26552 23.1553 8.33986 23.2516 8.44999C23.4526 8.65373 23.5325 8.98963 23.5297 9.24018C23.5242 9.68071 23.4086 10.0028 23.2984 10.2919C23.1828 10.5783 23.0562 10.8206 22.9295 11.0326C22.6734 11.4566 22.4119 11.7567 22.1861 11.9907C21.9576 12.2247 21.7538 12.3844 21.5721 12.4973C21.3877 12.6074 21.2197 12.6708 21.071 12.7176C20.9334 12.7589 20.7654 12.8167 20.6801 12.8222C20.3855 12.8332 21.2941 12.2027 22.1613 10.5893C22.3183 10.2947 22.4504 9.98357 22.5275 9.68622C22.5661 9.53754 22.5881 9.39161 22.5881 9.27322C22.5881 9.20439 22.5826 9.18237 22.5743 9.16585C22.5688 9.14657 22.5578 9.13005 22.544 9.11353C22.5303 9.09977 22.5138 9.08875 22.4945 9.086C22.4862 9.08325 22.4752 9.08325 22.4669 9.08049H22.3954L22.3183 9.07223C22.2907 9.07223 22.2549 9.08049 22.2219 9.08325C22.1558 9.09151 22.0925 9.09151 22.0237 9.11353C21.7539 9.17135 21.4648 9.30626 21.1922 9.48247C20.6388 9.82663 20.1322 10.325 19.6614 10.8509C19.1933 11.3822 18.761 11.9632 18.3646 12.5744C17.5716 13.7941 16.9053 15.1184 16.3877 16.4923C15.8728 17.8662 15.4956 19.3062 15.413 20.7296C15.3635 21.7786 15.4819 22.8441 15.8068 23.8353C15.8756 24.0886 15.9885 24.3199 16.0793 24.5622C16.2005 24.788 16.2941 25.0302 16.4373 25.2395C16.6878 25.6828 17.0155 26.0682 17.3706 26.4069L17.6487 26.6492L17.9488 26.8584C17.9984 26.8915 18.0479 26.93 18.1002 26.963L18.2627 27.0484C18.3728 27.1035 18.4747 27.1668 18.5876 27.2136C18.8189 27.2934 19.0391 27.4008 19.2842 27.4421C19.4053 27.4669 19.5237 27.5054 19.6448 27.5247L20.0165 27.566L20.2038 27.588H20.3965C20.5231 27.588 20.6525 27.5963 20.7792 27.5908C21.0325 27.5688 21.2885 27.5605 21.5391 27.5082C21.7924 27.4752 22.0374 27.3981 22.2852 27.3375C22.5275 27.2494 22.7726 27.1778 23.0066 27.0622L23.0231 27.0842H23.0204Z" fill="#231F20"/>
</g>
<path id="Vector_2" opacity="0.45" d="M47.2656 48.6204L45.8064 48.1496L44.7133 49.35L44.7298 47.7476L43.2568 47.2355C43.6753 47.051 44.6445 46.6848 44.6445 46.6848C44.6445 46.6848 44.9253 45.7102 44.9088 45.2008L45.9027 46.2636C45.9027 46.2636 47.2518 46.1589 47.3317 46.1479C47.2381 46.3572 46.4727 47.2603 46.4727 47.2603C46.4727 47.2603 46.9352 47.9844 47.2684 48.6204H47.2656Z" fill="#231F20"/>
<path id="Vector_3" d="M77.6396 76.8057L77.2238 75.3299L75.6187 75.0849L76.9622 74.2121L76.5713 72.7006C76.9567 72.9456 77.7992 73.5513 77.7992 73.5513C77.7992 73.5513 78.7656 73.2457 79.1814 72.9484L78.8455 74.3663C78.8455 74.3663 79.6797 75.4318 79.732 75.4896C79.5063 75.5282 78.3306 75.3905 78.3306 75.3905C78.3306 75.3905 77.9837 76.1779 77.6396 76.8057Z" fill="#231F20"/>
<path id="Vector_4" opacity="0.45" d="M111.772 25.7626L111.417 24.4989L110.046 24.2896L111.194 23.5435L110.861 22.2522C111.191 22.4614 111.91 22.9791 111.91 22.9791C111.91 22.9791 112.736 22.7175 113.091 22.4642L112.805 23.6756C112.805 23.6756 113.518 24.587 113.565 24.6365C113.372 24.6696 112.367 24.5512 112.367 24.5512C112.367 24.5512 112.07 25.223 111.775 25.7626H111.772Z" fill="#231F20"/>
<path id="Vector_5" d="M107.695 19.5842L105.726 18.9096L104.275 20.5616V18.3397L102.287 17.6101C102.846 17.3595 104.146 16.8639 104.146 16.8639C104.146 16.8639 104.509 15.5176 104.479 14.8073L105.831 16.2968C105.831 16.2968 107.642 16.1701 107.75 16.1536C107.626 16.4455 106.607 17.6844 106.607 17.6844C106.607 17.6844 107.238 18.6976 107.695 19.5842Z" fill="#231F20"/>
<path id="Vector_6" d="M2.62663 81.7258L2.02366 79.9031L0 79.7572L1.63269 78.5182L1.06001 76.6515C1.5556 76.9213 2.6459 77.5986 2.6459 77.5986C2.6459 77.5986 3.83807 77.114 4.34192 76.6983L4.00327 78.521C4.00327 78.521 5.10733 79.782 5.17617 79.8508C4.89533 79.9224 3.41682 79.8673 3.41682 79.8673C3.41682 79.8673 3.02585 80.8943 2.62938 81.7258H2.62663Z" fill="#231F20"/>
<path id="Vector_7" d="M55.6439 3.33715L53.6946 3.62074L53.1853 5.63889L52.2271 3.76942L50.2393 4.01446C50.6027 3.56292 51.481 2.58275 51.481 2.58275C51.481 2.58275 51.2057 1.29146 50.8753 0.707769L52.6539 1.37682C52.6539 1.37682 54.1241 0.487506 54.2067 0.429688C54.2288 0.727042 53.9066 2.21106 53.9066 2.21106C53.9066 2.21106 54.8758 2.78925 55.6439 3.3399V3.33715Z" fill="#231F20"/>
<g id="Group_2">
<path id="Vector_8" d="M85.0183 39.9501L72.7442 35.7404L68.8951 35.2916L67.2541 33.7387L50.2389 27.6072C50.2389 27.6072 48.8237 28.7525 49.11 30.3963L71.4612 38.5074C71.4612 38.5074 75.1478 37.8687 77.9754 39.5206C77.9754 39.5206 80.569 41.101 82.4412 40.688C84.3135 40.275 85.0211 39.9474 85.0211 39.9474L85.0183 39.9501Z" fill="#231F20"/>
<path id="Vector_9" d="M49.9527 28.447C49.8453 28.5461 49.7325 28.6535 49.6581 28.7967C49.6251 28.8462 49.6251 28.9095 49.5975 28.9619C49.4984 29.1546 49.4213 29.3748 49.3663 29.6116C49.3442 29.7162 49.3415 29.8236 49.3497 29.931L49.3608 30.0329C49.3608 30.0687 49.3553 30.1017 49.3525 30.1375C49.347 30.1733 49.3442 30.2063 49.325 30.2449C49.3029 30.2807 49.2782 30.3192 49.2534 30.355C49.2176 30.4018 49.146 30.4018 49.0331 30.3743C48.9753 30.3605 48.9065 30.3385 48.8349 30.311C48.7991 30.2972 48.7605 30.2807 48.733 30.2642C48.7082 30.2449 48.689 30.2256 48.6779 30.2063C48.6366 30.132 48.6036 30.0549 48.6009 29.9751C48.5898 29.898 48.5898 29.8154 48.5898 29.7355C48.5898 29.5758 48.6229 29.4106 48.7 29.2537C48.7853 29.0665 48.7881 28.8572 48.8652 28.6617C48.9505 28.4497 49.0689 28.2432 49.2176 28.0643C49.3029 27.9514 49.4103 27.855 49.5122 27.7614C49.6719 27.621 49.8564 27.5219 50.0243 27.4173C50.1537 27.3292 50.2776 27.2383 50.4125 27.1585C50.4428 27.1447 50.4703 27.1227 50.5034 27.1172C50.6273 27.0924 50.6823 27.1254 50.7539 27.2658C50.7704 27.2961 50.787 27.3264 50.8007 27.3539C50.842 27.4475 50.8338 27.577 50.7815 27.6568C50.6163 27.8936 50.4676 28.067 50.3024 28.1827C50.1867 28.279 50.0711 28.3589 49.9665 28.4608L49.95 28.447H49.9527Z" fill="#231F20"/>
<path id="Vector_10" d="M39.8426 27.5742C39.7655 27.5356 39.6967 27.5163 39.6113 27.4585C39.5232 27.4007 39.4434 27.3319 39.3663 27.2575C39.2203 27.1061 39.113 26.9244 39.0441 26.7454C38.9037 26.382 38.8982 26.0323 38.9285 25.7074C38.9643 25.3826 39.0496 25.0742 39.1735 24.7823C39.3002 24.4905 39.4599 24.2097 39.7022 23.9536C39.8233 23.827 39.9665 23.7031 40.1537 23.6067C40.3327 23.5103 40.5942 23.447 40.8227 23.48C41.222 23.5626 41.4367 23.6645 41.7093 23.7581C42.2242 23.9509 42.728 24.1491 43.2319 24.3501L49.2588 26.762C50.7263 27.3429 52.2048 27.8963 53.6723 28.4662C55.9162 29.3363 58.1684 30.1843 60.4289 31.013C61.5605 31.4233 62.6921 31.8335 63.8264 32.23L65.5307 32.8219L67.301 33.4249C67.3341 33.4387 67.3644 33.4552 67.3947 33.4689L67.4415 33.491C67.4415 33.491 67.4662 33.4882 67.4552 33.513L67.4745 33.5295C67.502 33.5515 67.5241 33.5763 67.5488 33.6011L67.5984 33.6947C67.6232 33.7608 67.6507 33.8296 67.6727 33.8957L67.7168 34.0224C67.7774 34.1848 67.8434 34.3362 67.9288 34.4739C68.094 34.7492 68.3253 34.9667 68.6144 35.0851C68.8456 35.187 69.1265 35.22 69.4238 35.2421C69.7212 35.2613 70.024 35.2668 70.3324 35.2696C70.9491 35.2751 71.5769 35.2723 72.2184 35.3467C72.535 35.3852 72.8709 35.4568 73.1765 35.5587L74.0548 35.845C74.6413 36.0322 75.225 36.2195 75.8087 36.4067C77.3092 36.8775 78.8153 37.3483 80.3186 37.8191L82.5652 38.5598L83.6831 38.9425C84.0548 39.0746 84.4127 39.2453 84.7789 39.3912C85.6847 39.7822 85.5415 39.785 84.71 39.6611C84.297 39.5922 83.6886 39.5592 82.992 39.3968C82.2899 39.2508 81.4777 39.0553 80.6077 38.7993C79.4127 38.4551 78.2316 38.0669 77.0449 37.6925C75.861 37.3125 74.6771 36.9298 73.4932 36.5361L73.0499 36.3874L72.8269 36.3131L72.6397 36.258C72.3836 36.1919 72.1 36.1534 71.8109 36.1259C71.2245 36.0763 70.6132 36.0846 69.9772 36.0708C69.6579 36.0625 69.333 36.0543 68.9833 36.0047C68.8952 35.9909 68.8016 35.9744 68.7135 35.9579C68.6171 35.9304 68.518 35.9083 68.4271 35.8726C68.2399 35.8037 68.0582 35.7129 67.893 35.5945C67.5571 35.3604 67.3066 35.0328 67.1414 34.6997C67.0588 34.5345 66.9899 34.3638 66.9376 34.2068L66.9211 34.16V34.1518L66.9156 34.138C66.9156 34.127 66.9046 34.1242 66.8963 34.1187C66.2383 33.8929 65.5802 33.6644 64.9195 33.4359C64.2284 33.1881 63.5373 32.9403 62.8435 32.6925C59.1954 31.3654 55.3959 29.9971 51.6955 28.5626C49.6635 27.7724 47.6344 26.9684 45.6107 26.1562L42.5738 24.9448C42.07 24.7465 41.5579 24.5456 41.0595 24.3721C40.9219 24.3198 40.8393 24.3088 40.7346 24.273C40.6631 24.2592 40.6025 24.273 40.5199 24.317C40.3602 24.3996 40.2005 24.5813 40.0766 24.7796C39.9224 25.0301 39.815 25.3192 39.76 25.6111C39.7049 25.9002 39.7077 26.203 39.7985 26.4371C39.8426 26.5555 39.9087 26.6518 39.994 26.7234C40.0133 26.7427 40.0408 26.7564 40.0628 26.773C40.0904 26.7895 40.1289 26.8005 40.1592 26.817L40.3602 26.9051L41.2908 27.2713C42.5408 27.7531 43.799 28.2184 45.0545 28.6837C48.8651 30.0907 52.6976 31.4976 56.4972 32.8467C59.4514 33.8929 62.3672 34.8704 65.3022 35.867C65.9492 36.0846 66.5824 36.2993 67.2322 36.5196C69.6413 37.3538 70.393 37.6622 70.8335 38.0642C70.9354 38.1523 71.0758 38.2514 71.1281 38.3175C71.3126 38.5295 70.2691 38.367 68.4932 37.7861C63.2124 36.0928 57.7004 34.1518 52.1773 32.1666C50.1288 31.4205 48.0776 30.6744 46.0237 29.9282L42.9483 28.7884L41.4119 28.2102L40.6438 27.9156L40.2583 27.7641L40.0656 27.6898L39.8371 27.5907V27.5687L39.8426 27.5742Z" fill="#231F20"/>
<path id="Vector_11" opacity="0.25" d="M104.677 59.4324C104.374 60.9329 98.3083 66.8277 96.739 64.9885C95.0292 62.9841 101.535 55.9385 101.535 55.9385L104.677 59.4324Z" fill="#231F20"/>
<path id="Vector_12" d="M95.8333 64.8481C95.8333 64.8481 99.4401 64.0937 101.634 62.282C103.829 60.4704 107.565 58.1273 109.057 52.7089C109.057 52.7089 118.113 60.0353 118.774 60.5034C119.434 60.9742 117.818 63.2539 114.707 65.016C111.599 66.7781 112.631 67.5711 112.009 70.3684C111.387 73.1657 107.739 74.7158 106.183 75.1481C104.627 75.5804 100.34 70.2005 98.4544 67.6069C96.5684 65.016 95.8306 64.8453 95.8306 64.8453L95.8333 64.8481Z" fill="#231F20"/>
<path id="Vector_13" d="M77.4358 19.0803C77.0008 18.7113 76.5602 18.3534 76.1307 17.9762C75.9738 17.8385 75.8058 17.7174 75.6517 17.577C75.1038 17.0869 74.5586 16.5968 74.019 16.1012C73.7767 15.8837 73.5316 15.669 73.2838 15.4597C72.9672 15.1926 72.6754 14.8925 72.4 14.5814C72.3147 14.4823 72.3477 14.4713 72.4634 14.5071C72.5762 14.5456 72.78 14.6172 72.981 14.7466C73.3499 14.9641 73.6748 15.2284 74.0024 15.4927C74.3328 15.7543 74.6577 16.0214 74.9716 16.3077C75.346 16.6491 75.7838 16.952 76.1941 17.2714C76.6456 17.621 77.0889 17.9845 77.5321 18.3479L78.3554 19.0114C78.7739 19.3418 79.1786 19.697 79.5999 20.0191C79.9275 20.2669 80.2606 20.4982 80.58 20.7543C80.6516 20.8093 80.7204 20.8616 80.7893 20.9195C81.0426 21.1425 81.0949 21.2443 81.1004 21.3545C81.1004 21.3793 81.1059 21.4095 81.1004 21.4288C81.0866 21.4976 80.9435 21.4591 80.7177 21.349C80.39 21.1755 80.0652 20.9855 79.7375 20.7928C79.4154 20.5918 79.1043 20.366 78.7876 20.1458C78.5564 19.9778 78.3196 19.8154 78.0966 19.6364L77.4248 19.0968L77.433 19.083L77.4358 19.0803Z" fill="#231F20"/>
<path id="Vector_14" d="M78.6749 30.7846C76.9045 31.181 75.1396 31.5995 73.3803 32.0456C72.502 32.2713 71.6265 32.4943 70.7619 32.7642L69.4651 33.1606C69.0439 33.2983 68.6116 33.4332 68.2537 33.5956C68.083 33.6672 67.8985 33.7994 67.9261 33.7884C67.915 33.8021 67.9068 33.8269 67.9095 33.8379V33.871C67.9095 33.893 67.915 33.9123 67.915 33.9316C67.9205 33.9701 67.9205 34.0114 67.9316 34.0472C67.9894 34.3473 68.1711 34.5758 68.4767 34.763C68.7796 34.9475 69.176 35.0631 69.5835 35.1402C69.9938 35.2173 70.426 35.2531 70.8638 35.2696C72.6176 35.3192 74.4183 35.0852 76.2024 34.8264C77.5102 34.6336 78.8098 34.3969 80.1341 34.1986C80.8031 34.105 81.4502 33.9976 82.1963 34.0004C82.9479 34.0334 83.6638 34.2344 84.3163 34.6006C85.4534 35.2476 86.2932 36.3599 86.5658 37.6512C86.6318 37.9761 86.6594 38.3148 86.6153 38.6699C86.5658 39.0196 86.4501 39.4023 86.1528 39.7134C86.0867 39.7905 85.9903 39.8594 85.9132 39.9144L85.715 40.0356C85.5828 40.1154 85.4562 40.2035 85.3158 40.2724C85.1781 40.3439 85.0404 40.4183 84.9 40.4844L84.4678 40.6688C83.8841 40.8918 83.2618 41.0323 82.6368 41.0708C82.0118 41.1121 81.3896 41.0598 80.7866 40.9469C79.5807 40.7184 78.4711 40.2751 77.3808 39.8649C76.2905 39.4519 75.214 39.0471 74.1044 38.8544C73.551 38.7553 72.9921 38.7112 72.4359 38.736C71.8853 38.7608 71.3291 38.8654 70.7812 39.0141C70.5141 39.094 70.2443 39.1738 70.0075 39.2867C69.7708 39.3941 69.5505 39.5345 69.4459 39.6804C69.4128 39.7162 69.4101 39.7492 69.388 39.7823C69.388 39.8153 69.366 39.8456 69.377 39.8814C69.3688 39.9475 69.4073 40.0383 69.4514 40.1347C69.5037 40.2311 69.5753 40.3274 69.6606 40.4238C69.6992 40.4733 69.746 40.5146 69.79 40.5587C69.8368 40.6 69.8781 40.6468 69.9332 40.6853C70.3489 41.013 70.8583 41.2801 71.3732 41.5223C71.8908 41.7646 72.4277 41.9821 72.9673 42.1914C74.8919 42.921 76.8825 43.5185 78.8703 44.1132C79.8643 44.4105 80.8582 44.7134 81.8494 45.0273C82.345 45.187 82.8406 45.3494 83.3334 45.5311C83.5812 45.622 83.8262 45.7211 84.074 45.834C84.3356 45.9579 84.5449 46.0873 84.7789 46.2139C85.3598 46.5498 85.9298 46.9105 86.4749 47.2932C87.0256 47.6732 87.5569 48.0614 88.1048 48.4083C89.1896 49.1076 90.4011 49.6142 91.6428 49.9611C92.265 50.1319 92.9066 50.2282 93.5481 50.286C94.1923 50.3466 94.8394 50.3439 95.4809 50.2805C96.7639 50.1704 98.0222 49.7877 99.0877 49.0884C99.2474 48.9727 99.3878 48.8736 99.5062 48.791C99.6191 48.7001 99.7099 48.6286 99.7815 48.5707C99.9302 48.4606 100.007 48.4193 100.018 48.4468C100.032 48.4744 99.977 48.568 99.8641 48.7277C99.8063 48.8048 99.7402 48.9066 99.6438 49.0058C99.5447 49.1049 99.4318 49.2178 99.3079 49.3444C99.1785 49.4683 99.0188 49.5839 98.8454 49.7189C98.6719 49.8483 98.4654 49.9612 98.2534 50.0961C97.8074 50.3246 97.287 50.5696 96.6841 50.7266C95.4836 51.0707 93.9941 51.1809 92.4247 50.9303C91.7337 50.8229 91.0343 50.6495 90.3763 50.4237C89.7155 50.2034 89.0602 49.9364 88.4325 49.6087C87.8047 49.2838 87.21 48.9039 86.6484 48.5239C86.0839 48.1412 85.536 47.7778 84.9771 47.4309C84.6963 47.2574 84.4154 47.0895 84.1264 46.9325C83.9832 46.8554 83.8317 46.7673 83.7106 46.7123C83.5784 46.6517 83.4353 46.5884 83.2866 46.5306C82.6891 46.2993 82.0476 46.0955 81.4089 45.8946C80.1286 45.4981 78.8263 45.1236 77.535 44.7134C76.241 44.3087 74.9442 43.8929 73.6556 43.4304C73.0114 43.1963 72.3698 42.9513 71.7311 42.6787C71.0923 42.4006 70.4591 42.1143 69.8368 41.7151C69.5312 41.5223 69.2008 41.2718 68.9337 40.9469C68.8677 40.8726 68.8044 40.7817 68.7438 40.6853C68.6805 40.6 68.6281 40.4789 68.5786 40.3687C68.4905 40.1292 68.4354 39.8098 68.5428 39.5097C68.6474 39.2234 68.8346 39.0058 69.0136 38.8709C69.1953 38.725 69.377 38.6286 69.556 38.5433C69.9139 38.3809 70.2636 38.2817 70.6133 38.1936C71.2988 38.0367 72.0202 37.9018 72.747 37.91C73.4712 37.91 74.187 38.0064 74.8753 38.1716C76.5273 38.5626 78.0333 39.2812 79.5724 39.774C80.3406 40.0163 81.1198 40.2063 81.899 40.2366C82.6781 40.2834 83.4518 40.1457 84.1759 39.8649C84.5338 39.7134 84.889 39.5455 85.2194 39.3252L85.3461 39.2454C85.3846 39.2206 85.4424 39.1876 85.4534 39.1738C85.5002 39.138 85.5443 39.0967 85.5801 39.0416C85.6544 38.937 85.7067 38.7938 85.7343 38.6314C85.7921 38.3093 85.7453 37.9348 85.6407 37.5824C85.5333 37.2272 85.3681 36.8831 85.1561 36.5719C84.7321 35.947 84.1236 35.4541 83.4243 35.1815C83.0746 35.0439 82.7057 34.9585 82.3285 34.9255C81.9843 34.8924 81.5713 34.9393 81.1693 34.9833C80.28 35.0907 79.3769 35.2476 78.4739 35.3908C77.5708 35.5367 76.6622 35.6826 75.7481 35.8093C74.834 35.9359 73.9172 36.0461 72.9921 36.1177C72.067 36.1865 71.1309 36.2168 70.181 36.1369C69.7074 36.0929 69.2284 36.0185 68.7493 35.8699C68.2785 35.7157 67.7801 35.4844 67.4112 35.0356C67.2295 34.8154 67.1001 34.5428 67.0395 34.2675C67.023 34.1986 67.0092 34.1298 67.0037 34.061C66.9954 33.9894 66.9872 33.9288 66.9899 33.849C66.9844 33.7498 66.9927 33.6617 67.0147 33.5736C67.023 33.4828 67.0725 33.4029 67.1138 33.3258C67.1689 33.2542 67.2185 33.1799 67.2928 33.1193C67.3726 33.0477 67.4222 33.0092 67.4828 32.9734C67.6012 32.8908 67.7168 32.8357 67.8297 32.7807C68.0582 32.6705 68.284 32.5907 68.507 32.5136C69.4073 32.2245 70.2829 32.0043 71.1722 31.7592C72.0587 31.5142 72.9453 31.2746 73.8346 31.0489C76.0234 30.4872 78.2233 29.9696 80.4287 29.4822C81.5328 29.24 82.6368 29.0059 83.7492 28.7939C84.0327 28.7471 84.2971 28.681 84.5972 28.6535L85.0377 28.6012C85.1836 28.5847 85.3323 28.5957 85.481 28.5902C86.0729 28.5709 86.6594 28.6755 87.2321 28.8049C88.0938 29.028 88.9033 29.3996 89.6577 29.8429C90.4121 30.289 91.1169 30.8093 91.7722 31.3765C93.091 32.5081 94.2529 33.7911 95.3405 35.121C97.5211 37.7806 99.4043 40.6385 101.395 43.367C102.171 44.4326 102.97 45.443 103.84 46.4204C104.696 47.4034 105.563 48.3725 106.447 49.3224C108.209 51.2277 110.035 53.0613 111.945 54.8124C112.361 55.2034 112.794 55.5668 113.215 55.944C113.644 56.3102 114.077 56.6791 114.514 57.0508C116.147 58.422 117.273 59.2562 118.038 59.8812C118.421 60.1951 118.716 60.4484 118.955 60.6714C119.198 60.8862 119.382 61.0734 119.545 61.2468C119.69 61.4065 119.894 61.5993 119.971 61.7039C120.101 61.8801 119.787 61.7507 119.093 61.3818C118.396 61.0156 117.345 60.3713 116.078 59.4242C114.2 58.0173 112.383 56.4782 110.624 54.8455C108.867 53.2073 107.174 51.4699 105.525 49.6776C104.704 48.7772 103.889 47.8659 103.088 46.938C102.692 46.481 102.279 46.0047 101.893 45.5146C101.502 45.0273 101.133 44.5317 100.764 44.0333C99.3024 42.04 97.9258 40.0053 96.461 38.045C95.3735 36.5885 94.2474 35.1678 93.0194 33.8572C91.7915 32.5549 90.4561 31.3407 88.9418 30.4844C88.1847 30.0659 87.3835 29.7466 86.5603 29.5979C86.15 29.5235 85.7343 29.4905 85.3185 29.5043C84.9055 29.5208 84.5035 29.5814 84.0438 29.6667C82.2569 30.0054 80.4617 30.3963 78.6776 30.7983L78.6638 30.779L78.6749 30.7846Z" fill="#231F20"/>
<path id="Vector_15" d="M101.725 56.6434C101.409 56.2221 101.092 55.8009 100.762 55.3879C100.641 55.2364 100.506 55.1015 100.385 54.9528C99.9605 54.4215 99.5337 53.8956 99.0932 53.378C98.8977 53.1494 98.683 52.9347 98.471 52.7254C98.1929 52.4611 97.9286 52.1831 97.6918 51.8747C97.6202 51.7783 97.6863 51.7288 97.824 51.7288C97.9616 51.7315 98.1791 51.7728 98.3636 51.905C98.6912 52.1335 98.9831 52.4033 99.2667 52.6814C99.5475 52.9595 99.8228 53.2486 100.073 53.5597C100.368 53.9369 100.734 54.2728 101.059 54.6362C101.414 55.0354 101.761 55.4457 102.103 55.8587L102.73 56.6213C103.044 57.0068 103.347 57.4088 103.672 57.7805C103.92 58.0751 104.214 58.3229 104.459 58.6147C104.514 58.678 104.575 58.7359 104.625 58.8019C104.812 59.0552 104.806 59.1846 104.715 59.3388C104.693 59.3746 104.677 59.4132 104.655 59.4434C104.581 59.5398 104.404 59.515 104.201 59.3856C104.052 59.2893 103.925 59.1709 103.788 59.0607C103.653 58.9479 103.52 58.8295 103.405 58.7001C103.165 58.4413 102.937 58.1714 102.708 57.8961C102.37 57.4886 102.039 57.0756 101.712 56.6571L101.725 56.6434Z" fill="#231F20"/>
<path id="Vector_16" d="M79.0353 16.517C80.0705 17.3127 81.081 18.1387 82.0749 18.9949C82.4383 19.3088 82.8155 19.6062 83.1652 19.9448C83.3194 20.0935 83.4736 20.2477 83.625 20.4129C83.6966 20.4927 83.8012 20.6249 83.8563 20.7075C83.9168 20.7983 83.9802 20.892 84.038 20.9828C84.2665 21.3435 84.4813 21.7042 84.6933 22.0676L85.9488 24.2399C86.3205 24.8815 86.7114 25.5147 87.1024 26.137C87.3557 26.5334 87.609 26.9326 87.8623 27.3319C88.1046 27.7366 88.3304 28.1524 88.5396 28.5764C88.647 28.8544 88.5451 28.8765 88.2753 28.7526C88.011 28.6259 87.6062 28.3368 87.2786 27.8991C86.2076 26.2911 85.2026 24.6474 84.2472 22.9597C83.9637 22.4531 83.6498 21.952 83.3194 21.4729C83.2781 21.4123 83.2368 21.3573 83.1955 21.2994C83.1542 21.2444 83.1101 21.1783 83.0771 21.1425C83.0193 21.0627 82.8954 20.9525 82.799 20.8589C82.5898 20.6634 82.3695 20.4707 82.1492 20.278C81.1773 19.4327 80.1504 18.626 79.1261 17.8248C78.4929 17.332 77.8569 16.8419 77.2099 16.3683C76.2297 15.6525 75.244 14.9283 74.2253 14.2951C74.0271 14.1739 73.8261 14.0556 73.6278 13.9509C73.5287 13.8959 73.4268 13.8491 73.3305 13.805C73.2809 13.7857 73.2341 13.761 73.2121 13.7582C73.1846 13.7499 73.1543 13.7417 73.1267 13.7472C72.8624 13.805 72.744 13.9399 72.7633 14.3309C72.7826 14.4933 72.8156 14.6585 72.8817 14.8237C72.9918 15.1376 73.1047 15.3276 73.1433 15.4763C73.1598 15.5533 73.1653 15.6249 73.1653 15.6855C73.1625 15.7488 73.146 15.8232 73.1378 15.881C73.1295 15.9388 73.1378 16.0021 73.135 16.0489C73.1267 16.126 73.0469 16.1425 72.8542 16.0875C72.6669 16.0379 72.4549 15.8617 72.2925 15.5836C72.1658 15.3826 72.0722 15.1624 71.9896 14.9283C71.918 14.6888 71.8382 14.4438 71.8354 14.1464C71.8354 13.8573 71.9015 13.4719 72.1989 13.1607C72.2732 13.0919 72.3558 13.0176 72.4412 12.9653C72.5265 12.924 72.6146 12.8827 72.7055 12.8496C72.7523 12.8303 72.7936 12.8193 72.8349 12.8138L72.8955 12.8028L72.9808 12.7918C73.0386 12.7835 73.0965 12.7725 73.1515 12.7698C73.2038 12.7698 73.2534 12.789 73.3057 12.789C73.4103 12.8001 73.5067 12.8441 73.6086 12.8689L73.804 12.957C73.9114 13.0121 74.0216 13.0671 74.1207 13.1222C74.3244 13.2323 74.5171 13.348 74.7099 13.4636C75.0926 13.6976 75.4643 13.9399 75.836 14.1877C76.9318 14.9228 77.9945 15.7048 79.049 16.4922L79.0353 16.5142V16.517Z" fill="#231F20"/>
<path id="Vector_17" d="M69.6414 17.6266C69.5726 17.4972 69.5258 17.354 69.4707 17.2136C69.4322 17.0787 69.3771 16.9548 69.3441 16.8199C69.2642 16.5556 69.2064 16.2857 69.1596 16.0076C69.1155 15.7296 69.0963 15.4405 69.1128 15.1321C69.1183 14.9779 69.1458 14.8182 69.1926 14.6503C69.2202 14.5649 69.2394 14.4823 69.289 14.3915L69.3551 14.2593C69.3826 14.2153 69.4184 14.163 69.4542 14.1189C69.5919 13.9289 69.7929 13.7968 70.0104 13.7197C70.2416 13.6563 70.4536 13.6453 70.6684 13.7004C70.7235 13.7169 70.7758 13.7334 70.8281 13.7527C70.8804 13.772 70.9382 13.794 70.963 13.8105L71.153 13.9124C71.2851 13.9812 71.3898 14.0501 71.5054 14.1189C71.9569 14.397 72.3754 14.6861 72.7994 14.9752C73.4134 15.4019 74.0357 15.8094 74.6386 16.2472C75.6986 17.0181 76.7504 17.8 77.7966 18.582L79.3688 19.7521L80.1562 20.3358L80.5499 20.6277C80.6848 20.7516 80.8473 20.8672 80.9574 21.0021C81.3897 21.4646 81.7173 21.9602 82.0339 22.4613C82.3506 22.9597 82.6424 23.469 82.9288 23.9729C83.6611 25.2669 84.377 26.572 84.9855 27.8688C85.0681 28.0753 85.0956 28.1854 85.0653 28.2047C85.0323 28.2267 84.9359 28.1689 84.7266 28.0753C84.3192 27.8825 83.6887 27.3759 83.2454 26.6353C82.8682 25.969 82.4965 25.3137 82.1468 24.6502C81.7916 23.9922 81.4365 23.3396 81.051 22.7257L80.7564 22.2769C80.6518 22.1392 80.5499 21.9933 80.4453 21.8611C80.3379 21.7455 80.2305 21.5968 80.1232 21.5142C80.0626 21.4646 80.0323 21.4206 79.9497 21.3628L79.7212 21.1921C79.1127 20.735 78.5125 20.2697 77.9123 19.7989C76.4778 18.6728 74.9167 17.6018 73.4024 16.5253C72.5709 15.9388 71.7312 15.3414 70.8859 14.821C70.7785 14.7522 70.6822 14.7081 70.5775 14.6475L70.539 14.6255L70.5197 14.62C70.5197 14.62 70.4949 14.609 70.4812 14.6035L70.4729 14.598H70.4674V14.5952V14.5704L70.4757 14.5154L70.4812 14.4603V14.4328L70.4839 14.419C70.5059 14.2511 70.4536 14.631 70.4591 14.5925H70.4536H70.4426H70.3931C70.2747 14.587 70.1948 14.6338 70.1315 14.7687C70.0599 14.9173 70.0241 15.1404 70.0131 15.3634C70.0021 15.5891 70.0186 15.8287 70.0517 16.0655C70.093 16.3573 70.159 16.6519 70.2471 16.9383C70.3353 17.2026 70.4757 17.4614 70.6381 17.7092C70.9657 18.2048 71.398 18.648 71.8496 19.0638C73.2427 20.322 74.8644 21.3518 76.4228 22.4476C76.7256 22.6623 77.0257 22.8798 77.3203 23.1111C77.6122 23.3451 77.904 23.5847 78.1656 23.9041C78.4106 24.2427 78.5758 24.5483 78.763 24.8732C78.9448 25.1926 79.1182 25.512 79.2917 25.8341C79.4431 26.1177 79.6 26.3903 79.7487 26.6766C80.002 27.219 80.1645 27.5769 80.2443 27.8468C80.2746 27.9872 80.2939 28.0973 80.3021 28.1964C80.3186 28.29 80.3214 28.3699 80.3186 28.4442C80.3186 28.5103 80.3269 28.5956 80.3186 28.6397C80.3021 28.714 80.2195 28.6562 80.0598 28.491C79.98 28.4057 79.8836 28.2983 79.7652 28.1716C79.6413 28.045 79.545 27.8743 79.4238 27.6898C79.0631 27.1419 78.7465 26.561 78.4271 25.9773C78.2674 25.6882 78.105 25.3991 77.9426 25.1072L77.6975 24.686C77.6562 24.6144 77.6149 24.5566 77.5736 24.4905C77.5323 24.4354 77.5075 24.3941 77.458 24.3391C77.279 24.1353 77.0367 23.9233 76.7862 23.7251C76.5329 23.5241 76.2658 23.3286 75.9905 23.1331C75.4398 22.7449 74.8699 22.3622 74.3 21.9713C73.452 21.3903 72.6012 20.7901 71.789 20.11C71.3843 19.7686 70.985 19.4107 70.6133 19.0087C70.2416 18.6067 69.892 18.1662 69.6277 17.6293L69.6442 17.6183L69.6414 17.6266Z" fill="#231F20"/>
<path id="Vector_18" d="M101.45 72.4085C100.91 71.8303 100.387 71.2356 99.8914 70.6244C99.7097 70.4014 99.5059 70.2004 99.3297 69.9719C98.702 69.1789 98.11 68.3585 97.5153 67.5462C97.2482 67.1883 96.9812 66.8276 96.7196 66.4697L96.4608 66.1283C96.3782 66.0099 96.3011 65.8915 96.224 65.7704C96.1497 65.6492 96.0671 65.5336 96.0065 65.3987C95.9487 65.2665 95.8909 65.1344 95.833 64.9995C95.7642 64.8315 95.7945 64.8398 95.9404 64.9196C96.0368 64.9692 96.1414 65.0242 96.246 65.0793C96.3094 65.1123 96.3809 65.1454 96.447 65.1894C96.5076 65.2362 96.5682 65.2885 96.626 65.3464C97.4327 66.1806 98.11 67.1057 98.7763 68.0611C99.1755 68.631 99.6739 69.1569 100.136 69.6938C100.649 70.283 101.163 70.8694 101.692 71.4394L102.185 71.9625C102.353 72.1332 102.524 72.3011 102.694 72.4663C103.215 72.9729 103.751 73.463 104.327 73.8898C104.544 74.066 104.789 74.1927 105.023 74.3358C105.255 74.4817 105.497 74.6029 105.734 74.7323C105.838 74.7874 105.94 74.8424 106.048 74.8975C106.444 75.082 106.541 75.2031 106.554 75.4234C106.557 75.4729 106.568 75.5252 106.563 75.572C106.552 75.7207 106.329 75.7675 105.979 75.6712C105.852 75.6326 105.717 75.6023 105.596 75.5528L105.227 75.3986C104.979 75.2912 104.723 75.1866 104.503 75.0324C104.035 74.7516 103.611 74.4129 103.184 74.0715C102.884 73.8044 102.576 73.5429 102.287 73.2648C102.003 72.9812 101.706 72.7086 101.433 72.4168L101.447 72.4003L101.45 72.4085Z" fill="#231F20"/>
<path id="Vector_19" d="M103.633 61.4588C102.518 62.4225 101.331 63.309 100.021 64.0166C99.5417 64.2699 99.0599 64.5342 98.5313 64.7132C98.0687 64.8729 97.5924 65.0078 97.0858 65.0574C96.9619 65.0766 96.8352 65.0821 96.7058 65.0849L96.5131 65.0904H96.4636L96.3947 65.0849L96.2598 65.0684C96.0781 65.0271 95.8936 64.9472 95.7587 64.8206C95.6211 64.6994 95.5247 64.5535 95.4586 64.4131C95.2136 63.8404 95.2659 63.3173 95.3402 62.8272C95.4256 62.3371 95.5632 61.8718 95.7449 61.4285C96.0616 60.6383 96.4691 59.895 96.9206 59.2011C97.2124 58.7551 97.5291 58.3256 97.876 57.9181C98.0467 57.7144 98.2312 57.5216 98.4156 57.3289C98.6029 57.1389 98.8149 56.9765 99.0214 56.8113C99.2857 56.6103 99.2994 56.6901 99.1865 56.9655C99.1287 57.1031 99.0434 57.2904 98.9443 57.5161C98.8341 57.7309 98.6882 57.9622 98.512 58.1989C97.887 59.0304 97.3363 59.9087 96.9013 60.8283C96.6838 61.2881 96.5049 61.7617 96.3617 62.2352C96.2185 62.7061 96.1277 63.1989 96.1442 63.6367C96.1469 63.8955 96.235 64.1323 96.3231 64.1928C96.3452 64.2093 96.3672 64.2231 96.3947 64.2286C96.4057 64.2369 96.425 64.2341 96.4415 64.2369C96.4525 64.2424 96.4883 64.2396 96.5269 64.2369C96.6728 64.2259 96.8187 64.2314 96.9702 64.2011C97.5676 64.1185 98.1651 63.9065 98.7433 63.6559C100.013 63.0915 101.207 62.2903 102.306 61.3845C102.983 60.8256 103.633 60.2281 104.242 59.5949C105.164 58.634 106.034 57.6015 106.753 56.4947C107.311 55.6329 107.738 54.716 108.08 53.7827C108.146 53.5762 108.209 53.3724 108.272 53.1632C108.388 52.775 108.462 52.5272 108.572 52.3592C108.669 52.1913 108.776 52.1004 108.911 52.0316C108.972 52.0013 109.03 51.9545 109.082 51.938C109.167 51.9104 109.228 51.982 109.286 52.1555C109.352 52.3289 109.371 52.596 109.327 52.9237C109.153 53.8901 108.779 54.8179 108.322 55.7017C107.862 56.5855 107.298 57.4225 106.689 58.2155C105.781 59.3966 104.748 60.4759 103.641 61.4698L103.625 61.4533L103.633 61.4588Z" fill="#231F20"/>
</g>
<g id="Group_3">
<path id="Vector_20" opacity="0.25" d="M36.8226 76.6102C26.9576 77.2875 27.5798 67.5767 28.5792 67.4418C28.5792 67.4418 21.1096 68.3311 21.0766 67.9649C21.0435 67.5987 21.4648 75.3189 21.4648 75.3189C21.4648 75.3189 26.038 76.4092 28.4581 76.7368C31.6189 77.1664 36.8226 76.6102 36.8226 76.6102Z" fill="#231F20"/>
<path id="Vector_21" d="M30.4677 67.0095C29.6996 67.2215 28.9287 67.4252 28.1467 67.5849C27.8631 67.651 27.5796 67.7143 27.2905 67.7611C26.28 67.9373 25.2558 68.053 24.2288 68.0805C24.003 68.0943 23.7745 68.0998 23.546 68.0998C23.3175 68.0998 23.0917 68.1108 22.8659 68.108C22.5768 68.097 22.285 68.0998 21.9931 68.075C21.8472 68.0585 21.7041 68.0364 21.5609 68.0144C21.4177 67.9951 21.2773 67.9401 21.1369 67.9043C20.9634 67.8492 20.991 67.8327 21.1479 67.7886C21.2498 67.7583 21.3626 67.7226 21.4728 67.6895C21.6049 67.6565 21.7591 67.651 21.9216 67.6565C22.2107 67.6565 22.4998 67.662 22.7888 67.6813C23.0779 67.6978 23.367 67.6813 23.6589 67.6895C24.2398 67.684 24.8208 67.6647 25.4072 67.6207C26.1093 67.5794 26.8307 67.4335 27.5355 67.2985C27.9237 67.2242 28.3119 67.1361 28.6974 67.048C29.0828 66.9489 29.4711 66.8635 29.851 66.7534C30.3246 66.6268 30.7926 66.4891 31.2607 66.3404C31.9683 66.1174 32.6759 65.8806 33.3642 65.6246C33.8956 65.4153 34.4215 65.2116 34.9473 65.0051C35.063 64.961 35.1786 64.917 35.2942 64.8702C35.732 64.7077 35.8807 64.6802 35.9991 64.7132C36.0266 64.7215 36.0597 64.7242 36.0789 64.7352C36.1395 64.771 35.9826 64.8839 35.6742 65.0354C35.2172 65.2584 34.7436 65.4814 34.2618 65.7016C33.7772 65.9192 33.2706 66.0954 32.764 66.2798C32.0096 66.5497 31.2414 66.792 30.4705 67.0205V67.0095H30.4677Z" fill="#231F20"/>
<path id="Vector_22" opacity="0.35" d="M31.7206 61.5499C25.0054 60.3357 34.5565 56.7839 37.1363 56.7839C37.1363 56.7839 25.578 56.8583 22.0483 61.4094C22.0483 61.4094 28.7498 61.9078 31.7234 61.5499H31.7206Z" fill="#231F20"/>
<path id="Vector_23" d="M58.4111 61.134C57.4364 58.7029 53.2597 56.7508 51.1011 56.0212C48.9398 55.2943 41.104 53.2321 34.2896 53.8351C27.5496 54.4325 20.9747 56.4672 18.3426 57.7447C15.7132 59.0223 14.711 60.2695 14.711 60.2695C12.4781 61.6764 12.8581 66.5552 25.6058 66.9434C25.6058 66.9434 30.8865 67.026 34.5457 65.7045C38.2048 64.3829 43.0588 63.7744 45.2945 63.7111C47.5274 63.6505 52.4447 64.3967 55.9717 62.8493C57.4474 62.2023 58.8186 62.15 58.4111 61.134ZM40.3826 59.9033C36.8832 60.6081 31.4179 61.6792 29.3337 61.8554C27.2467 62.0316 24.2209 61.9875 23.5298 61.7177C22.8387 61.4479 22.6184 60.6192 22.6184 60.6192C22.6184 60.6192 26.8227 57.4116 33.0947 56.9903C39.3667 56.5663 41.2774 56.715 44.8071 57.6952C48.3396 58.6781 48.8489 59.5646 48.8489 59.5646C48.8489 59.5646 43.882 59.1985 40.3826 59.9033Z" fill="#231F20"/>
<path id="Vector_24" d="M22.5523 75.2556C22.5523 75.2556 23.1249 79.4406 22.9295 87.0534C22.7918 92.4581 22.5743 95.9493 21.7841 99.3799C21.1371 102.191 35.7102 103.273 36.9464 103.237C38.1826 103.201 49.9942 101.453 52.5052 99.3276C52.5052 99.3276 50.0603 73.466 50.4155 71.4148C50.4155 71.4148 46.1203 75.4126 41.3379 76.2909C36.5582 77.1691 33.1992 77.3399 30.6194 77.0893C28.0395 76.8388 22.5495 75.2529 22.5495 75.2529L22.5523 75.2556Z" fill="#231F20"/>
<path id="Vector_25" d="M39.8237 76.646C38.2736 76.9103 36.7097 77.081 35.1431 77.1718L34.2868 77.2242C34.0005 77.2379 33.7169 77.2489 33.4306 77.2544C32.4229 77.2654 31.4152 77.2462 30.4102 77.1746C29.9064 77.1498 29.4053 77.092 28.9042 77.0479C28.4058 76.9819 27.9047 76.9351 27.4064 76.8497C26.5226 76.7231 25.6388 76.5524 24.7743 76.3624L23.9428 76.1531L23.1223 75.9026C22.8497 75.8117 22.5827 75.7098 22.3211 75.597C22.0568 75.4841 21.809 75.3354 21.5557 75.2032C21.2446 75.0298 21.3189 74.9885 21.6328 75.0078C21.7897 75.016 22.01 75.0408 22.266 75.0738C22.3954 75.0904 22.5386 75.0986 22.6818 75.1262C22.8249 75.1564 22.9736 75.1977 23.1251 75.2473C23.6674 75.407 24.2153 75.5502 24.766 75.6741C25.0386 75.7484 25.3194 75.7979 25.5947 75.8613C25.8701 75.9246 26.1509 75.9769 26.4317 76.0237C27.5496 76.2247 28.6839 76.3789 29.8293 76.4835C31.2004 76.6157 32.6404 76.5771 34.0473 76.5083C35.5974 76.4367 37.1448 76.2798 38.6783 76.0347C39.6227 75.8888 40.5588 75.6961 41.4894 75.4786C42.8936 75.1372 44.2923 74.7187 45.6083 74.157C46.6298 73.7165 47.5797 73.1713 48.4525 72.5381C48.6507 72.4059 48.8187 72.2435 49.0141 72.1086C49.1959 71.9847 49.3308 71.8635 49.4547 71.7754C49.5758 71.6845 49.6859 71.6212 49.7713 71.5634C49.9447 71.4533 50.0797 71.423 50.2311 71.434C50.2999 71.4395 50.377 71.4313 50.4321 71.445C50.5257 71.4698 50.5312 71.5717 50.4596 71.7424C50.388 71.9103 50.2366 72.1526 49.986 72.3977C49.2674 73.1658 48.3589 73.7468 47.4227 74.2506C46.4784 74.7517 45.4762 75.1564 44.4602 75.5034C42.9459 76.0072 41.3903 76.3761 39.8264 76.6597L39.8209 76.6405L39.8237 76.646Z" fill="#231F20"/>
<path id="Vector_26" d="M24.3447 101.871C24.8871 101.984 25.4268 102.105 25.9747 102.196C26.5198 102.295 27.0677 102.392 27.6184 102.466C28.0203 102.524 28.4223 102.574 28.8243 102.618C30.2395 102.813 31.6629 102.948 33.0919 103.033C33.7251 103.064 34.3639 103.08 34.9916 103.069C35.8011 103.077 36.6051 102.967 37.42 103.061C37.6788 103.138 37.6431 103.097 37.4366 103.204C37.2328 103.331 36.8419 103.496 36.371 103.532C34.6998 103.617 33.0313 103.556 31.3601 103.386C30.8617 103.328 30.3524 103.287 29.8375 103.243C29.3254 103.19 28.8105 103.143 28.3012 103.08C27.7423 102.998 27.1833 102.926 26.6272 102.835C26.071 102.733 25.5121 102.653 24.9614 102.535L23.94 102.326C23.5986 102.254 23.2627 102.166 22.9268 102.086C22.4119 101.973 21.9053 101.825 21.3987 101.681C20.8893 101.549 20.3938 101.37 19.8954 101.213C19.5044 101.101 19.1328 100.944 18.75 100.811C18.3673 100.688 18.0039 100.509 17.6377 100.335C17.478 100.258 17.3156 100.189 17.1559 100.104C16.5832 99.7514 16.4373 99.5835 16.3712 99.4293C16.3574 99.3935 16.3327 99.3522 16.3299 99.3247C16.3189 99.2338 16.5887 99.3137 17.0182 99.5119C17.1779 99.589 17.3238 99.6798 17.4918 99.7459C17.657 99.812 17.8222 99.8808 17.9901 99.9469C18.1553 100.016 18.3205 100.085 18.4885 100.153C18.6592 100.214 18.8326 100.269 19.0033 100.335C19.6807 100.608 20.3938 100.822 21.1041 101.051C22.1724 101.354 23.2517 101.64 24.3475 101.86V101.874L24.3447 101.871Z" fill="#231F20"/>
<path id="Vector_27" d="M34.1956 103.38C32.1224 103.793 12.2988 101.288 15.1897 98.2261C16.1561 97.2047 20.5366 96.7394 20.5366 96.7256L20.3411 99.6551L24.8785 101.494L34.1956 103.383V103.38Z" fill="#231F20"/>
<path id="Vector_28" d="M32.6732 60.8008C34.0691 60.5888 35.4678 60.352 36.8664 60.1043C37.3758 60.0134 37.8824 59.9005 38.3945 59.8152C40.1979 59.5123 42.0151 59.248 43.846 59.0663C44.6582 58.9864 45.4787 58.9093 46.2964 58.8983C46.8195 58.8873 47.3537 58.8873 47.8961 58.9754C48.1659 59.0167 48.4357 59.0938 48.689 59.2122C48.8157 59.27 48.9396 59.3333 49.058 59.4049C49.1764 59.4793 49.27 59.5894 49.3718 59.6775C49.6141 59.9198 49.537 59.9253 49.2507 59.873C48.9368 59.8454 48.4522 59.8399 47.9346 59.7739C47.4693 59.6995 46.971 59.6968 46.4589 59.716C45.9495 59.7353 45.4374 59.7711 44.9225 59.8069C43.8901 59.8812 42.8493 59.9969 41.7976 60.1125C40.5393 60.2529 39.248 60.5365 37.9705 60.765C36.5636 61.0183 35.1539 61.2716 33.7387 61.5057C32.8687 61.6516 31.9931 61.7837 31.1203 61.9076C29.7933 62.0921 28.4524 62.238 27.1171 62.3014C26.0791 62.3482 25.0466 62.3922 23.9893 62.2243C23.7581 62.1802 23.5268 62.1389 23.2928 62.0701C22.4255 61.792 22.2135 61.4809 22.219 61.1835C22.2162 61.1202 22.1997 61.0541 22.2052 61.0101C22.2162 60.9357 22.3098 60.9302 22.4805 60.933C22.5714 60.9275 22.6568 60.955 22.7586 60.9881C22.8688 61.0073 22.9844 61.0514 23.1083 61.1009C23.882 61.3653 24.7685 61.4396 25.6716 61.4589C26.5774 61.4754 27.5135 61.4203 28.4552 61.335C29.8511 61.2083 31.2635 61.0101 32.6677 60.7788L32.6732 60.8008Z" fill="#231F20"/>
<path id="Vector_29" d="M32.2382 56.594C33.736 56.3434 35.2503 56.1837 36.7673 56.1424C37.0454 56.1314 37.3207 56.1204 37.5988 56.1149C37.8769 56.1066 38.1522 56.1011 38.4303 56.1121C40.3824 56.1617 42.329 56.4012 44.2232 56.861C45.063 57.0648 45.9055 57.296 46.7177 57.5879C47.2381 57.7779 47.7584 57.9871 48.2568 58.2597C48.7414 58.5405 49.2342 58.8819 49.5343 59.4188C49.5949 59.6088 49.5976 59.6941 49.5701 59.7052C49.5398 59.7189 49.4655 59.6583 49.3168 59.6005C49.2287 59.5813 49.1571 59.54 49.058 59.5097C48.9561 59.4794 48.8597 59.4381 48.7358 59.4078C48.5128 59.3307 48.2595 59.2316 48.0007 59.1022C47.0949 58.5983 46.0762 58.2266 45.0409 57.921C44.003 57.6182 42.9319 57.3869 41.8471 57.1942C40.5448 56.9739 39.1627 56.9409 37.8108 56.9574C36.3241 56.9739 34.8318 57.0758 33.3533 57.2878C32.4419 57.4089 31.5361 57.5796 30.6385 57.7806C29.2784 58.0697 27.9431 58.4992 26.649 58.9976C25.6468 59.3913 24.6914 59.8538 23.7746 60.3659C23.5736 60.4788 23.3836 60.6 23.1909 60.7211C22.8357 60.9469 22.6155 61.0928 22.464 61.1671C22.3126 61.2525 22.2383 61.2525 22.1281 61.291C22.0731 61.3103 22.0455 61.3681 22.0208 61.4177C21.9987 61.459 21.9685 61.4783 21.9134 61.4452C21.8886 61.4287 21.8501 61.3957 21.8308 61.3461C21.8143 61.3021 21.7922 61.2139 21.8033 61.1561C21.8335 60.8698 22.029 60.6082 22.2878 60.3715C23.0973 59.7162 23.9921 59.2701 24.9117 58.8351C25.8341 58.4111 26.7894 58.0394 27.7641 57.7035C28.4855 57.4585 29.2289 57.2272 29.9805 57.0537C30.3549 56.9656 30.7266 56.8748 31.1038 56.8004C31.4783 56.7178 31.8555 56.6463 32.2327 56.5802L32.2382 56.6022V56.594Z" fill="#231F20"/>
<path id="Vector_30" d="M32.0674 54.6281C30.8394 54.785 29.595 55.0631 28.367 55.3522C27.1363 55.6468 25.9111 55.9772 24.6969 56.3406C22.2712 57.073 19.8731 57.9155 17.6099 59.0141C16.7867 59.416 15.9855 59.8621 15.2338 60.3632C14.4877 60.8698 13.7884 61.4424 13.2515 62.106C13.012 62.3951 12.855 62.6732 12.8027 62.976C12.7531 63.2734 12.811 63.5762 12.9624 63.8681C13.268 64.46 13.8792 64.9584 14.5345 65.3163C15.2201 65.677 15.9497 65.9798 16.7069 66.1974C17.464 66.4176 18.2542 66.5498 19.0471 66.6434C20.6385 66.8251 22.2657 66.7811 23.8929 66.6874C24.7079 66.6406 25.5256 66.5773 26.3433 66.5195C27.15 66.4534 27.9595 66.3736 28.7635 66.2497C31.6241 65.8367 34.4572 65.0878 37.2876 64.4683C39.1075 64.0691 40.9522 63.7084 42.8245 63.5267C44.6912 63.3532 46.5689 63.2624 48.4329 63.4221C49.0138 63.5404 49.2616 63.6065 49.2424 63.6286C49.2258 63.6533 48.9395 63.6588 48.4494 63.7745C47.4692 63.981 45.6851 64.2288 43.5871 64.438C41.7259 64.6307 39.8867 64.9171 38.0448 65.3163C36.2028 65.7018 34.3609 66.1533 32.4914 66.547C30.6219 66.9435 28.7222 67.2877 26.7866 67.4473C24.8813 67.5905 22.9706 67.7475 21.0185 67.7089C19.8539 67.6814 18.6672 67.5878 17.4888 67.3565C16.3131 67.1197 15.1347 66.759 14.0499 66.1533C13.4993 65.8422 12.9872 65.4512 12.5577 64.9446C12.3457 64.6886 12.1612 64.3967 12.029 64.0691C11.8941 63.7414 11.8418 63.3642 11.8748 63.0008C11.8996 62.6291 12.0483 62.2932 12.2163 61.9931C12.4007 61.693 12.6045 61.4645 12.8137 61.2277C13.2377 60.7679 13.7168 60.3879 14.2014 60.0273C15.2779 59.2536 16.4315 58.6286 17.6072 58.0697C18.7856 57.5135 19.9888 57.0317 21.2057 56.5884C23.6424 55.7101 26.1286 54.9888 28.6451 54.4023C29.4215 54.2233 30.2007 54.0582 30.9881 53.9177C31.7811 53.7773 32.574 53.6975 33.3669 53.6094C34.9528 53.4469 36.547 53.3671 38.1384 53.3726C39.3443 53.3808 40.553 53.4304 41.7562 53.5323C42.9594 53.6369 44.1598 53.7938 45.3492 54.0031C47.7281 54.4188 50.0711 55.0438 52.3013 55.9359C53.1685 56.2828 54.0165 56.6738 54.837 57.1115C55.6575 57.5521 56.456 58.0421 57.1828 58.6451C57.5518 58.9425 57.8932 59.2784 58.2015 59.6638C58.3557 59.8566 58.4934 60.0658 58.6145 60.3026C58.7302 60.5421 58.8155 60.8119 58.8293 61.1065C58.8431 61.3984 58.7742 61.704 58.6393 61.9628C58.5044 62.2216 58.3172 62.4336 58.1162 62.6098C57.7115 62.9595 57.2572 63.177 56.8029 63.3532C55.9989 63.6588 55.2005 63.8295 54.3772 63.9507C51.3183 64.3251 50.3492 64.0608 49.7049 63.8213C49.559 63.7607 49.3663 63.7001 49.2809 63.6423C49.1405 63.5459 49.3773 63.4689 49.9197 63.3918C50.4648 63.3092 51.3128 63.2266 52.3949 63.1522C53.1961 63.0889 53.9973 62.9953 54.782 62.8466C55.5611 62.6979 56.3403 62.4887 56.9818 62.15C57.3012 61.9848 57.571 61.7701 57.7087 61.5553C57.8464 61.3406 57.8656 61.1423 57.7803 60.8725C57.6949 60.611 57.4719 60.2943 57.2269 60.019C56.9846 59.7327 56.6845 59.4711 56.3789 59.2178C55.1234 58.2156 53.6201 57.4337 52.0645 56.8032C50.5061 56.1727 48.8762 55.6716 47.2187 55.2916C42.2903 54.16 37.1142 53.9921 32.0702 54.6529L32.0619 54.6308L32.0674 54.6281Z" fill="#231F20"/>
<path id="Vector_31" d="M27.376 101.753C29.8319 102.373 32.3704 102.686 34.9145 102.761C36.1865 102.805 37.464 102.775 38.736 102.703C40.008 102.629 41.2801 102.505 42.5438 102.32C44.3885 102.059 46.2112 101.654 47.9898 101.136C48.7635 100.916 49.5261 100.655 50.2668 100.36C50.6385 100.214 51.0019 100.052 51.3516 99.8754C51.525 99.7845 51.7012 99.6992 51.8609 99.5945C51.9435 99.545 52.0261 99.4982 52.106 99.4459L52.2601 99.333C52.2822 99.322 52.2987 99.3055 52.2987 99.2779C52.3014 99.2504 52.3014 99.2394 52.3014 99.1981C52.3014 99.0604 52.2904 98.9062 52.2794 98.7575C52.2574 98.4547 52.2271 98.1463 52.1941 97.8379C52.1307 97.2212 52.0564 96.6045 51.9821 95.985L51.525 92.2708C51.2222 89.7929 50.9386 87.3094 50.688 84.8232C50.3989 81.8937 50.1346 78.9449 49.9501 76.0265C49.8317 74.1515 49.7602 72.2682 49.7436 70.385C49.7271 68.5017 49.7822 66.6102 50.1043 64.749C50.1952 64.1681 50.2502 63.9203 50.2723 63.9368C50.297 63.9561 50.297 64.2424 50.3328 64.7408C50.3631 65.2364 50.476 65.9439 50.5476 66.792C50.5861 67.216 50.644 67.6758 50.6715 68.1603C50.6935 68.6477 50.7073 69.1625 50.7155 69.6994C50.7431 71.5992 50.8312 73.5017 50.9413 75.4015C51.0377 77.304 51.1671 79.2065 51.3185 81.1118C51.6296 84.9196 52.0041 88.7356 52.4226 92.5682C52.5547 93.7218 52.6869 94.8892 52.8191 96.0621C52.8851 96.6513 52.9512 97.2432 53.0173 97.8352C53.0476 98.1325 53.0751 98.4327 53.0971 98.7383C53.1081 98.8925 53.1164 99.0411 53.1192 99.2146C53.1137 99.3357 53.1137 99.4651 53.0861 99.5808C53.0668 99.6358 53.0393 99.6909 53.0063 99.7405C52.9925 99.801 52.9319 99.8313 52.8989 99.8781L52.6373 100.068C52.574 100.118 52.5079 100.162 52.4391 100.2C52.3069 100.28 52.1748 100.365 52.0399 100.44C51.7701 100.583 51.4975 100.726 51.2194 100.845C50.6687 101.101 50.1071 101.307 49.5426 101.508C48.411 101.896 47.2629 102.21 46.1066 102.466C43.5488 103.033 40.9497 103.378 38.3396 103.512C37.0345 103.573 35.7239 103.581 34.4189 103.532C33.1111 103.482 31.8088 103.358 30.512 103.177C27.3292 102.717 24.1712 101.822 21.3298 100.264C21.1563 100.17 20.9911 100.065 20.8232 99.969L20.2615 99.6358L20.1514 99.545L20.1238 99.523C20.1404 99.5009 20.1156 99.4982 20.1156 99.4872C20.1046 99.4651 20.0936 99.4459 20.0853 99.4238C20.055 99.333 20.055 99.2284 20.0578 99.1265C20.0578 99.0108 20.0633 98.953 20.066 98.8787L20.0798 98.6667L20.1486 97.8297L20.3056 96.164C20.4047 95.0544 20.5066 93.9476 20.6057 92.838C20.7929 90.6216 20.9443 88.408 21.049 86.2053C21.2252 82.4802 21.2417 78.8265 21.1178 75.1482C21.0903 74.3387 21.049 73.5458 21.0104 72.7308C20.9361 71.2192 20.8755 70.2225 20.87 69.5205C20.8755 69.168 20.8838 68.89 20.903 68.6587C20.9251 68.4274 20.9581 68.2402 20.9911 68.075C21.0214 67.9236 21.0434 67.7253 21.0682 67.6372C21.1123 67.4858 21.1839 67.7171 21.316 68.2595C21.4482 68.8019 21.5858 69.6636 21.6684 70.776C22.1943 77.3811 22.0291 84.3799 21.5115 91.3595C21.4096 92.7279 21.294 94.0935 21.1673 95.4619L20.9774 97.5103L20.8893 98.529C20.8755 98.697 20.8645 98.8649 20.8562 99.0246V99.0521C20.8562 99.0521 20.8562 99.0549 20.8562 99.0576L21.5087 99.4431C21.7648 99.5973 22.0374 99.7212 22.3017 99.8616L22.7009 100.068L23.1112 100.253C23.3865 100.371 23.6563 100.503 23.9371 100.613C25.0495 101.068 26.2031 101.425 27.3677 101.731V101.753H27.376Z" fill="#231F20"/>
<path id="Vector_32" d="M44.804 68.7413C44.8205 68.6009 44.8343 68.4577 44.8425 68.3173C44.8453 68.265 44.8425 68.2155 44.8425 68.1631C44.8591 67.9814 44.8756 67.797 44.8783 67.6125C44.8783 67.5299 44.8701 67.45 44.8646 67.3702C44.8563 67.2683 44.848 67.1637 44.8646 67.0591C44.8701 67.026 44.9086 67.026 44.9554 67.0481C44.9995 67.0701 45.06 67.1141 45.0821 67.172C45.1619 67.3785 45.1757 67.5932 45.1647 67.8107C45.1564 67.9401 45.1839 68.0723 45.1922 68.2044C45.2005 68.3504 45.1922 68.4935 45.1922 68.6395C45.1922 68.7276 45.1867 68.8184 45.1839 68.9065C45.1812 69.0414 45.1729 69.1764 45.1729 69.3113C45.1729 69.4159 45.2032 69.5178 45.2032 69.6224C45.2032 69.6444 45.2087 69.6664 45.206 69.6912C45.2005 69.7766 45.1702 69.8013 45.0821 69.8151C45.0628 69.8179 45.0408 69.8234 45.0215 69.8234C44.9554 69.8289 44.9004 69.7931 44.8728 69.7298C44.7847 69.5453 44.7654 69.3581 44.7627 69.1653C44.771 69.0249 44.782 68.8818 44.7902 68.7413H44.8012H44.804Z" fill="#231F20"/>
<path id="Vector_33" d="M42.1694 69.4241C42.1831 69.2617 42.1941 69.0965 42.1969 68.9341C42.1969 68.8735 42.1859 68.8157 42.1859 68.7579C42.1941 68.5459 42.2024 68.3338 42.1941 68.1246C42.1941 68.031 42.1694 67.9401 42.1584 67.8465C42.1391 67.7309 42.1033 67.6152 42.1281 67.4886C42.1363 67.45 42.2162 67.439 42.307 67.4556C42.3951 67.4721 42.497 67.5134 42.5218 67.5795C42.6126 67.8162 42.6429 68.064 42.6237 68.3173C42.6126 68.4688 42.6567 68.6202 42.6677 68.7716C42.6815 68.9396 42.687 69.1075 42.6897 69.2755C42.6897 69.3801 42.6925 69.482 42.6952 69.5866C42.6952 69.7435 42.687 69.9005 42.7035 70.0547C42.72 70.1675 42.7365 70.2914 42.7531 70.4098C42.7558 70.4374 42.7613 70.4621 42.7613 70.4869C42.7613 70.586 42.7255 70.6163 42.6126 70.6383C42.5879 70.6439 42.5603 70.6494 42.5356 70.6521C42.4502 70.6631 42.3759 70.6218 42.3373 70.553C42.2299 70.3465 42.1501 70.1317 42.1556 69.9142C42.1473 69.7518 42.1473 69.5893 42.1528 69.4241H42.1666H42.1694Z" fill="#231F20"/>
</g>
</g>
</svg>
