<svg width="120" height="92" viewBox="0 0 120 92" fill="none" xmlns="http://www.w3.org/2000/svg">
<g id="illustration">
<path id="Vector" d="M41.0694 61.9124C40.3598 60.1787 39.4431 58.5141 38.373 56.9491C37.9933 56.3661 37.533 55.8483 37.1226 55.2883C36.3785 54.3333 35.55 53.4434 34.6256 52.6648C33.7012 51.89 32.6771 51.2264 31.5533 50.8007C30.5561 50.4286 29.4821 50.2714 28.435 50.3673C27.0849 50.4862 25.7999 51.0538 24.6493 51.8171C24.281 52.0434 24.2619 51.9399 24.4997 51.633C24.6186 51.4796 24.7988 51.2725 25.0367 51.0347C25.2821 50.8122 25.6082 50.5974 25.9725 50.3749C27.2997 49.6577 28.9068 49.3662 30.4333 49.6117C31.9637 49.8648 33.3675 50.5552 34.5642 51.4566C35.293 51.9859 35.9719 52.5881 36.6431 53.2094C37.2913 53.8462 37.9242 54.5212 38.4727 55.2308C39.7078 56.7765 40.7971 58.4412 41.7023 60.2055C42.2699 61.2872 42.7302 62.4225 43.1444 63.5732C43.7505 65.326 44.0995 67.1748 44.2261 69.0159C44.3066 70.4504 44.3105 71.8696 44.1072 73.3002C44.0458 73.6109 43.9768 73.9139 43.8962 74.2246C43.7581 74.8038 43.5664 75.1528 43.4129 75.3868C43.3286 75.5019 43.248 75.5862 43.1598 75.6476C43.0677 75.709 42.9757 75.7473 42.8836 75.7742C42.7992 75.801 42.7149 75.847 42.6497 75.8547C42.5384 75.8701 42.4886 75.7512 42.4349 75.5134C42.3735 75.2717 42.4003 74.9495 42.4809 74.5545C42.6381 73.3654 42.8299 72.1841 42.8453 70.9644C42.8913 70.3583 42.8299 69.7446 42.8261 69.1309C42.7494 68.5173 42.7302 67.8997 42.6036 67.2899L42.4886 66.6071C42.4464 66.3808 42.385 66.1545 42.3313 65.9282L42.174 65.2493L41.9784 64.5781L41.7866 63.9031L41.5527 63.2395C41.4721 63.017 41.3993 62.7946 41.3149 62.5759L41.0387 61.9239L41.0694 61.9085V61.9124Z" fill="#231F20"/>
<path id="Vector_2" d="M39.7274 65.4028L40.3948 64.9809L41.1044 64.6203L41.4572 64.4439C41.5761 64.3864 41.7027 64.3442 41.8254 64.2982L42.5657 64.0143C42.9301 63.8954 43.2983 63.7688 43.6704 63.6691C45.0128 63.3853 46.3936 63.462 47.6977 63.7151L48.5492 63.9491C48.6911 63.9913 48.833 64.0181 48.9711 64.0642L49.3777 64.2253L49.8993 64.4247C50.0719 64.4899 50.2484 64.5513 50.4056 64.651C50.7278 64.8313 51.0423 65.0307 51.3377 65.2494C51.5218 65.3875 51.4067 65.5179 51.1459 65.5946C50.8889 65.6713 50.4824 65.725 50.1103 65.6022C49.7919 65.468 49.4391 65.4258 49.1131 65.3414L48.6183 65.2225L48.1158 65.1612C47.4599 65.0461 46.8117 64.9195 46.1328 64.8466C45.7301 64.8313 45.3081 64.8121 44.9016 64.908L44.284 65.0192C44.0808 65.0614 43.8813 65.1381 43.678 65.188C42.7805 65.4066 41.9328 65.8132 41.1082 66.2696L40.3756 66.7452C40.1263 66.8987 39.9115 67.102 39.6813 67.2822C38.9909 67.8384 38.3581 68.4866 37.8173 69.1885C37.6216 69.4724 37.4452 69.7677 37.2726 70.0592C37.1038 70.3545 36.9773 70.6729 36.82 70.9721C36.7548 71.1063 36.6973 71.2406 36.6397 71.3786C36.4058 71.8811 36.237 71.9923 35.8419 71.9463C35.7537 71.9348 35.6578 71.9348 35.5734 71.9156C35.2858 71.8504 35.1784 71.5359 35.2934 71.0948C35.6425 69.8022 36.329 68.5173 37.2995 67.474C37.4644 67.2669 37.6677 67.0904 37.8518 66.9025C38.0436 66.7184 38.2238 66.5228 38.4309 66.354C38.849 66.0203 39.2403 65.6636 39.6967 65.376L39.7197 65.4066L39.7274 65.4028Z" fill="#231F20"/>
<path id="Vector_3" opacity="0.1" d="M62.3265 5.84386C62.3265 5.84386 60.5008 18.4553 61.8854 19.092C63.2701 19.7287 77.6727 19.7555 82.0798 31.4847C86.4868 43.214 84.0512 53.8232 80.4726 57.5936C76.894 61.3639 69.4415 64.4708 68.6591 66.7453C68.6591 66.7453 74.5582 92.3977 78.7083 90.4262C82.8545 88.4508 117.973 73.4575 117.824 68.805C117.674 64.1524 107.452 46.7427 107.452 46.7427C107.452 46.7427 107.111 43.6665 103.762 45.6534C100.414 47.6402 96.049 51.0117 97.541 46.3054C97.541 46.3054 100.97 42.2627 100.007 42.5235C99.0445 42.7844 92.8693 46.689 92.3476 44.0885C91.826 41.4879 94.5569 40.9279 94.5569 40.9279C94.5569 40.9279 89.2255 42.5312 88.6463 39.7696C88.0671 37.008 90.38 36.2639 90.38 36.2639C90.38 36.2639 87.9405 36.1028 89.5937 33.882C91.2468 31.6612 100.053 30.2612 100.053 30.2612C100.053 30.2612 87.1082 3.08224 86.8052 1.73211C86.5022 0.381989 82.8277 1.11459 78.7045 1.73211C74.5812 2.34964 62.3227 5.84003 62.3227 5.84003L62.3265 5.84386Z" fill="#231F20"/>
<path id="Vector_4" d="M107.806 73.4002C107.963 71.8813 107.802 70.2742 107.395 68.7629C107.188 68.0073 106.916 67.2709 106.563 66.5958C106.206 65.9323 105.769 65.2956 105.224 64.889C105.125 64.8161 105.029 64.7356 104.921 64.6857C104.818 64.6243 104.714 64.5668 104.607 64.5323L104.446 64.4671L104.281 64.4326C104.223 64.4211 104.173 64.4019 104.112 64.398L103.92 64.3865C103.41 64.3328 102.892 64.4249 102.374 64.5515C101.462 64.8085 100.583 65.3186 99.7778 65.9438C98.9685 66.569 98.2282 67.3016 97.5302 68.084C96.1417 69.6566 94.9411 71.4172 93.8518 73.2429C92.8814 74.8615 92.0338 76.5645 91.236 78.2637C90.2003 80.4461 89.3297 82.7015 88.3746 84.9261C88.0908 85.6242 88.1215 85.5321 88.248 84.8992C88.3132 84.5617 88.4053 84.1129 88.5089 83.5875C88.5664 83.3151 88.6163 83.016 88.7006 82.7091C88.785 82.4023 88.8886 82.0801 89.0036 81.7464C89.8206 79.3952 90.745 77.0746 91.888 74.8538C93.0233 72.6254 94.3044 70.4544 95.8655 68.4484C96.8091 67.2594 97.8178 66.0627 99.049 65.0386C99.6589 64.5208 100.33 64.0528 101.078 63.6923C101.822 63.3356 102.654 63.0671 103.525 63.0518C103.763 63.0518 104.001 63.0748 104.239 63.0901C104.357 63.0978 104.488 63.1361 104.611 63.1592C104.737 63.1822 104.86 63.2167 104.979 63.2665C105.466 63.4276 105.876 63.7153 106.245 64.0183C106.958 64.6512 107.476 65.4145 107.871 66.2084C108.657 67.804 109.064 69.5147 109.217 71.2484C109.309 72.3147 109.279 73.3963 109.083 74.4741C108.976 75.0111 108.822 75.5481 108.592 76.0659C108.362 76.5837 108.024 77.0823 107.553 77.4735C107.468 77.5541 107.372 77.6155 107.273 77.6768C107.173 77.7382 107.039 77.8341 106.908 77.8724L106.513 78.0182C106.448 78.0604 106.379 78.0182 106.31 78.0067C106.241 77.9914 106.172 77.976 106.107 77.9492C105.842 77.8648 105.596 77.6998 105.42 77.4735C105.339 77.3585 105.255 77.2396 105.201 77.1053C105.136 76.9711 105.109 76.8368 105.082 76.7295C104.914 75.7974 105.132 74.9919 105.347 74.2095C105.815 72.6561 106.54 71.2292 107.372 69.8868C108.017 68.8742 108.753 67.7388 110.053 67.1788C110.698 66.9103 111.522 66.8873 112.186 67.221C112.857 67.5317 113.352 68.0725 113.705 68.644C114.019 69.1503 114.249 69.6873 114.353 70.2627C114.706 72.3991 114.18 73.0358 113.916 73.4078C113.843 73.4922 113.77 73.6073 113.716 73.6533C113.624 73.73 113.582 73.5612 113.544 73.2084C113.494 72.8517 113.406 72.307 113.329 71.6511C113.256 71.164 113.129 70.6884 112.945 70.2511C112.769 69.8139 112.569 69.3958 112.301 69.0659C112.04 68.7323 111.718 68.4906 111.403 68.4024C111.246 68.3525 111.093 68.3372 110.928 68.3564C110.767 68.3717 110.598 68.4177 110.425 68.5021C110.08 68.6632 109.727 68.947 109.409 69.2999C109.252 69.4802 109.098 69.6681 108.956 69.8753C108.807 70.0785 108.657 70.3125 108.511 70.5311C107.932 71.4325 107.422 72.3876 107.012 73.3656C106.716 74.0906 106.452 74.8423 106.383 75.5519C106.34 75.901 106.352 76.2385 106.413 76.4456C106.436 76.507 106.421 76.4801 106.425 76.4878C106.425 76.4878 106.429 76.4993 106.433 76.5031C106.436 76.5031 106.44 76.507 106.448 76.5031C106.44 76.507 106.471 76.4878 106.498 76.4686C106.525 76.4494 106.555 76.4379 106.574 76.4111C106.62 76.3612 106.67 76.3152 106.72 76.273C106.77 76.227 106.808 76.1618 106.858 76.1081C106.908 76.0544 106.947 75.993 106.989 75.924C107.081 75.8012 107.154 75.6555 107.23 75.5059C107.526 74.8999 107.683 74.1519 107.76 73.3925H107.794L107.806 73.4002Z" fill="#231F20"/>
<path id="Vector_5" d="M94.3232 16.6526C94.3078 16.8328 94.2733 16.9709 94.2464 17.132C94.2119 17.2854 94.2043 17.4465 94.1429 17.5961C94.0393 17.8991 93.9511 18.2098 93.7823 18.4898C93.6481 18.7851 93.441 19.0383 93.2492 19.2991C93.1495 19.4257 93.0267 19.5331 92.9155 19.6482C92.8043 19.7671 92.6854 19.8744 92.5511 19.9665C91.5347 20.7758 90.2536 21.0673 89.0339 21.0903C88.1402 21.0903 87.2312 20.9484 86.4027 20.5687C86.2224 20.4766 86.046 20.3884 85.8657 20.2887C85.6931 20.1698 85.509 20.0586 85.3594 19.9128C85.0372 19.6443 84.7802 19.3145 84.5616 18.9769C84.1397 18.2865 83.8865 17.5309 83.7638 16.7753C83.5145 15.2564 83.6679 13.7375 84.0323 12.2915C84.3583 11.0104 84.8608 9.76769 85.5128 8.62852C85.9309 7.89592 86.4257 7.20552 86.9895 6.57265C87.2733 6.25813 87.5725 5.95896 87.8947 5.68279C88.2092 5.4028 88.5506 5.14581 88.938 4.96554C89.4098 4.72773 89.3944 4.84664 89.1566 5.24554C89.03 5.43732 88.892 5.748 88.6618 6.02799C88.4432 6.32333 88.1862 6.65319 87.8832 6.98689C87.3539 7.58141 86.8898 8.23346 86.4794 8.92003C86.0651 9.59893 85.7084 10.32 85.4208 11.068C84.8493 12.56 84.5271 14.1671 84.5808 15.7627C84.6306 16.7063 84.8493 17.6843 85.3671 18.4553C85.6202 18.8388 85.9424 19.1649 86.3221 19.3912C86.721 19.6136 87.1621 19.8054 87.6262 19.909C88.635 20.1698 89.7358 20.1161 90.7215 19.7862C90.9632 19.6942 91.2087 19.6021 91.4273 19.4679C91.6689 19.3643 91.8607 19.1956 92.0793 19.0575C92.4706 18.7276 92.8081 18.3325 93.0459 17.8684C93.1264 17.7304 93.1648 17.5731 93.23 17.4273C93.2991 17.2816 93.3297 17.1205 93.3604 16.9632C93.441 16.6411 93.4908 16.3304 93.3988 16.1271C93.3259 15.9353 93.1264 15.8509 92.8388 15.8931C92.5626 15.9468 92.2788 16.1041 92.0256 16.2997C91.2585 16.8942 90.8136 17.8608 90.5796 18.8427C90.3572 19.8323 90.3188 20.8755 90.5719 21.8344C90.7676 22.5785 91.1511 23.2498 91.6689 23.7752C91.7878 23.9172 91.9374 24.0246 92.0793 24.1435C92.2136 24.2662 92.3747 24.3582 92.5281 24.458C92.6738 24.5654 92.8388 24.6497 92.9999 24.7341C93.1571 24.8262 93.3259 24.8991 93.4985 24.9643C93.7938 25.1023 94.1122 25.1599 94.4229 25.2596C95.0212 25.3977 95.424 25.4667 95.704 25.5933C95.9878 25.6892 96.1566 25.7928 96.2946 25.9462C96.356 26.0152 96.4404 26.0804 96.4788 26.1418C96.544 26.2492 96.4404 26.3374 96.1872 26.4218C96.0607 26.464 95.8957 26.5062 95.7001 26.5445C95.5007 26.5714 95.2667 26.5906 95.0059 26.5867C94.2311 26.5254 93.4333 26.3758 92.6623 26.0421C91.8876 25.7237 91.178 25.1752 90.6295 24.4925C90.0772 23.8098 89.6936 22.9889 89.5095 22.1451C89.3177 21.2974 89.3024 20.4306 89.4289 19.606C89.5018 18.9884 89.6667 18.3862 89.893 17.8032C90.1232 17.2202 90.4454 16.6487 90.8903 16.1578C91.1128 15.9123 91.3697 15.686 91.6536 15.5057C91.9374 15.3254 92.2558 15.1644 92.6393 15.0876C92.8311 15.0493 93.0421 15.0186 93.2799 15.0646C93.51 15.0991 93.7708 15.2142 93.9549 15.4137C94.1429 15.6016 94.2541 15.8433 94.3001 16.0542C94.3538 16.2728 94.3538 16.4685 94.3462 16.6526H94.3232Z" fill="#231F20"/>
<path id="Vector_6" d="M20.5381 39.7813C20.5381 39.7813 25.3479 39.7813 26.863 37.7561C27.749 36.567 26.4564 36.1183 26.4564 36.1183L24.8531 38.0092L20.5381 39.7813Z" fill="#231F20"/>
<path id="Vector_7" d="M26.9243 35.7307C26.9243 35.7307 30.4723 35.4507 31.0553 33.2875C31.6383 31.1204 30.4608 33.7055 29.3293 33.882C28.1939 34.0623 26.4487 34.6798 26.4487 34.6798L26.9282 35.7307H26.9243Z" fill="#231F20"/>
<path id="Vector_8" d="M31.0546 31.5002C31.0546 31.5002 31.8485 30.9747 31.814 29.5325C31.7795 28.0904 31.0354 30.1386 30.1417 30.595C29.2519 31.0514 31.0507 31.504 31.0507 31.504L31.0546 31.5002Z" fill="#231F20"/>
<path id="Vector_9" opacity="0.55" d="M60.7886 5.84404L60.0254 18.9848C60.0254 18.9848 57.2752 19.5371 57.2752 18.1217C57.2752 15.6785 57.2407 5.87473 57.2407 5.87473L60.7886 5.84021V5.84404Z" fill="#231F20"/>
<path id="Vector_10" opacity="0.55" d="M58.2073 20.8066L59.9295 23.0389C59.9295 23.0389 75.0992 22.9583 79.7326 35.7308C84.366 48.5033 78.4822 56.4276 71.7776 59.8451C65.0691 63.2626 61.7514 63.8687 62.7947 65.1843C63.8379 66.4999 68.3064 88.7885 68.3064 88.7885C68.3064 88.7885 74.1019 91.4734 73.6724 89.9622C71.6433 82.8203 66.6302 65.8478 66.6302 65.8478C66.6302 65.8478 88.8191 56.2857 82.08 36.264C76.2614 18.9808 57.8506 20.5918 57.8506 20.5918L58.2073 20.8104V20.8066Z" fill="#231F20"/>
<g id="Group">
<path id="Vector_11" d="M60.0179 9.35369C59.7725 9.41506 59.5231 9.48027 59.27 9.55698C59.1779 9.58383 59.1012 9.6452 59.0092 9.67205C58.6793 9.7641 58.3226 9.80629 57.9774 9.87917C57.8278 9.91369 57.6782 9.96355 57.5363 10.0288C57.3522 10.0978 57.1681 10.2435 56.9341 10.117C56.8613 10.0825 56.8306 9.85232 56.8306 9.59534C56.8306 9.46493 56.8306 9.33068 56.8459 9.21561C56.8574 9.09287 56.8804 9.01233 56.9226 8.99699C57.2218 8.87041 57.5401 8.76301 57.9314 8.75151C58.1653 8.74384 58.3533 8.59041 58.5719 8.5137C58.8174 8.42932 59.0629 8.34494 59.3122 8.26055C59.4656 8.20686 59.6229 8.15699 59.7763 8.10329C60.0064 8.01508 60.2596 7.96521 60.4897 7.86549C60.67 7.79261 60.8272 7.64686 61.0114 7.56247C61.0535 7.54713 61.0919 7.52029 61.1379 7.51645C61.3067 7.49727 61.3796 7.57015 61.4601 7.82713C61.4793 7.88466 61.4985 7.9422 61.5138 8.00357C61.5637 8.19919 61.5407 8.38712 61.464 8.50219C61.4064 8.58657 61.3527 8.66329 61.299 8.74C61.2377 8.79754 61.1801 8.84356 61.1149 8.89342C60.9883 8.98548 60.8541 9.05835 60.7122 9.13123C60.5089 9.25013 60.2634 9.29616 60.0294 9.39205L60.0141 9.36136L60.0179 9.35369Z" fill="#231F20"/>
<path id="Vector_12" d="M60.178 15.2795C59.9478 15.337 59.7139 15.3946 59.4837 15.4598C59.3994 15.4866 59.3303 15.5365 59.2421 15.5557C58.9314 15.6132 58.6169 15.6554 58.3101 15.7206C58.172 15.7436 58.0569 15.8203 57.9265 15.8548C57.7654 15.9162 57.6081 16.0006 57.4049 15.943C57.3396 15.9239 57.2859 15.7359 57.2553 15.525C57.2284 15.314 57.2207 15.0647 57.2898 14.9957C57.424 14.8844 57.5353 14.7425 57.7002 14.708C57.8536 14.6581 58.0224 14.6236 58.2027 14.6159C58.4213 14.6083 58.5824 14.4587 58.7742 14.3781C58.9889 14.2937 59.2114 14.2285 59.4339 14.1518C59.5681 14.1058 59.71 14.0598 59.8404 14.0061C60.0437 13.9255 60.2585 13.8603 60.4426 13.7453C60.5922 13.6609 60.7034 13.5113 60.8454 13.3924C60.876 13.3655 60.8991 13.3272 60.9374 13.3195C61.0832 13.285 61.1637 13.3579 61.3056 13.6264L61.4015 13.8105C61.4974 14.0176 61.5204 14.2209 61.4821 14.359C61.4284 14.5814 61.321 14.685 61.2174 14.8C61.1637 14.8537 61.1062 14.9036 61.0448 14.9496C60.9796 14.988 60.9144 15.0225 60.8454 15.0532C60.6421 15.1491 60.4158 15.2181 60.1972 15.3063L60.1818 15.2757L60.178 15.2795Z" fill="#231F20"/>
<path id="Vector_13" d="M66.0239 22.3754C66.0239 22.1721 66.0086 21.9611 65.9587 21.754C65.9433 21.6773 65.8896 21.6198 65.8705 21.5431C65.7976 21.2822 65.7439 20.9869 65.5981 20.7338C65.5406 20.6187 65.4447 20.5343 65.3488 20.4538C65.2798 20.4077 65.2223 20.3579 65.1686 20.2965C65.111 20.239 65.065 20.1738 65.0305 20.074C65.0113 20.0127 65.1225 19.8554 65.276 19.7135C65.4294 19.5754 65.6442 19.445 65.7669 19.4834C65.9817 19.5524 66.1505 19.6943 66.2885 19.8554C66.4305 20.0165 66.5455 20.2006 66.6146 20.4116C66.7028 20.6532 66.8792 20.845 66.9751 21.0828C67.0787 21.3436 67.1477 21.6121 67.1937 21.8844C67.2244 22.0494 67.2398 22.2181 67.2589 22.3869C67.2858 22.64 67.2781 22.8932 67.2896 23.1425C67.2973 23.3343 67.3663 23.5299 67.3817 23.737C67.3894 23.783 67.397 23.8252 67.3855 23.8713C67.3357 24.0324 67.2014 24.0554 66.9483 24.0324C66.8869 24.0247 66.8294 24.0209 66.7757 24.0132C66.5877 23.9825 66.4305 23.8866 66.3192 23.7754C66.185 23.6143 66.1351 23.4839 66.0968 23.3535C66.0738 23.2883 66.0546 23.223 66.0431 23.1578C66.0239 23.0926 66.0124 23.0313 66.0162 22.9661C66.0085 22.7743 66.0162 22.5748 65.9894 22.3792L66.0201 22.3716L66.0239 22.3754Z" fill="#231F20"/>
<path id="Vector_14" d="M73.4112 25.3019C73.5109 25.1561 73.6068 24.9912 73.6682 24.8186C73.695 24.7534 73.6835 24.6882 73.7065 24.623C73.7832 24.3928 73.8293 24.1474 73.8561 23.8865C73.8676 23.7715 73.8408 23.6602 73.8139 23.5528C73.7717 23.4148 73.7142 23.2844 73.7104 23.1233C73.7104 23.0734 73.7947 23.0274 73.906 23.0159C74.0172 23.0044 74.1668 23.0159 74.2397 23.0964C74.466 23.3802 74.6501 23.7331 74.6156 24.1052C74.581 24.3238 74.6309 24.5463 74.6079 24.7687C74.581 25.0104 74.5197 25.2443 74.4391 25.4706L74.3586 25.6778L74.255 25.8734C74.1514 26.0728 74.0172 26.2493 73.9098 26.4372C73.8254 26.583 73.7525 26.7402 73.649 26.8783C73.6298 26.909 73.603 26.9358 73.5684 26.955C73.4419 27.0279 73.3651 27.0087 73.2309 26.9013C73.2002 26.8783 73.1695 26.8553 73.1427 26.8284C73.0545 26.7441 73.0161 26.6251 73.0123 26.5101C73.0008 26.1572 73.0545 25.9462 73.1619 25.7468C73.2002 25.6739 73.2347 25.5972 73.2769 25.5243C73.3114 25.4476 73.3421 25.3671 73.3843 25.2942L73.4073 25.3019H73.4112Z" fill="#231F20"/>
<path id="Vector_15" d="M79.5558 32.6278C79.6326 32.4015 79.7361 32.1637 79.8013 31.9144C79.8282 31.8223 79.809 31.7303 79.8358 31.6382C79.9317 31.3122 80.0161 30.9747 80.0813 30.6333C80.1197 30.4799 80.1197 30.3303 80.1158 30.1769C80.1082 29.9851 80.0698 29.7895 80.1734 29.59C80.2079 29.5287 80.3997 29.5248 80.6068 29.5632C80.8101 29.6016 81.044 29.6821 81.0862 29.7933C81.1553 29.9928 81.2166 30.1922 81.2473 30.3955C81.2588 30.4991 81.2742 30.6026 81.2588 30.7062C81.2397 30.8098 81.2128 30.9172 81.1783 31.0207C81.0901 31.27 81.1553 31.5308 81.1323 31.7878C81.1054 32.0717 81.0556 32.3555 80.998 32.6393C80.9558 32.8158 80.8983 32.9845 80.8446 33.161C80.7602 33.4256 80.6567 33.6788 80.5608 33.9473C80.5339 34.0547 80.4956 34.1582 80.461 34.2695C80.4304 34.3807 80.3882 34.4919 80.3268 34.5993C80.2999 34.6453 80.2846 34.7029 80.2386 34.7374C80.0545 34.864 79.9432 34.841 79.7591 34.6837C79.7169 34.6492 79.6747 34.6147 79.6364 34.5763C79.5137 34.4536 79.4523 34.2848 79.4216 34.1506C79.3564 33.9396 79.3564 33.8245 79.3372 33.6749L79.3295 33.5752C79.3257 33.5407 79.3257 33.5023 79.3295 33.4716C79.341 33.4064 79.3602 33.3489 79.3717 33.276C79.4178 33.0766 79.483 32.858 79.5213 32.624H79.5558V32.6278Z" fill="#231F20"/>
<path id="Vector_16" d="M77.3005 29.5901C77.3926 29.383 77.477 29.1682 77.5307 28.9457C77.5537 28.8652 77.5422 28.7808 77.5613 28.6964C77.5959 28.5506 77.6227 28.4049 77.6649 28.2515C77.6956 28.098 77.7148 27.9446 77.7378 27.7874C77.757 27.6454 77.7378 27.5112 77.7224 27.3731C77.6956 27.2005 77.6572 27.0279 77.6611 26.84C77.6611 26.7786 77.734 26.7633 77.8298 26.7786C77.9219 26.7978 78.0638 26.8476 78.1328 26.9435C78.2441 27.1161 78.3438 27.3002 78.4167 27.492C78.4896 27.6838 78.5356 27.8871 78.5011 28.0942C78.4819 28.3397 78.5279 28.589 78.5011 28.8383C78.4704 29.1106 78.4128 29.3791 78.34 29.6399C78.2939 29.801 78.2402 29.9583 78.1865 30.1156C78.1022 30.3534 77.9948 30.5797 77.9065 30.8136C77.8298 30.9901 77.803 31.1895 77.7301 31.3736C77.7148 31.4158 77.7109 31.4619 77.6764 31.4887C77.5575 31.6038 77.4655 31.6038 77.2775 31.5156C77.2353 31.4964 77.1893 31.4772 77.1509 31.4542C77.0205 31.3813 76.9361 31.2547 76.9093 31.1166C76.8518 30.9057 76.8901 30.7638 76.9093 30.6103C76.9323 30.4608 76.9592 30.3112 77.0282 30.1846C77.1164 29.9852 77.2161 29.7857 77.289 29.5747H77.312L77.3005 29.5901Z" fill="#231F20"/>
<path id="Vector_17" d="M83.6567 38.1205C83.4879 38.389 83.2923 38.6421 83.0699 38.8646C82.997 38.949 82.9433 39.0525 82.8628 39.1292C82.5636 39.4015 82.2452 39.6394 81.9307 39.858C81.7849 39.95 81.6545 40.0536 81.528 40.161C81.363 40.2952 81.2058 40.4487 80.968 40.4794C80.8951 40.4909 80.803 40.3336 80.7378 40.1457C80.6726 39.9615 80.6228 39.7314 80.6841 39.647C80.9143 39.3325 81.0945 39.0295 81.4589 38.8569C81.6699 38.7418 81.7543 38.5117 81.8885 38.3276C82.0381 38.1243 82.18 37.9172 82.3296 37.7062C82.4178 37.5758 82.506 37.4416 82.5751 37.2996C82.6786 37.0849 82.7937 36.8624 82.8551 36.6323C82.8896 36.4482 82.8666 36.2564 82.8781 36.0761C82.8819 36.0377 82.8743 35.9955 82.8819 35.9572C82.9586 35.8153 83.0584 35.7731 83.2732 35.7539C83.323 35.7501 83.3691 35.7424 83.4151 35.7386C83.5647 35.7309 83.7027 35.8076 83.814 35.9457C83.906 36.0492 83.9521 36.1567 83.9866 36.264C84.0249 36.3714 84.0595 36.4827 84.0825 36.5939C84.1132 36.8125 84.094 37.0312 84.0595 37.246C83.9943 37.5643 83.8332 37.852 83.6912 38.1358L83.6606 38.1205H83.6567Z" fill="#231F20"/>
<path id="Vector_18" d="M83.9863 44.6717C83.7638 44.8519 83.5413 45.0245 83.2844 45.1473C83.1961 45.1971 83.1271 45.2739 83.0351 45.316C82.7014 45.4618 82.36 45.5692 82.0263 45.6651C81.8767 45.6996 81.7348 45.7571 81.6005 45.8185C81.4279 45.8952 81.2553 45.9949 81.0367 45.9374C80.9677 45.9221 80.9178 45.715 80.891 45.4887C80.868 45.2662 80.8641 45.0092 80.9332 44.9517C81.194 44.7407 81.4164 44.5336 81.7808 44.5183C81.9956 44.4952 82.1222 44.3188 82.2833 44.2076C82.4597 44.081 82.6477 43.9583 82.8356 43.8355C82.9507 43.755 83.0619 43.6706 83.1655 43.5747C83.3112 43.4251 83.4953 43.2909 83.6104 43.1144C83.6986 42.9725 83.7216 42.8037 83.7715 42.6503C83.783 42.6158 83.783 42.5774 83.8098 42.5506C83.8942 42.447 83.9901 42.4394 84.2087 42.5007L84.3583 42.5391C84.5156 42.589 84.6307 42.7002 84.6767 42.8459C84.7611 43.0722 84.7304 43.2602 84.7074 43.4558C84.6729 43.6514 84.6153 43.8355 84.5348 44.0158C84.435 44.2958 84.2049 44.4876 84.0131 44.6985L83.9863 44.6755V44.6717Z" fill="#231F20"/>
<path id="Vector_19" d="M82.3523 52.0283C82.0646 52.1012 81.777 52.1587 81.4893 52.2048C81.3857 52.2239 81.2899 52.2623 81.1825 52.2661C80.8066 52.2738 80.4345 52.247 80.0778 52.2163C79.9205 52.2086 79.7633 52.1856 79.6099 52.1818C79.4143 52.1741 79.211 52.1664 79.023 52.0552C78.9655 52.0207 78.9847 51.8941 79.0422 51.7522C79.0997 51.6141 79.1956 51.4376 79.2915 51.3955C79.468 51.3226 79.6367 51.2535 79.8016 51.196C79.9666 51.1385 80.1392 51.1768 80.3195 51.196C80.5381 51.2344 80.7375 51.1116 80.9408 51.0579C81.1671 50.9966 81.4049 50.9582 81.6312 50.8853C81.7731 50.8431 81.9151 50.7971 82.0493 50.7396C82.2526 50.6475 82.4674 50.5631 82.6477 50.4289C82.7167 50.3752 82.7704 50.3023 82.8202 50.2294C82.8778 50.1681 82.9315 50.099 82.9967 50.0453C83.0235 50.0223 83.0466 49.9878 83.0772 49.9686C83.1885 49.8842 83.3035 49.9418 83.4876 50.0875L83.6142 50.1873C83.7446 50.2985 83.8137 50.4557 83.806 50.6245C83.7715 50.8508 83.7063 51.0656 83.6142 51.2689C83.4876 51.43 83.338 51.5642 83.177 51.687C82.9353 51.8672 82.64 51.9593 82.3638 52.0667L82.3485 52.036L82.3523 52.0283Z" fill="#231F20"/>
<path id="Vector_20" d="M79.3726 57.3788C79.0849 57.3596 78.8011 57.3481 78.5249 57.2714C78.4252 57.2522 78.3255 57.2598 78.2258 57.2292C78.0532 57.1755 77.8844 57.1103 77.7195 57.0412C77.5622 56.9607 77.4011 56.8801 77.2438 56.7996C77.1058 56.7344 76.9677 56.6807 76.8296 56.6308C76.6532 56.5656 76.4691 56.5119 76.3348 56.3508C76.2926 56.301 76.3617 56.1744 76.4691 56.0516C76.5765 55.9289 76.7184 55.7985 76.8143 55.8023C77.1595 55.8253 77.4778 55.833 77.7847 55.9634C77.9688 56.0478 78.1836 56.0133 78.3792 56.021C78.5978 56.0286 78.8203 56.0555 79.0466 56.0708C79.1847 56.0785 79.3266 56.0823 79.4647 56.0708C79.6756 56.0555 79.8904 56.0286 80.0899 55.9634C80.2433 55.9059 80.366 55.7755 80.4926 55.6719C80.5194 55.6527 80.5425 55.6182 80.5731 55.599C80.6844 55.5338 80.7573 55.5914 80.9337 55.8484L81.0526 56.0248C81.1792 56.2242 81.2214 56.4275 81.1485 56.5541C80.9452 56.9262 80.6038 57.164 80.2395 57.302C79.9595 57.3787 79.6641 57.4018 79.3764 57.4171V57.3826L79.3726 57.3788Z" fill="#231F20"/>
<path id="Vector_21" d="M75.7894 61.0035C75.4557 60.9613 75.1297 60.8999 74.8113 60.8232C74.6963 60.8002 74.5774 60.7964 74.4623 60.7618C74.0596 60.6429 73.6875 60.4435 73.327 60.2555C73.1659 60.175 73.0048 60.1021 72.8437 60.0331C72.6366 59.941 72.4256 59.8566 72.2683 59.6764C72.2185 59.6227 72.2914 59.5153 72.4103 59.4232C72.5253 59.335 72.6864 59.2468 72.7976 59.2775C73.2042 59.3925 73.5916 59.4807 73.9752 59.6495C74.2053 59.7492 74.47 59.7454 74.7193 59.7876C74.9954 59.8298 75.2716 59.8681 75.5516 59.8796C75.7242 59.8873 75.8968 59.895 76.0694 59.8796C76.3302 59.8605 76.5987 59.8605 76.8519 59.7838C77.0436 59.7147 77.2162 59.5997 77.3965 59.5153C77.4349 59.4961 77.4694 59.4692 77.5116 59.4539C77.6612 59.3925 77.7456 59.4616 77.8798 59.6725C77.9105 59.7224 77.945 59.7684 77.9719 59.8144C78.0639 59.9755 78.0601 60.152 77.968 60.2901C77.8223 60.478 77.6458 60.6314 77.4502 60.7618C77.2508 60.8731 77.0283 60.9306 76.8058 60.9805C76.6409 61.015 76.4721 61.038 76.3034 61.0457C76.1308 61.0418 75.962 61.0418 75.7932 61.0303V61.0035H75.7894Z" fill="#231F20"/>
<path id="Vector_22" d="M71.083 63.7652C70.7876 63.6693 70.5 63.5619 70.2161 63.4469C70.1126 63.4085 70.0013 63.3893 69.9016 63.3433C69.5449 63.1822 69.2189 62.9521 68.8967 62.7411C68.7509 62.6491 68.6014 62.5723 68.4518 62.4995C68.26 62.4074 68.049 62.3307 67.9148 62.1389C67.8726 62.0776 67.9838 61.9241 68.1334 61.7899C68.283 61.6595 68.4671 61.5406 68.5707 61.5828C68.9427 61.7362 69.2956 61.8973 69.6293 62.1427C69.8326 62.2885 70.0857 62.3307 70.3159 62.4189C70.569 62.5148 70.8298 62.6107 71.0945 62.6912C71.2556 62.7411 71.4205 62.7871 71.5893 62.8178C71.8424 62.8715 72.0994 62.9137 72.3564 62.9214C72.5558 62.9214 72.7515 62.8638 72.9471 62.8255C72.9893 62.8178 73.0315 62.814 73.0736 62.8178C73.2347 62.837 73.2923 62.906 73.3421 63.1132C73.3536 63.1592 73.369 63.2052 73.3767 63.2512C73.4035 63.4047 73.346 63.5466 73.2232 63.6425C73.0391 63.7997 72.8397 63.8649 72.6326 63.911C72.4254 63.9493 72.2145 63.9877 72.0074 63.9608C71.6967 63.934 71.3898 63.8611 71.0868 63.7882V63.7614L71.083 63.7652Z" fill="#231F20"/>
<path id="Vector_23" d="M67.5775 71.9235C67.2438 71.8276 66.9216 71.6818 66.5994 71.5553C66.4805 71.5092 66.3578 71.4862 66.2427 71.4364C65.8361 71.2522 65.4487 71.0374 65.0728 70.8111C64.9041 70.7153 64.7315 70.6347 64.5589 70.558C64.3364 70.4583 64.1101 70.3662 63.926 70.1859C63.8685 70.1322 63.9337 70.0249 64.0526 69.9366C64.1676 69.8484 64.3364 69.764 64.4668 69.7986C64.9309 69.9251 65.3797 70.044 65.8054 70.2627C66.0547 70.4084 66.3539 70.4429 66.6339 70.5197C66.9408 70.6079 67.2476 70.6961 67.5583 70.769C67.7501 70.8227 67.9418 70.8725 68.1336 70.9109C68.429 70.9684 68.7243 71.0298 69.0235 71.0336C69.2575 71.0259 69.4838 70.9723 69.7101 70.9377C69.7599 70.9301 69.8098 70.9301 69.8596 70.9339C70.0476 70.9646 70.109 71.0451 70.155 71.2791C70.1665 71.3328 70.1818 71.3865 70.1857 71.4364C70.2087 71.609 70.1358 71.7662 69.9901 71.8659C69.5566 72.192 69.0733 72.1958 68.6054 72.1498C68.2564 72.1153 67.9112 72.0385 67.5698 71.9618V71.935L67.5775 71.9235Z" fill="#231F20"/>
<path id="Vector_24" d="M68.8312 77.4811C68.5397 77.4274 68.2559 77.3315 67.9759 77.2471C67.8723 77.2164 67.7688 77.2126 67.6691 77.1742C67.3162 77.04 66.9786 76.8866 66.6488 76.7293C66.4992 76.668 66.3534 76.6104 66.2039 76.549C66.0159 76.4762 65.8165 76.411 65.6669 76.2537C65.6208 76.2038 65.6822 76.0888 65.7858 75.9775C65.8893 75.8701 66.0389 75.7551 66.1463 75.7704C66.3419 75.7973 66.5337 75.8241 66.7178 75.8625C66.8981 75.9238 67.0707 75.9967 67.2471 76.0849C67.4581 76.2 67.7036 76.1885 67.9337 76.2307C68.1869 76.2767 68.4438 76.3189 68.7008 76.3496C68.8581 76.3726 69.0192 76.3995 69.1803 76.4071C69.4219 76.4225 69.6712 76.4417 69.9129 76.4033C70.1008 76.3688 70.2734 76.269 70.446 76.2077C70.4844 76.2038 70.5227 76.1885 70.5649 76.1847C70.7183 76.1847 70.7797 76.2575 70.8641 76.4838C70.8833 76.5375 70.9025 76.5874 70.9216 76.6373C70.9753 76.806 70.9408 76.9748 70.8372 77.0937C70.7605 77.1781 70.68 77.2663 70.5956 77.3392C70.5074 77.389 70.4153 77.4312 70.3194 77.4657C70.1315 77.5386 69.9282 77.5501 69.7288 77.5616C69.4296 77.5731 69.1304 77.5425 68.8351 77.5118V77.4849L68.8312 77.4811Z" fill="#231F20"/>
<path id="Vector_25" d="M70.6113 82.8779C70.2891 82.7935 69.9669 82.7207 69.6562 82.6017C69.5412 82.5634 69.4261 82.5404 69.3149 82.4982C68.9198 82.3409 68.5362 82.1683 68.1604 81.9996C67.9916 81.9267 67.819 81.8576 67.6502 81.7963C67.4316 81.7119 67.213 81.6313 67.0212 81.4933C66.9598 81.4511 66.9982 81.3897 67.0864 81.3398C67.1708 81.2938 67.3089 81.2516 67.4354 81.2823C67.888 81.3974 68.333 81.4971 68.7664 81.6582C69.0272 81.7579 69.3187 81.7733 69.5949 81.8231C69.9017 81.873 70.2047 81.9382 70.5077 81.9919C70.6957 82.0264 70.8836 82.0571 71.0754 82.0763C71.3631 82.1069 71.6546 82.1376 71.9422 82.1261C72.1647 82.1261 72.3833 82.0571 72.602 82.0341C72.6518 82.0341 72.6979 82.0187 72.7477 82.0187C72.928 82.0187 72.9894 82.0763 73.0469 82.268C73.0584 82.3102 73.0737 82.3524 73.0852 82.3985C73.1159 82.5404 73.0507 82.6746 72.9126 82.7513C72.7132 82.8702 72.4984 82.9661 72.2798 83.0045C72.1685 83.0275 72.0573 83.0428 71.9461 83.0582C71.8348 83.0697 71.7198 83.0543 71.6086 83.0467C71.2749 83.0237 70.9412 82.9585 70.6151 82.8971V82.8741L70.6113 82.8779Z" fill="#231F20"/>
<path id="Vector_26" d="M72.111 87.3502C71.7734 87.2965 71.4436 87.1929 71.1137 87.0932C70.9948 87.0587 70.8721 87.0472 70.7532 87.005C70.3428 86.8439 69.94 86.679 69.5603 86.4642C69.3954 86.3683 69.2228 86.2916 69.054 86.211C68.8392 86.1113 68.6244 86.0077 68.448 85.8313C68.3943 85.7776 68.448 85.697 68.5477 85.628C68.6513 85.559 68.8085 85.4823 68.9389 85.5053C69.1652 85.5436 69.3877 85.5858 69.6178 85.6242C69.7291 85.6472 69.8365 85.6702 69.9438 85.7009C70.0474 85.7431 70.1471 85.7929 70.2507 85.8428C70.4962 85.9732 70.7838 85.9694 71.0523 86.0154C71.3515 86.0691 71.6507 86.1113 71.9575 86.1535C72.1455 86.1842 72.3334 86.2072 72.5252 86.2225C72.8129 86.2417 73.1082 86.2685 73.3997 86.2379C73.626 86.2264 73.8408 86.119 74.0633 86.0883C74.1131 86.0844 74.1592 86.0691 74.209 86.0691C74.3931 86.0729 74.4622 86.1496 74.5235 86.3913C74.5389 86.445 74.5542 86.5025 74.5657 86.5562C74.6003 86.7403 74.5389 86.9053 74.4085 87.0088C74.3126 87.0817 74.2129 87.1546 74.1093 87.2198C74.0057 87.285 73.8983 87.3118 73.7948 87.3464C73.58 87.4116 73.3575 87.4499 73.1312 87.4422C72.7975 87.4461 72.4523 87.4077 72.1148 87.3732V87.3425L72.111 87.3502Z" fill="#231F20"/>
</g>
<path id="Vector_27" opacity="0.25" d="M29.7052 68.3101C15.1645 56.2856 20.6992 40.0342 20.6034 39.3515C20.6034 39.3515 20.8872 38.7953 19.4757 40.2873C18.0642 41.7794 13.9409 44.4183 13.1278 44.4183C12.3147 44.4183 13.0664 49.1092 15.8933 56.8149C18.7201 64.5206 22.8011 70.9682 35.7347 76.7906C48.8371 82.6897 54.1992 78.7391 54.1992 78.7391C54.1992 78.7391 42.8306 79.7823 34.7452 72.1303L29.709 68.3139L29.7052 68.3101Z" fill="#231F20"/>
<path id="Vector_28" opacity="0.25" d="M47.291 7.15193C47.291 7.15193 29.0106 7.25165 22.26 24.2701L14.5083 26.3951C14.5083 26.3951 22.2485 10.113 38.3695 5.64454C38.3695 5.64454 39.2325 5.59085 40.9968 6.0281C42.7612 6.46536 47.291 7.15193 47.291 7.15193Z" fill="#231F20"/>
<path id="Vector_29" d="M34.016 10.4773C33.4867 10.4044 32.9497 10.3239 32.4089 10.297C32.2094 10.2778 32.0138 10.3124 31.8182 10.3047C31.1201 10.2817 30.4182 10.32 29.7163 10.4006C29.4018 10.4313 29.1026 10.5233 28.8034 10.5962L28.2396 10.7841C28.0516 10.8493 27.8675 10.9184 27.6681 10.9682C27.5453 10.9989 27.5147 10.9069 27.5684 10.7688C27.6221 10.6307 27.7525 10.4313 27.9673 10.3047C28.7344 9.90195 29.5629 9.59894 30.4259 9.53757C30.9437 9.50688 31.4691 9.39948 31.9946 9.37264C32.5738 9.34195 33.1491 9.36113 33.7283 9.39949C34.0812 9.44551 34.434 9.48003 34.7869 9.5414C35.0516 9.57976 35.3162 9.62962 35.5809 9.69099C35.8455 9.74085 36.1064 9.8099 36.3672 9.86743C36.7738 9.95948 37.1918 10.0055 37.5831 10.1666C37.6713 10.2011 37.7595 10.2203 37.8439 10.2625C38.1546 10.4313 38.2159 10.5578 38.1737 10.7803C38.1622 10.8302 38.1584 10.8839 38.1431 10.9299C38.0894 11.0833 37.8976 11.1523 37.6636 11.1255C37.4948 11.0948 37.3184 11.0795 37.142 11.0603L36.885 11.0258C36.7968 11.0181 36.7086 11.0104 36.6242 10.9874C36.2905 10.903 35.9453 10.834 35.6001 10.7534C35.0823 10.6537 34.5568 10.5463 34.0198 10.4965V10.4696L34.016 10.4773Z" fill="#231F20"/>
<path id="Vector_30" d="M26.9471 16.3303C26.4063 16.2881 25.8578 16.2459 25.3055 16.2612C25.1022 16.2689 24.9066 16.3034 24.7033 16.3149C23.9861 16.3341 23.2726 16.4453 22.5477 16.5451C22.2294 16.6026 21.9148 16.6831 21.608 16.7867C21.2129 16.9094 20.8332 17.0667 20.4113 17.1357C20.2809 17.1549 20.2464 17.0284 20.2962 16.8557C20.3461 16.687 20.4765 16.453 20.6913 16.3303C21.4622 15.9275 22.2716 15.544 23.1576 15.4327C23.4261 15.4097 23.6869 15.3522 23.9515 15.2908C24.22 15.241 24.4847 15.1681 24.7532 15.1336C25.3477 15.0607 25.946 15.0108 26.5444 15.03C26.9126 15.0377 27.2808 15.0607 27.6452 15.0914C28.2014 15.1297 28.7499 15.2333 29.2945 15.2947C29.7164 15.3445 30.1498 15.3254 30.5679 15.4059C30.66 15.4212 30.7559 15.4212 30.8441 15.4481C31.1816 15.5363 31.2622 15.6667 31.2468 15.9851C31.2468 16.0579 31.2468 16.1308 31.2353 16.1999C31.2008 16.4338 31.0128 16.5911 30.7559 16.6256C30.38 16.6525 30.0041 16.6908 29.6397 16.6678C29.2792 16.6294 28.9186 16.5796 28.5581 16.5297C28.0211 16.4645 27.4803 16.384 26.9356 16.3686V16.3379L26.9471 16.3303Z" fill="#231F20"/>
<path id="Vector_31" d="M30.0035 13.3156C29.5049 13.2887 28.9947 13.2887 28.4846 13.2926C28.2966 13.2926 28.1164 13.3271 27.9284 13.3309C27.2687 13.3424 26.6052 13.3846 25.9416 13.4575C25.6501 13.4997 25.3548 13.5342 25.0671 13.5917C24.6989 13.6608 24.3307 13.7452 23.9471 13.7605C23.8282 13.7605 23.8205 13.6646 23.8896 13.5342C23.9624 13.4038 24.1082 13.2312 24.3153 13.1507C24.6835 13.0164 25.0517 12.8822 25.4315 12.7824C25.8112 12.6904 26.2063 12.652 26.5975 12.6213C27.0693 12.5983 27.5487 12.4756 28.0282 12.4181C28.2928 12.3912 28.5575 12.3682 28.8221 12.349C29.0906 12.3413 29.3553 12.3298 29.6238 12.3298C29.9536 12.3298 30.2835 12.3375 30.6133 12.3567C31.112 12.372 31.6144 12.4487 32.1131 12.5101C32.5004 12.5676 32.8993 12.6022 33.2944 12.7402C33.3788 12.7748 33.467 12.8054 33.5476 12.8476C33.8506 13.0279 33.8966 13.1698 33.8237 13.3731C33.8084 13.423 33.793 13.4728 33.77 13.515C33.6895 13.6569 33.5015 13.7068 33.3098 13.6685C33.0106 13.6301 32.7114 13.6109 32.4161 13.5611C32.2626 13.5457 32.1054 13.5342 31.9558 13.4997L31.4802 13.4383C31.0007 13.3885 30.5059 13.3386 29.9996 13.3386V13.3156H30.0035Z" fill="#231F20"/>
<path id="Vector_32" d="M37.4648 8.24519C37.1427 8.11094 36.809 7.99204 36.4599 7.91149C36.3333 7.88464 36.2029 7.87698 36.0725 7.85396C35.6199 7.75424 35.152 7.70437 34.6802 7.66218C34.4693 7.64684 34.2583 7.66601 34.055 7.69286C33.7904 7.72738 33.5334 7.78875 33.2572 7.78875C33.169 7.78875 33.1536 7.68136 33.1958 7.55478C33.238 7.42821 33.3416 7.26328 33.495 7.20191C34.0473 7.00246 34.6342 6.86054 35.2287 6.92191C35.5816 6.97561 35.946 6.93725 36.3065 6.97944C36.7016 7.02931 37.0928 7.10218 37.4763 7.21342C37.7142 7.27095 37.9443 7.36301 38.1744 7.43972C38.5196 7.5778 38.8495 7.75423 39.1793 7.91533C39.3059 7.98053 39.4402 8.03423 39.5783 8.08409C39.7125 8.14163 39.8391 8.21067 39.9656 8.28355C40.0232 8.31423 40.0769 8.34492 40.1267 8.38711C40.3108 8.54437 40.3262 8.64409 40.2073 8.84738C40.1804 8.8934 40.1574 8.94327 40.1267 8.98546C40.027 9.12738 39.8582 9.1849 39.6972 9.14271C39.2139 9.03915 38.8226 8.85121 38.4084 8.6671C38.2588 8.59423 38.0977 8.53669 37.9405 8.47149C37.787 8.39861 37.6221 8.33724 37.461 8.27204L37.4687 8.24903L37.4648 8.24519Z" fill="#231F20"/>
<path id="Vector_33" d="M22.7624 21.1287C22.2715 21.0903 21.7767 21.0865 21.2819 21.1133C21.0978 21.1133 20.9252 21.1709 20.7449 21.1862C20.1082 21.2361 19.4753 21.3511 18.8655 21.5352C18.6008 21.635 18.3247 21.7155 18.083 21.8613C17.9258 21.9495 17.7647 22.03 17.6112 22.1259C17.4617 22.2218 17.3044 22.31 17.1318 22.3791C17.0244 22.4213 16.9438 22.3024 16.9362 22.1259C16.9285 21.9533 16.9899 21.7078 17.1663 21.5544C17.3197 21.4125 17.4962 21.3166 17.6649 21.2015C17.8337 21.0865 18.0101 20.9829 18.1981 20.9024C18.5625 20.7183 18.9614 20.63 19.3603 20.5495C19.8359 20.4766 20.3077 20.3117 20.7909 20.2388C21.3202 20.1583 21.8534 20.1237 22.3865 20.1084C22.7126 20.1084 23.0424 20.1084 23.3684 20.1237C23.8632 20.1506 24.358 20.2081 24.849 20.2695C25.2287 20.3117 25.6199 20.3002 26.015 20.4037C26.0994 20.4191 26.1914 20.4421 26.2797 20.4766C26.4408 20.5418 26.5443 20.6032 26.598 20.7029C26.6517 20.7911 26.6479 20.887 26.598 21.0059C26.5788 21.0596 26.5597 21.1133 26.5328 21.1632C26.4292 21.3204 26.2451 21.3933 26.084 21.3857C25.7964 21.3703 25.4934 21.3857 25.1827 21.3511C24.8758 21.3166 24.5536 21.2821 24.2315 21.2552C23.9898 21.2361 23.7482 21.2092 23.5027 21.2015C23.2572 21.1785 23.0117 21.1632 22.7663 21.1555V21.1287H22.7624Z" fill="#231F20"/>
<path id="Vector_34" d="M20.1734 56.2548C19.9432 56.2548 19.7169 56.2702 19.483 56.2548C19.2528 56.2395 19.0189 56.2203 18.7887 56.1935C18.62 56.182 18.4512 56.1819 18.2863 56.1551C17.6994 56.0477 17.1164 55.9173 16.5718 55.7063C16.3301 55.6104 16.0808 55.5414 15.8468 55.4494C15.54 55.342 15.237 55.2154 14.9608 55.0351C14.8764 54.9814 14.9148 54.9239 15.026 54.8817C15.1334 54.8395 15.3175 54.7973 15.494 54.8357C16.1268 54.9737 16.7482 55.0274 17.3542 55.1924C17.7186 55.2998 18.1175 55.2691 18.5011 55.2729C18.9268 55.2844 19.3487 55.2576 19.7822 55.2499C20.0468 55.2422 20.3153 55.2269 20.5838 55.2C20.9904 55.1617 21.3969 55.1118 21.7997 55.0428C22.1104 54.9852 22.4095 54.8702 22.7125 54.7858C22.7777 54.7666 22.843 54.7398 22.912 54.7321C23.169 54.6976 23.2649 54.7513 23.3569 54.9584C23.3799 55.0044 23.4029 55.0504 23.4183 55.0965C23.472 55.2537 23.3914 55.411 23.2188 55.5184C22.9657 55.6872 22.6895 55.7869 22.4095 55.8904C22.1257 55.9825 21.838 56.0746 21.5389 56.1244C21.0978 56.2011 20.6375 56.2356 20.1811 56.2778V56.251L20.1734 56.2548Z" fill="#231F20"/>
<path id="Vector_35" d="M22.5786 62.5491C22.1874 62.5261 21.7961 62.4954 21.4087 62.4647C21.2668 62.4532 21.1287 62.48 20.9868 62.457C20.4882 62.3765 19.9972 62.2768 19.5101 62.1924C19.2953 62.154 19.0767 62.1502 18.8619 62.1272C18.5857 62.1042 18.3057 62.0965 18.0411 61.9623C17.9605 61.9201 17.9912 61.7475 18.0833 61.5672C18.1753 61.3907 18.3249 61.1951 18.4822 61.1721C19.0383 61.0762 19.5715 61.1184 20.1161 61.2488C20.4422 61.3332 20.7874 61.2565 21.1211 61.2603C21.4893 61.2718 21.8613 61.2872 22.2334 61.2872C22.4635 61.2872 22.6898 61.2872 22.92 61.2757C23.2652 61.2527 23.6142 61.2488 23.9556 61.1913C24.086 61.1644 24.2125 61.1223 24.3391 61.0762C24.4657 61.034 24.5846 60.9573 24.715 60.942C24.7725 60.9305 24.8262 60.9113 24.8838 60.9075C25.1024 60.8921 25.1868 60.965 25.2865 61.2066C25.3095 61.2603 25.3364 61.314 25.3517 61.3716C25.4131 61.5557 25.3594 61.7359 25.2175 61.8702C24.8032 62.319 24.2816 62.4148 23.7638 62.5222C23.3764 62.5836 22.9775 62.5721 22.5824 62.5798V62.5491H22.5786Z" fill="#231F20"/>
<path id="Vector_36" d="M23.7366 66.0165C23.3607 65.9974 22.9848 65.9667 22.6127 65.9321C22.4785 65.9206 22.3404 65.9322 22.2062 65.913C21.9684 65.8823 21.7306 65.8401 21.4966 65.7941C21.2626 65.7404 21.0287 65.6828 20.7985 65.6291C20.5914 65.5831 20.3843 65.5486 20.1772 65.5217C19.9125 65.4834 19.644 65.4604 19.3985 65.3338C19.3218 65.2954 19.3602 65.1612 19.4599 65.0346C19.5558 64.908 19.7092 64.7815 19.855 64.7892C20.3804 64.8198 20.8982 64.8543 21.416 64.9733C21.7267 65.0461 22.0566 65.0308 22.3788 65.0423C22.7317 65.0615 23.0884 65.0806 23.4451 65.0806C23.6637 65.0806 23.8862 65.0806 24.1048 65.0691C24.4385 65.0538 24.7722 65.0231 25.0982 64.9771C25.3514 64.9311 25.5892 64.8275 25.8308 64.747C25.8845 64.7316 25.9344 64.7048 25.9881 64.6894C26.1913 64.6472 26.2719 64.6971 26.3678 64.9081C26.3908 64.9541 26.4138 65.0039 26.433 65.05C26.4944 65.2111 26.4445 65.3722 26.3026 65.4757C25.8807 65.7672 25.3859 65.9283 24.8834 66.0089C24.5037 66.0511 24.1201 66.0549 23.7404 66.0549V66.0319L23.7366 66.0165Z" fill="#231F20"/>
<path id="Vector_37" d="M28.589 70.6267C28.8651 70.6037 29.1451 70.5692 29.4175 70.5193C29.5172 70.4963 29.6054 70.4541 29.7051 70.4388C30.058 70.3813 30.4109 70.3084 30.7407 70.178C30.8136 70.1473 30.8826 70.1128 30.9479 70.0706C31.0131 70.0322 31.0859 69.9977 31.1435 69.9517C31.3046 69.8366 31.435 69.7062 31.6306 69.6218C31.692 69.5988 31.8032 69.6909 31.8837 69.8328C31.9643 69.9709 32.0256 70.1933 31.9413 70.3161C31.7993 70.5347 31.6344 70.738 31.4273 70.8837C31.2125 71.0103 30.9862 71.1023 30.7446 71.156C30.4607 71.2136 30.2153 71.3785 29.9429 71.4629C29.6437 71.5549 29.3369 71.6086 29.0339 71.6585C28.8498 71.693 28.6618 71.7084 28.4777 71.7429C28.1977 71.7851 27.9139 71.8043 27.6416 71.8618C27.4306 71.9117 27.2273 72.0037 27.0202 72.0612C26.9742 72.0689 26.9282 72.0804 26.8821 72.0804C26.7019 72.0766 26.6405 72.0037 26.5791 71.7774C26.5638 71.7237 26.5484 71.6738 26.5408 71.624C26.5101 71.4514 26.5638 71.2941 26.675 71.1906C26.7594 71.1177 26.8438 71.0448 26.9282 70.9796C27.0164 70.9336 27.1046 70.8914 27.1928 70.853C27.3731 70.7763 27.5572 70.7533 27.7451 70.7226C28.0213 70.6843 28.3013 70.6459 28.5775 70.6076L28.5851 70.6344L28.589 70.6267Z" fill="#231F20"/>
<path id="Vector_38" d="M35.6884 75.015C35.93 74.9843 36.1717 74.9421 36.4056 74.8692C36.49 74.8424 36.5629 74.7925 36.6473 74.758C36.9464 74.6583 37.2456 74.5394 37.5218 74.3629C37.6445 74.2862 37.7404 74.175 37.8325 74.0676C37.9475 73.9218 38.0089 73.7377 38.2083 73.661C38.3388 73.6111 39.0215 74.3399 38.8566 74.5509C38.5727 74.9037 38.193 75.1914 37.7404 75.3372C37.4758 75.4254 37.2571 75.598 37.004 75.7054C36.7201 75.8128 36.4363 75.8971 36.1448 75.9508C35.9684 75.993 35.7881 76.0084 35.6155 76.0391C35.347 76.0774 35.0823 76.0889 34.8215 76.1273C34.6182 76.1618 34.4265 76.2423 34.2232 76.2999C34.1772 76.3114 34.135 76.3306 34.0928 76.3382C33.9278 76.3574 33.8703 76.2922 33.8358 76.0199C33.8281 75.9585 33.8166 75.8971 33.8128 75.8319C33.7974 75.621 33.8626 75.4446 33.97 75.3832C34.2999 75.1952 34.6297 75.1454 34.9596 75.0994C35.2051 75.0687 35.4467 75.038 35.6884 74.9919L35.696 75.015H35.6884Z" fill="#231F20"/>
<path id="Vector_39" d="M107.452 46.7427C107.72 47.2566 116.45 70.6729 117.627 70.7343C118.805 70.7956 119.921 71.6394 118.237 68.1606C116.553 64.6779 107.455 46.7465 107.455 46.7465L107.452 46.7427Z" fill="#231F20"/>
<path id="Vector_40" d="M95.0591 82.8356C95.3621 82.686 117.628 70.7305 118.238 68.1568C118.636 66.4615 117.639 71.3979 117.639 71.3979L95.0591 82.8356Z" fill="#231F20"/>
<path id="Vector_41" d="M88.8188 40.2836C88.8917 40.5752 91.0588 41.8409 93.0917 41.4228C95.1245 41.0047 97.2917 39.248 97.2917 39.248L88.8188 40.2836Z" fill="#231F20"/>
<path id="Vector_42" d="M92.1025 45.6497C92.1025 45.6497 93.1534 47.1148 96.1835 45.6497C99.2175 44.1845 100.51 43.4404 100.51 43.4404L100.008 42.516L92.0986 45.6458L92.1025 45.6497Z" fill="#231F20"/>
<path id="Vector_43" d="M96.7739 47.9893C96.8583 48.3537 98.3542 49.0134 99.5164 48.534C101.653 47.6518 103.62 44.8403 103.62 44.8403C103.62 44.8403 100.161 48.1428 99.2901 48.0584C98.4194 47.974 96.7739 47.9893 96.7739 47.9893Z" fill="#231F20"/>
<path id="Vector_44" d="M72.398 39.8655C72.0911 38.1548 71.5848 36.4749 70.764 34.9675C70.5722 34.5801 70.3344 34.2272 70.1081 33.859C69.855 33.5138 69.621 33.1532 69.3372 32.8272C68.7964 32.1598 68.1865 31.55 67.5114 31.013C66.5372 30.2152 65.4249 29.5938 64.2627 29.0798C62.2145 28.1631 59.9477 27.676 57.6617 27.584C56.5186 27.5341 55.368 27.5916 54.2365 27.7527C54.1674 27.7604 54.0946 27.7719 54.0255 27.7834L53.7609 27.8294C53.5346 27.8716 53.3044 27.9215 53.0858 27.9675L52.7521 28.0404L52.5872 28.0788L52.5028 28.0979L52.4606 28.1056C52.4606 28.1056 52.4568 28.0788 52.4529 28.0672L52.357 27.3884L52.2113 26.2147L52.1154 25.3325C51.8814 23.2421 51.7357 21.121 51.636 19.046C51.5707 17.7112 51.4672 16.3879 51.3866 15.057C51.3176 13.7222 51.2524 12.3912 51.1834 11.0603C51.1488 10.228 51.2754 10.3277 51.5094 11.0104C51.7357 11.6931 52.1269 12.9589 52.3609 14.4893C52.7483 17.2087 52.8135 19.9588 53.0935 22.6284L53.3121 24.6421L53.431 25.6508L53.4924 26.1571L53.5231 26.3988V26.4295C53.5154 26.4525 53.5154 26.4755 53.5192 26.4985C53.5192 26.5062 53.5192 26.5292 53.5269 26.5292H53.5576L53.6305 26.5253H53.6535L53.7762 26.5023C53.8644 26.4832 53.9526 26.4716 54.0409 26.4601C54.7504 26.3489 55.46 26.2914 56.1734 26.2684C57.8764 26.207 59.6101 26.3259 61.3285 26.6443C63.043 26.9741 64.746 27.5149 66.2956 28.3549C68.0101 29.2563 69.529 30.5374 70.7448 32.0486C71.953 33.5713 72.8467 35.3165 73.4144 37.1461C74.1317 39.3861 74.4423 41.7488 74.2812 44.1038C74.1585 45.8835 73.7251 47.6517 72.981 49.2819C72.6013 50.0912 72.1563 50.8698 71.6462 51.5986C71.1284 52.3235 70.5492 52.9986 69.9279 53.6276C67.9755 55.5646 65.6167 56.9991 63.0583 57.9043C62.4945 58.0999 61.9345 58.2763 61.3477 58.4067C60.2622 58.656 59.5296 58.7327 59.0118 58.7212C58.4901 58.6944 58.1833 58.587 57.934 58.4527C57.8189 58.3875 57.6732 58.3338 57.608 58.2686C57.4929 58.1612 57.6501 58.0385 58.0222 57.8736C58.3942 57.7202 58.9734 57.49 59.7214 57.3097C60.8298 57.0221 61.9076 56.6078 62.9739 56.1898C64.0364 55.7602 65.0682 55.2462 66.0386 54.6325C67.9717 53.4128 69.6709 51.7865 70.7985 49.8073C71.2281 49.0824 71.5733 48.3038 71.8495 47.506C72.1295 46.7082 72.3366 45.8797 72.4708 45.032C72.7202 43.3367 72.6703 41.5877 72.3558 39.8655L72.3941 39.854L72.398 39.8655Z" fill="#231F20"/>
<path id="Vector_45" d="M31.8529 13.6263C32.5202 13.1354 33.1531 12.6022 33.8627 12.1765L34.9021 11.5052L35.9876 10.9107C36.5054 10.6039 37.0386 10.3239 37.5871 10.0784L38.3158 9.75621C38.5651 9.66416 38.8144 9.57594 39.0676 9.49156L39.8194 9.23841L40.1952 9.11184L40.5788 9.01595L42.113 8.63239L43.6665 8.36773C44.1229 8.27185 44.5908 8.24883 45.0473 8.17979L45.7377 8.08773L46.0829 8.04171L46.4281 8.02637C47.0188 8.00335 47.6133 7.95733 48.2039 7.95349C48.4993 7.97267 48.7946 8.02253 49.09 8.06472C49.3853 8.10308 49.673 8.22198 49.9606 8.29486C50.3174 8.41376 50.2637 8.46746 49.9453 8.64006C49.7574 8.75129 49.5387 8.87787 49.3009 9.01595C49.0363 9.1502 48.7371 9.24992 48.4149 9.30362C46.1251 9.54142 43.8851 9.7332 41.6221 10.2318C41.2846 10.3085 40.9432 10.3853 40.6057 10.4888C40.2758 10.6077 39.9459 10.7381 39.6161 10.8685C38.9448 11.1025 38.3196 11.4554 37.6753 11.743C37.3147 11.8926 36.981 12.0998 36.6397 12.2839C36.3021 12.4756 35.9493 12.6521 35.6194 12.8592L34.6375 13.4997C34.4726 13.6071 34.3076 13.7107 34.1465 13.8258L33.6786 14.1825C33.2989 14.4817 32.9 14.7578 32.5356 15.0762L31.4463 16.0427C30.917 16.549 30.403 17.086 29.8929 17.6153C29.4211 18.1792 28.9225 18.7238 28.4929 19.3222C28.163 19.7863 27.8523 20.258 27.557 20.7375C27.277 21.2284 27.0315 21.7309 26.7208 22.2027C26.5866 22.4098 26.483 22.6284 26.3526 22.8432C26.111 23.2383 25.9384 23.4876 25.7581 23.6334C25.5587 23.7676 25.3937 23.8175 25.2058 23.829C25.1214 23.8328 25.0332 23.8558 24.9641 23.8481C24.8491 23.8366 24.7992 23.7254 24.7839 23.5221C24.7724 23.3188 24.7762 23.012 24.9181 22.686C25.1061 22.195 25.2787 21.6849 25.5203 21.2016C25.7466 20.7106 26.0343 20.2504 26.3104 19.7786C26.6134 19.3222 26.928 18.8696 27.2502 18.417C27.5608 17.9567 27.9406 17.5463 28.2896 17.109C28.7997 16.457 29.4057 15.8778 29.9811 15.2756C30.2649 14.9688 30.5948 14.708 30.8978 14.4241C31.2123 14.148 31.5076 13.8565 31.8375 13.5956L31.8644 13.6225L31.8529 13.6263Z" fill="#231F20"/>
<path id="Vector_46" d="M24.8605 12.1459C26.6862 10.7612 28.6232 9.53385 30.6484 8.48674C31.3848 8.10318 32.1174 7.70428 32.8807 7.37442C33.9623 6.90648 35.067 6.49607 36.1908 6.14319C36.7508 5.96292 37.3223 5.8095 37.8977 5.66375C38.1853 5.5947 38.4768 5.5295 38.7683 5.46813C38.9179 5.44128 39.0637 5.4106 39.2171 5.38758C39.2976 5.37224 39.3552 5.36457 39.4741 5.34922C39.5316 5.34155 39.5891 5.34156 39.6428 5.34156C39.7004 5.34156 39.7541 5.33772 39.8116 5.34922L39.9689 5.37991L40.0801 5.40676L40.2949 5.45663L40.713 5.56018L41.5415 5.77114C42.7803 6.08949 44.0308 6.37333 45.262 6.67634C46.8422 7.06373 48.457 7.35524 49.9375 8.11468C50.1523 8.28728 50.2406 8.39085 50.2175 8.44071C50.1945 8.49441 50.0603 8.52125 49.811 8.61714C49.5617 8.71687 49.2318 8.77824 48.8329 8.84728C48.4417 8.89331 47.9967 8.88563 47.5365 8.80892C46.8576 8.70536 46.1979 8.51742 45.5305 8.36783L43.536 7.88455C42.251 7.53934 40.9623 7.19031 39.6697 6.84511C39.662 6.83743 39.6467 6.83743 39.639 6.83743C39.639 6.8336 39.5431 6.84511 39.4894 6.85278C39.3667 6.86812 39.2286 6.89113 39.0982 6.91031C38.8297 6.95634 38.5574 7.0062 38.285 7.06373C36.3826 7.46263 34.4878 8.27961 32.6774 9.13495C31.6802 9.60673 30.7021 10.1245 29.7432 10.6769C28.792 11.2407 27.8523 11.8314 26.9509 12.4757C25.8424 13.2697 24.7646 14.1135 23.7482 15.0264C22.2063 16.4072 20.7641 17.9223 19.5175 19.5562C18.5395 20.822 17.7608 22.1951 16.9976 23.5683C16.8365 23.8751 16.6945 24.1858 16.5104 24.4811C15.8622 25.6011 15.5937 25.9271 15.1296 26.0077C15.0261 26.0269 14.9148 26.0652 14.8266 26.0652C14.5351 26.0652 14.5581 25.4707 14.911 24.5463C15.4211 23.1693 16.1652 21.8537 16.9899 20.5727C17.8069 19.2801 18.7696 18.0565 19.786 16.8828C21.3088 15.1453 23.0118 13.5574 24.8298 12.1267L24.8567 12.1536L24.8605 12.1459Z" fill="#231F20"/>
<path id="Vector_47" d="M36.4635 73.8257C35.2016 72.9666 33.9742 72.0652 32.8274 71.0718C31.6575 70.1091 30.5605 69.0274 29.5403 67.9151C28.7923 67.102 28.0406 66.2888 27.3655 65.4105C24.9913 62.3267 23.0697 58.8631 21.9151 55.1349C21.7886 54.7207 21.662 54.3065 21.5546 53.8884C21.4357 53.4703 21.3398 53.0484 21.2439 52.6265C21.1365 52.2084 21.0751 51.7788 20.9869 51.3531C20.9179 50.9273 20.8757 50.4977 20.8182 50.072C20.7798 49.5196 20.7146 48.9712 20.7108 48.415C20.7108 48.1388 20.6762 47.8627 20.7031 47.5827L20.776 46.7542C20.8412 46.2057 20.9217 45.6572 21.0598 45.1202L21.2593 44.3186C21.3321 44.0539 21.4204 43.7931 21.4971 43.5323C21.7042 42.8841 21.7003 42.98 21.7234 43.563C21.7234 44.1422 21.9036 45.22 22.0571 46.4282C22.0916 46.9613 22.199 47.4906 22.2258 48.0161L22.2872 48.8024L22.3831 49.5848C22.4445 50.1065 22.548 50.6243 22.6362 51.1421L22.7705 51.9207L22.9354 52.6955C23.3957 54.7552 24.1168 56.7727 25.0105 58.7366C26.0844 61.0954 27.6992 63.3047 29.3984 65.3453C30.3381 66.4691 31.3353 67.5469 32.3978 68.5518C33.4602 69.5529 34.6071 70.4849 35.7731 71.371C37.2345 72.4334 38.7687 73.4 40.372 74.2362C42.8114 75.4827 45.4081 76.4723 48.0623 77.109C50.1297 77.5961 52.2086 77.8224 54.299 77.9758C54.7592 78.018 55.2118 78.0295 55.676 78.0526C56.1055 78.0756 56.4622 78.1139 56.7614 78.1599C57.0606 78.1983 57.3022 78.2367 57.4979 78.2942C57.6935 78.3556 57.8507 78.4169 57.9773 78.4936C58.1039 78.578 58.2036 78.6777 58.2957 78.7698C58.3762 78.858 58.4874 78.9347 58.5335 79.0038C58.614 79.1188 58.4721 79.2109 58.1499 79.3566C57.8239 79.5139 57.3176 79.5791 56.6655 79.6175C52.8184 79.675 48.7067 79.1227 44.7675 77.8339C44.3993 77.7265 44.0388 77.5961 43.6782 77.458L42.5966 77.0553C41.8909 76.7446 41.1698 76.4723 40.4832 76.1156L39.4438 75.6054L38.4312 75.0455C37.7484 74.6887 37.1079 74.2515 36.4482 73.8564L36.4673 73.8181L36.4635 73.8257Z" fill="#231F20"/>
<path id="Vector_48" d="M32.3443 75.636C29.6287 74.2936 27.0281 72.7018 24.6808 70.784C24.2588 70.4273 23.8139 70.0974 23.4035 69.7292C22.9931 69.361 22.5673 69.0043 22.1761 68.6131C19.3992 65.8744 17.117 62.641 15.5175 59.1008C14.8233 57.5244 14.2211 55.9019 13.7378 54.2641C13.1433 52.1584 12.6831 49.9644 12.8787 47.7667C12.9477 47.4215 12.9976 47.2757 13.0436 47.2834C13.0935 47.291 13.151 47.456 13.3006 47.7283C13.5767 48.2845 14.0293 49.274 14.2595 50.4592C14.3017 50.7239 14.3861 50.9809 14.4359 51.2455L14.5893 52.0357C14.6929 52.5611 14.8463 53.0751 14.9652 53.5967C15.2452 54.6285 15.5712 55.6488 15.951 56.6499C16.7066 58.6559 17.677 60.5813 18.8046 62.4378C20.1471 64.6701 22.0342 66.6607 24.0095 68.4443C26.1805 70.4234 28.6314 72.0919 31.2204 73.5034C32.8237 74.3588 34.4692 75.1489 36.176 75.7856C38.7497 76.7752 41.4269 77.5576 44.1272 78.0639C46.2291 78.4475 48.3156 78.6316 50.4175 78.7543C50.8816 78.7735 51.3342 78.7735 51.8022 78.7965C53.532 78.8541 54.0805 79.0305 54.4487 79.3527C54.5331 79.4294 54.6443 79.5023 54.6942 79.5713C54.8591 79.8014 54.1419 80.0047 52.8416 80.1198C50.92 80.1543 48.937 80.0853 46.9387 79.8398C45.9376 79.7439 44.9403 79.5598 43.9354 79.3987C42.9381 79.1993 41.9332 79.0075 40.9398 78.7467C37.9864 78.0064 35.0829 76.9938 32.3212 75.6744L32.3328 75.6398L32.3443 75.636Z" fill="#231F20"/>
<path id="Vector_49" d="M23.1308 25.2827C20.3078 25.3901 17.481 25.9961 14.8996 27.1545C13.9752 27.5418 13.2043 28.1402 12.4333 28.8076C11.0832 29.9889 9.90569 31.4273 8.82022 32.9308C7.74242 34.4459 6.72215 36.0146 5.7786 37.6371C4.93477 39.0716 4.16382 40.5636 3.42738 42.0442C2.95944 42.9992 2.48766 43.9581 2.01972 44.917C1.78192 45.3926 1.53644 45.8721 1.28713 46.3439L0.903569 47.0496C0.769324 47.2798 0.596722 47.4945 0.435628 47.7132C0.0060423 48.2425 -0.0169723 48.1313 0.00604124 47.5137C0.0252192 47.2107 0.00220553 46.7543 0.12878 46.2787C0.240012 45.7954 0.408778 45.2469 0.665762 44.6869C1.55562 42.6924 2.53369 40.7362 3.56546 38.7954C4.60491 36.8585 5.72106 34.9445 7.01366 33.1226C7.79228 32.0371 8.59391 30.9325 9.4761 29.87C10.3583 28.8076 11.3325 27.7796 12.487 26.9396C12.8016 26.7095 13.1391 26.4986 13.4843 26.2991L14.0174 26.0229L14.5391 25.7928C15.2371 25.4898 15.9506 25.2251 16.6755 25.0027C18.1215 24.5462 19.6136 24.2394 21.1133 24.063C22.962 23.8482 24.8261 23.8367 26.6749 24.0515C27.3768 24.1358 28.0748 24.2586 28.7653 24.4389C29.1105 24.5347 29.4557 24.6306 29.8009 24.7725C29.9735 24.8377 30.1422 24.9145 30.311 25.0027C30.5411 25.1177 30.7367 25.2597 30.917 25.4169C31.0935 25.578 31.2277 25.7698 31.2852 25.9884L31.3159 26.1572C31.3236 26.2147 31.3044 26.2723 31.3006 26.3298L31.2776 26.5024L31.22 26.6673C31.1893 26.7786 31.128 26.8783 31.0628 26.978C31.0129 27.0816 30.917 27.1621 30.8365 27.2503C30.7559 27.3386 30.6677 27.4153 30.5526 27.4843C30.4337 27.5649 30.3685 27.5994 30.2726 27.6454C29.5631 27.9906 28.8573 28.121 28.1554 28.2284C25.9883 28.5314 23.8864 28.6043 21.7807 28.6618C21.3165 28.6733 20.864 28.6964 20.3998 28.7002C18.6777 28.6695 18.1752 28.589 17.7763 28.2284C17.6881 28.1479 17.5653 28.0788 17.5001 28.0021C17.2623 27.749 18.0218 27.3424 19.3067 27.2273C20.2618 27.1199 21.213 27.0854 22.1719 27.047C23.1231 27.0087 24.082 26.9703 25.0486 26.9281C26.0036 26.8744 26.9625 26.8131 27.8677 26.675C28.3203 26.6098 28.7652 26.5177 29.1526 26.418C29.2524 26.3912 29.3329 26.3605 29.4288 26.3336C29.5132 26.3029 29.5822 26.2684 29.6628 26.2416L29.6973 26.2224L29.682 26.2301C29.682 26.2301 29.682 26.2339 29.6743 26.2339C29.6743 26.2339 29.6705 26.2301 29.6781 26.2339L29.6321 26.2071L29.5324 26.161C29.4633 26.1303 29.3981 26.0958 29.3214 26.069C28.7346 25.835 28.0557 25.6624 27.3691 25.5512C25.9921 25.3249 24.5576 25.2597 23.1346 25.3287V25.2942L23.1308 25.2827Z" fill="#231F20"/>
<path id="Vector_50" d="M29.1525 30.0386C29.7624 29.8929 30.3914 29.6858 30.7712 29.4134C30.821 29.3789 30.8632 29.3482 30.8901 29.3214L30.9438 29.2792C30.9438 29.2792 30.9629 29.2523 30.9706 29.2408C31.0205 29.191 31.0166 29.168 31.0396 29.1373C31.0396 28.9608 31.0435 28.934 30.9169 28.8113C30.6983 28.6425 30.2342 28.5619 29.7854 28.5121C28.9723 28.4085 28.0939 28.4469 27.2232 28.4699C26.3487 28.5044 25.4665 28.5581 24.5805 28.6041C23.7942 28.6578 23.0041 28.7077 22.2216 28.7614C21.7192 28.7959 21.2129 28.8266 20.7066 28.8113C20.4534 28.7959 20.2003 28.8113 19.9471 28.7537L19.5713 28.6655C19.4447 28.631 19.3219 28.5811 19.1992 28.5389C18.8924 28.4162 18.9422 28.3893 19.2145 28.2474C19.3526 28.1784 19.5444 28.0557 19.7707 27.9444C19.8858 27.8907 20.0047 27.8217 20.1351 27.7833C20.2617 27.7526 20.3997 27.7335 20.5378 27.7258C21.5312 27.6491 22.5285 27.6414 23.5334 27.5762C24.5422 27.5225 25.5586 27.4688 26.5942 27.4496C27.2117 27.4381 27.8446 27.3959 28.489 27.3691C29.1372 27.3537 29.7931 27.3154 30.4912 27.4304C30.8709 27.5033 31.289 27.5992 31.6955 27.9099C31.8988 28.0595 32.0753 28.2973 32.1712 28.5504C32.2095 28.677 32.2555 28.8113 32.2594 28.9302L32.2747 29.1181C32.2747 29.1833 32.2632 29.2562 32.2555 29.3252C32.2248 29.6091 32.0906 29.8507 31.9448 30.0502C31.8681 30.1384 31.7876 30.2227 31.707 30.3071L31.4539 30.5066C31.1125 30.7406 30.7635 30.894 30.4183 31.0321C29.563 31.3504 28.7076 31.523 27.8561 31.6803C26.5635 31.9104 25.2633 32.0255 23.986 32.1712C22.9926 32.2786 22.0222 32.4436 21.0365 32.5625C20.8217 32.5893 20.6107 32.6277 20.3882 32.6353C20.185 32.6468 20.0162 32.6468 19.8743 32.6353C19.7323 32.62 19.6173 32.574 19.5214 32.5394C19.3296 32.4589 19.2184 32.3515 19.1225 32.2057C19.0803 32.1405 19.0266 32.0753 18.9998 32.0178C18.9154 31.826 19.2337 31.5882 19.8167 31.3734C20.6836 31.1625 21.5696 31.0589 22.471 30.9438C23.3685 30.8288 24.2775 30.7406 25.1865 30.6485C26.529 30.4989 27.883 30.3455 29.1334 30.0195L29.1449 30.0502L29.1525 30.0386Z" fill="#231F20"/>
<path id="Vector_51" d="M29.2141 30.5911L29.3675 30.5988C29.4404 30.5988 29.5209 30.6179 29.5976 30.6179C29.751 30.6333 29.916 30.6333 30.0617 30.664C30.3532 30.7292 30.6332 30.802 30.8595 30.9248C31.0935 31.0399 31.2738 31.201 31.4234 31.3966C31.5614 31.596 31.6727 31.8415 31.6727 32.0985C31.6995 32.3555 31.6151 32.5779 31.5307 32.7927C31.4617 32.8963 31.4042 32.9998 31.316 33.0996C31.2162 33.1955 31.1357 33.2952 31.0245 33.3872L30.6754 33.6481L30.288 33.8782C30.1384 33.9702 30.0886 33.9817 30.0004 34.0278C29.9198 34.07 29.8354 34.1083 29.7549 34.1428C29.2793 34.3615 28.819 34.5801 28.3395 34.745C26.6481 35.3127 24.9374 35.7078 23.2114 36.0146C22.4443 36.145 21.6771 36.2908 20.9139 36.4097L20.1774 36.5209C19.9281 36.5439 19.6788 36.5631 19.4295 36.5669C19.1802 36.5823 18.927 36.5669 18.6777 36.5516L18.3018 36.5132C18.1752 36.4979 18.0525 36.448 17.9259 36.4173C17.6153 36.3138 17.6613 36.3176 17.9183 36.1757C18.1752 36.0146 18.624 35.6924 19.161 35.5543L19.8744 35.3779C20.1122 35.3204 20.3539 35.2935 20.5917 35.2475C21.0711 35.1631 21.5506 35.0749 22.0338 34.979C22.5133 34.8831 22.9966 34.7872 23.476 34.6875C23.9593 34.5993 24.4464 34.5072 24.9374 34.419C26.1034 34.1965 27.2694 33.7593 28.3741 33.3182C28.6809 33.1993 28.9763 33.065 29.2639 32.9308L29.5938 32.7659C29.6513 32.739 29.7088 32.7045 29.7664 32.6661C29.8738 32.5933 30.0234 32.4897 30.0004 32.3363C29.985 32.1829 29.8393 32.1023 29.7012 32.0716C29.613 32.0486 29.5209 32.0371 29.425 32.0294C29.3982 32.0294 29.3828 32.0294 29.3406 32.0256H29.1949L28.8957 32.0371C28.4968 32.064 28.0864 32.0831 27.676 32.1215C26.4294 32.2366 25.1598 32.367 23.9094 32.5319C22.9352 32.6508 21.984 32.8579 21.0097 32.9385C20.795 32.9615 20.584 32.9883 20.3692 32.996C19.5637 33.0152 19.3029 32.8848 19.1303 32.5856C19.092 32.5165 19.0383 32.4475 19.0191 32.3823C18.9424 32.156 19.2646 31.9566 19.8322 31.8185C21.5122 31.4426 23.2689 31.2431 25.064 30.9823C25.7314 30.8826 26.4026 30.7867 27.0853 30.7023C27.7719 30.6179 28.4623 30.5259 29.2179 30.5566V30.5911H29.2141Z" fill="#231F20"/>
<path id="Vector_52" d="M27.3801 36.2487C27.3724 36.5402 27.2842 36.7934 27.0886 37.0542C26.9007 37.3112 26.6322 37.5567 26.3138 37.7676C26.1566 37.875 26.0031 37.9786 25.8344 38.0706L25.6541 38.1704L25.5045 38.2432C25.3051 38.343 25.1056 38.435 24.9062 38.5232C24.6147 38.6536 24.3347 38.7994 24.0393 38.903C22.9884 39.2597 21.9182 39.5128 20.8481 39.7161C20.3725 39.8043 19.8969 39.9155 19.4213 39.9846C19.1144 40.0268 18.8114 40.092 18.4969 40.092C18.1824 40.0843 17.8679 40.0421 17.5572 39.9271C17.3654 39.858 17.3923 39.8235 17.5495 39.6969C17.6262 39.6317 17.7375 39.5397 17.864 39.4208C17.9906 39.3134 18.1364 39.2213 18.2975 39.1523C19.4405 38.8186 20.5873 38.6153 21.7763 38.366C22.4897 38.2241 23.1725 37.8942 23.8399 37.5989C24.2081 37.4378 24.5763 37.2728 24.9215 37.0887L25.0519 37.0197C25.1018 36.989 25.0979 37.0005 25.121 36.9852L25.2399 36.9238C25.3204 36.8778 25.4048 36.8279 25.4853 36.7627C25.5774 36.6898 25.704 36.5747 25.6694 36.4443C25.6196 36.3331 25.5084 36.2602 25.3894 36.2257C25.2974 36.195 25.1977 36.1835 25.0979 36.1759C25.0481 36.1682 24.9944 36.1682 24.9407 36.1682H24.8563H24.7144C24.3347 36.1797 23.9434 36.2027 23.5522 36.2257C22.9462 36.2679 22.3478 36.3868 21.738 36.406C21.6037 36.4098 21.4733 36.429 21.3391 36.406C21.0898 36.3791 20.9248 36.3369 20.8136 36.2564C20.7024 36.1567 20.6448 36.0531 20.5988 35.9265C20.5796 35.869 20.5489 35.8153 20.5374 35.7693C20.5183 35.6849 20.5605 35.6159 20.6563 35.5238C20.7484 35.4356 20.8941 35.309 21.0706 35.2745C22.1254 34.9446 23.161 34.8756 24.2925 34.7874L24.6147 34.7759H24.7796C24.841 34.7682 24.9675 34.7759 25.0634 34.7759C25.4777 34.7759 25.8842 34.8142 26.2141 34.9293C26.567 35.0252 26.8086 35.2131 27.0272 35.4241C27.1461 35.5276 27.2229 35.658 27.2996 35.7885C27.3571 35.9304 27.407 36.0915 27.4108 36.2411L27.3763 36.2487H27.3801Z" fill="#231F20"/>
<path id="Vector_53" d="M17.4923 43.0183C16.9937 43.2868 16.4874 43.5285 15.9619 43.7126C15.7739 43.7855 15.5975 43.8852 15.4019 43.9351C14.723 44.1383 14.0211 44.2304 13.3383 44.3071C13.0315 44.3378 12.7285 44.3838 12.4293 44.4068C12.2375 44.4222 12.0419 44.4644 11.8463 44.4605C11.6507 44.472 11.4551 44.4145 11.2633 44.3608C11.1444 44.3186 11.1636 44.146 11.2633 43.9504C11.363 43.7624 11.5318 43.4901 11.7351 43.4403C12.0918 43.3789 12.4447 43.3137 12.8052 43.2523C12.9816 43.2178 13.1657 43.2216 13.346 43.2025C13.5263 43.1833 13.7104 43.1718 13.8945 43.1641C14.117 43.1526 14.3318 43.0874 14.5466 43.0222C14.7575 42.9493 14.9646 42.8534 15.1756 42.7844C15.632 42.6041 16.0923 42.42 16.518 42.1707C16.7865 42.0288 17.0359 41.8562 17.289 41.6836C17.6534 41.4074 18.0254 41.1159 18.2901 40.7477C18.4013 40.6096 18.4819 40.4562 18.5624 40.2989L18.6813 40.0726L18.781 39.8386C18.8117 39.7696 18.8462 39.7044 18.8884 39.643C18.9498 39.5203 19.0188 39.4513 19.1109 39.4129C19.1914 39.3745 19.2758 39.3592 19.3756 39.363C19.4216 39.363 19.4676 39.3592 19.506 39.363C19.6325 39.3745 19.7169 39.5318 19.7629 39.8118C19.786 40.6096 19.3871 41.3614 18.8501 41.9329C18.4588 42.3701 18.0024 42.7383 17.5191 43.0414L17.5 43.0145L17.4923 43.0183Z" fill="#231F20"/>
<path id="Vector_54" d="M58.2952 66.5805C58.3911 67.5356 58.4908 68.4945 58.6174 69.4496C58.6634 69.7986 58.7478 70.14 58.79 70.489C58.9319 71.7279 59.07 72.9668 59.2119 74.2057C59.2656 74.758 59.3423 75.3065 59.419 75.8512C59.5533 76.5454 59.5456 77.2588 59.5073 77.9722C59.4919 78.1947 59.3922 78.1755 59.2311 78.0106C59.0777 77.8418 58.8207 77.535 58.6788 77.1476L58.4985 76.6336C58.4371 76.461 58.418 76.2846 58.3796 76.112C58.3067 75.7629 58.2338 75.4139 58.1725 75.0649C58.0306 74.3668 57.9577 73.6572 57.8963 72.9399C57.8273 72.0808 57.5895 71.2101 57.4322 70.3432C57.2634 69.3882 57.1062 68.4255 56.9604 67.4589L56.7034 65.6792C56.5769 64.7778 56.4771 63.8726 56.3199 62.9866C56.2087 62.2962 55.9747 61.6365 55.8481 60.9537C55.8174 60.8042 55.7752 60.6584 55.7522 60.505C55.6985 60.225 55.7522 60.0294 55.8059 59.8875C55.8673 59.7455 55.9708 59.6573 56.1281 59.5729C56.201 59.5346 56.27 59.4886 56.3391 59.4655C56.573 59.3812 56.8223 59.5806 57.0333 59.9718C57.5665 61.1417 57.7391 62.4228 57.9385 63.7039C58.0766 64.6589 58.2032 65.6178 58.3297 66.5767L58.2952 66.5844V66.5805Z" fill="#231F20"/>
<path id="Vector_55" d="M82.9468 32.1945C83.3303 33.0191 83.7446 33.8323 84.0438 34.6876C84.201 35.1172 84.3813 35.5238 84.5194 35.9687C84.6651 36.4098 84.784 36.8547 84.8991 37.2958C85.3402 39.0717 85.5588 40.8782 85.6279 42.681C85.67 43.9966 85.6624 45.3198 85.5013 46.6316C85.2213 48.9368 84.6268 51.2113 83.6871 53.3362C82.7742 55.4726 81.4739 57.4249 79.9589 59.1625C78.6011 60.6967 77.04 62.0506 75.3753 63.1975C73.2351 64.6512 70.9107 65.9399 68.3601 66.4386C67.9535 66.4884 67.7732 66.4846 67.7655 66.4309C67.7579 66.3734 67.9228 66.2544 68.1875 66.0051C68.4559 65.7635 68.8203 65.3953 69.3036 65.0808C69.7677 64.7202 70.3315 64.3712 70.9452 64.0145C73.1737 62.8561 75.2871 61.4907 77.0975 59.7915C78.0296 58.9707 78.858 58.0425 79.6443 57.0797C80.4191 56.1055 81.0942 55.0507 81.7041 53.9537C83.1539 51.3033 83.8251 48.1428 83.9747 45.0513C84.0706 43.3483 83.9747 41.63 83.7254 39.9385C83.595 39.0947 83.4186 38.2585 83.1999 37.4377C83.0887 37.0273 82.9621 36.6246 82.8202 36.2257L82.3484 35.029C81.5391 33.0767 80.5035 31.2126 79.2531 29.5057L78.509 28.5622C78.3824 28.4049 78.2674 28.24 78.1331 28.0942L77.7266 27.6493C77.4542 27.354 77.1896 27.0509 76.9096 26.7594L76.0351 25.931L75.594 25.5206L75.126 25.1408L74.1901 24.3852L73.2006 23.7025L72.7058 23.365L72.188 23.0658C70.0515 21.8 67.7387 20.9754 65.3683 20.4614C65.1075 20.4116 64.8467 20.3579 64.5858 20.308C64.325 20.2543 64.0642 20.2044 63.7995 20.1737C63.3086 20.0932 62.902 20.0127 62.5607 19.9359C62.2231 19.8477 61.9431 19.8209 61.7168 19.748C61.4905 19.679 61.3103 19.6061 61.1645 19.5217C61.0188 19.4296 60.9037 19.3222 60.8001 19.2149C60.7042 19.1151 60.5777 19.0192 60.524 18.9348C60.4319 18.7929 60.5968 18.6855 60.9842 18.559C61.1798 18.4861 61.4292 18.4477 61.7283 18.417C62.0275 18.394 62.3765 18.3518 62.7678 18.3864C67.4127 18.5781 72.2071 20.5611 76.0581 23.6641C76.7945 24.2165 77.4466 24.8762 78.1255 25.4975C78.4476 25.8274 78.7545 26.1726 79.069 26.5101L79.5369 27.0203L79.9665 27.5611C80.2504 27.9255 80.5457 28.2783 80.818 28.6504L81.5967 29.7934C81.8651 30.1654 82.0876 30.572 82.3216 30.9709C82.5441 31.3737 82.7972 31.7611 82.9928 32.1753L82.9545 32.1983L82.9468 32.1945Z" fill="#231F20"/>
<path id="Vector_56" d="M61.4368 6.89482L61.479 6.25044L61.5058 5.92058L61.5212 5.75181L61.5519 5.49866C61.5595 5.41045 61.5749 5.3184 61.5941 5.22251C61.6132 5.13045 61.6247 5.02689 61.6669 4.95018C61.7015 4.8658 61.7321 4.77758 61.7858 4.70853L61.8587 4.59731L61.8971 4.53977L61.9546 4.50525C62.1042 4.4132 62.2538 4.32498 62.4456 4.27128C62.5376 4.24059 62.622 4.20608 62.7179 4.18306L62.925 4.1332C63.765 3.93758 64.5896 3.76115 65.4181 3.58471C66.0242 3.4543 66.6187 3.28937 67.2247 3.17047C69.3573 2.73705 71.509 2.39952 73.6493 2.01596C74.6005 1.85103 75.5479 1.64007 76.4876 1.44829C77.0898 1.32939 77.6958 1.19898 78.3057 1.09158L78.766 1.0187L79.2339 0.991853C79.3912 0.988017 79.5484 0.980347 79.7057 0.980347C79.8629 0.980347 80.0279 1.02254 80.1928 1.04556C80.3999 1.08391 80.492 1.13761 80.4843 1.18363C80.4766 1.23349 80.3807 1.2872 80.235 1.40994C79.9435 1.66692 79.4334 2.1387 78.7545 2.32664C76.3419 2.93266 73.8794 3.38909 71.3786 3.76115C69.8828 3.98744 68.36 4.37868 66.845 4.68552L64.3518 5.19566L63.1513 5.45648L63.0171 5.48716C62.9749 5.49866 62.9173 5.50634 62.9097 5.5562C62.879 5.64442 62.8713 5.7173 62.8521 5.86688C62.7601 6.87564 62.7256 7.9381 62.6719 8.98137C62.599 10.5693 62.4724 12.1687 62.342 13.7452C62.2346 14.9726 62.1962 16.1884 62.016 17.4005C61.9738 17.669 61.9508 17.9298 61.8932 18.1983C61.7973 18.6931 61.7015 19.0153 61.5864 19.2301C61.456 19.441 61.3141 19.5446 61.1491 19.6136C61.0763 19.6443 61.0034 19.6942 60.942 19.7095C60.8384 19.7325 60.7771 19.6366 60.7119 19.4372C60.6467 19.2377 60.6083 18.9424 60.6505 18.5857C60.8078 16.4531 61.0302 14.2361 61.1721 11.977C61.2795 10.3008 61.3486 8.617 61.4138 6.89866H61.4483L61.4368 6.89482Z" fill="#231F20"/>
<path id="Vector_57" d="M56.6237 6.80279C56.6505 6.52279 56.6697 6.23512 56.7579 5.99348C56.8193 5.88608 56.9229 5.81704 57.0034 5.72499H57.0073V5.71732C57.0188 5.72882 56.8999 5.61759 56.9536 5.66362H56.9651L56.9881 5.64828L57.0341 5.6291L57.1262 5.59074L57.3064 5.51403L58.0275 5.21869L58.4686 5.11513C59.0555 4.97321 59.6346 4.84664 60.2176 4.71623L63.7042 3.96829C64.5518 3.78802 65.388 3.56939 66.2357 3.39679C69.2274 2.79076 72.2269 2.23844 75.2263 1.68228C76.5572 1.43297 77.8843 1.14146 79.1961 0.849959C80.8876 0.497086 82.5753 0.113531 84.3665 0.236269C84.9226 0.274625 84.8421 0.301474 84.4202 0.535444C84.2092 0.650512 83.9177 0.846124 83.5687 1.09544C83.2158 1.31406 82.7939 1.52502 82.3221 1.69379C82.1112 1.76666 81.904 1.84338 81.6969 1.90858L81.0602 2.07734C80.6344 2.18474 80.2125 2.30748 79.783 2.39954C78.9199 2.5683 78.0569 2.73707 77.1939 2.90583C75.4641 3.23186 73.7227 3.53487 71.966 3.80336C69.8641 4.11788 67.72 4.64336 65.5913 5.07294C63.2554 5.55239 60.908 6.01266 58.6029 6.54964L58.2423 6.63402L58.1157 6.66471C58.0659 6.66854 58.0735 6.73375 58.062 6.76827C58.0467 6.86032 58.039 6.91786 58.0275 7.04443L57.9892 7.58524C57.947 8.31017 57.9163 9.04277 57.8894 9.77536C57.8166 11.9962 57.7322 14.2285 57.7782 16.4378C57.7859 16.8674 57.7974 17.2931 57.8127 17.7189L57.8357 18.1753L57.8588 18.486C57.9546 18.5167 58.0735 18.4783 58.1733 18.4745L58.3229 18.4553H58.365L58.4456 18.4438L58.6067 18.4323C59.0363 18.4016 59.4735 18.3709 59.9146 18.3709C60.302 18.3709 60.6856 18.3709 61.0845 18.4093C61.8209 18.486 62.3157 18.6317 62.634 18.8043C62.9562 18.9731 63.0982 19.1917 63.1595 19.4334C63.1864 19.5484 63.2286 19.6635 63.2247 19.7556C63.2132 19.9128 63.056 19.9703 62.8028 19.9972C62.5458 20.0279 62.1968 19.978 61.7289 19.932C61.0385 19.8591 60.3135 19.8629 59.5694 19.8936C59.1974 19.9013 58.8215 19.9166 58.4418 19.932L57.9201 19.9473C57.7322 19.955 57.5442 19.9588 57.3678 19.9397C57.1914 19.9243 57.0264 19.8936 56.9459 19.7709L56.827 19.606L56.8193 19.5945V19.5868H56.8116C56.8922 19.5024 56.7004 19.698 56.7196 19.6788L56.7081 19.652L56.6889 19.6021L56.6467 19.4986L56.4818 19.0805L56.4396 18.9769L56.4204 18.9232V18.8542V18.5819L56.4281 17.6843C56.4281 17.2854 56.4357 16.8865 56.4396 16.4876C56.4511 15.686 56.4664 14.8844 56.4779 14.0789C56.4664 12.8822 56.4664 11.6855 56.4779 10.4849L56.5048 8.67839L56.5355 7.76936L56.5547 7.30908L56.5853 6.78744H56.6199L56.6237 6.80279Z" fill="#231F20"/>
<path id="Vector_58" d="M65.948 82.2985L64.7168 76.5566C64.5672 75.8586 64.3754 75.172 64.2297 74.4739L62.73 67.0751C62.6226 66.588 62.519 66.097 62.4116 65.6099L62.4461 65.0077L62.4538 64.8581C62.4922 64.8159 62.5344 64.8082 62.5765 64.7929C62.6609 64.766 62.7492 64.7507 62.8527 64.7392C63.0522 64.7124 63.3168 64.7545 63.5891 64.8159C63.85 64.8734 64.1453 64.9502 64.3869 65.0115C65.085 65.1803 65.7716 65.3759 66.4543 65.583C67.1371 65.794 67.816 66.0088 68.4527 66.354C68.8286 66.6493 68.7633 66.6608 68.3299 66.8066C68.1113 66.8871 67.8198 66.937 67.4708 66.983C67.1256 67.0137 66.742 66.983 66.3431 66.8948C65.599 66.7145 64.8511 66.5688 64.1261 66.3578L64.0072 66.3271V66.3233C64.0072 66.3233 63.9996 66.3156 63.9957 66.3118C63.9765 66.2964 63.9689 66.3003 63.9689 66.3118C63.9535 66.3118 63.965 66.3233 63.9574 66.331V66.3386C63.9574 66.3386 63.9535 66.3386 63.9574 66.3463L63.9689 66.4077L64.0187 66.6608L64.222 67.6734C64.3524 68.3485 64.479 69.0274 64.6017 69.7101C64.9047 71.4361 65.3995 73.189 65.8023 74.9303L67.1294 80.6837C67.4055 81.8612 67.6817 83.0426 67.954 84.2201C68.1688 85.11 68.3875 86.0037 68.6022 86.8935C68.7135 87.3346 68.8286 87.7796 68.9551 88.2091L69.0242 88.4393C69.0472 88.5006 69.0587 88.5697 69.1277 88.5927C69.1891 88.6195 69.2466 88.6464 69.308 88.6694L69.6072 88.7806C70.9266 89.2447 72.2806 89.5823 73.6269 89.9658C73.9222 90.0502 74.2175 90.1193 74.5167 90.2113C74.7929 90.2957 75.0192 90.3762 75.2071 90.453C75.3912 90.5335 75.5332 90.6256 75.6444 90.7099C75.7556 90.7943 75.84 90.8749 75.9014 90.9669C75.9589 91.0666 75.9973 91.174 76.0279 91.2699C76.0548 91.3581 76.1047 91.4464 76.1162 91.5077C76.1699 91.6765 75.6022 91.8913 74.7699 91.7302C73.5502 91.454 72.3074 91.1242 71.0532 90.7445C70.4242 90.5565 69.799 90.3609 69.1546 90.1346L68.9091 90.0464L68.771 89.9927C68.6981 89.9658 68.6214 89.9352 68.5447 89.9006C68.2762 89.7357 67.9579 89.6091 67.839 89.3023C67.7469 89.1719 67.7047 89.0184 67.6549 88.8727C67.5935 88.6962 67.5782 88.6387 67.5513 88.5543L67.4055 88.0634C66.8609 86.1456 66.3814 84.2316 65.9212 82.31L65.9557 82.2985H65.948Z" fill="#231F20"/>
<path id="Vector_59" d="M113.286 60.3244C112.707 59.0395 112.136 57.7546 111.541 56.4812C111.326 56.0171 111.062 55.576 110.847 55.108C110.08 53.4702 109.37 51.7979 108.603 50.1563C108.265 49.4275 107.882 48.7141 107.498 48.016C107.241 47.5711 107.011 47.1147 106.793 46.6467C106.689 46.4128 106.57 46.1826 106.497 45.9333C106.424 45.6802 106.363 45.4232 106.321 45.1585C106.275 44.821 106.359 44.8248 106.67 44.9667C106.823 45.0396 107.061 45.1317 107.299 45.2659C107.418 45.335 107.556 45.404 107.667 45.4961C107.771 45.5919 107.87 45.7032 107.955 45.8259L108.4 46.478L108.622 46.804L108.81 47.1492C109.059 47.6095 109.301 48.0736 109.539 48.5415C110.011 49.4774 110.456 50.4325 110.862 51.4105C111.353 52.5804 112.009 53.7234 112.565 54.8894C113.175 56.1743 113.766 57.4708 114.352 58.7672L115.43 61.1606C115.979 62.365 116.508 63.5847 117.095 64.7622C117.544 65.6789 118.077 66.5342 118.549 67.4279C118.645 67.6274 118.752 67.8192 118.84 68.0224C118.925 68.2142 118.986 68.3715 119.032 68.5134C119.07 68.6553 119.074 68.7819 119.078 68.8893C119.078 69.1002 119.04 69.246 118.967 69.3802C118.932 69.4416 118.909 69.5145 118.875 69.5567C118.813 69.6296 118.717 69.6065 118.568 69.5107C118.422 69.4148 118.211 69.2537 117.992 69.0197C117.72 68.6515 117.444 68.2756 117.179 67.892C116.938 67.497 116.7 67.0942 116.47 66.6838C116.009 65.863 115.568 65.0192 115.135 64.1677C114.494 62.9058 113.881 61.6209 113.252 60.3474L113.286 60.3283V60.3244Z" fill="#231F20"/>
<path id="Vector_60" d="M92.7895 11.049C93.4837 12.518 94.1588 13.9986 94.8338 15.4791C95.0793 16.0199 95.3593 16.5415 95.5971 17.0862C95.8081 17.5657 96.0114 18.0489 96.207 18.5322C96.4064 19.0155 96.6021 19.5026 96.79 19.9897C97.1505 20.9755 97.5379 21.9459 97.887 22.9355C98.2053 23.81 98.5697 24.6653 98.9034 25.5283C99.1297 26.0768 99.3483 26.6291 99.5171 27.1968C99.5976 27.4845 99.6974 27.7645 99.7472 28.0598C99.7971 28.3551 99.8316 28.6581 99.847 28.965C99.8585 29.3486 99.7741 29.3255 99.4711 29.0992C99.3215 28.9842 99.0913 28.8346 98.8651 28.6313C98.7538 28.5316 98.6196 28.4242 98.5198 28.2976C98.4239 28.171 98.3396 28.0291 98.2667 27.8757C98.1363 27.6072 98.0174 27.3349 97.8793 27.0664L97.6799 26.6636L97.5149 26.2494C97.2925 25.6971 97.093 25.1371 96.8667 24.5848C96.6481 24.0286 96.4371 23.4724 96.2338 22.9086C96.0229 22.3486 95.8119 21.7848 95.6163 21.2133C95.1292 19.8555 94.4541 18.513 93.8443 17.1667C93.1846 15.6824 92.5057 14.2057 91.8152 12.7328C91.3857 11.8276 90.9561 10.9186 90.5265 10.0134C89.8629 8.64408 89.2109 7.26327 88.5205 5.91698C87.9873 4.86986 87.389 3.87645 86.8635 2.8255C86.7599 2.58769 86.6487 2.35756 86.5528 2.11591C86.4646 1.88961 86.3917 1.7055 86.3534 1.5329C86.3188 1.36414 86.3188 1.21455 86.3188 1.09565C86.3227 0.854005 86.3725 0.696746 86.4531 0.562501C86.4915 0.501131 86.5183 0.424419 86.5567 0.382228C86.6219 0.313187 86.7216 0.35538 86.8712 0.48579C87.0169 0.6162 87.2241 0.82332 87.4273 1.10715C87.7035 1.54441 87.9797 1.98167 88.2597 2.42659C88.5281 2.87919 88.7736 3.3433 89.0383 3.81124C89.5561 4.74712 90.0739 5.70602 90.584 6.67259C91.3473 8.1071 92.0914 9.56845 92.8355 11.026L92.801 11.0452L92.7895 11.049Z" fill="#231F20"/>
<path id="Vector_61" d="M71.3826 74.8153C71.7009 76.0235 72.0385 77.2317 72.3952 78.4322C72.5256 78.8695 72.6943 79.2952 72.8248 79.7363L74.2171 84.3812C74.4204 85.0716 74.6543 85.7505 74.8845 86.4218C75.176 87.2886 75.4253 88.1746 75.6286 89.0721C75.6899 89.3521 75.6056 89.3406 75.4253 89.1488C75.2488 88.9571 74.9343 88.5965 74.6889 88.1248C74.4779 87.7067 74.2554 87.2924 74.056 86.8667L73.5267 85.5703C73.3541 85.1368 73.1891 84.6996 73.0319 84.2585C72.8861 83.8135 72.7519 83.361 72.6253 82.9084C72.3223 81.8229 71.862 80.7413 71.49 79.6519C71.0796 78.4514 70.696 77.2432 70.3163 76.0312C70.09 75.2832 69.856 74.5391 69.6412 73.7873C69.3037 72.652 69.0122 71.4975 68.6747 70.3737C68.4253 69.4953 68.1147 68.6477 67.8654 67.777C67.8078 67.5852 67.7388 67.4011 67.6927 67.2055C67.5355 66.4767 67.5969 66.2197 67.8769 65.9973C67.9382 65.9474 67.9958 65.886 68.0571 65.8515C68.2489 65.7403 68.5558 65.9819 68.7782 66.4806C69.0966 67.2247 69.3689 67.9994 69.6412 68.7857C69.9174 69.5682 70.1629 70.3737 70.3853 71.1868C70.7305 72.3912 71.0796 73.6032 71.4248 74.8114L71.3903 74.8229L71.3826 74.8153Z" fill="#231F20"/>
<path id="Vector_62" d="M78.5895 31.642L78.9385 32.2212L79.1111 32.5127L79.2607 32.8157L79.8552 34.0278C80.0317 34.442 80.1851 34.8639 80.35 35.2782C80.5265 35.6924 80.6492 36.122 80.7758 36.5516C81.3319 38.2546 81.6196 40.0343 81.7462 41.8102C81.8267 43.1104 81.8382 44.4145 81.6887 45.711C81.4202 47.9931 80.7489 50.2254 79.7287 52.2775C79.207 53.2977 78.5972 54.2681 77.9183 55.1848C77.2355 56.1016 76.4569 56.9339 75.6399 57.724C74.1671 59.0971 72.5331 60.3015 70.7994 61.2719C69.6794 61.8818 68.5403 62.4686 67.3359 62.8867L66.4269 63.182C66.12 63.2703 65.8132 63.347 65.5102 63.439C64.908 63.6308 64.2904 63.7766 63.6767 63.9185C62.9096 64.0949 62.9825 63.9415 63.5694 63.5925C64.1524 63.2396 65.2647 62.7294 66.5074 62.0237C67.0597 61.7168 67.6236 61.4445 68.1836 61.1722C68.7512 60.9114 69.2805 60.5892 69.829 60.2977C70.8838 59.6495 71.9501 59.0204 72.9282 58.2687C74.8805 56.7728 76.6103 54.9739 77.9068 52.8566C79.4985 50.3367 80.2388 47.2145 80.3539 44.1729C80.4267 42.4929 80.2925 40.8014 79.9665 39.1444C79.8898 38.7302 79.7862 38.3198 79.6903 37.9094L79.3221 36.6973C79.2147 36.2869 79.0459 35.8995 78.8925 35.5083C78.7314 35.1171 78.601 34.7143 78.3977 34.3423C77.5232 32.459 76.3419 30.71 74.8882 29.2256C73.7874 28.0941 72.5216 27.1314 71.1791 26.3029C69.8214 25.4936 68.3485 24.8876 66.8488 24.4196C66.2543 24.2777 65.6674 24.1205 65.0729 24.0016C64.4707 23.9133 63.88 23.7944 63.2779 23.7407C62.6757 23.7062 62.0773 23.6295 61.4751 23.6257H60.5699L59.9486 23.6142H59.7645L59.6724 23.6065C59.6456 23.5988 59.6302 23.5643 59.611 23.5451L59.3732 23.2613C59.1776 23.012 58.9858 22.7665 58.7941 22.5172C58.633 22.3062 58.4757 22.0953 58.3146 21.8805C58.0193 21.4969 57.7584 21.1901 57.536 20.9254C57.3174 20.6608 57.1448 20.4383 57.0067 20.2465C56.7343 19.863 56.6231 19.5945 56.5848 19.326C56.5656 19.2032 56.5272 19.0575 56.5387 18.9654C56.5656 18.6624 57.3212 19.0613 58.445 20.1008C58.8516 20.492 59.2582 20.9331 59.6225 21.3857L60.148 22.0339L60.2746 22.1873C60.2746 22.1873 60.2938 22.2027 60.3014 22.2103C60.3168 22.2257 60.3321 22.241 60.359 22.2257C60.2669 22.218 60.7157 22.2142 60.9765 22.2065C61.2718 22.2027 61.5633 22.1988 61.8587 22.195C62.4494 22.2333 63.0439 22.2717 63.6384 22.3062C66.0203 22.5325 68.4099 23.2229 70.6153 24.3084C72.2493 25.1254 73.772 26.1725 75.1336 27.3999C76.5106 28.6158 77.6536 30.0733 78.624 31.6152L78.5933 31.6382L78.5895 31.642Z" fill="#231F20"/>
<path id="Vector_63" d="M104.012 79.4873L97.4494 82.5404C96.6516 82.9125 95.8729 83.319 95.0713 83.6873L86.5908 87.5075C85.3328 88.0675 84.0862 88.662 82.855 89.2527C82.061 89.6247 81.2862 90.039 80.4731 90.3727C80.0703 90.5453 79.6638 90.714 79.2572 90.879C78.8506 91.0477 78.421 91.159 78.003 91.3009C77.4736 91.462 77.5043 91.3546 77.8495 91.0017C78.0221 90.8253 78.2676 90.576 78.5668 90.2845C78.8736 90.0083 79.2572 89.7321 79.6945 89.4751C80.0857 89.2565 80.4654 89.0149 80.8643 88.8154L82.061 88.2132C82.8626 87.8182 83.6643 87.4231 84.4698 87.028C85.2752 86.6368 86.0845 86.2533 86.8977 85.8735C87.7147 85.5053 88.5431 85.1448 89.3716 84.7919C91.3585 83.9481 93.3415 82.8933 95.3283 81.9344L101.883 78.7777C103.226 78.1257 104.572 77.4774 105.914 76.8254C107.944 75.8281 109.988 74.8386 111.975 73.7915C113.52 72.9821 114.982 72.0846 116.485 71.2408C116.819 71.0567 117.134 70.8611 117.475 70.6846C118.76 70.0786 119.224 69.9904 119.65 70.1515C119.746 70.1898 119.865 70.2128 119.934 70.2627C120.171 70.42 119.761 70.8917 118.913 71.5131C118.292 71.9887 117.625 72.403 116.949 72.8134C116.274 73.2276 115.576 73.615 114.874 74.0062C113.467 74.7849 112.021 75.5405 110.563 76.2807C108.404 77.3854 106.21 78.4517 104.024 79.5256L104.004 79.4911L104.012 79.4873Z" fill="#231F20"/>
<path id="Vector_64" d="M97.008 29.9813C98.4042 29.6898 99.8157 29.5287 101.223 29.4674L101.753 29.4444C101.925 29.4367 102.136 29.4482 102.324 29.452C102.712 29.4482 103.095 29.5096 103.479 29.5671C103.67 29.5863 103.858 29.6476 104.042 29.6937C104.227 29.7474 104.418 29.7819 104.599 29.8509C104.955 29.9929 105.324 30.1079 105.657 30.292C106.651 30.7791 107.56 31.4005 108.327 32.1446C108.998 32.8043 109.585 33.5254 110.126 34.2695C110.651 35.0213 111.127 35.7999 111.556 36.5939C112.408 38.1895 113.075 39.858 113.658 41.5418C114.168 43.0377 114.644 44.5527 115.047 46.0639C115.3 47.0382 115.553 48.0163 115.726 49.0097C115.806 49.5083 115.906 50.0031 115.921 50.5132C115.937 51.0234 115.929 51.5335 115.879 52.0398C115.81 52.6765 115.741 52.5883 115.473 52.0896C115.346 51.8403 115.12 51.4951 114.905 51.0771C114.794 50.8699 114.663 50.6475 114.567 50.4058C114.479 50.1604 114.41 49.9034 114.349 49.6272C113.486 45.7494 112.327 41.9177 110.667 38.3046C109.685 36.149 108.223 34.0777 106.39 32.6547C105.389 31.8723 104.242 31.3008 103.015 31.1435C102.712 31.0822 102.401 31.086 102.086 31.0783C101.776 31.0668 101.419 31.1013 101.089 31.109C100.418 31.155 99.7428 31.2049 99.0792 31.2969C97.4376 31.5041 95.8075 31.8569 94.2618 32.4246C93.0957 32.858 91.9566 33.4027 90.9747 34.1276C90.7445 34.2964 90.4569 34.538 90.361 34.6377C90.2344 34.7681 90.104 34.9024 90.0349 35.075C89.9927 35.1632 90.0426 35.2591 90.1001 35.3243C90.1577 35.3972 90.2421 35.4355 90.3264 35.4701C90.5029 35.5238 90.6793 35.5314 90.8711 35.5238L91.0168 35.5161L91.1894 35.5046L91.5423 35.4662C91.7763 35.4355 92.0141 35.3972 92.2519 35.3512C92.7237 35.2591 93.1955 35.1517 93.6672 35.0366C94.6108 34.8065 95.5582 34.5534 96.5286 34.3424C96.9582 34.2503 97.3762 34.1506 97.8212 34.0854C98.2316 34.024 98.5806 33.9934 98.8798 33.9857C99.1751 33.9857 99.4206 34.024 99.6201 34.0624C99.8234 34.1123 99.9768 34.1621 100.1 34.2388C100.222 34.3232 100.314 34.4076 100.391 34.4997C100.46 34.584 100.548 34.6646 100.583 34.7221C100.636 34.8257 100.491 34.8755 100.207 34.9676C100.061 35.0328 99.8885 35.0558 99.6814 35.098C99.4743 35.1364 99.2327 35.1939 98.9565 35.2361C97.3149 35.4777 95.608 35.9879 93.813 36.4059C93.3604 36.5095 92.904 36.6092 92.4322 36.6974C91.9566 36.7857 91.4886 36.8739 90.9325 36.9046C90.71 36.9007 90.4914 36.9199 90.2689 36.8931C90.0464 36.87 89.8163 36.8547 89.6245 36.778C89.2218 36.6629 88.8843 36.4635 88.6695 36.1566C88.5621 36.007 88.4739 35.8383 88.401 35.658C88.355 35.4701 88.3358 35.2898 88.3434 35.1134C88.401 34.7605 88.5621 34.3846 88.8459 34.0355C88.9571 33.909 89.053 33.7709 89.1719 33.6597L89.3484 33.4871C89.4059 33.4295 89.4711 33.3643 89.498 33.3413C89.6437 33.2071 89.7971 33.0843 89.9467 32.9616C90.2497 32.7238 90.5604 32.5052 90.8788 32.3057C91.5116 31.903 92.1714 31.5654 92.8426 31.2624C94.185 30.6679 95.5812 30.2383 96.985 29.9315L96.9965 29.9698L97.008 29.9813Z" fill="#231F20"/>
<path id="Vector_65" d="M91.9949 40.6098C91.4809 40.675 90.9631 40.7287 90.4223 40.7594L90.0119 40.7748H89.7856C89.6782 40.7786 89.5593 40.7671 89.448 40.7633C88.9839 40.7633 88.585 40.6328 88.2475 40.4526C88.0519 40.3145 87.8793 40.1342 87.7412 39.9348C87.6031 39.7315 87.5417 39.4822 87.5456 39.2405C87.5533 38.88 87.7028 38.5424 87.9253 38.2203C88.0519 38.0668 88.1976 37.9134 88.3434 37.7638C88.4163 37.6909 88.5045 37.6219 88.5927 37.5529C88.6771 37.4877 88.7116 37.457 88.773 37.4186C89.5593 36.8855 90.3609 36.5173 91.1702 36.1682C91.9757 35.8192 92.8003 35.5353 93.625 35.2707L94.722 34.9063L95.2666 34.7222L95.8189 34.5649L96.5323 34.3732C96.774 34.3195 97.0195 34.285 97.2649 34.2466C97.5104 34.2159 97.7559 34.1814 98.0091 34.1852C98.2622 34.1929 98.5154 34.2044 98.7685 34.2313C99.083 34.2773 99.0332 34.2658 98.7915 34.3732C98.6688 34.4307 98.5038 34.5304 98.3159 34.6839C98.22 34.7529 98.1203 34.845 98.0129 34.9217C97.9017 34.9907 97.7866 35.0597 97.6639 35.125C97.4452 35.2323 97.2266 35.3512 97.0118 35.4663C96.797 35.5814 96.5669 35.6581 96.3482 35.7616C96.1258 35.8537 95.9071 35.9611 95.6808 36.0493L94.9981 36.2871C94.0814 36.5978 93.1839 36.9507 92.2518 37.2422C91.6995 37.4225 91.1625 37.6718 90.6486 37.9518C90.3916 38.0937 90.1461 38.2433 89.9121 38.4005C89.7971 38.4811 89.682 38.5578 89.5746 38.6383L89.5247 38.6767L89.4979 38.6959C89.4787 38.7112 89.4595 38.7266 89.4365 38.7419C89.356 38.8071 89.2678 38.8877 89.2409 39.0027C89.2141 39.1178 89.2984 39.2252 89.402 39.2712C89.4595 39.3019 89.5286 39.3096 89.5976 39.3211C89.6321 39.3249 89.6667 39.3288 89.705 39.3326C89.7357 39.3326 89.7741 39.3326 89.8738 39.3326C90.2036 39.3211 90.5488 39.2904 90.894 39.2482C91.6918 39.1485 92.4973 39.0104 93.3028 38.857C94.5225 38.6192 95.7576 38.3852 96.9696 38.1052C97.9132 37.8904 98.826 37.6027 99.7811 37.3956C99.992 37.3457 100.199 37.3112 100.414 37.2882C100.817 37.2499 101.089 37.2767 101.285 37.3534C101.48 37.4532 101.595 37.5759 101.687 37.7331C101.73 37.806 101.783 37.8712 101.806 37.9326C101.848 38.04 101.791 38.1435 101.657 38.2701C101.526 38.3929 101.323 38.5655 101.055 38.646C100.855 38.7266 100.656 38.7879 100.456 38.8608C100.257 38.9337 100.053 39.0066 99.8463 39.0526C99.4321 39.16 99.014 39.2674 98.5959 39.3748C97.7521 39.5896 96.8814 39.766 95.9992 39.9386C94.6913 40.1956 93.3603 40.4372 91.9987 40.6444L91.991 40.606L91.9949 40.6098Z" fill="#231F20"/>
<path id="Vector_66" d="M94.906 45.4158C94.7641 45.4695 94.6183 45.5193 94.4687 45.5654C94.3958 45.5884 94.3191 45.6152 94.2424 45.6344L93.9778 45.7111C93.46 45.8568 92.9345 45.9412 92.4972 45.8722L92.3361 45.8453L92.1904 45.7955C92.0907 45.7686 92.0024 45.7111 91.9104 45.6651C91.7378 45.5538 91.5882 45.3889 91.4885 45.1971C91.3082 44.8059 91.2929 44.3648 91.4233 43.9276C91.4731 43.7703 91.5268 43.6092 91.5959 43.4481C91.6457 43.2832 91.7531 43.1336 91.8452 42.9763L91.9181 42.8613C91.9296 42.8114 91.9564 42.7807 91.9833 42.7462C92.0255 42.6887 92.0561 42.6426 92.0945 42.5966C92.1674 42.4969 92.2518 42.4163 92.3323 42.3281C92.9115 41.7374 93.5328 41.2657 94.1657 40.8246C94.8063 40.395 95.466 40.0153 96.1257 39.6432C96.7125 39.3133 97.2764 38.9528 97.8709 38.646L98.4347 38.3429C98.6303 38.2547 98.8298 38.1742 99.0292 38.0975C99.2325 38.0246 99.432 37.944 99.6468 37.9019C99.8654 37.8597 100.084 37.8251 100.299 37.7906C100.575 37.7599 100.556 37.8175 100.414 38.0361C100.341 38.1473 100.245 38.3084 100.13 38.504C100.073 38.5999 100.015 38.715 99.9421 38.8109C99.8692 38.9029 99.7848 38.9912 99.6928 39.0717C98.4117 40.2262 96.912 40.9435 95.466 41.7988C94.5953 42.2821 93.7937 42.9993 93.2107 43.6782C93.1339 43.755 93.0764 43.8317 93.0265 43.9314C92.9767 44.0273 92.9498 44.1538 92.992 44.2612C93.0457 44.3686 93.1761 44.3802 93.2874 44.3763C93.3449 44.3763 93.4063 44.3648 93.4638 44.3571L93.5559 44.338C93.5942 44.3303 93.6019 44.3303 93.6786 44.3073C94.323 44.1155 94.9789 43.847 95.6232 43.5593C96.6013 43.1182 97.587 42.6541 98.5306 42.1402C99.267 41.7413 99.9498 41.2695 100.671 40.8399C100.828 40.744 100.985 40.6558 101.154 40.5753C101.311 40.5024 101.446 40.4487 101.561 40.4142C101.68 40.3835 101.787 40.3835 101.875 40.3873C102.056 40.395 102.19 40.4679 102.32 40.5791C102.378 40.629 102.447 40.675 102.489 40.7248C102.627 40.8821 102.474 41.2158 102.102 41.5725C101.806 41.795 101.519 42.0481 101.2 42.2437C100.886 42.447 100.56 42.6465 100.23 42.8382C99.5662 43.2256 98.8797 43.5977 98.1816 43.9582C97.1383 44.4914 96.072 45.0015 94.9252 45.4503L94.9098 45.4158H94.906Z" fill="#231F20"/>
<path id="Vector_67" d="M99.5661 48.2425C99.4549 48.2962 99.3475 48.3537 99.2286 48.4036C99.0714 48.4841 98.8527 48.557 98.6686 48.6261C98.2812 48.745 97.9092 48.7872 97.587 48.7028C97.2571 48.6376 96.9848 48.3767 96.8045 48.0891C96.6204 47.7976 96.536 47.4562 96.5667 47.0995C96.5936 46.8387 96.6626 46.5779 96.77 46.317C96.7969 46.2518 96.8275 46.1866 96.8582 46.1253C96.8774 46.0984 96.8851 46.0562 96.8966 46.0294L96.9388 45.9565C96.9848 45.8721 97.0347 45.7839 97.0922 45.7148C97.4873 45.1894 97.9168 44.7751 98.3541 44.3724C98.7875 43.9735 99.2286 43.5976 99.6659 43.2217C100.061 42.8957 100.425 42.5428 100.771 42.1899C100.989 41.9598 101.215 41.7412 101.434 41.5226C101.545 41.4152 101.641 41.3001 101.768 41.2119C101.894 41.1237 102.025 41.0354 102.136 40.9395C102.278 40.8245 102.381 40.859 102.474 41.1083C102.516 41.231 102.554 41.419 102.566 41.6261C102.569 41.7297 102.581 41.8524 102.558 41.9521C102.531 42.0519 102.493 42.1478 102.435 42.236C102.24 42.5428 102.04 42.8343 101.821 43.099C101.591 43.3521 101.354 43.5899 101.116 43.8239C100.648 44.2957 100.118 44.6908 99.5968 45.0858C99.2862 45.3198 99.0062 45.5998 98.7568 45.8913C98.6341 46.037 98.519 46.1866 98.4078 46.3362L98.1316 46.7313C98.0511 46.8463 97.9552 47.0305 98.0396 47.1992C98.0741 47.2836 98.1585 47.3373 98.2505 47.3335C98.3388 47.3335 98.4308 47.3104 98.5229 47.2798C98.5536 47.2683 98.5804 47.2606 98.6111 47.2491C98.6533 47.2299 98.7223 47.203 98.776 47.1724C98.8911 47.1187 99.0062 47.0573 99.1251 46.9921C99.3552 46.8655 99.5853 46.7274 99.8116 46.5817C100.498 46.1406 101.181 45.6611 101.818 45.1357C102.305 44.7176 102.75 44.2688 103.229 43.8508C103.333 43.7587 103.429 43.659 103.551 43.5823C103.77 43.4365 103.927 43.3521 104.065 43.3291C104.211 43.3138 104.322 43.3406 104.434 43.3943C104.483 43.4173 104.541 43.4327 104.579 43.4595C104.644 43.5017 104.656 43.5823 104.633 43.705C104.61 43.8277 104.564 44.008 104.445 44.1614C104.127 44.6677 103.72 45.0935 103.314 45.5384C102.888 45.9603 102.408 46.3362 101.925 46.7159C101.196 47.2721 100.441 47.7976 99.5777 48.2693L99.5585 48.2425H99.5661Z" fill="#231F20"/>
<path id="Vector_68" d="M81.0322 44.0078C81.0322 44.0078 81.0322 43.9925 81.0437 43.9618V44.0078H81.0322Z" stroke="#231F20" stroke-width="0.8" stroke-miterlimit="10"/>
<path id="Vector_69" d="M79.8897 58.3301L79.7401 58.5295C79.7401 58.5295 79.7401 58.5103 79.7324 58.5027C79.7861 58.4451 79.8398 58.3876 79.8897 58.3301Z" stroke="#231F20" stroke-width="0.8" stroke-miterlimit="10"/>
<path id="Vector_70" d="M64.9422 72.5678L64.2441 70.2473" stroke="#231F20" stroke-width="1.2" stroke-miterlimit="10"/>
<path id="Vector_71" d="M21.6001 15.732L22.1409 15.1643C21.9683 15.3484 21.7957 15.5364 21.6269 15.7281C21.6193 15.7281 21.6078 15.732 21.6001 15.732Z" stroke="#231F20" stroke-miterlimit="10"/>
<path id="Vector_72" d="M23.0039 14.2554C23.0039 14.2554 23.0077 14.2554 23.0154 14.2516C22.9386 14.3283 22.8619 14.405 22.7891 14.4817L23.0039 14.2554Z" stroke="#231F20" stroke-miterlimit="10"/>
<path id="Vector_73" d="M31.0557 15.5402C30.6261 16.0158 30.231 16.4991 29.8628 16.9823" stroke="#231F20" stroke-miterlimit="10"/>
<path id="Vector_74" d="M18.6013 19.5369C18.1985 20.1084 17.8073 20.699 17.4276 21.3089H17.4199L17.9914 19.7286C18.1985 19.6558 18.4018 19.5944 18.6013 19.5369Z" stroke="#231F20" stroke-miterlimit="10"/>
<path id="Vector_75" d="M29.3219 66.3733C28.8195 65.8248 28.3439 65.2763 27.8989 64.7278H27.9028L29.3219 66.3733Z" stroke="#231F20" stroke-miterlimit="10"/>
<path id="Vector_76" d="M42.8301 82.7244C42.8301 82.7244 42.8377 82.7244 42.8454 82.7244" stroke="#231F20" stroke-miterlimit="10"/>
</g>
</svg>
