<svg width="151" height="151" viewBox="0 0 151 151" fill="none" xmlns="http://www.w3.org/2000/svg">
<g id="123.Website-builder">
<g id="n.121 Webflow">
<path id="Vector" opacity="0.3" d="M82.3599 57.331L91.1522 51.4839L99.9445 57.7233C99.9445 57.7233 90.0099 66.6685 82.3599 57.331Z" fill="#231F20"/>
<path id="Vector_2" d="M14.2164 100.641L14.326 95.0415C14.326 94.3608 14.326 93.68 14.326 93.0021C14.3664 90.6021 14.427 88.205 14.4356 85.8079C14.4356 84.7435 14.4212 83.6733 14.3837 82.6175C14.3664 81.9425 14.3173 81.2617 14.3202 80.5839C14.3202 80.2435 14.3202 79.9031 14.3347 79.5627C14.3491 79.2223 14.3952 78.8819 14.4298 78.5444C14.4875 78.1175 14.6318 78.1694 14.8481 78.5214C14.9898 78.7561 15.1161 78.9999 15.226 79.2512C15.3563 79.5902 15.4398 79.9454 15.4741 80.3069C15.5 80.6531 15.5491 80.9992 15.5577 81.3454L15.5866 82.3867C15.6039 83.079 15.6183 83.7742 15.6241 84.4694C15.6241 85.8598 15.5895 87.2531 15.5231 88.6521C15.4452 90.3281 15.5058 92.0675 15.4885 93.7781C15.4577 95.6588 15.4279 97.5396 15.3991 99.4204C15.3818 100.574 15.3635 101.728 15.3443 102.882C15.3241 104.633 15.2923 106.395 15.3212 108.132C15.3472 109.482 15.4395 110.806 15.5347 112.13L15.6068 112.995C15.6454 113.379 15.6396 113.767 15.5895 114.149C15.5561 114.351 15.4649 114.538 15.327 114.689C15.2791 114.752 15.2261 114.811 15.1683 114.865C15.0789 114.928 14.9837 114.865 14.8798 114.663C14.7224 114.38 14.6169 114.071 14.5683 113.751C14.4587 113.148 14.4039 112.537 14.352 111.925C14.3 111.314 14.2683 110.688 14.2366 110.065C14.1818 108.813 14.1645 107.549 14.1587 106.283C14.1587 104.402 14.1789 102.513 14.1933 100.629L14.2164 100.641Z" fill="#231F20"/>
<path id="Vector_3" d="M13.9455 43.1415C13.9455 42.6857 13.9685 42.2299 13.9685 41.7713C13.9685 41.6069 13.9455 41.4396 13.9483 41.2723C13.9483 40.6953 13.9714 40.0953 13.9657 39.5069C13.9624 39.2456 13.9461 38.9847 13.9166 38.7251C13.8922 38.5588 13.8777 38.3912 13.8733 38.2232C13.869 38.1387 13.869 38.0539 13.8733 37.9694C13.8866 37.8811 13.9108 37.7949 13.9455 37.7126C13.9887 37.603 14.0868 37.6174 14.2339 37.7126C14.3204 37.7651 14.4042 37.8219 14.4849 37.8828C14.5636 37.9464 14.6201 38.0332 14.6464 38.1309C14.6925 38.2945 14.7186 38.463 14.7243 38.6328C14.7243 38.803 14.7474 38.9703 14.7532 39.1434C14.7641 39.4882 14.7506 39.8333 14.7128 40.1761C14.6975 40.5974 14.7052 41.0191 14.7358 41.4396C14.7358 41.9011 14.7358 42.3655 14.7358 42.8299L14.7214 43.6953C14.7214 44.128 14.7012 44.5607 14.7214 44.9905C14.7214 45.3223 14.7878 45.6511 14.8195 45.9799C14.8195 46.0521 14.8426 46.1242 14.8455 46.1963C14.8581 46.2969 14.8357 46.3987 14.782 46.4848C14.7247 46.5464 14.6504 46.5895 14.5685 46.6088C14.5253 46.6088 14.4849 46.6376 14.4474 46.6463C14.414 46.6508 14.3801 46.6478 14.3481 46.6373C14.3161 46.6268 14.2869 46.6091 14.2628 46.5857C14.1872 46.5277 14.1309 46.4483 14.1012 46.3578C13.974 45.7617 13.9149 45.1529 13.9253 44.5434V43.1674L13.9455 43.1415Z" fill="#231F20"/>
<path id="Vector_4" d="M86.609 36.3482C80.7647 36.3271 74.9215 36.3271 69.0791 36.3482L62.6868 36.4088C55.1715 36.43 47.658 36.4655 40.1465 36.5155C36.8147 36.5444 33.4628 36.6078 30.1541 36.68L23.7734 36.8328C21.6445 36.8646 19.5157 36.8761 17.3897 36.8328C16.057 36.7636 16.2359 36.5444 17.3551 36.2732C19.2015 35.854 21.0846 35.6173 22.9772 35.5665C31.6541 35.3502 40.3282 35.2203 49.083 35.255C54.3157 35.2751 59.7561 35.1367 65.1157 35.0934C71.0041 35.0453 76.8926 35.0175 82.7811 35.0098H93.6532C99.1339 35.0098 104.655 35.0588 110.095 35.0877C114.33 35.1136 118.484 35.0877 122.678 35.1598C123.601 35.1598 124.507 35.1915 125.442 35.229C126.307 35.2578 127.022 35.3155 127.625 35.3675C127.914 35.3934 128.202 35.4194 128.442 35.4511C128.681 35.4828 128.912 35.5203 129.111 35.5636C129.437 35.6298 129.759 35.7175 130.074 35.8261C130.294 35.9191 130.503 36.0362 130.697 36.1752C130.851 36.2684 130.997 36.3745 131.133 36.4925C131.266 36.6482 130.971 36.7203 130.357 36.7434C130.054 36.7434 129.656 36.7636 129.177 36.7665C128.937 36.7665 128.68 36.7607 128.407 36.7492L127.524 36.7261C123.815 36.5992 119.975 36.5819 116.084 36.5444L104.289 36.4607C98.4099 36.4261 92.5022 36.3973 86.6061 36.4002L86.609 36.3482Z" fill="#231F20"/>
<path id="Vector_5" d="M133.403 102.472L133.351 97.2972C133.351 96.6683 133.299 96.0395 133.294 95.4106C133.276 93.1895 133.294 90.9683 133.294 88.7471C133.294 87.7606 133.259 86.7712 133.227 85.7933C133.198 85.1664 133.186 84.5375 133.19 83.9068C133.2 83.2761 133.243 82.6464 133.319 82.0202C133.363 81.6279 133.533 81.6798 133.732 82.0202C133.853 82.2391 133.959 82.4666 134.046 82.701C134.101 82.8423 134.153 82.9895 134.199 83.1596L134.266 83.4106C134.266 83.4971 134.286 83.5837 134.292 83.676L134.352 84.6337L134.381 85.1125V85.5914L134.398 87.5125C134.398 88.7933 134.384 90.0798 134.355 91.3721C134.309 92.9154 134.419 94.5221 134.45 96.1029C134.475 97.8337 134.502 99.5721 134.531 101.318L134.566 104.532C134.583 106.156 134.566 107.786 134.551 109.401C134.551 110.659 134.566 111.893 134.468 113.151C134.442 113.439 134.43 113.702 134.381 113.988C134.349 114.21 134.302 114.43 134.24 114.645C134.199 114.799 134.139 114.946 134.061 115.084C134.017 115.177 133.951 115.259 133.87 115.324C133.789 115.389 133.695 115.434 133.594 115.456C133.514 115.482 133.432 115.499 133.348 115.505C133.227 115.505 133.161 115.381 133.138 115.19C133.127 115.076 133.127 114.961 133.138 114.847C133.138 114.714 133.167 114.559 133.187 114.386C133.31 113.301 133.378 112.211 133.392 111.12C133.418 109.989 133.426 108.836 133.426 107.676C133.426 105.945 133.412 104.214 133.38 102.484L133.403 102.472Z" fill="#231F20"/>
<path id="Vector_6" d="M133.293 48.5994C133.322 48.0225 133.354 47.4167 133.362 46.8282C133.362 46.6119 133.339 46.3984 133.345 46.185C133.37 45.4299 133.355 44.674 133.299 43.9205C133.27 43.583 133.215 43.2398 133.169 42.8965C133.136 42.6769 133.119 42.4551 133.117 42.233C133.122 42.0084 133.156 41.7854 133.218 41.5696C133.253 41.4311 133.385 41.4513 133.544 41.5696C133.633 41.6385 133.715 41.7158 133.789 41.8003C133.834 41.8481 133.874 41.8993 133.91 41.9532C133.931 41.9792 133.942 42.008 133.962 42.0369C133.972 42.0652 133.979 42.0941 133.985 42.1234L134.037 42.4378L134.066 42.5965L134.081 42.7523L134.138 43.3898C134.184 43.8392 134.201 44.291 134.19 44.7426C134.17 45.2907 134.251 45.8503 134.248 46.4013C134.248 47.01 134.234 47.6128 134.21 48.2157L134.164 49.3263C134.15 49.8888 134.109 50.4513 134.112 51.0051C134.112 51.4378 134.167 51.8705 134.196 52.2917C134.196 52.3869 134.219 52.4792 134.219 52.5801C134.219 52.9321 134.164 53.0417 133.91 53.108C133.857 53.127 133.802 53.1424 133.746 53.1542C133.567 53.1801 133.394 53.033 133.351 52.7763C133.228 51.9923 133.184 51.198 133.218 50.4051L133.27 48.6138L133.293 48.5994Z" fill="#231F20"/>
<path id="Vector_7" d="M84.5148 119.226L68.4849 119.37L62.6378 119.448C55.7667 119.489 48.8965 119.502 42.0273 119.489H32.8859C30.9417 119.489 28.9946 119.489 27.0446 119.448C26.0696 119.428 25.0917 119.396 24.1167 119.339C23.1299 119.299 22.1469 119.193 21.1744 119.021C20.902 118.987 20.645 118.876 20.433 118.701C20.4176 118.687 20.4055 118.669 20.3975 118.65C20.3895 118.631 20.3859 118.61 20.3869 118.589C20.3925 118.565 20.4044 118.543 20.4215 118.525C20.4561 118.499 20.4821 118.473 20.5023 118.456C20.5224 118.439 20.5253 118.424 20.5282 118.43C20.5311 118.436 20.5542 118.491 20.6378 118.502C20.8398 118.517 21.0426 118.512 21.2436 118.488C22.9463 118.328 24.6569 118.266 26.3667 118.303C30.3186 118.395 34.2821 118.401 38.2542 118.416L50.2023 118.453C54.985 118.476 59.9638 118.344 64.8561 118.271L81.01 118.038L90.9446 117.888C95.958 117.804 100.997 117.735 105.976 117.617C109.845 117.524 113.635 117.357 117.463 117.236C118.305 117.21 119.13 117.172 119.981 117.158C123.131 117.097 124.146 117.198 124.819 117.576C124.974 117.648 125.12 117.738 125.254 117.844C125.39 117.994 125.15 118.095 124.585 118.185C123.724 118.3 122.857 118.368 121.989 118.39C115.164 118.678 107.952 118.845 100.712 118.967L84.5407 119.229L84.5148 119.226Z" fill="#231F20"/>
<path id="Vector_8" d="M67.7118 69.1263L67.6657 63.4927C67.6657 62.809 67.6253 62.1254 67.6224 61.4388L67.6022 54.1985C67.6022 53.1254 67.5763 52.0494 67.5503 50.9879C67.4922 49.6161 67.525 48.2419 67.6484 46.8744C67.6945 46.4388 67.7724 46.5138 67.882 46.8744C68.0594 47.4622 68.1839 48.0645 68.2541 48.6744L68.3291 49.7158L68.3638 50.2379L68.3811 50.76C68.3955 51.4581 68.4128 52.1533 68.4301 52.8513C68.459 54.2475 68.4676 55.6465 68.4301 57.0513C68.4013 58.7331 68.4878 60.4811 68.5138 62.2004C68.5426 64.0908 68.5695 65.9821 68.5945 67.8744C68.6118 69.0283 68.6282 70.1917 68.6436 71.3648C68.6753 73.1273 68.6926 74.8985 68.7503 76.6465C68.7936 78.0052 68.8916 79.3379 68.9638 80.685C68.9638 80.9735 69.0041 81.2619 69.0128 81.5706C69.0532 82.6754 69.0128 83.0359 68.7532 83.2754C68.7074 83.3321 68.6562 83.3843 68.6003 83.4311C68.4388 83.535 68.2455 83.0908 68.182 82.2773C67.9657 79.8802 67.8705 77.3475 67.8013 74.8061C67.7609 72.9167 67.7205 71.0186 67.683 69.1234L67.7118 69.1263Z" fill="#231F20"/>
<path id="Vector_9" d="M74.3837 64.5424L74.3174 58.8251C74.3174 58.1299 74.277 57.4347 74.2712 56.7395C74.2597 54.2876 74.2597 51.8366 74.2712 49.3866C74.2712 48.2991 74.2712 47.2058 74.2712 46.1241C74.2236 44.7275 74.3028 43.3295 74.5078 41.9472C74.6203 41.4943 74.6837 41.601 74.7443 41.9645C74.7847 42.152 74.828 42.4087 74.8885 42.7231L74.9722 43.2308L75.0097 43.5193L75.0241 43.8078L75.0703 44.8635L75.0991 45.3914V45.9193C75.0991 46.6251 75.1068 47.3318 75.1222 48.0395C75.1366 49.4529 75.1424 50.8722 75.1078 52.3001C75.0731 54.0049 75.1597 55.7789 75.1914 57.5241C75.2203 59.4472 75.251 61.3703 75.2837 63.2933L75.3443 66.8356C75.3818 68.6241 75.4078 70.4212 75.4712 72.1953C75.5203 73.577 75.6183 74.927 75.6905 76.2914C75.7049 76.5799 75.728 76.8856 75.7366 77.1885C75.7683 78.3164 75.7164 78.6799 75.4481 78.9193C75.399 78.9749 75.3459 79.0269 75.2895 79.0751C75.1251 79.1731 74.9462 78.726 74.8885 77.9068C74.6895 75.4808 74.5828 72.9106 74.5049 70.3289C74.4587 68.4135 74.4097 66.4866 74.3635 64.5597L74.3837 64.5424Z" fill="#231F20"/>
<path id="Vector_10" d="M52.6136 86.2259L46.7924 86.2115C46.0828 86.2115 45.3761 86.2404 44.6694 86.2317L37.1694 86.1509C36.0617 86.1509 34.9482 86.1509 33.8492 86.1509C32.4357 86.1509 31.0194 86.1798 29.603 86.0557C29.1617 86.0211 29.228 85.8855 29.603 85.75C30.2089 85.5643 30.8385 85.4671 31.4723 85.4615C34.3569 85.3779 37.2242 85.3663 40.1261 85.4067C41.8569 85.4355 43.6713 85.3577 45.4482 85.3317L51.3126 85.2855L54.9213 85.2509C56.7415 85.2307 58.5732 85.2192 60.379 85.173C61.7867 85.1355 63.1626 85.0375 64.553 84.974C64.8588 84.9596 65.1559 84.9336 65.4674 84.9279C66.6213 84.8961 66.9876 84.9682 67.2271 85.2423C67.2859 85.2995 67.339 85.3623 67.3857 85.4298C67.4809 85.6432 67.028 85.8048 66.1973 85.874C63.7223 86.0788 61.103 86.1625 58.4723 86.2028L52.5992 86.249L52.6136 86.2259Z" fill="#231F20"/>
<path id="Vector_11" d="M104.82 80.8667L98.0003 80.8176H95.5137L86.7445 80.734C85.4493 80.734 84.1484 80.734 82.8589 80.7513C81.2032 80.7657 79.5503 80.8234 77.883 80.7109C77.358 80.6734 77.4474 80.5032 77.883 80.3445C78.5906 80.1228 79.328 80.0109 80.0695 80.0128C83.4387 79.9753 86.8137 79.9465 90.2147 80.0128C92.2512 80.0532 94.3685 79.984 96.4483 79.9695L103.317 79.9407H107.545C109.677 79.9263 111.82 79.9407 113.938 79.8859C115.585 79.8542 117.197 79.7619 118.824 79.6984C119.182 79.6984 119.534 79.658 119.895 79.6494C121.233 79.6147 121.666 79.684 121.951 79.9551C122.022 80.0094 122.086 80.0724 122.142 80.1426C122.271 80.3532 121.726 80.5292 120.748 80.5984C117.844 80.8003 114.774 80.8494 111.696 80.8869L104.817 80.907L104.82 80.8667Z" fill="#231F20"/>
<path id="Vector_12" d="M124.161 50.5378C124.227 49.5628 124.293 48.5878 124.345 47.6128C124.363 47.258 124.345 46.9003 124.371 46.5455C124.44 45.2936 124.495 44.0417 124.518 42.7955C124.518 42.2417 124.501 41.6849 124.446 41.1397C124.38 40.4445 124.273 39.7465 124.158 39.1003C124.12 38.8955 124.244 38.8522 124.446 38.9792C124.578 39.0665 124.694 39.1758 124.79 39.3022C124.906 39.4682 124.992 39.6539 125.043 39.8503C125.183 40.5836 125.271 41.3258 125.306 42.0715C125.326 42.4407 125.338 42.807 125.335 43.1763C125.332 43.5455 125.335 43.9119 125.3 44.2811C125.242 45.1609 125.28 46.0753 125.254 46.9724C125.225 47.959 125.179 48.9455 125.136 49.9292L125.049 51.7494C125.009 52.6638 124.954 53.5869 124.945 54.4984C124.945 55.2051 124.989 55.9003 125.015 56.6013C125.015 56.7542 125.038 56.9042 125.04 57.0599C125.04 57.6369 124.983 57.8186 124.712 57.9253C124.657 57.9564 124.6 57.9833 124.541 58.0061C124.363 58.058 124.169 57.8186 124.126 57.3974C123.996 56.0998 123.96 54.7945 124.019 53.4917C124.048 52.5051 124.091 51.5186 124.143 50.532L124.161 50.5378Z" fill="#231F20"/>
<path id="Vector_13" d="M86.3606 42.4665C84.9459 43.2543 83.7331 44.3592 82.8172 45.6945C81.9013 47.0298 81.3073 48.5592 81.0818 50.1626C80.8211 52.386 81.2996 54.6334 82.4433 56.5578C82.9809 57.4533 83.6633 58.2536 84.4625 58.9261C85.2749 59.5907 86.1796 60.1339 87.1481 60.5386C87.3875 60.6453 87.6443 60.7117 87.8894 60.8011L88.2644 60.928L88.651 61.0174C88.9077 61.0722 89.1616 61.1415 89.4212 61.1847L90.2116 61.2915C90.4442 61.3194 90.6783 61.3329 90.9125 61.3318C91.1462 61.3318 91.3827 61.3549 91.6164 61.3318C92.0864 61.3131 92.5547 61.264 93.0183 61.1847C93.2491 61.1415 93.4798 61.1068 93.7077 61.0578L94.3856 60.8674L94.7202 60.7722L95.0462 60.6424L95.6952 60.3857C96.7737 59.8794 97.7564 59.1904 98.6 58.3492C98.7991 58.1299 99.0154 57.928 99.2029 57.6972L99.7394 56.9905C100.086 56.5088 100.385 55.9949 100.634 55.4559C100.792 55.1213 100.899 54.9857 100.977 55.0261C101.055 55.0665 101.095 55.277 101.063 55.6203C101.012 56.0906 100.887 56.5499 100.694 56.9818C100.566 57.2725 100.412 57.5506 100.233 57.8126C100.049 58.1248 99.8301 58.4151 99.5808 58.678L99.2375 59.0386C99.1285 59.1641 99.0088 59.2799 98.8798 59.3847L98.1154 60.0193L97.2846 60.5674C97.1469 60.6594 97.0023 60.7404 96.8519 60.8097L96.4106 61.0376C94.0161 62.1961 91.2976 62.5014 88.7058 61.903C87.414 61.6231 86.1855 61.1056 85.0827 60.377C84.4186 59.9401 83.8001 59.4376 83.2366 58.877C81.5249 57.1395 80.4626 54.8663 80.2279 52.4386C80.0675 50.6765 80.344 48.902 81.0327 47.2722C81.7127 45.6484 82.7592 44.204 84.0904 43.052C84.9093 42.3475 85.8255 41.7646 86.8106 41.3213C87.798 40.8777 88.8478 40.5887 89.9231 40.4645C91.5452 40.2847 93.187 40.4599 94.7346 40.978C96.2801 41.4944 97.6775 42.3773 98.8077 43.5511C99.6785 44.4429 100.395 45.4733 100.928 46.6001C101.465 47.7209 101.827 48.9176 102.001 50.1482C102.033 50.4222 102.062 50.6934 102.093 50.9645C102.125 51.2357 102.093 51.5097 102.108 51.7867C102.111 52.0239 102.098 52.261 102.067 52.4963C102.044 52.7097 102.024 52.902 102.007 53.0732C101.938 53.4251 101.865 53.7049 101.799 53.9386C101.75 54.1277 101.673 54.3086 101.571 54.4751C101.445 54.6825 101.285 54.8677 101.098 55.0232C100.988 55.0867 100.957 54.9078 101 54.553C101.014 54.3742 101.066 54.1549 101.104 53.8895C101.141 53.6242 101.176 53.3126 101.225 52.9665C101.426 50.8469 101.033 48.7132 100.088 46.8049C99.157 44.8493 97.6096 43.2532 95.6837 42.2617C94.2257 41.5608 92.6252 41.2073 91.0077 41.229C89.39 41.2545 87.804 41.6817 86.3923 42.4722L86.3606 42.4665Z" fill="#231F20"/>
<path id="Vector_14" d="M89.8455 46.8828C89.8455 46.404 89.8714 45.9222 89.8743 45.4405C89.8743 45.2645 89.8541 45.0886 89.857 44.9126C89.857 44.2953 89.8801 43.6722 89.8743 43.052C89.8743 42.7636 89.8599 42.5011 89.8397 42.2299C89.7902 41.8812 89.7796 41.5281 89.808 41.177C89.8253 41.0645 89.9695 41.0703 90.1224 41.154C90.209 41.1979 90.2847 41.2606 90.3441 41.3374C90.4034 41.4143 90.445 41.5033 90.4657 41.5982C90.5774 42.3097 90.6113 43.0313 90.5666 43.7501C90.5378 44.1857 90.5984 44.6328 90.6099 45.0742C90.6243 45.5617 90.6272 46.0492 90.6301 46.5367V47.4453C90.6301 47.8982 90.6301 48.354 90.6301 48.804C90.6445 49.1559 90.7051 49.4963 90.7455 49.8424C90.7592 49.9176 90.766 49.9939 90.7657 50.0703C90.7639 50.1312 90.7581 50.1919 90.7484 50.252C90.7344 50.2958 90.7129 50.3368 90.6849 50.3732C90.6353 50.4365 90.5681 50.4837 90.4916 50.5088C90.4559 50.5243 90.4193 50.5378 90.382 50.5491C90.2724 50.5751 90.1513 50.4597 90.0445 50.2607C89.9465 49.9551 89.8893 49.638 89.8743 49.3174C89.8455 49.0001 89.834 48.677 89.8253 48.3511C89.8253 47.8693 89.8253 47.3847 89.8253 46.9088L89.8455 46.8828Z" fill="#231F20"/>
<path id="Vector_15" d="M92.0461 46.4127C92.0461 45.9483 92.0634 45.4838 92.0461 45.0165C92.0461 44.8463 92.0259 44.6761 92.0259 44.5059V42.7002C92.0259 42.4319 92.0259 42.1636 92.0028 41.8983C91.9711 41.5576 91.9711 41.2148 92.0028 40.8742C92.0288 40.6608 92.4384 40.9233 92.4759 41.3098C92.5453 42.0007 92.5684 42.6956 92.5451 43.3896C92.5278 43.8079 92.5797 44.255 92.597 44.6704C92.6115 45.1434 92.623 45.6165 92.623 46.0896V46.955C92.623 47.3963 92.6057 47.8377 92.5942 48.2761C92.5942 48.6165 92.6172 48.9511 92.623 49.2915C92.6287 49.3654 92.6287 49.4397 92.623 49.5136C92.6221 49.6156 92.5931 49.7154 92.5394 49.8021C92.503 49.8569 92.4491 49.8976 92.3865 49.9175C92.3599 49.9313 92.3319 49.942 92.3028 49.9492C92.222 49.9694 92.1413 49.8483 92.0807 49.6434C92.033 49.3421 92.0127 49.037 92.0201 48.7319C92.0201 48.4233 92.0201 48.1117 92.0201 47.8002C92.0201 47.3358 92.0201 46.8684 92.0201 46.4011L92.0461 46.4127Z" fill="#231F20"/>
<path id="Vector_16" d="M86.0203 51.5647L84.6616 51.5503C84.4972 51.5503 84.3328 51.5676 84.1654 51.5647L82.4116 51.5272C82.152 51.5272 81.8924 51.5272 81.6356 51.5474C81.304 51.5777 80.97 51.569 80.6404 51.5214C80.5366 51.5012 80.551 51.383 80.6404 51.2589C80.689 51.1839 80.7525 51.1195 80.8269 51.0699C80.9013 51.0203 80.9851 50.9865 81.0731 50.9705C81.4055 50.9335 81.7397 50.9152 82.0741 50.9157C82.4116 50.9157 82.7462 50.9157 83.0866 50.9416C83.4933 50.9676 83.9145 50.9243 84.3299 50.9128L85.7001 50.8984H86.5453C86.9722 50.8984 87.4106 50.8984 87.826 50.8811C88.1549 50.8811 88.4779 50.8176 88.8068 50.7887C88.8789 50.7887 88.9481 50.7686 89.0231 50.7686C89.2914 50.7686 89.3779 50.8089 89.4299 50.9993C89.4431 51.0409 89.4537 51.0833 89.4616 51.1262C89.4847 51.2705 89.3722 51.3916 89.1731 51.4147C88.5828 51.5098 87.9855 51.5552 87.3876 51.5503H86.0231L86.0203 51.5647Z" fill="#231F20"/>
<path id="Vector_17" d="M97.6856 53.5694L96.4452 52.8021C96.2923 52.7098 96.1365 52.6261 95.9865 52.5309C95.4586 52.1906 94.9365 51.8415 94.4173 51.4896C94.1865 51.3338 93.95 51.178 93.7163 51.0309C93.4095 50.8489 93.1199 50.6394 92.851 50.405C92.6865 50.2579 93.1192 50.1425 93.4596 50.3502C94.0683 50.7223 94.6798 51.0857 95.274 51.504C95.6288 51.755 96.0385 51.9482 96.4279 52.1675C96.8548 52.4069 97.276 52.6579 97.6971 52.9059L98.476 53.3646C98.8711 53.5925 99.2635 53.8348 99.6586 54.0569C99.9673 54.2329 100.285 54.3771 100.596 54.5415C100.665 54.5761 100.735 54.6079 100.801 54.6482C101.049 54.7982 101.104 54.8819 101.063 55.0521C101.063 55.0896 101.049 55.1329 101.037 55.1675C100.991 55.2857 100.833 55.3117 100.639 55.228C100.055 54.9648 99.488 54.6662 98.9404 54.3338L97.6856 53.5867V53.5694Z" fill="#231F20"/>
<path id="Vector_18" d="M93.0013 53.3644L91.6802 52.4615C91.5706 52.3865 91.4609 52.3144 91.3513 52.2481L91.2677 52.1933C91.2677 52.1933 91.2446 52.1731 91.2331 52.1731C91.2197 52.1781 91.2071 52.1849 91.1956 52.1933L91.0773 52.2625L90.7311 52.4702C90.3965 52.6721 90.0706 52.8913 89.7331 53.0904L86.1734 55.2019C85.6513 55.5192 85.1292 55.8509 84.6157 56.174C83.9687 56.6154 83.2943 57.0153 82.5965 57.3711C82.3744 57.4779 82.3542 57.3711 82.4696 57.1721C82.548 57.0378 82.6377 56.9104 82.7379 56.7913C82.8669 56.6273 83.0207 56.4842 83.1936 56.3673C83.8542 55.9144 84.509 55.4586 85.1869 55.0317C85.8648 54.6048 86.5542 54.2009 87.2552 53.8057C88.0917 53.3327 88.9196 52.7644 89.7561 52.2423L90.4456 51.8154L90.7888 51.6019L91.0513 51.4404L91.1927 51.3625L91.2273 51.3423L91.2619 51.3596L91.3369 51.3971C91.4321 51.4461 91.5302 51.4923 91.6254 51.5471L91.8186 51.6625C91.9398 51.7346 92.0523 51.8125 92.1677 51.8846C92.3984 52.0317 92.6234 52.1731 92.8513 52.3346L94.5042 53.4682L96.9879 55.199C97.6311 55.6432 98.2859 56.0413 98.9292 56.474C99.0706 56.5721 99.2177 56.6615 99.3532 56.7625C99.5404 56.8966 99.7084 57.0558 99.8523 57.2356C99.9258 57.3417 99.9585 57.4707 99.9446 57.599C99.9478 57.6461 99.9478 57.6933 99.9446 57.7404C99.9273 57.8009 99.8523 57.8038 99.7225 57.7836C99.5467 57.7467 99.3794 57.6772 99.2292 57.5788C98.0754 56.8721 96.8782 56.0442 95.684 55.2192C94.7984 54.6077 93.91 53.9817 93.0157 53.3788L93.0013 53.3644Z" fill="#231F20"/>
<path id="Vector_19" d="M102.255 69.3683H98.6348C98.1963 69.3683 97.7694 69.4029 97.3165 69.4058L92.6608 69.4376C91.9713 69.4376 91.279 69.4664 90.5983 69.4895C89.7166 69.55 88.8318 69.55 87.9502 69.4895C87.6617 69.4635 87.7194 69.3135 87.9502 69.1664C88.3046 68.9727 88.7003 68.8668 89.104 68.8578C90.8838 68.7943 92.6723 68.7193 94.481 68.7481C95.5598 68.7481 96.6848 68.6818 97.7867 68.6501L101.433 68.5635L103.68 68.5203L107.075 68.451C107.941 68.4222 108.806 68.3501 109.671 68.3126C109.865 68.3126 110.052 68.2866 110.248 68.2837C110.505 68.2662 110.762 68.2915 111.01 68.3587C111.079 68.3771 111.143 68.4094 111.199 68.4535C111.255 68.4977 111.302 68.5528 111.336 68.6154C111.372 68.667 111.403 68.7221 111.428 68.7799C111.486 68.9587 111.189 69.1029 110.675 69.1549C109.146 69.2703 107.525 69.3078 105.895 69.3279L102.249 69.3741L102.255 69.3683Z" fill="#231F20"/>
<path id="Vector_20" d="M47.2974 102.804H43.5907C43.1407 102.804 42.6907 102.839 42.2407 102.839L37.4695 102.853C36.7657 102.853 36.0561 102.879 35.3551 102.905C34.4514 102.97 33.5443 102.97 32.6407 102.905C32.3522 102.876 32.407 102.706 32.6407 102.542C32.9956 102.321 33.4027 102.198 33.8205 102.187C35.6436 102.12 37.4782 102.043 39.3301 102.086C40.4349 102.106 41.5859 102.019 42.7166 101.991L46.4666 101.91L48.7743 101.869C49.9282 101.846 51.1022 101.841 52.2561 101.803C53.1503 101.774 54.0301 101.691 54.9214 101.647C55.1176 101.647 55.3109 101.618 55.4984 101.616C55.7617 101.595 56.0266 101.622 56.2801 101.696C56.3528 101.719 56.42 101.756 56.4776 101.806C56.5352 101.855 56.5819 101.916 56.6147 101.985C56.6506 102.044 56.6815 102.105 56.707 102.169C56.7647 102.377 56.4589 102.542 55.9339 102.602C54.3705 102.738 52.7118 102.775 51.0301 102.795L47.2945 102.833L47.2974 102.804Z" fill="#231F20"/>
<path id="Vector_21" d="M102.927 72.3682C102.304 72.348 101.678 72.3336 101.055 72.325C100.827 72.325 100.599 72.3452 100.372 72.3394C99.5696 72.325 98.7648 72.3019 97.96 72.3019C97.6023 72.3019 97.2446 72.3019 96.8898 72.3307C96.4333 72.3784 95.9732 72.3784 95.5167 72.3307C95.3725 72.3077 95.3955 72.1548 95.5167 71.999C95.5865 71.9041 95.675 71.8244 95.7766 71.7649C95.8783 71.7054 95.9911 71.6673 96.108 71.6529C96.5667 71.6154 97.0282 71.5807 97.4927 71.5605C97.9571 71.5404 98.4244 71.5605 98.8946 71.5865C99.4571 71.624 100.048 71.5605 100.611 71.5519C101.24 71.5519 101.871 71.5519 102.503 71.5519H103.657C104.234 71.5519 104.837 71.5663 105.422 71.5519C105.878 71.5519 106.325 71.4884 106.781 71.4711C106.882 71.4654 106.983 71.4654 107.084 71.4711C107.465 71.5029 107.583 71.5865 107.635 71.8029C107.65 71.8509 107.66 71.9001 107.667 71.95C107.681 72.1144 107.514 72.2384 107.254 72.2759C106.442 72.3812 105.624 72.4246 104.805 72.4057C104.179 72.4057 103.55 72.3884 102.922 72.3855L102.927 72.3682Z" fill="#231F20"/>
<path id="Vector_22" d="M50.3638 107.765C49.7407 107.745 49.1148 107.728 48.4917 107.722C48.2638 107.722 48.0359 107.739 47.808 107.736C47.0061 107.722 46.2013 107.699 45.3965 107.696C45.0388 107.696 44.6811 107.696 44.3263 107.728C43.8698 107.774 43.4097 107.774 42.9532 107.728C42.809 107.705 42.8321 107.552 42.9532 107.393C43.0217 107.3 43.108 107.222 43.207 107.163C43.3061 107.104 43.416 107.066 43.5301 107.05C43.9888 107.01 44.4503 106.975 44.9148 106.958C45.3792 106.94 45.8465 106.958 46.3167 106.984C46.8792 107.018 47.4705 106.958 48.033 106.949C48.6619 106.949 49.2936 106.949 49.9253 106.949H51.0792C51.6561 106.949 52.259 106.963 52.8446 106.949C53.3003 106.949 53.7475 106.888 54.2032 106.871C54.2993 106.866 54.3956 106.866 54.4917 106.871C54.8725 106.903 54.9936 106.986 55.0426 107.203C55.0574 107.252 55.068 107.302 55.0744 107.353C55.0888 107.514 54.9215 107.641 54.6619 107.676C53.8499 107.781 53.0313 107.825 52.2128 107.809C51.5869 107.809 50.958 107.788 50.3292 107.788L50.3638 107.765Z" fill="#231F20"/>
<path id="Vector_23" d="M115.824 41.8868C115.069 41.8666 114.313 41.8493 113.554 41.8407C113.28 41.8407 113.003 41.8609 112.726 41.8551C111.754 41.8407 110.779 41.8147 109.807 41.8118C109.374 41.8118 108.942 41.8118 108.512 41.8436C107.959 41.8897 107.403 41.8897 106.85 41.8436C106.677 41.8234 106.703 41.6676 106.85 41.5118C107.039 41.3124 107.295 41.1892 107.569 41.1657C108.128 41.1253 108.691 41.0907 109.253 41.0734C109.816 41.0561 110.381 41.0734 110.949 41.0993C111.627 41.1368 112.334 41.0763 113.026 41.0676H115.317H116.727C117.44 41.0676 118.169 41.0849 118.865 41.0676C119.413 41.0676 119.955 41.0041 120.506 40.9839C120.627 40.9839 120.745 40.9695 120.869 40.9839C121.325 41.0099 121.478 41.1022 121.544 41.3186C121.562 41.3665 121.577 41.4156 121.588 41.4657C121.608 41.6301 121.409 41.7541 121.097 41.7859C120.107 41.8927 119.111 41.939 118.115 41.9243L115.833 41.907L115.824 41.8868Z" fill="#231F20"/>
<g id="Group" opacity="0.4">
<path id="Vector_24" d="M115.622 43.5916C115.885 43.6089 116.15 43.6118 116.418 43.6089C116.516 43.6089 116.614 43.5829 116.707 43.5829H117.763C117.919 43.5811 118.075 43.5705 118.23 43.5512C118.43 43.5065 118.638 43.5065 118.839 43.5512C118.902 43.5685 118.89 43.7099 118.839 43.8541C118.787 43.9983 118.7 44.1426 118.593 44.1426C118.204 44.2147 117.806 44.2361 117.411 44.206C117.162 44.2053 116.914 44.2246 116.669 44.2637C116.395 44.281 116.115 44.2897 115.839 44.2954H115.322C115.06 44.2954 114.797 44.2666 114.532 44.2608C114.327 44.2608 114.119 44.2781 113.903 44.2608C113.855 44.2651 113.807 44.2651 113.759 44.2608C113.583 44.2291 113.551 44.1339 113.586 43.9349C113.586 43.8916 113.586 43.8483 113.609 43.8079C113.624 43.7416 113.655 43.6802 113.701 43.6296C113.746 43.5791 113.804 43.5412 113.868 43.5195C114.192 43.4863 114.517 43.4863 114.84 43.5195C115.091 43.5195 115.348 43.5512 115.614 43.5483L115.622 43.5916Z" fill="#231F20"/>
</g>
<g id="Group_2" opacity="0.4">
<path id="Vector_25" d="M47.7413 60.8846C48.0038 60.9019 48.2721 60.9048 48.5404 60.9019C48.6385 60.9019 48.7336 60.8759 48.8288 60.8759H49.8846C50.0418 60.874 50.1988 60.8634 50.3548 60.8442C50.5542 60.7995 50.7611 60.7995 50.9606 60.8442C51.024 60.8615 51.0154 61.0028 50.9606 61.1471C50.9058 61.2913 50.8221 61.4355 50.7154 61.4355C50.3265 61.5074 49.9301 61.5296 49.5356 61.5019C49.2864 61.4988 49.0374 61.5171 48.7913 61.5567C48.5029 61.574 48.2404 61.5826 47.9606 61.5884H47.4442C47.1817 61.5884 46.9192 61.5596 46.6567 61.5538C46.4519 61.5538 46.2413 61.574 46.0279 61.5538C45.9799 61.5582 45.9316 61.5582 45.8836 61.5538C45.7048 61.5221 45.6731 61.4269 45.7077 61.2278C45.7077 61.1846 45.7077 61.1413 45.7308 61.1009C45.7466 61.035 45.7786 60.9741 45.8239 60.9237C45.8693 60.8733 45.9265 60.8351 45.9904 60.8125C46.3136 60.7793 46.6393 60.7793 46.9625 60.8125C47.2163 60.8125 47.4731 60.8442 47.7356 60.8413L47.7413 60.8846Z" fill="#231F20"/>
</g>
<path id="Vector_26" d="M45.1772 47.5406C43.7666 46.2598 41.932 49.0983 43.6512 49.8021C45.4599 50.5435 46.6368 47.3704 44.4502 47.4483" fill="#231F20"/>
<path id="Vector_27" d="M44.8627 50.2839C44.5614 50.3884 44.2375 50.4094 43.9252 50.3445C43.6258 50.2845 43.3449 50.154 43.106 49.9637C42.9138 49.8196 42.7626 49.6277 42.6675 49.407C42.5323 49.0321 42.5436 48.62 42.6993 48.2532C42.8262 47.9253 43.0323 47.6339 43.2993 47.4051C43.5322 47.1892 43.8145 47.0338 44.1214 46.9522C44.3304 46.8974 44.5499 46.8974 44.7589 46.9522C44.9617 47.0085 45.1408 47.1289 45.2695 47.2955C45.3502 47.3964 45.2147 47.4974 45.0445 47.5839C44.899 47.6606 44.7405 47.7095 44.5772 47.7282C44.3853 47.6944 44.1878 47.7335 44.0233 47.8378C43.8048 47.973 43.6156 48.1505 43.4666 48.3599C43.3764 48.4917 43.3273 48.6473 43.3252 48.807C43.3218 48.9458 43.36 49.0824 43.4349 49.1993C43.5389 49.3372 43.6765 49.4461 43.8345 49.5158C43.9926 49.5855 44.1658 49.6136 44.3377 49.5974C44.5676 49.5707 44.7824 49.4693 44.9493 49.3089C45.0866 49.1899 45.1963 49.0422 45.2706 48.8762C45.3448 48.7103 45.3818 48.5301 45.3791 48.3484C45.3706 48.2276 45.3207 48.1134 45.2377 48.0253C45.1564 47.9526 45.0566 47.9037 44.9493 47.8839L44.8022 47.8609C44.6089 47.8234 44.5368 47.7945 44.4791 47.5522C44.4791 47.5003 44.4474 47.4512 44.4387 47.408C44.4328 47.3617 44.437 47.3146 44.4512 47.2702C44.4653 47.2257 44.4891 47.1848 44.5207 47.1505C44.5523 47.1161 44.591 47.0891 44.6341 47.0713C44.6773 47.0535 44.7238 47.0453 44.7704 47.0474C44.9802 47.0212 45.1932 47.0469 45.3906 47.1224C45.6259 47.2159 45.8272 47.3789 45.9675 47.5897C46.1044 47.8 46.183 48.0429 46.1954 48.2935C46.2072 48.5172 46.1779 48.7411 46.1089 48.9541C46.0151 49.2539 45.8554 49.5289 45.6416 49.7589C45.4269 49.9975 45.1577 50.1806 44.857 50.2926L44.8627 50.2839Z" fill="#231F20"/>
<path id="Vector_28" d="M52.0307 47.5406C50.6201 46.2598 48.7855 49.0983 50.5047 49.8021C52.3134 50.5435 53.4903 47.3704 51.3038 47.4483" fill="#231F20"/>
<path id="Vector_29" d="M51.7193 50.2839C51.417 50.3884 51.0921 50.4093 50.7789 50.3445C50.4794 50.2845 50.1986 50.154 49.9597 49.9637C49.7727 49.8185 49.6274 49.6264 49.5385 49.407C49.4023 49.0325 49.4126 48.6204 49.5674 48.2532C49.6942 47.9253 49.9004 47.6339 50.1673 47.4051C50.4003 47.1892 50.6826 47.0338 50.9895 46.9522C51.1984 46.8974 51.418 46.8974 51.627 46.9522C51.8297 47.0085 52.0089 47.1289 52.1375 47.2955C52.2183 47.3964 52.0827 47.4974 51.9125 47.5839C51.7671 47.6606 51.6086 47.7095 51.4452 47.7282C51.2534 47.6944 51.0559 47.7335 50.8914 47.8378C50.6732 47.9724 50.4848 48.15 50.3375 48.3599C50.2453 48.4909 50.195 48.6468 50.1933 48.807C50.1899 48.9458 50.228 49.0824 50.3029 49.1993C50.4074 49.3374 50.5455 49.4465 50.704 49.5161C50.8626 49.5858 51.0363 49.6138 51.2087 49.5974C51.4375 49.5699 51.6512 49.4686 51.8173 49.3089C51.9547 49.1899 52.0644 49.0422 52.1386 48.8762C52.2129 48.7103 52.2499 48.5301 52.2472 48.3484C52.2415 48.2269 52.1911 48.1119 52.1058 48.0253C52.0285 47.9549 51.934 47.9061 51.8318 47.8839L51.6847 47.8609C51.4943 47.8234 51.4193 47.7945 51.3616 47.5522C51.3616 47.5003 51.3298 47.4512 51.3212 47.408C51.3153 47.3617 51.3195 47.3146 51.3337 47.2702C51.3478 47.2257 51.3715 47.1848 51.4032 47.1505C51.4348 47.1161 51.4735 47.0891 51.5166 47.0713C51.5598 47.0535 51.6063 47.0453 51.6529 47.0474C51.8627 47.0212 52.0757 47.0469 52.2731 47.1224C52.5084 47.2159 52.7097 47.3789 52.85 47.5897C52.9869 47.8 53.0655 48.0429 53.0779 48.2935C53.0897 48.5172 53.0604 48.7411 52.9914 48.9541C52.8976 49.2539 52.7379 49.5289 52.5241 49.7589C52.3094 49.9975 52.0402 50.1806 51.7395 50.2926L51.7193 50.2839Z" fill="#231F20"/>
<path id="Vector_30" d="M29.5455 59.3703C29.7763 59.1655 29.9869 58.9924 30.2378 58.7934C30.4902 58.6044 30.7531 58.4301 31.0253 58.2713C31.5417 57.9655 32.058 57.6944 32.5744 57.4347C33.6071 56.9069 34.6398 56.4136 35.6378 55.8857C36.0013 55.6895 36.3532 55.4847 36.6878 55.2684C36.9999 55.0787 37.2901 54.8552 37.5532 54.602C37.6138 54.5242 37.6225 54.5213 37.6311 54.478C37.6398 54.4347 37.6311 54.3684 37.6311 54.3194C37.6342 54.2627 37.6342 54.2059 37.6311 54.1492C37.6174 54.0463 37.581 53.9477 37.5244 53.8607C37.3731 53.6651 37.1642 53.5218 36.9273 53.4511C36.3126 53.2716 35.6703 53.2061 35.0321 53.2578C34.3576 53.2955 33.6878 53.392 33.0302 53.5463C32.7014 53.6257 32.3769 53.722 32.058 53.8347C31.9023 53.8895 31.7465 53.9501 31.6023 54.0136L31.3975 54.1174L31.1725 54.2472C30.0186 54.9107 28.8475 55.5338 27.6532 56.079C26.883 56.4309 26.1042 56.7626 25.3109 57.0511C24.5133 57.3322 23.6968 57.5568 22.8677 57.7232C22.3513 57.827 22.3686 57.6049 22.7292 57.2732C23.3046 56.785 23.9566 56.3951 24.659 56.1194C26.2286 55.5428 27.7604 54.8684 29.2455 54.1001C29.6177 53.9069 29.984 53.7107 30.3532 53.5059L30.9302 53.1886C31.1486 53.0756 31.3752 52.9791 31.608 52.9001C32.4645 52.6147 33.3512 52.4298 34.2503 52.3492C35.1144 52.2448 35.989 52.2672 36.8465 52.4155C37.0814 52.4673 37.3104 52.5427 37.5302 52.6405C37.7745 52.7459 37.9967 52.8967 38.185 53.0847C38.3876 53.2907 38.5346 53.5448 38.6119 53.8232L38.658 54.028L38.6753 54.2328C38.6825 54.298 38.6825 54.3638 38.6753 54.429V54.6482C38.6562 54.7467 38.6282 54.8432 38.5917 54.9367C38.5536 55.0238 38.5051 55.1062 38.4475 55.1819C38.4027 55.2449 38.3536 55.3047 38.3003 55.3607C38.254 55.4142 38.2039 55.4644 38.1504 55.5107C37.9602 55.685 37.7567 55.8442 37.5417 55.9867C36.5497 56.6193 35.521 57.1924 34.4609 57.703C33.4311 58.228 32.384 58.7299 31.4321 59.3097C31.285 59.402 31.1436 59.4944 31.0138 59.5982C30.884 59.702 30.7542 59.8059 30.6215 59.9184C30.3532 60.1434 30.0965 60.3742 29.8542 60.6136C29.6145 60.8449 29.3989 61.1001 29.2109 61.3751C29.014 61.6845 28.7992 61.9821 28.5677 62.2665C28.2081 62.6881 27.8228 63.0869 27.4138 63.4607C26.9921 63.8361 26.5341 64.1685 26.0465 64.453C25.086 65.0047 24.0635 65.4404 23.0003 65.7511C21.3836 66.2484 19.7042 66.5126 18.0128 66.5357C17.6436 66.5357 17.2773 66.5357 16.9023 66.5126C16.4125 66.4889 15.9278 66.4026 15.46 66.2559C15.2262 66.1866 15.0229 66.0402 14.883 65.8405C14.8252 65.7725 14.774 65.6991 14.7302 65.6213C14.6436 65.4107 15.2263 65.2838 16.1725 65.3501C17.6173 65.4382 19.0673 65.3763 20.4994 65.1655C21.9443 64.9518 23.3486 64.521 24.6648 63.8876C25.1457 63.6532 25.6068 63.3802 26.0436 63.0713C26.1475 62.9934 26.2542 62.9184 26.3552 62.8376C26.4561 62.7569 26.5455 62.6819 26.6436 62.5867C26.8484 62.3963 27.0503 62.2059 27.2407 62.0097C27.4268 61.8219 27.603 61.6245 27.7686 61.4184C27.9302 61.2194 28.0571 61.0145 28.2417 60.7549C28.4241 60.4827 28.6286 60.2261 28.8532 59.9876C29.0725 59.754 29.2975 59.5376 29.5225 59.3386L29.5455 59.3703Z" fill="#231F20"/>
<path id="Vector_31" d="M18.7078 44.5865C19.4123 43.9251 20.1996 43.3578 21.0501 42.899C21.4947 42.6651 21.9639 42.4812 22.4492 42.3509C22.9374 42.2252 23.4392 42.1593 23.9434 42.1548C24.8969 42.1562 25.8472 42.2655 26.7761 42.4807C27.6876 42.6798 28.553 42.8904 29.4443 43.1067C30.7338 43.424 32.0405 43.7298 33.3068 44.1048C34.4347 44.4365 35.5568 44.7942 36.6674 45.2154C37.2213 45.4231 37.7722 45.6509 38.3145 45.9106C38.8825 46.1675 39.418 46.4909 39.9097 46.874C40.044 46.9832 40.1677 47.1049 40.279 47.2375C40.4127 47.3908 40.5165 47.5679 40.5847 47.7596C40.664 47.9836 40.67 48.2271 40.602 48.4548C40.5338 48.6587 40.4226 48.8455 40.2761 49.0029C40.0217 49.2579 39.7117 49.4505 39.3703 49.5654C39.0686 49.6745 38.7563 49.7518 38.4386 49.7961C37.8255 49.8908 37.2024 49.9005 36.5867 49.825C36.0097 49.7557 35.4328 49.6779 34.8328 49.5711C34.2208 49.4704 33.6192 49.314 33.0357 49.1038C32.7472 48.9942 32.4588 48.8586 32.1876 48.7259L31.4261 48.3394C31.3718 48.3214 31.3131 48.3214 31.2588 48.3394L30.9386 48.3711C30.7193 48.3942 30.4943 48.4144 30.2722 48.4317C29.828 48.4634 29.3838 48.4836 28.9367 48.4836C28.1758 48.4808 27.4161 48.4229 26.6636 48.3106C26.4732 48.2875 26.2857 48.2529 26.0867 48.2182C25.8876 48.1836 25.7117 48.149 25.527 48.1029C25.3424 48.0567 25.1549 48.0163 24.9703 47.9615L24.6818 47.8779L24.5463 47.8346L24.477 47.8144C24.477 47.8144 24.4597 47.8144 24.4568 47.7971C24.3986 47.7955 24.3413 47.8116 24.2924 47.8432C24.177 47.9009 24.0501 47.9759 23.9232 48.0481C23.6693 48.1894 23.404 48.3365 23.1299 48.4548C22.5759 48.7091 21.983 48.8681 21.3761 48.925C21.2193 48.9491 21.0598 48.9491 20.903 48.925C20.8049 48.9048 20.7617 48.8788 20.7674 48.8471C20.7732 48.8154 20.9838 48.7057 21.3068 48.5586C21.7334 48.3818 22.142 48.1645 22.527 47.9096C22.7636 47.7538 23.0145 47.5807 23.2799 47.3846L23.7155 47.0759L23.854 46.9894C23.9306 46.942 24.0118 46.9024 24.0963 46.8711C24.1366 46.85 24.1807 46.8373 24.2261 46.8336C24.2699 46.8248 24.3142 46.8191 24.3588 46.8163C24.4049 46.8163 24.4482 46.8365 24.4943 46.8163H24.5636H24.5982H24.627C24.627 46.8163 24.627 46.7961 24.627 46.8394V46.8163H24.6617L24.8203 46.8596L24.9213 46.8856L25.1261 46.9375C25.2617 46.9721 25.4145 47.0009 25.5386 47.024L25.9511 47.1192L26.3665 47.1942C26.9208 47.2908 27.4805 47.3544 28.0424 47.3846C28.6055 47.4149 29.1698 47.4149 29.7328 47.3846C30.0213 47.3673 30.3097 47.3471 30.5982 47.3182L31.0367 47.275H31.1549C31.2201 47.2675 31.2859 47.2675 31.3511 47.275C31.4228 47.2754 31.4944 47.2831 31.5645 47.2981H31.6165H31.6424L31.7434 47.3356L32.3203 47.624C32.4876 47.7106 32.652 47.7942 32.8136 47.8692C33.1251 48.0191 33.4471 48.1464 33.777 48.25C34.4739 48.4471 35.1845 48.5917 35.903 48.6827L36.4597 48.7577C36.6357 48.7779 36.852 48.8096 36.9905 48.8211C37.3347 48.8417 37.68 48.8349 38.0232 48.8009C38.354 48.7699 38.6801 48.7012 38.9953 48.5961C39.1273 48.5479 39.254 48.486 39.3732 48.4115C39.4626 48.3365 39.5549 48.2644 39.578 48.1952C39.5948 48.1745 39.6059 48.1497 39.6099 48.1233C39.614 48.0969 39.6109 48.07 39.6011 48.0452C39.5456 47.9278 39.4682 47.8221 39.3732 47.7336C39.1006 47.4872 38.7983 47.276 38.4732 47.1048C37.7625 46.7266 37.0238 46.4036 36.2636 46.1384C34.7203 45.5788 33.1165 45.1317 31.5213 44.6961C30.6559 44.4625 29.7617 44.2432 28.8761 44.0298C27.9905 43.8163 27.0992 43.6 26.2251 43.4269C25.3724 43.2446 24.5002 43.17 23.629 43.2048C22.7904 43.2854 21.9824 43.561 21.2693 44.0096C20.3435 44.5844 19.4961 45.2767 18.7482 46.0692C17.9779 46.8624 17.2737 47.7172 16.6424 48.625C14.678 51.3769 12.8751 54.2932 11.0174 57.1202C9.57511 59.3211 8.18761 61.5048 6.51454 63.5413L5.93761 64.1961C5.74146 64.4067 5.54819 64.6231 5.33761 64.8307C4.79627 65.3935 4.17988 65.8788 3.50588 66.2731C3.3905 66.3336 3.29242 66.3913 3.19434 66.4346C3.09627 66.4779 3.00684 66.5038 2.92319 66.5298C2.78554 66.5802 2.63998 66.6056 2.49338 66.6048C2.38395 66.6137 2.27397 66.6137 2.16454 66.6048C2.04627 66.5788 2.16454 66.449 2.48473 66.25C2.9429 65.9095 3.37754 65.5385 3.78569 65.1394C4.58497 64.3153 5.32435 63.4352 5.99819 62.5057C6.71069 61.5798 7.39434 60.6077 8.06934 59.6211C9.428 57.6481 10.7492 55.5827 12.0761 53.5231C13.0626 51.9884 14.0549 50.4481 15.0905 48.9077C15.6126 48.1432 16.1492 47.3846 16.7347 46.6432C17.0232 46.274 17.3376 45.9048 17.6693 45.55C18.0011 45.1952 18.327 44.8779 18.679 44.5548L18.7078 44.5865Z" fill="#231F20"/>
<path id="Vector_32" d="M35.8424 50.0415C35.5726 50.0816 35.3284 50.2236 35.1599 50.4382C34.9915 50.6528 34.9116 50.9237 34.9367 51.1954C35.0232 51.9829 36.1251 52.5598 36.8261 52.6377C38.6549 52.88 40.4578 50.33 35.8424 50.0415Z" fill="#231F20"/>
<path id="Vector_33" d="M39.047 52.124C38.8547 52.4076 38.5911 52.6355 38.2826 52.7846C38.0025 52.9267 37.6981 53.0148 37.3855 53.0442C37.1589 53.0788 36.9284 53.0788 36.7018 53.0442C36.3325 52.9587 35.9817 52.8072 35.6662 52.5971C35.3411 52.3931 35.0676 52.1167 34.8672 51.7894C34.7698 51.6315 34.7071 51.4546 34.6832 51.2706C34.6594 51.0866 34.6749 50.8997 34.7287 50.7221C34.7993 50.5036 34.9221 50.3056 35.0864 50.1452C35.2581 49.9753 35.4882 49.8773 35.7297 49.8711C35.8883 49.8711 35.8451 50.0183 35.7787 50.1596C35.7288 50.3081 35.668 50.4527 35.597 50.5923C35.5223 50.6849 35.47 50.7935 35.4441 50.9096C35.433 50.9618 35.4272 51.0149 35.4268 51.0683C35.4196 51.1132 35.4196 51.1589 35.4268 51.2038C35.5019 51.4698 35.6595 51.7051 35.8768 51.8759C36.1947 52.1371 36.5857 52.2933 36.996 52.3231C37.4348 52.3565 37.8693 52.2179 38.2076 51.9365C38.3023 51.8703 38.3786 51.7809 38.4291 51.6769C38.4796 51.5729 38.5026 51.4577 38.496 51.3423C38.4412 51.0307 38.0287 50.7509 37.6047 50.6327C37.2604 50.5483 36.9058 50.5143 36.5518 50.5317C36.4739 50.5317 36.396 50.5317 36.3181 50.5317C36.2148 50.531 36.1142 50.4988 36.0297 50.4394C35.9603 50.3582 35.9179 50.2574 35.9085 50.1509C35.9085 50.0961 35.8826 50.0442 35.8768 49.9923C35.8717 49.9493 35.8763 49.9058 35.8902 49.8648C35.9042 49.8239 35.9272 49.7866 35.9576 49.7557C36.0301 49.6677 36.133 49.6101 36.246 49.5942C36.6108 49.5339 36.9836 49.5427 37.3451 49.6202C37.7531 49.6936 38.1441 49.8413 38.4989 50.0558C38.8317 50.2472 39.0929 50.5419 39.2431 50.8952C39.3259 51.1039 39.3537 51.3303 39.3239 51.5529C39.2948 51.7578 39.223 51.9543 39.1133 52.1298L39.047 52.124Z" fill="#231F20"/>
<path id="Vector_34" d="M47.808 58.4068L45.6416 58.3549C45.3791 58.3549 45.1166 58.3549 44.8512 58.3549C43.9224 58.3261 42.9935 58.2943 42.0647 58.2799C41.6522 58.2799 41.2397 58.2799 40.8301 58.2943C40.3035 58.3285 39.7752 58.3236 39.2493 58.2799C39.082 58.2597 39.1051 58.1328 39.2493 57.9914C39.4408 57.8215 39.6833 57.72 39.9387 57.703C40.4724 57.6655 41.0089 57.6309 41.5455 57.6136C42.082 57.5962 42.6185 57.6136 43.1608 57.6424C43.8099 57.677 44.482 57.6222 45.1426 57.6136H48.6705C49.3512 57.6136 50.032 57.628 50.707 57.6136C51.2291 57.5991 51.7455 57.5357 52.2676 57.5011C52.3801 57.5011 52.4955 57.478 52.6137 57.478C53.0435 57.4636 53.2051 57.5587 53.2657 57.7924C53.2842 57.8449 53.2977 57.8989 53.306 57.9539C53.3205 58.1299 53.1416 58.2741 52.8503 58.3116C51.9032 58.4174 50.9503 58.4627 49.9974 58.4472L47.808 58.4068Z" fill="#231F20"/>
<path id="Vector_35" d="M47.8076 74.5259C46.8124 75.374 45.8115 76.2249 44.7932 77.0615C44.4211 77.3673 44.0634 77.6932 43.6769 77.9874C43.3711 78.2182 43.0596 78.4461 42.7278 78.6624C42.5576 78.7721 42.3961 78.873 42.1855 78.9826C42.0606 79.0689 41.9171 79.1243 41.7667 79.1443C41.6163 79.1644 41.4632 79.1485 41.3201 79.098L41.0692 78.9624C40.9855 78.9105 40.9394 78.873 40.8874 78.8384C40.7836 78.7663 40.6826 78.6942 40.599 78.6163C40.4086 78.4663 40.2269 78.3134 40.048 78.1576C39.6932 77.849 39.3471 77.5317 39.0038 77.2172L37.3163 75.7144C36.9644 75.3913 36.6067 75.074 36.2634 74.7423C35.9172 74.4098 35.5961 74.0521 35.3028 73.6721C35.1182 73.4297 35.2682 73.3461 35.5913 73.3836C36.0415 73.4482 36.4671 73.6291 36.8259 73.9086C37.5528 74.5461 38.3028 75.1576 38.998 75.8269C39.6932 76.4961 40.4057 77.1567 41.1124 77.7711C41.2048 77.849 41.2999 77.9326 41.4009 77.999L41.5249 78.0913L41.574 78.1288C41.5892 78.1379 41.6067 78.1428 41.6245 78.1428C41.6423 78.1428 41.6597 78.1379 41.6749 78.1288C41.7289 78.1092 41.7803 78.0831 41.8278 78.0509C42.0157 77.9381 42.1976 77.8159 42.373 77.6846C42.7365 77.4163 43.0971 77.1076 43.4576 76.8192C44.4759 76.0028 45.4769 75.1519 46.4692 74.2894L47.3865 73.4903L47.848 73.0894L48.1365 72.8413C48.2384 72.7418 48.3603 72.6651 48.4942 72.6163C48.5386 72.5904 48.5907 72.5812 48.6413 72.5903C48.6912 72.6041 48.7403 72.6204 48.7884 72.6394C48.8899 72.6771 48.9867 72.7265 49.0769 72.7865C49.299 72.9192 49.3884 72.9855 49.5269 73.0749L50.2884 73.6057L51.7942 74.6672C52.5759 75.2067 53.3721 75.6884 54.1567 76.2105C54.3269 76.3259 54.5028 76.4297 54.673 76.5509C54.9069 76.6993 55.1161 76.8832 55.2932 77.0961C55.3833 77.2341 55.4192 77.4005 55.3942 77.5634C55.3935 77.6311 55.3877 77.6985 55.3769 77.7653C55.348 77.8605 55.25 77.8865 55.0884 77.8807C54.8622 77.8624 54.6441 77.788 54.4538 77.6644C53.0115 76.8249 51.5692 75.8096 50.1269 74.7971L49.3048 74.2721L48.9067 73.9836L48.7105 73.8509L48.673 73.8249H48.6586L48.5692 73.9028L47.8076 74.5605V74.5259Z" fill="#231F20"/>
<path id="Vector_36" d="M84.4422 101.218L84.4249 97.9262C84.4249 97.5281 84.3902 97.13 84.3874 96.7291V92.5089C84.3874 91.8829 84.3585 91.2541 84.3326 90.6339C84.3152 90.2358 84.2864 89.8377 84.2777 89.4368C84.2707 89.0349 84.2909 88.633 84.3383 88.2339C84.3672 87.9858 84.5258 88.0204 84.7018 88.2339C84.9344 88.5373 85.0799 88.8982 85.1229 89.2781C85.2124 90.8964 85.2701 92.5204 85.2297 94.1618C85.2008 95.1425 85.2787 96.1608 85.3047 97.1646L85.3653 100.473L85.3999 102.513C85.4201 103.54 85.4316 104.575 85.4691 105.596C85.4979 106.39 85.5816 107.166 85.6277 107.953C85.6277 108.129 85.6566 108.299 85.6595 108.475C85.6866 108.711 85.665 108.949 85.596 109.176C85.5522 109.302 85.4611 109.405 85.3422 109.465C85.2918 109.498 85.2387 109.527 85.1835 109.551C85.0076 109.603 84.8576 109.335 84.7826 108.873C84.621 107.489 84.5374 106.015 84.4941 104.546C84.471 103.444 84.4508 102.34 84.4278 101.235L84.4422 101.218Z" fill="#231F20"/>
<path id="Vector_37" d="M98.2886 109.73C97.2867 109.73 96.2858 109.73 95.2858 109.73C94.9194 109.73 94.556 109.762 94.1896 109.765L90.3242 109.785C89.7473 109.785 89.1704 109.822 88.6108 109.857C87.8824 109.932 87.1488 109.944 86.4185 109.892C86.1877 109.869 86.2136 109.695 86.4011 109.511C86.6609 109.266 86.9927 109.111 87.3473 109.07C87.7165 109.026 88.0886 109.006 88.4608 108.989L89.5771 108.945C90.3242 108.922 91.0713 108.922 91.8242 108.945C92.7242 108.977 93.656 108.899 94.5761 108.882C95.5858 108.865 96.5954 108.856 97.6108 108.85H99.4771H102.304C103.031 108.85 103.746 108.784 104.473 108.77C104.632 108.77 104.791 108.77 104.952 108.77C105.552 108.79 105.745 108.868 105.846 109.124C105.873 109.176 105.895 109.23 105.913 109.286C105.953 109.447 105.696 109.62 105.272 109.632C104.009 109.716 102.676 109.736 101.315 109.745L98.2915 109.765L98.2886 109.73Z" fill="#231F20"/>
<path id="Vector_38" d="M136.339 65.5118C135.159 63.4747 134.164 61.3353 133.368 59.1195C133.08 58.306 132.809 57.5012 132.578 56.6849C131.756 53.8002 131.161 50.881 130.186 48.0945C129.764 46.8623 129.251 45.6629 128.652 44.506C128.454 44.1609 128.224 43.8354 127.965 43.5339C127.705 43.2412 127.415 42.9763 127.1 42.7435C126.436 42.2799 125.714 41.9046 124.954 41.6272C124.472 41.4368 124.584 41.2868 125.069 41.2349C125.397 41.2096 125.727 41.227 126.05 41.2868C126.521 41.3652 126.973 41.5284 127.385 41.7685C128.212 42.2636 128.901 42.9578 129.39 43.7877C129.52 43.9868 129.624 44.1916 129.736 44.3993L130.025 44.9935C130.221 45.3887 130.385 45.7954 130.564 46.1993C131.213 47.8227 131.737 49.4929 132.134 51.1954C132.633 53.2147 133.209 55.2974 133.824 57.3108C134.151 58.417 134.536 59.5051 134.978 60.5704C135.41 61.6377 135.921 62.6762 136.452 63.706C137.124 64.9608 137.834 66.2041 138.624 67.3897C139.798 69.2033 141.119 70.9177 142.573 72.5156C143.127 73.1358 143.727 73.6925 144.333 74.2464C144.938 74.8002 145.576 75.3079 146.242 75.781L146.672 76.0983C146.819 76.1964 146.96 76.2887 147.122 76.3868C147.41 76.5685 147.627 76.7272 147.811 76.8685C147.996 77.0099 148.16 77.1022 148.282 77.2002C148.47 77.3325 148.621 77.5114 148.72 77.7195C148.759 77.7934 148.792 77.8706 148.818 77.9502C148.861 78.1637 148.296 78.0339 147.376 77.5868C146.025 76.8175 144.767 75.8961 143.626 74.8406C142.464 73.7616 141.377 72.6051 140.372 71.3791C138.878 69.5346 137.528 67.5778 136.334 65.5262L136.339 65.5118Z" fill="#231F20"/>
<path id="Vector_39" d="M123.711 65.3819C123.125 64.6745 122.391 64.1035 121.562 63.7088C120.693 63.3079 119.774 63.0265 118.83 62.8723C118.118 62.7396 117.388 62.6501 116.635 62.4713C115.967 62.3223 115.315 62.1058 114.691 61.8252C114.01 61.5339 113.414 61.0743 112.96 60.4896C112.845 60.3335 112.749 60.1652 112.671 59.9876C112.573 59.7963 112.512 59.5876 112.493 59.3732C112.467 59.1198 112.519 58.8646 112.64 58.6405C112.756 58.438 112.918 58.2652 113.113 58.1357C113.432 57.9296 113.787 57.7857 114.16 57.7117C114.495 57.6365 114.836 57.5844 115.178 57.5559C116.351 57.4722 117.528 57.4722 118.7 57.5559C119.442 57.6107 120.18 57.6771 120.919 57.7867C121.285 57.8444 121.654 57.9021 122.018 57.9944C122.199 58.0405 122.381 58.0896 122.56 58.1444C122.739 58.1992 122.912 58.3001 123.093 58.3694C123.318 58.4588 123.417 58.5742 123.382 58.6405C123.347 58.7069 123.197 58.7501 122.99 58.805C122.354 59.0174 121.68 59.0883 121.014 59.0127C120.287 58.9203 119.571 58.8482 118.83 58.7963C118.089 58.7444 117.388 58.6751 116.655 58.6607C115.956 58.6337 115.256 58.6703 114.564 58.7703C114.28 58.8114 114.005 58.8991 113.75 59.03C113.689 59.0612 113.634 59.1055 113.592 59.1598C113.566 59.1886 113.551 59.2463 113.566 59.353C113.604 59.5111 113.665 59.6627 113.747 59.803L113.9 60.028C113.958 60.1001 114.03 60.1636 114.094 60.2328C114.394 60.5069 114.739 60.7266 115.115 60.8819C115.939 61.2077 116.797 61.4418 117.673 61.58L119.168 61.8511C119.685 61.9464 120.196 62.0716 120.699 62.2261C121.729 62.5303 122.691 63.0276 123.535 63.6915C124.046 64.1109 124.5 64.5958 124.885 65.1338C124.983 65.2636 125.067 65.405 125.159 65.5405C125.202 65.6069 125.248 65.6819 125.292 65.7626L125.404 65.9761C125.548 66.2646 125.693 66.5328 125.834 66.8011C126.673 68.4526 127.853 69.9076 129.295 71.0703C130.414 71.9079 131.698 72.4979 133.063 72.8011C133.351 72.879 133.657 72.9107 133.957 72.9713C134.257 73.0319 134.47 73.055 134.669 73.0867C134.833 73.1138 134.994 73.1494 135.154 73.1934C135.266 73.2192 135.374 73.2579 135.477 73.3088C135.555 73.3573 135.628 73.4143 135.694 73.479C135.751 73.5338 135.826 73.5828 135.861 73.6232C135.895 73.6636 135.826 73.753 135.604 73.8511C135.274 73.9672 134.924 74.0171 134.574 73.9982C133.171 73.9889 131.788 73.6708 130.521 73.0665C129.218 72.4283 128.049 71.5471 127.077 70.4703C126.359 69.6801 125.728 68.8156 125.193 67.8915C124.925 67.4357 124.68 66.9626 124.449 66.5155C124.242 66.1096 123.985 65.7308 123.685 65.3876L123.711 65.3819Z" fill="#231F20"/>
<path id="Vector_40" d="M138.774 82.7879C138.344 82.211 137.938 81.6341 137.534 81.0571C137.384 80.8466 137.222 80.6504 137.078 80.437C136.573 79.687 136.097 78.9196 135.604 78.1696C135.385 77.835 135.139 77.5177 134.897 77.2062C134.563 76.8248 134.259 76.4189 133.986 75.9918C133.83 75.7033 134.612 75.5908 135.004 76.0437C135.678 76.8463 136.287 77.7009 136.827 78.5995C137.147 79.1418 137.56 79.6466 137.929 80.1658C138.336 80.7427 138.742 81.3196 139.166 81.862C139.429 82.2052 139.691 82.5456 139.968 82.8716C140.379 83.3783 140.821 83.8599 141.289 84.3139C141.477 84.4783 141.673 84.6283 141.866 84.7783C142.06 84.9283 142.276 85.0668 142.475 85.1937C142.562 85.2543 142.654 85.3091 142.743 85.3668C143.075 85.5889 143.141 85.7129 143.078 85.9668C143.061 86.0216 143.052 86.085 143.032 86.137C142.96 86.3158 142.743 86.3446 142.455 86.2062C141.595 85.762 140.821 85.1681 140.17 84.4523C139.668 83.9273 139.204 83.3706 138.76 82.8081L138.774 82.7879Z" fill="#231F20"/>
<path id="Vector_41" d="M12.3442 71.3532C12.8836 70.7445 13.4404 70.1445 14.0058 69.556C14.2106 69.3397 14.401 69.1089 14.6144 68.9012C15.3709 68.1598 16.1787 67.4725 17.0317 66.8445C17.4125 66.556 17.8019 66.2878 18.2029 66.031L18.6067 65.7945C18.7481 65.7282 18.8952 65.6503 19.0365 65.5955C19.1891 65.5348 19.3477 65.4903 19.5096 65.4628C19.5904 65.4484 19.674 65.4368 19.7548 65.4282C19.8356 65.4195 19.925 65.4282 20.0115 65.4282C20.225 65.4484 20.1673 65.6705 20.0317 65.8955C19.9591 66.0107 19.8771 66.1197 19.7865 66.2214C19.7422 66.2717 19.6918 66.3163 19.6365 66.3541C19.5821 66.3962 19.5218 66.4302 19.4577 66.4551C18.9584 66.6612 18.4842 66.9234 18.0442 67.2368C17.574 67.5541 17.1096 67.906 16.6365 68.2609C16.0777 68.7252 15.555 69.2315 15.0731 69.7753C14.5135 70.3522 13.9654 70.9464 13.4317 71.5522C13.1029 71.9243 12.7769 72.3022 12.4596 72.6859C11.9808 73.2628 11.4933 73.8541 11.0548 74.4628C10.7086 74.933 10.4317 75.4378 10.1115 75.9224C10.0394 76.0291 9.97884 76.1387 9.90384 76.2426C9.61538 76.632 9.46826 76.7157 9.20865 76.6378C9.1485 76.6247 9.08961 76.6064 9.03268 76.583C8.85672 76.4936 8.85095 76.2512 9.00672 75.9426C9.50332 74.9846 10.0937 74.0783 10.7692 73.2368C11.2654 72.5878 11.7933 71.956 12.324 71.3272L12.3442 71.3532Z" fill="#231F20"/>
<path id="Vector_42" d="M123.702 72.3253V71.2061C123.702 71.0705 123.673 70.9378 123.676 70.7994C123.676 70.3176 123.716 69.833 123.725 69.3571C123.725 69.1407 123.725 68.9244 123.711 68.7138C123.672 68.4393 123.681 68.1602 123.737 67.8888C123.76 67.8022 123.913 67.8138 124.068 67.8888C124.224 67.9638 124.391 68.0849 124.415 68.2349C124.458 68.5032 124.492 68.7744 124.516 69.0455C124.532 69.3226 124.525 69.6006 124.492 69.8763C124.487 70.2172 124.501 70.5582 124.536 70.8974L124.556 72.0253V72.7234C124.556 73.0753 124.556 73.4301 124.582 73.7821C124.582 74.0532 124.663 74.3244 124.66 74.6042C124.66 74.6676 124.66 74.7282 124.66 74.7917C124.659 74.8825 124.628 74.9705 124.573 75.0426C124.545 75.0687 124.513 75.089 124.477 75.1023C124.441 75.1157 124.404 75.1219 124.366 75.1205C124.323 75.1234 124.281 75.1234 124.239 75.1205C124.17 75.1118 124.105 75.0822 124.054 75.0358C124.002 74.9894 123.966 74.9284 123.95 74.8609C123.801 74.4038 123.716 73.928 123.699 73.4474C123.682 73.0782 123.679 72.7061 123.665 72.334L123.702 72.3253Z" fill="#231F20"/>
<path id="Vector_43" d="M125.54 47.2925L125.329 49.779C125.303 50.0675 125.3 50.3848 125.274 50.6848C125.185 51.7521 125.084 52.8165 125.003 53.8838C124.968 54.3569 124.948 54.8329 124.934 55.3031C124.95 55.9076 124.909 56.5123 124.81 57.1088C124.775 57.2963 124.651 57.2704 124.521 57.1088C124.329 56.8776 124.214 56.5922 124.192 56.2925C124.192 55.6752 124.21 55.055 124.239 54.4377C124.267 53.8204 124.34 53.2002 124.415 52.58C124.51 51.8386 124.513 51.0627 124.565 50.3011C124.622 49.4646 124.689 48.6281 124.758 47.7915L124.885 46.2483C124.942 45.4694 125.017 44.6877 125.061 43.9117C125.095 43.3117 125.09 42.7175 125.11 42.1175C125.11 41.9848 125.11 41.855 125.124 41.7223C125.15 41.2261 125.254 41.0675 125.456 40.9954C125.498 40.9749 125.543 40.9585 125.589 40.9463C125.658 40.9319 125.713 40.9809 125.765 41.0761C125.828 41.2041 125.857 41.3462 125.848 41.4886C125.871 42.5444 125.816 43.6665 125.744 44.7858C125.684 45.6194 125.626 46.4588 125.565 47.2925H125.54Z" fill="#231F20"/>
<path id="Vector_44" d="M124.276 71.8403C124.29 71.5865 124.276 71.3326 124.276 71.073C124.276 70.9778 124.247 70.8855 124.244 70.7845C124.244 70.4442 124.224 70.1009 124.204 69.7576C124.192 69.6066 124.172 69.4563 124.143 69.3076C124.093 69.1197 124.079 68.9238 124.103 68.7307C124.103 68.6701 124.224 68.6643 124.342 68.699C124.404 68.7106 124.462 68.7362 124.512 68.7737C124.562 68.8112 124.602 68.8596 124.631 68.9153C124.734 69.2913 124.788 69.6792 124.789 70.0692C124.81 70.3109 124.848 70.5509 124.902 70.7874C124.942 71.0569 124.966 71.3285 124.974 71.6009C124.974 71.7682 124.974 71.9384 124.974 72.1057C124.974 72.3595 124.96 72.6105 124.974 72.8615C124.993 73.0554 125.024 73.248 125.066 73.4384C125.076 73.4802 125.083 73.5226 125.086 73.5653C125.086 73.724 125.043 73.7701 124.83 73.7932C124.781 73.796 124.732 73.796 124.683 73.7932C124.615 73.8038 124.546 73.7925 124.485 73.7608C124.424 73.7291 124.375 73.6788 124.345 73.6172C124.244 73.284 124.205 72.9347 124.233 72.5874C124.233 72.3307 124.253 72.074 124.233 71.8201L124.276 71.8403Z" fill="#231F20"/>
<path id="Vector_45" d="M92.4272 41.3299V49.952L100.824 55.0722C101.658 52.7011 103.25 46.202 96.9388 42.7549C96.9388 42.7549 94.1176 40.9953 92.4272 41.3299Z" fill="#231F20"/>
<path id="Vector_46" d="M105.471 81.4003L99.2494 81.432L96.9792 81.4638L88.9773 81.4811C87.7946 81.4811 86.6061 81.5041 85.4321 81.5243C83.9234 81.5474 82.4061 81.5936 80.8974 81.5416C79.9599 81.5099 81.1513 81.0339 82.885 81.0022C85.9628 80.9503 89.0407 80.9041 92.1474 80.9186C94.0051 80.9186 95.9378 80.858 97.8359 80.8291L104.104 80.7397L107.961 80.6878C109.908 80.6561 111.864 80.633 113.796 80.5811C115.299 80.5407 116.771 80.4599 118.256 80.3965L119.231 80.3532C120.454 80.3157 120.846 80.3532 121.112 80.5609C121.174 80.6005 121.233 80.647 121.285 80.6993C121.4 80.8551 120.907 80.9878 120.013 81.0397C117.365 81.2128 114.564 81.282 111.754 81.3282L105.474 81.4147L105.471 81.4003Z" fill="#231F20"/>
<path id="Vector_47" d="M52.951 86.8376L47.6 86.8867C46.9481 86.8867 46.2961 86.927 45.6471 86.927H38.7644C37.7461 86.927 36.7221 86.9444 35.7125 86.9674C34.4144 86.9819 33.1163 87.0107 31.8125 86.9386C31.4086 86.9155 31.4635 86.7972 31.8125 86.6732C32.3722 86.493 32.9553 86.3958 33.5433 86.3847C36.1856 86.2838 38.8308 86.2463 41.5019 86.252C43.1 86.252 44.7615 86.1771 46.4058 86.1367L51.7942 86.0357L55.1115 85.9694C56.7846 85.9319 58.4663 85.9001 60.1279 85.8424C61.4202 85.7934 62.6836 85.6953 63.9615 85.6261C64.25 85.6117 64.5183 85.5886 64.8038 85.5771C65.177 85.5539 65.5514 85.5626 65.9231 85.603C66.1128 85.6211 66.2903 85.7047 66.425 85.8396C66.4801 85.8867 66.5286 85.941 66.5692 86.0011C66.6586 86.1886 66.2461 86.3242 65.4817 86.3934C63.2086 86.5895 60.8 86.6819 58.3856 86.754L52.9856 86.8578L52.951 86.8376Z" fill="#231F20"/>
<path id="Vector_48" d="M68.222 69.1321L68.297 63.9629V62.0764L68.4182 55.4417C68.4355 54.461 68.4355 53.4716 68.4182 52.4966C68.4182 51.2446 68.4182 49.9841 68.5249 48.7321C68.5538 48.3398 68.6114 48.3918 68.6951 48.7321C68.8334 49.2751 68.9242 49.8291 68.9663 50.3879C69.0413 51.6687 69.0384 52.9466 69.0355 54.2302C69.0326 55.5139 69.0153 56.7975 68.9691 58.0869C68.9172 59.6302 68.9461 61.2369 68.9345 62.8148C68.9153 64.5456 68.897 66.2821 68.8797 68.0244L68.8653 71.2091C68.8653 72.8273 68.8307 74.4514 68.8393 76.0581C68.8393 77.3071 68.8913 78.5302 68.9172 79.7648C68.9172 80.036 68.9172 80.3014 68.9403 80.5754C68.9403 81.5908 68.9086 81.9139 68.7239 82.1331C68.6896 82.1843 68.651 82.2326 68.6086 82.2773C68.4903 82.3725 68.3489 81.96 68.3201 81.2158C68.2018 79.0119 68.1845 76.6841 68.1816 74.3504C68.1816 72.6196 68.1989 70.8744 68.2076 69.135L68.222 69.1321Z" fill="#231F20"/>
<path id="Vector_49" d="M140.164 78.3542C140.506 78.0965 140.826 77.8119 141.122 77.5032C141.229 77.3878 141.31 77.2494 141.411 77.1311C141.787 76.7082 142.122 76.2503 142.412 75.7638C142.53 75.5429 142.627 75.3111 142.7 75.0715C142.749 74.9157 142.787 74.7599 142.836 74.607C142.872 74.4489 142.937 74.2985 143.026 74.1628C143.084 74.0734 143.314 74.1455 143.499 74.2897C143.684 74.434 143.857 74.6647 143.805 74.8667C143.609 75.5658 143.275 76.2183 142.821 76.7849C142.686 76.9562 142.56 77.1343 142.443 77.3186C142.329 77.507 142.202 77.6881 142.065 77.8609C141.763 78.2372 141.428 78.5866 141.064 78.9051C140.834 79.0926 140.609 79.2859 140.361 79.4532L140.072 79.6465L139.784 79.8196C139.596 79.9436 139.388 80.033 139.207 80.1484C138.903 80.3261 138.587 80.4814 138.261 80.6128C138.19 80.6461 138.117 80.6722 138.041 80.6907C137.753 80.7426 137.646 80.6907 137.557 80.4744C137.533 80.4261 137.514 80.3759 137.499 80.3244C137.479 80.2395 137.487 80.1504 137.523 80.071C137.559 79.9916 137.621 79.9265 137.698 79.8859C138.177 79.5801 138.63 79.309 139.114 79.0551C139.473 78.8444 139.814 78.6062 140.136 78.3426L140.164 78.3542Z" fill="#231F20"/>
<path id="Vector_50" d="M143.845 81.7406C143.756 81.6737 143.671 81.6005 143.592 81.5213L143.433 81.3684C143.346 81.2732 143.251 81.1781 143.168 81.08C142.994 80.8867 142.836 80.6906 142.68 80.5031L142.239 79.9261C142.108 79.7568 141.969 79.595 141.82 79.4415C141.693 79.3057 141.553 79.1821 141.402 79.0723L141.344 79.0377V79.0175V78.9771C141.362 78.9252 141.379 78.8877 141.391 78.8386L141.419 78.7146C141.419 78.68 141.419 78.6367 141.419 78.6165C141.419 78.4925 141.37 78.4896 141.437 78.5386C141.485 78.57 141.539 78.5916 141.595 78.6021C141.69 78.6292 141.786 78.6465 141.884 78.654H141.904V78.7059C141.907 78.7437 141.912 78.7812 141.918 78.8184C141.934 78.9088 141.954 79.005 141.979 79.1069L141.999 79.1819L142.019 79.2338C142.03 79.2727 142.044 79.3104 142.063 79.3463C142.102 79.445 142.148 79.5414 142.198 79.6348C142.487 80.2117 142.911 80.7742 143.268 81.3656C143.522 81.8098 144.356 83.0502 144.307 83.6732C144.321 83.8401 144.3 84.008 144.246 84.1665C144.199 84.345 144.098 84.5049 143.958 84.6252C143.817 84.7324 143.644 84.7893 143.468 84.7867C143.298 84.7884 143.129 84.7611 142.968 84.7059C142.554 84.5472 142.171 84.3156 141.838 84.0223C141.743 83.9473 141.647 83.8694 141.549 83.7886L141.411 83.6675L141.342 83.6069L141.295 83.5636L140.981 83.2146C140.537 82.7732 140.116 82.3204 139.692 81.8675L139.135 81.2675L138.999 81.1261L138.933 81.0598L138.904 81.0309L138.944 80.9761C138.959 80.9588 138.976 80.9329 138.988 80.9213C138.999 80.9229 139.011 80.9229 139.022 80.9213C139.045 80.9103 139.065 80.8957 139.083 80.8781C139.117 80.8467 139.138 80.8032 139.141 80.7569V80.7079C139.227 81.53 139.164 80.9357 139.184 81.1175C139.175 81.1054 139.169 81.0916 139.167 81.0771C139.163 81.0568 139.156 81.0373 139.146 81.0194C139.089 80.93 139.1 80.9819 139.172 80.9934C139.172 80.9934 139.233 81.0136 139.259 81.0136C139.259 81.0136 139.259 81.0367 139.259 81.0482C139.266 81.0904 139.277 81.1319 139.291 81.1723C139.329 81.278 139.376 81.3802 139.432 81.4781C139.555 81.6991 139.692 81.912 139.842 82.1156C140.635 83.1915 141.624 84.1665 142.458 85.2425C142.715 85.5713 142.573 85.678 142.132 85.6088C141.85 85.5529 141.576 85.4628 141.316 85.3406C140.977 85.1713 140.669 84.9471 140.404 84.6771C139.879 84.1583 139.397 83.5978 138.962 83.0011C138.725 82.6846 138.514 82.3499 138.33 82.0002C138.211 81.7771 138.125 81.5381 138.073 81.2905C138.057 81.1952 138.047 81.0988 138.044 81.0021C138.044 80.9386 138.044 80.8752 138.065 80.8088C138.085 80.7425 138.065 80.7482 138.082 80.7136C138.099 80.679 138.108 80.6357 138.122 80.5954C138.154 80.5155 138.193 80.4391 138.241 80.3675C138.298 80.2947 138.362 80.2271 138.431 80.1656C138.493 80.1146 138.561 80.0711 138.633 80.0357C138.694 80.0038 138.759 79.9787 138.826 79.9607L138.993 79.9261H139.037H139.08C139.142 79.9191 139.205 79.9191 139.268 79.9261C139.395 79.9494 139.515 80.0017 139.619 80.079L139.651 80.105C139.732 80.1771 139.758 80.2088 139.798 80.2463L139.992 80.4511L140.355 80.8463L141.068 81.6194C141.304 81.8732 141.543 82.1242 141.789 82.3665L142.132 82.704C142.157 82.7413 142.184 82.7769 142.213 82.8107C142.3 82.9219 142.413 83.01 142.542 83.0675C142.576 83.0803 142.614 83.0803 142.648 83.0675C142.663 83.0599 142.676 83.0493 142.687 83.0364C142.697 83.0235 142.705 83.0085 142.709 82.9925C142.73 82.9277 142.725 82.8573 142.694 82.7963C142.666 82.7329 142.634 82.6694 142.599 82.6088L142.544 82.5165L142.467 82.3925L141.818 81.3569C141.564 80.9415 141.307 80.529 141.07 80.0646C140.941 79.8125 140.844 79.545 140.782 79.2684C140.746 79.1263 140.721 78.9817 140.707 78.8357C140.7 78.7455 140.7 78.6548 140.707 78.5646C140.715 78.4214 140.757 78.2821 140.828 78.1579C140.887 78.0539 140.973 77.9674 141.076 77.9069C141.13 77.8749 141.188 77.8506 141.249 77.8348C141.301 77.8211 141.354 77.8133 141.408 77.8117C141.545 77.8058 141.681 77.8325 141.806 77.8896C141.957 77.9556 142.098 78.041 142.227 78.1434C142.434 78.3103 142.627 78.4936 142.804 78.6915C142.98 78.879 143.15 79.0809 143.3 79.2684C143.45 79.4559 143.589 79.6406 143.742 79.8194C143.894 79.9982 144.111 80.2492 144.318 80.4454L144.445 80.5694C144.47 80.5949 144.496 80.619 144.523 80.6415C144.576 80.6921 144.633 80.7375 144.693 80.7771C144.812 80.8706 144.962 80.9141 145.112 80.8982C145.186 80.8803 145.255 80.8435 145.311 80.7915C145.362 80.7357 145.389 80.6622 145.386 80.5867C145.345 80.3567 145.246 80.1411 145.097 79.9607C144.839 79.6146 144.563 79.2824 144.269 78.9656L143.817 78.4694C143.739 78.3829 143.664 78.2992 143.58 78.1954C143.502 78.0944 143.431 77.9884 143.367 77.8781C143.242 77.674 143.129 77.4631 143.029 77.2463C142.965 77.1091 142.908 76.9685 142.859 76.8252C142.806 76.6799 142.767 76.5303 142.741 76.378C142.693 76.1604 142.693 75.9351 142.741 75.7175C142.767 75.6109 142.815 75.5111 142.883 75.4246C142.951 75.3381 143.036 75.2668 143.133 75.2156C143.343 75.1265 143.569 75.0842 143.797 75.0917C144.024 75.0991 144.248 75.1562 144.451 75.2588C144.666 75.3608 144.872 75.4794 145.068 75.6136C145.221 75.7146 145.357 75.8184 145.504 75.9194C145.793 76.1213 146.055 76.3232 146.323 76.4963C146.545 76.6456 146.777 76.7778 147.018 76.8915C147.263 77.0053 147.522 77.0849 147.789 77.1281C147.958 77.1626 148.122 77.2188 148.276 77.2954C148.36 77.33 148.464 77.3502 148.539 77.3877C148.663 77.4511 148.683 77.6011 148.521 77.8319C148.41 77.9796 148.26 78.0943 148.089 78.1636C147.85 78.2731 147.589 78.3236 147.327 78.3107C146.937 78.2688 146.559 78.1522 146.214 77.9675C145.907 77.8099 145.612 77.6306 145.331 77.4309C145.06 77.2434 144.809 77.0531 144.564 76.8771L144.385 76.7502L144.295 76.6896L144.238 76.6521C144.192 76.6232 144.209 76.6521 144.197 76.6348H144.183C144.177 76.6348 144.171 76.6367 144.166 76.6402C144.161 76.6438 144.157 76.6488 144.156 76.6545C144.154 76.6603 144.154 76.6665 144.155 76.6722C144.157 76.678 144.161 76.6831 144.166 76.6867L144.194 76.7415L144.284 76.9232C144.347 77.0444 144.417 77.1656 144.489 77.2781L144.569 77.3992L144.691 77.5377C144.979 77.8636 145.343 78.23 145.671 78.6165L145.919 78.905L146.041 79.0607L146.101 79.1415L146.136 79.1848L146.188 79.2569C146.463 79.6158 146.674 80.0199 146.811 80.4511C146.922 80.8015 146.909 81.1797 146.773 81.5213C146.701 81.6897 146.598 81.8425 146.468 81.9713C146.332 82.0978 146.177 82.2019 146.009 82.28C145.676 82.4332 145.3 82.4678 144.944 82.3781C144.529 82.2623 144.146 82.0543 143.822 81.7694L143.845 81.7406Z" fill="#231F20"/>
<path id="Vector_51" d="M8.41257 71.2548C7.94544 70.7446 7.51275 70.204 7.11737 69.6365C6.97314 69.4346 6.80872 69.2442 6.67891 69.0336C6.21995 68.2892 5.80482 67.5187 5.43564 66.7259C5.26834 66.3769 5.0866 66.0336 4.93084 65.6788C4.82059 65.4522 4.72426 65.2191 4.64237 64.9807C4.54362 64.7167 4.50997 64.4327 4.5443 64.1528C4.61353 63.8903 4.77507 64.0692 4.95103 64.1759C5.1639 64.2648 5.33929 64.4249 5.44718 64.6288C5.6116 65.0413 5.8366 65.4596 6.0241 65.8894C6.2116 66.3192 6.42795 66.7548 6.62987 67.2019C6.90622 67.7281 7.22966 68.2282 7.59622 68.6961C7.97065 69.2311 8.37515 69.7444 8.80776 70.2336C9.07134 70.5393 9.35362 70.8283 9.65295 71.099C10.0878 71.5036 10.5869 71.8331 11.1299 72.074C11.6165 72.2492 12.1398 72.2968 12.6501 72.2125C12.9789 72.1951 13.0972 72.2125 13.2501 72.3798C13.2847 72.4144 13.3251 72.4461 13.351 72.4778C13.4347 72.5759 13.351 72.7923 13.0453 72.9711C12.5729 73.2081 12.0353 73.2822 11.5164 73.1817C11.0044 73.1051 10.5136 72.9245 10.0741 72.6509C9.45773 72.2685 8.89343 71.808 8.39526 71.2807L8.41257 71.2548Z" fill="#231F20"/>
<path id="Vector_52" d="M78.7885 38.8666L65.3404 38.7657H60.4366C54.6674 38.7224 48.8981 38.6733 43.1462 38.6589C40.5876 38.6589 38.0174 38.6589 35.4789 38.7051L30.5751 38.7801C28.9424 38.7945 27.3097 38.8147 25.6712 38.7974C24.6529 38.7685 24.7856 38.6503 25.6424 38.4743C27.0709 38.2157 28.5178 38.071 29.9693 38.0416C36.6327 37.9147 43.2876 37.9032 50.0001 37.9897C54.0154 38.0416 58.1952 37.9897 62.3029 38.0185L75.8606 38.0762L84.2001 38.108C88.4087 38.108 92.6376 38.1282 96.8145 38.108C100.063 38.082 103.244 38.007 106.455 37.9378L108.566 37.8887C109.885 37.8628 110.756 37.8599 111.367 37.8887C111.793 37.9 112.215 37.9729 112.619 38.1051C112.746 38.144 112.872 38.1892 112.994 38.2407C113.124 38.3157 112.919 38.3878 112.44 38.4657C111.712 38.5716 110.978 38.6332 110.242 38.6503C104.502 38.8666 98.4472 38.9243 92.3577 38.9387L78.7827 38.907L78.7885 38.8666Z" fill="#231F20"/>
<g id="Group_3" opacity="0.4">
<path id="Vector_53" d="M78.8922 115.488L66.096 115.586L61.4287 115.632L44.9864 115.661L37.6941 115.692L33.0326 115.713C31.4806 115.713 29.9258 115.713 28.3768 115.646C27.4076 115.612 27.5403 115.476 28.3595 115.338C29.7198 115.132 31.0944 115.036 32.4701 115.049H51.5085C55.3278 115.049 59.297 114.983 63.2085 114.942L76.0941 114.798L84.0268 114.694C88.0278 114.631 92.0518 114.573 96.0239 114.472C99.1105 114.394 102.136 114.27 105.188 114.149L107.208 114.068C109.717 113.976 110.519 114.005 111.064 114.195C111.188 114.23 111.308 114.274 111.425 114.328C111.673 114.481 110.652 114.645 108.811 114.743C103.357 115.032 97.5989 115.176 91.8181 115.294C87.5258 115.375 83.2133 115.433 78.9095 115.493L78.8922 115.488Z" fill="#231F20"/>
</g>
<path id="Vector_54" d="M17.231 100.286V96.3626L17.2079 94.9203V89.8751C17.2079 89.1309 17.1906 88.3809 17.1675 87.6396C17.107 86.6881 17.1185 85.7335 17.2022 84.7838C17.2339 84.4953 17.3175 84.5242 17.4445 84.7838C17.5254 84.9507 17.5967 85.1222 17.6579 85.2973C17.7353 85.5376 17.7827 85.7866 17.7993 86.0386C17.9147 87.98 17.9089 89.9184 17.8541 91.88C17.8195 93.0511 17.8714 94.2684 17.88 95.4655L17.8974 99.4175V101.849C17.8974 103.078 17.9118 104.313 17.9435 105.53C17.9695 106.476 18.0329 107.405 18.082 108.34L18.1137 108.954C18.1425 109.724 18.056 109.972 17.906 110.14C17.8769 110.18 17.844 110.218 17.8079 110.252C17.7531 110.29 17.7012 110.229 17.6464 110.091C17.5679 109.886 17.5174 109.671 17.4964 109.453C17.332 107.78 17.2887 106.015 17.2483 104.243C17.231 102.928 17.2137 101.604 17.1964 100.286H17.231Z" fill="#231F20"/>
<path id="Vector_55" d="M130.25 100.666L130.331 96.9511V95.5982L130.455 90.8184C130.455 90.1145 130.455 89.402 130.455 88.7011C130.424 87.7982 130.454 86.8942 130.544 85.9953C130.57 85.7069 130.668 85.753 130.781 85.9953C130.852 86.1544 130.912 86.3182 130.96 86.4857C130.989 86.5867 131.017 86.6992 131.043 86.8174C131.043 86.8751 131.069 86.9357 131.081 86.9963V87.1895C131.13 88.1097 131.118 89.0299 131.104 89.9501C131.09 90.8703 131.058 91.7963 131.012 92.7251C130.957 93.8357 130.986 94.9895 130.966 96.1261L130.902 99.8761C130.902 100.643 130.876 101.414 130.862 102.184C130.847 103.338 130.824 104.515 130.83 105.671C130.83 106.568 130.879 107.448 130.908 108.337L130.928 108.914C130.928 109.643 130.893 109.874 130.709 110.027C130.673 110.067 130.632 110.101 130.588 110.131C130.458 110.197 130.328 109.897 130.299 109.364C130.184 107.774 130.172 106.101 130.175 104.422C130.19 103.176 130.201 101.924 130.213 100.672L130.25 100.666Z" fill="#231F20"/>
<path id="Vector_56" d="M54.4426 27.4492C54.3763 27.9107 53.932 28.4011 53.4416 27.9944C53.0436 27.6656 53.5138 26.8117 53.9868 26.8406C54.3734 26.8521 54.4945 27.1434 54.4426 27.4492Z" fill="#231F20"/>
<path id="Vector_57" opacity="0.6" d="M38.7532 32.5581C38.6869 33.0196 38.2426 33.51 37.7522 33.1033C37.3542 32.7744 37.8244 31.9206 38.2946 31.9494C38.6753 31.961 38.7936 32.2523 38.7532 32.5581Z" fill="#231F20"/>
<path id="Vector_58" d="M114.731 123.481C114.667 123.946 114.22 124.436 113.73 124.029C113.332 123.697 113.802 122.844 114.275 122.875C114.348 122.876 114.42 122.894 114.485 122.927C114.551 122.96 114.608 123.008 114.652 123.066C114.696 123.125 114.726 123.193 114.739 123.265C114.753 123.336 114.75 123.411 114.731 123.481Z" fill="#231F20"/>
<path id="Vector_59" opacity="0.4" d="M61.4435 31.1849C61.4031 31.4734 61.1204 31.7878 60.8118 31.5311C60.5579 31.3234 60.855 30.7811 61.155 30.7955C61.2031 30.7924 61.2512 30.8014 61.2949 30.8217C61.3387 30.842 61.3766 30.873 61.4053 30.9117C61.434 30.9504 61.4525 30.9957 61.4592 31.0434C61.4658 31.0912 61.4605 31.1398 61.4435 31.1849Z" fill="#231F20"/>
<path id="Vector_60" opacity="0.4" d="M95.7789 122.347C95.7357 122.636 95.4559 122.953 95.1443 122.693C94.8905 122.486 95.1905 121.943 95.4876 121.958C95.5346 121.958 95.581 121.97 95.623 121.991C95.665 122.012 95.7015 122.043 95.7297 122.08C95.7579 122.118 95.777 122.162 95.7855 122.208C95.7941 122.254 95.7918 122.302 95.7789 122.347Z" fill="#231F20"/>
<path id="Vector_61" opacity="0.7" d="M101.911 124.153C101.871 124.441 101.588 124.759 101.277 124.499C101.026 124.291 101.323 123.749 101.623 123.763C101.862 123.775 101.937 123.96 101.911 124.153Z" fill="#231F20"/>
<path id="Vector_62" opacity="0.4" d="M31.8904 30.1377C31.85 30.4261 31.5674 30.7434 31.2558 30.4838C31.0049 30.2761 31.302 29.7367 31.602 29.7482C31.6488 29.7491 31.6948 29.7607 31.7364 29.7821C31.778 29.8036 31.8142 29.8343 31.842 29.8719C31.8699 29.9096 31.8888 29.9531 31.8972 29.9992C31.9056 30.0452 31.9033 30.0926 31.8904 30.1377Z" fill="#231F20"/>
<path id="Vector_63" d="M78.5953 116.162C74.4011 116.226 70.2078 116.27 66.0155 116.295L61.4289 116.344C56.0443 116.358 50.653 116.34 45.2549 116.292L38.0837 116.226L35.7934 116.203L33.503 116.154C31.9741 116.125 30.4453 116.061 28.9251 115.955C27.9761 115.891 28.1116 115.759 28.9251 115.646C29.4791 115.571 30.0365 115.524 30.5953 115.505C31.2847 115.482 32.0953 115.473 32.9722 115.487C39.1886 115.637 45.4078 115.681 51.6847 115.741C55.4347 115.773 59.3434 115.71 63.1828 115.669C67.402 115.623 71.6241 115.566 75.8491 115.499C78.4453 115.455 81.0414 115.405 83.6376 115.349C87.5693 115.26 91.5241 115.161 95.427 115.02C98.4616 114.905 101.433 114.732 104.43 114.567L106.4 114.455C108.864 114.313 109.651 114.325 110.193 114.507C110.316 114.539 110.435 114.58 110.551 114.631C110.796 114.781 109.798 114.962 107.99 115.098C102.633 115.493 96.9732 115.71 91.2934 115.886C87.0732 116.007 82.8328 116.099 78.6011 116.174L78.5953 116.162Z" fill="#231F20"/>
<path id="Vector_64" d="M82.5386 45.7377C82.9951 45.1318 83.5007 44.5645 84.0501 44.0415C84.2549 43.8569 84.4424 43.6521 84.6588 43.479C85.413 42.8616 86.25 42.3528 87.1453 41.9675C87.5463 41.8088 87.9443 41.6415 88.3597 41.5233C88.4903 41.4793 88.6232 41.4427 88.7578 41.4136C88.8901 41.3749 89.0251 41.346 89.1617 41.3271L89.577 41.2925C89.7155 41.2925 89.8655 41.2925 89.9924 41.2925C90.1193 41.2925 90.1395 41.4338 90.0097 41.5809C89.8284 41.7583 89.6066 41.889 89.3636 41.9617C88.8622 42.0729 88.3688 42.2175 87.8867 42.3944C87.4049 42.5819 86.9318 42.7983 86.4588 43.0377C85.892 43.3536 85.3684 43.7414 84.9011 44.1915C84.365 44.6747 83.8709 45.2026 83.4242 45.7694C83.145 46.1179 82.8887 46.484 82.6568 46.8656C82.2966 47.4345 82.0015 48.0422 81.777 48.6771C81.6171 49.1559 81.5268 49.6553 81.5088 50.1598V50.48C81.5087 50.6218 81.4923 50.7631 81.4597 50.9011C81.4396 50.9869 81.3907 51.0633 81.3213 51.1175C81.292 51.1469 81.2611 51.1749 81.229 51.2011C81.1742 51.2358 81.1165 51.2156 81.0501 51.1434C80.9622 51.0347 80.9001 50.9075 80.8684 50.7713C80.7516 50.2548 80.7516 49.7186 80.8684 49.2021C80.9673 48.6868 81.1301 48.1858 81.353 47.7107C81.6751 47.0079 82.0685 46.34 82.527 45.7175L82.5386 45.7377Z" fill="#231F20"/>
<g id="Group_4" opacity="0.4">
<path id="Vector_65" d="M16.7549 100.623L16.7924 96.8301V95.4483L16.8587 90.5733C16.8587 89.8522 16.8587 89.131 16.8587 88.4127C16.8063 87.4923 16.8275 86.5692 16.9222 85.6522C16.9597 85.3637 17.0433 85.4041 17.1645 85.6522C17.2441 85.8144 17.3144 85.981 17.3751 86.1512C17.4466 86.3838 17.4911 86.6238 17.5078 86.8666C17.5972 88.7416 17.5712 90.6166 17.5078 92.5089C17.4616 93.6426 17.5078 94.8166 17.4933 95.9704L17.4674 99.7897V102.141C17.4674 103.326 17.4674 104.518 17.4674 105.694C17.4674 106.609 17.5366 107.506 17.5741 108.409L17.6001 109.006C17.6203 109.75 17.5337 109.987 17.3808 110.16C17.3493 110.197 17.3156 110.233 17.2799 110.267C17.2251 110.304 17.1732 110.246 17.1212 110.111C17.0435 109.913 16.9959 109.705 16.9799 109.494C16.8299 107.878 16.8068 106.173 16.7895 104.46V100.635L16.7549 100.623Z" fill="#231F20"/>
</g>
<g id="Group_5" opacity="0.4">
<path id="Vector_66" d="M130.732 100.646L130.873 97.1532L130.896 95.8782C130.951 94.3811 131.017 92.884 131.052 91.3869C131.069 90.7234 131.066 90.0542 131.052 89.3936C131.052 88.9724 131.052 88.5455 131.052 88.1215C131.052 87.6974 131.107 87.2734 131.135 86.8494C131.161 86.584 131.26 86.6186 131.372 86.8494C131.443 86.9987 131.504 87.153 131.554 87.3109C131.586 87.4051 131.615 87.509 131.64 87.6224L131.678 87.7926L131.692 87.9715C131.747 88.8369 131.733 89.7022 131.718 90.5676C131.704 91.433 131.669 92.2984 131.617 93.1782C131.557 94.2224 131.577 95.3099 131.545 96.3773L131.424 99.9023C131.395 100.623 131.369 101.345 131.34 102.069C131.303 103.162 131.251 104.261 131.234 105.348C131.216 106.194 131.234 107.021 131.254 107.855C131.254 108.04 131.254 108.219 131.254 108.406C131.254 109.093 131.205 109.309 131.017 109.453C130.978 109.488 130.937 109.52 130.893 109.548C130.763 109.612 130.639 109.329 130.605 108.824C130.515 107.327 130.544 105.752 130.585 104.174C130.621 102.999 130.66 101.824 130.7 100.649L130.732 100.646Z" fill="#231F20"/>
</g>
<g id="Group_6" opacity="0.4">
<path id="Vector_67" d="M79.0452 39.3685L66.0327 39.207L61.2904 39.1753C55.7144 39.106 50.1385 39.031 44.5596 38.9964C42.0875 38.9964 39.5981 38.9964 37.1462 39.0137L32.4096 39.0801C30.8317 39.0801 29.2539 39.1089 27.6789 39.0801C26.6952 39.0483 26.8135 38.9301 27.65 38.7541C29.0286 38.5001 30.4254 38.3573 31.8269 38.3272C38.274 38.2118 44.7125 38.2291 51.2058 38.3416C55.0885 38.408 59.1298 38.3907 63.1019 38.4224L76.2096 38.5435L84.2865 38.607C88.3567 38.6301 92.4471 38.6589 96.4856 38.6416C99.6269 38.6243 102.708 38.5551 105.812 38.4887L107.851 38.4426C109.129 38.4195 109.971 38.4195 110.562 38.4426C110.975 38.4564 111.383 38.5303 111.774 38.6618C111.898 38.7002 112.019 38.7454 112.137 38.7974C112.262 38.8724 112.062 38.9445 111.601 39.0224C110.896 39.127 110.185 39.1877 109.472 39.2041C103.922 39.4176 98.0635 39.4608 92.1846 39.4464C87.8173 39.4464 83.4327 39.3974 79.0538 39.3657L79.0452 39.3685Z" fill="#231F20"/>
</g>
<path id="Vector_68" opacity="0.3" d="M87.252 94.6494L87.402 107.939H90.1972V94.6494H87.252Z" fill="#231F20" stroke="#231F20" stroke-miterlimit="10"/>
<path id="Vector_69" d="M92.5801 97.4561L92.733 107.861H95.5253V97.4561H92.5801Z" fill="#231F20"/>
<path id="Vector_70" opacity="0.3" d="M97.5791 101.495L97.7291 107.861H100.524V101.495H97.5791Z" fill="#231F20"/>
<path id="Vector_71" d="M5.11539 74.9903C4.95275 74.7119 4.8935 74.385 4.94809 74.0673C5.01284 73.6775 5.16145 73.3065 5.38366 72.9798C5.67212 72.5269 6.13655 72.0048 6.47405 71.5375L6.67597 71.249C6.69747 71.215 6.71398 71.1781 6.72501 71.1394C6.73347 71.1112 6.73527 71.0814 6.73027 71.0523C6.72526 71.0233 6.71359 70.9958 6.69616 70.9721C6.65289 70.9259 6.58366 70.9432 6.53462 70.9519L6.44232 70.975L6.38751 70.9951C6.35578 71.0096 6.34136 71.0125 6.27212 71.0471C6.05289 71.1538 5.82501 71.2749 5.58847 71.3961C5.35193 71.5173 5.11251 71.6413 4.83559 71.7538C4.64984 71.8315 4.45648 71.8895 4.25866 71.9269C4.06337 71.9553 3.86401 71.9304 3.68174 71.8548C3.43041 71.749 3.22348 71.5594 3.09616 71.3182C2.98205 71.0817 2.93801 70.8174 2.96924 70.5567C2.99209 70.3347 3.04348 70.1165 3.12212 69.9076C3.18741 69.7338 3.26155 69.5634 3.34424 69.3971C3.52309 69.0365 3.71924 68.6932 3.92116 68.3586C4.12309 68.024 4.31924 67.6894 4.47212 67.3836C4.55226 67.2281 4.59598 67.0564 4.59998 66.8815C4.60398 66.7065 4.56815 66.533 4.4952 66.374C4.47211 66.3244 4.43804 66.2807 4.39555 66.2462C4.35307 66.2117 4.3033 66.1873 4.25001 66.1749C4.09488 66.1555 3.93738 66.1784 3.79424 66.2413C3.57212 66.3336 3.4077 66.1288 3.50578 65.7596C3.54899 65.6339 3.61915 65.5193 3.71133 65.4236C3.80351 65.3279 3.91549 65.2536 4.03943 65.2057C4.13122 65.1672 4.22864 65.1439 4.32789 65.1365C4.38362 65.1335 4.43947 65.1335 4.4952 65.1365C4.55289 65.1365 4.61347 65.1538 4.67405 65.1682C4.79837 65.1984 4.91781 65.246 5.02886 65.3096C5.13795 65.3771 5.23537 65.4618 5.31732 65.5605C5.57519 65.8764 5.72484 66.2667 5.74424 66.674C5.75503 66.8534 5.74536 67.0334 5.71539 67.2105C5.70229 67.2974 5.68301 67.3832 5.6577 67.4673L5.62309 67.5942C5.60578 67.6403 5.58559 67.6951 5.56539 67.7355C5.50572 67.8729 5.4383 68.0068 5.36347 68.1365L5.1702 68.4711L4.80674 69.0798C4.57112 69.4603 4.36753 69.8597 4.19809 70.274C4.18078 70.3201 4.16347 70.3663 4.15193 70.4096C4.14039 70.4528 4.12597 70.5105 4.12309 70.4903C4.11102 70.5099 4.10225 70.5314 4.09712 70.5538C4.09013 70.582 4.09072 70.6115 4.09882 70.6393C4.10693 70.6672 4.12227 70.6924 4.14328 70.7125C4.15887 70.7239 4.17661 70.7321 4.19545 70.7366C4.21428 70.741 4.23382 70.7417 4.25289 70.7384C4.27397 70.7409 4.29528 70.7409 4.31635 70.7384H4.33366L4.37405 70.7211C4.40562 70.7095 4.43644 70.6961 4.46635 70.6807C4.72909 70.5534 4.98519 70.4128 5.23366 70.2596L5.64328 70.023L5.75001 69.9624L5.90001 69.8817C5.99809 69.8269 6.12789 69.7663 6.24039 69.7144C6.71347 69.5153 7.16924 69.4403 7.54712 69.6509C7.98559 69.9076 8.07212 70.4413 8.02886 70.9432C7.99596 71.2077 7.91481 71.4638 7.78943 71.699L7.69136 71.8807L7.61347 72.0048C7.59905 72.0307 7.59039 72.0394 7.58751 72.048L7.56732 72.0711L7.5327 72.1173C7.37116 72.3278 7.14039 72.5442 6.95578 72.8355C6.89259 72.9275 6.84935 73.0316 6.82886 73.1413C6.81949 73.1958 6.82158 73.2516 6.83499 73.3053C6.8484 73.3589 6.87283 73.4092 6.90674 73.4528C6.9327 73.4932 6.95289 73.5509 6.99905 73.5711C7.01974 73.5811 7.04242 73.5863 7.06539 73.5863C7.08837 73.5863 7.11104 73.5811 7.13174 73.5711C7.21751 73.535 7.29578 73.4831 7.36251 73.4182C7.58174 73.2192 7.78366 72.9798 8.03174 72.7346L8.12405 72.6451C8.18174 72.5961 8.23655 72.5413 8.30866 72.4807C8.47134 72.3404 8.65173 72.2221 8.8452 72.1288C9.02457 72.0427 9.22419 72.0078 9.42212 72.0278C9.62103 72.0561 9.80162 72.1593 9.92693 72.3163C10.0259 72.4386 10.1065 72.5746 10.1664 72.7201C10.1664 72.7605 10.2067 72.7894 10.2067 72.8355C10.2264 72.8709 10.2437 72.9075 10.2587 72.9451C10.287 73.0199 10.3026 73.0989 10.3048 73.1788C10.3077 73.3447 10.2854 73.51 10.2385 73.6692C10.2067 73.75 10.1837 73.8365 10.149 73.9173L10.0539 74.1451C9.85482 74.6096 9.62982 75.0365 9.4452 75.449C9.40482 75.5384 9.37309 75.6249 9.34424 75.7057C9.32311 75.7657 9.30766 75.8275 9.29809 75.8903H9.24039H9.19424C9.13424 75.8842 9.07363 75.8891 9.01539 75.9048C8.98765 75.9067 8.96086 75.9156 8.93751 75.9307C8.95414 75.9092 8.96326 75.8829 8.96347 75.8557C8.98149 75.8076 8.99219 75.757 8.9952 75.7057C8.9967 75.6807 8.9967 75.6557 8.9952 75.6307C8.99367 75.6163 8.99367 75.6018 8.9952 75.5874H9.01251C9.06155 75.5874 9.16539 75.5874 9.24328 75.5874C9.39942 75.5838 9.55212 75.6336 9.67597 75.7288C9.74017 75.7702 9.80182 75.8155 9.86059 75.8644C9.94424 75.9509 9.93559 76.0721 9.83174 76.2134C9.76624 76.2976 9.68845 76.3715 9.60097 76.4326C9.45899 76.5326 9.29796 76.6023 9.12789 76.6375C9.07938 76.6476 9.03023 76.6543 8.98078 76.6576C8.91023 76.6576 8.83981 76.6518 8.7702 76.6403C8.6657 76.6156 8.56748 76.5694 8.48174 76.5048C8.38513 76.4283 8.30885 76.3292 8.25962 76.2163C8.23676 76.1674 8.21935 76.1161 8.2077 76.0634C8.2077 76.023 8.2077 75.9884 8.19039 75.9509C8.17309 75.9134 8.19039 75.8759 8.19039 75.8413V75.7634C8.1956 75.672 8.20912 75.5812 8.23078 75.4923C8.29541 75.2429 8.37932 74.9989 8.48174 74.7625C8.57116 74.549 8.66347 74.3442 8.75289 74.1451C8.84232 73.9461 8.93174 73.7413 8.99232 73.5855C8.99232 73.5538 8.96924 73.5538 8.96059 73.5567L8.88559 73.6288L8.62886 73.9173L8.00289 74.6182C7.81264 74.8342 7.6104 75.0393 7.39712 75.2326C7.31171 75.3096 7.22215 75.3818 7.12886 75.449C7.05178 75.5032 6.97186 75.5533 6.88943 75.599C6.67763 75.7206 6.43528 75.7787 6.19136 75.7663C6.07392 75.7621 5.95796 75.7387 5.84809 75.6971C5.76431 75.6679 5.6855 75.6261 5.61443 75.573C5.57562 75.5472 5.53896 75.5182 5.50482 75.4865C5.46393 75.4598 5.43183 75.4217 5.41251 75.3769C5.29364 75.2662 5.18899 75.1412 5.10097 75.0048L5.11539 74.9903Z" fill="#231F20"/>
</g>
</g>
</svg>
