<svg width="151" height="151" viewBox="0 0 151 151" fill="none" xmlns="http://www.w3.org/2000/svg">
<g id="84.Learning">
<g id="84.Learning_2">
<path id="Vector" d="M78.0587 55.1841C78.9241 55.112 79.3539 55.8937 78.5116 56.113C77.5828 56.3524 77.427 54.9707 78.0587 55.1841Z" fill="#221F1F"/>
<path id="Vector_2" d="M78.2176 55.7901C78.3251 55.8325 78.4447 55.8325 78.5522 55.7901C78.583 55.7755 78.6128 55.7591 78.6417 55.741C78.7109 55.7208 78.7772 55.6257 78.6417 55.5016C78.5817 55.4454 78.5064 55.4083 78.4253 55.3949C78.3114 55.3956 78.1979 55.3811 78.0878 55.3516C78.0532 55.3343 78.0417 55.2074 78.0734 55.0805C78.1051 54.9535 78.1801 54.8208 78.2811 54.8295C78.4663 54.8303 78.6481 54.879 78.809 54.9708C78.8976 55.021 78.9767 55.0864 79.0426 55.1641C79.1245 55.2538 79.1795 55.3648 79.2013 55.4843C79.2337 55.621 79.2215 55.7645 79.1665 55.8937C79.1114 56.023 79.0165 56.1312 78.8955 56.2026C78.8407 56.2314 78.783 56.2545 78.7282 56.2776L78.5638 56.318C78.4462 56.3368 78.3265 56.3368 78.209 56.318C78.1344 56.3063 78.0617 56.285 77.9926 56.2545C77.9259 56.2199 77.863 56.1784 77.8051 56.1305C77.6445 55.9777 77.5425 55.7736 77.5166 55.5535C77.5049 55.4655 77.5049 55.3762 77.5166 55.2882C77.5237 55.2366 77.5373 55.1862 77.557 55.1382C77.584 55.0811 77.6223 55.03 77.6695 54.9882C77.7126 54.9653 77.7596 54.9506 77.808 54.9449C77.852 54.9384 77.8967 54.9384 77.9407 54.9449C77.9676 54.9492 77.9926 54.9613 78.0128 54.9795C78.0304 55.001 78.0428 55.0261 78.0493 55.0531C78.0558 55.0801 78.0562 55.1082 78.0503 55.1353C78.0503 55.167 78.0503 55.1987 78.0503 55.2305C78.0283 55.3102 77.9889 55.3841 77.9349 55.4468C77.9379 55.4325 77.9379 55.4178 77.9349 55.4035C77.9349 55.4035 78.0561 55.4728 78.0359 55.4699C78.0448 55.5201 78.0583 55.5693 78.0763 55.617C78.0885 55.654 78.1081 55.6882 78.1338 55.7175C78.1596 55.7467 78.1911 55.7704 78.2263 55.7872L78.2176 55.7901Z" fill="#221F1F"/>
<path id="Vector_3" d="M84.6875 55.8422C85.5529 55.773 85.9856 56.5519 85.1404 56.7711C84.2145 57.0134 84.0587 55.6317 84.6875 55.8422Z" fill="#221F1F"/>
<path id="Vector_4" d="M84.8495 56.4476C84.9559 56.4901 85.0747 56.4901 85.1812 56.4476C85.2128 56.434 85.2436 56.4186 85.2735 56.4014C85.3427 56.3812 85.4062 56.2832 85.2735 56.162C85.2128 56.1051 85.1364 56.0679 85.0543 56.0553C84.9413 56.0535 84.8289 56.038 84.7196 56.0091C84.6821 55.9918 84.6735 55.8649 84.7023 55.738C84.7312 55.611 84.8091 55.4812 84.9129 55.487C85.097 55.4896 85.2774 55.5382 85.4379 55.6283C85.5274 55.6786 85.6066 55.7451 85.6716 55.8245C85.7539 55.9128 85.809 56.023 85.8302 56.1418C85.8633 56.2789 85.8515 56.423 85.7964 56.5529C85.7413 56.6827 85.646 56.7914 85.5245 56.863C85.47 56.8899 85.4141 56.914 85.3571 56.9351L85.1956 56.9783C85.0781 56.9971 84.9583 56.9971 84.8408 56.9783C84.7656 56.9666 84.6921 56.9463 84.6216 56.9178C84.5541 56.8832 84.4912 56.8406 84.4341 56.7908C84.2735 56.6381 84.1715 56.434 84.1456 56.2139C84.1338 56.1259 84.1338 56.0366 84.1456 55.9485C84.153 55.8971 84.1666 55.8467 84.186 55.7985C84.2137 55.7419 84.2518 55.691 84.2985 55.6485C84.3429 55.6094 84.395 55.5799 84.4514 55.562C84.4957 55.5508 84.5413 55.5459 84.587 55.5476C84.6131 55.5534 84.637 55.5664 84.6562 55.5851C84.6745 55.6055 84.6875 55.6302 84.694 55.6568C84.7006 55.6835 84.7005 55.7114 84.6937 55.738C84.6965 55.7706 84.6965 55.8034 84.6937 55.836C84.6706 55.9139 84.6324 55.9864 84.5812 56.0495C84.5812 56.0495 84.5812 56.0755 84.5812 56.0495C84.5838 56.0352 84.5838 56.0205 84.5812 56.0062C84.5812 56.0062 84.7023 56.0755 84.6821 56.0755C84.6929 56.1242 84.7064 56.1724 84.7225 56.2197C84.7344 56.2573 84.7538 56.292 84.7796 56.3218C84.8054 56.3515 84.837 56.3757 84.8725 56.3928L84.8495 56.4476Z" fill="#221F1F"/>
<path id="Vector_5" d="M83.5251 70.1758C83.1751 70.4266 82.7977 70.6366 82.4001 70.8017C82.2043 70.8858 82.004 70.959 81.8001 71.021C81.5952 71.0815 81.3847 71.1248 81.177 71.1738C80.3283 71.342 79.4507 71.2914 78.627 71.0267C78.0389 70.8308 77.4822 70.551 76.9741 70.196C76.1209 69.5555 75.37 68.7891 74.7472 67.9229C74.1317 67.076 73.5774 66.1862 73.0885 65.2604C72.6529 64.444 72.2404 63.6133 71.8481 62.7883C71.5972 62.2575 71.3462 61.7238 71.1068 61.1902C70.8674 60.6565 70.6424 60.1085 70.3972 59.6181C70.3193 59.471 70.3135 59.4017 70.3626 59.3585C70.4116 59.3152 70.5299 59.3383 70.6799 59.4363C71.1048 59.7754 71.4347 60.2186 71.6376 60.7229C72.6097 62.9036 73.5501 65.0729 74.8453 67.069C75.6066 68.2826 76.6396 69.3027 77.8626 70.0488C78.5287 70.4345 79.2798 70.6495 80.0491 70.6748C80.8242 70.6852 81.5919 70.5226 82.2962 70.1988C83.1711 69.7935 83.9205 69.1597 84.4654 68.3642C85.3135 67.1585 85.7866 65.7017 86.1501 64.2652C86.4385 63.1402 86.6145 62.0123 86.8395 60.8815C86.8885 60.6306 86.9318 60.3854 86.9895 60.1344C87.1972 59.2056 87.3241 58.92 87.5347 58.7671C87.5795 58.7291 87.6278 58.6953 87.6789 58.6661C87.826 58.6142 87.8202 59.0123 87.6789 59.6873C87.2866 61.7065 86.9664 63.8469 86.2741 65.9758C86.0203 66.7809 85.6768 67.555 85.2501 68.2835C84.8071 69.0321 84.2186 69.6843 83.5193 70.2017L83.5251 70.1758Z" fill="#221F1F"/>
<path id="Vector_6" d="M65.8137 56.4564C65.723 56.2963 65.6449 56.1295 65.58 55.9573C65.5454 55.8708 65.5108 55.7872 65.4819 55.7006L65.4069 55.4324C65.3614 55.253 65.3277 55.0709 65.306 54.8872C65.306 54.7949 65.306 54.6997 65.306 54.5987C65.2958 54.5028 65.2958 54.4061 65.306 54.3102C65.3114 54.1683 65.3307 54.0272 65.3637 53.8891C65.3637 53.8198 65.3925 53.7477 65.4127 53.6785L65.5021 53.4795C65.612 53.2412 65.7719 53.0295 65.971 52.8588C66.1702 52.688 66.4038 52.5622 66.656 52.49C67.1324 52.3656 67.6353 52.3888 68.0983 52.5564C68.4916 52.6819 68.859 52.8773 69.1829 53.1333L69.3387 53.2602C69.3877 53.3035 69.4339 53.3554 69.48 53.4016L69.6214 53.5516L69.7396 53.7189C69.7786 53.7754 69.8142 53.8342 69.8464 53.8949L69.9243 54.091C69.972 54.2225 69.9983 54.3608 70.0021 54.5006C70.0021 54.6766 69.8377 54.6535 69.6444 54.567C69.5436 54.5221 69.447 54.468 69.356 54.4054C69.2613 54.3524 69.1818 54.2759 69.1252 54.1833C68.8989 53.8432 68.593 53.5635 68.2341 53.3685C67.8752 53.1734 67.4741 53.0689 67.0656 53.0641C66.8228 53.0853 66.5933 53.1843 66.4114 53.3465C66.2295 53.5087 66.1048 53.7253 66.056 53.9641C65.9215 54.5561 65.9875 55.1761 66.2435 55.7266C66.3908 56.0915 66.5942 56.4311 66.8464 56.7333C67.2293 57.1914 67.7091 57.5589 68.2512 57.8093C68.4608 57.9 68.6793 57.9687 68.9031 58.0141L69.2377 58.0804L69.5781 58.1122L69.8666 58.1381C70.2416 58.1381 70.3541 58.2045 70.4435 58.3891C70.4648 58.429 70.4831 58.4705 70.4983 58.5131C70.5387 58.6458 70.3743 58.7698 70.0685 58.8016C69.1009 58.8655 68.1389 58.6123 67.3281 58.0804C66.7028 57.6724 66.1845 57.1205 65.8166 56.4708L65.8137 56.4564Z" fill="#221F1F"/>
<path id="Vector_7" d="M66.8176 40.5505C67.9974 39.7716 69.2205 39.1918 70.5676 39.8178C74.1821 41.4822 70.7696 53.0437 68.4128 52.6947C66.359 52.4062 65.4734 52.0399 65.2397 54.3101C60.8926 51.1543 64.2936 42.212 66.8176 40.5505Z" fill="#221F1F"/>
<path id="Vector_8" d="M64.9109 53.3528C64.9109 53.3528 64.9397 53.3903 64.9484 53.3846C64.9525 53.363 64.9583 53.3418 64.9657 53.3211C64.9657 53.3211 64.9657 53.3211 64.9657 53.2865C64.9657 53.2519 65.0003 53.1653 65.0292 53.099C65.08 52.9642 65.1458 52.8355 65.2253 52.7153C65.3986 52.4355 65.6653 52.226 65.9782 52.124C66.247 52.0472 66.5273 52.0189 66.8061 52.0403C67.3051 52.0749 67.7436 52.1644 68.1849 52.2365L68.3494 52.2624L68.4301 52.2769H68.4705H68.4907C68.5454 52.2833 68.6008 52.2764 68.6522 52.2567C68.8085 52.198 68.9509 52.1077 69.0705 51.9913C69.5269 51.5052 69.8993 50.9466 70.1724 50.3384C70.7117 49.2339 71.1268 48.0729 71.4099 46.8769C71.7156 45.6801 71.864 44.4485 71.8513 43.2134C71.844 42.6765 71.7655 42.143 71.6176 41.6269C71.4894 41.1353 71.2243 40.6902 70.8532 40.3432C70.7363 40.244 70.6063 40.1614 70.4667 40.098C70.3218 40.0357 70.1723 39.9846 70.0195 39.9451C69.7112 39.8679 69.3907 39.8522 69.0763 39.899C68.4193 40.0278 67.7904 40.2719 67.2186 40.6201C66.8407 40.8336 66.7715 40.6403 66.9878 40.2711C67.1433 40.0313 67.3384 39.8197 67.5647 39.6451C67.8906 39.3851 68.2714 39.2026 68.6782 39.1115C69.0999 39.0172 69.536 39.0064 69.9619 39.0798C70.3971 39.1557 70.8118 39.3218 71.1792 39.5673C71.5422 39.8284 71.8386 40.1713 72.0445 40.5682C72.2357 40.9318 72.3755 41.3201 72.4599 41.7221C72.6163 42.4807 72.6677 43.2572 72.6128 44.0298C72.5659 44.7818 72.4617 45.5291 72.3013 46.2653C72.1094 47.1543 71.8706 48.0324 71.5859 48.8961C71.3008 49.7784 70.9238 50.6283 70.4609 51.4317C70.1963 51.8963 69.856 52.3136 69.4542 52.6663C69.2116 52.8777 68.909 53.0078 68.5888 53.0384C68.5039 53.0428 68.4188 53.038 68.3349 53.024L68.1503 52.9923L67.784 52.9317C67.3312 52.8332 66.8683 52.7896 66.4051 52.8019C66.007 52.848 65.8138 53.0903 65.6695 53.5894C65.5772 53.9932 65.5253 54.423 65.4705 54.8269C65.433 54.8269 65.3551 54.7634 65.2888 54.7086L65.0811 54.5384C64.9416 54.429 64.8077 54.3125 64.6801 54.1894C64.5561 54.0653 64.4205 53.9442 64.3051 53.823L64.0657 53.5346C63.7696 53.1299 63.5308 52.6863 63.3561 52.2163C63.0394 51.3164 62.8908 50.366 62.9176 49.4124C62.9357 48.4776 63.0537 47.5473 63.2695 46.6374C63.5709 45.2338 64.0558 43.8759 64.7119 42.599C64.784 42.4576 64.859 42.3105 64.9397 42.1836C65.0205 42.0567 65.1013 41.8951 65.1907 41.7769C65.8686 40.7846 66.2753 40.574 66.5926 40.5769C66.6651 40.5722 66.7378 40.5771 66.809 40.5913C66.982 40.6778 66.6676 40.9807 66.2032 41.6269C65.4983 42.6445 64.9381 43.7551 64.5388 44.9269C64.1042 46.1237 63.825 47.3714 63.708 48.6394C63.6706 49.1057 63.6648 49.5741 63.6907 50.0413C63.7198 50.5005 63.7903 50.9562 63.9013 51.4028C64.0178 51.8364 64.1873 52.254 64.4061 52.6461C64.5177 52.8365 64.6441 53.0178 64.784 53.1884L64.882 53.3153V53.3326L64.9109 53.3528Z" fill="#221F1F"/>
<path id="Vector_9" d="M72.4424 39.172C73.0453 36.4288 91.0741 28.8826 96.6472 38.7624C98.7501 42.4922 96.7828 47.7336 90.953 49.3143C83.3924 51.3624 73.4318 43.7269 72.4424 39.172Z" fill="#221F1F"/>
<path id="Vector_10" d="M92.7674 48.1168C93.4589 47.7728 94.1028 47.3404 94.6828 46.8303C94.9719 46.5776 95.2419 46.3038 95.4904 46.0111C95.6116 45.8639 95.7183 45.7053 95.8337 45.5524L96.0039 45.3188L96.1453 45.0678C96.5396 44.4123 96.8095 43.6896 96.9414 42.9361C96.9818 42.7459 97.0087 42.5531 97.0222 42.3591L97.051 41.7822C97.0433 41.4012 97.0008 41.0218 96.9241 40.6486C96.8924 40.513 96.8779 40.3745 96.8347 40.2418L96.702 39.8466C96.6091 39.5846 96.4962 39.33 96.3645 39.0851C95.7577 37.9386 94.9076 36.9386 93.8736 36.1553C92.8396 35.372 91.6469 34.8242 90.3789 34.5505C88.372 34.0836 86.2968 33.9858 84.2549 34.262C82.4292 34.4848 80.6337 34.9085 78.901 35.5255C77.7951 35.9123 76.7183 36.3779 75.6789 36.9188C75.1625 37.1796 74.6608 37.4684 74.176 37.7841C73.6995 38.0769 73.2681 38.4374 72.8953 38.8543C72.6933 39.1053 72.653 39.1976 72.5693 39.1803C72.5318 39.1803 72.503 39.1168 72.4856 39.0187C72.4759 38.8829 72.4976 38.7467 72.5491 38.6207C72.777 37.9486 73.6712 37.0312 74.9001 36.3649C77.0848 35.2105 79.4241 34.376 81.8462 33.887C84.2762 33.3395 86.7859 33.2417 89.251 33.5986C90.7659 33.8288 92.2251 34.3374 93.5549 35.0986C94.9063 35.8903 96.0309 37.0169 96.8203 38.3697C97.2645 39.1125 97.5641 39.9327 97.703 40.787C97.8325 41.6403 97.8071 42.51 97.6279 43.3543C97.4253 44.1883 97.0913 44.9848 96.6385 45.7139C96.5174 45.8899 96.3905 46.0601 96.2635 46.2332C96.2001 46.3197 96.1424 46.4091 96.0731 46.4899L95.8568 46.7264C95.7097 46.8793 95.5683 47.0466 95.4183 47.188L94.9395 47.6091C94.131 48.2645 93.2248 48.7891 92.2539 49.1639C92.0141 49.2591 91.7695 49.3419 91.5212 49.412C91.2765 49.4976 91.0271 49.5689 90.7741 49.6255C90.5229 49.6882 90.2688 49.7383 90.0126 49.7755C89.7558 49.813 89.4991 49.8562 89.2424 49.8678C88.463 49.9317 87.6792 49.9163 86.903 49.8216C86.1304 49.7343 85.3663 49.5838 84.6183 49.3716C83.1321 48.9565 81.6972 48.3759 80.3405 47.6409C79.2988 47.0797 78.2965 46.4485 77.3405 45.7514C76.3834 45.0618 75.4886 44.2896 74.6664 43.4438C74.3002 43.0695 73.9545 42.6756 73.6308 42.2639C73.1856 41.7191 72.8248 41.1104 72.5606 40.4582C72.4874 40.2807 72.437 40.0946 72.4106 39.9043C72.3859 39.7738 72.3859 39.6397 72.4106 39.5091C72.4228 39.4112 72.444 39.3146 72.4741 39.2207C72.5289 39.1168 72.6385 39.2466 72.7799 39.5466C72.9212 39.8466 73.1722 40.3082 73.5414 40.8736C74.6578 42.5495 76.2212 43.9976 77.9289 45.2524C79.659 46.515 81.561 47.5233 83.577 48.2466C84.3309 48.512 85.1019 48.726 85.8847 48.887C86.6596 49.0383 87.4462 49.1213 88.2356 49.1351C89.018 49.1496 89.799 49.0663 90.5606 48.887L90.8491 48.8236L91.1376 48.7341L91.6972 48.5553C91.8831 48.493 92.0651 48.4198 92.2424 48.3361L92.7818 48.1024L92.7674 48.1168Z" fill="#221F1F"/>
<path id="Vector_11" d="M74.1445 66.4199C73.9627 67.0603 72.8983 68.794 74.3464 70.5882C76.7204 73.5334 80.2137 71.4536 80.3118 71.0988C75.9848 71.2459 74.0723 66.518 74.1445 66.4199Z" fill="#221F1F"/>
<path id="Vector_12" d="M80.1935 70.7207L80.5656 70.7496L80.7502 70.764C80.7762 70.764 80.8223 70.764 80.831 70.764V70.79L80.7992 70.8909V70.94V70.9659L80.7848 70.9948C80.7299 71.1074 80.6693 71.2172 80.6031 71.3236C80.5048 71.4514 80.3847 71.5608 80.2483 71.6467C80.0774 71.7612 79.898 71.8624 79.7117 71.9496C79.6137 71.9957 79.5069 72.0361 79.406 72.0794C79.3648 72.0985 79.3224 72.1149 79.2791 72.1284L79.1867 72.1602C78.9357 72.2428 78.6793 72.3083 78.4194 72.3563C78.0396 72.4304 77.6522 72.4585 77.2656 72.44C76.5782 72.3906 75.9148 72.1662 75.3387 71.7881C75.0563 71.6029 74.7969 71.385 74.5656 71.139C74.3337 70.8973 74.126 70.6336 73.9454 70.3515C73.6257 69.8351 73.4394 69.2473 73.4031 68.6409C73.3701 67.8848 73.5597 67.1356 73.9483 66.4861C74.0637 66.3102 74.1473 66.3448 74.2223 66.5784C74.2688 66.7239 74.2922 66.8757 74.2916 67.0284C74.2865 67.209 74.2593 67.3882 74.2108 67.5621C74.0104 68.1799 74.0104 68.8452 74.2108 69.4631C74.3246 69.7711 74.4799 70.0623 74.6723 70.3284C74.8753 70.6045 75.1074 70.8579 75.3646 71.0842C76.0142 71.6268 76.8481 71.8976 77.6925 71.84C78.1627 71.8204 78.6275 71.7309 79.0714 71.5746L79.1666 71.54L79.2387 71.5111C79.34 71.4706 79.4367 71.4193 79.5271 71.3582L79.5964 71.3034C79.6083 71.294 79.6181 71.2822 79.6252 71.2688C79.6396 71.2515 79.6079 71.2688 79.6021 71.2688C79.4676 71.2671 79.3334 71.2536 79.2012 71.2284L79.0944 71.2083L78.8608 71.1534C78.705 71.1188 78.555 71.0698 78.4021 71.0207C77.4988 70.6982 76.6768 70.1824 75.9935 69.5092C75.4597 69.0124 74.9836 68.457 74.5742 67.8534C74.4848 67.7207 74.3954 67.5909 74.3175 67.4467C74.0291 66.9217 74.0002 66.7025 74.1127 66.5265C74.1416 66.4919 74.1675 66.4227 74.205 66.4284C74.2171 66.4376 74.2308 66.4444 74.2454 66.4486C74.2587 66.4517 74.2725 66.4517 74.2858 66.4486C74.306 66.4486 74.3146 66.4486 74.3146 66.4313C74.3146 66.414 74.3723 66.4486 74.4098 66.4832C74.5146 66.5992 74.6056 66.727 74.681 66.864C75.3069 67.951 76.1411 68.9038 77.1358 69.6679C77.5099 69.9409 77.9157 70.1676 78.3444 70.3429C78.5602 70.427 78.7808 70.4983 79.005 70.5563L79.1723 70.5938L79.2964 70.6198L79.4867 70.64L80.2685 70.7034L80.1935 70.7207Z" fill="#221F1F"/>
<path id="Vector_13" d="M102.587 106.164C102.298 105.899 101.981 105.636 101.669 105.385C101.554 105.293 101.427 105.218 101.314 105.129C100.911 104.809 100.504 104.485 100.077 104.206C99.8876 104.084 99.6889 103.978 99.4827 103.888C99.3529 103.825 99.2202 103.796 99.0904 103.741C98.969 103.706 98.8512 103.66 98.7385 103.603C98.6692 103.562 98.6577 103.438 98.7385 103.314C98.7937 103.235 98.8681 103.17 98.9548 103.127C99.0428 103.078 99.1463 103.066 99.2433 103.092C99.8584 103.279 100.426 103.595 100.908 104.021C101.196 104.258 101.528 104.445 101.831 104.667C102.134 104.889 102.486 105.169 102.806 105.426L103.094 105.668L103.253 105.801C103.305 105.851 103.353 105.905 103.397 105.962C103.651 106.265 103.873 106.583 104.101 106.903C104.29 107.146 104.466 107.399 104.629 107.661C104.663 107.725 104.704 107.783 104.733 107.849C104.831 108.1 104.802 108.212 104.594 108.302C104.557 108.323 104.519 108.341 104.479 108.357C104.408 108.374 104.333 108.371 104.264 108.345C104.195 108.32 104.135 108.275 104.092 108.215C103.841 107.837 103.553 107.434 103.256 107.012C103.146 106.857 103.031 106.701 102.913 106.548L102.76 106.355L102.734 106.334L102.676 106.285L102.561 106.187L102.587 106.164Z" fill="#221F1F"/>
<path id="Vector_14" d="M103.394 102.449C103.993 102.59 104.574 102.799 105.125 103.072C105.408 103.293 105.651 103.562 105.84 103.868C106.129 104.234 106.443 104.592 106.758 104.941C106.921 105.177 107.124 105.383 107.358 105.55C107.464 105.577 107.576 105.578 107.683 105.554C107.79 105.53 107.89 105.481 107.975 105.411C107.985 105.404 107.993 105.394 107.998 105.383C108.004 105.372 108.007 105.36 108.007 105.348C107.99 105.3 107.965 105.255 107.935 105.215C107.834 105.053 107.213 105.31 107.265 105.394C107.317 105.477 107.309 105.521 107.363 105.469L107.981 105.33C107.727 105.148 107.507 104.924 107.329 104.667C106.977 104.272 106.631 103.871 106.308 103.452C105.702 102.668 104.865 102.492 103.934 102.198C103.781 102.151 103.192 102.397 103.383 102.454L103.394 102.449Z" fill="#221F1F"/>
<path id="Vector_15" d="M101.055 106.894C100.882 106.779 100.703 106.663 100.527 106.562L100.493 106.542L100.432 106.507L100.363 106.461L100.23 106.378L99.9417 106.213C99.8062 106.135 99.6533 106.075 99.5264 106C99.0471 105.72 98.5499 105.472 98.0379 105.258C97.8094 105.171 97.5752 105.1 97.3369 105.045C97.0314 104.991 96.7297 104.917 96.434 104.823C96.3417 104.782 96.3706 104.635 96.4744 104.494C96.5275 104.413 96.5999 104.347 96.6851 104.302C96.7703 104.257 96.8654 104.233 96.9619 104.234C97.1333 104.252 97.3037 104.278 97.4725 104.312C97.6415 104.342 97.8076 104.386 97.9687 104.445C98.2917 104.558 98.6037 104.701 98.9004 104.872C99.2552 105.074 99.6504 105.209 100.017 105.403C100.216 105.509 100.415 105.622 100.608 105.74L100.755 105.832L100.807 105.867L100.882 105.907L101.171 106.083C101.41 106.231 101.644 106.389 101.872 106.554C102.217 106.808 102.543 107.087 102.847 107.39C103.102 107.621 103.333 107.877 103.536 108.155C103.582 108.22 103.623 108.29 103.657 108.362C103.716 108.457 103.737 108.57 103.718 108.68C103.705 108.72 103.684 108.757 103.655 108.787C103.626 108.818 103.59 108.841 103.55 108.856C103.508 108.877 103.465 108.896 103.421 108.913C103.348 108.933 103.272 108.929 103.202 108.9C103.133 108.872 103.075 108.822 103.037 108.757C102.743 108.349 102.4 107.978 102.016 107.653C101.704 107.381 101.372 107.134 101.023 106.911L101.055 106.894Z" fill="#221F1F"/>
<path id="Vector_16" d="M96.7079 107.012L96.1627 107.038H95.5857C95.2021 107.038 94.8184 107.038 94.4319 107.006C94.1434 106.992 93.8723 106.989 93.5925 106.96C92.6047 106.863 91.6306 106.658 90.6877 106.349C90.266 106.212 89.8528 106.05 89.4502 105.864C89.1871 105.746 88.9344 105.606 88.6944 105.446C88.5734 105.364 88.4595 105.273 88.354 105.172C88.3021 105.12 88.2531 105.065 88.204 105.01C88.1594 104.951 88.118 104.889 88.08 104.826C87.9819 104.67 88.1059 104.604 88.3194 104.595C88.5806 104.568 88.8431 104.631 89.0636 104.774C89.9468 105.353 90.9223 105.777 91.9482 106.029C92.6046 106.19 93.2751 106.286 93.9502 106.317C94.696 106.371 95.4441 106.387 96.1915 106.363L96.5348 106.346H96.6184C96.6559 106.343 96.6935 106.343 96.7309 106.346C96.7944 106.346 96.855 106.346 96.9184 106.346C97.1616 106.365 97.4034 106.399 97.6425 106.447C98.3582 106.595 99.0476 106.85 99.6877 107.203C100.185 107.46 100.657 107.765 101.095 108.114C101.188 108.195 101.286 108.267 101.384 108.354C101.713 108.677 101.765 108.83 101.69 109.017C101.675 109.061 101.657 109.103 101.635 109.144C101.551 109.265 101.346 109.207 101.107 109.003C100.934 108.847 100.738 108.714 100.562 108.567C100.386 108.42 100.187 108.279 99.9848 108.166C99.5923 107.903 99.1749 107.68 98.7386 107.5C98.4136 107.363 98.0778 107.254 97.7348 107.174C97.3999 107.093 97.0578 107.047 96.7136 107.035L96.7079 107.012Z" fill="#221F1F"/>
<path id="Vector_17" d="M62.0522 120.89C62.0781 120.841 61.957 121.054 61.8762 121.178C61.7884 121.307 61.692 121.429 61.5878 121.545C61.3847 121.778 61.1553 121.987 60.9041 122.168C60.4052 122.513 59.8406 122.751 59.2454 122.869C58.6761 122.985 58.0919 123.011 57.5147 122.944C56.9256 122.884 56.353 122.714 55.8272 122.442C55.5249 122.283 55.2423 122.089 54.9849 121.865C54.854 121.756 54.7297 121.64 54.6128 121.516C54.5579 121.45 54.4974 121.392 54.4454 121.323L54.3791 121.242L54.3647 121.219C54.3524 121.203 54.3418 121.185 54.3329 121.167C54.3185 121.167 54.2955 121.167 54.2753 121.167H54.2349L54.131 121.184L53.8714 121.227C53.6983 121.256 53.5253 121.291 53.3522 121.311L52.3108 121.441C51.6185 121.51 50.9233 121.585 50.231 121.623C48.8464 121.724 47.4618 121.764 46.0772 121.793L42.4022 121.871C40.8357 121.939 39.2665 121.913 37.7031 121.793C36.7339 121.689 37.9916 120.783 39.7829 120.798C42.956 120.827 46.1291 120.824 49.3022 120.74C49.7089 120.723 50.1214 120.7 50.5339 120.671C50.9464 120.642 51.3589 120.593 51.7743 120.552C52.1897 120.512 52.5993 120.44 53.0147 120.382C53.2224 120.356 53.4272 120.319 53.6291 120.278L54.3935 120.137C54.5059 120.169 54.6167 120.206 54.7253 120.25C54.8118 120.307 54.907 120.371 55.0137 120.44L55.0945 120.561C55.1074 120.584 55.1229 120.605 55.1406 120.625L55.1637 120.653C55.1954 120.694 55.2243 120.734 55.256 120.769C55.5675 121.133 55.9517 121.428 56.3839 121.634C57.0539 121.934 57.7915 122.051 58.5213 121.972C59.2511 121.894 59.947 121.623 60.5378 121.187C60.6763 121.065 60.8037 120.931 60.9185 120.786C60.9775 120.715 61.0314 120.64 61.0801 120.561C61.1068 120.523 61.1309 120.484 61.1522 120.443L61.1724 120.411L61.2012 120.353L61.2531 120.247C61.3397 120.163 61.4147 120.085 61.4753 120.016C61.5661 119.96 61.6629 119.915 61.7637 119.88L63.0012 119.903L64.1205 119.918C66.1397 119.918 68.1589 119.918 70.1378 119.82C71.6868 119.736 73.1954 119.563 74.7128 119.376C75.0474 119.332 75.3733 119.277 75.708 119.24C76.957 119.084 77.3608 119.093 77.6637 119.324C77.7365 119.369 77.8042 119.422 77.8656 119.482C78.0128 119.67 77.5253 119.909 76.6051 120.082C73.7768 120.567 70.9156 120.835 68.0464 120.884C67.0176 120.913 65.9878 120.926 64.957 120.922H63.4137L62.081 120.902H62.0666L62.0522 120.89Z" fill="#221F1F"/>
<path id="Vector_18" d="M44.6693 115.271C45.8232 114.93 46.977 114.529 48.2001 114.235C48.6414 114.128 49.0857 114.025 49.5357 113.947C50.3388 113.825 51.1543 113.809 51.9616 113.898C52.7695 113.992 53.5524 114.238 54.2693 114.622C54.9054 114.966 55.4883 115.4 56.0001 115.911C56.6596 116.55 57.2059 117.296 57.6155 118.118C57.7395 118.369 57.5809 118.406 57.327 118.291C56.9758 118.093 56.674 117.818 56.4443 117.486C56.1946 117.132 55.9219 116.795 55.628 116.477C55.3356 116.162 55.0172 115.872 54.6761 115.611C53.9898 115.102 53.2032 114.744 52.3684 114.561C51.8449 114.453 51.3099 114.411 50.7761 114.437C50.2298 114.469 49.6863 114.538 49.1491 114.642C47.9561 114.899 46.7791 115.226 45.6241 115.62C44.9001 115.845 44.1818 116.067 43.4232 116.243C42.2922 116.524 41.125 116.632 39.9616 116.563C39.0702 116.501 38.1882 116.342 37.3309 116.09C37.1434 116.035 36.9587 115.983 36.7712 115.917C36.0818 115.675 35.8886 115.539 35.8078 115.34C35.7862 115.294 35.7689 115.245 35.7559 115.196C35.7559 115.052 36.0443 115.072 36.5491 115.228C38.0261 115.689 39.578 116.093 41.1645 115.978C42.3601 115.884 43.5399 115.646 44.678 115.268L44.6693 115.271Z" fill="#221F1F"/>
<path id="Vector_19" d="M70.8532 116.255C69.7994 115.913 68.7111 115.689 67.6081 115.585L67.0052 115.565C66.8043 115.555 66.6031 115.555 66.4023 115.565C64.9812 115.577 63.5808 115.906 62.3032 116.529C62.0148 116.664 61.7552 116.837 61.484 117.002C61.2129 117.166 60.9648 117.362 60.734 117.579C60.1359 118.124 59.5687 118.701 59.035 119.309C58.859 119.494 58.7465 119.37 58.7696 119.105C58.8168 118.711 58.9934 118.345 59.2715 118.063C59.8682 117.422 60.5472 116.862 61.2907 116.399C62.04 115.938 62.8551 115.593 63.7081 115.378C64.7369 115.093 65.7992 114.948 66.8667 114.945L67.7321 114.983C68.0206 115.014 68.309 115.06 68.5975 115.098L69.0302 115.156L69.4542 115.251L70.2994 115.444C70.6456 115.531 70.9802 115.652 71.3177 115.756L71.8254 115.914C71.9927 115.963 72.1484 116.015 72.3129 116.058C72.8169 116.178 73.3324 116.243 73.8504 116.252C74.3713 116.267 74.8926 116.236 75.4081 116.159C76.1933 116.044 76.9573 115.814 77.6754 115.476C77.8311 115.404 77.9811 115.326 78.1282 115.239C78.4167 115.092 78.5754 114.968 78.7196 114.919C78.8198 114.858 78.939 114.837 79.0542 114.858C79.1039 114.861 79.1532 114.869 79.2013 114.882C79.2677 114.91 79.2677 114.985 79.2013 115.101C79.0934 115.27 78.952 115.415 78.7859 115.528C78.1484 115.98 77.4338 116.312 76.6773 116.508C75.9112 116.718 75.123 116.835 74.3292 116.858C73.7295 116.879 73.1292 116.838 72.5379 116.736C72.3907 116.705 72.2494 116.676 72.0907 116.638L71.6494 116.506L70.8475 116.258L70.8532 116.255Z" fill="#221F1F"/>
<path id="Vector_20" d="M44.6087 117.204C45.6904 116.852 46.7837 116.474 47.9145 116.191C48.3299 116.093 48.7424 115.983 49.1664 115.923C50.6578 115.698 52.2529 115.79 53.6404 116.5C54.2373 116.817 54.7861 117.217 55.2703 117.688C55.8788 118.263 56.4483 118.878 56.9751 119.529C57.1366 119.728 57.001 119.817 56.7385 119.765C56.3588 119.664 56.0182 119.451 55.7606 119.154C55.2303 118.528 54.6399 117.956 53.9981 117.446C53.3519 116.974 52.6074 116.655 51.8203 116.511C51.3299 116.411 50.8283 116.377 50.3289 116.41C49.8178 116.441 49.3097 116.51 48.8087 116.615C47.693 116.853 46.5936 117.162 45.5174 117.541C44.8453 117.766 44.1674 117.994 43.4837 118.196C42.4427 118.524 41.3655 118.725 40.276 118.793C39.4272 118.842 38.5764 118.744 37.7606 118.505C37.5818 118.441 37.4087 118.38 37.2299 118.311C36.5924 118.023 36.4366 117.832 36.3991 117.625C36.3859 117.578 36.3791 117.529 36.3789 117.48C36.3991 117.336 36.6674 117.405 37.1087 117.602C37.7552 117.892 38.4434 118.079 39.1481 118.155C39.8751 118.23 40.6088 118.204 41.3289 118.08C42.4414 117.873 43.5354 117.576 44.6001 117.192L44.6087 117.204Z" fill="#221F1F"/>
<path id="Vector_21" d="M69.8263 117.83C69.4023 117.694 68.984 117.541 68.5744 117.377L68.2715 117.253L67.983 117.152C67.7956 117.085 67.6025 117.034 67.4061 117.002C67.261 116.97 67.1132 116.953 66.9648 116.95C66.8148 116.95 66.6763 116.927 66.5176 116.933H66.1196C65.984 116.933 65.8513 116.956 65.7186 116.964C65.4503 116.979 65.1878 117.042 64.9196 117.083C64.388 117.195 63.867 117.353 63.3619 117.553C62.9132 117.73 62.484 117.953 62.0811 118.219C61.5795 118.542 61.1269 118.936 60.7369 119.387C60.6244 119.517 60.4946 119.448 60.4657 119.226C60.4491 119.083 60.472 118.938 60.5321 118.808C60.5667 118.726 60.6072 118.647 60.6532 118.571C60.7111 118.496 60.7748 118.426 60.8436 118.36C61.3557 117.913 61.9275 117.539 62.5426 117.25C63.1452 116.954 63.783 116.736 64.4407 116.601C65.2414 116.403 66.0653 116.314 66.8898 116.338C67.1196 116.348 67.3483 116.377 67.5734 116.425L67.9109 116.494C68.0205 116.526 68.1301 116.569 68.2398 116.604C68.4676 116.679 68.6667 116.759 68.8628 116.843C69.059 116.927 69.2638 116.993 69.4657 117.071C69.9648 117.246 70.4733 117.392 70.9888 117.509C71.7713 117.689 72.5691 117.793 73.3715 117.821C73.9847 117.825 74.5973 117.78 75.2032 117.685C75.3359 117.668 75.4657 117.642 75.5984 117.619C76.0946 117.55 76.2561 117.55 76.3917 117.7C76.4254 117.73 76.4563 117.762 76.484 117.798C76.5532 117.916 76.3657 118.055 75.9936 118.15C74.8391 118.42 73.6476 118.494 72.4686 118.369C71.572 118.28 70.6862 118.104 69.8234 117.844L69.8263 117.83Z" fill="#221F1F"/>
<path id="Vector_22" d="M112.593 111.051C109.086 111.128 105.579 111.205 102.073 111.284C100.792 111.313 99.5146 111.371 98.2367 111.397C93.728 111.492 89.2165 111.573 84.7107 111.685C82.7088 111.731 80.6982 111.801 78.7136 111.879C76.1665 111.977 73.6078 112.124 71.055 112.104C69.4655 112.104 71.453 111.137 74.3896 111.036C79.5992 110.86 84.803 110.748 90.0559 110.702C93.1973 110.681 96.4655 110.54 99.6761 110.459L110.274 110.205C112.449 110.154 114.624 110.105 116.796 110.047C120.088 109.96 123.396 109.885 126.662 109.758C129.203 109.669 131.69 109.528 134.199 109.409C134.753 109.383 135.292 109.349 135.849 109.329C137.917 109.248 138.575 109.288 139.022 109.522C139.123 109.566 139.22 109.619 139.311 109.68C139.516 109.865 138.679 110.05 137.167 110.151C132.682 110.456 127.951 110.627 123.197 110.777C119.669 110.886 116.124 110.973 112.585 111.065L112.593 111.051Z" fill="#221F1F"/>
<path id="Vector_23" d="M35.404 112.582C33.4252 112.563 31.4463 112.546 29.4675 112.53C28.7463 112.53 28.0252 112.548 27.304 112.53C24.7598 112.504 22.2155 112.464 19.6713 112.444C18.5434 112.444 17.4098 112.444 16.2905 112.475C14.8482 112.504 13.4059 112.582 11.9636 112.493C11.0694 112.438 12.2002 111.538 13.8559 111.515C16.7954 111.48 19.7319 111.498 22.6944 111.604C24.4655 111.668 26.3117 111.604 28.1232 111.622C30.1165 111.622 32.1098 111.645 34.103 111.653C35.329 111.653 36.5579 111.671 37.7838 111.671C39.6415 111.671 41.5079 111.688 43.3511 111.671C44.7934 111.65 46.1867 111.575 47.603 111.526C47.9146 111.526 48.2204 111.495 48.5348 111.489C49.6886 111.463 50.0723 111.524 50.3261 111.777C50.388 111.826 50.4433 111.882 50.4905 111.945C50.6059 112.132 50.13 112.294 49.2761 112.357C46.7463 112.542 44.0838 112.585 41.3925 112.605C39.4021 112.62 37.4002 112.605 35.404 112.605V112.582Z" fill="#221F1F"/>
<path id="Vector_24" d="M36.6905 80.2862C36.6182 80.387 36.5179 80.4642 36.402 80.5083C36.2751 80.5476 36.138 80.5373 36.0184 80.4795C35.9306 80.446 35.8558 80.3854 35.8049 80.3064C35.7687 80.2432 35.7455 80.1734 35.7365 80.1011C35.7276 80.0288 35.7332 79.9554 35.753 79.8853C35.7821 79.7752 35.8258 79.6694 35.8828 79.5708C35.929 79.4872 35.9722 79.4035 36.0213 79.3228C36.0764 79.2036 36.1727 79.1084 36.2924 79.0545C36.3386 79.0401 36.3703 79.1208 36.3991 79.2074C36.428 79.2939 36.4626 79.3805 36.4366 79.4208C36.3386 79.568 36.2203 79.7353 36.128 79.8939C36.1059 79.9251 36.094 79.9624 36.094 80.0006C36.094 80.0389 36.1059 80.0762 36.128 80.1074C36.128 80.1333 36.1943 80.1507 36.2203 80.1593C36.2389 80.1616 36.2577 80.16 36.2756 80.1546C36.2935 80.1491 36.3101 80.1399 36.3241 80.1276C36.3787 80.0772 36.4211 80.015 36.4482 79.9458C36.4983 79.8286 36.5191 79.7008 36.5088 79.5737C36.5088 79.4814 36.4395 79.3833 36.4049 79.3862C36.4049 79.4093 36.3847 79.3862 36.3386 79.2853L36.3011 79.2276C36.2636 79.1728 36.2722 79.0718 36.3934 79.0343C36.4468 79.0244 36.5015 79.0244 36.5549 79.0343C36.6064 79.0526 36.6543 79.08 36.6963 79.1151C36.7293 79.1487 36.7601 79.1843 36.7886 79.2218L36.8405 79.3285C36.8858 79.456 36.9026 79.5919 36.8895 79.7266C36.8763 79.9257 36.8106 80.1178 36.6991 80.2833L36.6905 80.2862Z" fill="#221F1F"/>
<path id="Vector_25" d="M39.0472 81.2639C39.0371 81.3735 39 81.4789 38.939 81.5706C38.8781 81.6622 38.7953 81.7373 38.6982 81.789C38.6586 81.8048 38.6201 81.8232 38.5828 81.8438C38.5399 81.8582 38.4953 81.8669 38.4501 81.8697C38.3717 81.8709 38.2949 81.848 38.2299 81.8042C38.1649 81.7603 38.1149 81.6976 38.0866 81.6245C38.0399 81.5094 38.024 81.3842 38.0405 81.2611C38.0405 81.163 38.0607 81.0707 38.0751 80.9726C38.0807 80.9063 38.1003 80.8419 38.1326 80.7837C38.1649 80.7255 38.2092 80.6749 38.2626 80.6351C38.303 80.612 38.352 80.6899 38.3982 80.7707C38.4443 80.8515 38.5049 80.9207 38.4905 80.9524C38.4451 81.101 38.4142 81.2536 38.3982 81.4082C38.3934 81.418 38.3922 81.4291 38.3948 81.4397C38.3975 81.4502 38.4038 81.4595 38.4126 81.4659C38.4331 81.4729 38.4555 81.4729 38.476 81.4659C38.5181 81.4563 38.5567 81.4353 38.5878 81.4053C38.6188 81.3753 38.641 81.3374 38.652 81.2957C38.6749 81.227 38.6818 81.154 38.6722 81.0822C38.6642 81.03 38.6507 80.9787 38.6318 80.9293C38.6157 80.8941 38.5869 80.8662 38.551 80.8515C38.5363 80.8486 38.521 80.8492 38.5065 80.8532C38.492 80.8572 38.4786 80.8645 38.4674 80.8745C38.4501 80.8988 38.4355 80.9249 38.4241 80.9524L38.4068 80.9928C38.3751 81.0563 38.3433 81.062 38.2395 81.0245L38.176 81.0014C38.1416 80.9914 38.1124 80.9683 38.0946 80.937C38.0769 80.9058 38.0719 80.8689 38.0808 80.8341C38.0878 80.8045 38.0975 80.7755 38.1097 80.7476L38.1732 80.6553C38.2236 80.5832 38.2937 80.5271 38.3751 80.4938C38.4623 80.4589 38.5585 80.4529 38.6494 80.4768C38.7403 80.5007 38.8211 80.5532 38.8799 80.6265C38.9599 80.7197 39.0145 80.8319 39.0385 80.9524C39.0631 81.0514 39.069 81.1541 39.0559 81.2553L39.0472 81.2639Z" fill="#221F1F"/>
<path id="Vector_26" d="M38.4905 78.7485C38.4953 78.7615 38.4953 78.7759 38.4905 78.7889L35.8193 81.7716C35.8082 81.7758 35.7959 81.7758 35.7847 81.7716C35.7674 81.7918 35.8424 81.8985 35.9491 82.0081C36.0559 82.1178 36.1626 82.1928 36.1799 82.1726C36.1753 82.1585 36.1753 82.1433 36.1799 82.1293L36.2895 82.0081L38.8597 79.1408C38.8696 79.1306 38.883 79.1245 38.8972 79.1235C38.9145 79.1033 38.8366 79.0024 38.7184 78.9014C38.6001 78.8004 38.5078 78.7283 38.4905 78.7485Z" fill="#232020"/>
<path id="Vector_27" d="M35.7504 63.4403L35.5975 62.0961C35.5975 62.0961 35.5975 62.0961 35.5975 62.0816C35.4566 62.0777 35.3158 62.0933 35.1792 62.1278V62.1826L35.3234 63.472C35.3932 63.4823 35.4642 63.4823 35.534 63.472C35.6073 63.4718 35.6801 63.4611 35.7504 63.4403Z" fill="#232020"/>
<path id="Vector_28" d="M36.2923 62.5659L34.5615 62.7015C34.5588 62.7028 34.5558 62.7034 34.5528 62.7034C34.5498 62.7034 34.5469 62.7028 34.5442 62.7015C34.5302 62.771 34.5302 62.8426 34.5442 62.9121C34.5443 62.9839 34.557 63.0552 34.5817 63.1227C34.5817 63.1227 34.5817 63.1227 34.599 63.1227H34.6682L36.3298 62.9928C36.3325 62.9916 36.3354 62.9909 36.3384 62.9909C36.3414 62.9909 36.3444 62.9916 36.3471 62.9928C36.36 62.9232 36.36 62.8519 36.3471 62.7823C36.3439 62.7071 36.3253 62.6335 36.2923 62.5659Z" fill="#232020"/>
<path id="Vector_29" d="M96.9961 69.3076C96.9961 69.3076 96.9961 69.2903 96.9961 69.2874L98.0894 68.4883C98.0894 68.4883 98.0894 68.4883 98.1067 68.4883C98.0795 68.4228 98.0415 68.3624 97.9942 68.3095C97.9573 68.2483 97.9105 68.1937 97.8557 68.1479C97.8557 68.1479 97.8557 68.1653 97.8557 68.1681L97.8125 68.1999L96.7654 68.9672C96.7654 68.9672 96.7654 68.9672 96.748 68.9672C96.7748 69.0323 96.8118 69.0926 96.8577 69.146C96.8955 69.2064 96.9422 69.2609 96.9961 69.3076Z" fill="#232020"/>
<path id="Vector_30" d="M98.0263 69.3448C98.0232 69.3464 98.0197 69.3472 98.0162 69.3472C98.0127 69.3472 98.0093 69.3464 98.0061 69.3448L97.0282 67.9025C97.0282 67.9025 97.0282 67.9025 97.0282 67.8823C97.0282 67.8823 96.9388 67.9169 96.8407 67.9833C96.7793 68.0186 96.7247 68.0645 96.6792 68.1189C96.6792 68.1189 96.6965 68.1189 96.6994 68.1189L96.7398 68.1766L97.6773 69.5525C97.6788 69.5557 97.6796 69.5591 97.6796 69.5626C97.6796 69.5661 97.6788 69.5696 97.6773 69.5727C97.6773 69.5727 97.7667 69.5381 97.8619 69.4717C97.9239 69.4397 97.9796 69.3967 98.0263 69.3448Z" fill="#232020"/>
<path id="Vector_31" d="M54.281 50.3295C54.2631 50.3541 54.2393 50.374 54.2118 50.3872L51.3964 51.9131L50.531 54.7458V54.7718C50.531 54.7718 50.531 54.7718 50.5137 54.7574L50.2253 54.3795C49.9261 53.9987 49.6506 53.5998 49.4003 53.1853C49.3907 53.1634 49.3858 53.1399 49.3858 53.116C49.3858 53.116 49.2329 53.116 49.0599 53.1449C48.8868 53.1737 48.7714 53.2891 48.8118 53.3785C48.8372 53.4029 48.8586 53.4312 48.8753 53.4622C48.9416 53.5862 49.0108 53.6929 49.0801 53.8026C49.3483 54.2064 49.6339 54.5814 49.9224 54.9564L50.2368 55.3574L50.6551 55.8795C50.6869 55.9222 50.7216 55.9627 50.7589 56.0006L50.8079 55.842L50.9089 55.5247L51.1022 54.8901L51.881 52.3141L54.4916 50.9006C54.5166 50.8878 54.5443 50.8809 54.5724 50.8804H54.5897C54.6416 50.8516 54.6185 50.7045 54.5349 50.5516C54.4512 50.3987 54.3358 50.3093 54.281 50.3295Z" fill="#232020"/>
<path id="Vector_32" d="M55.8384 32.6643C55.7169 32.7302 55.6113 32.822 55.5291 32.9331C55.4469 33.0442 55.39 33.1721 55.3625 33.3075C55.3462 33.4353 55.3693 33.565 55.4285 33.6794C55.4878 33.7938 55.5805 33.8875 55.6942 33.9479C55.8921 34.031 56.1109 34.0501 56.3202 34.0027C56.4721 33.983 56.6195 33.9371 56.7558 33.8672C56.8774 33.8004 56.9774 33.7003 57.0442 33.5787C57.1809 33.2631 57.2778 32.9317 57.3327 32.5922L57.5115 32.6325L57.5923 32.471L57.5259 32.6152V32.6354L57.6038 32.471C57.7884 32.5691 57.9384 32.6585 58.1058 32.7306C58.2676 32.8127 58.4464 32.8555 58.6279 32.8555C58.8093 32.8555 58.9882 32.8127 59.15 32.7306C59.3483 32.6323 59.5107 32.4741 59.6143 32.2784C59.7178 32.0828 59.7572 31.8595 59.7269 31.6402C59.6923 31.5162 59.7961 31.4556 59.9634 31.5566C60.0671 31.6316 60.1407 31.741 60.1711 31.8652C60.2194 32.0398 60.204 32.2259 60.1279 32.3902C60.0175 32.6379 59.8481 32.8548 59.6346 33.022C59.4086 33.1878 59.1409 33.2877 58.8615 33.3104C58.354 33.3179 57.8575 33.1622 57.4452 32.8662H57.4163C57.3896 32.8518 57.3652 32.8333 57.3442 32.8114C57.3193 32.7811 57.3008 32.746 57.2899 32.7083C57.279 32.6706 57.2759 32.6311 57.2808 32.5922L57.8029 32.6931C57.7625 32.8518 57.7192 33.0104 57.6759 33.172C57.6062 33.5437 57.4239 33.8851 57.1538 34.1498C56.9993 34.271 56.8216 34.3594 56.6317 34.4095C56.4534 34.4645 56.2674 34.4908 56.0808 34.4873C55.8638 34.4886 55.6502 34.4339 55.4606 34.3287C55.2654 34.2167 55.1116 34.0447 55.0221 33.8383C54.933 33.6353 54.9069 33.4102 54.9471 33.1922C54.9895 32.9802 55.0837 32.782 55.2211 32.6152C55.3823 32.4223 55.5875 32.271 55.8195 32.1741C56.0514 32.0772 56.3033 32.0375 56.5538 32.0585C56.7136 32.0767 56.87 32.1175 57.0183 32.1797C57.0875 32.2085 57.1654 32.2489 57.2202 32.2777L57.324 32.3383L57.4336 32.4018C57.4265 32.3588 57.4265 32.3149 57.4336 32.272C57.4336 32.2229 57.4336 32.1998 57.4683 32.1277C57.5081 31.9697 57.5612 31.8153 57.6269 31.6662C57.7321 31.3884 57.9283 31.1545 58.1836 31.0027C58.3119 30.9416 58.4463 30.8943 58.5846 30.8614C58.7207 30.8267 58.8598 30.8055 59 30.7979C59.1326 30.7873 59.266 30.798 59.3952 30.8297C59.5794 30.8654 59.7438 30.9682 59.8567 31.1181C59.8852 31.1543 59.9036 31.1973 59.9102 31.2429C59.9168 31.2885 59.9113 31.335 59.8942 31.3777C59.8851 31.4107 59.8705 31.4419 59.8509 31.47C59.7759 31.5508 59.6548 31.4123 59.4615 31.3143C59.2929 31.2442 59.1076 31.2242 58.9279 31.2566C58.83 31.2692 58.7335 31.2904 58.6394 31.32C58.5477 31.3418 58.4587 31.3737 58.374 31.4152C58.2315 31.5206 58.1223 31.6648 58.0596 31.8306C58.0153 31.9237 57.9787 32.0201 57.95 32.1191C57.95 32.145 57.95 32.1739 57.9269 32.1998C57.9038 32.2258 57.9269 32.2402 57.9009 32.3152L57.8836 32.4047V32.4508C57.8836 32.4652 57.8836 32.4854 57.8577 32.4739L57.6356 32.4508C57.6064 32.4991 57.5803 32.5492 57.5577 32.6008L57.425 32.8893C57.3009 32.8258 57.1711 32.7508 57.0442 32.6787C56.9852 32.6466 56.9246 32.6177 56.8625 32.5922C56.7562 32.5454 56.6433 32.5152 56.5279 32.5027C56.302 32.4824 56.0755 32.535 55.8817 32.6527L55.8384 32.6643Z" fill="#221F1F"/>
<path id="Vector_33" d="M106.654 32.6411C106.64 32.6402 106.626 32.634 106.616 32.6238L105.569 31.1383L105.033 30.3998C104.842 30.1517 104.678 29.921 104.436 29.6556C104.417 29.6339 104.401 29.6108 104.387 29.5863C104.323 29.5402 104.216 29.6642 104.153 29.8488L104.136 29.8921V29.9181C104.136 29.9383 104.118 29.97 104.101 30.0046C104.081 30.0477 104.058 30.0891 104.032 30.1286C104.025 30.1417 104.017 30.1535 104.006 30.1633C104.006 30.1633 104.006 30.1258 104.006 30.1402L104.087 30.2296C104.785 31.095 105.451 32.0758 106.106 33.0161C106.109 33.0225 106.11 33.0294 106.11 33.0363C106.11 33.0433 106.109 33.0502 106.106 33.0565C106.222 33.0264 106.329 32.9701 106.42 32.8921C106.559 32.7652 106.677 32.6613 106.654 32.6411Z" fill="#232020"/>
<path id="Vector_34" d="M106.135 30.0275C106.138 30.0338 106.14 30.0407 106.14 30.0477C106.14 30.0547 106.138 30.0616 106.135 30.0679C105.688 30.4573 105.246 30.8525 104.811 31.2593C104.594 31.4641 104.378 31.6718 104.168 31.8881C104.061 31.9948 103.957 32.1073 103.853 32.2227C103.732 32.3545 103.627 32.4996 103.539 32.6554C103.528 32.6769 103.512 32.6956 103.493 32.7102C103.472 32.765 103.62 32.8285 103.81 32.8573L103.948 32.8775H104.006C104.059 32.8852 104.112 32.8988 104.162 32.9179H104.142C104.142 32.9179 104.142 32.9179 104.159 32.8891L104.188 32.8458C104.352 32.6422 104.529 32.4495 104.719 32.2689C104.915 32.0727 105.117 31.8795 105.321 31.692C105.731 31.3083 106.152 30.9333 106.576 30.5641C106.576 30.5641 106.596 30.5641 106.614 30.5641C106.631 30.5641 106.542 30.417 106.415 30.2756C106.288 30.1343 106.152 30.0131 106.135 30.0275Z" fill="#232020"/>
<path id="Vector_35" d="M108.076 30.0016C108.068 30.0045 108.058 30.0045 108.05 30.0016H107.603L107.64 29.9814C107.908 29.8811 108.14 29.7034 108.307 29.4709C108.368 29.3751 108.391 29.2596 108.37 29.1478C108.353 29.0922 108.324 29.041 108.285 28.9977C108.246 28.9544 108.199 28.92 108.145 28.8968C108.068 28.864 107.986 28.8427 107.903 28.8334C107.833 28.8229 107.763 28.8181 107.692 28.8189C107.682 28.8225 107.671 28.8225 107.661 28.8189C107.661 28.8189 107.62 28.9141 107.629 29.0295C107.626 29.1019 107.64 29.174 107.669 29.2401C107.677 29.2375 107.685 29.2375 107.692 29.2401H107.808C107.855 29.2428 107.901 29.2506 107.946 29.2632H107.975V29.2805L107.94 29.3295C107.879 29.4001 107.804 29.4588 107.721 29.5026L107.392 29.6757C107.215 29.7609 107.074 29.906 106.994 30.0853C106.965 30.1574 106.939 30.2382 106.911 30.3247C106.971 30.3507 107.04 30.3709 107.104 30.3939C107.198 30.4178 107.296 30.4256 107.392 30.417H108.03C108.038 30.4142 108.047 30.4142 108.056 30.417C108.076 30.417 108.093 30.3218 108.093 30.2064C108.093 30.0911 108.096 30.0045 108.076 30.0016Z" fill="#232020"/>
<path id="Vector_36" d="M107.851 53.4823C108.147 53.4823 108.388 53.242 108.388 52.9457C108.388 52.6494 108.147 52.4092 107.851 52.4092C107.555 52.4092 107.314 52.6494 107.314 52.9457C107.314 53.242 107.555 53.4823 107.851 53.4823Z" fill="#221F1F"/>
<path id="Vector_37" d="M107.872 55.8939C108.168 55.8939 108.408 55.6537 108.408 55.3573C108.408 55.061 108.168 54.8208 107.872 54.8208C107.575 54.8208 107.335 55.061 107.335 55.3573C107.335 55.6537 107.575 55.8939 107.872 55.8939Z" fill="#221F1F"/>
<path id="Vector_38" d="M109.478 53.687C109.475 53.6932 109.471 53.6986 109.465 53.7027C109.459 53.7067 109.453 53.7093 109.446 53.7101L106.065 53.7966C106.059 53.7955 106.054 53.7931 106.049 53.7896C106.044 53.7861 106.04 53.7816 106.037 53.7764C106.002 53.8903 105.991 54.0101 106.005 54.1284C105.995 54.2481 106.013 54.3685 106.057 54.4803C106.06 54.4745 106.065 54.4694 106.07 54.4654C106.076 54.4615 106.082 54.4587 106.088 54.4572H106.224L109.466 54.3764C109.473 54.3767 109.479 54.3787 109.485 54.3823C109.491 54.3858 109.495 54.3908 109.498 54.3966C109.536 54.2834 109.547 54.1629 109.53 54.0447C109.542 53.923 109.524 53.8001 109.478 53.687Z" fill="#232020"/>
<path id="Vector_39" d="M116.643 74.8948C116.632 74.8807 116.624 74.8638 116.62 74.8458C116.59 74.6289 116.478 74.4318 116.308 74.2941C116.137 74.1564 115.921 74.0883 115.703 74.1037C115.484 74.1191 115.28 74.2167 115.13 74.3769C114.981 74.5371 114.898 74.7479 114.898 74.967C114.898 75.186 114.981 75.3968 115.13 75.557C115.28 75.7172 115.484 75.8148 115.703 75.8302C115.921 75.8456 116.137 75.7775 116.308 75.6398C116.478 75.5021 116.59 75.3049 116.62 75.0881C116.624 75.0712 116.632 75.0554 116.643 75.042C116.643 75.0045 116.522 74.9756 116.355 74.9785C116.258 74.9711 116.161 74.9789 116.066 75.0016C116.066 75.0016 116.081 75.0016 116.081 75.0246C116.077 75.0522 116.07 75.0792 116.061 75.1054C116.028 75.1828 115.969 75.246 115.894 75.2836C115.819 75.3211 115.732 75.3306 115.651 75.3102C115.567 75.2912 115.494 75.2419 115.444 75.1718C115.395 75.1017 115.374 75.0157 115.384 74.9306C115.394 74.8455 115.436 74.7673 115.501 74.7111C115.566 74.6549 115.649 74.6248 115.735 74.6266C115.817 74.6266 115.897 74.6554 115.96 74.7081C116.023 74.7608 116.066 74.8341 116.081 74.915C116.081 74.915 116.081 74.915 116.066 74.9352C116.161 74.958 116.258 74.9668 116.355 74.9612C116.522 74.9612 116.646 74.9323 116.643 74.8948Z" fill="#232020"/>
<path id="Vector_40" d="M118.363 77.4738C118.351 77.4607 118.343 77.4448 118.34 77.4277C118.312 77.2266 118.208 77.0437 118.051 76.9158C117.893 76.7879 117.692 76.7247 117.49 76.7388C117.287 76.7528 117.098 76.8433 116.959 76.9917C116.821 77.1402 116.744 77.3357 116.744 77.5387C116.744 77.7418 116.821 77.9373 116.959 78.0858C117.098 78.2342 117.287 78.3246 117.49 78.3387C117.692 78.3528 117.893 78.2896 118.051 78.1617C118.208 78.0338 118.312 77.8509 118.34 77.6498C118.343 77.6344 118.351 77.6204 118.363 77.6094C118.363 77.5748 118.242 77.546 118.074 77.5488C117.978 77.545 117.881 77.5518 117.786 77.569C117.786 77.569 117.803 77.569 117.786 77.5863C117.785 77.6085 117.779 77.6301 117.769 77.6498C117.736 77.7023 117.688 77.743 117.631 77.766C117.573 77.789 117.51 77.793 117.451 77.7775C117.391 77.762 117.338 77.7278 117.299 77.6799C117.26 77.632 117.238 77.5729 117.235 77.5113C117.245 77.445 117.278 77.3842 117.328 77.3394C117.378 77.2947 117.442 77.2688 117.509 77.2661C117.578 77.2653 117.645 77.2892 117.698 77.3337C117.751 77.3782 117.786 77.4402 117.797 77.5085C117.797 77.5085 117.797 77.5085 117.797 77.5229C117.893 77.5382 117.989 77.544 118.086 77.5402C118.242 77.5344 118.366 77.5085 118.363 77.4738Z" fill="#232020"/>
<path id="Vector_41" d="M118.594 74.3932C118.593 74.4019 118.59 74.4103 118.586 74.4178C118.581 74.4253 118.575 74.4317 118.568 74.4365L114.639 77.0326C114.624 77.0387 114.607 77.0387 114.593 77.0326C114.567 77.0499 114.633 77.1941 114.74 77.3586C114.846 77.523 114.953 77.647 114.979 77.6211C114.98 77.6124 114.983 77.6039 114.987 77.5964C114.992 77.5889 114.998 77.5826 115.005 77.5778L115.164 77.474L118.934 74.9932C118.95 74.9885 118.967 74.9885 118.983 74.9932C119.009 74.9759 118.945 74.8316 118.839 74.6672C118.732 74.5028 118.619 74.3759 118.594 74.3932Z" fill="#232020"/>
<path id="Vector_42" d="M90.5404 85.7009C90.5366 85.7068 90.5316 85.7117 90.5255 85.7152C90.5195 85.7187 90.5127 85.7207 90.5057 85.7211H90.2779L90.4856 84.7432L91.1173 84.9624C91.1173 84.9624 91.1346 84.9768 91.1404 84.9941C91.1606 84.9941 91.2298 84.8586 91.2932 84.6768C91.3437 84.5683 91.3702 84.4503 91.3711 84.3307C91.3653 84.3335 91.3589 84.335 91.3524 84.335C91.3459 84.335 91.3395 84.3335 91.3336 84.3307L91.2009 84.2845L90.0067 83.8691L89.4673 86.3874H90.5C90.5 86.3874 90.5202 86.3874 90.5317 86.4076C90.5855 86.1761 90.5855 85.9353 90.5317 85.7038L90.5404 85.7009Z" fill="#232020"/>
<path id="Vector_43" d="M51.6532 72.2932C51.6796 72.2858 51.7075 72.2858 51.7339 72.2932L53.8339 72.9942L55.4666 69.5326L52.5965 68.2634C52.5729 68.253 52.5528 68.236 52.5388 68.2144C52.5388 68.2144 52.3888 68.3182 52.308 68.5028C52.2272 68.6874 52.207 68.8403 52.2532 68.8634H52.2705C52.2961 68.8574 52.3228 68.8574 52.3484 68.8634L52.6368 68.9932L54.5984 69.8586L53.4993 72.1865L51.9416 71.6672C51.9175 71.6594 51.8963 71.6443 51.8811 71.624H51.8666C51.8176 71.6067 51.7282 71.7422 51.6647 71.9124C51.6013 72.0826 51.6041 72.2788 51.6532 72.2932Z" fill="#232020"/>
<path id="Vector_44" d="M88.5963 56.7794C88.9662 56.0694 89.2564 55.3206 89.4616 54.5467C89.5243 54.2758 89.561 53.9996 89.5713 53.7217C89.5922 53.515 89.5636 53.3064 89.4876 53.113C89.4559 53.0451 89.4072 52.9865 89.3463 52.9429C89.2453 52.8794 89.127 52.813 89.0174 52.7525C88.5667 52.507 88.0896 52.3134 87.5953 52.1755C87.1534 52.0571 86.6996 51.9884 86.2424 51.9707C85.6655 51.9419 85.0713 52.0111 84.477 51.9909C84.2924 51.9909 84.2953 51.8063 84.4366 51.6188C84.5333 51.4995 84.6543 51.4022 84.7916 51.3336C84.9289 51.2649 85.0794 51.2264 85.2328 51.2207C86.5378 51.1437 87.8397 51.4176 89.003 52.014L89.5136 52.3025L89.6405 52.3746C89.6924 52.4063 89.7559 52.4496 89.8107 52.49C89.9119 52.5805 89.9968 52.6879 90.0616 52.8073C90.2478 53.2161 90.3052 53.6718 90.2261 54.114C90.0841 54.9666 89.828 55.7962 89.4645 56.5804C89.3578 56.8198 89.2453 57.0563 89.1213 57.2929C89.0895 57.3505 89.0549 57.4111 89.0174 57.4717C88.993 57.5109 88.966 57.5485 88.9366 57.5842L88.853 57.6621C88.7499 57.7634 88.6346 57.8516 88.5097 57.9246C88.1511 58.1451 87.7483 58.284 87.3299 58.3313C86.9285 58.3874 86.5218 58.3961 86.1184 58.3573C85.4924 58.3214 84.8775 58.1769 84.3011 57.9304C84.1685 57.8765 84.0411 57.8109 83.9203 57.7342C83.7515 57.6354 83.6067 57.5004 83.4963 57.339C83.4687 57.2913 83.4525 57.2378 83.449 57.1827C83.4455 57.1277 83.4547 57.0726 83.4761 57.0217C83.4898 56.9766 83.5102 56.9338 83.5366 56.8948C83.5641 56.8673 83.5995 56.8492 83.6378 56.8429C83.6761 56.8367 83.7154 56.8428 83.7501 56.8602C83.8002 56.8767 83.8477 56.9 83.8914 56.9294C83.9546 56.9604 84.0154 56.996 84.0732 57.0361C84.4863 57.2906 84.9415 57.4694 85.4174 57.564C85.9106 57.6785 86.4179 57.7203 86.9232 57.688C87.2798 57.6722 87.6302 57.5891 87.9559 57.4429C88.1024 57.376 88.2369 57.2853 88.3539 57.1746L88.4116 57.1284L88.4636 57.039C88.5068 56.9611 88.553 56.8717 88.5963 56.7823V56.7794Z" fill="#221F1F"/>
<path id="Vector_45" d="M76.1177 57.8062C75.4397 57.624 74.8071 57.3028 74.26 56.863C73.7256 56.4081 73.3056 55.834 73.034 55.187C72.9313 54.9562 72.8492 54.7168 72.7888 54.4716C72.7181 54.2318 72.6727 53.9853 72.6532 53.736L72.6301 53.4072L72.6157 53.2457V53.0812L72.6503 52.4351L72.7571 51.8005C72.7712 51.6906 72.7924 51.5817 72.8205 51.4745C72.8554 51.3453 72.9088 51.2219 72.9792 51.1081C73.2651 50.72 73.6704 50.4362 74.133 50.3005C74.5427 50.1678 74.9652 50.0788 75.3936 50.0351C76.1363 49.9583 76.8839 49.9419 77.6292 49.986C78.1049 50.0084 78.5788 50.0595 79.0484 50.1389C79.532 50.2153 80.0004 50.3682 80.4359 50.5918C80.7244 50.7649 80.5628 50.8803 80.2801 50.9351C79.8769 51.0056 79.4639 50.9997 79.0628 50.9178C78.1668 50.7437 77.2554 50.6615 76.3426 50.6726C75.8905 50.6754 75.4393 50.712 74.9926 50.7822C74.5747 50.8374 74.1718 50.9747 73.8071 51.186C73.6272 51.2925 73.4951 51.4639 73.4378 51.6649C73.3946 51.9533 73.3455 52.2187 73.308 52.4956C73.2705 52.7726 73.2763 53.0553 73.308 53.3322C73.3218 53.607 73.3595 53.8802 73.4205 54.1485C73.5301 54.7393 73.7815 55.2947 74.1532 55.7668C74.5193 56.2464 74.9992 56.6271 75.5494 56.8745C76.2371 57.1908 76.9916 57.3343 77.7475 57.2928C77.8905 57.2895 78.0332 57.276 78.1744 57.2524C78.318 57.2382 78.4606 57.2151 78.6013 57.1831L79.0225 57.0793C79.0865 57.0607 79.1492 57.0375 79.2099 57.0101L79.2994 56.9726L79.3801 56.9178C79.6103 56.7732 79.8022 56.5753 79.9398 56.3408C80.0902 56.1012 80.2094 55.8434 80.2946 55.5735C80.4292 55.1414 80.5314 54.6998 80.6003 54.2524C80.6167 54.0912 80.6845 53.9395 80.7936 53.8197C80.9175 53.712 81.0678 53.6393 81.2292 53.6091C81.4813 53.556 81.7402 53.5423 81.9965 53.5687C82.2146 53.5831 82.431 53.6179 82.6426 53.6726C82.9301 53.7405 83.1997 53.8693 83.433 54.0505C83.4927 54.094 83.5419 54.1503 83.5773 54.2151C83.6127 54.2799 83.6334 54.3517 83.6378 54.4255C83.6467 54.4799 83.6467 54.5354 83.6378 54.5899C83.5773 54.7428 83.3292 54.5899 82.8676 54.4428C82.5175 54.3222 82.1504 54.258 81.7801 54.2524C81.6194 54.2458 81.4587 54.2653 81.3042 54.3101C81.3042 54.3101 81.2898 54.3245 81.2869 54.3303V54.3678V54.411L81.2725 54.4831C81.108 55.3024 80.9378 56.263 80.26 57.0793C79.9923 57.3921 79.6426 57.6239 79.2503 57.7485L78.7426 57.8755C78.5713 57.9134 78.398 57.9413 78.2234 57.9591C77.5259 58.0516 76.8171 58.0105 76.135 57.838L76.1177 57.8062Z" fill="#221F1F"/>
<path id="Vector_46" d="M82.2384 54.2903C82.2804 53.4226 82.4931 52.5718 82.8644 51.7864C83.0058 51.4927 83.18 51.216 83.3836 50.9614C83.7672 50.5249 84.2528 50.1899 84.7971 49.9864C85.3126 49.809 85.8453 49.6862 86.3865 49.6201C86.8581 49.5544 87.3328 49.513 87.8086 49.496C88.1175 49.4831 88.4269 49.4918 88.7346 49.522C89.0534 49.5481 89.364 49.6363 89.649 49.7816C89.8336 49.8797 89.7153 50.0268 89.5134 50.1335C89.2746 50.2633 89.002 50.3176 88.7317 50.2893C88.17 50.2188 87.6026 50.2062 87.0384 50.2518C86.4631 50.2851 85.8917 50.3681 85.3307 50.4999C84.6692 50.6588 84.0947 51.067 83.7269 51.6393C83.3084 52.2921 83.0495 53.0342 82.9711 53.8057C82.9105 54.2916 82.8931 54.782 82.9192 55.271C82.9534 56.0188 83.0774 56.7596 83.2884 57.4778C83.4576 58.0205 83.692 58.5406 83.9865 59.0268C84.0471 59.1335 84.1192 59.2316 84.1826 59.3355C84.4278 59.7162 84.4711 59.8374 84.4048 60.0364C84.391 60.0829 84.3736 60.1282 84.3528 60.172C84.2807 60.2989 84.0442 60.2297 83.7961 59.9383C83.0993 59.0341 82.6303 57.9755 82.4288 56.8518C82.2526 56.01 82.1829 55.1494 82.2211 54.2903H82.2384Z" fill="#221F1F"/>
<path id="Vector_47" d="M79.7175 49.0891C77.8367 47.3122 74.7069 47.8891 72.8262 48.9362" stroke="#221F1F" stroke-width="3.5" stroke-linecap="round" stroke-linejoin="round"/>
<path id="Vector_48" d="M79.178 63.5785C79.7693 64.3689 80.5482 65.0208 81.5866 64.9717C82.3997 64.908 83.1546 64.5254 83.6866 63.9073C83.9145 63.665 83.0895 63.7227 82.9135 63.9073C81.8434 65.041 80.7385 64.3025 79.9568 63.2612C79.7982 63.0506 78.9905 63.3304 79.178 63.5785Z" fill="#221F1F"/>
<path id="Vector_49" d="M82.2618 110.984H108.737L125.693 84.8036C126.059 84.2584 124.856 83.4824 124.507 84.0363L107.978 109.574H82.2618C81.7454 109.571 81.7454 110.99 82.2618 110.984Z" fill="#232020"/>
<path id="Vector_50" d="M72.731 52.7207L67.6108 51.7544" stroke="#221F1F" stroke-width="3.5" stroke-linecap="round" stroke-linejoin="round"/>
<path id="Vector_51" d="M104.811 99.9447C104.053 99.7144 103.276 99.5541 102.489 99.4659C101.687 99.3591 100.876 99.2813 100.063 99.2063L98.2772 99.0649C96.1772 98.863 94.0714 98.6207 91.9945 98.2197C91.0714 98.0438 90.1455 97.8563 89.2397 97.6428C88.6628 97.5015 88.0859 97.3543 87.5089 97.1726L87.0791 97.037L86.658 96.8726C86.3695 96.7659 86.0984 96.6476 85.8272 96.5236C85.4839 96.3678 85.5849 96.2611 85.9282 96.2351C86.153 96.2283 86.3779 96.2418 86.6003 96.2755C86.908 96.3054 87.2123 96.3643 87.5089 96.4515C89.8251 97.1231 92.1844 97.6358 94.5705 97.9861C96.0128 98.2197 97.5272 98.3178 99.0214 98.4447C100.663 98.5947 102.313 98.7072 103.963 99.0216C104.48 99.1197 104.987 99.2695 105.474 99.4688C105.959 99.6967 106.401 100.006 106.781 100.383C107.348 100.927 107.858 101.526 108.304 102.172C108.529 102.492 108.737 102.824 108.927 103.167C109.133 103.517 109.285 103.896 109.377 104.292C109.39 104.388 109.39 104.485 109.377 104.58C109.367 104.704 109.314 104.82 109.227 104.909C109.177 104.954 109.118 104.988 109.054 105.007C109.001 105.028 108.944 105.039 108.887 105.039C108.836 105.046 108.785 105.046 108.734 105.039C108.686 105.032 108.639 105.021 108.593 105.007C108.288 104.889 108.01 104.712 107.773 104.488C107.319 104.083 106.918 103.621 106.579 103.115C106.502 103 106.431 102.882 106.366 102.76L106.34 102.714L106.325 102.691C106.315 102.674 106.303 102.657 106.291 102.642C106.265 102.61 106.233 102.575 106.198 102.541C106.067 102.429 105.924 102.332 105.771 102.252L105.431 102.068C105.288 102 105.161 101.901 105.059 101.779C105.024 101.733 104.97 101.69 104.949 101.652C104.929 101.615 104.998 101.569 105.189 101.551C105.479 101.544 105.767 101.596 106.037 101.704C106.337 101.815 106.607 101.996 106.824 102.232L106.911 102.348L106.974 102.454C107.003 102.507 107.035 102.558 107.07 102.607C107.133 102.708 107.205 102.812 107.28 102.913C107.577 103.323 107.917 103.699 108.295 104.035C108.449 104.175 108.626 104.289 108.818 104.37C108.838 104.37 108.841 104.37 108.849 104.37C108.858 104.37 108.864 104.37 108.864 104.37C108.864 104.37 108.864 104.407 108.878 104.448C108.876 104.472 108.876 104.496 108.878 104.52C108.884 104.54 108.893 104.56 108.904 104.577C108.904 104.577 108.904 104.577 108.89 104.577C108.879 104.569 108.868 104.564 108.855 104.56C108.802 104.533 108.744 104.517 108.685 104.514C108.685 104.514 108.685 104.514 108.685 104.491C108.683 104.474 108.683 104.456 108.685 104.439C108.637 104.218 108.56 104.004 108.454 103.804C108.341 103.571 108.214 103.344 108.076 103.124C107.657 102.453 107.174 101.825 106.634 101.249C106.368 100.965 106.079 100.706 105.769 100.473C105.473 100.255 105.142 100.09 104.791 99.9851L104.811 99.9447Z" fill="#221F1F"/>
<path id="Vector_52" d="M98.2884 102.1C97.8124 101.883 97.3336 101.67 96.8461 101.474C96.3806 101.265 95.898 101.097 95.4038 100.972C94.3981 100.753 93.3747 100.625 92.3461 100.591C91.5845 100.556 90.823 100.559 90.0586 100.568C87.3578 100.588 84.6607 100.77 81.9817 101.113C81.3874 101.191 80.7932 101.283 80.2019 101.373C79.6105 101.462 79.022 101.583 78.4365 101.699C76.9394 102.007 75.4567 102.379 73.9653 102.708C73.5009 102.806 73.5124 102.619 73.8586 102.348C74.4283 101.945 75.0741 101.662 75.7567 101.517C78.8355 100.799 81.9681 100.334 85.123 100.129C87.0153 100.008 88.9855 99.864 90.9326 99.8784C92.0063 99.8864 93.0788 99.9489 94.1461 100.066C94.6879 100.123 95.2249 100.22 95.7528 100.354C96.2728 100.506 96.7826 100.691 97.2788 100.908C98.4932 101.419 99.6759 101.978 100.859 102.541C101.753 102.97 102.642 103.41 103.527 103.862L103.861 104.035L104.029 104.122L104.112 104.165L104.228 104.228C104.375 104.315 104.545 104.393 104.675 104.485C104.787 104.564 104.885 104.661 104.963 104.774C105.001 104.825 105.028 104.884 105.041 104.947C105.047 104.981 105.045 105.017 105.035 105.051C105.026 105.085 105.009 105.116 104.986 105.143C104.897 105.237 104.783 105.306 104.658 105.342C104.507 105.39 104.351 105.42 104.193 105.431C104.032 105.431 103.827 105.449 103.697 105.449C103.294 105.451 102.893 105.39 102.509 105.27C102.152 105.149 101.802 105.009 101.461 104.849C100.766 104.528 100.103 104.185 99.422 103.902C99.272 103.839 99.1336 103.781 98.972 103.732C98.8105 103.683 98.6836 103.628 98.5163 103.585C98.1224 103.466 97.719 103.381 97.3105 103.331C97.2006 103.316 97.0917 103.294 96.9846 103.265C96.9021 103.249 96.8224 103.221 96.748 103.181C96.6804 103.154 96.6156 103.12 96.5547 103.08C96.4797 103.02 96.5547 102.942 96.7942 102.858C96.8601 102.833 96.9275 102.812 96.9961 102.795C97.0711 102.795 97.1576 102.772 97.2499 102.763C97.4665 102.737 97.6853 102.737 97.9019 102.763C99.3442 102.939 100.616 103.695 101.857 104.26C102.156 104.404 102.465 104.53 102.78 104.635C102.855 104.658 102.93 104.673 103.005 104.693C103.076 104.716 103.149 104.731 103.224 104.736C103.299 104.736 103.36 104.759 103.443 104.765H103.694H103.798L102.595 104.159L101.173 103.461C100.218 103 99.2576 102.547 98.2884 102.114V102.1Z" fill="#221F1F"/>
<path id="Vector_53" d="M82.3686 106.784C81.61 106.989 80.8513 107.214 80.0956 107.45C79.8071 107.534 79.5504 107.647 79.2763 107.739C78.3042 108.048 77.3321 108.359 76.3629 108.688C75.9359 108.835 75.4975 108.976 75.085 109.15C74.5494 109.375 73.9979 109.56 73.435 109.703C73.0802 109.781 73.3398 109.126 73.9542 108.875C74.5023 108.662 75.0504 108.454 75.6071 108.252C76.1638 108.05 76.7292 107.88 77.3033 107.716C77.9898 107.52 78.6763 107.237 79.3686 107.006C80.1302 106.75 80.9004 106.513 81.6763 106.285C82.1552 106.152 82.6283 106.011 83.1186 105.89C83.4792 105.795 83.8456 105.705 84.2148 105.625C84.584 105.544 84.9475 105.46 85.3109 105.382C85.5994 105.313 85.8879 105.261 86.159 105.198C86.4302 105.134 86.7359 105.082 87.0244 105.039C87.1484 105.019 87.2725 104.993 87.4023 104.978C87.8811 104.95 88.0369 104.978 88.1408 105.163C88.1672 105.2 88.1894 105.24 88.2071 105.281C88.2504 105.417 88.0629 105.541 87.734 105.593C86.7533 105.763 85.7292 105.959 84.6965 106.199C83.935 106.386 83.1619 106.576 82.3888 106.804L82.3686 106.784Z" fill="#221F1F"/>
<path id="Vector_54" d="M80.0811 100.591C79.6744 97.9951 81.9734 93.5816 82.6773 86.7249C82.9657 83.7826 81.8869 73.1903 80.834 75.7374C80.1763 77.3326 81.6706 80.598 80.1561 81.3306C75.46 83.6008 72.6561 70.4989 67.6254 71.2345C67.3036 71.3118 66.9867 71.4082 66.6763 71.523C58.0052 73.871 49.6571 101.999 52.1263 110.281C53.2427 114.013 62.71 113.699 73.0167 109.378C72.0042 107.154 72.3994 103.972 73.8042 102.039C73.7927 102.039 79.4436 100.663 80.0811 100.591Z" fill="#221F1F"/>
<path id="Vector_55" d="M52.5331 96.1716C53.2997 92.9234 54.2758 89.7283 55.4552 86.6062C56.6121 83.4689 58.0608 80.447 59.7821 77.5803C60.4237 76.5312 61.1359 75.5269 61.9138 74.5745C62.6944 73.5986 63.6138 72.7424 64.6427 72.0332C65.1138 71.7201 65.6202 71.4635 66.1513 71.2687L66.5609 71.1418C66.6734 71.113 66.7888 71.0726 66.9158 71.0293C67.0427 70.986 67.1782 70.9399 67.3311 70.8995C67.409 70.8804 67.488 70.8659 67.5677 70.8562H67.7927C68.3911 70.8202 68.9883 70.9436 69.5234 71.2139C70.0287 71.479 70.4947 71.813 70.9081 72.2062C71.6811 72.9754 72.3741 73.8211 72.9763 74.7303C73.5907 75.6158 74.159 76.5187 74.7446 77.4014C75.3082 78.286 75.9389 79.126 76.6311 79.9139C76.9704 80.2932 77.3584 80.6259 77.785 80.9033C78.1809 81.1683 78.647 81.3089 79.1234 81.3072C79.2402 81.3072 79.3565 81.2927 79.4696 81.2639C79.5273 81.2639 79.585 81.2466 79.6427 81.2293L79.81 81.1658C79.9163 81.1314 80.0188 81.086 80.1157 81.0303C80.1965 80.9759 80.2668 80.9075 80.3234 80.8283C80.5571 80.4937 80.5859 79.963 80.5686 79.4582C80.5513 78.9533 80.4821 78.4197 80.4331 77.8832C80.3681 77.3322 80.3681 76.7755 80.4331 76.2245C80.4722 75.8954 80.5965 75.5822 80.7936 75.3158C80.8338 75.2576 80.8859 75.2086 80.9467 75.1722C81.0074 75.1359 81.0752 75.1131 81.1456 75.1053C81.2159 75.1078 81.2849 75.1256 81.3476 75.1575C81.4104 75.1894 81.4655 75.2346 81.509 75.2899C81.6164 75.4098 81.7023 75.5474 81.7629 75.6966C81.8261 75.8463 81.881 75.9994 81.9273 76.1553C81.9994 76.3947 82.0571 76.6255 82.1119 76.862C82.3196 77.8024 82.4552 78.7457 82.5734 79.6889C82.811 81.5696 82.9468 83.4618 82.9802 85.3572C82.9802 85.663 82.9802 85.9658 82.9658 86.2745C82.9513 86.5831 82.9196 86.8947 82.885 87.1918L82.7783 88.0976L82.6484 88.9976C82.4609 90.1976 82.2244 91.3918 81.9475 92.5716C81.6706 93.7514 81.3475 94.9197 81.0331 96.0822C80.6916 97.2218 80.4427 98.3871 80.2888 99.5668C80.2888 99.7485 80.2744 99.9014 80.2629 100.034C80.2513 100.167 80.2629 100.265 80.2629 100.349C80.2629 100.516 80.234 100.594 80.1994 100.588C80.1648 100.582 80.1215 100.493 80.0667 100.323C79.9918 100.08 79.9472 99.829 79.934 99.5755C79.9075 98.6813 79.9898 97.7872 80.1792 96.913C80.3811 95.8283 80.6898 94.5851 81.0215 93.2466C81.3177 92.0601 81.5725 90.8678 81.7859 89.6697C81.8984 89.0697 81.9792 88.4668 82.0744 87.8668L82.1811 86.961C82.2215 86.6524 82.2388 86.3841 82.2504 86.0755C82.2821 84.8783 82.2158 83.6524 82.1292 82.438C82.0427 81.2235 81.9129 80.0005 81.7398 78.7976C81.6504 78.1947 81.5494 77.5947 81.4196 77.012C81.3879 76.8678 81.3533 76.7235 81.3158 76.5822L81.2581 76.3745L81.2263 76.2764C81.2263 76.2764 81.2263 76.2274 81.1917 76.2274C81.1834 76.2347 81.1766 76.2435 81.1715 76.2533C81.1644 76.2699 81.1596 76.2874 81.1571 76.3053C81.1427 76.4005 81.1225 76.5591 81.1167 76.6918C81.1109 76.8245 81.1167 76.9803 81.1167 77.1187C81.134 77.6957 81.2206 78.3101 81.2696 78.9418C81.3012 79.2677 81.3108 79.5954 81.2984 79.9226C81.2936 80.2911 81.2151 80.655 81.0677 80.9928C80.9764 81.1845 80.8491 81.3568 80.6927 81.5005C80.537 81.6282 80.359 81.726 80.1677 81.7889C80.0031 81.8612 79.8308 81.9144 79.6542 81.9476L79.3859 81.9966C79.29 82.0046 79.1935 82.0046 79.0975 81.9966C78.3857 81.9825 77.6979 81.7364 77.1388 81.2957C76.6212 80.8975 76.1534 80.4384 75.7456 79.9283C74.8172 78.7341 73.9507 77.4931 73.1494 76.2101C72.3158 74.9668 71.4734 73.7005 70.4061 72.6995C69.9058 72.2045 69.2902 71.8416 68.6148 71.6437C68.4522 71.6031 68.286 71.578 68.1186 71.5687C67.9542 71.5687 67.7811 71.586 67.6254 71.5976C67.4584 71.6341 67.2945 71.6832 67.135 71.7447C66.959 71.811 66.7311 71.8716 66.5783 71.9235C65.8918 72.1516 65.2498 72.496 64.6802 72.9418C64.0935 73.3893 63.5498 73.8905 63.0561 74.4389C61.9623 75.6668 60.9958 77.0025 60.1715 78.4255C59.3296 79.8526 58.565 81.3239 57.8811 82.8332C56.5098 85.8636 55.3531 88.9867 54.4196 92.1793C53.8427 94.1408 53.3379 96.1283 52.9283 98.1332C52.5081 100.132 52.2105 102.155 52.0369 104.191C51.8944 105.727 51.907 107.273 52.0744 108.806C52.1226 109.182 52.1929 109.555 52.285 109.923C52.355 110.272 52.4996 110.603 52.709 110.892C52.9226 111.179 53.1901 111.422 53.4965 111.607C53.811 111.802 54.1456 111.963 54.4946 112.086C55.9196 112.568 57.4802 112.649 59.0061 112.602C60.5407 112.535 62.0675 112.347 63.5725 112.04C65.8947 111.567 68.1751 110.908 70.3917 110.07C70.9456 109.868 71.4908 109.649 72.0359 109.426L72.5667 109.201C72.5513 109.14 72.529 109.08 72.5004 109.023L72.4831 108.979L72.4513 108.881L72.3792 108.659C72.046 107.461 71.9858 106.203 72.2033 104.978C72.2943 104.443 72.4353 103.918 72.6244 103.409C72.7167 103.152 72.8321 102.904 72.9504 102.656L73.1523 102.293C73.1843 102.231 73.221 102.171 73.2619 102.114L73.4061 101.895L73.5417 101.693L74.9638 101.349L76.0282 101.101C76.6715 100.957 77.1965 100.845 77.6321 100.77C78.2306 100.645 78.841 100.587 79.4523 100.597C79.6454 100.594 79.8384 100.607 80.0292 100.637C80.2138 100.692 79.9456 100.796 79.2706 101.015C78.5956 101.234 77.5398 101.549 76.1436 101.9L74.0696 102.44L74.0494 102.477L74.0234 102.521L73.9773 102.59C73.9138 102.682 73.8677 102.786 73.81 102.878C73.7028 103.079 73.6065 103.285 73.5215 103.496C73.3513 103.923 73.219 104.364 73.1263 104.814C72.9377 105.721 72.9084 106.654 73.0398 107.572L73.1004 107.912L73.1811 108.247C73.2042 108.359 73.2446 108.463 73.2763 108.573L73.3513 108.798L73.484 109.126L73.6196 109.458L73.6859 109.625L73.7004 109.666C73.7004 109.683 73.6802 109.68 73.6744 109.689L73.5908 109.724L72.9273 109.998L72.1081 110.329C71.1677 110.707 70.2158 111.053 69.2494 111.379C67.3027 112.037 65.3122 112.558 63.2927 112.937C61.239 113.341 59.1442 113.497 57.0533 113.401C56.1729 113.349 55.3017 113.194 54.4571 112.94C54.0162 112.805 53.5922 112.621 53.1936 112.389C52.7656 112.146 52.3893 111.822 52.0859 111.434C51.9279 111.232 51.7961 111.011 51.6936 110.776C51.6475 110.655 51.5984 110.531 51.5581 110.416L51.4715 110.09C51.3672 109.661 51.2891 109.227 51.2379 108.789C51.1354 107.932 51.093 107.07 51.1109 106.207C51.1485 104.512 51.2978 102.821 51.5581 101.145C51.8061 99.4716 52.135 97.8158 52.5129 96.1745L52.5331 96.1716Z" fill="#221F1F"/>
<path id="Vector_56" d="M83.2887 100.522C83.2887 100.522 85.5503 97.0605 88.1753 96.7316C88.1753 96.7316 83.7618 95.2662 82.0772 95.1682C82.0772 95.1682 82.6541 90.1576 82.4724 88.3057C82.4724 88.3057 79.7464 100.133 80.707 100.522C81.6676 100.911 83.2887 100.522 83.2887 100.522Z" fill="#221F1F"/>
<path id="Vector_57" d="M81.6617 89.7795L82.0396 88.2045L82.7347 85.291L82.9396 88.2622C82.9757 88.8934 82.9757 89.5261 82.9396 90.1574C82.9049 90.7747 82.8598 91.3891 82.804 92.0006C82.7492 92.6468 82.7059 93.29 82.6309 93.9304L82.5386 94.7122L82.5155 94.8333C82.5473 94.8333 82.5934 94.8333 82.6309 94.8564L82.7809 94.8824L82.9972 94.9227L83.4242 95.0151C83.7126 95.0814 83.9809 95.1506 84.2578 95.2256C84.8117 95.3756 85.3569 95.5343 85.9021 95.7016L86.7155 95.9583L87.9299 96.3506L88.6944 96.6045L88.8847 96.6679L88.9799 96.7026C89.0117 96.7026 89.0549 96.7227 89.0492 96.7314L89.1213 96.8237C88.9684 96.8554 88.8328 96.8785 88.6713 96.916L88.1636 97.0343C88.0021 97.0747 87.8174 97.1122 87.6703 97.1554L87.3011 97.2968L86.9319 97.441L86.9001 97.4554H86.8857L86.8626 97.4699L86.8136 97.4987L86.7155 97.5564C86.5825 97.6309 86.4544 97.7138 86.3319 97.8045C85.3194 98.5141 84.5001 99.4891 83.6982 100.444C83.4559 100.732 83.3146 100.6 83.3549 100.207C83.4566 99.6087 83.7383 99.0552 84.1626 98.6208C84.6456 98.0913 85.1843 97.6155 85.7694 97.2016C85.9183 97.0978 86.0723 97.0015 86.2309 96.9131L86.4617 96.7718L86.4905 96.7545H86.4732H86.528C86.5713 96.7545 86.5569 96.7545 86.5482 96.7343C86.53 96.7173 86.5096 96.7028 86.4876 96.691L85.6222 96.4026L84.7222 96.1141C84.3501 95.9987 83.9694 95.892 83.5857 95.7968C83.3953 95.7535 83.2021 95.7045 83.0088 95.6699L82.7203 95.6122L82.3626 95.5574L81.8549 95.5026L81.728 95.4881H81.6963C81.6963 95.4881 81.6732 95.4881 81.679 95.4737V95.4102L81.7078 95.1564L81.7972 94.3314L81.9184 93.1285C81.9992 92.3266 82.0713 91.5218 82.1261 90.7199C82.1893 89.9273 82.2037 89.1315 82.1694 88.3372L82.7463 88.3775L82.6396 88.8275C82.3896 89.8872 82.1492 90.9506 81.9184 92.0179C81.5751 93.6304 81.2405 95.2574 81.0011 96.8756C80.9117 97.5045 80.8424 98.1276 80.8049 98.7477C80.7876 99.0564 80.7732 99.3679 80.7848 99.6651C80.7874 99.8091 80.8009 99.9528 80.8251 100.095C80.8306 100.13 80.8403 100.163 80.854 100.196C80.8598 100.21 80.8685 100.222 80.8794 100.233C80.8903 100.243 80.9033 100.251 80.9174 100.256L81.004 100.274C81.0646 100.274 81.1194 100.3 81.1799 100.305C81.3011 100.32 81.4251 100.329 81.5549 100.334C82.0309 100.349 82.3597 100.314 82.5934 100.334C82.7695 100.327 82.9439 100.371 83.0953 100.461C83.1565 100.491 83.2145 100.526 83.2684 100.568C83.404 100.695 83.0088 100.949 82.2126 101.055C81.9086 101.096 81.6016 101.108 81.2953 101.093C81.1304 101.082 80.9665 101.059 80.8049 101.024C80.6833 100.989 80.5638 100.946 80.4472 100.897C80.3334 100.836 80.2423 100.74 80.1876 100.623C80.1563 100.565 80.1311 100.504 80.1126 100.441C80.0922 100.378 80.0759 100.313 80.0636 100.248C80.0492 100.155 80.0376 100.072 80.029 99.9881C80.0146 99.8237 80.0088 99.6679 80.0088 99.5122C80.0088 99.2006 80.0088 98.9006 80.0463 98.5977C80.1415 97.3977 80.3347 96.2151 80.5396 95.0324C80.854 93.2756 81.229 91.5304 81.6184 89.791L81.6617 89.7795Z" fill="#221F1F"/>
<path id="Vector_58" d="M62.0608 101.546L61.7723 102.841L61.6944 103.164V103.202V103.219V103.245L61.6512 103.375H61.7666H61.8329L62.1387 103.323C62.6089 103.245 63.0733 103.141 63.5435 103.069C65.205 102.812 66.8666 102.584 68.5339 102.359C69.2723 102.261 70.0108 102.14 70.7435 102.025C71.6855 101.834 72.644 101.738 73.605 101.736C73.9079 101.736 73.8704 101.99 73.6368 102.235C73.4957 102.378 73.3319 102.496 73.1521 102.584C72.931 102.7 72.6904 102.773 72.4425 102.801C70.5473 103.029 68.6348 103.294 66.6935 103.493C65.5396 103.611 64.3454 103.862 63.1685 104.07L62.1127 104.249L60.4829 104.537L61.0166 102.23C61.1954 101.442 61.3685 100.655 61.5243 99.8641C61.7637 98.667 62.0002 97.4613 62.1646 96.2613C62.2916 95.3295 62.3493 94.4064 62.3954 93.4834C62.4098 93.2814 62.3954 93.0824 62.4156 92.8776C62.4618 92.1218 62.5108 91.8911 62.7704 91.7238C62.8248 91.6839 62.8827 91.6491 62.9435 91.6199C63.1368 91.5478 63.281 91.868 63.3156 92.4449C63.3329 94.1995 63.1823 95.9517 62.8656 97.6776C62.6521 98.9815 62.3896 100.274 62.1185 101.575L62.0608 101.546Z" fill="#221F1F"/>
</g>
</g>
</svg>
