<svg width="195" height="80" viewBox="0 0 195 80" fill="none" xmlns="http://www.w3.org/2000/svg">
<g id="Clients / 2. Locus / Light">
<g id="Group">
<path id="Vector" d="M128.605 49.2697C126.998 49.3744 125.425 48.7709 124.301 47.6179C123.242 46.3402 122.708 44.7084 122.805 43.0519V34.9363H125.666V42.8703C125.611 43.8948 125.925 44.9051 126.551 45.7178C127.236 46.4604 128.222 46.8487 129.229 46.7717C129.734 46.7743 130.234 46.6759 130.699 46.4822C131.149 46.2991 131.553 46.0194 131.883 45.6628C132.225 45.2899 132.491 44.854 132.667 44.3795C132.865 43.8379 132.964 43.2646 132.956 42.6879V34.9363H135.766V48.9831H133.002V47.0584C131.988 48.472 130.345 49.2983 128.605 49.2697Z" fill="#1F1F1F"/>
<path id="Vector_2" d="M114.43 49.2697C113.431 49.2781 112.439 49.0833 111.517 48.6971C110.642 48.3345 109.847 47.8043 109.176 47.1365C108.513 46.4733 107.988 45.6863 107.629 44.8202C107.251 43.9141 107.061 42.9411 107.07 41.9596C107.059 40.9678 107.254 39.9846 107.642 39.0715C108.009 38.2066 108.538 37.4203 109.202 36.7552C109.869 36.0911 110.66 35.5652 111.53 35.2077C112.441 34.831 113.419 34.6408 114.405 34.6482C115.149 34.6426 115.89 34.7477 116.603 34.9601C117.936 35.3581 119.122 36.141 120.011 37.2105C120.448 37.7303 120.803 38.3134 121.064 38.9398L118.54 40.0328C118.212 39.2107 117.646 38.5051 116.915 38.006C116.172 37.5134 115.296 37.2593 114.405 37.2779C113.779 37.2705 113.159 37.3938 112.584 37.6398C112.041 37.8742 111.55 38.2148 111.14 38.6416C109.845 40.0209 109.47 42.0266 110.178 43.7808C110.878 45.5253 112.577 46.6613 114.456 46.6421C115.379 46.6687 116.283 46.3796 117.019 45.8228C117.711 45.2892 118.253 44.5854 118.593 43.7801L121.142 44.847C120.604 46.1245 119.721 47.2271 118.593 48.0319C117.373 48.8783 115.914 49.3114 114.43 49.2675" fill="#1F1F1F"/>
<path id="Vector_3" d="M98.3473 49.2716C97.3641 49.2795 96.3898 49.0846 95.4852 48.6991C93.7395 47.9591 92.3498 46.5694 91.6098 44.8237C90.8475 42.9968 90.8475 40.9409 91.6098 39.114C91.9752 38.2448 92.5051 37.4544 93.1704 36.7862C93.8363 36.1233 94.6224 35.5934 95.4867 35.2248C97.3135 34.4625 99.3694 34.4625 101.196 35.2248C102.954 35.96 104.351 37.3581 105.085 39.1162C105.847 40.9431 105.847 42.999 105.085 44.8258C104.345 46.5765 102.948 47.9677 101.195 48.7013C100.295 49.0842 99.3256 49.279 98.3473 49.2738M98.3473 46.6463C98.9603 46.6521 99.5677 46.528 100.129 46.2822C100.667 46.0456 101.153 45.7052 101.56 45.2804C101.97 44.8503 102.297 44.3473 102.522 43.7973C103.238 42.04 102.862 40.0265 101.56 38.6464C101.15 38.2205 100.659 37.8802 100.117 37.6454C98.9831 37.1598 97.6998 37.1598 96.5659 37.6454C95.4714 38.1276 94.6147 39.0268 94.1859 40.1433C93.7349 41.3196 93.7349 42.621 94.1859 43.7973C94.4032 44.3478 94.7255 44.8508 95.1349 45.2782C95.5411 45.7036 96.0271 46.0447 96.5652 46.2822C97.127 46.5272 97.7344 46.6506 98.3473 46.6441" fill="#1F1F1F"/>
<path id="Vector_4" d="M148.545 43.0008C148.246 42.5214 147.847 42.113 147.374 41.8043C146.878 41.4838 146.339 41.2343 145.774 41.0631C145.184 40.8817 144.595 40.7299 144.005 40.6078C143.153 40.4436 142.314 40.2174 141.494 39.9311C140.962 39.7927 140.592 39.3104 140.597 38.7606C140.595 38.2612 140.826 37.7896 141.222 37.4852C141.785 37.0954 142.464 36.9118 143.146 36.9655C143.816 36.9434 144.48 37.0958 145.072 37.4078C145.596 37.7064 146.041 38.1249 146.372 38.6289L148.322 36.6789C147.804 36.1162 147.188 35.6535 146.503 35.3137C145.453 34.8258 144.304 34.5896 143.147 34.6239C142.384 34.6132 141.624 34.7273 140.898 34.9619C140.277 35.1614 139.699 35.4749 139.193 35.8862C138.741 36.2553 138.372 36.7165 138.113 37.2391C137.867 37.7274 137.738 38.2661 137.736 38.8127C137.714 39.4348 137.862 40.0509 138.165 40.5948C138.447 41.067 138.834 41.4676 139.296 41.7653C139.785 42.0783 140.315 42.3232 140.871 42.4934C141.448 42.6748 142.033 42.8268 142.626 42.9487C143.095 43.0525 143.541 43.1524 143.966 43.2484C144.351 43.3323 144.729 43.4453 145.096 43.5864C145.393 43.695 145.663 43.863 145.892 44.0801C146.094 44.2838 146.202 44.5617 146.192 44.8481C146.187 45.3961 145.927 45.9106 145.489 46.24C144.885 46.6718 144.148 46.8787 143.408 46.8249C142.626 46.8509 141.852 46.6622 141.17 46.2791C140.54 45.8925 140.007 45.3678 139.61 44.7446L137.528 46.8271C138.058 47.5244 138.738 48.0934 139.518 48.4919C140.692 49.0465 141.98 49.314 143.277 49.2722C144.139 49.2895 144.997 49.153 145.811 48.869C146.466 48.6383 147.071 48.2851 147.594 47.8281C148.042 47.4306 148.401 46.9429 148.647 46.3971C148.873 45.9031 148.993 45.3669 148.998 44.8235C149.021 44.1856 148.863 43.5544 148.542 43.0023" fill="#1F1F1F"/>
<path id="Vector_5" d="M78.3335 30H81.1688V46.227H90.4035V48.9855H78.3335V30Z" fill="#1F1F1F"/>
</g>
<g id="Group_2">
<path id="ecaT49Cwq679" d="M59.6666 52.6661H47L53.3333 46.3328H66L59.6666 52.6661Z" fill="#6B6B6B"/>
<path id="ecaT49Cwq6710" d="M47 33.6666V52.6665L53.3333 46.3332V27.3333L47 33.6666Z" fill="#AFAFAF"/>
<path id="ecaT49Cwq6711" d="M65.9997 33.6666H53.333L59.6663 27.3333H72.333L65.9997 33.6666Z" fill="#AFAFAF"/>
<path id="ecaT49Cwq6712" d="M66 33.6666V52.6665L72.3333 46.3332V27.3333L66 33.6666Z" fill="#6B6B6B"/>
</g>
</g>
</svg>
